<svg width="143" height="32" viewBox="0 0 143 32" fill="none" xmlns="http://www.w3.org/2000/svg">
<path d="M34.2695 7.50522H37.5572V23.3408H34.2695V7.50522Z" fill="#273238"/>
<path d="M39.397 17.9157C39.397 16.7764 39.7353 15.6628 40.369 14.7159C41.0026 13.7691 41.9031 13.0317 42.9564 12.5972C44.0096 12.1627 45.1681 12.0507 46.285 12.2754C47.402 12.5001 48.427 13.0513 49.2304 13.8592C50.0337 14.6672 50.579 15.6954 50.7973 16.8136C51.0156 17.9318 50.8969 19.0897 50.4564 20.1404C50.0159 21.1911 49.2734 22.0873 48.3229 22.7156C47.3724 23.3438 46.2569 23.6757 45.1176 23.6692C44.3619 23.6751 43.6127 23.5301 42.9138 23.2426C42.2149 22.9551 41.5805 22.531 41.0477 21.9952C40.5149 21.4593 40.0944 20.8224 39.811 20.1219C39.5275 19.4214 39.3868 18.6714 39.397 17.9157ZM47.6381 17.9157C47.6252 17.4246 47.4677 16.9481 47.1854 16.546C46.9031 16.1438 46.5085 15.8338 46.051 15.6547C45.5934 15.4757 45.0932 15.4355 44.613 15.5392C44.1327 15.6429 43.6936 15.8859 43.3507 16.2378C43.0078 16.5897 42.7763 17.0349 42.6851 17.5177C42.5939 18.0005 42.6471 18.4995 42.838 18.9523C43.0289 19.405 43.349 19.7914 43.7584 20.0632C44.1677 20.3349 44.6481 20.48 45.1395 20.4801C45.474 20.4867 45.8063 20.4241 46.1155 20.2964C46.4248 20.1687 46.7044 19.9785 46.9368 19.7378C47.1693 19.4972 47.3496 19.2111 47.4665 18.8976C47.5834 18.5841 47.6343 18.2499 47.6162 17.9157H47.6381Z" fill="#273238"/>
<path d="M63.8469 12.4926V22.8049C63.8469 26.4433 60.9976 27.9885 58.1154 27.9885C57.0988 28.0719 56.0791 27.8699 55.171 27.4053C54.263 26.9406 53.5027 26.2317 52.9757 25.3583L55.7483 23.7583C55.973 24.2113 56.3303 24.5851 56.7728 24.8298C57.2153 25.0745 57.7219 25.1786 58.225 25.1282C58.5455 25.1677 58.8708 25.1359 59.1776 25.035C59.4843 24.9341 59.765 24.7667 59.9996 24.5447C60.2341 24.3228 60.4167 24.0517 60.5343 23.7509C60.6519 23.4501 60.7016 23.1271 60.6798 22.8049V21.8076C60.2972 22.2715 59.8118 22.6398 59.262 22.8833C58.7122 23.1268 58.1133 23.2388 57.5127 23.2104C56.0594 23.2104 54.6657 22.6331 53.6381 21.6055C52.6105 20.5779 52.0332 19.1842 52.0332 17.7309C52.0332 16.2777 52.6105 14.884 53.6381 13.8564C54.6657 12.8288 56.0594 12.2515 57.5127 12.2515C58.1133 12.2231 58.7122 12.3351 59.262 12.5786C59.8118 12.8221 60.2972 13.1904 60.6798 13.6542V12.5583L63.8469 12.4926ZM60.6798 17.6981C60.7016 17.1737 60.5662 16.6549 60.2908 16.2082C60.0154 15.7615 59.6127 15.4074 59.1344 15.1914C58.6562 14.9754 58.1242 14.9075 57.607 14.9962C57.0898 15.085 56.611 15.3265 56.2321 15.6895C55.8532 16.0526 55.5916 16.5207 55.481 17.0337C55.3703 17.5467 55.4156 18.081 55.611 18.568C55.8064 19.055 56.1431 19.4724 56.5777 19.7666C57.0122 20.0607 57.5249 20.2181 58.0496 20.2186C58.3921 20.2433 58.7358 20.1958 59.0588 20.0794C59.3817 19.9629 59.6767 19.78 59.9245 19.5425C60.1724 19.305 60.3677 19.0181 60.4978 18.7004C60.6279 18.3827 60.6899 18.0412 60.6798 17.6981Z" fill="#273238"/>
<path d="M65.6996 17.9158C65.6996 16.7774 66.0373 15.6646 66.67 14.7183C67.3027 13.7719 68.2019 13.0345 69.2538 12.5993C70.3058 12.1642 71.4631 12.0509 72.5795 12.2738C73.6959 12.4967 74.721 13.0457 75.5252 13.8514C76.3294 14.6572 76.8765 15.6834 77.0972 16.8001C77.318 17.9169 77.2025 19.0741 76.7653 20.1252C76.3282 21.1763 75.5891 22.0741 74.6415 22.705C73.6939 23.3358 72.5805 23.6714 71.4421 23.6693C70.685 23.6766 69.9341 23.5327 69.2333 23.246C68.5326 22.9594 67.8961 22.5357 67.3613 21.9998C66.8264 21.4639 66.4039 20.8267 66.1186 20.1254C65.8333 19.4241 65.6908 18.6729 65.6996 17.9158ZM73.9407 17.9158C73.9277 17.4242 73.77 16.9473 73.4872 16.5449C73.2044 16.1425 72.8092 15.8326 72.351 15.6538C71.8928 15.4751 71.3921 15.4355 70.9115 15.5401C70.431 15.6447 69.992 15.8888 69.6495 16.2418C69.3071 16.5948 69.0764 17.0411 68.9865 17.5246C68.8965 18.0081 68.9512 18.5074 69.1438 18.9599C69.3364 19.4125 69.6582 19.7981 70.069 20.0686C70.4798 20.339 70.9612 20.4822 71.453 20.4802C71.7876 20.4867 72.1198 20.4242 72.4291 20.2965C72.7384 20.1687 73.018 19.9786 73.2504 19.7379C73.4828 19.4973 73.6631 19.2112 73.78 18.8977C73.8969 18.5842 73.9479 18.2499 73.9297 17.9158H73.9407Z" fill="#273238"/>
<path d="M78.707 9.58658C78.707 9.20077 78.8214 8.82363 79.0358 8.50284C79.2501 8.18205 79.5548 7.93203 79.9112 7.78438C80.2677 7.63674 80.6599 7.59811 81.0383 7.67338C81.4167 7.74865 81.7643 7.93443 82.0371 8.20724C82.3099 8.48005 82.4956 8.82762 82.5709 9.20602C82.6462 9.58442 82.6076 9.97664 82.4599 10.3331C82.3123 10.6895 82.0622 10.9942 81.7415 11.2085C81.4207 11.4229 81.0435 11.5373 80.6577 11.5373C80.1421 11.5316 79.6493 11.3242 79.2847 10.9596C78.9201 10.595 78.7127 10.1022 78.707 9.58658ZM79.0248 12.4907H82.3125V23.34H79.0248V12.4907Z" fill="#273238"/>
<path d="M96.3848 17.9171C96.4216 18.6386 96.3154 19.3603 96.0723 20.0406C95.8291 20.721 95.4538 21.3465 94.968 21.8812C94.4821 22.416 93.8953 22.8494 93.2413 23.1564C92.5874 23.4635 91.8791 23.6382 91.1574 23.6705C90.5449 23.7112 89.9311 23.6132 89.3619 23.3835C88.7926 23.1539 88.2825 22.7988 87.8697 22.3445V27.7034H84.582V12.4924H87.8697V13.5116C88.2831 13.0587 88.7935 12.7051 89.3628 12.4774C89.9322 12.2496 90.5457 12.1536 91.1574 12.1965C91.8762 12.2289 92.5817 12.4025 93.2334 12.7075C93.8852 13.0126 94.4704 13.4429 94.9559 13.9742C95.4413 14.5054 95.8173 15.127 96.0625 15.8035C96.3076 16.48 96.4172 17.1982 96.3848 17.9171ZM93.0971 17.9171C93.0841 17.4081 92.9213 16.9142 92.6288 16.4974C92.3364 16.0806 91.9275 15.7594 91.4533 15.5741C90.979 15.3887 90.4607 15.3474 89.9631 15.4554C89.4655 15.5634 89.0109 15.8158 88.6562 16.1811C88.3015 16.5464 88.0625 17.0082 87.9692 17.5087C87.8758 18.0092 87.9323 18.5262 88.1315 18.9947C88.3307 19.4633 88.6638 19.8627 89.089 20.1427C89.5142 20.4228 90.0126 20.5711 90.5218 20.5691C90.8705 20.5839 91.2184 20.5248 91.5427 20.3957C91.867 20.2667 92.1604 20.0705 92.4036 19.8201C92.6467 19.5696 92.8342 19.2707 92.9538 18.9427C93.0733 18.6147 93.1221 18.2652 93.0971 17.9171Z" fill="#273238"/>
<path d="M106.389 20.0865C106.389 22.5851 104.197 23.6481 101.874 23.6481C100.926 23.7334 99.9746 23.5325 99.1424 23.0715C98.3101 22.6104 97.6353 21.9104 97.2051 21.0618L100.032 19.4618C100.144 19.8528 100.387 20.1936 100.721 20.427C101.054 20.6604 101.457 20.7723 101.863 20.744C102.641 20.744 103.035 20.5029 103.035 20.0645C103.035 18.87 97.6982 19.5056 97.6982 15.7467C97.6982 13.3796 99.6928 12.196 101.95 12.196C102.808 12.1576 103.661 12.3523 104.417 12.7594C105.174 13.1666 105.806 13.7709 106.246 14.5084L103.419 15.9988C103.294 15.7161 103.09 15.4756 102.831 15.3064C102.572 15.1372 102.27 15.0465 101.961 15.0454C101.391 15.0454 101.052 15.2645 101.052 15.6481C101.052 16.8974 106.389 16.0755 106.389 20.0865Z" fill="#273238"/>
<path d="M118.301 12.4938V23.3432H115.014V22.324C114.64 22.7751 114.166 23.1321 113.629 23.3663C113.092 23.6004 112.508 23.7051 111.923 23.6719C109.731 23.6719 107.857 22.1048 107.857 19.1788V12.4938H111.145V18.6856C111.119 18.9445 111.15 19.2059 111.235 19.4517C111.32 19.6976 111.457 19.922 111.638 20.1096C111.818 20.2972 112.037 20.4433 112.279 20.5381C112.521 20.6328 112.781 20.6738 113.041 20.6582C114.225 20.6582 115.057 19.9569 115.057 18.4664V12.4938H118.301Z" fill="#273238"/>
<path d="M136.931 16.679V23.342H133.644V16.9639C133.644 15.868 133.128 15.1885 132.087 15.1885C131.046 15.1885 130.389 15.9447 130.389 17.2269V23.342H127.101V16.9639C127.101 15.868 126.586 15.1885 125.545 15.1885C124.504 15.1885 123.846 15.9447 123.846 17.2269V23.342H120.559V12.4927H123.846V13.4899C124.187 13.0493 124.631 12.7004 125.14 12.4746C125.649 12.2489 126.206 12.1534 126.761 12.1968C127.317 12.1678 127.871 12.2838 128.369 12.5336C128.867 12.7834 129.291 13.1582 129.6 13.6214C129.961 13.1375 130.439 12.753 130.989 12.5039C131.539 12.2548 132.143 12.1491 132.745 12.1968C135.309 12.1968 136.931 13.9721 136.931 16.679Z" fill="#273238"/>
<path d="M14.6849 4.65753V0H0V32H14.6849V27.3425C11.6767 27.3425 8.79172 26.1475 6.6646 24.0203C4.53747 21.8932 3.34247 19.0082 3.34247 16C3.34247 12.9918 4.53747 10.1068 6.6646 7.97967C8.79172 5.85254 11.6767 4.65753 14.6849 4.65753Z" fill="#3C5FAC"/>
<path d="M14.6836 4.6572V27.3421C17.6918 27.3421 20.5768 26.1471 22.7039 24.02C24.8311 21.8929 26.0261 19.0079 26.0261 15.9997C26.0261 12.9915 24.8311 10.1065 22.7039 7.97933C20.5768 5.8522 17.6918 4.6572 14.6836 4.6572Z" fill="#3C5FAC"/>
<path d="M139.692 12.4247C141.024 12.4247 142.103 11.3452 142.103 10.0137C142.103 8.68218 141.024 7.60275 139.692 7.60275C138.361 7.60275 137.281 8.68218 137.281 10.0137C137.281 11.3452 138.361 12.4247 139.692 12.4247Z" fill="#273238"/>
</svg>
