<svg width="120" height="120" viewBox="0 0 120 120" fill="none" xmlns="http://www.w3.org/2000/svg">
<path d="M36.0079 59.619L19.2694 59.067C18.879 59.0538 18.4902 59.1231 18.1284 59.2706C17.7666 59.418 17.4399 59.6402 17.1699 59.9225C16.8999 60.2048 16.6926 60.5409 16.5613 60.909C16.4302 61.277 16.3783 61.6686 16.4089 62.058C16.4884 63.092 16.8427 64.086 17.4349 64.9371C18.0273 65.7884 18.8361 66.4661 19.7779 66.9L27.2854 70.362L36.0079 59.619Z" fill="white"/>
<path d="M36.0068 58.869L34.6103 58.8225L31.1708 58.71L26.7953 58.56L22.6493 58.428L19.8413 58.335L19.2908 58.317C18.3868 58.2964 17.5082 58.6179 16.8308 59.217C14.9708 60.825 15.5888 63.717 16.8953 65.4735C17.5444 66.3648 18.4054 67.0804 19.4003 67.5555L20.1308 67.8915L23.7443 69.558L26.7443 70.941L26.9063 71.016C27.1853 71.1435 27.5948 71.166 27.8153 70.8975L28.6808 69.8325L30.7583 67.2735L33.2873 64.1595L35.4623 61.4805C35.8163 61.0455 36.1718 60.612 36.5228 60.1755L36.5378 60.1575C36.7838 59.8575 36.8573 59.3895 36.5378 59.097C36.2633 58.845 35.7413 58.7715 35.4773 59.097L34.6118 60.162L32.5328 62.721L29.9993 65.8275L27.8228 68.5065C27.4718 68.94 27.0923 69.36 26.7638 69.8115L26.7488 69.8295L27.6578 69.7125L25.5068 68.721L21.6923 66.9615C20.8508 66.5745 19.9343 66.2295 19.1783 65.6835C19.1228 65.643 19.0088 65.577 19.1363 65.655C19.0834 65.6188 19.0333 65.5786 18.9863 65.535C18.8828 65.448 18.7823 65.358 18.6863 65.2635C18.5903 65.169 18.5093 65.0865 18.4253 64.9935C18.343 64.8762 18.2507 64.7662 18.1493 64.665C18.1493 64.665 18.2333 64.7775 18.1853 64.71C18.1703 64.6875 18.1538 64.6665 18.1373 64.644C18.0953 64.587 18.0548 64.5285 18.0158 64.4685C17.9408 64.3575 17.8658 64.2435 17.8028 64.1265C17.7398 64.0095 17.6813 63.9075 17.6273 63.795C17.5993 63.738 17.5723 63.681 17.5463 63.624C17.5358 63.6 17.5253 63.5745 17.5133 63.5505C17.4758 63.465 17.5658 63.6885 17.5133 63.5505C17.42 63.3051 17.3404 63.0547 17.2748 62.8005C17.2418 62.6685 17.2133 62.535 17.1893 62.4C17.1871 62.3446 17.1785 62.2899 17.1638 62.2365C17.2133 62.349 17.1758 62.3415 17.1638 62.2725C17.1518 62.2035 17.1533 62.181 17.1488 62.1345C17.1398 62.028 17.1338 61.923 17.1338 61.8165C17.1338 61.7565 17.1338 61.6965 17.1338 61.6365C17.1338 61.611 17.1338 61.5855 17.1338 61.56C17.1338 61.464 17.1023 61.7235 17.1338 61.584C17.1563 61.4685 17.1788 61.356 17.2118 61.2435C17.2283 61.188 17.2493 61.134 17.2673 61.08C17.2742 61.0564 17.2826 61.0333 17.2928 61.011C17.2928 61.011 17.2238 61.161 17.2928 61.032C17.3438 60.93 17.3963 60.831 17.4578 60.732C17.4878 60.684 17.5208 60.639 17.5523 60.591C17.6333 60.474 17.5253 60.63 17.5238 60.627C17.5424 60.6009 17.563 60.5763 17.5853 60.5535C17.659 60.4674 17.738 60.3862 17.8223 60.3105C17.8358 60.297 17.9543 60.18 17.9723 60.1845C17.9903 60.189 17.8463 60.273 17.9183 60.2295C17.9528 60.2085 17.9843 60.1815 18.0173 60.1605C18.1138 60.0976 18.214 60.0405 18.3173 59.9895C18.3383 59.979 18.3623 59.97 18.3833 59.958C18.4688 59.91 18.2453 60.0045 18.3398 59.976C18.4028 59.9565 18.4628 59.9295 18.5258 59.91C18.6373 59.8741 18.7511 59.8455 18.8663 59.8245C19.0553 59.7915 18.7553 59.8245 18.8933 59.8245C18.9623 59.8245 19.0313 59.814 19.1003 59.8125C19.2623 59.8125 19.4258 59.8125 19.5893 59.8245L22.0298 59.9055L25.9508 60.0345L30.2843 60.177L33.9578 60.2985L35.9078 60.363H35.9963C36.1952 60.363 36.386 60.2839 36.5266 60.1434C36.6673 60.0027 36.7463 59.8119 36.7463 59.613C36.7411 59.4181 36.6616 59.2326 36.5242 59.0943C36.3868 58.956 36.2017 58.8754 36.0068 58.869Z" fill="black"/>
<path d="M45.5415 68.0805L46.9365 84.7695C46.9692 85.1594 46.9191 85.5518 46.7896 85.9211C46.6602 86.2902 46.4542 86.628 46.1851 86.9121C45.916 87.1961 45.5901 87.4202 45.2283 87.5694C44.8666 87.7188 44.4775 87.7901 44.0865 87.7785C43.0498 87.7508 42.0394 87.4469 41.1594 86.8982C40.2795 86.3493 39.562 85.5758 39.081 84.657L35.25 77.3325L45.5415 68.0805Z" fill="white"/>
<path d="M44.7911 68.0805L44.9036 69.4305L45.1826 72.7665L45.5381 77.0235L45.8816 81.135L46.1246 84.033C46.1426 84.255 46.1621 84.483 46.1801 84.6975C46.1801 84.7755 46.1921 84.8475 46.1951 84.9285C46.1951 85.05 46.1951 85.1685 46.1816 85.2885C46.1681 85.4085 46.2086 85.1385 46.1816 85.314C46.1696 85.3785 46.1546 85.443 46.1381 85.5075C46.1216 85.572 46.1081 85.62 46.0901 85.674C46.0721 85.728 46.0676 85.7355 46.0571 85.767C46.0316 85.842 46.0661 85.7895 46.0571 85.767L46.0766 85.7235L46.0466 85.791C46.0346 85.812 46.0256 85.8345 46.0136 85.857C45.9851 85.914 45.9551 85.971 45.9221 86.028C45.8891 86.085 45.8531 86.139 45.8171 86.1915C45.8036 86.211 45.7871 86.2305 45.7751 86.2515C45.7286 86.337 45.8696 86.142 45.8036 86.2155C45.7376 86.289 45.6461 86.397 45.5576 86.4825C45.5171 86.5215 45.4736 86.5575 45.4316 86.595C45.3056 86.706 45.5201 86.5395 45.4121 86.6115C45.3122 86.6815 45.2085 86.7462 45.1016 86.805L44.9516 86.8815C44.8331 86.94 45.0866 86.8365 44.9246 86.8905C44.8061 86.9295 44.6876 86.967 44.5661 86.994L44.4671 87.0135C44.4161 87.024 44.4071 87.0495 44.4671 87.0135C44.5271 86.9775 44.4956 87.0135 44.4401 87.0135H44.3636C44.2392 87.021 44.1144 87.021 43.9901 87.0135C43.8596 87.0135 43.7306 86.9955 43.6016 86.982C43.4726 86.9685 43.7516 87.006 43.5551 86.982C43.4816 86.97 43.4051 86.958 43.3376 86.943C43.0781 86.8932 42.8225 86.8251 42.5726 86.739L42.3926 86.6745L42.2921 86.634C42.2126 86.6055 42.3431 86.658 42.3461 86.658C42.2195 86.6085 42.0963 86.5509 41.9771 86.4855C41.7362 86.3617 41.5041 86.2213 41.2826 86.0655C41.2631 86.0505 41.1476 85.95 41.1326 85.9545C41.1176 85.959 41.2436 86.043 41.1776 85.989C41.1491 85.965 41.1206 85.944 41.0936 85.92C40.9886 85.8345 40.8866 85.7445 40.7936 85.6515C40.602 85.47 40.4231 85.2754 40.2581 85.0695C40.1396 84.9195 40.3016 85.1355 40.2236 85.026L40.1126 84.876C40.0331 84.762 39.9626 84.645 39.8891 84.525C39.8381 84.438 39.7901 84.3495 39.7391 84.261L39.3251 83.469L37.4726 79.95L35.9801 77.1L35.9006 76.95L35.7836 77.859L36.8036 76.941L39.2546 74.7375L42.2366 72.0555L44.8031 69.75C45.2186 69.3765 45.6521 69.0165 46.0526 68.6265L46.0706 68.61C46.2113 68.4693 46.2902 68.2786 46.2902 68.0798C46.2902 67.8809 46.2113 67.6902 46.0706 67.5495C45.9278 67.4131 45.7379 67.3371 45.5403 67.3371C45.3429 67.3371 45.153 67.4131 45.0101 67.5495L43.9901 68.4675L41.5376 70.6725L38.5496 73.35L35.9831 75.657C35.5691 76.0305 35.1281 76.386 34.7336 76.7805C34.7283 76.7868 34.7223 76.7923 34.7156 76.797C34.6008 76.9156 34.5273 77.0683 34.5063 77.2321C34.4852 77.3959 34.5176 77.5621 34.5986 77.706L35.7296 79.866L37.6961 83.616C38.1866 84.552 38.6291 85.5135 39.3311 86.316C40.113 87.195 41.1164 87.8481 42.2366 88.2075C43.3601 88.575 44.6006 88.6695 45.6941 88.1685C46.1991 87.9274 46.6389 87.5686 46.9764 87.1222C47.3139 86.676 47.5392 86.155 47.6336 85.6035C47.6853 85.2504 47.6943 84.8923 47.6606 84.537L47.4671 82.224L47.1401 78.309L46.7726 73.911L46.4591 70.161L46.2926 68.169L46.2851 68.0775C46.2521 67.6875 45.9626 67.308 45.5351 67.3275C45.1631 67.35 44.7551 67.662 44.7911 68.0805Z" fill="black"/>
<path d="M39.207 28.35L42.9945 23.3145C43.5167 22.6199 44.2631 22.1274 45.1071 21.9204C45.9512 21.7134 46.8407 21.8048 47.625 22.179L50.985 23.7825C51.312 23.9385 51.6029 24.161 51.839 24.4356C52.0752 24.7103 52.2516 25.0311 52.3569 25.3778C52.4622 25.7244 52.494 26.0891 52.4505 26.4488C52.407 26.8085 52.289 27.155 52.104 27.4665L51.579 28.35H39.207Z" fill="white"/>
<path d="M39.8549 28.7295L41.6144 26.391C42.2819 25.503 42.9539 24.618 43.6169 23.727L43.6379 23.7C43.6379 23.7 44.2379 22.9605 43.6124 23.733C43.5434 23.8185 43.6439 23.697 43.6574 23.6805C43.7393 23.5833 43.8265 23.4907 43.9184 23.403C43.9694 23.352 44.0234 23.304 44.0774 23.253C44.0969 23.235 44.1179 23.2185 44.1389 23.202C44.2199 23.1345 44.1809 23.1405 44.1389 23.202C44.2297 23.1174 44.3335 23.0479 44.4464 22.9965C44.5679 22.9245 44.6924 22.863 44.8199 22.8015C44.9474 22.74 44.6954 22.848 44.8574 22.785L45.0299 22.7235C45.1634 22.6815 45.2984 22.644 45.4349 22.6155C45.4934 22.6035 45.5549 22.5945 45.6149 22.584C45.7169 22.563 45.4649 22.599 45.5699 22.584L45.6749 22.5735C45.8056 22.5615 45.9368 22.557 46.0679 22.56C46.1384 22.56 46.2089 22.56 46.2794 22.569H46.3904C46.2794 22.569 46.4624 22.5825 46.4999 22.59C46.5704 22.602 46.6394 22.6185 46.7099 22.635C46.8409 22.6678 46.97 22.7074 47.0969 22.7535L47.1734 22.782C47.3024 22.8315 47.1644 22.7745 47.1464 22.77C47.1821 22.782 47.2165 22.798 47.2484 22.818L47.3684 22.875C48.4285 23.38 49.489 23.886 50.5499 24.393C50.6309 24.432 50.7119 24.471 50.7899 24.516C50.8409 24.546 50.8919 24.5775 50.9399 24.6105L51.0014 24.654C51.1199 24.735 50.9729 24.627 50.9699 24.627C51.0404 24.627 51.2099 24.846 51.2579 24.8985L51.3059 24.9525C51.3374 24.987 51.4004 25.0155 51.3239 24.972C51.2474 24.9285 51.2954 24.93 51.3239 24.972L51.3794 25.0515C51.4487 25.1596 51.5123 25.2712 51.5699 25.386C51.6299 25.503 51.5174 25.236 51.5774 25.407C51.5969 25.4595 51.6164 25.512 51.6314 25.566C51.6464 25.62 51.6629 25.674 51.6749 25.728C51.68 25.8004 51.6943 25.872 51.7169 25.941C51.7169 25.941 51.7034 25.7805 51.7049 25.86C51.7049 25.893 51.7049 25.9245 51.7124 25.956C51.7124 26.013 51.7124 26.0685 51.7124 26.1255C51.7124 26.1825 51.7124 26.238 51.7124 26.295C51.7124 26.328 51.7049 26.3595 51.7049 26.3925C51.7049 26.487 51.7364 26.2245 51.7049 26.3625C51.6838 26.4757 51.6568 26.5879 51.6239 26.6985C51.5966 26.7597 51.574 26.8228 51.5564 26.8875C51.5564 26.8875 51.6194 26.751 51.5819 26.8245C51.5639 26.8635 51.5459 26.9025 51.5264 26.94C51.3914 27.201 51.2264 27.45 51.0764 27.702L50.9264 27.9585L51.5744 27.588H39.2069C39.008 27.588 38.8172 27.667 38.6767 27.8076C38.536 27.9483 38.4569 28.1391 38.4569 28.338C38.4569 28.5369 38.536 28.7277 38.6767 28.8682C38.8172 29.0089 39.008 29.088 39.2069 29.088H51.2249C51.6194 29.088 51.9644 29.1075 52.2299 28.71C52.3799 28.4895 52.5029 28.251 52.6394 28.0215C52.8449 27.6955 53.003 27.342 53.1089 26.9715C53.2432 26.4396 53.2474 25.8831 53.1214 25.3492C52.9952 24.8154 52.7425 24.3196 52.3844 23.904C51.9944 23.4435 51.4844 23.175 50.9534 22.9215C49.9739 22.455 49.0034 21.9825 48.0149 21.519C47.0659 21.0583 45.9884 20.934 44.9594 21.1665C43.9085 21.4248 42.9827 22.0458 42.3449 22.92C41.8019 23.637 41.2634 24.3585 40.7219 25.0785L38.6804 27.7935L38.5604 27.9525C38.3234 28.2675 38.4989 28.8045 38.8289 28.98C39.2234 29.2065 39.5999 29.0655 39.8549 28.7295Z" fill="black"/>
<path d="M77.1299 64.8375L82.2554 61.176C82.9623 60.6706 83.4729 59.9364 83.7003 59.0976C83.9277 58.2589 83.8583 57.3673 83.5034 56.574L81.9824 53.175C81.8343 52.8444 81.6191 52.5483 81.3501 52.3056C81.0813 52.0629 80.7648 51.8788 80.4209 51.7653C80.0769 51.6516 79.7132 51.6109 79.3526 51.6457C78.9921 51.6805 78.6428 51.7902 78.3269 51.9675L77.4269 52.4715L77.1299 64.8375Z" fill="white"/>
<path d="M77.508 65.4855L79.617 63.978L82.4295 61.9695C82.9493 61.6191 83.4059 61.1829 83.7795 60.6795C84.4056 59.7868 84.6803 58.6945 84.5505 57.612C84.4878 57.1176 84.3519 56.6353 84.147 56.181C84.084 56.04 84.0195 55.899 83.9565 55.7565L83.172 54C82.992 53.5995 82.8165 53.1975 82.6335 52.8C82.422 52.3506 82.1132 51.954 81.729 51.639C81.345 51.324 80.8956 51.0985 80.4135 50.979C79.8792 50.8494 79.3218 50.8494 78.7875 50.979C78.4187 51.0805 78.0654 51.2319 77.7375 51.429C77.5095 51.5565 77.2665 51.672 77.0475 51.816C76.9298 51.8958 76.8339 52.0038 76.7684 52.1299C76.703 52.2562 76.67 52.3968 76.6725 52.539C76.647 53.256 76.638 53.9745 76.62 54.693L76.5255 58.554L76.4295 62.469L76.374 64.719V64.8255C76.374 65.0244 76.4531 65.2152 76.5938 65.3559C76.7343 65.4964 76.9251 65.5755 77.124 65.5755C77.3219 65.572 77.5106 65.4919 77.6505 65.352C77.7905 65.212 77.8706 65.0233 77.874 64.8255L77.976 60.6525L78.15 54L78.1875 52.4655L77.817 53.112L78.534 52.7085C78.639 52.65 78.7425 52.59 78.8505 52.5375C78.8795 52.5189 78.9107 52.5042 78.9435 52.494C78.9345 52.494 78.7725 52.557 78.9045 52.512C78.96 52.494 79.0155 52.473 79.0725 52.4565C79.1295 52.44 79.1835 52.4265 79.2405 52.413C79.2975 52.3995 79.404 52.413 79.434 52.377C79.3845 52.422 79.284 52.392 79.38 52.3875L79.4775 52.38C79.5345 52.38 79.5915 52.38 79.647 52.38C79.7025 52.38 79.7595 52.38 79.8165 52.389C79.8482 52.3951 79.8803 52.3981 79.9125 52.398C79.869 52.4175 79.7415 52.3665 79.8795 52.398C79.989 52.422 80.0985 52.446 80.205 52.4805C80.205 52.4805 80.355 52.5405 80.364 52.536C80.373 52.5315 80.214 52.467 80.3175 52.5165L80.4255 52.569C80.526 52.6215 80.619 52.6815 80.715 52.743C80.865 52.842 80.6385 52.671 80.7375 52.7565C80.793 52.8045 80.8485 52.8525 80.901 52.9065C80.9535 52.9605 80.982 52.9875 81.0195 53.031C81.057 53.0745 81.144 53.1975 81.087 53.1075C81.03 53.0175 81.129 53.1705 81.1455 53.196C81.1875 53.259 81.225 53.325 81.261 53.3925C81.477 53.7975 81.645 54.2325 81.831 54.651L82.6755 56.55C82.7207 56.6896 82.7811 56.824 82.8555 56.9505C82.8555 56.9505 82.8045 56.82 82.8345 56.901C82.8645 56.982 82.881 57.0195 82.902 57.0795C82.9497 57.216 82.9893 57.3553 83.0205 57.4965C83.034 57.5565 83.046 57.618 83.0565 57.6795C83.0895 57.873 83.0565 57.579 83.0565 57.717C83.0565 57.855 83.0775 57.999 83.076 58.14C83.0745 58.281 83.064 58.401 83.0535 58.533C83.046 58.6185 83.0625 58.464 83.0625 58.4625C83.0547 58.4965 83.0492 58.5312 83.046 58.566C83.034 58.635 83.0205 58.704 83.004 58.7715C82.9742 58.8988 82.9376 59.0245 82.8945 59.148C82.8831 59.2083 82.8612 59.2662 82.83 59.319C82.839 59.3085 82.9035 59.1585 82.845 59.2845L82.8 59.379C82.7424 59.4976 82.6788 59.6133 82.6095 59.7255C82.5765 59.7765 82.5435 59.829 82.5075 59.8755L82.446 59.961C82.3815 60.0525 82.446 59.94 82.4655 59.9355C82.4145 59.946 81.9375 60.5565 81.8955 60.507C81.8955 60.507 82.0125 60.4215 81.9165 60.4905L81.8715 60.5235L81.84 60.546L81.708 60.6405L81.2025 61.002L79.5855 62.157C78.657 62.82 77.727 63.4785 76.8015 64.146L76.749 64.1835C76.431 64.41 76.2465 64.8465 76.4805 65.2095C76.686 65.532 77.166 65.73 77.508 65.4855Z" fill="black"/>
<path d="M63.6765 28.5255H22.6875C22.191 28.5254 21.7015 28.6425 21.259 28.8674C20.8165 29.0922 20.4334 29.4186 20.1409 29.8197C19.8484 30.2208 19.6549 30.6854 19.576 31.1756C19.4973 31.6656 19.5355 32.1675 19.6875 32.64C20.2291 34.3152 21.196 35.8214 22.4938 37.0113C23.7915 38.2013 25.3756 39.0342 27.0915 39.429L49.2585 44.529L63.6765 28.5255Z" fill="white"/>
<path d="M63.677 27.7755H22.712C21.7751 27.7791 20.8693 28.112 20.153 28.716C19.103 29.586 18.653 30.9765 18.8465 32.3025C18.941 32.9415 19.22 33.567 19.487 34.149C19.7513 34.7208 20.0677 35.2671 20.432 35.781C21.9715 37.9565 24.2459 39.5016 26.8355 40.131C27.3245 40.2465 27.8135 40.356 28.3025 40.4685L31.8935 41.295L36.7205 42.4065L41.7695 43.569L46.1015 44.5665L48.713 45.1665L49.0655 45.2475C49.1935 45.2822 49.3282 45.2828 49.4564 45.249C49.5847 45.2154 49.7017 45.1487 49.796 45.0555L51.2285 43.4625L54.6785 39.639L58.844 35.013L62.444 31.014C63.0245 30.3675 63.617 29.73 64.19 29.0745L64.2155 29.046C64.478 28.755 64.5245 28.2705 64.2155 27.9855C63.929 27.723 63.434 27.675 63.155 27.9855L61.721 29.5785L58.2785 33.402L54.1055 38.037L50.5055 42.036C49.925 42.6795 49.3055 43.3035 48.7595 43.9755C48.7502 43.9844 48.7417 43.9938 48.734 44.004L49.463 43.8105L48.059 43.488L44.5055 42.669L39.7265 41.568L34.7135 40.4145L30.3815 39.417L27.71 38.802L27.2975 38.7075C26.7592 38.5814 26.2316 38.4134 25.7195 38.205C25.7075 38.205 25.61 38.16 25.6925 38.1945L25.637 38.1705L25.436 38.079C25.286 38.0115 25.154 37.9425 25.0145 37.869C24.7385 37.7231 24.469 37.5645 24.206 37.3935C24.083 37.314 23.963 37.2315 23.8445 37.1475L23.669 37.0185L23.5685 36.9435C23.6525 37.008 23.603 36.969 23.549 36.927C23.315 36.738 23.089 36.5381 22.871 36.327C22.646 36.1125 22.43 35.8875 22.226 35.652C22.13 35.5425 22.0385 35.43 21.947 35.316C21.8555 35.202 21.932 35.298 21.947 35.316L21.872 35.217L21.722 35.0145C21.3637 34.5093 21.0518 33.9726 20.7905 33.411C20.759 33.3435 20.729 33.276 20.699 33.2085C20.6405 33.078 20.6885 33.186 20.699 33.2085L20.663 33.12C20.5985 32.961 20.5385 32.802 20.483 32.6415C20.441 32.5215 20.4005 32.4 20.3675 32.2785C20.348 32.2095 20.3315 32.139 20.318 32.0685C20.309 32.0295 20.3045 31.989 20.2955 31.95C20.309 32.007 20.3075 32.061 20.2955 31.971C20.2816 31.824 20.2765 31.6761 20.2805 31.5285C20.2805 31.461 20.291 31.3935 20.2955 31.326C20.2835 31.4955 20.2955 31.308 20.312 31.242C20.3389 31.1117 20.3735 30.9828 20.4155 30.8565C20.4305 30.816 20.5265 30.5985 20.444 30.771C20.4755 30.7035 20.507 30.6345 20.5415 30.5685C20.603 30.4515 20.6722 30.3389 20.7485 30.231L20.8145 30.141C20.8145 30.141 20.726 30.2385 20.7845 30.1815C20.843 30.1245 20.8955 30.0525 20.954 29.9925C21.0455 29.898 21.146 29.8125 21.254 29.727C21.143 29.8215 21.254 29.727 21.308 29.6925C21.362 29.658 21.4355 29.61 21.5015 29.5725C21.5675 29.535 21.6185 29.5065 21.6785 29.478C21.713 29.46 21.749 29.445 21.7835 29.4285C21.761 29.439 21.6335 29.484 21.7655 29.4375C21.9041 29.3879 22.0453 29.3457 22.1885 29.3115C22.256 29.2965 22.325 29.2845 22.394 29.2725C22.244 29.2995 22.4045 29.2725 22.4675 29.2725C22.5305 29.2725 22.6175 29.265 22.6865 29.265H63.677C63.8759 29.265 64.0667 29.186 64.2074 29.0453C64.348 28.9047 64.427 28.7139 64.427 28.515C64.427 28.3161 64.348 28.1253 64.2074 27.9846C64.0667 27.8441 63.8759 27.765 63.677 27.765V27.7755Z" fill="black"/>
<path d="M77.1954 39.9L77.2794 80.8891C77.2794 81.385 77.1622 81.8738 76.9377 82.316C76.713 82.7581 76.387 83.1409 75.9865 83.4332C75.586 83.7256 75.1221 83.9192 74.6324 83.9984C74.143 84.0776 73.6417 84.0403 73.1693 83.8891C71.4934 83.3503 69.9857 82.3865 68.7932 81.0916C67.6009 79.7965 66.7643 78.2146 66.3653 76.5L61.2158 54.339L77.1954 39.9Z" fill="white"/>
<path d="M76.4443 39.9V40.74V43.047L76.4518 46.5375L76.4608 50.8875L76.4713 55.8195L76.4818 61.017L76.4998 66.15L76.5088 70.95L76.5178 75.1381V78.3825V80.3761V80.8171C76.5178 80.8381 76.5178 80.8591 76.5178 80.8801C76.5178 80.9836 76.5103 81.0856 76.5028 81.1891C76.5028 81.2056 76.4893 81.3091 76.5028 81.2101C76.5163 81.1111 76.5028 81.2355 76.4923 81.2595C76.4788 81.339 76.4608 81.4095 76.4413 81.4935C76.4218 81.5775 76.4038 81.6255 76.3828 81.69C76.3693 81.7275 76.3558 81.7636 76.3438 81.7996C76.3318 81.8356 76.3003 81.9076 76.3438 81.8176C76.3873 81.7276 76.2988 81.9106 76.2838 81.9376C76.2448 82.0136 76.2028 82.0886 76.1578 82.1626C76.1233 82.2196 76.0843 82.2735 76.0468 82.329C75.9733 82.4385 76.1308 82.2391 76.0078 82.3786C75.9139 82.4845 75.8137 82.5847 75.7078 82.6786C75.6793 82.7056 75.4918 82.8555 75.6433 82.7416C75.5908 82.7805 75.5368 82.8195 75.4828 82.8556C75.3653 82.934 75.2425 83.0041 75.1153 83.0656L75.0133 83.1136C75.0133 83.1136 75.1423 83.0686 75.0613 83.0926C74.9803 83.1166 74.9383 83.1391 74.8753 83.1586C74.7279 83.2045 74.5776 83.2406 74.4253 83.2666C74.2903 83.292 74.5603 83.2666 74.3668 83.2666C74.2978 83.2666 74.2303 83.2756 74.1628 83.2756C74.0953 83.2756 74.0248 83.2756 73.9573 83.2756C73.8898 83.2756 73.6453 83.2291 73.8298 83.2681C73.5538 83.2109 73.2822 83.1347 73.0168 83.0401C72.8773 82.989 72.7393 82.9336 72.5998 82.8796C72.4933 82.8376 72.7063 82.9276 72.5998 82.8796L72.5128 82.8406L72.2533 82.722C71.6953 82.4546 71.1627 82.1373 70.6618 81.774L70.4863 81.6435C70.3963 81.5775 70.5763 81.717 70.4863 81.6435L70.4128 81.5851C70.2838 81.4816 70.1563 81.3736 70.0318 81.2641C69.7998 81.0571 69.5769 80.84 69.3628 80.613C69.1573 80.3925 68.9638 80.163 68.7763 79.9275C68.7058 79.8405 68.8438 80.022 68.7763 79.9275L68.7193 79.8525L68.5693 79.6516C68.4793 79.5241 68.3938 79.3935 68.3098 79.2615C68.1418 78.9975 67.9858 78.726 67.8418 78.447C67.7758 78.3165 67.7113 78.1845 67.6498 78.0525L67.5598 77.85C67.5478 77.823 67.5073 77.718 67.5598 77.85C67.5448 77.8095 67.5283 77.7721 67.5133 77.7316C67.3248 77.2561 67.1719 76.7672 67.0558 76.269C66.9358 75.762 66.8178 75.254 66.7018 74.745L65.8528 71.0985L64.7398 66.3075L63.5998 61.311L62.6068 57.042L62.0068 54.492L61.9258 54.1455L61.7338 54.8745L63.3223 53.4375L67.1398 49.9875L71.7583 45.813L75.7483 42.2055C76.3918 41.6235 77.0623 41.061 77.6848 40.4565C77.6937 40.4472 77.7031 40.4387 77.7133 40.431C77.8539 40.2903 77.9329 40.0997 77.9329 39.9008C77.9329 39.7019 77.8539 39.5112 77.7133 39.3705C77.5707 39.2339 77.3806 39.1575 77.183 39.1575C76.9855 39.1575 76.7954 39.2339 76.6528 39.3705L75.0748 40.8L71.2573 44.25L66.6403 48.423L62.6488 52.0305C62.0053 52.6125 61.3363 53.1765 60.7138 53.781L60.6853 53.8065C60.5913 53.9003 60.5238 54.0173 60.4899 54.1457C60.4558 54.2739 60.4566 54.4091 60.4918 54.537L60.8233 55.962L61.6648 59.583L62.7838 64.3965L63.9598 69.4605L64.9633 73.776L65.5633 76.353C65.8765 77.8092 66.4684 79.1912 67.3063 80.4226C68.0728 81.517 69.0289 82.4653 70.1293 83.2231C70.6498 83.5805 71.2023 83.8892 71.7793 84.1455C72.4213 84.4291 73.0693 84.6841 73.7698 84.765C74.4109 84.8274 75.0573 84.7288 75.6505 84.4781C76.2439 84.2275 76.7652 83.8327 77.1673 83.3296C77.7266 82.6244 78.0302 81.7502 78.0283 80.8501C78.0283 80.4676 78.0283 80.0865 78.0283 79.704V77.1121V73.404L78.0193 68.859L77.9998 63.804L77.9878 58.5435L77.9773 53.412L77.9683 48.678V44.688V41.718V40.0995V39.9C77.9683 39.7011 77.8892 39.5103 77.7487 39.3696C77.608 39.2291 77.4172 39.15 77.2183 39.15C77.0194 39.15 76.8286 39.2291 76.6879 39.3696C76.5473 39.5103 76.4683 39.7011 76.4683 39.9H76.4443Z" fill="black"/>
<path d="M28.5885 68.0205L66.969 24.8205C69.5561 21.9103 73.0239 19.926 76.8435 19.17L81.204 18.3075C81.9234 18.1653 82.6668 18.204 83.3676 18.4203C84.0683 18.6364 84.7043 19.0236 85.2183 19.5465C85.7324 20.0695 86.1084 20.712 86.3126 21.4164C86.5167 22.1206 86.5427 22.8646 86.388 23.5815L85.116 29.4735C84.5712 32.0041 83.2454 34.2996 81.3255 36.036L37.29 75.891C35.3354 77.6595 32.7935 78.6388 30.1575 78.639H29.6505C29.1507 78.6391 28.6559 78.5392 28.1954 78.345C27.7347 78.1507 27.3179 77.866 26.9691 77.508C26.6204 77.1499 26.3469 76.7256 26.165 76.26C25.983 75.7944 25.8962 75.2971 25.9095 74.7975C25.9763 72.2934 26.925 69.8934 28.5885 68.0205Z" fill="white"/>
<path d="M29.1191 68.55L30.7991 66.6585L35.1911 61.716L41.4236 54.702L48.5096 46.7265L55.5896 38.757L61.7261 31.857L65.9921 27.057C66.7076 26.253 67.4051 25.419 68.1641 24.657C70.1626 22.6398 72.6319 21.1521 75.3491 20.328C76.9166 19.8555 78.5621 19.6065 80.1656 19.2885L81.1571 19.0935C81.3668 19.044 81.5798 19.011 81.7946 18.9945C82.3277 18.953 82.8634 19.0298 83.3633 19.2194C83.8633 19.409 84.3151 19.7066 84.6866 20.091C84.8638 20.2596 85.0181 20.4507 85.1456 20.6595C85.2293 20.7897 85.306 20.9244 85.3751 21.063C85.4317 21.1659 85.4783 21.2739 85.5146 21.3855C85.7186 21.9143 85.7891 22.485 85.7201 23.0475C85.6964 23.2353 85.6624 23.4215 85.6181 23.6055L85.4411 24.429L84.4496 28.992C83.9576 31.278 82.9496 33.3615 81.2861 35.0355C80.5946 35.736 79.8341 36.3765 79.1036 37.0365L74.3996 41.301L67.6496 47.4105L59.7686 54.543L51.8111 61.743L44.6621 68.2125L39.3701 73.002L36.8426 75.285C35.5636 76.4492 34.006 77.264 32.3201 77.6505C31.6432 77.8034 30.9517 77.8835 30.2576 77.889C29.8445 77.9106 29.4302 77.889 29.0216 77.8245C28.5199 77.7185 28.0546 77.4833 27.6716 77.142C27.479 76.9782 27.3109 76.7879 27.1721 76.5765C27.0139 76.3454 26.8897 76.0929 26.8031 75.8265C26.6276 75.2655 26.6411 74.7945 26.6981 74.154C26.7617 73.4804 26.8954 72.8153 27.0971 72.1695C27.5069 70.8333 28.1962 69.5996 29.1191 68.55C29.2552 68.4069 29.3309 68.2172 29.3309 68.0198C29.3309 67.8224 29.2552 67.6326 29.1191 67.4895C28.8461 67.2165 28.3271 67.1895 28.0586 67.4895C26.4587 69.2721 25.4651 71.5161 25.2206 73.899C25.1209 74.5928 25.1447 75.2987 25.2911 75.984C25.4527 76.6262 25.754 77.2248 26.1734 77.7372C26.593 78.2495 27.1204 78.663 27.7181 78.948C28.8176 79.4595 30.0656 79.4535 31.2506 79.332C33.707 79.0812 36.0193 78.0528 37.8506 76.3965L38.5481 75.765L42.4091 72.27L48.6941 66.5835L56.3996 59.607L64.5551 52.227L72.1256 45.3765L78.0971 39.9765L81.4496 36.9345C81.8021 36.6165 82.1561 36.3 82.4861 35.955C84.2068 34.1348 85.3864 31.8711 85.8926 29.418L86.8886 24.7965C87.0056 24.255 87.1421 23.7135 87.2051 23.1645C87.3323 21.8561 86.9575 20.5482 86.1565 19.5057C85.3555 18.4632 84.1882 17.7642 82.8911 17.55C82.0526 17.4255 81.2591 17.55 80.4401 17.7C78.9851 17.988 77.5181 18.2385 76.0736 18.5745C72.2141 19.4745 68.8211 21.6135 66.2021 24.561L63.3686 27.75L58.0886 33.693L51.3161 41.3145L44.0306 49.515L37.1636 57.243L31.6496 63.45L28.4711 67.0275L28.0556 67.4955C27.9193 67.6383 27.8432 67.8282 27.8432 68.0258C27.8432 68.2233 27.9193 68.4132 28.0556 68.556C28.1983 68.6946 28.3897 68.7716 28.5886 68.7704C28.7875 68.7693 28.978 68.6901 29.1191 68.55Z" fill="black"/>
<path d="M24.2054 81.2775L26.6474 78.8505L30.534 74.9865L31.4175 74.109C31.4872 74.0394 31.5426 73.9568 31.5802 73.8657C31.618 73.7747 31.6375 73.6772 31.6377 73.5786C31.6377 73.4801 31.6183 73.3824 31.5807 73.2914C31.543 73.2003 31.4878 73.1175 31.4182 73.0478C31.3486 72.978 31.2658 72.9227 31.1749 72.8849C31.0839 72.8472 30.9862 72.8277 30.8877 72.8276C30.7891 72.8276 30.6916 72.8469 30.6006 72.8846C30.5095 72.9222 30.4267 72.9774 30.357 73.047L27.915 75.4755L24.0284 79.338L23.1449 80.217C23.0732 80.2862 23.0161 80.369 22.9768 80.4605C22.9375 80.552 22.9168 80.6504 22.916 80.75C22.9151 80.8496 22.934 80.9483 22.9718 81.0405C23.0095 81.1326 23.0651 81.2165 23.1356 81.2868C23.206 81.3572 23.2898 81.413 23.3819 81.4506C23.4742 81.4883 23.5729 81.5073 23.6725 81.5064C23.7721 81.5057 23.8705 81.485 23.962 81.4457C24.0535 81.4062 24.1363 81.3492 24.2054 81.2775Z" fill="black"/>
<path d="M85.411 20.6775C85.411 20.6775 82.1185 28.449 80.011 31.0095C77.9035 33.57 40.1995 69.4995 37.3885 70.8705C34.5775 72.2415 29.6665 71.877 30.8875 66.9405C30.8875 66.9405 24.1375 73.1175 25.9825 75.6405C27.8275 78.1635 31.7455 82.0065 43.4005 70.3575C55.0555 58.7085 83.308 34.569 83.308 34.569C83.308 34.569 88.6135 23.1285 85.411 20.6775Z" fill="#B2B2B2"/>
<path d="M20.4976 33.2025C20.6806 32.9295 30.5806 29.181 39.2071 30.8265C47.8336 32.472 49.6636 37.5 48.1996 38.9625C46.7356 40.425 41.6071 42.5295 41.6071 42.5295L49.7536 43.9905L63.2311 29.0205L21.7606 28.6635L19.5391 30.735L20.4976 33.2025Z" fill="#E5E5E5"/>
<path d="M71.5135 45.729C71.605 46.0035 76.267 59.7165 74.8045 64.197C73.342 68.6775 69.9595 72.243 65.9365 72.699C65.9365 72.699 66.394 80.106 68.497 81.7515C70.6 83.397 74.047 85.089 75.4795 83.7315C76.912 82.374 76.915 81.294 77.2795 79.8315C77.644 78.369 77.1985 40.8825 77.1985 40.8825L71.5135 45.729Z" fill="#B2B2B2"/>
<path d="M25.2529 59.7165C25.7029 59.7165 27.9934 65.6595 25.6624 68.9505L26.6944 70.0875C26.6944 70.0875 35.1004 59.835 35.2504 59.7165C35.4004 59.598 25.2529 59.7165 25.2529 59.7165Z" fill="#E5E5E5"/>
<path d="M45.8385 74.802C46.1385 75.234 46.764 81.0225 39.207 84.039C39.207 84.039 40.044 87.1335 41.607 87.7785C43.17 88.4235 46.089 87.615 46.5045 86.5035C46.92 85.392 45.8385 74.802 45.8385 74.802Z" fill="#B2B2B2"/>
<path d="M36.0069 58.869L34.6569 58.8255L31.3494 58.716L27.1029 58.575L22.9869 58.4385L20.0499 58.35L19.3629 58.3275C18.7404 58.3024 18.1215 58.434 17.5629 58.71C17.0753 58.9578 16.6524 59.3164 16.3284 59.7573C16.0043 60.198 15.7881 60.7086 15.6969 61.248C15.5199 62.397 15.8469 63.609 16.3659 64.6305C16.8944 65.6512 17.6796 66.5167 18.6444 67.1415C19.0518 67.3923 19.4811 67.6056 19.9269 67.779L23.2854 69.1845L26.3799 70.4775L26.5524 70.551C26.6802 70.5885 26.816 70.5904 26.9447 70.5562C27.0735 70.5222 27.1905 70.4533 27.2829 70.3575L28.2009 69.345L30.4149 66.9L33.0849 63.954L35.3949 61.404C35.7699 60.99 36.1524 60.582 36.5214 60.162L36.5379 60.144C36.8004 59.853 36.8379 59.3655 36.5379 59.0835C36.2379 58.8015 35.7579 58.773 35.4774 59.0835L34.5579 60.096L32.3514 62.5305L29.6814 65.475L27.3714 68.025C26.9979 68.4375 26.6004 68.838 26.2464 69.267L26.2299 69.285L26.9589 69.0915L24.7209 68.1555L21.0354 66.6135L20.0394 66.198L19.9779 66.171C19.9629 66.171 20.1714 66.2625 20.0799 66.2115C20.0244 66.18 19.9644 66.1545 19.9074 66.1245C19.7844 66.0615 19.6659 65.994 19.5474 65.922C19.4289 65.85 19.3479 65.7945 19.2474 65.727C19.1949 65.691 19.1439 65.652 19.0974 65.616C19.0119 65.5545 19.2009 65.7 19.1199 65.6325L19.0359 65.565C18.8351 65.3989 18.6458 65.2195 18.4689 65.028C18.3834 64.9365 18.3009 64.842 18.2229 64.7445L18.1719 64.6815C18.1194 64.6155 18.2079 64.7235 18.2079 64.7265C18.2079 64.692 18.1044 64.5855 18.0819 64.5525C17.9336 64.3398 17.7998 64.1172 17.6814 63.8865C17.6229 63.774 17.5719 63.66 17.5194 63.546C17.4849 63.468 17.5419 63.5985 17.5434 63.6C17.5271 63.5677 17.5136 63.534 17.5029 63.4995C17.4774 63.4335 17.4534 63.3645 17.4294 63.297C17.3465 63.0567 17.2799 62.8111 17.2299 62.562C17.2164 62.5005 17.2044 62.4375 17.1939 62.3745C17.1939 62.3475 17.1939 62.3205 17.1819 62.292C17.1579 62.154 17.1819 62.3085 17.1819 62.328C17.1819 62.2092 17.1708 62.0907 17.1489 61.974C17.1422 61.8621 17.1422 61.7499 17.1489 61.638C17.15 61.6038 17.1531 61.5697 17.1579 61.536C17.1579 61.536 17.1309 61.6935 17.1474 61.611C17.1639 61.5285 17.1699 61.479 17.1849 61.413C17.2104 61.3005 17.2479 61.191 17.2839 61.0815C17.3364 60.9195 17.2329 61.173 17.2929 61.056C17.3214 60.9975 17.3484 60.939 17.3799 60.882C17.4354 60.7815 17.4984 60.6885 17.5614 60.594C17.6244 60.4995 17.4729 60.696 17.5614 60.594C17.6049 60.546 17.6454 60.4965 17.6904 60.444C17.7699 60.3615 17.8539 60.294 17.9394 60.213C18.0249 60.132 17.8209 60.2895 17.9619 60.1995C18.0174 60.165 18.0699 60.1275 18.1254 60.0945C18.1809 60.0615 18.2244 60.0375 18.2754 60.0105L18.3399 59.9775L18.3624 59.967C18.4224 59.94 18.4224 59.94 18.3624 59.967C18.3279 60.009 18.3084 59.9865 18.3624 59.967L18.4554 59.9325C18.5184 59.9115 18.5814 59.892 18.6459 59.874L18.7959 59.8395C18.8214 59.8395 19.0179 59.8065 18.8949 59.8185C18.7719 59.8305 18.9699 59.8185 18.9999 59.8185C19.0689 59.8185 19.1379 59.8185 19.2084 59.8185H19.2804L19.7784 59.835L22.3839 59.9205L26.2839 60.0495L30.5154 60.1905L34.0599 60.3075L35.9109 60.3675H35.9964C36.1953 60.3675 36.3861 60.2884 36.5268 60.1477C36.6674 60.0072 36.7464 59.8164 36.7464 59.6175C36.7424 59.4217 36.6633 59.2351 36.5258 59.0959C36.3882 58.9567 36.2025 58.8754 36.0069 58.869Z" fill="black"/>
<path d="M44.9786 68.25L45.0761 69.579L45.3161 72.8685L45.6161 77.0505L45.9161 81.117L46.1276 84.006L46.1756 84.678L46.1846 84.7935C46.1929 84.9144 46.1929 85.0356 46.1846 85.1565C46.1846 85.215 46.1681 85.2765 46.1696 85.3335C46.1696 85.3335 46.1966 85.1835 46.1786 85.26C46.1696 85.3005 46.1636 85.341 46.1561 85.383C46.1308 85.4956 46.0993 85.6068 46.0616 85.716C46.0516 85.7389 46.043 85.7625 46.0361 85.7865C46.0166 85.8705 46.0586 85.7115 46.0661 85.7205C46.0412 85.7896 46.009 85.8561 45.9701 85.9185C45.9208 86.0115 45.8662 86.1017 45.8066 86.1885C45.8066 86.1885 45.7526 86.268 45.7511 86.268C45.7496 86.268 45.8486 86.151 45.7931 86.2125C45.7376 86.274 45.7001 86.3235 45.6506 86.376C45.5777 86.4518 45.5012 86.5239 45.4211 86.592C45.2846 86.7135 45.5096 86.5365 45.4016 86.6085C45.3476 86.646 45.2951 86.6835 45.2396 86.7165C45.1421 86.7765 45.0401 86.8275 44.9396 86.8785C44.8391 86.9295 45.0746 86.835 44.9126 86.8875C44.8496 86.907 44.7881 86.9295 44.7236 86.9475C44.6591 86.9655 44.6111 86.9775 44.5541 86.991C44.4971 87.0045 44.3381 87.024 44.4536 87.012C44.5691 87 44.3861 87.012 44.3501 87.012C44.2796 87.012 44.2106 87.0195 44.1416 87.012C44.0306 87.012 43.9196 87.012 43.8101 86.997C43.7441 86.997 43.6796 86.9865 43.6151 86.979C43.5881 86.9722 43.5604 86.9692 43.5326 86.97C43.6016 86.952 43.6616 86.988 43.5416 86.97C43.2793 86.9292 43.0202 86.8699 42.7661 86.793C42.6446 86.757 42.5246 86.7165 42.4046 86.6715C42.3746 86.6595 42.2831 86.6055 42.2546 86.613C42.3026 86.601 42.3761 86.6655 42.2831 86.625L42.1841 86.58C41.9465 86.4699 41.7164 86.3442 41.4956 86.2035C41.3891 86.136 41.2856 86.0655 41.1836 85.9905C41.0336 85.8795 41.2451 86.0445 41.1416 85.959C41.0861 85.914 41.0291 85.869 40.9751 85.821C40.7755 85.6493 40.5877 85.4643 40.4126 85.2675C40.3706 85.2195 40.3286 85.1715 40.2881 85.1175C40.2476 85.0635 40.1546 84.9435 40.2101 85.0215C40.2656 85.0995 40.1591 84.9495 40.1381 84.9195C40.0961 84.8595 40.0541 84.7995 40.0136 84.7365C39.9104 84.5802 39.8158 84.4185 39.7301 84.252C39.6131 84.0225 39.5036 83.787 39.3911 83.5545L37.7051 80.1L36.2996 77.2305L36.2246 77.0805L36.1076 77.9895L37.1171 77.073L39.5411 74.8755L42.4721 72.216L45.0071 69.918C45.4151 69.549 45.8411 69.1905 46.2356 68.805L46.2536 68.7885C46.3942 68.6478 46.4732 68.4571 46.4732 68.2582C46.4732 68.0593 46.3942 67.8687 46.2536 67.728C46.111 67.5913 45.9209 67.515 45.7234 67.515C45.5257 67.515 45.3358 67.5913 45.1931 67.728L44.1836 68.643L41.7596 70.8405L38.8331 73.5L36.2996 75.7935C35.8916 76.1625 35.4581 76.5165 35.0711 76.9065L35.0531 76.923C34.9382 77.0417 34.8647 77.1942 34.8434 77.3578C34.8219 77.5216 34.854 77.6878 34.9346 77.832L35.9996 80.0205L37.8191 83.7615L38.3666 84.885C38.6629 85.4885 39.0521 86.0418 39.5201 86.5245C40.3322 87.3626 41.3518 87.9707 42.4751 88.287C43.5896 88.599 44.8061 88.659 45.8531 88.101C46.3576 87.8217 46.7867 87.4244 47.1038 86.9429C47.4211 86.4614 47.6167 85.9102 47.6741 85.3365C47.6996 85.066 47.6996 84.7939 47.6741 84.5235L47.5046 82.2105L47.2211 78.33L46.9061 74.007L46.6346 70.3035L46.4921 68.343L46.4846 68.253C46.4561 67.863 46.1606 67.485 45.7346 67.503C45.3476 67.521 44.9486 67.8345 44.9786 68.25Z" fill="black"/>
<path d="M39.8549 28.7295L41.6144 26.391C42.2819 25.503 42.9539 24.618 43.6169 23.727L43.6379 23.7C43.6379 23.7 44.2379 22.9605 43.6124 23.733C43.5434 23.8185 43.6439 23.697 43.6574 23.6805C43.7393 23.5833 43.8265 23.4907 43.9184 23.403C43.9694 23.352 44.0234 23.304 44.0774 23.253C44.0969 23.235 44.1179 23.2185 44.1389 23.202C44.2199 23.1345 44.1809 23.1405 44.1389 23.202C44.2297 23.1174 44.3335 23.0479 44.4464 22.9965C44.5679 22.9245 44.6924 22.863 44.8199 22.8015C44.9474 22.74 44.6954 22.848 44.8574 22.785L45.0299 22.7235C45.1634 22.6815 45.2984 22.644 45.4349 22.6155C45.4934 22.6035 45.5549 22.5945 45.6149 22.584C45.7169 22.563 45.4649 22.599 45.5699 22.584L45.6749 22.5735C45.8056 22.5615 45.9368 22.557 46.0679 22.56C46.1384 22.56 46.2089 22.56 46.2794 22.569H46.3904C46.2794 22.569 46.4624 22.5825 46.4999 22.59C46.5704 22.602 46.6394 22.6185 46.7099 22.635C46.8409 22.6678 46.97 22.7074 47.0969 22.7535L47.1734 22.782C47.3024 22.8315 47.1644 22.7745 47.1464 22.77C47.1821 22.782 47.2165 22.798 47.2484 22.818L47.3684 22.875C48.4285 23.38 49.489 23.886 50.5499 24.393C50.6309 24.432 50.7119 24.471 50.7899 24.516C50.8409 24.546 50.8919 24.5775 50.9399 24.6105L51.0014 24.654C51.1199 24.735 50.9729 24.627 50.9699 24.627C51.0404 24.627 51.2099 24.846 51.2579 24.8985L51.3059 24.9525C51.3374 24.987 51.4004 25.0155 51.3239 24.972C51.2474 24.9285 51.2954 24.93 51.3239 24.972L51.3794 25.0515C51.4487 25.1596 51.5123 25.2712 51.5699 25.386C51.6299 25.503 51.5174 25.236 51.5774 25.407C51.5969 25.4595 51.6164 25.512 51.6314 25.566C51.6464 25.62 51.6629 25.674 51.6749 25.728C51.68 25.8004 51.6943 25.872 51.7169 25.941C51.7169 25.941 51.7034 25.7805 51.7049 25.86C51.7049 25.893 51.7049 25.9245 51.7124 25.956C51.7124 26.013 51.7124 26.0685 51.7124 26.1255C51.7124 26.1825 51.7124 26.238 51.7124 26.295C51.7124 26.328 51.7049 26.3595 51.7049 26.3925C51.7049 26.487 51.7364 26.2245 51.7049 26.3625C51.6838 26.4757 51.6568 26.5879 51.6239 26.6985C51.5966 26.7597 51.574 26.8228 51.5564 26.8875C51.5564 26.8875 51.6194 26.751 51.5819 26.8245C51.5639 26.8635 51.5459 26.9025 51.5264 26.94C51.3914 27.201 51.2264 27.45 51.0764 27.702L50.9264 27.9585L51.5744 27.588H39.2069C39.008 27.588 38.8172 27.667 38.6767 27.8076C38.536 27.9483 38.4569 28.1391 38.4569 28.338C38.4569 28.5369 38.536 28.7277 38.6767 28.8682C38.8172 29.0089 39.008 29.088 39.2069 29.088H51.2249C51.6194 29.088 51.9644 29.1075 52.2299 28.71C52.3799 28.4895 52.5029 28.251 52.6394 28.0215C52.8449 27.6955 53.003 27.342 53.1089 26.9715C53.2432 26.4396 53.2474 25.8831 53.1214 25.3492C52.9952 24.8154 52.7425 24.3196 52.3844 23.904C51.9944 23.4435 51.4844 23.175 50.9534 22.9215C49.9739 22.455 49.0034 21.9825 48.0149 21.519C47.0659 21.0583 45.9884 20.934 44.9594 21.1665C43.9085 21.4248 42.9827 22.0458 42.3449 22.92C41.8019 23.637 41.2634 24.3585 40.7219 25.0785L38.6804 27.7935L38.5604 27.9525C38.3234 28.2675 38.4989 28.8045 38.8289 28.98C39.2234 29.2065 39.5999 29.0655 39.8549 28.7295Z" fill="black"/>
<path d="M77.508 65.4855L79.617 63.978L82.4295 61.9695C82.9493 61.6191 83.4059 61.1829 83.7795 60.6795C84.4056 59.7868 84.6803 58.6945 84.5505 57.612C84.4878 57.1176 84.3519 56.6353 84.147 56.181C84.084 56.04 84.0195 55.899 83.9565 55.7565L83.172 54C82.992 53.5995 82.8165 53.1975 82.6335 52.8C82.422 52.3506 82.1132 51.954 81.729 51.639C81.345 51.324 80.8956 51.0985 80.4135 50.979C79.8792 50.8494 79.3218 50.8494 78.7875 50.979C78.4187 51.0805 78.0654 51.2319 77.7375 51.429C77.5095 51.5565 77.2665 51.672 77.0475 51.816C76.9298 51.8958 76.8339 52.0038 76.7684 52.1299C76.703 52.2562 76.67 52.3968 76.6725 52.539C76.647 53.256 76.638 53.9745 76.62 54.693L76.5255 58.554L76.4295 62.469L76.374 64.719V64.8255C76.374 65.0244 76.4531 65.2152 76.5938 65.3559C76.7343 65.4964 76.9251 65.5755 77.124 65.5755C77.3219 65.572 77.5106 65.4919 77.6505 65.352C77.7905 65.212 77.8706 65.0233 77.874 64.8255L77.976 60.6525L78.15 54L78.1875 52.4655L77.817 53.112L78.534 52.7085C78.639 52.65 78.7425 52.59 78.8505 52.5375C78.8795 52.5189 78.9107 52.5042 78.9435 52.494C78.9345 52.494 78.7725 52.557 78.9045 52.512C78.96 52.494 79.0155 52.473 79.0725 52.4565C79.1295 52.44 79.1835 52.4265 79.2405 52.413C79.2975 52.3995 79.404 52.413 79.434 52.377C79.3845 52.422 79.284 52.392 79.38 52.3875L79.4775 52.38C79.5345 52.38 79.5915 52.38 79.647 52.38C79.7025 52.38 79.7595 52.38 79.8165 52.389C79.8482 52.3951 79.8803 52.3981 79.9125 52.398C79.869 52.4175 79.7415 52.3665 79.8795 52.398C79.989 52.422 80.0985 52.446 80.205 52.4805C80.205 52.4805 80.355 52.5405 80.364 52.536C80.373 52.5315 80.214 52.467 80.3175 52.5165L80.4255 52.569C80.526 52.6215 80.619 52.6815 80.715 52.743C80.865 52.842 80.6385 52.671 80.7375 52.7565C80.793 52.8045 80.8485 52.8525 80.901 52.9065C80.9535 52.9605 80.982 52.9875 81.0195 53.031C81.057 53.0745 81.144 53.1975 81.087 53.1075C81.03 53.0175 81.129 53.1705 81.1455 53.196C81.1875 53.259 81.225 53.325 81.261 53.3925C81.477 53.7975 81.645 54.2325 81.831 54.651L82.6755 56.55C82.7207 56.6896 82.7811 56.824 82.8555 56.9505C82.8555 56.9505 82.8045 56.82 82.8345 56.901C82.8645 56.982 82.881 57.0195 82.902 57.0795C82.9497 57.216 82.9893 57.3553 83.0205 57.4965C83.034 57.5565 83.046 57.618 83.0565 57.6795C83.0895 57.873 83.0565 57.579 83.0565 57.717C83.0565 57.855 83.0775 57.999 83.076 58.14C83.0745 58.281 83.064 58.401 83.0535 58.533C83.046 58.6185 83.0625 58.464 83.0625 58.4625C83.0547 58.4965 83.0492 58.5312 83.046 58.566C83.034 58.635 83.0205 58.704 83.004 58.7715C82.9742 58.8988 82.9376 59.0245 82.8945 59.148C82.8831 59.2083 82.8612 59.2662 82.83 59.319C82.839 59.3085 82.9035 59.1585 82.845 59.2845L82.8 59.379C82.7424 59.4976 82.6788 59.6133 82.6095 59.7255C82.5765 59.7765 82.5435 59.829 82.5075 59.8755L82.446 59.961C82.3815 60.0525 82.446 59.94 82.4655 59.9355C82.4145 59.946 81.9375 60.5565 81.8955 60.507C81.8955 60.507 82.0125 60.4215 81.9165 60.4905L81.8715 60.5235L81.84 60.546L81.708 60.6405L81.2025 61.002L79.5855 62.157C78.657 62.82 77.727 63.4785 76.8015 64.146L76.749 64.1835C76.431 64.41 76.2465 64.8465 76.4805 65.2095C76.686 65.532 77.166 65.73 77.508 65.4855Z" fill="black"/>
<path d="M63.677 27.7755H22.712C21.7751 27.7791 20.8693 28.112 20.153 28.716C19.103 29.586 18.653 30.9765 18.8465 32.3025C18.941 32.9415 19.22 33.567 19.487 34.149C19.7513 34.7208 20.0677 35.2671 20.432 35.781C21.9715 37.9565 24.2459 39.5016 26.8355 40.131C27.3245 40.2465 27.8135 40.356 28.3025 40.4685L31.8935 41.295L36.7205 42.4065L41.7695 43.569L46.1015 44.5665L48.713 45.1665L49.0655 45.2475C49.1935 45.2822 49.3282 45.2828 49.4564 45.249C49.5847 45.2154 49.7017 45.1487 49.796 45.0555L51.2285 43.4625L54.6785 39.639L58.844 35.013L62.444 31.014C63.0245 30.3675 63.617 29.73 64.19 29.0745L64.2155 29.046C64.478 28.755 64.5245 28.2705 64.2155 27.9855C63.929 27.723 63.434 27.675 63.155 27.9855L61.721 29.5785L58.2785 33.402L54.1055 38.037L50.5055 42.036C49.925 42.6795 49.3055 43.3035 48.7595 43.9755C48.7502 43.9844 48.7417 43.9938 48.734 44.004L49.463 43.8105L48.059 43.488L44.5055 42.669L39.7265 41.568L34.7135 40.4145L30.3815 39.417L27.71 38.802L27.2975 38.7075C26.7592 38.5814 26.2316 38.4134 25.7195 38.205C25.7075 38.205 25.61 38.16 25.6925 38.1945L25.637 38.1705L25.436 38.079C25.286 38.0115 25.154 37.9425 25.0145 37.869C24.7385 37.7231 24.469 37.5645 24.206 37.3935C24.083 37.314 23.963 37.2315 23.8445 37.1475L23.669 37.0185L23.5685 36.9435C23.6525 37.008 23.603 36.969 23.549 36.927C23.315 36.738 23.089 36.5381 22.871 36.327C22.646 36.1125 22.43 35.8875 22.226 35.652C22.13 35.5425 22.0385 35.43 21.947 35.316C21.8555 35.202 21.932 35.298 21.947 35.316L21.872 35.217L21.722 35.0145C21.3637 34.5093 21.0518 33.9726 20.7905 33.411C20.759 33.3435 20.729 33.276 20.699 33.2085C20.6405 33.078 20.6885 33.186 20.699 33.2085L20.663 33.12C20.5985 32.961 20.5385 32.802 20.483 32.6415C20.441 32.5215 20.4005 32.4 20.3675 32.2785C20.348 32.2095 20.3315 32.139 20.318 32.0685C20.309 32.0295 20.3045 31.989 20.2955 31.95C20.309 32.007 20.3075 32.061 20.2955 31.971C20.2816 31.824 20.2765 31.6761 20.2805 31.5285C20.2805 31.461 20.291 31.3935 20.2955 31.326C20.2835 31.4955 20.2955 31.308 20.312 31.242C20.3389 31.1117 20.3735 30.9828 20.4155 30.8565C20.4305 30.816 20.5265 30.5985 20.444 30.771C20.4755 30.7035 20.507 30.6345 20.5415 30.5685C20.603 30.4515 20.6722 30.3389 20.7485 30.231L20.8145 30.141C20.8145 30.141 20.726 30.2385 20.7845 30.1815C20.843 30.1245 20.8955 30.0525 20.954 29.9925C21.0455 29.898 21.146 29.8125 21.254 29.727C21.143 29.8215 21.254 29.727 21.308 29.6925C21.362 29.658 21.4355 29.61 21.5015 29.5725C21.5675 29.535 21.6185 29.5065 21.6785 29.478C21.713 29.46 21.749 29.445 21.7835 29.4285C21.761 29.439 21.6335 29.484 21.7655 29.4375C21.9041 29.3879 22.0453 29.3457 22.1885 29.3115C22.256 29.2965 22.325 29.2845 22.394 29.2725C22.244 29.2995 22.4045 29.2725 22.4675 29.2725C22.5305 29.2725 22.6175 29.265 22.6865 29.265H63.677C63.8759 29.265 64.0667 29.186 64.2074 29.0453C64.348 28.9047 64.427 28.7139 64.427 28.515C64.427 28.3161 64.348 28.1253 64.2074 27.9846C64.0667 27.8441 63.8759 27.765 63.677 27.765V27.7755Z" fill="black"/>
<path d="M76.4443 39.9V40.74V43.047L76.4518 46.5375L76.4608 50.8875L76.4713 55.8195L76.4818 61.017L76.4998 66.15L76.5088 70.95L76.5178 75.1381V78.3825V80.3761V80.8171C76.5178 80.8381 76.5178 80.8591 76.5178 80.8801C76.5178 80.9836 76.5103 81.0856 76.5028 81.1891C76.5028 81.2056 76.4893 81.3091 76.5028 81.2101C76.5163 81.1111 76.5028 81.2355 76.4923 81.2595C76.4788 81.339 76.4608 81.4095 76.4413 81.4935C76.4218 81.5775 76.4038 81.6255 76.3828 81.69C76.3693 81.7275 76.3558 81.7636 76.3438 81.7996C76.3318 81.8356 76.3003 81.9076 76.3438 81.8176C76.3873 81.7276 76.2988 81.9106 76.2838 81.9376C76.2448 82.0136 76.2028 82.0886 76.1578 82.1626C76.1233 82.2196 76.0843 82.2735 76.0468 82.329C75.9733 82.4385 76.1308 82.2391 76.0078 82.3786C75.9139 82.4845 75.8137 82.5847 75.7078 82.6786C75.6793 82.7056 75.4918 82.8555 75.6433 82.7416C75.5908 82.7805 75.5368 82.8195 75.4828 82.8556C75.3653 82.934 75.2425 83.0041 75.1153 83.0656L75.0133 83.1136C75.0133 83.1136 75.1423 83.0686 75.0613 83.0926C74.9803 83.1166 74.9383 83.1391 74.8753 83.1586C74.7279 83.2045 74.5776 83.2406 74.4253 83.2666C74.2903 83.292 74.5603 83.2666 74.3668 83.2666C74.2978 83.2666 74.2303 83.2756 74.1628 83.2756C74.0953 83.2756 74.0248 83.2756 73.9573 83.2756C73.8898 83.2756 73.6453 83.2291 73.8298 83.2681C73.5538 83.2109 73.2822 83.1347 73.0168 83.0401C72.8773 82.989 72.7393 82.9336 72.5998 82.8796C72.4933 82.8376 72.7063 82.9276 72.5998 82.8796L72.5128 82.8406L72.2533 82.722C71.6953 82.4546 71.1627 82.1373 70.6618 81.774L70.4863 81.6435C70.3963 81.5775 70.5763 81.717 70.4863 81.6435L70.4128 81.5851C70.2838 81.4816 70.1563 81.3736 70.0318 81.2641C69.7998 81.0571 69.5769 80.84 69.3628 80.613C69.1573 80.3925 68.9638 80.163 68.7763 79.9275C68.7058 79.8405 68.8438 80.022 68.7763 79.9275L68.7193 79.8525L68.5693 79.6516C68.4793 79.5241 68.3938 79.3935 68.3098 79.2615C68.1418 78.9975 67.9858 78.726 67.8418 78.447C67.7758 78.3165 67.7113 78.1845 67.6498 78.0525L67.5598 77.85C67.5478 77.823 67.5073 77.718 67.5598 77.85C67.5448 77.8095 67.5283 77.7721 67.5133 77.7316C67.3248 77.2561 67.1719 76.7672 67.0558 76.269C66.9358 75.762 66.8178 75.254 66.7018 74.745L65.8528 71.0985L64.7398 66.3075L63.5998 61.311L62.6068 57.042L62.0068 54.492L61.9258 54.1455L61.7338 54.8745L63.3223 53.4375L67.1398 49.9875L71.7583 45.813L75.7483 42.2055C76.3918 41.6235 77.0623 41.061 77.6848 40.4565C77.6937 40.4472 77.7031 40.4387 77.7133 40.431C77.8539 40.2903 77.9329 40.0997 77.9329 39.9008C77.9329 39.7019 77.8539 39.5112 77.7133 39.3705C77.5707 39.2339 77.3806 39.1575 77.183 39.1575C76.9855 39.1575 76.7954 39.2339 76.6528 39.3705L75.0748 40.8L71.2573 44.25L66.6403 48.423L62.6488 52.0305C62.0053 52.6125 61.3363 53.1765 60.7138 53.781L60.6853 53.8065C60.5913 53.9003 60.5238 54.0173 60.4899 54.1457C60.4558 54.2739 60.4566 54.4091 60.4918 54.537L60.8233 55.962L61.6648 59.583L62.7838 64.3965L63.9598 69.4605L64.9633 73.776L65.5633 76.353C65.8765 77.8092 66.4684 79.1912 67.3063 80.4226C68.0728 81.517 69.0289 82.4653 70.1293 83.2231C70.6498 83.5805 71.2023 83.8892 71.7793 84.1455C72.4213 84.4291 73.0693 84.6841 73.7698 84.765C74.4109 84.8274 75.0573 84.7288 75.6505 84.4781C76.2439 84.2275 76.7652 83.8327 77.1673 83.3296C77.7266 82.6244 78.0302 81.7502 78.0283 80.8501C78.0283 80.4676 78.0283 80.0865 78.0283 79.704V77.1121V73.404L78.0193 68.859L77.9998 63.804L77.9878 58.5435L77.9773 53.412L77.9683 48.678V44.688V41.718V40.0995V39.9C77.9683 39.7011 77.8892 39.5103 77.7487 39.3696C77.608 39.2291 77.4172 39.15 77.2183 39.15C77.0194 39.15 76.8286 39.2291 76.6879 39.3696C76.5473 39.5103 76.4683 39.7011 76.4683 39.9H76.4443Z" fill="black"/>
<path d="M69.0851 47.0025L69.1946 48.5385L69.4571 52.227L69.7736 56.6895L70.0496 60.549C70.0946 61.1745 70.1321 61.8015 70.1831 62.427C70.1831 62.436 70.1831 62.445 70.1831 62.454C70.2101 62.844 70.5071 63.222 70.9331 63.204C71.3156 63.186 71.7116 62.8725 71.6831 62.454L71.5736 60.918L71.3111 57.2295L70.9946 52.7655L70.7201 48.9C70.6766 48.2745 70.6391 47.6475 70.5866 47.0235C70.5873 47.0145 70.5873 47.0055 70.5866 46.9965C70.5596 46.6065 70.2611 46.227 69.8366 46.2465C69.4541 46.263 69.0566 46.578 69.0866 46.9965L69.0851 47.0025Z" fill="black"/>
<path d="M57.4802 34.011L55.4162 33.972L50.4782 33.8805L44.5097 33.7695L39.3512 33.6735C38.5157 33.6585 37.6772 33.621 36.8417 33.627H36.8057C36.6068 33.627 36.416 33.706 36.2754 33.8466C36.1347 33.9873 36.0557 34.1781 36.0557 34.377C36.0591 34.5748 36.1392 34.7635 36.2792 34.9035C36.4191 35.0434 36.6078 35.1235 36.8057 35.127L38.8697 35.1645L43.8077 35.2575L49.7762 35.3685L54.9362 35.4645C55.7702 35.4795 56.6087 35.517 57.4442 35.511H57.4802C57.6791 35.511 57.8699 35.4319 58.0106 35.2912C58.1511 35.1507 58.2302 34.9599 58.2302 34.761C58.2267 34.5631 58.1466 34.3744 58.0067 34.2345C57.8667 34.0945 57.678 34.0144 57.4802 34.011Z" fill="black"/>
<path d="M29.1191 68.55L30.7991 66.6585L35.1911 61.716L41.4236 54.702L48.5096 46.7265L55.5896 38.757L61.7261 31.857L65.9921 27.057C66.7076 26.253 67.4051 25.419 68.1641 24.657C70.1626 22.6398 72.6319 21.1521 75.3491 20.328C76.9166 19.8555 78.5621 19.6065 80.1656 19.2885L81.1571 19.0935C81.3668 19.044 81.5798 19.011 81.7946 18.9945C82.3277 18.953 82.8634 19.0298 83.3633 19.2194C83.8633 19.409 84.3151 19.7066 84.6866 20.091C84.8638 20.2596 85.0181 20.4507 85.1456 20.6595C85.2293 20.7897 85.306 20.9244 85.3751 21.063C85.4317 21.1659 85.4783 21.2739 85.5146 21.3855C85.7186 21.9143 85.7891 22.485 85.7201 23.0475C85.6964 23.2353 85.6624 23.4215 85.6181 23.6055L85.4411 24.429L84.4496 28.992C83.9576 31.278 82.9496 33.3615 81.2861 35.0355C80.5946 35.736 79.8341 36.3765 79.1036 37.0365L74.3996 41.301L67.6496 47.4105L59.7686 54.543L51.8111 61.743L44.6621 68.2125L39.3701 73.002L36.8426 75.285C35.5636 76.4492 34.006 77.264 32.3201 77.6505C31.6432 77.8034 30.9517 77.8835 30.2576 77.889C29.8445 77.9106 29.4302 77.889 29.0216 77.8245C28.5199 77.7185 28.0546 77.4833 27.6716 77.142C27.479 76.9782 27.3109 76.7879 27.1721 76.5765C27.0139 76.3454 26.8897 76.0929 26.8031 75.8265C26.6276 75.2655 26.6411 74.7945 26.6981 74.154C26.7617 73.4804 26.8954 72.8153 27.0971 72.1695C27.5069 70.8333 28.1962 69.5996 29.1191 68.55C29.2552 68.4069 29.3309 68.2172 29.3309 68.0198C29.3309 67.8224 29.2552 67.6326 29.1191 67.4895C28.8461 67.2165 28.3271 67.1895 28.0586 67.4895C26.4587 69.2721 25.4651 71.5161 25.2206 73.899C25.1209 74.5928 25.1447 75.2987 25.2911 75.984C25.4527 76.6262 25.754 77.2248 26.1734 77.7372C26.593 78.2495 27.1204 78.663 27.7181 78.948C28.8176 79.4595 30.0656 79.4535 31.2506 79.332C33.707 79.0812 36.0193 78.0528 37.8506 76.3965L38.5481 75.765L42.4091 72.27L48.6941 66.5835L56.3996 59.607L64.5551 52.227L72.1256 45.3765L78.0971 39.9765L81.4496 36.9345C81.8021 36.6165 82.1561 36.3 82.4861 35.955C84.2068 34.1348 85.3864 31.8711 85.8926 29.418L86.8886 24.7965C87.0056 24.255 87.1421 23.7135 87.2051 23.1645C87.3323 21.8561 86.9575 20.5482 86.1565 19.5057C85.3555 18.4632 84.1882 17.7642 82.8911 17.55C82.0526 17.4255 81.2591 17.55 80.4401 17.7C78.9851 17.988 77.5181 18.2385 76.0736 18.5745C72.2141 19.4745 68.8211 21.6135 66.2021 24.561L63.3686 27.75L58.0886 33.693L51.3161 41.3145L44.0306 49.515L37.1636 57.243L31.6496 63.45L28.4711 67.0275L28.0556 67.4955C27.9193 67.6383 27.8432 67.8282 27.8432 68.0258C27.8432 68.2233 27.9193 68.4132 28.0556 68.556C28.1983 68.6946 28.3897 68.7716 28.5886 68.7704C28.7875 68.7693 28.978 68.6901 29.1191 68.55Z" fill="black"/>
<path d="M24.2054 81.2775L26.6474 78.8505L30.534 74.9865L31.4175 74.109C31.4872 74.0394 31.5426 73.9568 31.5802 73.8657C31.618 73.7747 31.6375 73.6772 31.6377 73.5786C31.6377 73.4801 31.6183 73.3824 31.5807 73.2914C31.543 73.2003 31.4878 73.1175 31.4182 73.0478C31.3486 72.978 31.2658 72.9227 31.1749 72.8849C31.0839 72.8472 30.9862 72.8277 30.8877 72.8276C30.7891 72.8276 30.6916 72.8469 30.6006 72.8846C30.5095 72.9222 30.4267 72.9774 30.357 73.047L27.915 75.4755L24.0284 79.338L23.1449 80.217C23.0732 80.2862 23.0161 80.369 22.9768 80.4605C22.9375 80.552 22.9168 80.6504 22.916 80.75C22.9151 80.8496 22.934 80.9483 22.9718 81.0405C23.0095 81.1326 23.0651 81.2165 23.1356 81.2868C23.206 81.3572 23.2898 81.413 23.3819 81.4506C23.4742 81.4883 23.5729 81.5073 23.6725 81.5064C23.7721 81.5057 23.8705 81.485 23.962 81.4457C24.0535 81.4062 24.1363 81.3492 24.2054 81.2775Z" fill="black"/>
<path d="M52.2739 53.3535L52.8469 52.7805L54.3949 51.231L56.6839 48.9405L59.4739 46.146L62.5309 43.086L65.6299 39.9825L68.5069 37.1025L70.9384 34.668L72.6889 32.916C72.9649 32.6385 73.2469 32.3655 73.5199 32.085L73.5559 32.0475C73.6276 31.9783 73.6848 31.8955 73.7241 31.804C73.7634 31.7125 73.7841 31.6141 73.7848 31.5145C73.7857 31.4149 73.7668 31.3162 73.729 31.224C73.6914 31.1319 73.6357 31.0482 73.5652 30.9777C73.4949 30.9073 73.411 30.8515 73.3189 30.8139C73.2267 30.7762 73.128 30.7572 73.0284 30.7581C72.9288 30.759 72.8304 30.7795 72.7389 30.819C72.6474 30.8583 72.5646 30.9153 72.4954 30.987L71.9224 31.56L70.3744 33.111L68.0869 35.4L65.2954 38.196L62.2384 41.25L59.1394 44.352L56.2624 47.2335L53.8309 49.668L52.0804 51.4245C51.8044 51.702 51.5224 51.975 51.2494 52.257L51.2134 52.293C51.0768 52.4344 51.0012 52.6239 51.003 52.8205C51.0046 53.0172 51.0835 53.2053 51.2226 53.3443C51.3616 53.4834 51.5497 53.5623 51.7464 53.5639C51.943 53.5657 52.1325 53.4901 52.2739 53.3535Z" fill="black"/>
<path d="M98.3115 91.785C98.3115 97.6965 93.6405 99.3045 91.101 99.735C90.9078 99.7698 90.7095 99.7651 90.5181 99.7213C90.3268 99.6777 90.1462 99.5956 89.9874 99.4803C89.8284 99.3651 89.6946 99.2188 89.5936 99.0504C89.4927 98.8821 89.4268 98.6949 89.4 98.5005C88.632 92.5005 83.43 83.5005 81.378 81.453C80.5038 80.4775 79.393 79.7434 78.153 79.3215C78.0142 79.2855 77.889 79.2094 77.7933 79.1026C77.6974 78.996 77.6353 78.8634 77.6145 78.7215L77.25 76.0815C78.3645 75.5715 79.176 74.487 79.176 72.5985C79.176 68.1705 76.962 63.7485 74.01 63.7485C71.857 63.8704 69.7276 64.2598 67.671 64.908C67.0051 65.1037 66.4302 65.5288 66.048 66.108L64.3064 68.7C63.8987 69.3126 63.2782 69.7519 62.565 69.933L60.7484 70.383V70.2705H57.6689L57.8339 73.338C57.9532 74.3446 58.3577 75.2964 58.9997 76.0807C59.6419 76.8652 60.4946 77.4499 61.4579 77.766C63.7293 77.7903 65.9818 78.1813 68.1285 78.924C68.2207 78.9589 68.3047 79.0125 68.3754 79.0813C68.4462 79.1502 68.5018 79.2328 68.5393 79.3242C68.5767 79.4154 68.595 79.5133 68.5929 79.612C68.5909 79.7106 68.5686 79.8078 68.5275 79.8975C67.2877 82.1919 66.6189 84.751 66.5775 87.3585C66.6349 90.0949 67.6839 92.7174 69.5295 94.7385V103.588C69.5295 103.588 66.6225 104.326 66.6225 106.539H87.2415C88.7175 106.539 90.1935 105.469 90.1935 105.063C96.8355 105.063 99.7935 100.636 99.7935 97.6845C99.7 95.6385 99.196 93.6322 98.3115 91.785Z" fill="white"/>
<path d="M96.8114 91.785C96.8112 92.2283 96.7832 92.6712 96.7274 93.111L96.7799 92.712C96.6896 93.4047 96.5102 94.0829 96.2459 94.7295L96.3959 94.371C96.1631 94.9196 95.8605 95.4359 95.4959 95.907L95.7299 95.607C95.364 96.072 94.9424 96.4902 94.4744 96.852L94.7744 96.6165C94.182 97.0664 93.5348 97.4388 92.8484 97.725L93.2069 97.575C92.3799 97.925 91.5128 98.1714 90.6254 98.3085L91.0229 98.2545C90.9086 98.2658 90.7935 98.2658 90.6794 98.2545L91.0769 98.3085C90.941 98.2896 90.8076 98.2554 90.6794 98.2065L91.0379 98.3565C90.9122 98.3018 90.7938 98.2317 90.6854 98.148L90.9854 98.382C90.9018 98.3123 90.825 98.235 90.7559 98.151L90.9899 98.451C90.9117 98.3477 90.8453 98.2361 90.7919 98.118L90.9419 98.475C90.8928 98.3538 90.8576 98.2275 90.8369 98.0985L90.8909 98.4975C90.4409 95.0565 89.1284 91.7865 87.6269 88.68C86.3534 86.043 84.8999 83.43 83.0789 81.1335C82.6896 80.6346 82.2564 80.1717 81.7844 79.7505C81.3066 79.3256 80.7881 78.9488 80.2364 78.6255C79.6566 78.3177 79.055 78.053 78.4364 77.8335L78.7949 77.9835C78.7422 77.9594 78.692 77.9301 78.6449 77.8965L78.9449 78.1305C78.9003 78.0954 78.8591 78.0563 78.8219 78.0135L79.0574 78.3135C79.0112 78.2534 78.9725 78.1878 78.9419 78.1185L79.0919 78.4755C79.0443 78.3116 79.0131 78.1431 78.9989 77.973L78.8684 77.0535L78.6719 75.6735L77.9999 77.376C78.9416 76.9277 79.6941 76.1603 80.1239 75.21C80.4204 74.5403 80.598 73.8242 80.6489 73.0935C80.6861 72.5271 80.6745 71.9585 80.6144 71.394C80.5188 70.1595 80.2704 68.9418 79.8749 67.7685C79.5272 66.7044 79.0178 65.7 78.3644 64.791C77.7284 63.948 76.9709 63.15 75.9884 62.7105C75.4368 62.4542 74.844 62.2983 74.2379 62.25C73.6544 62.2035 73.0379 62.307 72.4544 62.376C71.0207 62.5347 69.6011 62.802 68.2079 63.1755C67.5194 63.3645 66.7919 63.549 66.1814 63.9255C65.6055 64.2882 65.1143 64.7706 64.7414 65.34C64.4264 65.8035 64.1189 66.273 63.8069 66.7395C63.4949 67.206 63.2204 67.659 62.8949 68.0895L63.1289 67.7895C62.9658 67.9973 62.778 68.1842 62.5694 68.346L62.8694 68.112C62.6751 68.2553 62.4659 68.3771 62.2454 68.475L62.6039 68.325C62.213 68.4683 61.8117 68.5821 61.4039 68.6655L60.3539 68.928L62.2499 70.3815V70.269C62.244 69.873 62.0841 69.4949 61.8041 69.2148C61.524 68.9348 61.1459 68.7749 60.7499 68.769H57.6689C56.8904 68.769 56.1239 69.4575 56.1689 70.269L56.3294 73.2315C56.4464 75.402 57.7499 77.4315 59.5919 78.549C59.8179 78.6845 60.053 78.8043 60.2954 78.9075C60.5249 79.0065 60.7619 79.1145 61.0004 79.191C61.2828 79.2576 61.5729 79.2849 61.8629 79.272C62.5919 79.2945 63.3179 79.356 64.0409 79.4505L63.6419 79.398C65.0333 79.5873 66.4028 79.9124 67.7309 80.3685L67.3724 80.2185C67.4441 80.2503 67.512 80.2901 67.5749 80.337L67.2749 80.103C67.3187 80.1419 67.3587 80.1845 67.3949 80.2305L67.1609 79.9305C67.1943 79.9778 67.2234 80.028 67.2479 80.0805L67.0979 79.722C67.1171 79.7673 67.1312 79.8146 67.1399 79.863L67.0859 79.4655C67.0941 79.5383 67.0941 79.6118 67.0859 79.6845L67.1399 79.2855C67.1273 79.3584 67.1072 79.4298 67.0799 79.4985L67.2299 79.14C66.0809 81.2838 65.373 83.6361 65.1479 86.058C64.9908 87.8232 65.2052 89.6016 65.7768 91.2791C66.3485 92.9565 67.265 94.4957 68.4674 95.7975L68.0279 94.737V103.587L69.1289 102.14C68.657 102.272 68.2004 102.454 67.7669 102.683C66.9059 103.1 66.1785 103.75 65.6669 104.559C65.3129 105.158 65.1251 105.841 65.1224 106.538C65.1275 106.934 65.2871 107.312 65.5673 107.593C65.8475 107.873 66.2261 108.032 66.6224 108.038H87.1604C88.5344 108.038 90.0104 107.496 91.0004 106.524C91.4124 106.145 91.661 105.62 91.6934 105.062L90.1934 106.562C93.2339 106.562 96.2939 105.662 98.5424 103.541C99.3761 102.765 100.052 101.835 100.533 100.803C100.983 99.8175 101.319 98.739 101.283 97.644C101.212 95.3475 100.584 93.0885 99.6029 91.0215C99.4044 90.6831 99.0813 90.4361 98.7029 90.333C98.3126 90.2289 97.8971 90.2828 97.5464 90.483C97.2087 90.6824 96.9618 91.005 96.8579 91.383C96.7694 91.7741 96.8225 92.1839 97.0079 92.5395C97.1079 92.7495 97.2039 92.9621 97.2959 93.177L97.1459 92.8185C97.6662 94.0586 98.0237 95.361 98.2094 96.693L98.1554 96.294C98.2469 96.9705 98.3264 97.6575 98.2364 98.3385L98.2889 97.9395C98.2106 98.4789 98.0624 99.0059 97.8479 99.507L97.9979 99.1485C97.7502 99.7262 97.4318 100.271 97.0499 100.77L97.2839 100.47C96.8558 101.022 96.3599 101.519 95.8079 101.948L96.1079 101.714C95.4722 102.201 94.7759 102.605 94.0364 102.914L94.3949 102.764C93.5036 103.128 92.5688 103.376 91.6139 103.5L92.0129 103.448C91.4096 103.526 90.8018 103.565 90.1934 103.565C89.3504 103.565 88.7384 104.252 88.6934 105.065V105.084L88.7459 104.687C88.7408 104.716 88.7322 104.746 88.7204 104.774L88.8704 104.415C88.8434 104.468 88.8113 104.518 88.7744 104.565L89.0084 104.265C88.907 104.385 88.7927 104.494 88.6679 104.589L88.9679 104.355C88.67 104.58 88.3455 104.767 88.0019 104.913L88.3604 104.763C88.0056 104.913 87.633 105.016 87.2519 105.071L87.6494 105.018C87.3555 105.043 87.0606 105.051 86.7659 105.044H69.2054C68.3579 105.044 67.5074 105.024 66.6554 105.044H66.6194L68.1194 106.544C68.1194 106.443 68.1254 106.343 68.1374 106.244L68.0834 106.643C68.1126 106.427 68.1695 106.216 68.2529 106.016L68.1029 106.374C68.1918 106.172 68.3052 105.983 68.4404 105.809L68.2064 106.109C68.3841 105.884 68.5887 105.683 68.8154 105.509L68.5154 105.744C68.8569 105.488 69.2288 105.276 69.6224 105.111L69.2639 105.261C69.48 105.167 69.7026 105.089 69.9299 105.027C70.2443 104.936 70.5209 104.746 70.7192 104.486C70.9175 104.225 71.0267 103.908 71.0309 103.581V94.842C71.0309 94.8075 71.0309 94.773 71.0309 94.7385C71.0234 94.473 70.9535 94.2131 70.8269 93.9795C70.7111 93.8033 70.5768 93.6398 70.4264 93.492C70.2794 93.324 70.1379 93.1515 70.0019 92.9745L70.2359 93.2745C69.6381 92.4992 69.1418 91.6508 68.7584 90.75L68.9084 91.1085C68.5217 90.1844 68.2574 89.2137 68.1224 88.221L68.1749 88.62C68.0511 87.5661 68.0661 86.5005 68.2199 85.4505L68.1659 85.8495C68.3622 84.413 68.7465 83.0084 69.3089 81.672L69.1589 82.0305C69.2829 81.7376 69.4154 81.4481 69.5564 81.162C69.8024 80.6685 70.0664 80.214 70.0889 79.6455C70.0955 79.3442 70.0409 79.0445 69.9284 78.7649C69.816 78.4851 69.6482 78.231 69.4349 78.018C69.0689 77.6475 68.5859 77.4885 68.1029 77.334C66.7008 76.8924 65.2598 76.5861 63.7994 76.419C63.0218 76.3256 62.2395 76.2755 61.4564 76.269L61.8554 76.3215C61.7189 76.2765 61.5839 76.2255 61.4504 76.1715L61.8089 76.3215C61.3811 76.1387 60.9779 75.9027 60.6089 75.6195L60.9089 75.855C60.5636 75.5835 60.2514 75.2724 59.9789 74.928L60.2144 75.228C59.9328 74.8649 59.6979 74.4677 59.5154 74.046L59.6654 74.4045C59.4756 73.9545 59.3465 73.4814 59.2814 72.9975L59.3354 73.3965C59.2709 72.8775 59.2739 72.3465 59.2454 71.823L59.1614 70.2675L57.6614 71.7675H60.7499L59.2499 70.2675V70.38C59.2533 70.6098 59.3091 70.8359 59.4126 71.0411C59.5163 71.2461 59.6652 71.4251 59.8481 71.5644C60.0309 71.7036 60.243 71.7995 60.4683 71.8449C60.6936 71.8902 60.9264 71.8838 61.1489 71.826L62.4194 71.508C63.0914 71.34 63.7604 71.1555 64.3349 70.7475C64.8357 70.3952 65.267 69.9533 65.6069 69.444L65.8154 69.1335L66.7274 67.767C66.9674 67.407 67.1954 67.035 67.4534 66.6885L67.2194 66.9885C67.3688 66.7968 67.5399 66.6233 67.7294 66.471L67.4294 66.705C67.6386 66.5423 67.8681 66.4071 68.1119 66.303L67.7534 66.453C68.4975 66.1769 69.2624 65.9603 70.0409 65.805C70.8408 65.622 71.6448 65.4765 72.4529 65.3685L72.0539 65.421C72.4859 65.364 72.9194 65.3175 73.3544 65.2815C73.6953 65.2407 74.0394 65.2338 74.3819 65.2605L73.9829 65.2065C74.2613 65.2457 74.5334 65.3204 74.7929 65.4285L74.4344 65.2785C74.7327 65.4084 75.0144 65.5742 75.2729 65.772L74.9729 65.5365C75.3503 65.8344 75.6894 66.1781 75.9824 66.5595L75.7469 66.2595C76.2056 66.8729 76.5851 67.5417 76.8764 68.25L76.7264 67.8915C77.1566 68.9379 77.45 70.0355 77.5994 71.157L77.5454 70.7595C77.6817 71.6177 77.7074 72.4898 77.6219 73.3545L77.6759 72.9555C77.6265 73.3316 77.5287 73.6997 77.3849 74.0505L77.5349 73.692C77.4246 73.9478 77.2836 74.1891 77.1149 74.4105L77.3489 74.1105C77.1978 74.3018 77.0252 74.4749 76.8344 74.6265L77.1344 74.3925C76.9335 74.5479 76.7156 74.6798 76.4849 74.7855L76.1849 75.021C76.0418 75.1529 75.9348 75.3191 75.8744 75.504C75.7535 75.815 75.7274 76.1547 75.7994 76.4805L76.0664 78.3495C76.1024 78.6 76.1309 78.8535 76.1744 79.0995C76.2657 79.5363 76.4919 79.9335 76.8209 80.235C77.2394 80.625 77.7734 80.748 78.2849 80.9625L77.9264 80.8125C78.525 81.0696 79.0893 81.4002 79.6064 81.7965L79.3064 81.561C79.971 82.098 80.5661 82.7157 81.0779 83.4L80.8499 83.1C81.5615 84.0426 82.2176 85.0257 82.8149 86.0445C83.5889 87.3345 84.3048 88.6575 84.9629 90.0135C85.3629 90.8315 85.7403 91.6595 86.0954 92.4975L85.9454 92.139C86.8454 94.2735 87.6374 96.504 87.9524 98.808L87.8984 98.409C87.9719 98.961 88.0604 99.4845 88.3994 99.9495C88.7829 100.499 89.3307 100.912 89.9639 101.13C90.6449 101.366 91.3544 101.24 92.0369 101.091C92.8727 100.902 93.6878 100.631 94.4699 100.281C96.3044 99.486 97.9424 98.0685 98.8289 96.258C99.4943 94.8642 99.8328 93.3369 99.8189 91.7925C99.8189 91.008 99.1274 90.2565 98.3189 90.2925C97.9232 90.2975 97.5449 90.4559 97.2636 90.7343C96.9824 91.0127 96.8202 91.3893 96.8114 91.785Z" fill="white"/>
<path d="M76.9504 72.6C76.1629 74.4705 74.2234 75.066 73.1089 75.576L74.0389 78.5865C74.8309 81.9465 76.8139 82.4565 79.5034 84.864C81.5554 86.9085 85.6264 92.4945 86.3929 98.502C86.4107 98.6166 86.4362 98.7298 86.4694 98.841C86.9884 100.641 89.2309 103.884 93.0529 101.391C94.1239 100.692 97.1704 96.486 97.4629 96.4065C97.1299 96.177 90.4129 100.281 90.3649 99.8805C89.5969 93.8805 83.4304 83.4975 81.3784 81.453C80.5042 80.4775 79.3934 79.7434 78.1534 79.3215C78.0146 79.2855 77.8894 79.2094 77.7937 79.1026C77.6978 78.996 77.6357 78.8634 77.6149 78.7215L77.2504 76.0815C78.3649 75.5715 79.1764 74.487 79.1764 72.5985C79.1764 68.1705 76.9624 63.7485 74.0104 63.7485C73.5137 63.7537 73.018 63.7882 72.5254 63.852C75.0979 64.5 78.5299 68.862 76.9504 72.6Z" fill="#E5E5E5"/>
<path d="M98.9712 91.0125C99.0028 92.3925 98.6829 93.7578 98.0412 94.98C98.1636 95.6229 98.2279 96.2756 98.2332 96.93C98.2332 99.684 95.6682 103.721 89.9427 104.264C89.2621 104.33 88.612 104.578 88.0602 104.982C87.3594 105.488 86.5239 105.774 85.6602 105.803H87.8787C89.3577 105.803 90.8352 104.732 90.8352 104.324C97.4907 104.324 100.447 99.888 100.447 96.93C100.358 94.8783 99.8559 92.8658 98.9712 91.0125Z" fill="#E5E5E5"/>
<path d="M63.2109 77.2005C63.2109 77.2005 66.0414 77.1435 68.4609 77.22C68.7775 77.2312 69.0866 77.319 69.3617 77.4759C69.6368 77.6328 69.8698 77.8539 70.0408 78.1206C70.2116 78.3871 70.3154 78.6912 70.343 79.0068C70.3706 79.3222 70.3214 79.6396 70.1995 79.932C69.3325 82.0215 68.3499 84.9945 68.6994 87.0705C69.2995 90.5925 71.7955 91.7205 72.022 93.462C72.2485 95.2035 71.6455 106.543 71.6455 106.543H66.6234C66.6234 106.543 66.8034 103.755 69.5305 103.593V94.743C69.5305 94.743 65.8329 90.8625 66.6234 85.689C67.4139 80.5155 69.1029 80.5605 68.5389 79.329C67.9749 78.0975 63.2109 77.2005 63.2109 77.2005Z" fill="#B2B2B2"/>
<path d="M61.2267 78.4635C61.302 78.4891 61.381 78.5023 61.4607 78.5025C63.6366 78.5274 65.7951 78.8949 67.8567 79.5915L67.6707 79.992C66.4881 82.2682 65.8609 84.792 65.8407 87.357C65.8407 87.765 66.0432 90.399 66.7647 90.3135C67.5387 90.222 67.3167 87.7635 67.3167 87.357C67.3353 85.0036 67.9174 82.689 69.0147 80.607L69.2022 80.199C69.2853 80.0202 69.3307 79.8261 69.3357 79.629C69.3405 79.4317 69.3048 79.2357 69.2307 79.053C69.1557 78.8676 69.0442 78.6993 68.9026 78.5581C68.7612 78.4168 68.5926 78.3055 68.4072 78.231C66.2143 77.4604 63.9108 77.0517 61.5867 77.0205C60.9156 76.7901 60.31 76.4014 59.8207 75.8877C59.3314 75.3739 58.9731 74.7499 58.7757 74.0685H59.9382C60.3295 74.068 60.7047 73.9125 60.9814 73.6357C61.2582 73.359 61.4137 72.9838 61.4142 72.5925V70.9755L62.7417 70.6425C63.6324 70.4203 64.408 69.8736 64.9167 69.1095L66.6522 66.5025C66.9379 66.0694 67.3671 65.7508 67.8642 65.6025C69.8571 64.9759 71.9196 64.5972 74.0052 64.4745C76.3227 64.4745 78.4332 68.3445 78.4332 72.5925C78.4816 73.0855 78.4041 73.5828 78.2079 74.0377C78.0115 74.4927 77.703 74.8903 77.3112 75.1935C76.7598 75.4992 76.1446 75.672 75.5146 75.6979C74.8848 75.724 74.2573 75.6027 73.6827 75.3435C73.546 75.2866 73.4292 75.1906 73.347 75.0676C73.2648 74.9446 73.2208 74.8 73.2207 74.652V69.6465C73.2207 69.5496 73.2016 69.4536 73.1644 69.364C73.1274 69.2745 73.0731 69.1932 73.0045 69.1246C72.936 69.0561 72.8547 69.0018 72.7651 68.9647C72.6756 68.9275 72.5796 68.9085 72.4827 68.9085C72.3858 68.9085 72.2898 68.9275 72.2002 68.9647C72.1107 69.0018 72.0294 69.0561 71.9608 69.1246C71.8923 69.1932 71.838 69.2745 71.8008 69.364C71.7637 69.4536 71.7447 69.5496 71.7447 69.6465V74.655C71.7421 75.0993 71.874 75.5341 72.1228 75.9022C72.3718 76.2702 72.7263 76.5544 73.1397 76.7175C74.2489 77.1601 75.4624 77.2737 76.6347 77.0445L76.8897 78.825C76.9314 79.1082 77.0554 79.3729 77.2464 79.5864C77.4373 79.7997 77.6868 79.9522 77.9637 80.025C79.0804 80.4166 80.0781 81.088 80.8617 81.975C82.8117 83.9115 87.9237 92.7435 88.6722 98.592C88.708 98.8834 88.8034 99.1644 88.9524 99.4174C89.1012 99.6706 89.3004 99.8904 89.5377 100.063C89.7775 100.241 90.0508 100.368 90.3409 100.437C90.6312 100.507 90.9324 100.517 91.2267 100.467C93.1767 100.131 97.2777 98.934 98.6172 94.749C98.8873 95.7057 99.0325 96.6934 99.0492 97.6875C99.0492 100.365 96.2352 104.328 90.1992 104.328C90.0348 104.328 89.8753 104.383 89.7457 104.484C89.6161 104.585 89.524 104.727 89.4837 104.886C88.8703 105.447 88.0779 105.772 87.2472 105.804H86.0997C86.3652 105.357 86.5066 104.848 86.5092 104.328C86.5006 104.138 86.4192 103.959 86.2818 103.828C86.1445 103.696 85.9618 103.623 85.7719 103.623C85.5819 103.623 85.3993 103.696 85.2619 103.828C85.1247 103.959 85.0432 104.138 85.0347 104.328C85.0347 104.522 84.9964 104.714 84.9223 104.893C84.8481 105.072 84.7393 105.235 84.6024 105.372C84.4653 105.509 84.3025 105.617 84.1234 105.692C83.9445 105.766 83.7525 105.804 83.5587 105.804H73.7532C74.3097 105.129 75.4347 104.328 77.6532 104.328C77.8329 104.327 78.0063 104.261 78.1407 104.142C78.2751 104.023 78.3615 103.858 78.3834 103.68C78.4053 103.501 78.3613 103.321 78.2596 103.173C78.1581 103.025 78.006 102.919 77.8317 102.874C77.8077 102.874 75.4317 102.241 75.4317 99.1635C75.4125 98.2594 75.604 97.3632 75.9912 96.546C76.3783 95.7288 76.9504 95.0128 77.6622 94.455C78.2644 94.0362 78.9606 93.7719 79.689 93.6855C80.4175 93.5992 81.1561 93.6934 81.8397 93.96C82.0234 94.0138 82.221 93.9943 82.3906 93.9055C82.5604 93.8167 82.689 93.6655 82.7494 93.4837C82.8099 93.3021 82.7974 93.1039 82.7148 92.9311C82.6321 92.7583 82.4856 92.6244 82.3062 92.5575C81.4 92.2192 80.4253 92.1066 79.4661 92.2291C78.5067 92.3517 77.5915 92.7058 76.7997 93.261C75.8983 93.9558 75.1714 94.8513 74.6767 95.8761C74.182 96.9009 73.933 98.0271 73.9497 99.165C73.923 99.8908 74.043 100.615 74.3025 101.293C74.5621 101.971 74.9557 102.59 75.4602 103.113C74.7183 103.273 74.0223 103.598 73.4245 104.066C72.8269 104.534 72.3433 105.131 72.0102 105.813H67.5432C68.0892 104.749 69.6942 104.313 69.7122 104.313C69.8712 104.273 70.0122 104.181 70.113 104.052C70.2138 103.922 70.2687 103.763 70.2687 103.599V94.749C70.2699 94.6498 70.2511 94.5514 70.2135 94.4596C70.1758 94.368 70.1202 94.2847 70.0497 94.215C69.5893 93.7117 69.1822 93.1623 68.8347 92.5755C67.5972 90.6675 67.4697 89.7465 67.3347 87.9765C67.3347 86.604 65.7282 87.5085 65.9532 88.6995C66.1167 89.7495 66.6042 91.7295 67.5687 93.339C67.9248 93.9325 68.3328 94.4932 68.7882 95.0145V103.057C67.8072 103.435 65.8827 104.443 65.8827 106.542C65.8827 106.738 65.9604 106.925 66.0988 107.064C66.2373 107.202 66.4249 107.28 66.6207 107.28H87.2412C87.8754 107.269 88.5012 107.132 89.0823 106.878C89.6634 106.623 90.1882 106.257 90.6267 105.798C97.4487 105.612 100.527 100.99 100.527 97.689C100.439 95.5273 99.912 93.406 98.9772 91.455C98.9041 91.3038 98.7817 91.182 98.6302 91.1098C98.4786 91.0375 98.307 91.0191 98.1436 91.0575C97.9801 91.096 97.8346 91.189 97.7313 91.3213C97.6278 91.4535 97.5726 91.6171 97.5747 91.785C97.5747 97.089 93.4422 98.5905 90.9747 99.012C90.877 99.0298 90.7767 99.0273 90.6801 99.0042C90.5835 98.9812 90.4927 98.9385 90.4137 98.8785C90.3372 98.8231 90.2728 98.7526 90.2248 98.6713C90.1768 98.59 90.1461 98.4997 90.1347 98.406C89.3637 92.3745 84.1947 83.2155 81.9027 80.9325C80.94 79.8622 79.7146 79.0618 78.3477 78.6105L78.0477 76.4715C78.0792 76.4505 78.1137 76.4385 78.1437 76.4175C78.7398 75.9852 79.215 75.4072 79.5241 74.739C79.8333 74.0706 79.9657 73.3341 79.9092 72.6C79.9092 67.9665 77.5362 63 74.0052 63C71.781 63.1231 69.5806 63.5217 67.4547 64.1865C66.6249 64.4307 65.9074 64.959 65.4282 65.679L63.6927 68.283C63.387 68.7403 62.9217 69.0672 62.3877 69.1995L58.1067 70.269C57.7965 70.3465 57.5199 70.5228 57.3186 70.771C57.1174 71.0194 57.0022 71.3265 56.9907 71.646C56.9487 72.9 57.1287 77.0955 61.2267 78.459V78.4635ZM58.4667 71.7135L59.9382 71.3445V72.6H58.4892C58.4635 72.3048 58.456 72.0082 58.4667 71.712V71.7135Z" fill="black"/>
</svg>
