<svg width="120" height="120" viewBox="0 0 120 120" fill="none" xmlns="http://www.w3.org/2000/svg">
<path d="M62.781 41.091L40.5 58.533V88.5H88.95V58.533L66.669 41.091C66.1129 40.6592 65.4289 40.4249 64.725 40.4249C64.021 40.4249 63.337 40.6592 62.781 41.091Z" fill="white"/>
<path d="M62.2503 40.56L59.8938 42.405L54.3273 46.7625L47.6733 51.972L42.1803 56.271L40.5303 57.5685C40.1913 57.834 39.7803 58.047 39.7563 58.533C39.7113 59.5005 39.7563 60.483 39.7563 61.4475V88.5C39.759 88.698 39.839 88.8873 39.9791 89.0274C40.119 89.1674 40.3083 89.2473 40.5063 89.25H86.9838C87.6108 89.25 88.2408 89.259 88.8678 89.25H88.9503C89.1484 89.2473 89.3376 89.1674 89.4777 89.0274C89.6176 88.8873 89.6976 88.698 89.7003 88.5V62.0115C89.7003 60.861 89.7438 59.703 89.7003 58.554C89.6823 58.074 89.3583 57.906 89.0313 57.654L87.4113 56.385L81.7398 51.9465L74.9043 46.5945L69.2463 42.165L67.6383 40.905C67.0608 40.455 66.4998 40.0185 65.7708 39.819C65.1984 39.6612 64.5977 39.6354 64.0139 39.7435C63.4301 39.8515 62.8784 40.0908 62.4003 40.443C62.0793 40.689 61.9098 41.0895 62.1318 41.469C62.3163 41.7855 62.8338 41.985 63.1578 41.7375C63.2747 41.6479 63.3968 41.5657 63.5238 41.4915C63.5868 41.4555 63.6528 41.424 63.7173 41.3895C63.7353 41.379 63.8478 41.3295 63.7368 41.3775C63.8697 41.3224 64.0065 41.2779 64.1463 41.244C64.2033 41.229 64.2618 41.217 64.3203 41.205L64.4253 41.187C64.3443 41.197 64.3488 41.197 64.4388 41.187C64.5693 41.187 64.6998 41.172 64.8303 41.1765L65.0088 41.187C65.2308 41.199 64.8738 41.151 65.0928 41.199C65.2083 41.2245 65.3253 41.247 65.4393 41.2815C65.5083 41.3025 65.5758 41.3265 65.6448 41.3505C65.7138 41.3745 65.7333 41.385 65.6658 41.358L65.7963 41.421C65.904 41.4774 66.0087 41.5395 66.1098 41.607C66.1578 41.64 66.3453 41.79 66.1398 41.622L66.1593 41.637L66.2598 41.7165L67.4433 42.642L72.5223 46.6185L79.3068 51.93L85.3623 56.6715L87.4038 58.269C87.7263 58.521 88.0413 58.797 88.3773 59.031L88.4178 59.0625L88.2003 58.533V87.2745C88.2003 87.666 88.1838 88.0605 88.2003 88.4505V88.5L88.9503 87.75H42.4668C41.8398 87.75 41.2098 87.7335 40.5828 87.75H40.5003L41.2503 88.5V59.757C41.2503 59.367 41.2668 58.9725 41.2503 58.5825V58.533L41.0313 59.0625L43.2528 57.3225L48.5883 53.1465L55.0188 48.1125L60.5688 43.7625L62.4003 42.336C62.6913 42.108 63.0003 41.886 63.2763 41.6505L63.3138 41.6205C63.6333 41.3715 63.5763 40.8225 63.3138 40.56C63.0003 40.245 62.5698 40.3095 62.2503 40.56Z" fill="#201600"/>
<path d="M58.6387 44.334C58.6387 44.334 74.4112 51.084 79.4467 56.0895C84.0967 60.7095 85.9507 64.4625 84.6112 70.2C83.9017 73.239 78.8257 80.175 79.5007 87.9L79.8007 88.5H88.9507L89.0257 59.625L64.9267 40.425L58.6387 44.334Z" fill="#E5E5E5"/>
<path d="M40.5 76.0065C40.5 76.0065 41.7795 79.6515 44.3295 82.239C46.8795 84.8265 49.5795 84.15 52.1295 84.75C54.6795 85.35 56.3145 88.5 56.3145 88.5H40.5V76.0065Z" fill="#E5E5E5"/>
<path d="M89.2502 61.05H92.2412C92.325 61.0498 92.4067 61.0239 92.4753 60.9754C92.5438 60.9271 92.5956 60.8587 92.6236 60.7797C92.6519 60.7006 92.6547 60.6148 92.6322 60.5341C92.6096 60.4533 92.5626 60.3814 92.4977 60.3285L66.1351 38.85C65.7369 38.5254 65.2389 38.3483 64.7252 38.3483C64.2114 38.3483 63.7134 38.5254 63.3152 38.85L36.9601 60.321C36.8952 60.3739 36.8481 60.4458 36.8256 60.5266C36.8029 60.6073 36.8059 60.6931 36.834 60.7722C36.8622 60.8512 36.9139 60.9196 36.9825 60.9679C37.051 61.0164 37.1328 61.0423 37.2166 61.0425H40.3576L63.3392 42.504C63.7338 42.1908 64.2228 42.0204 64.7267 42.0204C65.2305 42.0204 65.7195 42.1908 66.1142 42.504L89.2502 61.05Z" fill="#201600"/>
<path d="M89.2497 61.23H92.0547C92.3142 61.23 92.5662 61.2075 92.7252 60.966C93.0822 60.423 92.4702 60.066 92.1252 59.7765L87.5637 56.0595L80.2902 50.1315L72.7497 43.989L67.4052 39.639C67.0452 39.339 66.6852 39.0495 66.3237 38.757C65.8772 38.3806 65.3118 38.1741 64.7277 38.1741C64.1436 38.1741 63.5784 38.3806 63.1318 38.757C62.0203 39.657 60.9147 40.557 59.8062 41.4675L53.0353 46.98L45.3028 53.28L39.0958 58.338L37.3258 59.781C36.9703 60.0705 36.3433 60.4485 36.7408 60.981C36.9088 61.2105 37.1578 61.2225 37.4143 61.2225H39.6088C39.8516 61.2352 40.0949 61.2352 40.3378 61.2225C40.4564 61.1967 40.5649 61.1367 40.6498 61.05L41.2048 60.6L46.4548 56.367L54.0928 50.205L60.8503 44.754L62.8843 43.113C63.4333 42.6705 63.9237 42.2205 64.6842 42.204C65.4882 42.189 65.9967 42.642 66.5667 43.104L68.5782 44.7165L75.3282 50.1285L82.9992 56.2785L88.3347 60.5565L89.1102 61.179C89.2977 61.329 89.5602 61.065 89.3757 60.9135L86.3652 58.5L79.5162 53.0085L71.9757 46.9635L66.8997 42.885C66.4902 42.5565 66.0822 42.174 65.5872 41.985C65.1879 41.8389 64.7574 41.799 64.338 41.8692C63.9188 41.9394 63.5247 42.1173 63.1947 42.3855C63.0852 42.4725 62.9757 42.5625 62.8662 42.651L58.2748 46.35L50.8498 52.3365L43.7998 58.026L41.3998 59.967L40.6498 60.567C40.5154 60.6598 40.388 60.7626 40.2688 60.8745C40.2613 60.8745 40.2403 60.891 40.2373 60.9C40.2238 60.936 40.4083 60.8805 40.3363 60.8505C40.2593 60.8383 40.1809 60.8383 40.1038 60.8505H37.4188C37.3549 60.8542 37.2908 60.8542 37.2268 60.8505C37.1804 60.8494 37.1356 60.8338 37.0984 60.8061C37.0612 60.7782 37.0336 60.7395 37.0195 60.6954C37.0052 60.6511 37.0052 60.6036 37.0192 60.5593C37.0333 60.5152 37.0607 60.4764 37.0978 60.4485C37.1128 60.432 37.1338 60.42 37.1503 60.405C37.2718 60.303 37.3978 60.204 37.5208 60.105L41.8498 56.577L49.0048 50.7465L56.5138 44.6265L62.0367 40.1265L63.3102 39.0885C64.1202 38.4285 65.1942 38.3385 66.0402 39.0045C67.1052 39.852 68.1507 40.725 69.2052 41.5845L75.8157 46.9725L83.4762 53.214L89.7762 58.3485L91.6812 59.8995L92.1927 60.3165C92.2707 60.381 92.4162 60.4665 92.4462 60.5715C92.5452 60.9015 92.1147 60.855 91.9317 60.855H89.2497C89.2001 60.855 89.1524 60.8748 89.1171 60.9099C89.082 60.9451 89.0622 60.9927 89.0622 61.0425C89.0622 61.0923 89.082 61.1398 89.1171 61.1751C89.1524 61.2102 89.2001 61.23 89.2497 61.23Z" fill="#201600"/>
<path d="M47.6905 65.742H40.375V68.775H47.6905V65.742Z" fill="#B2B2B2"/>
<path d="M74.9333 50.8845H68.3438V53.616H74.9333V50.8845Z" fill="#B2B2B2"/>
<path d="M87.1883 71.5485H80.6348V74.2665H87.1883V71.5485Z" fill="#B2B2B2"/>
<path d="M71.234 54.594H64.6445V57.3255H71.234V54.594Z" fill="#B2B2B2"/>
<path d="M78.7555 54.594H72.166V57.3255H78.7555V54.594Z" fill="#B2B2B2"/>
<path d="M51.9034 70.101H44.5879V73.134H51.9034V70.101Z" fill="#B2B2B2"/>
<path d="M43.1551 70.101H40.3711V73.134H43.1551V70.101Z" fill="#B2B2B2"/>
<path d="M57.2994 62.4495H71.6154C71.7498 62.4495 71.8788 62.5029 71.9739 62.598C72.069 62.6931 72.1224 62.8221 72.1224 62.9565V88.5H56.7969V62.9565C56.7969 62.8228 56.8497 62.6946 56.9437 62.5996C57.0379 62.5045 57.1657 62.4507 57.2994 62.4495Z" fill="#201600"/>
<path d="M72.1254 88.125H57.4254C57.2274 88.125 57.0189 88.107 56.8254 88.125H56.7984L57.1734 88.5V63.1815C57.1734 63.075 57.1389 62.8815 57.2529 62.835C57.3067 62.8216 57.3627 62.818 57.4179 62.8245H71.1819C71.3019 62.8245 71.6139 62.769 71.7144 62.8605C71.7804 62.9205 71.7519 63.1125 71.7519 63.198V88.5C71.7519 88.983 72.5019 88.983 72.5019 88.5V63.117C72.5019 63.069 72.5019 63.021 72.5019 62.967C72.5022 62.7789 72.4437 62.5954 72.3345 62.4424C72.2253 62.2893 72.0708 62.1742 71.8929 62.1135C71.6595 62.0632 71.4198 62.0481 71.1819 62.0685H57.7134C57.4314 62.0685 57.1284 62.0385 56.8719 62.181C56.5074 62.385 56.4219 62.7525 56.4219 63.1275V88.5C56.4231 88.5992 56.463 88.6938 56.533 88.7639C56.6031 88.8339 56.6977 88.8738 56.7969 88.875H70.2399C70.8579 88.875 71.4804 88.899 72.0984 88.875H72.1254C72.6069 88.875 72.6084 88.125 72.1254 88.125Z" fill="#201600"/>
<path d="M58.0226 63H70.9001C71.1117 63 71.3147 63.0842 71.4644 63.2337C71.6139 63.3834 71.6981 63.5864 71.6981 63.798V88.5H57.2246V63.792C57.2263 63.5814 57.311 63.38 57.4604 63.2316C57.61 63.0833 57.812 63 58.0226 63Z" fill="#E8E8E8"/>
<path d="M71.7 88.125H57.816C57.6315 88.125 57.435 88.107 57.2505 88.125H57.225L57.6 88.5V64.8525C57.6 64.5 57.585 64.1445 57.6 63.792C57.618 63.3825 57.9705 63.369 58.2765 63.369H70.6755C70.746 63.369 70.8165 63.369 70.887 63.369C71.001 63.3673 71.1111 63.411 71.1932 63.4902C71.2752 63.5694 71.3226 63.678 71.325 63.792C71.325 63.891 71.325 63.9915 71.325 64.092V88.5C71.325 88.983 72.075 88.983 72.075 88.5V64.725C72.075 64.263 72.1575 63.657 71.934 63.237C71.8301 63.0496 71.678 62.8935 71.4933 62.7849C71.3087 62.6761 71.0982 62.6188 70.884 62.619H58.032C57.7907 62.6214 57.5555 62.6965 57.3575 62.8345C57.1595 62.9727 57.0077 63.1672 56.922 63.393C56.8593 63.5931 56.835 63.8032 56.85 64.0125V88.5C56.8515 88.599 56.8916 88.6935 56.9616 88.7634C57.0315 88.8334 57.126 88.8735 57.225 88.875H69.9165C70.5015 88.875 71.091 88.899 71.6745 88.875H71.7C72.183 88.875 72.183 88.125 71.7 88.125Z" fill="#201600"/>
<path d="M69.5442 77.817C69.9419 77.817 70.2642 77.4529 70.2642 77.004C70.2642 76.555 69.9419 76.191 69.5442 76.191C69.1466 76.191 68.8242 76.555 68.8242 77.004C68.8242 77.4529 69.1466 77.817 69.5442 77.817Z" fill="#201600"/>
<path d="M69.889 77.004C69.889 77.028 69.889 77.0505 69.889 77.0745C69.889 77.0985 69.8725 77.133 69.889 77.0445C69.88 77.082 69.8755 77.1195 69.865 77.157C69.8521 77.1838 69.842 77.212 69.835 77.241L69.856 77.1915L69.8365 77.2305C69.826 77.25 69.8155 77.2695 69.8035 77.2875L69.7795 77.322C69.739 77.3835 69.829 77.2755 69.793 77.3055C69.757 77.3355 69.7495 77.352 69.727 77.373C69.7045 77.394 69.6655 77.4255 69.7165 77.3835C69.7675 77.3415 69.7165 77.3835 69.7045 77.3835C69.6925 77.3835 69.6415 77.4135 69.6145 77.4315C69.6895 77.382 69.6715 77.4105 69.637 77.418L69.5875 77.433C69.574 77.4315 69.5605 77.4315 69.547 77.433C69.6235 77.4015 69.616 77.433 69.574 77.433C69.542 77.43 69.5099 77.43 69.478 77.433C69.5515 77.4195 69.5515 77.4465 69.5065 77.433L69.4375 77.4135C69.4075 77.4135 69.3985 77.3835 69.469 77.43C69.457 77.4231 69.4444 77.4171 69.4315 77.412C69.4036 77.3922 69.3745 77.3742 69.3445 77.358C69.3985 77.376 69.4 77.406 69.3715 77.379L69.3265 77.337L69.298 77.3055C69.2455 77.253 69.3445 77.3775 69.298 77.3145C69.2773 77.2851 69.2582 77.2545 69.241 77.223C69.241 77.211 69.229 77.196 69.2215 77.184C69.268 77.256 69.2425 77.2365 69.2305 77.202C69.2185 77.1675 69.2095 77.1375 69.2005 77.1045C69.1915 77.0715 69.2005 77.067 69.19 77.049C69.1795 77.031 69.1975 77.1435 69.19 77.049C69.1877 77.0136 69.1877 76.9779 69.19 76.9425C69.19 76.9305 69.2035 76.857 69.19 76.9215C69.1765 76.986 69.19 76.9215 69.19 76.9035C69.19 76.8855 69.2065 76.8375 69.217 76.8045C69.2243 76.7874 69.2309 76.7698 69.2365 76.752L69.22 76.791L69.235 76.7625C69.2515 76.731 69.2725 76.701 69.292 76.671C69.3115 76.641 69.31 76.671 69.2725 76.6965C69.2822 76.6866 69.2912 76.6761 69.2995 76.665C69.322 76.641 69.355 76.62 69.376 76.593C69.3325 76.6485 69.3205 76.6335 69.349 76.6155L69.4105 76.578C69.4267 76.572 69.4423 76.5645 69.457 76.5555C69.457 76.5555 69.3685 76.5855 69.4255 76.572C69.4591 76.5658 69.4921 76.5573 69.5245 76.5465C69.517 76.5465 69.427 76.5465 69.487 76.554H69.5395C69.5569 76.5553 69.5744 76.5553 69.592 76.554C69.5605 76.5615 69.505 76.5375 69.5755 76.554L69.6145 76.5645C69.6775 76.5825 69.634 76.5765 69.6025 76.554C69.634 76.5765 69.676 76.5945 69.709 76.614C69.742 76.6335 69.7285 76.6485 69.6835 76.5915C69.6974 76.6071 69.713 76.621 69.73 76.6335L69.766 76.671C69.829 76.7325 69.73 76.611 69.766 76.671C69.7855 76.701 69.805 76.731 69.823 76.7625C69.841 76.794 69.85 76.8375 69.832 76.7775C69.814 76.7175 69.832 76.7925 69.841 76.8045C69.8537 76.8442 69.8638 76.8849 69.871 76.926C69.8845 76.9905 69.871 76.9005 69.871 76.8945C69.871 76.8885 69.871 76.971 69.871 76.9905C69.871 77.0899 69.9104 77.1853 69.9808 77.2557C70.0511 77.326 70.1465 77.3655 70.246 77.3655C70.3454 77.3655 70.4408 77.326 70.5112 77.2557C70.5814 77.1853 70.621 77.0899 70.621 76.9905C70.6241 76.7488 70.5542 76.5118 70.4203 76.3105C70.2865 76.1092 70.0951 75.9531 69.871 75.8625C69.6509 75.7884 69.4129 75.7887 69.193 75.8632C68.9732 75.9378 68.7841 76.0824 68.6545 76.275C68.5232 76.4679 68.4475 76.6932 68.4353 76.9261C68.4232 77.1591 68.4751 77.391 68.5855 77.5965C68.6942 77.8024 68.8666 77.9677 69.0769 78.0679C69.287 78.1683 69.524 78.198 69.7525 78.153C70.2865 78.0465 70.6165 77.505 70.6225 76.9905C70.6225 76.891 70.5829 76.7956 70.5127 76.7253C70.4423 76.6549 70.3469 76.6155 70.2475 76.6155C70.148 76.6155 70.0526 76.6549 69.9823 76.7253C69.9119 76.7956 69.8725 76.891 69.8725 76.9905L69.889 77.004Z" fill="#201600"/>
<path d="M62.2503 40.56L59.8938 42.405L54.3273 46.7625L47.6733 51.972L42.1803 56.271L40.5303 57.5685C40.1913 57.834 39.7803 58.047 39.7563 58.533C39.7113 59.5005 39.7563 60.483 39.7563 61.4475V88.5C39.759 88.698 39.839 88.8873 39.9791 89.0274C40.119 89.1674 40.3083 89.2473 40.5063 89.25H86.9838C87.6108 89.25 88.2408 89.259 88.8678 89.25H88.9503C89.1484 89.2473 89.3376 89.1674 89.4777 89.0274C89.6176 88.8873 89.6976 88.698 89.7003 88.5V62.0115C89.7003 60.861 89.7438 59.703 89.7003 58.554C89.6823 58.074 89.3583 57.906 89.0313 57.654L87.4113 56.385L81.7398 51.9465L74.9043 46.5945L69.2463 42.165L67.6383 40.905C67.0608 40.455 66.4998 40.0185 65.7708 39.819C65.1984 39.6612 64.5977 39.6354 64.0139 39.7435C63.4301 39.8515 62.8784 40.0908 62.4003 40.443C62.0793 40.689 61.9098 41.0895 62.1318 41.469C62.3163 41.7855 62.8338 41.985 63.1578 41.7375C63.2747 41.6479 63.3968 41.5657 63.5238 41.4915C63.5868 41.4555 63.6528 41.424 63.7173 41.3895C63.7353 41.379 63.8478 41.3295 63.7368 41.3775C63.8697 41.3224 64.0065 41.2779 64.1463 41.244C64.2033 41.229 64.2618 41.217 64.3203 41.205L64.4253 41.187C64.3443 41.197 64.3488 41.197 64.4388 41.187C64.5693 41.187 64.6998 41.172 64.8303 41.1765L65.0088 41.187C65.2308 41.199 64.8738 41.151 65.0928 41.199C65.2083 41.2245 65.3253 41.247 65.4393 41.2815C65.5083 41.3025 65.5758 41.3265 65.6448 41.3505C65.7138 41.3745 65.7333 41.385 65.6658 41.358L65.7963 41.421C65.904 41.4774 66.0087 41.5395 66.1098 41.607C66.1578 41.64 66.3453 41.79 66.1398 41.622L66.1593 41.637L66.2598 41.7165L67.4433 42.642L72.5223 46.6185L79.3068 51.93L85.3623 56.6715L87.4038 58.269C87.7263 58.521 88.0413 58.797 88.3773 59.031L88.4178 59.0625L88.2003 58.533V87.2745C88.2003 87.666 88.1838 88.0605 88.2003 88.4505V88.5L88.9503 87.75H42.4668C41.8398 87.75 41.2098 87.7335 40.5828 87.75H40.5003L41.2503 88.5V59.757C41.2503 59.367 41.2668 58.9725 41.2503 58.5825V58.533L41.0313 59.0625L43.2528 57.3225L48.5883 53.1465L55.0188 48.1125L60.5688 43.7625L62.4003 42.336C62.6913 42.108 63.0003 41.886 63.2763 41.6505L63.3138 41.6205C63.6333 41.3715 63.5763 40.8225 63.3138 40.56C63.0003 40.245 62.5698 40.3095 62.2503 40.56Z" fill="#201600"/>
<path d="M82.8719 97.1265C84.1914 97.1276 85.4769 96.7071 86.5409 95.9265C86.8505 95.7023 87.1428 95.4551 87.4154 95.187C87.674 94.9134 87.9146 94.6233 88.1354 94.3185C88.5599 93.756 88.9724 93.186 89.3909 92.619L94.4744 85.7415L99.5894 78.822C101.289 76.5221 102.986 74.2265 104.68 71.9355C105.522 70.7955 106.375 69.6645 107.206 68.517C108.029 67.3722 108.457 65.9906 108.424 64.581C108.408 63.8855 108.27 63.198 108.016 62.55C107.743 61.8635 107.362 61.2245 106.888 60.657C106.283 59.9573 105.534 59.397 104.691 59.0151C103.849 58.6331 102.934 58.4385 102.009 58.4445C101.36 58.4454 100.716 58.5528 100.102 58.7625C98.9594 59.1863 97.9469 59.9013 97.1654 60.837C96.3779 61.7535 95.6999 62.766 94.9829 63.7365L92.4479 67.167L87.3254 74.1L82.1999 81.0315L80.9999 82.6605C80.6909 83.079 80.7509 83.7495 80.9999 84.174C81.2489 84.5985 81.7904 84.9825 82.2944 84.924L82.8149 84.8565C83.0763 84.8405 83.3318 84.7704 83.5649 84.651C83.8424 84.4856 84.0579 84.2337 84.1784 83.934C84.291 83.6604 84.3216 83.36 84.2669 83.0691C84.212 82.7784 84.074 82.5099 83.8694 82.296L80.7644 78.747C79.8389 77.6895 78.9254 76.581 77.6039 76.0035C76.8443 75.6572 76.0257 75.4583 75.1919 75.417C74.4807 75.3875 73.7699 75.4835 73.0919 75.7005C71.6438 76.1655 70.4028 77.1201 69.5819 78.4005C69.1848 79.022 68.9081 79.7124 68.7659 80.436C68.6057 81.2723 68.5991 82.1309 68.7464 82.9695C68.871 83.6903 69.1301 84.3813 69.5099 85.0065C69.9269 85.6935 70.4894 86.2785 71.0099 86.88C73.0659 89.226 75.1203 91.5761 77.1734 93.93C77.6234 94.4505 78.0614 95.001 78.5864 95.454C79.1951 95.9822 79.8869 96.4059 80.6339 96.708C81.2879 96.9659 81.9806 97.1118 82.6829 97.14C83.0001 97.1733 83.3207 97.1223 83.6118 96.992C83.9031 96.8616 84.1547 96.6567 84.3411 96.398C84.5277 96.1391 84.6425 95.8356 84.674 95.5181C84.7055 95.2005 84.6525 94.8804 84.5204 94.59C84.3779 94.2438 84.1308 93.9507 83.8139 93.7515C83.5256 93.5795 83.1971 93.4865 82.8614 93.4815C82.4642 93.4829 82.0833 93.6401 81.8009 93.9195C81.6614 94.0589 81.5508 94.2243 81.4754 94.4064C81.3998 94.5885 81.3609 94.7837 81.3609 94.9808C81.3609 95.1779 81.3998 95.373 81.4754 95.5551C81.5508 95.7372 81.6614 95.9027 81.8009 96.042C82.0913 96.3093 82.467 96.465 82.8614 96.4815H82.9004L82.5014 96.429C82.5365 96.434 82.5708 96.4434 82.6034 96.4575L82.2449 96.3075C82.2642 96.3167 82.2824 96.3282 82.2989 96.342L81.9989 96.1065C82.0154 96.1194 82.0304 96.134 82.0439 96.15L81.8099 95.85C81.8282 95.8746 81.8442 95.9007 81.8579 95.928L81.7079 95.5695C81.7191 95.5983 81.7281 95.6279 81.7349 95.658L81.6809 95.2605C81.6854 95.3015 81.6854 95.3427 81.6809 95.3835L81.7349 94.9845C81.7281 95.0147 81.7191 95.0442 81.7079 95.073L81.8579 94.7145C81.8493 94.7328 81.8393 94.7504 81.8279 94.767L82.0619 94.467C82.0437 94.4915 82.0226 94.5137 81.9989 94.533L82.2989 94.2975C82.2827 94.3109 82.2645 94.3215 82.2449 94.329L82.6034 94.179C82.5824 94.1885 82.5602 94.1951 82.5374 94.1985L82.9364 94.146C82.7156 94.1595 82.4939 94.1459 82.2764 94.1055L82.6754 94.1595C82.2483 94.0989 81.8306 93.9851 81.4319 93.8205L81.7904 93.9705C81.3816 93.795 80.9966 93.5688 80.6444 93.297L80.9444 93.5325C80.3324 93.054 79.8464 92.4495 79.3379 91.8675L77.5814 89.859L74.0774 85.815C73.4534 85.1025 72.7919 84.411 72.2084 83.6655L72.4439 83.9655C72.1859 83.6322 71.9706 83.2679 71.8034 82.881L71.9534 83.238C71.7878 82.8353 71.6748 82.4127 71.6174 81.981L71.6714 82.38C71.6166 81.9492 71.6166 81.5133 71.6714 81.0825L71.6174 81.4815C71.6778 81.0504 71.7938 80.6289 71.9624 80.2275L71.8124 80.586C71.9709 80.2242 72.1724 79.8828 72.4124 79.569L72.1784 79.869C72.4332 79.5407 72.7274 79.245 73.0544 78.9885L72.7544 79.2225C73.0958 78.9609 73.4687 78.7433 73.8644 78.5745L73.5059 78.7245C73.904 78.5595 74.3213 78.4457 74.7479 78.3855L74.3504 78.4395C74.7657 78.387 75.186 78.387 75.6014 78.4395L75.2039 78.3855C75.6071 78.4407 76.0017 78.5466 76.3784 78.7005L76.0199 78.5505C76.4198 78.7206 76.7967 78.9404 77.1419 79.2045L76.8419 78.969C77.2508 79.2987 77.6265 79.6676 77.9639 80.07L79.2194 81.5055L81.7499 84.411L82.8119 81.8505L82.2914 81.918L83.5874 84.168L89.7839 75.7845L96.0179 67.3515L97.7519 65.004C98.2019 64.404 98.6309 63.78 99.0899 63.1815L98.8559 63.4815C99.2792 62.91 99.7743 62.3952 100.329 61.95L100.029 62.184C100.346 61.9413 100.693 61.7397 101.061 61.584L100.702 61.734C101.061 61.5881 101.436 61.4873 101.82 61.434L101.421 61.488C101.846 61.4333 102.276 61.4333 102.7 61.488L102.301 61.434C102.734 61.4954 103.158 61.6113 103.561 61.779L103.203 61.629C103.586 61.7937 103.949 62.0042 104.281 62.256L103.981 62.022C104.314 62.2781 104.613 62.5749 104.872 62.9055L104.638 62.6055C104.888 62.9312 105.097 63.2864 105.259 63.663L105.109 63.3045C105.275 63.6974 105.389 64.1105 105.447 64.533L105.394 64.134C105.448 64.5573 105.448 64.9857 105.394 65.409L105.447 65.01C105.383 65.4521 105.262 65.8841 105.088 66.2955L105.238 65.9385C104.841 66.858 104.166 67.6395 103.573 68.4405L101.613 71.088L97.6769 76.413L89.8499 86.988C88.4054 88.938 86.9819 90.915 85.5149 92.8515L85.7489 92.5515C85.4592 92.9265 85.1235 93.2636 84.7499 93.555L85.0499 93.321C84.7095 93.5811 84.3383 93.7977 83.9444 93.966L84.3029 93.816C83.9183 93.9744 83.5151 94.0833 83.1029 94.14L83.5019 94.086C83.291 94.1135 83.0786 94.1276 82.8659 94.128C82.4694 94.1345 82.0902 94.2915 81.8054 94.5675C81.5268 94.8506 81.3692 95.2308 81.3659 95.628C81.4034 96.438 82.0259 97.128 82.8659 97.128L82.8719 97.1265Z" fill="white"/>
<path d="M82.8742 95.2995C82.2297 95.2989 81.5928 95.1601 81.0063 94.893C80.4196 94.6257 79.8972 94.236 79.4737 93.75L71.5717 84.72C70.7983 83.8164 70.4125 82.6443 70.498 81.4579C70.5837 80.2716 71.1337 79.167 72.0289 78.3838C72.9241 77.6005 74.092 77.2021 75.2793 77.2749C76.4664 77.3478 77.577 77.8858 78.3697 78.7725L82.5697 83.5815L98.4262 62.1315C98.7787 61.654 99.2218 61.2508 99.7301 60.9447C100.238 60.6385 100.802 60.4354 101.389 60.3472C101.976 60.2589 102.574 60.2869 103.15 60.43C103.726 60.573 104.268 60.828 104.746 61.1805C105.223 61.533 105.626 61.9761 105.932 62.4844C106.239 62.9928 106.442 63.5565 106.53 64.1433C106.618 64.7301 106.59 65.3286 106.447 65.9046C106.304 66.4804 106.049 67.0225 105.697 67.5L86.5057 93.468C86.1048 94.012 85.5864 94.4587 84.9892 94.7751C84.3919 95.0914 83.731 95.269 83.0557 95.295H82.8952L82.8742 95.2995Z" fill="#EAEAEA"/>
<path d="M82.8726 94.9245C81.8933 94.9241 80.9456 94.5777 80.1966 93.9465C79.9757 93.7491 79.7691 93.536 79.5786 93.309L78.0306 91.5405L75.5991 88.764L73.2291 86.064L71.8956 84.5385C71.2374 83.8118 70.8582 82.8752 70.8258 81.8951C70.7934 80.9151 71.1098 79.9554 71.7185 79.1867C72.3273 78.4181 73.1891 77.8904 74.1504 77.6975C75.1119 77.5047 76.1105 77.6592 76.9686 78.1335C77.4362 78.4031 77.853 78.7523 78.2001 79.1655L80.1786 81.4275L82.1991 83.7195L82.3161 83.853C82.4901 84.051 82.7661 83.9565 82.9056 83.7765L83.5626 82.887L85.2861 80.55L87.7401 77.229L90.5826 73.383L93.4326 69.525L95.9826 66.075L97.8621 63.534C98.1501 63.1421 98.4392 62.751 98.7291 62.361C99.05 61.9217 99.4541 61.55 99.9186 61.2669C100.383 60.9839 100.899 60.795 101.436 60.7112C101.974 60.6275 102.522 60.6503 103.051 60.7785C103.58 60.9069 104.078 61.1379 104.517 61.4588C104.956 61.7796 105.328 62.1837 105.611 62.6481C105.894 63.1127 106.083 63.6284 106.167 64.1658C106.25 64.7033 106.228 65.252 106.099 65.7806C105.971 66.309 105.74 66.8073 105.419 67.2465C105.226 67.515 105.026 67.779 104.83 68.0445L103.349 70.05L101.168 73.0005L98.5266 76.575L95.6526 80.4615L92.7906 84.3345L90.1656 87.8865L88.0371 90.7665L86.6301 92.6685C86.3573 93.0729 86.049 93.4524 85.7091 93.8025C84.9407 94.5236 83.9264 94.9248 82.8726 94.9245C82.3896 94.9245 82.3881 95.6745 82.8726 95.6745C84.0656 95.6712 85.2168 95.2352 86.1126 94.4475C86.409 94.1772 86.6751 93.8754 86.9061 93.5475L87.8466 92.277L89.6601 89.8215L92.0886 86.5365L94.8921 82.7445L97.8231 78.78L100.649 74.961L103.106 71.6355L104.941 69.15L105.922 67.824C106.102 67.5866 106.264 67.3359 106.406 67.074C106.861 66.2159 107.05 65.2416 106.95 64.2756C106.849 63.3095 106.463 62.3952 105.841 61.6494C105.219 60.9035 104.388 60.3597 103.456 60.0873C102.524 59.8149 101.532 59.8263 100.606 60.12C99.5976 60.4494 98.72 61.0902 98.0991 61.95L97.8576 62.2755L96.4926 64.122L94.2501 67.158L91.4856 70.8975L88.5501 74.868L85.8291 78.558L83.6571 81.4965L82.4151 83.1765L82.2516 83.4L82.8411 83.3235L81.2616 81.5235L78.9501 78.882C78.7337 78.6185 78.5018 78.368 78.2556 78.132C77.5473 77.4918 76.6662 77.0744 75.7221 76.932C74.775 76.7835 73.8051 76.9169 72.9332 77.3156C72.0612 77.7143 71.3258 78.3605 70.8185 79.1741C70.3112 79.9875 70.0544 80.9324 70.0799 81.8907C70.1055 82.8491 70.4126 83.7788 70.9626 84.564C71.3136 85.05 71.7456 85.5 72.1491 85.95L74.3676 88.485L76.9416 91.4265L78.8346 93.591L79.2021 94.0095C79.661 94.533 80.2263 94.9526 80.8604 95.24C81.4944 95.5274 82.1825 95.676 82.8786 95.676C83.3541 95.6775 83.3556 94.9275 82.8726 94.9245Z" fill="black"/>
<path d="M105.7 67.5L86.5076 93.471C86.1068 94.0154 85.5885 94.4624 84.9912 94.779C84.3939 95.0955 83.733 95.2734 83.0576 95.2995H82.8656C82.2227 95.2974 81.5874 95.1581 81.0026 94.8908C80.4177 94.6236 79.8966 94.2347 79.4741 93.75L78.2891 92.4C78.9908 92.8227 79.7949 93.0452 80.6141 93.0435H80.7956C81.4709 93.0164 82.1313 92.838 82.7285 92.5215C83.3256 92.205 83.844 91.7586 84.2456 91.215L103.441 65.25C104.149 64.2855 104.449 63.0813 104.277 61.8975C104.214 61.4886 104.096 61.0901 103.927 60.7125C104.218 60.84 104.494 60.999 104.751 61.1865C105.229 61.5396 105.633 61.9835 105.939 62.4929C106.245 63.0023 106.448 63.5672 106.536 64.155C106.704 65.3363 106.404 66.5367 105.7 67.5Z" fill="#B2B2B2"/>
<path d="M82.8607 94.9695C81.4942 94.938 80.3932 94.32 79.5098 93.3105L77.9993 91.5795L73.3493 86.271C72.0338 84.771 70.4648 83.322 70.8233 81.0975C70.9799 80.1561 71.4506 79.2954 72.1589 78.6556C72.867 78.0157 73.7709 77.6346 74.7233 77.574C76.1618 77.5005 77.3707 78.156 78.2962 79.2135L82.3282 83.8215C82.4782 83.997 82.7302 83.913 82.8472 83.754L90.3832 73.554C93.1372 69.828 95.8507 66.066 98.6482 62.373C99.8617 60.771 102.008 60.1095 103.865 61.0005C106.286 62.1615 106.921 65.2005 105.394 67.335C104.699 68.3025 103.976 69.252 103.268 70.2105L92.8237 84.339L88.1302 90.69C87.4312 91.6365 86.7802 92.664 85.9987 93.54C85.605 93.9849 85.1215 94.3413 84.5802 94.586C84.0388 94.8305 83.4519 94.9577 82.8577 94.959C82.4332 94.959 82.4317 95.6205 82.8577 95.6205C84.4642 95.6205 85.8757 94.8225 86.8252 93.555C87.1252 93.15 87.4252 92.7405 87.7252 92.334L92.0122 86.55L103.132 71.505C104.054 70.257 104.983 69.012 105.899 67.755C106.888 66.405 107.213 64.683 106.619 63.0945C106.214 62.0301 105.451 61.1401 104.46 60.5782C103.469 60.0165 102.314 59.8177 101.192 60.0165C99.0022 60.414 97.9207 62.25 96.7117 63.8865L91.7302 70.635L82.4587 83.178C82.3987 83.259 80.1367 80.3115 78.8063 78.7905C77.9378 77.7975 76.8563 77.0985 75.5243 76.941C74.6363 76.8361 73.7367 76.9791 72.9249 77.3539C72.1131 77.7289 71.421 78.3211 70.925 79.065C70.4291 79.809 70.1486 80.6757 70.1148 81.5692C70.0809 82.4628 70.295 83.3481 70.7333 84.1275C71.0768 84.7395 71.5853 85.257 72.0458 85.7775L76.9177 91.35L79.0177 93.75C80.0287 94.905 81.3082 95.601 82.8667 95.637C83.2867 95.64 83.2867 94.9785 82.8607 94.9695Z" fill="black"/>
<path d="M82.8699 95.931H82.8324C81.2649 95.889 79.9044 95.2215 78.7824 93.9435L71.8194 85.98C71.7354 85.8825 71.6499 85.7865 71.5629 85.6905C71.1486 85.2595 70.7824 84.7848 70.4709 84.2745C70.0072 83.4469 69.7813 82.5073 69.8184 81.5593C69.8553 80.6115 70.1535 79.6923 70.6803 78.9033C71.2069 78.1143 71.9413 77.4864 72.8026 77.0887C73.6638 76.6909 74.6182 76.5391 75.5604 76.65C76.8669 76.8 78.0339 77.4585 79.0329 78.6C79.6719 79.3305 80.5074 80.367 81.2439 81.2805C81.6789 81.819 82.1559 82.4115 82.4244 82.725L96.4704 63.723C96.6054 63.54 96.7389 63.354 96.8739 63.168C97.9554 61.668 99.0759 60.111 101.138 59.736C102.328 59.5306 103.552 59.7436 104.602 60.3387C105.653 60.9337 106.464 61.8741 106.9 63C107.5 64.62 107.222 66.468 106.15 67.9425C105.535 68.7825 104.917 69.6195 104.296 70.4535C103.99 70.8645 103.685 71.2765 103.381 71.6895L87.6684 92.937C87.4689 93.207 87.2709 93.477 87.0684 93.7455C86.0334 95.127 84.5079 95.9235 82.8849 95.931H82.8699ZM82.8534 95.331H82.8834C82.8849 95.3107 82.8808 95.2905 82.8714 95.2725H82.8459C82.8391 95.2914 82.8391 95.3121 82.8459 95.331H82.8534ZM83.4759 95.2275C83.4774 95.2474 83.4774 95.2675 83.4759 95.2875C84.094 95.1919 84.6871 94.9747 85.2208 94.6485C85.7547 94.3224 86.2183 93.8935 86.5854 93.387C86.7853 93.12 86.9853 92.8519 87.1854 92.583L91.7709 86.3775L102.89 71.3325C103.19 70.9204 103.496 70.5085 103.807 70.0965C104.425 69.261 105.044 68.427 105.658 67.5885C106.618 66.2775 106.873 64.641 106.337 63.21C105.954 62.2146 105.237 61.3827 104.31 60.8557C103.382 60.3288 102.301 60.1393 101.249 60.3195C99.4254 60.651 98.4248 62.0415 97.3643 63.513C97.2294 63.7005 97.0944 63.888 96.9564 64.074L82.6119 83.475H82.4619H82.4319L82.5534 83.613C82.5763 83.6053 82.5963 83.5906 82.6104 83.571L90.1464 73.371C91.0644 72.129 91.9794 70.8844 92.8914 69.6375C94.6914 67.185 96.5469 64.6515 98.4129 62.187C99.7629 60.399 102.065 59.7975 103.999 60.7245C104.586 61.0005 105.104 61.4037 105.517 61.905C105.929 62.4063 106.224 62.9929 106.381 63.6225C106.549 64.2843 106.57 64.9749 106.442 65.6457C106.315 66.3163 106.041 66.951 105.641 67.5045C105.178 68.154 104.692 68.8035 104.222 69.4305C103.985 69.7485 103.748 70.065 103.513 70.383L88.3749 90.873C88.1574 91.173 87.9399 91.473 87.7299 91.773C87.2673 92.4595 86.7664 93.1195 86.2299 93.75C85.5177 94.5552 84.5407 95.0787 83.4759 95.226V95.2275ZM74.9739 77.2095C74.179 77.206 73.3971 77.4112 72.7063 77.8045C72.0156 78.1978 71.44 78.7654 71.0373 79.4508C70.6345 80.1361 70.4185 80.9151 70.411 81.7099C70.4035 82.5048 70.6047 83.2876 70.9944 83.9805C71.2852 84.4519 71.6257 84.8908 72.0099 85.29L72.2709 85.59L79.2384 93.552C80.0934 94.53 81.1014 95.109 82.2384 95.283C82.2369 95.263 82.2369 95.2429 82.2384 95.223C81.1149 95.0535 80.1204 94.4805 79.2744 93.5145L73.1244 86.469C72.9879 86.3115 72.8469 86.1555 72.7074 85.9995C71.4669 84.615 70.1829 83.1825 70.5264 81.0495C70.6897 80.0376 71.1936 79.1119 71.9545 78.4254C72.7155 77.7388 73.6881 77.3326 74.7114 77.274C76.1469 77.202 77.4639 77.8035 78.5259 79.017L80.1324 80.85C79.5864 80.175 79.0329 79.5 78.5814 78.9855C77.6814 77.961 76.6434 77.3715 75.4899 77.2365C75.3186 77.2171 75.1462 77.208 74.9739 77.2095ZM74.9394 77.868C74.8749 77.868 74.8074 77.868 74.7414 77.868C73.8538 77.9202 73.011 78.2742 72.3522 78.871C71.6934 79.4679 71.2582 80.272 71.1189 81.15C70.8189 83.001 71.9544 84.2655 73.1544 85.6035C73.2954 85.761 73.4379 85.92 73.5759 86.0775L79.7349 93.117C80.6139 94.122 81.6669 94.6455 82.8654 94.674C83.4163 94.6726 83.9608 94.5547 84.463 94.3276C84.9651 94.1007 85.4134 93.7698 85.7784 93.357C86.2999 92.7424 86.7876 92.1 87.2394 91.4325C87.4524 91.1325 87.6714 90.8205 87.8919 90.5205L103.03 70.0365C103.266 69.7165 103.503 69.3979 103.741 69.081C104.207 68.4555 104.692 67.8075 105.152 67.164C105.501 66.6816 105.739 66.1284 105.851 65.5437C105.962 64.959 105.944 64.3569 105.797 63.78C105.662 63.2358 105.406 62.7285 105.05 62.2951C104.694 61.8619 104.246 61.5133 103.738 61.275C102.064 60.4725 100.07 61.0005 98.8899 62.559C97.0269 65.019 95.1699 67.551 93.3744 70.0005C92.4613 71.2465 91.5459 72.492 90.6279 73.737L83.0919 83.937C83.0304 84.0199 82.9515 84.0885 82.8609 84.138C82.7703 84.1875 82.6699 84.2166 82.5669 84.2235C82.4797 84.2275 82.3929 84.2116 82.3128 84.177C82.2328 84.1425 82.1617 84.0901 82.1049 84.024L78.0744 79.4115C77.1879 78.399 76.1079 77.868 74.9394 77.868Z" fill="black"/>
</svg>
