<svg width="120" height="120" viewBox="0 0 120 120" fill="none" xmlns="http://www.w3.org/2000/svg">
<path d="M43.2969 45.0285L43.3824 45.0525L43.3239 44.9475L43.2969 45.0285Z" fill="#6C8579"/>
<g style="mix-blend-mode:multiply" opacity="0.2">
<g style="mix-blend-mode:multiply" opacity="0.2">
<path d="M43.2969 45.0285L43.3824 45.0525L43.3239 44.9475L43.2969 45.0285Z" fill="#5D5D5D"/>
</g>
</g>
<path d="M44.3661 46.947L44.3691 46.851L44.3301 46.7805L44.3661 46.947Z" fill="#5A856E"/>
<g style="mix-blend-mode:multiply" opacity="0.2">
<g style="mix-blend-mode:multiply" opacity="0.2">
<path d="M44.3661 46.947L44.3691 46.851L44.3301 46.7805L44.3661 46.947Z" fill="#5D5D5D"/>
</g>
</g>
<path d="M48.0354 53.847L48.2169 53.853L47.9199 53.3115L48.0354 53.847Z" fill="#C5D28B"/>
<g style="mix-blend-mode:multiply" opacity="0.2">
<g style="mix-blend-mode:multiply" opacity="0.2">
<path d="M48.0354 53.847L48.2169 53.853L47.9199 53.3115L48.0354 53.847Z" fill="#5D5D5D"/>
</g>
</g>
<path d="M55.916 67.8615L56.0165 68.0445C56.4122 68.7627 57.0766 69.2946 57.8641 69.5236C58.6514 69.7525 59.4974 69.6597 60.2165 69.2655L62.4155 68.0655L69.863 63.9735L73.463 61.9965L75.4325 60.9L75.863 60.663L77.7875 59.6055L78.788 59.0565L80.4875 58.122L88.679 53.622L89.729 53.0475L90.896 52.4055L92.0045 51.7965L93.9891 50.706L96.5301 49.3095L96.437 45.6L55.916 67.8615Z" fill="#8F57DA"/>
<path d="M97.552 78.147L29.674 78.105L28.75 39.372L96.6265 39.414L97.552 78.147Z" fill="white"/>
<path d="M97.552 77.4H95.725H90.7975H83.4925H74.5795H64.8175H54.9625H45.7735H38.0095H32.428C31.549 77.4 30.664 77.367 29.7865 77.4H29.674L30.424 78.15L30.3325 74.25L30.112 64.995L29.8495 53.802L29.6185 44.1285L29.5435 40.9575C29.5315 40.455 29.554 39.9375 29.5075 39.4365C29.506 39.415 29.506 39.3934 29.5075 39.372L28.7575 40.122H30.5845H35.5105H42.8155H51.7285L61.492 40.1295H71.347H80.536H88.3H93.8815C94.759 40.1295 95.644 40.1625 96.523 40.1295H96.634L95.884 39.3795L95.977 43.233L96.1975 52.488L96.4645 63.6825L96.6955 73.356C96.733 74.919 96.73 76.488 96.808 78.048C96.808 78.0705 96.808 78.0915 96.808 78.1125C96.8305 79.077 98.3305 79.08 98.308 78.1125L98.2165 74.259L97.9945 65.004L97.7215 53.85L97.4905 44.1765C97.453 42.615 97.456 41.046 97.378 39.4845C97.378 39.4635 97.378 39.441 97.378 39.42C97.3753 39.222 97.2954 39.0327 97.1553 38.8926C97.0153 38.7526 96.826 38.6727 96.628 38.67H94.7995H89.8735H82.5685H73.6555H63.892L54.037 38.6625H44.848H37.084H31.5025C30.6235 38.6625 29.7415 38.646 28.861 38.6625H28.75C28.5517 38.6644 28.3621 38.7441 28.2219 38.8843C28.0816 39.0246 28.002 39.2142 28 39.4125L28.0915 43.266L28.312 52.521L28.5805 63.7155L28.81 73.35C28.8475 74.9115 28.846 76.482 28.9225 78.042C28.9225 78.0645 28.9225 78.0855 28.9225 78.1065C28.926 78.3043 29.006 78.493 29.146 78.633C29.2859 78.7729 29.4747 78.853 29.6725 78.8565H31.4995H36.427H43.732H52.645H62.4085H72.2635H81.451H89.215L94.7995 78.9C95.6785 78.9 96.5605 78.9165 97.4395 78.9H97.552C98.5165 78.9 98.5195 77.4 97.552 77.4Z" fill="#222221"/>
<path d="M93.7276 69.45L93.2386 48.1155C90.6211 48.1155 88.4476 45.9675 88.3561 43.3155L37.3501 43.23C37.4116 45.909 35.3266 48.0765 32.6911 48.0735H32.5801L33.0676 69.414C33.1126 69.414 33.1561 69.414 33.2011 69.414C35.8201 69.414 38.0011 71.562 38.0881 74.214L89.0986 74.292C89.0326 71.6205 91.1041 69.4575 93.7276 69.45Z" fill="white"/>
<path d="M94.4776 69.45L94.4296 67.3395L94.3126 62.2395L94.1716 56.0895L94.0501 50.7435C94.0306 49.8795 94.0366 49.0125 93.9916 48.15C93.9909 48.137 93.9909 48.1241 93.9916 48.111C93.9882 47.9132 93.9081 47.7245 93.7681 47.5845C93.6282 47.4446 93.4394 47.3645 93.2416 47.361C92.1713 47.3493 91.1472 46.9235 90.3841 46.173C89.6143 45.4127 89.1592 44.3903 89.1091 43.3095C89.1064 43.1115 89.0265 42.9222 88.8864 42.7823C88.7464 42.6422 88.5571 42.5622 88.3591 42.5595H86.9896H83.2831L77.7796 42.552L71.0926 42.5415L63.7696 42.5295L56.3476 42.519L49.4566 42.5085L43.6066 42.4995H39.4201C38.7571 42.4995 38.0941 42.483 37.4326 42.4995H37.3501C37.1521 42.5022 36.9628 42.5822 36.8227 42.7223C36.6827 42.8622 36.6028 43.0515 36.6001 43.2495C36.6161 43.7874 36.5246 44.3232 36.3313 44.8254C36.1378 45.3276 35.8463 45.7863 35.4736 46.1745C35.0993 46.56 34.6486 46.8629 34.1501 47.0636C33.6518 47.2643 33.1169 47.3585 32.5801 47.34C32.3818 47.342 32.1922 47.4216 32.0519 47.5619C31.9117 47.7021 31.832 47.8917 31.8301 48.09L31.8781 50.2005L31.9951 55.3005L32.1361 61.4505L32.2576 66.7965C32.2771 67.659 32.2711 68.5275 32.3176 69.39V69.429C32.3203 69.627 32.4002 69.8163 32.5402 69.9564C32.6803 70.0964 32.8696 70.1763 33.0676 70.179C33.6053 70.1613 34.1413 70.2503 34.6445 70.4405C35.1478 70.6307 35.6084 70.9185 36.0001 71.2875C36.8054 72.0533 37.2832 73.1009 37.3336 74.211C37.337 74.4089 37.4171 74.5976 37.5571 74.7375C37.697 74.8775 37.8857 74.9576 38.0836 74.961H39.4501H43.1566L48.6601 74.97L55.3471 74.979L62.6701 74.991L70.0921 75.003L76.9831 75.0135L82.8331 75.0225H87.0196C87.6826 75.0225 88.3456 75.0375 89.0071 75.0225H89.1001C89.2984 75.0206 89.488 74.9409 89.6283 74.8007C89.7685 74.6604 89.8482 74.4708 89.8501 74.2725C89.8222 73.2101 90.2114 72.179 90.9346 71.4C91.2961 71.0232 91.7296 70.7228 92.2093 70.5167C92.6892 70.3106 93.2054 70.2029 93.7276 70.2C94.6921 70.188 94.6951 68.688 93.7276 68.7C93.008 68.7062 92.2969 68.8553 91.6354 69.1385C90.9739 69.4218 90.3751 69.8336 89.8741 70.35C88.871 71.4135 88.3242 72.8274 88.3501 74.289L89.1001 73.539H87.7306H84.0241L78.5206 73.53L71.8336 73.5195L64.5001 73.5L57.0781 73.488L50.1856 73.4775L44.3356 73.4685H40.1491C39.4891 73.4685 38.8216 73.4385 38.1616 73.4685H38.0761L38.8261 74.2185C38.7706 72.7116 38.1355 71.2844 37.0531 70.2345C35.9807 69.2034 34.543 68.6402 33.0556 68.6685L33.8056 69.4185L33.7576 67.308L33.6406 62.208L33.4996 56.058L33.3856 50.7C33.3661 49.845 33.4096 48.9585 33.3256 48.1065C33.3248 48.0935 33.3248 48.0806 33.3256 48.0675L32.5756 48.8175C33.3094 48.8346 34.0388 48.701 34.7189 48.425C35.399 48.1488 36.0152 47.7362 36.5296 47.2125C37.0403 46.6845 37.4419 46.061 37.7114 45.3777C37.9808 44.6943 38.113 43.9644 38.1001 43.23L37.3501 43.98H38.7196H42.4261L47.9296 43.9875L54.6166 43.998L61.9381 44.01L69.3601 44.0205L76.2526 44.031L82.1026 44.04H86.2891C86.9491 44.04 87.6166 44.07 88.2766 44.04H88.3501L87.6001 43.29C87.7306 46.308 90.1786 48.81 93.2326 48.84L92.4826 48.09L92.5306 50.2005L92.6476 55.3005L92.7886 61.4505L92.9116 66.795C92.9311 67.6575 92.9251 68.526 92.9701 69.3885C92.9709 69.401 92.9709 69.4136 92.9701 69.426C93.0001 70.41 94.5001 70.413 94.4776 69.45Z" fill="#222221"/>
<path d="M76.1735 58.767C76.3505 66.0765 70.6595 72 63.4685 72C56.2775 72 50.3044 66.0675 50.1289 58.7595C49.9534 51.4515 55.6504 45.5205 62.8355 45.5265C70.0205 45.5325 75.9995 51.459 76.1735 58.767Z" fill="white"/>
<path d="M75.4236 58.767C75.4326 59.1199 75.4276 59.4724 75.4086 59.8245C75.4075 60.1711 75.3753 60.517 75.3126 60.858C75.3651 60.6435 75.3126 60.882 75.2991 60.939C75.2856 60.996 75.2751 61.089 75.2616 61.1655C75.2316 61.341 75.1986 61.5165 75.1611 61.6905C75.0921 62.0115 75.0111 62.3295 74.9181 62.6445C74.8251 62.964 74.7186 63.2805 74.6001 63.591L74.5101 63.822C74.4966 63.8535 74.4846 63.8835 74.4726 63.915C74.4066 64.077 74.5416 63.7575 74.4726 63.915C74.4036 64.0725 74.3391 64.215 74.2686 64.365C73.9921 64.948 73.6717 65.509 73.3101 66.0435C73.2231 66.171 73.1346 66.297 73.0431 66.4215C72.9966 66.4875 72.9471 66.552 72.8931 66.6165C72.8391 66.681 72.8856 66.6795 72.9216 66.5805C72.8955 66.6219 72.8653 66.6606 72.8316 66.696C72.6291 66.948 72.4191 67.194 72.1986 67.431C71.7646 67.8988 71.2957 68.3331 70.7961 68.73C70.7736 68.748 70.7271 68.8005 70.7016 68.805C70.7601 68.796 70.8126 68.7195 70.7376 68.7765L70.5441 68.9265C70.4136 69.021 70.2801 69.114 70.1466 69.204C69.8776 69.385 69.6021 69.556 69.3201 69.717C69.0381 69.8779 68.749 70.0279 68.4531 70.167C68.3526 70.2135 68.1531 70.347 68.0496 70.347L68.1381 70.3095L68.0481 70.347L67.9566 70.3845L67.7031 70.4805C67.089 70.7104 66.4575 70.891 65.8146 71.0205C65.6571 71.0535 65.4996 71.082 65.3421 71.1075L65.1156 71.142L65.0661 71.1495H65.1141C65.0871 71.1705 64.9926 71.1645 64.9641 71.1675C64.6236 71.208 64.2801 71.2335 63.9366 71.2455C63.2608 71.2695 62.5843 71.241 61.9131 71.16C61.8966 71.16 61.7286 71.145 61.8591 71.16C61.9896 71.175 61.8246 71.16 61.8066 71.1525L61.5546 71.112C61.3866 71.085 61.2201 71.0535 61.0536 71.0205C60.7236 70.9515 60.3951 70.8705 60.0711 70.7775C59.7471 70.6845 59.4471 70.584 59.1411 70.47C58.9911 70.4145 58.8411 70.356 58.6986 70.296C58.5756 70.2465 58.7241 70.311 58.7391 70.314C58.6914 70.2993 58.6456 70.2792 58.6026 70.254L58.3746 70.152C57.7726 69.8728 57.1926 69.5488 56.6391 69.183C56.5141 69.102 56.3911 69.018 56.2701 68.931C56.2026 68.8845 56.1351 68.835 56.0691 68.781L55.9896 68.721C55.9716 68.709 55.8051 68.5875 55.9071 68.6595C56.0091 68.7315 55.8771 68.637 55.8651 68.6265L55.7871 68.565L55.5951 68.415C55.4676 68.3085 55.3431 68.2005 55.2201 68.091C54.7255 67.6497 54.2638 67.173 53.8386 66.6645C53.7426 66.5505 53.6496 66.4335 53.5566 66.3165C53.4636 66.1995 53.6571 66.45 53.5566 66.3165C53.5371 66.2895 53.5176 66.2625 53.4966 66.237L53.3316 66C53.1426 65.736 52.963 65.4655 52.7931 65.1885C52.6176 64.905 52.4526 64.6125 52.2981 64.3155C52.225 64.1745 52.1545 64.032 52.0866 63.888C51.9978 63.7345 51.9244 63.5728 51.8676 63.405C51.9051 63.555 51.9051 63.4935 51.8841 63.444C51.8631 63.3945 51.8526 63.366 51.8361 63.327C51.8076 63.2565 51.7806 63.186 51.7536 63.114C51.6861 62.9415 51.6231 62.766 51.5631 62.589C51.463 62.2819 51.3706 61.9714 51.2856 61.6575C51.1986 61.3245 51.1246 60.9885 51.0636 60.6495C51.0336 60.48 51.0066 60.3075 50.9811 60.1365C50.9811 60.0915 50.9736 59.994 50.9811 60.18C50.9811 60.1455 50.9721 60.111 50.9691 60.0765C50.9556 59.9715 50.9451 59.868 50.9346 59.763C50.8668 59.0697 50.8524 58.372 50.8911 57.6765C50.8909 57.3382 50.9224 57.0007 50.9856 56.6685C50.9286 56.892 50.9946 56.6145 51.0021 56.5635C51.0156 56.478 51.0291 56.394 51.0441 56.31C51.0741 56.1435 51.1056 55.977 51.1416 55.8105C51.2811 55.164 51.4702 54.529 51.7071 53.9115C51.7321 53.8425 51.7591 53.7735 51.7881 53.7045C51.8002 53.6559 51.8194 53.6095 51.8451 53.5665C51.8361 53.574 51.7731 53.733 51.8271 53.6085C51.8931 53.4585 51.9591 53.3085 52.0296 53.1585C52.1706 52.8585 52.3296 52.572 52.4796 52.2885C52.6296 52.005 52.8141 51.729 52.9971 51.4605C53.0796 51.339 53.1636 51.219 53.2491 51.102C53.2971 51.036 53.3466 50.9715 53.3991 50.907C53.4981 50.7735 53.3166 51.0075 53.3856 50.9235L53.4756 50.8095C53.8741 50.3103 54.3099 49.842 54.7791 49.4085C55.0161 49.1895 55.261 48.9795 55.5141 48.7785C55.5373 48.7558 55.563 48.7357 55.5906 48.7185L55.5156 48.777L55.5921 48.717L55.7421 48.6015C55.8861 48.4965 56.0316 48.3964 56.1786 48.3015C56.7045 47.95 57.256 47.6386 57.8286 47.37L58.0506 47.268L58.1406 47.229L58.1856 47.2095C58.2606 47.1765 58.2456 47.184 58.1421 47.2275C58.1691 47.1885 58.3041 47.1615 58.3476 47.1435L58.6011 47.0475C58.9101 46.932 59.2251 46.83 59.5431 46.74C59.8611 46.65 60.1731 46.575 60.4911 46.5105C60.649 46.4785 60.8065 46.45 60.9636 46.425L61.2156 46.3875C61.3116 46.374 61.2156 46.3545 61.1676 46.3875C61.1961 46.3665 61.2801 46.374 61.3176 46.3695C62.0055 46.2903 62.6988 46.2657 63.3906 46.296C63.7266 46.311 64.0615 46.339 64.3956 46.38C64.4451 46.38 64.5711 46.4085 64.3731 46.38L64.4751 46.3935L64.7286 46.4325C64.8951 46.461 65.0631 46.4925 65.2281 46.5255C65.887 46.6615 66.5346 46.8486 67.1646 47.085C67.3056 47.1375 67.4451 47.193 67.5831 47.25C67.7466 47.316 67.4331 47.181 67.5831 47.25L67.6746 47.2905C67.7571 47.3265 67.8411 47.364 67.9236 47.403C68.2236 47.5395 68.5056 47.688 68.7876 47.853C69.0696 48.018 69.3606 48.186 69.6366 48.369C69.7746 48.459 69.9111 48.5535 70.0461 48.6495L70.2066 48.765L70.3266 48.855C70.3656 48.8835 70.4991 48.9645 70.3266 48.855C70.5964 49.0465 70.8508 49.2592 71.0871 49.491C71.3271 49.707 71.5596 49.932 71.7831 50.163C72.0066 50.394 72.2241 50.637 72.4311 50.8845C72.5434 51.0069 72.6481 51.1362 72.7446 51.2715C72.7356 51.258 72.6396 51.135 72.7176 51.2385L72.7926 51.339L72.9546 51.5595C73.3375 52.0969 73.6819 52.6608 73.9851 53.247C74.059 53.388 74.1295 53.5305 74.1966 53.6745C74.281 53.8206 74.3505 53.9748 74.4036 54.135C74.3631 53.9505 74.3841 54.09 74.4036 54.1425L74.4411 54.237C74.4726 54.315 74.5041 54.3945 74.5341 54.4725C74.5941 54.6315 74.6511 54.7905 74.7051 54.951C74.9221 55.5924 75.0906 56.2492 75.2091 56.916C75.2391 57.078 75.2631 57.2415 75.2871 57.4035C75.3111 57.5655 75.2721 57.2715 75.2871 57.3855C75.2871 57.429 75.2991 57.4725 75.3036 57.516C75.3126 57.594 75.3216 57.666 75.3291 57.7515C75.3636 58.0935 75.3831 58.437 75.3921 58.7805C75.3921 58.9794 75.4711 59.1702 75.6117 59.3109C75.7524 59.4514 75.9432 59.5305 76.1421 59.5305C76.341 59.5305 76.5318 59.4514 76.6725 59.3109C76.813 59.1702 76.8921 58.9794 76.8921 58.7805C76.8231 55.8999 75.8914 53.1063 74.2177 50.7607C72.544 48.4153 70.2052 46.626 67.5036 45.624C64.7839 44.628 61.818 44.523 59.0346 45.324C56.3874 46.0972 54.0453 47.6727 52.3311 49.833C50.5527 52.0897 49.5162 54.8416 49.3641 57.711C49.2193 60.5745 49.9333 63.4161 51.4149 65.871C52.8963 68.3257 55.0776 70.282 57.6786 71.4885C60.3528 72.7126 63.3466 73.0561 66.2286 72.4695C68.9454 71.8953 71.4148 70.4866 73.2921 68.4405C75.2071 66.3288 76.4245 63.6778 76.7781 60.849C76.8673 60.1642 76.9033 59.4738 76.8861 58.7835C76.8861 58.5846 76.807 58.3938 76.6665 58.2531C76.5258 58.1125 76.335 58.0335 76.1361 58.0335C75.9372 58.0335 75.7464 58.1125 75.6057 58.2531C75.4651 58.3938 75.3861 58.5846 75.3861 58.7835L75.4236 58.767Z" fill="#222221"/>
<g opacity="0.2">
<path opacity="0.2" d="M76.6234 58.782C76.4569 51.7845 70.9744 46.05 64.2004 45.573C66.6412 46.584 68.7362 48.2815 70.2313 50.4598C71.7263 52.638 72.5572 55.2033 72.6229 57.8445C72.7969 65.154 67.1074 71.0745 59.9164 71.07C59.6164 71.07 59.3074 71.058 59.0059 71.037C60.5669 71.6766 62.2375 72.0062 63.9244 72.0075C71.1094 72.012 76.8004 66.09 76.6234 58.782Z" fill="#050505"/>
</g>
<path d="M61.7362 68.436L61.7257 66.186C58.8472 65.6715 57.9187 63.636 57.9082 61.5675L61.6837 61.5495C61.7272 62.469 62.0437 63.093 63.4837 63.0855C64.6567 63.0855 65.0647 62.589 65.0602 61.65C65.0557 60.711 64.4287 60.4605 62.4502 60C60.4717 59.5395 58.1812 58.887 58.1632 55.4235C58.1527 53.0775 59.3632 51.5835 61.6447 51.123L61.6327 48.8535L64.9192 48.837L64.9312 51.1065C67.0657 51.507 68.2462 52.8705 68.4937 55.6665L64.7182 55.686C64.5757 54.591 64.1182 54.186 63.1657 54.186C62.2132 54.186 61.8562 54.564 61.8607 55.2675C61.8607 56.148 62.3947 56.478 63.7657 56.784C65.8417 57.243 68.8177 57.855 68.8357 61.572C68.8477 63.9195 67.8592 65.7045 65.0047 66.168L65.0152 68.418L61.7362 68.436Z" fill="white"/>
<path d="M62.2981 68.4361L62.2876 66.1861C62.2865 66.0632 62.2459 65.944 62.1715 65.846C62.0971 65.7482 61.9931 65.677 61.8751 65.6431C61.6148 65.5978 61.3577 65.5357 61.1056 65.4571C60.9931 65.4211 60.8821 65.3836 60.7711 65.3401C60.7441 65.3296 60.6211 65.2801 60.7111 65.3161C60.6571 65.2921 60.6031 65.2681 60.5491 65.2411C60.3506 65.1464 60.16 65.036 59.9791 64.911L59.8636 64.8301C59.7781 64.7686 59.8516 64.8196 59.8636 64.8301L59.8096 64.7866C59.7301 64.7191 59.6506 64.6486 59.5756 64.5751C59.5006 64.5015 59.4406 64.4385 59.3776 64.368C59.3476 64.335 59.3206 64.3006 59.2921 64.2676L59.2516 64.2165C59.2006 64.1565 59.3026 64.293 59.2606 64.227C59.1556 64.0635 59.0431 63.909 58.9516 63.7381C58.9081 63.6556 58.8676 63.573 58.8286 63.489L58.8031 63.4305C58.8031 63.4305 58.8406 63.5265 58.8181 63.4665C58.7956 63.4065 58.7761 63.36 58.7581 63.3075C58.6955 63.1325 58.6424 62.9543 58.5991 62.7735C58.5751 62.6685 58.5526 62.562 58.5346 62.4555C58.5241 62.3985 58.5166 62.3415 58.5076 62.2845C58.5256 62.4015 58.5076 62.292 58.5076 62.241C58.4836 62.016 58.4716 61.791 58.4701 61.5645L57.9076 62.127L61.2076 62.112H61.6771L61.1146 61.5495C61.1536 62.2995 61.3966 63.0615 62.1331 63.3975C62.5871 63.5883 63.0784 63.674 63.5701 63.648C64.0181 63.6575 64.4605 63.545 64.8496 63.3225C65.5396 62.8725 65.7376 61.9725 65.5741 61.1985C65.4241 60.504 64.8166 60.1365 64.2016 59.9025C63.4516 59.616 62.6416 59.487 61.8631 59.2755C61.5536 59.1914 61.2487 59.0913 60.9496 58.9755C60.9136 58.9605 60.8791 58.9455 60.8446 58.9335C60.9946 58.989 60.8566 58.9335 60.8236 58.923C60.7486 58.89 60.6736 58.8555 60.6016 58.818C60.4616 58.7489 60.3254 58.6722 60.1936 58.5885C60.1246 58.5435 60.0571 58.4985 59.9911 58.4505C59.9251 58.4025 59.9161 58.3905 59.9911 58.4505C59.9581 58.4235 59.9221 58.3965 59.8891 58.368C59.7622 58.2609 59.6434 58.1445 59.5336 58.02C59.5066 57.99 59.4826 57.96 59.4571 57.93C59.3851 57.846 59.4661 57.948 59.4481 57.921C59.3986 57.849 59.3461 57.7785 59.2981 57.705C59.2015 57.5493 59.1154 57.3875 59.0401 57.2205C59.0821 57.3105 59.0476 57.2355 59.0296 57.189C59.0116 57.1425 58.9981 57.1035 58.9831 57.0615C58.9501 56.964 58.9201 56.8665 58.8931 56.7615C58.8661 56.6565 58.8421 56.5515 58.8211 56.445C58.8106 56.394 58.8016 56.343 58.7926 56.295C58.7926 56.2695 58.7926 56.2425 58.7806 56.217C58.7671 56.1255 58.7896 56.2995 58.7806 56.205C58.7242 55.7391 58.7171 55.2684 58.7596 54.801C58.7596 54.7515 58.7716 54.702 58.7761 54.651C58.7656 54.7515 58.7761 54.651 58.7836 54.6075C58.8016 54.498 58.8226 54.39 58.8466 54.282C58.8896 54.0968 58.9442 53.9144 59.0101 53.736C59.0176 53.7165 59.0656 53.595 59.0386 53.6595C59.0116 53.724 59.0641 53.6055 59.0731 53.586C59.1151 53.496 59.1616 53.406 59.2111 53.3175C59.2606 53.229 59.2996 53.1675 59.3461 53.1L59.4196 52.995C59.4931 52.89 59.3866 53.0295 59.4466 52.9575C59.5645 52.8161 59.6912 52.6824 59.8261 52.557C59.8906 52.5 59.9566 52.4445 60.0241 52.392C59.9476 52.452 60.0091 52.404 60.0496 52.3755L60.1771 52.2885C60.3415 52.1822 60.5129 52.0869 60.6901 52.0035C60.7096 51.9945 60.8281 51.9405 60.7726 51.9645C60.7171 51.9885 60.8386 51.939 60.8581 51.93C60.9571 51.8925 61.0561 51.858 61.1581 51.825C61.3699 51.7581 61.5851 51.7029 61.8031 51.66C61.9214 51.6266 62.0257 51.5555 62.1001 51.4575C62.1745 51.3596 62.215 51.24 62.2156 51.117L62.2036 48.8475L61.6411 49.41L64.5091 49.3965H64.9276L64.3651 48.834L64.3771 51.1035C64.3781 51.2264 64.4188 51.3456 64.4932 51.4436C64.5676 51.5414 64.6715 51.6126 64.7896 51.6465C64.9807 51.6819 65.17 51.7269 65.3566 51.7815C65.4451 51.8085 65.5336 51.837 65.6206 51.8685L65.7586 51.921C65.8486 51.9555 65.6776 51.882 65.7961 51.9375C65.9555 52.01 66.1103 52.0922 66.2596 52.1835C66.3316 52.23 66.4021 52.2795 66.4726 52.3335C66.5431 52.3875 66.4021 52.2735 66.4846 52.341C66.5251 52.374 66.5656 52.407 66.6046 52.4415C66.7343 52.5551 66.8552 52.6784 66.9661 52.8105C66.9841 52.83 67.0696 52.9365 67.0231 52.878C66.9766 52.8195 67.0531 52.92 67.0651 52.9365C67.1206 53.0145 67.1746 53.0955 67.2241 53.178C67.3231 53.34 67.3981 53.5095 67.4851 53.6775C67.5136 53.733 67.4746 53.652 67.4716 53.646L67.5061 53.73C67.5241 53.7735 67.5391 53.817 67.5556 53.8605C67.5931 53.964 67.6291 54.0705 67.6606 54.177C67.7312 54.4128 67.7894 54.6521 67.8346 54.894C67.8857 55.1496 67.9208 55.4081 67.9396 55.668L68.5021 55.1055L65.2021 55.122H64.7326L65.2756 55.5345C65.1616 54.699 64.7491 53.9115 63.8731 53.6985C63.0721 53.5035 61.8976 53.6085 61.4911 54.4485C61.1551 55.134 61.2736 56.0985 61.8766 56.6115C62.4796 57.1245 63.3346 57.261 64.0996 57.435C64.7039 57.5631 65.2976 57.7371 65.8756 57.9555L65.9806 57.9975C65.8816 57.9585 65.9416 57.981 66.0031 58.0095C66.0646 58.038 66.1531 58.0785 66.2266 58.1145C66.3766 58.185 66.5071 58.2645 66.6421 58.344C66.7081 58.3845 66.7711 58.425 66.8341 58.4685L66.9271 58.533C66.9751 58.5675 67.0366 58.6185 66.9511 58.5495C67.0765 58.6487 67.1962 58.7549 67.3096 58.8675C67.3651 58.9215 67.4176 58.9785 67.4701 59.037L67.5451 59.127C67.6291 59.2245 67.5121 59.076 67.5676 59.1525C67.6718 59.2962 67.7665 59.4465 67.8511 59.6025C67.8916 59.6775 67.9276 59.7525 67.9651 59.8305C68.0026 59.9085 67.9366 59.754 67.9756 59.856C67.9951 59.904 68.0131 59.952 68.0311 60.006C68.0968 60.1896 68.1499 60.3776 68.1901 60.5685C68.2111 60.666 68.2276 60.7635 68.2426 60.8685C68.2576 60.9735 68.2426 60.8145 68.2501 60.9255C68.2501 60.987 68.2636 61.05 68.2681 61.1115C68.2861 61.341 68.2906 61.572 68.2861 61.803C68.2861 61.9935 68.2711 62.1855 68.2501 62.376C68.2501 62.4195 68.2396 62.4645 68.2351 62.508C68.2456 62.409 68.2351 62.481 68.2351 62.535C68.2201 62.628 68.2036 62.721 68.1841 62.8125C68.1485 62.9861 68.1029 63.1572 68.0476 63.3255C68.0221 63.4035 67.9921 63.4755 67.9636 63.5595C67.9261 63.6615 68.0026 63.4785 67.9561 63.576C67.9366 63.6195 67.9171 63.663 67.8961 63.7065C67.8194 63.8627 67.7318 64.013 67.6336 64.1565L67.5646 64.2555C67.5001 64.3455 67.5736 64.2465 67.5541 64.2705C67.4941 64.3365 67.4401 64.4055 67.3801 64.4715C67.2587 64.5956 67.1311 64.7132 66.9976 64.8241C66.9496 64.8646 67.0231 64.8031 67.0261 64.8016L66.9751 64.8391L66.8686 64.9141C66.7876 64.9681 66.7066 65.0191 66.6226 65.0641C66.5386 65.1091 66.4621 65.1525 66.3796 65.1931L66.2296 65.262L66.1636 65.2921C66.2131 65.2696 66.2131 65.2711 66.1636 65.2921C65.9626 65.3656 65.7631 65.442 65.5636 65.4915C65.3641 65.541 65.1136 65.598 64.8796 65.6416C64.7611 65.6749 64.6567 65.746 64.5823 65.8439C64.5079 65.9419 64.4674 66.0616 64.4671 66.1846L64.4776 68.4346L65.0401 67.8721L62.1736 67.8856H61.7536C61.6043 67.8856 61.4614 67.9448 61.3558 68.0503C61.2503 68.1559 61.1911 68.2988 61.1911 68.4481C61.1911 68.5973 61.2503 68.7403 61.3558 68.8459C61.4614 68.9513 61.6043 69.0106 61.7536 69.0106L64.6216 68.9956H65.0401C65.1887 68.9936 65.3306 68.9338 65.4356 68.8286C65.5408 68.7236 65.6006 68.5817 65.6026 68.4331L65.5921 66.1831L65.1796 66.7261C66.7501 66.4501 68.2651 65.625 68.9326 64.0905C69.2356 63.3677 69.395 62.5928 69.4021 61.809C69.4394 60.9341 69.2774 60.0621 68.9281 59.259C68.3281 57.9525 67.0906 57.1725 65.7781 56.727C65.2127 56.5457 64.6379 56.3954 64.0561 56.277C63.8581 56.2335 63.6586 56.1885 63.4561 56.1345C63.3556 56.1075 63.2566 56.0775 63.1561 56.0445L63.0196 55.998L62.9356 55.965H62.9491C62.8771 55.9305 62.7991 55.896 62.7376 55.8555C62.7001 55.8345 62.5456 55.7055 62.6731 55.8225C62.6236 55.779 62.5786 55.7295 62.5231 55.686C62.4406 55.6155 62.5831 55.7955 62.5336 55.6995C62.5141 55.6623 62.4925 55.6263 62.4691 55.5915C62.4076 55.503 62.5021 55.716 62.4766 55.6095C62.4661 55.566 62.4481 55.5255 62.4391 55.482C62.4269 55.4493 62.4199 55.4148 62.4181 55.38C62.4301 55.47 62.4331 55.485 62.4256 55.422V55.3455C62.4256 55.305 62.4256 55.2645 62.4256 55.2225C62.4256 55.1805 62.4526 55.0005 62.4256 55.164C62.4331 55.125 62.4391 55.0875 62.4481 55.0485C62.4571 55.0095 62.5306 54.876 62.4481 55.011C62.4668 54.9815 62.4838 54.951 62.4991 54.9195C62.5351 54.828 62.4316 55.026 62.5201 54.897C62.5471 54.858 62.6386 54.825 62.5201 54.897L62.6506 54.822C62.5291 54.8925 62.6296 54.831 62.6686 54.822C62.7104 54.8078 62.753 54.7958 62.7961 54.786C62.8441 54.7755 62.8906 54.7665 62.9461 54.7605C62.8156 54.7785 63.0391 54.7605 63.0616 54.7605C63.178 54.7538 63.2947 54.7538 63.4111 54.7605C63.4426 54.7605 63.5836 54.789 63.4336 54.7605C63.4861 54.7695 63.5386 54.7785 63.5836 54.792L63.6931 54.825C63.7516 54.846 63.7411 54.8415 63.6616 54.8085L63.7276 54.84C63.757 54.8598 63.7876 54.8778 63.8191 54.894C63.8671 54.927 63.8581 54.918 63.7906 54.867L63.8431 54.912C63.8665 54.939 63.8915 54.9645 63.9181 54.9885C63.9556 55.0335 63.9496 55.0245 63.8971 54.9585C63.9121 54.978 63.9256 54.999 63.9391 55.02C63.9526 55.041 63.9796 55.0845 63.9976 55.119C64.0156 55.1535 64.0726 55.311 64.0246 55.1715C64.0969 55.388 64.1471 55.611 64.1746 55.8375C64.2076 56.0775 64.4956 56.2515 64.7176 56.2515L68.0176 56.235H68.4871C68.7706 56.235 69.0781 55.9785 69.0496 55.6725C68.9566 54.66 68.7571 53.64 68.2561 52.743C67.8518 52.0145 67.2391 51.4232 66.4966 51.045C66.0469 50.8218 65.5682 50.6624 65.0746 50.571L65.4871 51.1125L65.4751 48.843C65.4731 48.6944 65.4133 48.5525 65.3081 48.4475C65.2031 48.3423 65.0612 48.2825 64.9126 48.2805L62.0461 48.2955H61.6261C61.4774 48.2975 61.3355 48.3573 61.2305 48.4625C61.1254 48.5675 61.0655 48.7094 61.0636 48.858L61.0756 51.1275L61.5001 50.58C60.6587 50.742 59.8679 51.1019 59.1931 51.63C58.5848 52.1337 58.1318 52.7994 57.8866 53.55C57.6148 54.3999 57.5344 55.2995 57.6511 56.184C57.7456 56.9955 57.9706 57.81 58.4626 58.476C59.3071 59.619 60.6106 60.126 61.9486 60.459C62.3671 60.5625 62.7886 60.654 63.2041 60.7665C63.3931 60.819 63.5821 60.8745 63.7666 60.939C63.8326 60.9615 63.8986 60.987 63.9631 61.011C64.0921 61.059 63.8536 60.9555 63.9721 61.011C64.0141 61.0335 64.0576 61.0515 64.1011 61.074C64.1594 61.1028 64.216 61.1348 64.2706 61.17C64.2706 61.17 64.3471 61.2135 64.3456 61.221C64.3441 61.2285 64.2346 61.122 64.3216 61.2045C64.3606 61.242 64.3966 61.281 64.4356 61.32C64.5061 61.389 64.3636 61.2 64.4086 61.287C64.4251 61.317 64.4446 61.3455 64.4611 61.374C64.5061 61.4505 64.4401 61.419 64.4461 61.332C64.4512 61.3575 64.4597 61.3823 64.4716 61.4055C64.4771 61.4592 64.4887 61.512 64.5061 61.563C64.4581 61.4955 64.4956 61.431 64.4986 61.5285C64.4986 61.5585 64.4986 61.5885 64.4986 61.6185C64.4986 61.7175 64.4986 61.815 64.4881 61.9185C64.4881 62.0595 64.5166 61.7985 64.4881 61.9305C64.4776 61.9815 64.4686 62.031 64.4551 62.0805C64.4416 62.13 64.4296 62.1495 64.4206 62.1855C64.4116 62.2215 64.4041 62.2305 64.4371 62.1495L64.4041 62.211C64.3936 62.2275 64.3696 62.289 64.3501 62.298C64.4056 62.229 64.4146 62.2185 64.3771 62.2635L64.3306 62.313C64.3066 62.337 64.2796 62.3595 64.2541 62.382C64.3741 62.2725 64.2541 62.3715 64.2226 62.394C64.1911 62.4165 64.1551 62.427 64.1221 62.4435C64.2646 62.373 64.1041 62.4435 64.0681 62.457C64.0321 62.4705 63.9856 62.4795 63.9421 62.4885C63.8986 62.4975 63.7216 62.523 63.8596 62.5065C63.6001 62.5298 63.3391 62.5298 63.0796 62.5065C62.9101 62.496 63.1831 62.5305 63.0256 62.5065C62.9641 62.4945 62.9041 62.484 62.8426 62.469L62.7181 62.433L62.6416 62.4045C62.7136 62.4375 62.7226 62.4405 62.6671 62.415C62.6356 62.397 62.6011 62.382 62.5696 62.364C62.5381 62.346 62.5291 62.3385 62.5096 62.325C62.4601 62.2905 62.4706 62.2995 62.5396 62.352C62.5112 62.3336 62.4859 62.3109 62.4646 62.2845L62.4196 62.238C62.3821 62.193 62.3911 62.205 62.4466 62.2755C62.3926 62.244 62.3596 62.1255 62.3311 62.0805C62.2726 61.98 62.3626 62.205 62.3311 62.091C62.3206 62.0475 62.3026 62.004 62.2906 61.9605C62.2786 61.917 62.2741 61.8915 62.2666 61.857L62.2531 61.7865C62.2441 61.725 62.2531 61.7385 62.2531 61.8255C62.2522 61.7351 62.2447 61.6448 62.2306 61.5555C62.2279 61.4072 62.1677 61.2657 62.0629 61.1607C61.9579 61.0559 61.8164 60.9957 61.6681 60.993L58.3681 61.0095H57.8986C57.7499 61.0115 57.608 61.0713 57.503 61.1765C57.3979 61.2815 57.338 61.4234 57.3361 61.572C57.3298 62.466 57.5219 63.3503 57.8986 64.161C58.3091 64.998 58.9717 65.6852 59.7931 66.1261C60.3488 66.4196 60.947 66.6245 61.5661 66.7336L61.1536 66.1906L61.1641 68.4406C61.1641 68.5898 61.2233 68.7328 61.3288 68.8384C61.4344 68.9438 61.5773 69.0031 61.7266 69.0031C61.8758 69.0031 62.0188 68.9438 62.1244 68.8384C62.2298 68.7328 62.2891 68.5898 62.2891 68.4406L62.2981 68.4361Z" fill="#222221"/>
<path opacity="0.05" d="M96.4905 77.784L97.764 77.262L96.4905 39.864L63.375 39.462C63.375 39.462 76.137 41.766 80.5695 49.6935C85.002 57.621 84.312 67.5 86.955 70.95C89.598 74.4 96.4905 77.784 96.4905 77.784Z" fill="#222221"/>
<path d="M88.5098 97.335C99.3722 97.335 108.178 88.5294 108.178 77.667C108.178 66.8046 99.3722 57.999 88.5098 57.999C77.6474 57.999 68.8418 66.8046 68.8418 77.667C68.8418 88.5294 77.6474 97.335 88.5098 97.335Z" fill="white"/>
<path d="M88.5106 57.999C87.9571 57.999 87.4186 58.038 86.8711 58.0815C91.7909 58.4811 96.3803 60.7177 99.7264 64.3467C103.072 67.9755 104.93 72.7309 104.93 77.667C104.93 82.6032 103.072 87.3585 99.7264 90.9873C96.3803 94.6162 91.7909 96.8529 86.8711 97.2525C87.4186 97.296 87.9571 97.335 88.5106 97.335C93.7268 97.335 98.7295 95.2629 102.418 91.5744C106.106 87.8859 108.179 82.8832 108.179 77.667C108.179 72.4507 106.106 67.4481 102.418 63.7596C98.7295 60.0711 93.7268 57.999 88.5106 57.999Z" fill="#B2B2B2"/>
<path d="M88.4749 57.735C84.3682 57.729 80.3611 59.0003 77.0089 61.3725C75.3482 62.5554 73.8739 63.9803 72.6349 65.5995C69.5297 69.6825 68.1236 74.8082 68.7107 79.9041C69.2978 84.9999 71.8327 89.6715 75.7849 92.9415C77.3615 94.2399 79.1242 95.2941 81.0139 96.069C83.8772 97.2326 86.9728 97.7116 90.0541 97.4679C93.1352 97.2241 96.1169 96.2643 98.7619 94.665C102.19 92.5881 104.914 89.528 106.58 85.8825C107.44 83.9768 108 81.9492 108.24 79.872C108.478 77.7834 108.384 75.6702 107.961 73.611C107.555 71.6291 106.847 69.7212 105.861 67.9545C103.908 64.4559 100.948 61.6254 97.3654 59.8305C95.5474 58.92 93.5992 58.2966 91.5904 57.9825C90.5585 57.822 89.516 57.7394 88.4719 57.735C88.273 57.735 88.0822 57.8141 87.9415 57.9546C87.8009 58.0953 87.7219 58.2861 87.7219 58.485C87.7219 58.6839 87.8009 58.8747 87.9415 59.0154C88.0822 59.156 88.273 59.235 88.4719 59.235C88.9819 59.235 89.4919 59.2545 90.0004 59.295C90.2464 59.3145 90.4924 59.3385 90.7384 59.3685C90.7999 59.3685 90.8614 59.3835 90.9229 59.391C91.0624 59.4075 90.7639 59.3685 90.9574 59.391C91.0793 59.4071 91.2008 59.4251 91.3219 59.445C92.2979 59.6019 93.2603 59.8347 94.2004 60.141C94.6544 60.288 95.1044 60.4526 95.5504 60.6345L95.6449 60.6735L95.5834 60.648C95.639 60.6687 95.6936 60.6923 95.7469 60.7185C95.8639 60.768 95.9794 60.8205 96.0949 60.8685C96.3094 60.9675 96.5239 61.071 96.7354 61.1775C97.5838 61.6068 98.399 62.0987 99.1744 62.649C99.3791 62.7804 99.5752 62.9253 99.7609 63.0825C99.6739 63.0015 99.6979 63.033 99.7609 63.0825L99.8989 63.1905L100.191 63.429C100.551 63.729 100.901 64.0415 101.241 64.3665C101.581 64.6916 101.912 65.0351 102.233 65.397C102.383 65.571 102.542 65.7495 102.692 65.9295C102.767 66.0195 102.842 66.1095 102.914 66.201L103.023 66.339C103.038 66.3585 103.053 66.3795 103.07 66.399C103.131 66.477 102.957 66.249 103.059 66.3855C103.634 67.1414 104.154 67.9374 104.615 68.7675C104.847 69.1895 105.063 69.6195 105.263 70.0575C105.309 70.158 105.354 70.2585 105.398 70.3575C105.422 70.4115 105.449 70.464 105.468 70.521C105.414 70.3635 105.468 70.5015 105.491 70.5765C105.581 70.7966 105.667 71.0186 105.749 71.2425C106.082 72.1562 106.345 73.094 106.536 74.0475C106.586 74.2965 106.631 74.5455 106.67 74.7975C106.688 74.91 106.704 75.0225 106.721 75.135C106.748 75.33 106.709 75.0315 106.721 75.171C106.73 75.2415 106.737 75.3105 106.746 75.381C106.804 75.881 106.843 76.385 106.862 76.893C106.9 77.9016 106.859 78.9117 106.74 79.914L106.718 80.097C106.707 80.184 106.727 80.028 106.727 80.028C106.727 80.0625 106.716 80.0985 106.712 80.133C106.695 80.2545 106.677 80.3745 106.658 80.496C106.619 80.7371 106.575 80.9771 106.527 81.216C106.43 81.699 106.314 82.179 106.179 82.6515C106.044 83.124 105.896 83.586 105.729 84.0435C105.647 84.2675 105.561 84.4895 105.47 84.7095C105.458 84.7395 105.446 84.7755 105.431 84.804C105.431 84.804 105.491 84.6645 105.456 84.7425C105.432 84.7965 105.41 84.8505 105.386 84.906C105.339 85.014 105.29 85.122 105.236 85.23C104.835 86.1036 104.368 86.9456 103.839 87.7485C103.71 87.9485 103.578 88.142 103.442 88.329C103.314 88.5264 103.174 88.7157 103.023 88.896C103.158 88.746 103.032 88.8825 103.002 88.923C102.972 88.9635 102.929 89.0145 102.893 89.0595C102.813 89.1585 102.734 89.2545 102.654 89.3595C102.504 89.538 102.354 89.7165 102.194 89.8905C101.561 90.5934 100.879 91.2491 100.151 91.8525C100.061 91.9275 99.9694 92.0025 99.8779 92.0745L99.7399 92.1825C99.7204 92.1975 99.7009 92.2155 99.6814 92.229C99.7159 92.2065 99.7894 92.145 99.7129 92.2035C99.5194 92.3535 99.3244 92.496 99.1249 92.6355C98.7349 92.9115 98.3348 93.1725 97.9249 93.4185C97.5149 93.6645 97.1014 93.8921 96.6844 94.101C96.4729 94.206 96.2599 94.3095 96.0439 94.401L95.7184 94.551C95.6929 94.5615 95.5114 94.638 95.6209 94.593L95.4994 94.6425C94.6024 95.008 93.6787 95.3044 92.7364 95.529C92.2544 95.643 91.7684 95.739 91.2784 95.817L90.9409 95.8665C90.8029 95.886 91.0834 95.8485 90.9049 95.8665L90.6949 95.892C90.4489 95.9205 90.2029 95.9445 89.9554 95.9625C88.9474 96.0412 87.9349 96.0412 86.9269 95.9625C86.6719 95.9415 86.4169 95.916 86.1634 95.8845C86.1019 95.8845 86.0419 95.8665 85.9804 95.862C86.1049 95.8725 86.0614 95.8725 85.9714 95.862L85.5814 95.802C85.0939 95.721 84.6079 95.6235 84.1264 95.502C83.1875 95.2698 82.2671 94.969 81.3724 94.602C81.2119 94.536 81.4639 94.6425 81.3409 94.5885L81.1999 94.527C81.0844 94.476 80.9689 94.425 80.8534 94.377C80.6299 94.275 80.4034 94.167 80.1919 94.056C79.7719 93.8419 79.3598 93.6125 78.9559 93.3675C78.5519 93.1226 78.1519 92.8595 77.7559 92.5785L77.4919 92.3865L77.3509 92.2815L77.2474 92.202L77.1649 92.1375L77.0269 92.028L76.7359 91.7895C76.01 91.1811 75.3298 90.5202 74.7004 89.8125C74.5504 89.637 74.3929 89.46 74.2429 89.2785C74.1694 89.1885 74.0929 89.097 74.0224 89.0055C73.9909 88.9665 73.9594 88.9275 73.9294 88.887C73.8169 88.746 73.9984 88.98 73.8919 88.8405C73.6039 88.4595 73.3289 88.0691 73.0669 87.669C72.5471 86.8704 72.0878 86.0342 71.6929 85.167C71.6434 85.059 71.5954 84.951 71.5429 84.8415C71.5219 84.7965 71.4349 84.6315 71.5279 84.81C71.4979 84.7515 71.4754 84.684 71.4499 84.6225C71.3614 84.402 71.2759 84.1725 71.1934 83.955C71.0303 83.504 70.8839 83.0475 70.7539 82.5855C70.6219 82.1115 70.5079 81.6315 70.4119 81.1485C70.3654 80.9085 70.3219 80.6685 70.2844 80.427C70.2649 80.307 70.2469 80.1855 70.2304 80.064C70.2169 79.977 70.2394 80.133 70.2394 80.133C70.2394 80.097 70.2304 80.0625 70.2259 80.028C70.2169 79.9575 70.2079 79.8885 70.2004 79.818C70.0849 78.8154 70.0487 77.8053 70.0924 76.797C70.1149 76.2915 70.1554 75.7875 70.2169 75.2865C70.2169 75.234 70.2319 75.1815 70.2364 75.129C70.2199 75.339 70.2364 75.144 70.2364 75.093C70.2544 74.964 70.2739 74.8335 70.2964 74.7045C70.3354 74.4645 70.3789 74.2245 70.4284 73.9845C70.6292 73.0233 70.904 72.0789 71.2504 71.16C71.3344 70.938 71.4218 70.7165 71.5129 70.4955C71.5639 70.3695 71.4499 70.638 71.5264 70.464L71.5864 70.323C71.6374 70.208 71.6899 70.0925 71.7439 69.9765C71.9449 69.54 72.1639 69.1095 72.3994 68.6895C72.6349 68.2695 72.8734 67.8765 73.1329 67.4895C73.2664 67.2855 73.4044 67.086 73.5454 66.8895C73.6084 66.801 73.6729 66.7125 73.7374 66.6255L73.8439 66.4845C73.8919 66.42 73.9669 66.3 73.8784 66.4365C74.1566 66.0482 74.464 65.6817 74.7979 65.34C75.1109 64.992 75.4369 64.656 75.7759 64.332C76.1149 64.008 76.4714 63.6915 76.8454 63.3825L77.1154 63.15L77.2339 63.057C77.2669 63.03 77.3284 62.964 77.2009 63.0825C77.2249 63.06 77.2549 63.0405 77.2804 63.021C77.4683 62.8781 77.6579 62.7395 77.8489 62.6055C78.6331 62.0532 79.4579 61.5608 80.3164 61.1325C80.5294 61.026 80.7424 60.924 80.9584 60.8325L81.2839 60.6825L81.3544 60.6525L81.2929 60.6795C81.3535 60.6492 81.4162 60.6231 81.4804 60.6015C81.9314 60.4185 82.3889 60.2531 82.8529 60.105C83.7841 59.808 84.737 59.5833 85.7029 59.433C85.8229 59.415 85.9459 59.3895 86.0659 59.3805L85.9984 59.3895L86.1019 59.376L86.2864 59.355C86.5234 59.328 86.7604 59.3055 86.9989 59.286C87.4889 59.25 87.9803 59.2316 88.4734 59.2305C88.6723 59.2305 88.8631 59.1515 89.0036 59.0109C89.1443 58.8702 89.2234 58.6794 89.2234 58.4805C89.2234 58.2816 89.1443 58.0908 89.0036 57.9501C88.8631 57.8096 88.6723 57.7305 88.4734 57.7305L88.4749 57.735Z" fill="black"/>
<path d="M85.0148 89.961C85.9803 89.9619 86.9229 89.6661 87.7148 89.1135C88.1547 88.8025 88.5464 88.4286 88.8773 88.0035C89.1773 87.6195 89.4563 87.228 89.7443 86.8395L92.9228 82.539C95.0348 79.6819 97.1472 76.8235 99.2603 73.9635C99.7658 73.2825 100.288 72.6135 100.775 71.913C101.062 71.4883 101.28 71.0211 101.422 70.5285C101.487 70.2916 101.532 70.0498 101.558 69.8055C101.602 69.5428 101.62 69.2766 101.612 69.0105C101.587 68.4352 101.458 67.8693 101.233 67.3395C101.024 66.8452 100.738 66.3871 100.387 65.982C99.7802 65.296 98.9901 64.798 98.1098 64.5465C97.6593 64.4143 97.1916 64.3501 96.7223 64.356C96.4284 64.3669 96.1356 64.399 95.8463 64.452C95.6724 64.4779 95.5013 64.519 95.3348 64.575C94.4792 64.8685 93.7152 65.3811 93.1193 66.0615C92.5958 66.6615 92.1473 67.3305 91.6733 67.971L90.1103 70.095L83.7923 78.645L83.0423 79.665C82.875 79.9497 82.7862 80.2735 82.7846 80.6037C82.7829 80.9338 82.8686 81.2584 83.0328 81.5448C83.1972 81.8311 83.4344 82.0689 83.7203 82.234C84.0062 82.3992 84.3306 82.4857 84.6608 82.485L84.9788 82.4445C85.3088 82.4262 85.6311 82.3387 85.9253 82.188C86.2725 81.9798 86.5422 81.6637 86.6933 81.288C86.8248 80.982 86.8691 80.6455 86.8208 80.316C86.7656 79.9119 86.5851 79.5352 86.3048 79.239L84.3548 77.004C84.078 76.6596 83.7773 76.3353 83.4548 76.0335C83.2178 75.8278 82.9671 75.6385 82.7048 75.4665C82.412 75.291 82.1031 75.1438 81.7823 75.027C80.7846 74.6634 79.6934 74.6487 78.6863 74.985C77.5632 75.3622 76.6103 76.1254 75.9968 77.139C75.3668 78.2115 75.2303 79.4475 75.4598 80.6535C75.5651 81.1882 75.7728 81.6976 76.0718 82.1535C76.4066 82.6237 76.7724 83.0713 77.1668 83.493L81.0398 87.9195C81.4248 88.3728 81.8624 88.7785 82.3433 89.1285C82.5081 89.2444 82.6835 89.3448 82.8668 89.4285C83.178 89.5819 83.5029 89.706 83.8373 89.799C84.1863 89.8819 84.5424 89.9322 84.9008 89.949C85.274 89.9674 85.6452 89.886 85.9764 89.7129C86.3076 89.5399 86.5866 89.2818 86.7848 88.965C87.0635 88.4907 87.1469 87.9265 87.0173 87.3919C86.8877 86.8573 86.5553 86.394 86.0903 86.1C85.7273 85.8795 85.4348 85.8405 85.0193 85.8C84.5693 85.755 84.0008 86.0415 83.6933 86.349C83.342 86.7009 83.1446 87.1777 83.1446 87.675C83.1446 88.1722 83.342 88.6491 83.6933 89.001L84.0728 89.301C84.3599 89.4691 84.6866 89.5576 85.0193 89.5575H85.0568L84.5573 89.49L84.5903 89.499L84.1403 89.31C84.1598 89.3175 84.1781 89.3281 84.1943 89.3415L83.8148 89.0415L83.8373 89.0625L83.5373 88.683C83.5506 88.6986 83.5613 88.7164 83.5688 88.7355L83.3798 88.2855C83.3873 88.3044 83.3928 88.3239 83.3963 88.344L83.3288 87.846C83.3318 87.8659 83.3318 87.886 83.3288 87.906L83.3963 87.408C83.3931 87.4276 83.3876 87.4467 83.3798 87.465L83.5688 87.015C83.5611 87.0331 83.5505 87.0499 83.5373 87.0645L83.8373 86.685L83.8148 86.706L84.1943 86.4135C84.1779 86.4259 84.1598 86.4355 84.1403 86.442L84.5903 86.253H84.5573L85.0568 86.187C84.9273 86.1906 84.7977 86.182 84.6698 86.1615L85.1678 86.229C84.9105 86.1924 84.6585 86.1243 84.4178 86.0265L84.8678 86.2155C84.6138 86.1075 84.3744 85.9678 84.1553 85.8L84.5333 86.1C84.0458 85.7175 83.6618 85.209 83.2553 84.75L81.8558 83.151L80.4743 81.6C80.0378 81.1005 79.5743 80.6145 79.1648 80.1L79.4648 80.4795C79.3118 80.2819 79.1829 80.067 79.0808 79.839L79.2698 80.289C79.1619 80.0317 79.0883 79.7614 79.0508 79.485L79.1183 79.983C79.0838 79.7116 79.0838 79.4368 79.1183 79.1655L79.0508 79.6635C79.0889 79.4115 79.1564 79.1649 79.2518 78.9285L79.0628 79.3785C79.1639 79.1445 79.2933 78.9238 79.4483 78.7215L79.1483 79.101C79.3019 78.9081 79.4771 78.7335 79.6703 78.5805L79.2908 78.873C79.4997 78.7143 79.7268 78.5808 79.9673 78.4755L79.5173 78.6645C79.7609 78.5646 80.0157 78.4945 80.2763 78.456L79.7783 78.5235C80.0436 78.489 80.3124 78.489 80.5778 78.5235L80.0798 78.456C80.3286 78.4927 80.5721 78.5602 80.8043 78.657L80.3543 78.468C80.5962 78.5754 80.8242 78.7113 81.0338 78.873L80.6543 78.573C81.2078 79.011 81.6428 79.599 82.1048 80.127L83.6498 81.9L84.9758 78.699L84.6578 78.7395L86.2763 81.561L93.8783 71.277C94.5113 70.422 95.1263 69.5505 95.7728 68.706L95.4728 69.0855C95.7297 68.7391 96.0285 68.4256 96.3623 68.1525L95.9828 68.445C96.1745 68.2983 96.383 68.175 96.6038 68.0775L96.1538 68.2665C96.3735 68.175 96.6038 68.1111 96.8393 68.076L96.3413 68.142C96.6081 68.1075 96.8784 68.1075 97.1453 68.142L96.6458 68.076C96.9074 68.1121 97.1634 68.1811 97.4078 68.2815L96.9578 68.0925C97.1991 68.1945 97.4268 68.326 97.6358 68.484L97.2563 68.184C97.4648 68.346 97.6523 68.5335 97.8143 68.742L97.5143 68.3625C97.6652 68.5632 97.7916 68.7813 97.8908 69.012L97.7018 68.562C97.7933 68.7888 97.8582 69.0253 97.8953 69.267L97.8278 68.7675C97.8615 69.0294 97.8615 69.2946 97.8278 69.5565L97.8953 69.0585C97.8549 69.3402 97.7783 69.6154 97.6673 69.8775L97.8563 69.4275C97.6088 69.9885 97.1993 70.4655 96.8363 70.9545C96.4448 71.4855 96.0503 72.015 95.6588 72.546L93.2588 75.798L88.4513 82.302C87.5603 83.502 86.6858 84.7275 85.7768 85.92L86.0693 85.5405C85.8971 85.7634 85.6986 85.9648 85.4783 86.1405L85.8578 85.8405C85.6533 85.9963 85.4313 86.1277 85.1963 86.232L85.6463 86.043C85.4058 86.1427 85.1538 86.2122 84.8963 86.25L85.3943 86.1825C85.2624 86.199 85.1297 86.208 84.9968 86.2095C84.5009 86.2162 84.0263 86.4127 83.6708 86.7585C83.3195 87.1104 83.1221 87.5872 83.1221 88.0845C83.1221 88.5817 83.3195 89.0586 83.6708 89.4105C84.0261 89.7565 84.5007 89.953 84.9968 89.9595L85.0148 89.961Z" fill="white"/>
<path d="M85.0133 87.885C84.619 87.8853 84.229 87.8011 83.8699 87.6381C83.5108 87.475 83.1907 87.237 82.9313 86.94L78.0908 81.4095C77.8516 81.136 77.6686 80.8182 77.5522 80.4741C77.4358 80.13 77.3882 79.7662 77.4124 79.4037C77.4613 78.6717 77.7989 77.9889 78.3511 77.5057C78.9032 77.0226 79.6247 76.7785 80.3569 76.8274C81.0889 76.8762 81.7717 77.2138 82.2548 77.766L84.8318 80.712L94.5443 67.572C94.7602 67.2795 95.0314 67.0323 95.3428 66.8446C95.654 66.657 95.9993 66.5325 96.3587 66.4782C96.7181 66.4239 97.0847 66.441 97.4375 66.5284C97.7903 66.6159 98.1226 66.7719 98.4151 66.9877C98.7076 67.2036 98.9548 67.4748 99.1424 67.7862C99.3301 68.0974 99.4546 68.4427 99.5089 68.8021C99.5632 69.1615 99.5461 69.5281 99.4586 69.8809C99.3712 70.2339 99.2152 70.566 98.9993 70.8585L87.2438 86.7585C86.9987 87.0916 86.6816 87.3654 86.3164 87.5595C85.951 87.7534 85.5466 87.8626 85.1333 87.879H85.0193L85.0133 87.885Z" fill="#EAEAEA"/>
<path d="M85.0137 87.51C84.4289 87.5094 83.8643 87.2961 83.4252 86.91C83.3067 86.7978 83.1945 86.6791 83.0892 86.5545L82.1337 85.4625L79.2267 82.14L78.4032 81.198C78.1065 80.8681 77.9072 80.4625 77.8271 80.0263C77.7471 79.59 77.7894 79.14 77.9498 78.7264C78.11 78.3127 78.3816 77.9515 78.7347 77.683C79.0877 77.4144 79.5083 77.2489 79.9497 77.205C80.7897 77.139 81.5157 77.4945 82.0617 78.117L84.4932 80.8965L84.5637 80.9775C84.7377 81.1755 85.0137 81.081 85.1532 80.901L86.6127 78.927L89.8302 74.577L93.1497 70.08C93.7152 69.315 94.2762 68.5455 94.8462 67.7835C95.1183 67.4168 95.4896 67.1352 95.916 66.972C96.3426 66.8088 96.807 66.7707 97.2545 66.8622C97.7019 66.9537 98.114 67.1711 98.4423 67.4886C98.7705 67.8062 99.0013 68.2109 99.1077 68.655C99.184 69.0033 99.1833 69.3641 99.1056 69.7121C99.0278 70.0601 98.8749 70.3868 98.6577 70.6695C98.2407 71.2395 97.8177 71.8065 97.3977 72.375L94.4292 76.3905L90.9372 81.114L88.0497 85.041L87.1947 86.199C87.0404 86.4262 86.8679 86.6404 86.6787 86.8395C86.2328 87.2704 85.6368 87.5109 85.0167 87.51C84.5337 87.51 84.5337 88.26 85.0167 88.26C85.5245 88.2531 86.0234 88.1256 86.4725 87.8884C86.9216 87.6511 87.3078 87.3106 87.5997 86.895L88.1637 86.1315L90.7542 82.6275L94.2777 77.859L97.5252 73.4655L99.2532 71.1285C99.4994 70.7976 99.678 70.4216 99.779 70.0217C99.8798 69.6218 99.9009 69.206 99.8411 68.798C99.7814 68.39 99.6417 67.9977 99.4302 67.6436C99.2189 67.2894 98.9397 66.9804 98.609 66.7343C98.2781 66.488 97.902 66.3093 97.5021 66.2085C97.1022 66.1076 96.6864 66.0864 96.2784 66.1463C95.8703 66.2061 95.478 66.3458 95.124 66.5571C94.7699 66.7686 94.4609 67.0476 94.2147 67.3785L94.0842 67.554L93.2592 68.67L90.2022 72.807L86.7117 77.5305L84.6117 80.3805L84.5097 80.5185L85.0992 80.442L82.6992 77.7045C82.5549 77.5302 82.3985 77.3662 82.2312 77.214C81.6596 76.7179 80.9282 76.4448 80.1714 76.4451C79.4145 76.4452 78.6833 76.7187 78.1119 77.2152C77.5407 77.7115 77.1678 78.3976 77.0621 79.147C76.9563 79.8964 77.1246 80.6589 77.5362 81.294C77.774 81.6234 78.0342 81.9361 78.3147 82.23L81.2517 85.5885L82.4307 86.9385C82.5057 87.0255 82.5807 87.1125 82.6572 87.198C82.9514 87.5322 83.3135 87.7998 83.7194 87.9829C84.1251 88.1661 84.5654 88.2606 85.0107 88.26C85.4997 88.266 85.4997 87.516 85.0137 87.51Z" fill="black"/>
<path d="M98.9992 70.8615L87.2437 86.7615C86.9989 87.0946 86.6823 87.3682 86.317 87.562C85.9519 87.7557 85.5478 87.8646 85.1347 87.8805H85.0177C84.6232 87.8805 84.2334 87.796 83.8743 87.6328C83.515 87.4695 83.1951 87.2313 82.9357 86.934L82.1992 86.109C82.6293 86.368 83.1222 86.5039 83.6242 86.502H83.7352C84.1492 86.4862 84.5542 86.3775 84.9204 86.1837C85.2865 85.99 85.6044 85.7163 85.8502 85.383L97.6057 69.483C98.0394 68.8923 98.2231 68.1546 98.1172 67.4295C98.0784 67.179 98.0062 66.9349 97.9027 66.7035C98.0811 66.7816 98.2506 66.8787 98.4082 66.993C98.9985 67.4284 99.3922 68.08 99.5029 68.8051C99.6138 69.5302 99.4326 70.2697 98.9992 70.8615Z" fill="#B2B2B2"/>
<path d="M85.0071 87.6824C84.1701 87.6644 83.4966 87.285 82.9551 86.667L82.0281 85.6079L79.1781 82.3559C78.3711 81.4334 77.4096 80.5559 77.6301 79.1865C77.7263 78.6094 78.0149 78.082 78.449 77.6901C78.8832 77.2981 79.4373 77.0647 80.0211 77.028C80.9016 76.983 81.6426 77.385 82.2096 78.033L84.6831 80.85C84.705 80.8716 84.7317 80.8879 84.7609 80.8978C84.7902 80.9077 84.8213 80.9109 84.8519 80.907C84.8825 80.9031 84.9119 80.8923 84.9377 80.8753C84.9636 80.8585 84.9852 80.8358 85.0011 80.8095L89.6166 74.565C91.3041 72.282 92.9661 69.978 94.6791 67.716C95.4291 66.735 96.7371 66.33 97.8741 66.8745C99.3576 67.5855 99.7461 69.447 98.8101 70.755C98.3856 71.3475 97.9431 71.9295 97.5096 72.516L91.1121 81.171L88.2366 85.0649C87.8091 85.6439 87.4101 86.274 86.9316 86.8139C86.6902 87.0863 86.394 87.3046 86.0624 87.4542C85.7306 87.6038 85.371 87.6817 85.0071 87.6824C84.9534 87.6824 84.9018 87.7037 84.8639 87.7417C84.8259 87.7798 84.8046 87.8313 84.8046 87.885C84.8046 87.9387 84.8259 87.9901 84.8639 88.0282C84.9018 88.0661 84.9534 88.0874 85.0071 88.0874C85.4834 88.0829 85.9516 87.9661 86.3742 87.7463C86.7967 87.5266 87.1614 87.2102 87.4386 86.823C87.6246 86.5754 87.8061 86.3249 87.9906 86.073L90.6126 82.5254L97.4241 73.311C97.9881 72.546 98.5566 71.784 99.1191 71.0175C99.4885 70.5424 99.705 69.9661 99.7395 69.3652C99.774 68.7643 99.625 68.167 99.3123 67.6527C98.9995 67.1385 98.538 66.7314 97.9885 66.4855C97.4391 66.2395 96.828 66.1665 96.2361 66.276C94.8861 66.5205 94.2321 67.6455 93.4911 68.6475L90.4401 72.7755L84.7611 80.4585C84.7251 80.508 83.3391 78.702 82.5246 77.7705C81.9921 77.1705 81.3336 76.734 80.5146 76.638C79.9709 76.5741 79.4199 76.6617 78.923 76.8913C78.4259 77.1208 78.002 77.4835 77.6982 77.9389C77.3945 78.3945 77.2224 78.925 77.2014 79.4722C77.1804 80.0193 77.3111 80.5615 77.5791 81.039C77.8115 81.4038 78.0809 81.7435 78.3831 82.053L81.3681 85.464L82.6506 86.9295C83.2686 87.6375 84.0531 88.0634 85.0071 88.0844C85.0562 88.0784 85.1013 88.0547 85.1342 88.0177C85.1669 87.9806 85.185 87.9329 85.185 87.8834C85.185 87.834 85.1669 87.7862 85.1342 87.7492C85.1013 87.7121 85.0562 87.6884 85.0071 87.6824Z" fill="black"/>
<path d="M85.0121 88.464H84.9821C83.9681 88.437 83.0876 88.005 82.3676 87.1815L78.1001 82.305L77.9501 82.1295C77.6873 81.8555 77.4549 81.5537 77.2571 81.2295C76.955 80.6924 76.8074 80.082 76.8305 79.4661C76.8536 78.8502 77.0466 78.2527 77.3882 77.7396C77.7296 77.2266 78.2064 76.818 78.7656 76.5589C79.3248 76.2999 79.9449 76.2006 80.5571 76.272C81.4061 76.371 82.1621 76.794 82.8071 77.5305C83.2016 77.9805 83.7146 78.618 84.1676 79.1805C84.3611 79.422 84.5711 79.6815 84.7316 79.875L93.1901 68.4315C93.2726 68.3205 93.3536 68.2065 93.4361 68.094C94.0886 67.1865 94.8296 66.1575 96.1691 65.9145C96.9442 65.7712 97.7449 65.9056 98.4307 66.2941C99.1165 66.6825 99.6434 67.3002 99.9191 68.0385C100.11 68.5716 100.166 69.144 100.08 69.7038C99.9949 70.2637 99.7715 70.7935 99.4301 71.2455C99.0521 71.7604 98.6731 72.2734 98.2931 72.7845L97.7336 73.5345L88.1081 86.55C87.9851 86.718 87.8621 86.886 87.7376 87.051C87.4263 87.482 87.0189 87.8343 86.5476 88.0802C86.0762 88.326 85.554 88.4585 85.0226 88.467L85.0121 88.464ZM80.1551 77.4H80.0426C79.5441 77.4337 79.0716 77.6342 78.701 77.9691C78.3303 78.3041 78.0833 78.7541 77.9996 79.2465C77.8301 80.2965 78.4946 81.0315 79.1996 81.816C79.2876 81.9161 79.3746 82.0136 79.4606 82.1085L83.2331 86.4195C83.7416 87.0015 84.3221 87.291 85.0076 87.3075C85.3176 87.3066 85.6241 87.2402 85.9067 87.1125C86.1893 86.9847 86.4416 86.7987 86.6471 86.5665C86.9624 86.1957 87.2568 85.8075 87.5291 85.404C87.6626 85.215 87.7961 85.026 87.9311 84.8415L97.1996 72.3C97.3496 72.1035 97.4996 71.9085 97.6391 71.712C97.9241 71.331 98.2181 70.9365 98.4986 70.5435C98.6959 70.2706 98.8309 69.9577 98.894 69.6271C98.9573 69.2964 98.9473 68.9559 98.8646 68.6295C98.788 68.3233 98.6441 68.0382 98.4436 67.7946C98.243 67.551 97.9907 67.3551 97.7051 67.221C96.7631 66.771 95.6381 67.071 94.9706 67.95C93.8306 69.45 92.6936 71.007 91.5941 72.507C91.0331 73.27 90.4721 74.0325 89.9111 74.7945L85.2956 81.0405C85.2411 81.1143 85.1711 81.1751 85.0905 81.2187C85.0098 81.2622 84.9206 81.2874 84.8291 81.2925C84.7472 81.2961 84.6654 81.2811 84.59 81.2487C84.5147 81.2162 84.4478 81.1671 84.3941 81.105L81.9251 78.2835C81.5741 77.8725 80.9831 77.4 80.1551 77.4Z" fill="black"/>
<path opacity="0.05" d="M30.0352 39.372L28.7617 39.9L30.0352 77.2995L63.1492 77.7C63.1492 77.7 50.3872 75.3975 45.9547 67.47C41.5222 59.5425 42.2137 49.65 39.5707 46.2075C36.9277 42.765 30.0352 39.372 30.0352 39.372Z" fill="#222221"/>
</svg>
