<svg width="120" height="120" viewBox="0 0 120 120" fill="none" xmlns="http://www.w3.org/2000/svg">
<path d="M103.911 39.3C103.39 39.207 102.861 38.649 102.603 38.127C102.091 37.062 102.063 35.9235 102.516 35.1765C103.962 35.538 104.683 35.886 104.83 36.435C104.935 36.825 105.046 38.0685 103.911 39.3Z" fill="#121516"/>
<path d="M79.1211 61.254C79.1211 61.254 71.7591 59.436 71.5206 64.854C71.2821 70.272 73.6701 74.8905 74.2206 78.153C74.7711 81.4155 75.1206 84.5775 75.3066 86.0895C75.4926 87.6015 78.4386 97.815 80.4276 97.974C82.4166 98.133 86.9481 98.631 86.9541 97.1775C86.9631 94.7505 84.5661 94.7115 82.9746 94.791C81.3831 94.8705 79.5441 87.762 79.2246 84.891C78.9051 82.02 79.4676 73.3725 80.1831 69.1545C80.8986 64.9365 80.8506 61.5105 79.1211 61.254Z" fill="#DED7D2"/>
<path d="M27.2998 78.6C31.2568 76.2435 33.7693 72.732 33.9613 64.548L33.9943 64.515H47.9098V67.4655C47.4358 67.5645 48.5098 67.6515 48.5098 67.6515C41.8258 81.9765 33.0253 81.243 31.3888 82.758C29.2348 84.7395 26.8498 90.0705 26.8498 91.5C26.8498 92.9295 27.8653 93.0525 27.8653 93.0525C29.5153 93.1065 30.0958 93.7335 30.2428 94.4025C30.4318 95.271 29.7418 96.09 28.8553 96.1605C27.0733 96.3015 24.1588 96.5415 23.2093 95.496C22.3813 94.5855 24.1093 86.5905 25.2463 82.2825C25.7023 80.55 25.7488 79.515 27.2998 78.6Z" fill="#8F8F8F"/>
<path d="M27.6764 79.2405C29.3099 78.264 30.7574 77.0325 31.8644 75.477C33.1169 73.7145 33.8369 71.6085 34.2284 69.4965C34.5191 67.8618 34.6796 66.2065 34.7084 64.5465L34.4894 65.0775L34.5224 65.0445L33.9914 65.2635H46.1999C46.7609 65.2635 47.3264 65.289 47.8859 65.2635H47.9114L47.1614 64.5135V67.464L47.7119 66.741C47.2694 66.8415 46.9394 67.251 47.0669 67.7175C47.1117 67.8633 47.1954 67.9942 47.3091 68.0959C47.4227 68.1976 47.562 68.2665 47.7119 68.295C47.9736 68.3509 48.2396 68.386 48.5069 68.4L47.8604 67.272C47.142 68.8251 46.3206 70.3284 45.4019 71.772C45.0018 72.396 44.5794 73.0045 44.1344 73.5975L43.9844 73.7865C43.9559 73.824 43.8734 73.92 43.9844 73.7865C43.9619 73.812 43.9409 73.8405 43.9199 73.8675C43.8044 74.0175 43.6874 74.1675 43.5689 74.307C43.3664 74.556 43.1579 74.8005 42.9464 75.042C42.1716 75.9235 41.3291 76.743 40.4264 77.493L40.1144 77.745L39.9734 77.8545C39.8969 77.916 40.1309 77.7345 40.0169 77.82L39.9254 77.892C39.7229 78.042 39.5189 78.192 39.3104 78.342C38.9219 78.6135 38.5214 78.8715 38.1104 79.113C37.3931 79.534 36.6501 79.9098 35.8859 80.238C35.7134 80.3115 36.0194 80.1825 35.9204 80.223L35.7914 80.277L35.5214 80.385C35.3609 80.4495 35.1989 80.511 35.0354 80.571C34.7354 80.685 34.4159 80.793 34.1039 80.895C33.5834 81.0675 33.0539 81.2235 32.5394 81.396C32.1059 81.525 31.6863 81.6967 31.2869 81.909C31.0724 82.0371 30.8753 82.1925 30.7004 82.371C30.2606 82.819 29.8592 83.3032 29.5004 83.8185C28.7301 84.9142 28.059 86.0763 27.4949 87.291C26.9969 88.341 26.5169 89.4239 26.2334 90.5489C26.0973 91.0393 26.0621 91.5522 26.1299 92.0565C26.1686 92.3706 26.2776 92.6717 26.4491 92.9378C26.6205 93.2038 26.8497 93.4276 27.1199 93.5925C27.2708 93.6804 27.4334 93.7465 27.6029 93.7889C27.6834 93.8062 27.7652 93.8176 27.8474 93.8234C27.9344 93.8234 28.0229 93.8235 28.1114 93.8385L28.2974 93.8549C28.4609 93.87 28.1609 93.8295 28.3304 93.8549C28.4927 93.8815 28.653 93.9185 28.8104 93.966C28.8728 93.9955 28.938 94.0182 29.0054 94.0335C28.8674 94.0335 28.8899 93.981 28.9814 94.0335L29.0894 94.089C29.1389 94.1175 29.1869 94.1489 29.2394 94.1789C29.3729 94.2614 29.1134 94.0589 29.2394 94.1789C29.2799 94.2164 29.3204 94.254 29.3579 94.2959L29.4104 94.3559C29.4479 94.3964 29.2949 94.1789 29.3759 94.3184C29.3999 94.3574 29.4239 94.3949 29.4449 94.4354C29.5379 94.6005 29.4059 94.3079 29.4449 94.4039C29.4584 94.4504 29.4764 94.4955 29.4899 94.542C29.4899 94.5645 29.5004 94.5884 29.5064 94.6109C29.5604 94.7924 29.5139 94.4745 29.5064 94.6335C29.5064 94.668 29.5064 94.7009 29.5064 94.7354V94.7864C29.5064 94.8524 29.5064 94.8539 29.5064 94.7864L29.5139 94.737C29.5139 94.7685 29.5019 94.8014 29.4944 94.8344C29.4869 94.8674 29.4779 94.8974 29.4674 94.9289L29.4509 94.9769C29.4284 95.0369 29.4284 95.0384 29.4509 94.9769L29.4689 94.9319L29.4224 95.0204C29.4074 95.0489 29.3879 95.076 29.3714 95.1045C29.3039 95.2275 29.4824 94.9995 29.3534 95.1299C29.3324 95.1495 29.2214 95.2934 29.1929 95.2799L29.2649 95.2245C29.2379 95.2455 29.2109 95.2634 29.1824 95.2829L29.0954 95.3339C29.0759 95.3459 28.9574 95.4359 29.0489 95.3639C29.1404 95.292 29.0294 95.3639 28.9949 95.3819L28.8944 95.4104C28.8614 95.4194 28.8269 95.4269 28.7924 95.4329C28.8959 95.4209 28.9199 95.4179 28.8614 95.4239C28.5614 95.4344 28.2509 95.4734 27.9464 95.4929C27.2508 95.5469 26.5529 95.5649 25.8554 95.5469C25.6829 95.5469 25.5119 95.5305 25.3409 95.5155L25.1174 95.4944C25.0772 95.4844 25.0358 95.4793 24.9944 95.4795L25.0739 95.4899L25.0019 95.478C24.7109 95.4313 24.4253 95.3549 24.1499 95.2499C23.9549 95.1764 24.2894 95.3189 24.1079 95.2319C24.0558 95.2069 24.0059 95.1799 23.9579 95.151C23.9099 95.1225 23.8664 95.0894 23.8184 95.0609C23.7014 94.9904 23.9519 95.1884 23.8589 95.0909C23.8349 95.0654 23.8064 95.0444 23.7809 95.0204C23.6849 94.9244 23.7539 94.9169 23.8214 95.0864C23.813 95.069 23.8029 95.0524 23.7914 95.037C23.7809 95.0205 23.7764 94.9995 23.7644 94.9815C23.8979 95.187 23.8319 95.1509 23.8034 95.0579C23.7867 95.0032 23.7732 94.9477 23.7629 94.8914C23.7629 94.8614 23.7539 94.8314 23.7479 94.8015C23.7284 94.6964 23.7719 95.0129 23.7644 94.9274C23.7644 94.9004 23.7644 94.8749 23.7644 94.8479C23.7479 94.6754 23.7434 94.5014 23.7434 94.3274C23.7434 93.8774 23.7824 93.4274 23.8289 92.9774C23.8424 92.8514 23.8574 92.7255 23.8724 92.5995C23.8724 92.5305 23.8889 92.4615 23.8979 92.3925C23.8979 92.3655 23.8979 92.337 23.9084 92.31C23.9189 92.283 23.9354 92.0954 23.9174 92.2394C23.8994 92.3834 23.9279 92.1599 23.9339 92.1239C23.9429 92.0504 23.9549 91.9739 23.9654 91.9035C23.9864 91.7535 24.0104 91.6035 24.0329 91.4535C24.2414 90.1305 24.4994 88.815 24.7829 87.5055C25.0664 86.196 25.3604 84.909 25.6829 83.619C25.8329 83.019 25.9934 82.419 26.1404 81.819C26.2139 81.519 26.2904 81.219 26.3759 80.919C26.4164 80.7825 26.4614 80.646 26.5139 80.5125C26.5874 80.322 26.4479 80.649 26.5334 80.4615C26.5619 80.4 26.5934 80.3385 26.6249 80.277C26.6907 80.157 26.7633 80.0407 26.8424 79.929C26.9084 79.8285 26.8094 79.9725 26.8004 79.98C26.8304 79.953 26.8559 79.911 26.8829 79.881C26.9099 79.851 26.9609 79.794 27.0014 79.752C27.0419 79.71 27.1094 79.644 27.1649 79.602C27.2204 79.56 27.4169 79.4175 27.2384 79.5345C27.3884 79.437 27.5294 79.3275 27.6884 79.2345C27.848 79.129 27.9612 78.9667 28.005 78.7806C28.0488 78.5944 28.0199 78.3985 27.924 78.2331C27.8283 78.0675 27.6729 77.9449 27.4898 77.8902C27.3065 77.8354 27.1092 77.8527 26.9384 77.9385C26.2974 78.3015 25.7612 78.8238 25.3814 79.455C25.089 80.0232 24.876 80.6289 24.7484 81.255C24.4394 82.503 24.1109 83.745 23.8184 84.9975C23.2094 87.6075 22.6364 90.2475 22.3499 92.919C22.2644 93.72 22.1489 94.6319 22.3694 95.4239C22.7069 96.6329 24.2654 96.9015 25.3289 96.9975C26.0432 97.053 26.7605 97.0574 27.4754 97.0109C27.8073 96.9929 28.1379 96.9709 28.4669 96.9449C28.8765 96.9376 29.2821 96.8621 29.6669 96.7214C30.4829 96.3779 31.0994 95.5214 31.0409 94.6124C31.0205 94.291 30.9303 93.9779 30.7764 93.695C30.6225 93.4121 30.4086 93.1662 30.1499 92.9745C29.5274 92.4945 28.6964 92.3265 27.9239 92.3085C27.6839 92.3085 28.1744 92.3729 28.0004 92.3219C27.9539 92.3084 27.9059 92.2874 27.8594 92.2769C28.1009 92.3309 28.0094 92.3445 27.9269 92.301C27.8909 92.283 27.8579 92.2605 27.8234 92.2409C27.6869 92.1614 27.9734 92.3774 27.8474 92.2589C27.8084 92.2199 27.7709 92.178 27.7304 92.1405C27.6899 92.103 27.8414 92.3129 27.7784 92.2019C27.7664 92.1824 27.7514 92.1644 27.7394 92.1449C27.7064 92.0924 27.6854 92.031 27.6524 91.9815C27.7559 92.1315 27.6944 92.0879 27.6674 92.007C27.6584 91.9799 27.6494 91.9515 27.6419 91.9245C27.6344 91.8975 27.6224 91.8495 27.6149 91.812C27.6074 91.7745 27.6044 91.7639 27.5999 91.7399C27.5879 91.6589 27.5894 91.6739 27.5999 91.7864C27.5654 91.7489 27.5864 91.5824 27.5864 91.5329C27.5864 91.4834 27.5864 91.455 27.5864 91.416C27.5864 91.377 27.5864 91.3529 27.5939 91.3214C27.6059 91.1714 27.5549 91.5569 27.5939 91.3574C27.6761 90.9248 27.7923 90.4996 27.9419 90.0855C28.0364 89.814 28.1369 89.547 28.2419 89.28L28.3184 89.094C28.3319 89.058 28.3469 89.0235 28.3619 88.9875C28.4219 88.8375 28.3064 89.1165 28.3484 89.019C28.4159 88.869 28.4804 88.719 28.5479 88.569C28.8258 87.951 29.1258 87.3439 29.4479 86.748C29.7719 86.148 30.1199 85.563 30.4979 84.9975C30.5864 84.864 30.6779 84.732 30.7709 84.6015C30.8639 84.471 30.9719 84.3585 31.0469 84.228C30.9374 84.4215 31.0559 84.2175 31.0964 84.1665C31.1369 84.1155 31.1879 84.0525 31.2344 83.997C31.3284 83.883 31.4283 83.772 31.5344 83.664C31.6709 83.514 31.8149 83.3775 31.9619 83.241C32.0519 83.1555 31.7549 83.391 31.8989 83.2905C31.9319 83.268 31.9634 83.2455 31.9964 83.226C32.0669 83.1825 32.1464 83.1435 32.2124 83.1075L32.3339 83.052L32.3969 83.0235C32.4359 83.0055 32.1659 83.118 32.3039 83.0625C32.7434 82.8885 33.1949 82.749 33.6464 82.6125C35.0417 82.1961 36.4016 81.669 37.7129 81.036C39.5607 80.0977 41.2551 78.8839 42.7379 77.436C44.8499 75.393 46.5614 72.948 47.9654 70.3755C48.3854 69.6075 48.7769 68.826 49.1474 68.034C49.2105 67.9194 49.2431 67.7905 49.242 67.6597C49.2408 67.5288 49.206 67.4005 49.1409 67.287C49.0758 67.1736 48.9827 67.0788 48.8703 67.0117C48.7578 66.9448 48.6302 66.9078 48.4994 66.9045C48.4019 66.9045 48.3029 66.885 48.1994 66.8745C48.0494 66.858 48.3899 66.906 48.2624 66.882C48.2234 66.882 48.1859 66.8715 48.1484 66.864C48.1109 66.8565 48.0854 66.8475 48.0539 66.8415L48.0179 66.8295C48.1281 66.8595 48.2285 66.9178 48.3089 66.999L48.5024 67.329V67.728C48.4214 68.256 47.7704 68.2725 48.0989 68.199C48.2567 68.1538 48.3956 68.0589 48.495 67.9282C48.5945 67.7977 48.6492 67.6386 48.6509 67.4745V64.5075C48.6477 64.3095 48.5678 64.1206 48.4278 63.9805C48.2877 63.8406 48.0989 63.7606 47.9009 63.7575H35.3009C34.8734 63.7575 34.4429 63.744 34.0154 63.7575C33.8045 63.7576 33.6018 63.8392 33.4496 63.985C33.2973 64.1308 33.2072 64.3299 33.1979 64.5405C33.1649 65.0175 33.1679 65.4975 33.1379 65.9745C33.1079 66.4515 33.0719 66.9045 33.0224 67.368C32.9999 67.5795 32.9744 67.7895 32.9474 67.9995C32.9309 68.139 32.9474 67.9905 32.9474 67.968C32.9474 68.0235 32.9324 68.079 32.9249 68.1345L32.8754 68.4615C32.7606 69.2295 32.6018 69.9901 32.3999 70.74C32.3069 71.0779 32.2029 71.4115 32.0879 71.7405C32.0339 71.8905 31.9784 72.0495 31.9184 72.2025C31.8929 72.27 31.8659 72.3375 31.8389 72.405L31.7894 72.525C31.7384 72.6495 31.8644 72.354 31.7804 72.5445C31.5378 73.1077 31.253 73.6518 30.9284 74.172C30.7784 74.412 30.6194 74.646 30.4514 74.874C30.4064 74.9355 30.3584 74.9955 30.3134 75.057C30.3134 75.057 30.4349 74.907 30.3614 74.994C30.3374 75.024 30.3149 75.054 30.2909 75.0825C30.1964 75.1995 30.1004 75.315 30.0014 75.4275C29.6372 75.846 29.2425 76.237 28.8209 76.5975C28.7189 76.686 28.6154 76.7715 28.5104 76.857C28.4624 76.8945 28.4129 76.932 28.3604 76.971C28.2479 77.061 28.5104 76.8585 28.3949 76.944L28.3064 77.0115C28.0784 77.1825 27.8454 77.3464 27.6074 77.5035C27.3693 77.6605 27.1359 77.8075 26.9069 77.9445C26.7473 78.0499 26.634 78.2122 26.5902 78.3984C26.5464 78.5845 26.5754 78.7804 26.6712 78.9459C26.7669 79.1115 26.9223 79.234 27.1056 79.2888C27.2888 79.3435 27.486 79.3263 27.6569 79.2405H27.6764Z" fill="black"/>
<path d="M80.7119 59.2635C80.7119 59.2635 73.3499 57.45 73.1114 62.868C72.8729 68.286 75.2609 72.9045 75.8114 76.167C76.3619 79.4295 76.7114 82.5915 76.8974 84.1035C77.0834 85.6155 80.0294 95.8275 82.0184 95.988C84.0074 96.1485 88.5389 96.6435 88.5449 95.1915C88.5539 92.8035 86.1569 92.724 84.5654 92.8035C82.9739 92.883 81.1349 85.7745 80.8154 82.9035C80.4959 80.0325 81.0584 71.3865 81.7739 67.1685C82.4894 62.9505 82.4354 59.52 80.7119 59.2635Z" fill="#8C8C8C"/>
<path d="M80.8114 58.902C80.2267 58.7666 79.6324 58.6773 79.0339 58.635C77.8894 58.542 76.6834 58.5855 75.5839 58.9605C74.3194 59.3925 73.3249 60.294 72.9349 61.593C72.6424 62.5695 72.6889 63.6495 72.7444 64.6545C72.8197 65.8859 72.9932 67.1093 73.2634 68.313C73.7239 70.413 74.4499 72.435 75.0349 74.502C75.3019 75.4911 75.5089 76.4953 75.6544 77.5095C75.8524 78.774 76.0264 80.043 76.1869 81.312C76.3474 82.581 76.4329 83.916 76.7404 85.1835C77.0479 86.451 77.4244 87.702 77.8309 88.9335C78.3032 90.4197 78.8606 91.8777 79.5004 93.3C79.7603 93.8868 80.0611 94.4547 80.4004 94.9995C80.6533 95.4323 80.9849 95.8139 81.3784 96.1245C81.8044 96.4335 82.3564 96.396 82.8589 96.438C83.6929 96.507 84.5269 96.567 85.3639 96.579C86.1379 96.588 86.9479 96.579 87.7024 96.3795C88.2724 96.2295 88.8709 95.9055 88.9204 95.253C88.9528 94.8291 88.8763 94.404 88.6979 94.018C88.5197 93.6319 88.2457 93.298 87.9019 93.048C87.2734 92.598 86.4589 92.469 85.7059 92.4285C85.3444 92.409 84.9829 92.418 84.6229 92.4285C84.578 92.4232 84.5327 92.4232 84.4879 92.4285C84.5509 92.403 84.5734 92.4495 84.5134 92.4285C84.4922 92.4207 84.4708 92.4141 84.4489 92.409C84.3784 92.3955 84.5059 92.4465 84.4639 92.4165C84.4459 92.4045 84.4249 92.397 84.4054 92.3865C84.3619 92.3625 84.3229 92.3325 84.2824 92.3055C84.3739 92.3685 84.2644 92.2875 84.2329 92.2575C84.2014 92.2275 84.1489 92.175 84.1084 92.13C84.0679 92.085 84.0304 92.0385 83.9929 91.9905C84.0394 92.049 83.9929 91.998 83.9764 91.968C83.9599 91.938 83.9329 91.9065 83.9104 91.875C83.7359 91.615 83.5805 91.3428 83.4454 91.0605C82.7329 89.6205 82.2604 87.9525 81.8644 86.3505C81.6679 85.5585 81.4939 84.7605 81.3544 83.9505C81.3229 83.7765 81.2944 83.601 81.2689 83.427C81.2569 83.3535 81.2464 83.277 81.2374 83.208C81.2359 83.193 81.2359 83.178 81.2374 83.163C81.2374 83.121 81.2269 83.079 81.2209 83.0385C81.1894 82.77 81.1684 82.5015 81.1534 82.2315C81.0878 80.6138 81.1034 78.9937 81.1999 77.3775C81.2899 75.3915 81.4318 73.4095 81.6259 71.4315C81.7144 70.5315 81.8149 69.6195 81.9334 68.7165C81.9769 68.394 82.0384 67.9665 82.0969 67.6035C82.1854 67.047 82.2799 66.4905 82.3549 65.9325C82.5239 64.8015 82.6027 63.659 82.5904 62.5155C82.5694 61.6665 82.4839 60.7815 82.1269 60.0015C81.8794 59.46 81.4234 58.9935 80.8144 58.896C80.7185 58.8726 80.6174 58.8867 80.5318 58.9356C80.4461 58.9844 80.3825 59.0642 80.3539 59.1585C80.3276 59.2544 80.3405 59.3568 80.3897 59.4431C80.4389 59.5295 80.5205 59.5928 80.6164 59.619C80.6807 59.6291 80.7445 59.6436 80.8069 59.6625C80.8324 59.6625 80.8579 59.6805 80.8834 59.6895C80.8054 59.661 80.8834 59.6895 80.9164 59.7075C80.9726 59.7363 81.0263 59.7699 81.0769 59.808C81.0259 59.7705 81.0589 59.793 81.0874 59.8185L81.1684 59.895L81.2359 59.9685C81.2839 60.021 81.2359 59.9685 81.2494 59.985C81.2954 60.0462 81.3376 60.1103 81.3754 60.177C81.4471 60.2942 81.5045 60.4196 81.5464 60.5505C81.8254 61.347 81.8464 62.175 81.8464 63.0225C81.8224 65.0475 81.3964 67.026 81.1459 69.0225C80.9074 70.8975 80.7394 72.783 80.6089 74.6685C80.4814 76.5 80.3869 78.336 80.3704 80.1735C80.3392 81.4785 80.425 82.7838 80.6269 84.0735C80.9108 85.7164 81.3118 87.3372 81.8269 88.923C82.0688 89.6898 82.3574 90.4413 82.6909 91.173C82.9414 91.716 83.2309 92.2755 83.6509 92.709C83.8166 92.8884 84.0221 93.0265 84.2509 93.1125C84.5014 93.204 84.7834 93.1545 85.0444 93.15C85.4093 93.1411 85.7746 93.1557 86.1379 93.1935H86.1979H86.2159C86.2549 93.1935 86.2939 93.1995 86.3329 93.2115C86.4289 93.228 86.5249 93.2475 86.6194 93.27C86.7835 93.3091 86.9449 93.3592 87.1024 93.42C87.3964 93.5328 87.6553 93.7218 87.8524 93.9675C87.8779 94.0005 87.8524 93.9675 87.8524 93.9675L87.8854 94.0125C87.9094 94.05 87.9334 94.086 87.9559 94.125C87.9967 94.1932 88.0313 94.2651 88.0594 94.3395C88.1224 94.5091 88.1642 94.686 88.1839 94.866C88.1929 94.9755 88.1839 95.0835 88.1959 95.1915C88.1959 95.265 88.1959 95.1915 88.1959 95.1915C88.1861 95.2144 88.1801 95.2388 88.1779 95.2635C88.1779 95.307 88.2184 95.205 88.1779 95.2635C88.1639 95.2842 88.1513 95.3057 88.1404 95.328C88.1119 95.376 88.2004 95.2725 88.1404 95.328C88.1209 95.3445 88.1029 95.3655 88.0849 95.3835C88.0309 95.442 88.0849 95.3835 88.0849 95.3835L88.0129 95.4315C87.9605 95.4635 87.9064 95.4924 87.8509 95.5185C87.7939 95.547 87.9064 95.502 87.8224 95.5305L87.7249 95.5665C87.6544 95.5905 87.5839 95.61 87.5119 95.628C87.1943 95.7096 86.869 95.7573 86.5414 95.7705C86.1364 95.799 85.7284 95.802 85.3204 95.796C84.5014 95.7825 83.6824 95.7225 82.8649 95.655L82.3459 95.6115L82.1269 95.5935C82.0963 95.5873 82.0651 95.5848 82.0339 95.586C82.0774 95.586 82.1329 95.6085 82.0624 95.586L81.9709 95.559C81.9064 95.5425 81.9619 95.55 81.9949 95.571C81.9769 95.559 81.9544 95.553 81.9364 95.5425L81.8404 95.4855L81.7894 95.4495C81.7159 95.4015 81.8314 95.49 81.7894 95.4495C81.6377 95.309 81.4954 95.1586 81.3634 94.9995C81.3364 94.965 81.3244 94.947 81.3634 94.9995L81.3094 94.9275L81.1924 94.7625C81.1174 94.65 81.0424 94.5375 80.9734 94.422C80.2474 93.231 79.7614 91.9965 79.2829 90.714C78.7684 89.334 78.3139 87.9285 77.9089 86.514C77.7589 85.9815 77.6089 85.446 77.4814 84.9075C77.4349 84.7155 77.3914 84.522 77.3524 84.327C77.3374 84.255 77.3239 84.177 77.3104 84.1095C77.3104 84.0795 77.3029 84.0495 77.2969 84.0195C77.2864 83.967 77.3089 84.126 77.3044 84.075C77.2999 84.024 77.2924 83.9805 77.2864 83.934C77.0194 81.738 76.7599 79.5405 76.4194 77.3535C76.2781 76.3472 76.0777 75.3499 75.8194 74.367C75.5569 73.431 75.2554 72.507 74.9689 71.5785C74.2969 69.3975 73.7059 67.176 73.5454 64.89C73.5016 64.2645 73.49 63.6372 73.5109 63.0105C73.5124 62.6262 73.5628 62.2436 73.6609 61.872C73.8001 61.3109 74.0986 60.8019 74.5204 60.4065C74.5729 60.357 74.6269 60.309 74.6824 60.264L74.7409 60.2175L74.8009 60.174C74.9165 60.0906 75.0373 60.0146 75.1624 59.946C75.2869 59.8755 75.4159 59.814 75.5464 59.7555C75.4684 59.79 75.5659 59.748 75.5839 59.7405L75.6844 59.7015L75.8884 59.631C76.1641 59.5419 76.4458 59.4728 76.7314 59.424L76.9459 59.3895H76.9684L77.0914 59.376C77.2414 59.3595 77.3764 59.3475 77.5189 59.3385C78.0502 59.3081 78.5831 59.3165 79.1134 59.364L79.4599 59.3985L79.6099 59.4165L79.6879 59.427C79.7419 59.427 79.6009 59.4135 79.6954 59.427C79.8664 59.451 80.0374 59.478 80.2069 59.508C80.3569 59.535 80.4979 59.5635 80.6419 59.598C81.0814 59.7405 81.2809 59.0175 80.8114 58.902Z" fill="black"/>
<path d="M79.1211 61.254C79.1211 61.254 71.7591 59.436 71.5206 64.854C71.2821 70.272 73.6701 74.8905 74.2206 78.153C74.7711 81.4155 75.1206 84.5775 75.3066 86.0895C75.4926 87.6015 78.4386 97.815 80.4276 97.974C82.4166 98.133 86.9481 98.631 86.9541 97.1775C86.9631 94.7505 84.5661 94.7115 82.9746 94.791C81.3831 94.8705 79.5441 87.762 79.2246 84.891C78.9051 82.02 79.4676 73.3725 80.1831 69.1545C80.8986 64.9365 80.8506 61.5105 79.1211 61.254Z" fill="white"/>
<path d="M79.3198 60.5295C78.7023 60.3872 78.0742 60.2939 77.4418 60.2505C76.2658 60.1545 75.0193 60.204 73.8958 60.588C73.2364 60.8024 72.6297 61.1535 72.1153 61.6185C71.5803 62.129 71.1904 62.7723 70.9858 63.483C70.6858 64.491 70.7248 65.607 70.7818 66.645C70.8607 67.9197 71.0407 69.1863 71.3203 70.4325C71.7808 72.522 72.5038 74.535 73.0858 76.59C73.353 77.5796 73.5598 78.5844 73.7053 79.599C73.8054 80.267 73.9054 80.9366 74.0053 81.6075C74.0158 81.6855 74.0278 81.765 74.0383 81.843L74.0563 81.978V82.011C74.0443 81.921 74.0563 82.032 74.0563 82.0425L74.0743 82.1745C74.0848 82.26 74.0968 82.347 74.1073 82.4325C74.1463 82.722 74.1823 83.0115 74.2198 83.3025C74.3863 84.63 74.4718 85.9815 74.7898 87.285C75.0988 88.554 75.4768 89.808 75.8833 91.0485C76.366 92.5599 76.935 94.0424 77.5873 95.4885C77.8467 96.0741 78.1474 96.6407 78.4873 97.1835C78.7743 97.6688 79.1515 98.0945 79.5988 98.4375C80.0863 98.784 80.7118 98.751 81.2818 98.799C82.1158 98.868 82.9513 98.928 83.7898 98.937C84.5953 98.9475 85.4398 98.9295 86.2213 98.7195C86.9638 98.5215 87.6493 98.0565 87.7003 97.2195C87.7312 96.7286 87.6364 96.2379 87.4248 95.7938C87.2133 95.3498 86.892 94.967 86.4913 94.6815C85.8148 94.203 84.9268 94.0665 84.1198 94.0275C83.7613 94.0095 83.4013 94.0185 83.0428 94.0275H82.8928C82.8928 94.008 83.1298 94.083 83.0263 94.044C83.0049 94.0364 82.9828 94.0304 82.9603 94.026C82.8538 94.0035 83.0818 94.086 83.0653 94.0725C83.047 94.0619 83.028 94.0523 83.0083 94.044C82.9678 94.0185 82.9258 93.984 82.8838 93.963C82.8418 93.942 83.0533 94.113 82.9618 94.0215L82.9033 93.969C82.8598 93.9285 82.8193 93.885 82.7788 93.8415C82.7383 93.798 82.7083 93.7545 82.6708 93.7125C82.8208 93.8895 82.7083 93.7605 82.6483 93.6735C82.4736 93.4151 82.3177 93.1445 82.1818 92.8635C82.1008 92.7 82.0228 92.5335 81.9493 92.3655L81.8998 92.25C81.8668 92.1765 81.9403 92.3475 81.9358 92.337L81.9043 92.262C81.8668 92.172 81.8308 92.0835 81.7963 91.9935C81.6463 91.605 81.4963 91.2105 81.3718 90.8145C81.0913 89.967 80.8498 89.106 80.6353 88.239C80.4388 87.447 80.2648 86.649 80.1253 85.839C80.0953 85.671 80.0668 85.5015 80.0413 85.332C80.0293 85.254 80.0188 85.182 80.0083 85.0965C79.9903 84.9765 80.0353 85.311 80.0083 85.1505C80.0083 85.1085 79.9978 85.068 79.9933 85.026C79.9618 84.759 79.9393 84.489 79.9258 84.2205C79.8373 82.614 79.8988 80.9955 79.9708 79.3905C80.0608 77.3966 80.2033 75.4061 80.3983 73.419C80.4868 72.519 80.5873 71.6085 80.7058 70.7055C80.7283 70.533 80.6878 70.8375 80.7058 70.7055L80.7238 70.578C80.7373 70.473 80.7523 70.3695 80.7673 70.2645C80.7958 70.0725 80.8243 69.8805 80.8543 69.6885C80.9458 69.1155 81.0433 68.5425 81.1198 67.9665C81.2922 66.8192 81.3735 65.6601 81.3628 64.5C81.3388 63.585 81.2353 62.6535 80.8558 61.8135C80.5723 61.1865 80.0128 60.6315 79.3123 60.519C78.9268 60.4575 78.4858 60.618 78.3898 61.044C78.3073 61.404 78.4993 61.9005 78.9133 61.9665C78.9777 61.9767 79.0413 61.9908 79.1038 62.0085C79.1287 62.0204 79.155 62.0295 79.1818 62.0355C79.1818 62.0355 78.9913 61.944 79.0768 61.992L79.1248 62.016C79.1803 62.0445 79.2298 62.091 79.2853 62.1165C79.2463 62.0985 79.1353 61.986 79.2193 62.0685C79.2463 62.094 79.2748 62.118 79.3003 62.145L79.3678 62.2185C79.4638 62.319 79.2748 62.082 79.3318 62.1705C79.3723 62.2305 79.4128 62.289 79.4488 62.352C79.4848 62.415 79.5148 62.4765 79.5463 62.5395C79.6183 62.6895 79.4908 62.3895 79.5313 62.502C79.5478 62.547 79.5658 62.5905 79.5808 62.6355C79.642 62.805 79.6921 62.9784 79.7308 63.1545C79.7503 63.243 79.7668 63.333 79.7833 63.423L79.8058 63.573C79.8058 63.5985 79.8208 63.6795 79.8058 63.5625C79.7908 63.4455 79.8058 63.5625 79.8058 63.597C79.8553 64.0653 79.8765 64.5362 79.8688 65.007C79.8688 65.5545 79.8283 66.102 79.7773 66.648C79.7494 66.948 79.7169 67.245 79.6798 67.539C79.6708 67.605 79.6633 67.6695 79.6543 67.7355C79.6348 67.8855 79.6543 67.7625 79.6543 67.7355L79.6408 67.8345C79.6168 68.0025 79.5928 68.1705 79.5673 68.3385C79.4278 69.2385 79.2808 70.1385 79.1653 71.0385C78.9283 72.9075 78.7618 74.7885 78.6313 76.662C78.5038 78.501 78.4093 80.3445 78.3928 82.188C78.3642 83.519 78.4545 84.8498 78.6628 86.1645C78.9471 87.8075 79.348 89.4281 79.8628 91.014C80.1177 91.8197 80.4213 92.6091 80.7718 93.378C81.0189 93.9654 81.3633 94.5071 81.7903 94.98C82.0021 95.2025 82.2631 95.372 82.5523 95.475C82.8418 95.5725 83.1523 95.526 83.4523 95.52C83.8153 95.5098 84.1786 95.5227 84.5398 95.559C84.5788 95.559 84.6163 95.5695 84.6568 95.5725C84.6568 95.5725 84.4528 95.5425 84.5728 95.562L84.6313 95.5725C84.7273 95.5875 84.8218 95.6055 84.9163 95.628C85.0828 95.667 85.2568 95.76 85.4218 95.7855C85.4308 95.7855 85.2628 95.7105 85.3288 95.745L85.3783 95.7675C85.4173 95.787 85.4563 95.805 85.4938 95.826C85.5741 95.8683 85.6518 95.9154 85.7263 95.967C85.8283 96.033 85.7263 95.991 85.6903 95.9355C85.7199 95.9657 85.752 95.9933 85.7863 96.018C85.8463 96.0735 85.9048 96.1755 85.9723 96.216C85.9168 96.1815 85.8748 96.0795 85.9438 96.183C85.9678 96.2205 85.9918 96.2565 86.0143 96.2955C86.0368 96.3345 86.0593 96.3735 86.0788 96.414C86.0859 96.4328 86.0944 96.4508 86.1043 96.468C86.1478 96.54 86.0503 96.318 86.0743 96.399C86.0983 96.48 86.1388 96.585 86.1613 96.681C86.1733 96.732 86.1823 96.783 86.1928 96.831C86.2183 96.951 86.1808 96.666 86.1928 96.8415C86.2018 96.9555 86.2048 97.068 86.2078 97.182C86.2108 97.296 86.1463 97.2435 86.2243 97.0815C86.2138 97.1025 86.2168 97.131 86.2078 97.1535C86.1568 97.266 86.3053 96.99 86.2483 97.062C86.2335 97.0818 86.2213 97.1034 86.2123 97.1265C86.1673 97.224 86.3293 97.0035 86.2708 97.0515C86.2518 97.0689 86.2338 97.0874 86.2168 97.107C86.1298 97.2015 86.2468 97.0785 86.2888 97.0575C86.2645 97.0722 86.241 97.0883 86.2183 97.1055C86.1658 97.14 86.1118 97.164 86.0578 97.194C85.9318 97.263 86.2228 97.134 86.1208 97.1685C86.0878 97.179 86.0563 97.1925 86.0233 97.2045C85.9543 97.2285 85.8838 97.2495 85.8118 97.2675C85.6543 97.3095 85.4938 97.3365 85.3318 97.3635C85.1698 97.3905 85.4923 97.3455 85.3633 97.3635L85.2268 97.3785C85.1338 97.389 85.0408 97.3965 84.9463 97.4025C84.5413 97.4325 84.1333 97.437 83.7268 97.431C82.9063 97.4175 82.0873 97.359 81.2683 97.2915L80.7463 97.2465L80.5273 97.2285C80.4937 97.2224 80.4595 97.2198 80.4253 97.221C80.4103 97.221 80.6593 97.272 80.5543 97.236L80.4613 97.2105C80.3188 97.1745 80.6623 97.317 80.5168 97.233C80.4853 97.2135 80.4523 97.197 80.4208 97.176C80.3263 97.1145 80.2933 97.059 80.4463 97.2015C80.295 97.0644 80.1528 96.9176 80.0203 96.762C79.9993 96.735 79.9363 96.6525 80.0203 96.762C80.1043 96.8715 80.0368 96.7845 80.0203 96.762L79.9033 96.597C79.8313 96.4905 79.7533 96.3825 79.6933 96.2715C79.3644 95.7245 79.0707 95.1567 78.8143 94.572C78.7408 94.41 78.6643 94.245 78.5983 94.08C78.5878 94.056 78.5203 93.897 78.5743 94.026C78.6283 94.155 78.5653 94.002 78.5518 93.9705C78.5158 93.8835 78.4798 93.798 78.4453 93.711C78.2953 93.3585 78.1648 93.0045 78.0313 92.6475C77.5153 91.266 77.0608 89.8605 76.6558 88.4475C76.5058 87.909 76.3558 87.369 76.2223 86.8245C76.1758 86.6325 76.1323 86.439 76.0933 86.244C76.0783 86.172 76.0648 86.094 76.0513 86.0265C76.0513 85.998 76.0513 85.971 76.0393 85.9425C76.0228 85.845 76.0693 86.1795 76.0588 86.0925L76.0498 85.95C75.7798 83.733 75.5188 81.5145 75.1753 79.3065C75.034 78.2957 74.8338 77.294 74.5753 76.3065C74.3128 75.363 74.0083 74.4315 73.7188 73.4955C73.3948 72.4455 73.0858 71.379 72.8383 70.3035C72.7078 69.732 72.5923 69.1575 72.4993 68.5785C72.4783 68.4405 72.4573 68.304 72.4378 68.166C72.4378 68.1345 72.4183 68.016 72.4378 68.1735C72.4378 68.142 72.4303 68.109 72.4258 68.0775L72.3943 67.8195C72.3594 67.5195 72.3309 67.2155 72.3088 66.9075C72.2668 66.2925 72.2533 65.676 72.2728 65.061C72.2728 64.9335 72.2818 64.8075 72.2908 64.68C72.2908 64.631 72.2953 64.581 72.3043 64.53C72.3043 64.509 72.3043 64.488 72.3043 64.467C72.3148 64.362 72.3043 64.5225 72.2938 64.5435C72.3283 64.3635 72.3538 64.182 72.4018 64.005C72.4498 63.828 72.5128 63.6855 72.5623 63.5235C72.4933 63.747 72.5218 63.621 72.5488 63.5595C72.5653 63.5235 72.5833 63.489 72.6013 63.453C72.6358 63.384 72.6733 63.315 72.7138 63.249C72.7543 63.183 72.7933 63.12 72.8368 63.057C72.8548 63.03 72.8743 63.0045 72.8923 62.979C72.9538 62.889 72.8308 63.0555 72.8323 63.054C72.8338 63.0525 72.8593 63.021 72.8728 63.0045C72.9661 62.8923 73.0663 62.7861 73.1728 62.6865C73.2253 62.637 73.2793 62.5905 73.3348 62.544L73.4053 62.487C73.2118 62.6535 73.3243 62.55 73.3768 62.5125C73.4929 62.4297 73.6137 62.3535 73.7383 62.2845C73.8628 62.214 73.9948 62.16 74.1223 62.0955C74.1223 62.0955 73.9258 62.1735 74.0278 62.1345L74.0713 62.118L74.1718 62.079C74.2393 62.0535 74.3068 62.0295 74.3758 62.007C74.6517 61.9188 74.9334 61.8501 75.2188 61.8015C75.2893 61.788 75.3613 61.7775 75.4318 61.767C75.5518 61.7475 75.2368 61.791 75.3553 61.7775L75.4783 61.7625C75.6208 61.746 75.7633 61.734 75.9058 61.725C76.4373 61.695 76.9702 61.704 77.5003 61.752C77.6158 61.761 77.7313 61.773 77.8453 61.7865C77.8963 61.7865 77.9458 61.797 77.9953 61.8045L78.0733 61.8135C78.1618 61.8255 77.8363 61.7805 77.9818 61.8015C78.1513 61.827 78.3223 61.8525 78.4918 61.884C78.6418 61.911 78.7828 61.938 78.9268 61.974C79.1188 62.027 79.3239 62.0015 79.4971 61.9031C79.6702 61.8048 79.7973 61.6418 79.8501 61.4498C79.903 61.2578 79.8775 61.0527 79.7793 60.8796C79.6809 60.7064 79.5178 60.5795 79.3258 60.5265L79.3198 60.5295Z" fill="black"/>
<path d="M41.4406 53.6415C41.4406 53.6415 35.4406 53.9205 32.8681 55.1745C30.2956 56.4285 25.5751 59.487 23.5201 64.131C20.6326 70.656 16.9321 72.864 13.887 73.998C10.842 75.132 16.9321 77.043 21.6466 72.0285C26.3611 67.014 25.5271 60.3285 35.0176 58.659C35.0176 58.659 42.3946 54.12 41.4406 53.6415Z" fill="white"/>
<path d="M41.44 52.8915C40.711 52.926 39.9835 52.989 39.2575 53.061C37.7579 53.1927 36.2687 53.4228 34.7995 53.7495C34.0981 53.9071 33.4123 54.1275 32.7505 54.408C32.2186 54.6468 31.7007 54.9157 31.1995 55.2135C29.8483 55.9923 28.5732 56.8963 27.391 57.9135C26.0328 59.0671 24.8472 60.4098 23.8705 61.9005C23.347 62.712 22.963 63.5745 22.5505 64.4505C22.119 65.3683 21.631 66.2584 21.0895 67.116C20.8474 67.497 20.5935 67.8694 20.3275 68.2335L20.134 68.4915C20.023 68.6415 20.2345 68.364 20.122 68.508L20.0245 68.631C19.897 68.7915 19.7665 68.9505 19.633 69.1065C19.1442 69.6816 18.6142 70.2205 18.0475 70.7189C17.917 70.8329 17.7835 70.9455 17.6485 71.055L17.482 71.1884L17.3815 71.2664C17.569 71.1164 17.4085 71.2454 17.368 71.2769C17.1085 71.4704 16.8445 71.6565 16.573 71.8319C16.0701 72.1582 15.547 72.4523 15.007 72.7124C14.8915 72.7694 14.7745 72.8234 14.656 72.8774L14.467 72.9629C14.404 72.99 14.1295 73.0979 14.395 72.9944C14.149 73.0904 13.9045 73.1909 13.657 73.2854C13.1965 73.4639 12.712 73.6904 12.457 74.1404C12.335 74.3621 12.2948 74.6197 12.3433 74.8681C12.3918 75.1165 12.526 75.34 12.7225 75.4994C13.0787 75.7756 13.5044 75.9479 13.9525 75.9974C15.247 76.1894 16.5955 75.9539 17.812 75.4964C19.5541 74.8289 21.1119 73.7551 22.3555 72.3644C23.277 71.3258 24.0799 70.1878 24.7495 68.9715C25.366 67.878 25.909 66.744 26.512 65.643C26.8045 65.106 27.112 64.578 27.4525 64.068C27.622 63.813 27.8065 63.5715 27.9835 63.318L27.937 63.378L28.009 63.288C28.0555 63.228 28.105 63.168 28.159 63.1095C28.2625 62.985 28.3675 62.8635 28.4755 62.7435C28.6815 62.5155 28.8975 62.2969 29.1235 62.088C29.2405 61.98 29.362 61.8735 29.485 61.77C29.5465 61.7175 29.6095 61.6665 29.674 61.62C29.7055 61.5945 29.7385 61.5705 29.77 61.5435C29.593 61.6935 29.7115 61.59 29.749 61.5615C30.3109 61.1406 30.9139 60.7777 31.549 60.4785C31.636 60.438 31.7215 60.3975 31.8085 60.36L31.9405 60.3015C32.098 60.2325 31.78 60.366 31.9405 60.3015C32.1265 60.2265 32.3125 60.1515 32.5 60.087C32.9035 59.937 33.3115 59.817 33.7255 59.7075C34.1755 59.5875 34.639 59.4885 35.101 59.4075C35.236 59.3827 35.365 59.3319 35.4805 59.2575C36.0964 58.8765 36.7084 58.4865 37.3165 58.0875C38.263 57.4695 39.202 56.838 40.1095 56.1645C40.54 55.845 40.969 55.518 41.3725 55.1625C41.6606 54.9286 41.9107 54.6513 42.1135 54.3405C42.376 53.8905 42.3325 53.2605 41.8255 52.9905C41.479 52.8075 40.9945 52.89 40.7995 53.259C40.6045 53.628 40.6975 54.09 41.068 54.285C41.1715 54.339 40.8955 54.135 40.9645 54.201C40.8841 54.1267 40.8268 54.0309 40.7995 53.925C40.822 54.015 40.7755 53.676 40.78 53.775C40.7845 53.874 40.8325 53.5125 40.795 53.646C40.7575 53.7795 40.8985 53.448 40.8445 53.532C40.8325 53.55 40.8235 53.5725 40.8115 53.592C40.7995 53.6115 40.78 53.6385 40.765 53.6625C40.681 53.793 40.9015 53.5005 40.813 53.601C40.5671 53.871 40.3007 54.1218 40.0165 54.351L39.763 54.5565L39.613 54.6705C39.8335 54.4935 39.6265 54.66 39.574 54.7005C39.361 54.8625 39.145 55.02 38.929 55.1775C38.47 55.5064 38.0059 55.828 37.537 56.142C36.7619 56.6659 35.9785 57.1759 35.1865 57.672C35.0125 57.7815 34.834 57.885 34.663 57.999C34.5775 58.056 34.8415 57.954 34.729 57.9525C34.6174 57.9637 34.5068 57.9849 34.399 58.0155C34.2625 58.0425 34.126 58.071 33.991 58.101C33.571 58.194 33.154 58.302 32.743 58.428C31.2541 58.867 29.8609 59.5819 28.636 60.5355C27.6585 61.3336 26.814 62.2819 26.134 63.345C24.7705 65.403 23.884 67.734 22.492 69.7785C22.3105 70.0455 22.1155 70.3005 21.928 70.5615C22.078 70.359 21.898 70.5974 21.8605 70.6439L21.7255 70.8105C21.61 70.95 21.493 71.088 21.373 71.2229C21.078 71.5534 20.7667 71.8688 20.44 72.1679C20.275 72.3179 20.1055 72.4679 19.933 72.6014L19.795 72.7109C19.945 72.5969 19.7845 72.7109 19.7605 72.7349C19.6695 72.8039 19.5765 72.8714 19.4815 72.9374C19.1253 73.1864 18.754 73.4134 18.37 73.6169C18.205 73.7039 18.037 73.7864 17.8675 73.8644L17.731 73.9259C17.5675 73.9979 17.731 73.9259 17.731 73.9259C17.731 73.9259 17.4775 74.0264 17.4625 74.0324C17.1247 74.1614 16.7796 74.2706 16.429 74.3594C16.279 74.3969 16.129 74.4299 15.979 74.4599L15.781 74.4944C15.712 74.5064 15.391 74.5409 15.673 74.5139C15.4015 74.5394 15.133 74.5679 14.86 74.5694C14.734 74.5694 14.608 74.5694 14.4835 74.5574L14.3335 74.5454L14.2495 74.5364C14.0785 74.5184 14.431 74.5664 14.3125 74.5454C14.133 74.5183 13.9563 74.4751 13.7845 74.4164L13.7275 74.3954C13.6285 74.3609 13.9255 74.4914 13.8355 74.4404C13.807 74.4239 13.777 74.4119 13.747 74.3954C13.717 74.3789 13.696 74.3624 13.6705 74.3489C13.564 74.2889 13.846 74.5109 13.729 74.3924C13.612 74.2739 13.834 74.5799 13.7515 74.4239C13.7155 74.3564 13.8355 74.6654 13.801 74.5349C13.7665 74.4044 13.8175 74.7869 13.819 74.6534C13.819 74.6009 13.759 74.9099 13.8055 74.7749C13.843 74.6669 13.711 74.9939 13.759 74.8859C13.7965 74.8019 13.888 74.8004 13.6975 74.9579C13.723 74.9344 13.747 74.9093 13.7695 74.8829C13.882 74.7644 13.6495 74.9639 13.7095 74.9249L13.813 74.8574C13.8983 74.8073 13.9865 74.7623 14.077 74.7224C14.188 74.6699 13.8835 74.7974 14.002 74.7539L14.0725 74.7269L14.239 74.6639C14.362 74.6174 14.485 74.5679 14.608 74.5139C15.7317 74.0698 16.8007 73.498 17.794 72.8099C19.0059 71.9512 20.0923 70.9279 21.022 69.7695C22.2109 68.2729 23.211 66.6355 23.9995 64.8945C24.3675 64.0549 24.8013 63.246 25.297 62.475C25.411 62.304 25.528 62.136 25.648 61.9695C25.714 61.878 25.7815 61.7895 25.849 61.6995C25.8685 61.6725 25.978 61.518 25.867 61.6755C25.9045 61.6215 25.948 61.572 25.9885 61.5255C26.2585 61.1884 26.5405 60.861 26.8345 60.543C27.4039 59.9293 28.0099 59.3508 28.6495 58.8105C28.7995 58.689 28.9405 58.569 29.0875 58.452L29.326 58.263C29.4295 58.182 29.308 58.275 29.2945 58.2885C29.3452 58.245 29.3983 58.2045 29.4535 58.167C29.7625 57.933 30.0775 57.708 30.397 57.489C30.949 57.114 31.5154 56.761 32.0965 56.43C32.3554 56.281 32.6179 56.1385 32.884 56.0025C32.995 55.947 33.1045 55.89 33.2155 55.836L33.406 55.7475L33.4885 55.71C33.535 55.689 33.2995 55.788 33.4645 55.7205C34.7575 55.2 36.1645 54.9615 37.543 54.765L37.795 54.729C37.8475 54.7215 37.969 54.7095 37.756 54.729L37.891 54.711C38.068 54.687 38.245 54.666 38.422 54.645C38.752 54.606 39.082 54.571 39.412 54.54C39.9059 54.492 40.3994 54.4515 40.8925 54.4185C41.074 54.4065 41.257 54.3945 41.4385 54.3855C41.83 54.3675 42.2065 54.054 42.1885 53.6355C42.172 53.25 41.86 52.872 41.44 52.8915Z" fill="black"/>
<path d="M23.0516 82.2675C23.1921 81.7863 23.4338 81.3406 23.7602 80.9601C24.0866 80.5795 24.4904 80.2731 24.9446 80.061C29.1731 77.976 30.9941 75.036 31.3166 66.657C31.6736 57.345 39.5531 51.855 45.4016 51.3765C49.8191 51.0165 51.1961 52.7865 56.7866 53.454C58.6001 53.67 65.0006 52.4655 67.2716 51.0915C69.7721 49.5795 72.3146 47.613 74.0726 45.7665C74.2443 45.4802 74.4363 45.2064 74.6471 44.9475C74.6471 44.9475 78.5621 39.258 81.7136 35.0565C84.8651 30.855 84.6071 29.1555 92.9786 30.387C92.9786 30.387 95.8181 31.5525 96.1136 32.241C96.4091 32.9295 97.0001 34.014 98.5751 34.341C100.15 34.668 104.83 35.5635 104.83 36.432C104.83 37.3005 104.518 42.0885 94.9301 42.0225C94.9301 42.0225 92.3696 41.235 91.3856 42.285C90.9836 42.714 89.8571 44.4555 88.5356 46.584C86.7855 49.3766 85.7001 52.5338 85.3631 55.812V55.872C84.7256 62.6355 82.4186 65.82 77.4836 69.4005C72.5486 72.981 74.3651 73.062 61.3136 70.356C48.2621 67.65 44.6021 69.2415 44.6021 69.2415C37.9166 83.5665 29.8661 81.3915 28.5146 83.1705C27.1631 84.9495 24.2171 91.668 24.2171 93.1005C24.2171 94.533 25.2356 94.65 25.2356 94.65C26.7086 94.698 27.3356 95.205 27.5516 95.793C27.8936 96.7065 27.1856 97.6845 26.2121 97.761C24.4286 97.911 21.5276 98.139 20.5796 97.0965C19.6316 96.054 22.0166 86.058 23.0516 82.2675Z" fill="white"/>
<path d="M23.7746 82.467C23.9696 81.8091 24.4036 81.2478 24.9911 80.8935C25.4216 80.6265 25.8911 80.4255 26.3306 80.1675C27.1331 79.7041 27.8728 79.1395 28.5311 78.4875C29.9636 77.046 30.8036 75.162 31.2821 73.2105C31.5929 71.8807 31.8026 70.5294 31.9091 69.168C32.0456 67.6575 32.0111 66.126 32.2766 64.629C32.7206 62.0797 33.8183 59.6893 35.4626 57.6915C38.3276 54.2415 42.7301 51.855 47.1821 52.0965C49.5086 52.2225 51.7151 53.238 53.9861 53.739C55.2011 54.0075 56.4776 54.2775 57.7286 54.2175C58.8581 54.1483 59.9818 54.003 61.0916 53.7825C63.3656 53.364 65.8481 52.845 67.8416 51.621C69.3823 50.6749 70.8548 49.6224 72.2486 48.471C72.8981 47.934 73.5281 47.373 74.1281 46.782C74.5625 46.3251 74.957 45.8317 75.3071 45.3075C76.4141 43.776 77.4671 42.204 78.5621 40.6575C80.1641 38.4075 81.8501 36.2055 83.4326 33.936C83.6726 33.591 83.9126 33.243 84.1616 32.904L84.3206 32.6925C84.4076 32.5785 84.3386 32.6685 84.3206 32.6925L84.4196 32.5695C84.5351 32.4285 84.6521 32.289 84.7751 32.154C84.8981 32.019 85.0031 31.9155 85.1231 31.8045C85.1786 31.752 85.2371 31.704 85.2941 31.6545C85.4531 31.515 85.2341 31.6845 85.4081 31.5645C85.5401 31.473 85.6736 31.3845 85.8146 31.305C85.8821 31.2675 85.9496 31.2315 86.0186 31.197L86.1521 31.1355C86.2826 31.0755 86.0801 31.1625 86.1671 31.1355C87.0326 30.8055 87.6866 30.7575 88.5971 30.753C89.9786 30.744 91.3346 30.945 92.7011 31.107C92.7401 31.1185 92.7797 31.128 92.8196 31.1355C92.8841 31.1355 92.6291 31.053 92.8016 31.128C92.9741 31.203 93.1481 31.278 93.3206 31.359C93.7886 31.5735 94.2521 31.8 94.6976 32.0565C94.9063 32.17 95.1067 32.2978 95.2976 32.439C95.2091 32.3715 95.3711 32.511 95.4041 32.5395C95.432 32.5651 95.4581 32.5927 95.4821 32.622C95.3606 32.472 95.4521 32.58 95.4671 32.622C95.6491 33.094 95.9228 33.5254 96.2726 33.891C97.1081 34.818 98.2556 35.0385 99.4226 35.2815C100.542 35.5155 101.664 35.7615 102.757 36.099C103.172 36.2125 103.574 36.3678 103.957 36.5625C104.026 36.6 104.091 36.6435 104.157 36.684C104.293 36.771 104.092 36.6 104.14 36.6735C104.155 36.6975 104.226 36.777 104.154 36.6735C104.082 36.57 104.142 36.6495 104.154 36.6735C104.166 36.6975 104.061 36.465 104.089 36.4335C104.089 36.4425 104.089 36.489 104.089 36.501C104.074 36.6255 104.065 36.7506 104.064 36.876C104.053 37.041 104.104 36.681 104.064 36.8265C104.055 36.8655 104.052 36.906 104.044 36.945C104.025 37.047 104.004 37.1475 103.978 37.245C103.924 37.4548 103.855 37.6608 103.773 37.8615C103.869 37.6215 103.71 37.986 103.674 38.055C103.603 38.1855 103.524 38.3145 103.446 38.439C103.41 38.4945 103.371 38.5485 103.333 38.6025C103.23 38.7525 103.368 38.5695 103.296 38.6565C103.191 38.784 103.083 38.9085 102.969 39.0255C102.855 39.1425 102.729 39.261 102.601 39.369C102.57 39.396 102.361 39.564 102.484 39.4695C102.397 39.5355 102.307 39.6 102.216 39.6615C100.362 40.92 97.9286 41.2215 95.6681 41.2665C95.4761 41.2665 95.2766 41.2845 95.0846 41.2665C95.1296 41.2665 95.1431 41.2875 95.0846 41.2785C94.9511 41.2575 94.8176 41.208 94.6841 41.178C94.1513 41.0541 93.6067 40.9882 93.0596 40.9815C92.4652 40.9657 91.8766 41.1019 91.3496 41.3775C90.8996 41.6295 90.6161 42.0375 90.3251 42.444C89.4251 43.6965 88.6211 45.0195 87.8216 46.3335C85.9909 49.3044 84.8851 52.6645 84.5936 56.142C84.4642 57.513 84.2071 58.8688 83.8256 60.192C83.1724 62.3902 81.9839 64.392 80.3666 66.018C78.8921 67.518 77.1656 68.703 75.4976 69.966C75.0605 70.3099 74.6054 70.6303 74.1341 70.926C73.9337 71.0433 73.7275 71.1505 73.5161 71.247C73.7171 71.1525 73.4546 71.2695 73.3526 71.304C73.2506 71.3385 73.1291 71.373 73.0151 71.4C72.9011 71.427 72.8051 71.442 72.6986 71.4645C72.4916 71.5065 72.8411 71.457 72.6686 71.4645C72.5966 71.4645 72.5186 71.4795 72.4511 71.484C72.1666 71.503 71.8811 71.5054 71.5961 71.4915C71.2511 71.4765 70.9076 71.4405 70.5641 71.4L70.4321 71.3835C70.3151 71.3685 70.5491 71.4 70.4321 71.3835L70.1141 71.337C69.8846 71.3025 69.6551 71.265 69.4271 71.226C66.6146 70.7475 63.8306 70.098 61.0346 69.531C58.0193 68.8957 54.9689 68.4399 51.8996 68.166C50.1944 68.0026 48.4786 67.9806 46.7696 68.1C46.0346 68.1615 45.2621 68.235 44.5571 68.4645C44.5121 68.478 44.4686 68.493 44.4251 68.5095C43.9511 68.6865 43.8251 69.156 43.6151 69.5805C42.8996 71.062 42.0812 72.4915 41.1656 73.8585C39.8681 75.7725 38.2466 77.6085 36.4136 78.93C35.7004 79.444 34.9441 79.8958 34.1531 80.28C33.9821 80.3625 33.8096 80.4405 33.6356 80.5185L33.5171 80.571C33.3986 80.6205 33.6791 80.5035 33.4886 80.5815L33.2261 80.688C32.9036 80.814 32.5766 80.9295 32.2481 81.0345C31.2536 81.357 30.2111 81.537 29.2271 81.888C28.8097 82.0161 28.4242 82.2313 28.0961 82.5195C27.5696 83.0235 27.2111 83.796 26.8706 84.429C25.7669 86.4831 24.8212 88.6183 24.0416 90.816C23.7881 91.53 23.5001 92.301 23.4716 93.066C23.4341 94.0605 23.9786 95.1375 25.0106 95.37C25.5551 95.493 26.1146 95.412 26.5931 95.7345C26.6924 95.7972 26.7721 95.8866 26.8226 95.9925C26.8811 96.1275 26.8376 96.0195 26.8226 95.9925C26.8516 96.0634 26.8721 96.1374 26.8841 96.213C26.8931 96.3325 26.8709 96.4525 26.8196 96.561C26.5736 97.0785 25.9586 97.035 25.4696 97.068C24.8081 97.116 24.1436 97.1505 23.4806 97.1385C22.8607 97.1512 22.2422 97.0708 21.6461 96.9C21.4984 96.8422 21.3563 96.771 21.2216 96.687C21.2096 96.687 21.1316 96.582 21.1106 96.579C21.1436 96.579 21.2336 96.747 21.1841 96.672C21.0821 96.522 21.1961 96.768 21.1841 96.6945C21.1729 96.6438 21.1588 96.5937 21.1421 96.5445C21.1421 96.5175 21.1091 96.3225 21.1256 96.4635C21.1421 96.6045 21.1256 96.369 21.1181 96.3315C21.1181 96.2445 21.1181 96.156 21.1091 96.069C21.1079 95.6998 21.1255 95.3308 21.1616 94.9635C21.3491 92.8455 21.8321 90.6135 22.3061 88.4595C22.7486 86.4555 23.2301 84.4575 23.7701 82.4775C24.0251 81.5445 22.5776 81.147 22.3241 82.0785C21.7241 84.279 21.1931 86.502 20.7146 88.731C20.2361 90.96 19.7276 93.2625 19.6196 95.553C19.5911 96.1665 19.5551 96.927 19.9061 97.4625C20.6306 98.574 22.4366 98.643 23.6081 98.6535C24.3041 98.6535 25.0016 98.619 25.6961 98.5665C26.4956 98.5065 27.2366 98.397 27.7961 97.764C28.0234 97.5106 28.1885 97.2079 28.2784 96.8797C28.3684 96.5515 28.3807 96.207 28.3142 95.8732C28.2479 95.5395 28.1047 95.2257 27.896 94.9569C27.6874 94.6881 27.419 94.4716 27.1121 94.3245C26.7962 94.1706 26.4598 94.063 26.1131 94.005C25.9166 93.972 25.7171 93.948 25.5131 93.9315C25.4936 93.9315 25.0316 93.873 25.3151 93.9315C25.5611 93.978 25.3946 93.9315 25.3766 93.9315C25.3586 93.9315 25.2551 93.8955 25.2266 93.885C25.3916 93.942 25.2641 93.9045 25.1876 93.8475C25.3721 93.9855 25.0376 93.678 25.1321 93.7935C25.0601 93.708 25.0133 93.604 24.9971 93.4935C24.9583 93.307 24.9491 93.1158 24.9701 92.9265C24.9581 93.0945 24.9581 92.9985 24.9806 92.8965C25.0031 92.7945 25.0226 92.697 25.0466 92.5965C25.1561 92.16 25.2971 91.7295 25.4471 91.305C26.2292 89.0649 27.2027 86.8963 28.3571 84.8235C28.5746 84.4335 28.8071 84.057 29.0576 83.688C29.1746 83.514 28.9826 83.778 29.1356 83.598C29.2886 83.418 28.9856 83.664 29.1851 83.5545C29.2556 83.5155 29.3246 83.4735 29.3966 83.4345C29.4341 83.4135 29.4761 83.4 29.5151 83.379C29.3966 83.442 29.3921 83.424 29.5151 83.379C29.7131 83.31 29.9126 83.244 30.1151 83.187C31.3271 82.842 32.5481 82.5675 33.7151 82.098C38.3396 80.247 41.6246 76.3665 43.9826 72.0885C44.4326 71.2845 44.8376 70.4625 45.2276 69.63L44.9591 69.9C44.6711 70.0245 44.8091 69.9585 44.9351 69.921C45.0851 69.876 45.2441 69.8355 45.4001 69.801C45.5261 69.774 45.6521 69.75 45.7781 69.729L45.9791 69.696L46.1051 69.678C46.2641 69.6525 45.9551 69.6945 46.0781 69.678C46.5026 69.6315 46.9241 69.5895 47.3501 69.567C50.7131 69.39 54.1166 69.8325 57.4256 70.3935C61.6451 71.1075 65.7956 72.2595 70.0361 72.843C71.0591 72.984 72.0851 73.0875 73.1096 72.9075C73.849 72.7596 74.5499 72.4615 75.1691 72.0315C75.9986 71.481 76.7711 70.842 77.5691 70.2525C79.0961 69.129 80.6051 67.9755 81.8846 66.567C83.0954 65.2371 84.0604 63.7027 84.7346 62.0355C85.5206 60.0975 85.8761 58.0185 86.0846 55.947C86.3375 53.4084 87.0604 50.9388 88.2161 48.6645C88.8266 47.4645 89.5661 46.3215 90.2831 45.1845C90.5831 44.721 90.8831 44.259 91.1831 43.8015C91.3016 43.626 91.4201 43.4505 91.5431 43.2765L91.6856 43.0785C91.7066 43.05 91.7276 43.02 91.7501 42.9915C91.8251 42.8895 91.6481 43.113 91.7681 42.9675C92.1761 42.474 92.8061 42.459 93.5036 42.5175C93.9776 42.558 94.5731 42.7815 95.1296 42.7815C97.1411 42.7815 99.2411 42.5955 101.13 41.874C103.116 41.124 104.952 39.6765 105.426 37.506C105.595 36.7245 105.669 35.9655 104.94 35.439C104.385 35.0385 103.675 34.8255 103.026 34.6305C102.181 34.374 101.319 34.173 100.456 33.984C99.7181 33.822 98.8856 33.7485 98.1836 33.4635C97.4816 33.1785 97.0856 32.6265 96.7691 31.9635C96.4526 31.3005 95.7536 30.9345 95.1491 30.6135C94.5446 30.2925 93.9491 30.0135 93.3296 29.754C92.9606 29.604 92.5421 29.5905 92.1476 29.538C91.5881 29.4645 91.0286 29.3985 90.4661 29.349C89.5888 29.2585 88.7056 29.2369 87.8246 29.2845C86.5286 29.3745 85.3136 29.709 84.2921 30.5355C83.3786 31.2735 82.7276 32.3055 82.0631 33.258C80.9111 34.908 79.6811 36.51 78.5021 38.1465C77.3021 39.8104 76.1186 41.4835 74.9516 43.1655C74.2016 44.2425 73.6331 45.174 72.6896 46.068C71.7401 46.9647 70.7351 47.8008 69.6806 48.5715C68.7071 49.3176 67.6826 49.9948 66.6146 50.598C65.1551 51.3795 63.3461 51.798 61.6811 52.1475C60.1661 52.47 58.5971 52.8015 57.0416 52.7385C56.0021 52.6965 54.9416 52.449 53.9291 52.209C53.0051 51.9885 52.0976 51.7095 51.1901 51.432C49.4846 50.9085 47.7776 50.532 45.9821 50.6025C44.354 50.6721 42.7507 51.0249 41.2436 51.645C37.8044 53.0388 34.8952 55.4863 32.9336 58.6365C31.8689 60.3886 31.148 62.3278 30.8096 64.35C30.4331 66.576 30.5336 68.85 30.1796 71.0835C29.9231 72.6945 29.5256 74.316 28.7591 75.6975C28.46 76.2586 28.0873 76.7772 27.6506 77.2395C27.2267 77.6973 26.7517 78.105 26.2346 78.4545C25.658 78.8248 25.0622 79.1643 24.4496 79.4715C23.9408 79.7413 23.4908 80.1099 23.1262 80.5558C22.7614 81.0016 22.4893 81.5157 22.3256 82.068C22.0496 82.9965 23.5016 83.4 23.7746 82.467Z" fill="black"/>
<g opacity="0.18">
<path opacity="0.18" d="M24.4307 85.05C24.5713 84.5688 24.8128 84.1232 25.1393 83.7426C25.4657 83.3622 25.8695 83.0556 26.3237 82.8435C30.5537 80.7585 32.3732 77.82 32.6957 69.4395C33.0527 60.1275 40.9322 54.6375 46.7807 54.159C51.1982 53.799 52.5752 55.569 58.1657 56.2365C59.9807 56.4525 66.3797 55.248 68.6507 53.874C71.1512 52.35 73.6937 50.3895 75.4502 48.5445C75.6218 48.2577 75.8138 47.9835 76.0247 47.724C76.0247 47.724 79.9502 42.0345 83.1002 37.833C83.1002 37.833 83.8637 42.2655 84.2327 42.5745C85.1897 43.3785 87.6677 43.638 87.9092 43.302C88.1072 43.029 83.8352 39.684 85.8407 34.8765C86.7992 32.5785 88.5407 32.307 94.3637 33.1635C94.3637 33.1635 96.9692 34.1085 97.6367 34.647C98.2202 35.118 99.8867 34.8465 101.466 35.175C102.366 35.3625 102.768 37.6785 104.241 38.124C104.625 37.4708 104.831 36.7289 104.841 35.9715C104.841 35.103 100.163 34.209 98.5862 33.8805C97.0097 33.552 96.4202 32.469 96.1247 31.7805C95.8292 31.092 92.9897 29.9265 92.9897 29.9265C84.6182 28.695 84.8762 30.3945 81.7247 34.596C78.5732 38.7975 74.6582 44.487 74.6582 44.487C74.4473 44.7464 74.2553 45.0207 74.0837 45.3075C72.3257 47.1525 69.7832 49.119 67.2827 50.631C65.0117 52.005 58.6112 53.2095 56.7977 52.9935C51.2072 52.326 49.8302 50.556 45.4127 50.916C39.5627 51.3945 31.6847 56.8845 31.3277 66.1965C31.0052 74.577 29.1842 77.5155 24.9557 79.6005C24.5015 79.8126 24.0977 80.1192 23.7713 80.4996C23.4448 80.8802 23.2033 81.3258 23.0627 81.807C22.0277 85.5975 19.6472 95.607 20.5907 96.6405C20.8697 96.9405 21.3167 97.1415 21.8522 97.2615C22.2347 93.759 23.6837 87.7815 24.4307 85.05Z" fill="black"/>
<path opacity="0.18" d="M26.2606 97.2975C27.2086 97.1925 27.8881 96.234 27.5521 95.3355C27.3736 94.8585 26.9296 94.4355 25.9816 94.266C25.7446 94.9875 25.6006 95.5635 25.6006 95.8785C25.6006 96.741 25.9681 97.1265 26.2606 97.2975Z" fill="black"/>
</g>
<path d="M89.0145 29.25C86.9145 29.43 84.825 30.3675 83.376 31.92C82.7786 32.5643 82.3458 33.3433 82.1145 34.191C81.8604 35.1195 81.7333 36.0783 81.7365 37.041C81.7312 37.9848 81.8466 38.9255 82.08 39.84C82.3185 40.779 82.6095 41.7285 83.079 42.5805C83.4855 43.3185 84.06 44.007 84.822 44.394C85.2909 44.6458 85.8111 44.7867 86.3429 44.806C86.8748 44.8252 87.4038 44.7222 87.8895 44.505C89.424 43.7895 89.8951 41.967 89.9296 40.4205C89.9296 40.143 89.9295 39.864 89.9145 39.5865C89.8935 39.195 89.583 38.817 89.1645 38.8365C88.7745 38.8545 88.392 39.1665 88.4145 39.5865C88.4454 40.0864 88.4364 40.588 88.3875 41.0865V41.139C88.377 41.2245 88.38 41.2095 88.3875 41.0955C88.3866 41.1289 88.3815 41.1622 88.3725 41.1945C88.3575 41.2905 88.341 41.385 88.32 41.4795C88.2846 41.6496 88.239 41.8174 88.1835 41.982C88.1595 42.057 88.1265 42.132 88.1025 42.2025C88.1835 41.9625 88.1145 42.1695 88.0875 42.225C88.0283 42.3466 87.9611 42.4644 87.8865 42.5775C87.843 42.642 87.6915 42.7965 87.876 42.6015C87.8355 42.6435 87.801 42.693 87.762 42.738C87.6876 42.8205 87.6084 42.8987 87.525 42.972L87.4815 43.0095C87.417 43.062 87.4245 43.0575 87.501 42.9945C87.4722 43.0171 87.4422 43.0381 87.411 43.0575C87.3525 43.095 87.201 43.218 87.1305 43.2075L87.213 43.1745C87.18 43.1865 87.1485 43.2 87.1155 43.2105C87.0825 43.221 87.0165 43.2435 86.9655 43.2585L86.8665 43.284L86.7645 43.3035C86.682 43.3185 86.697 43.317 86.811 43.3035C86.7765 43.3425 86.556 43.3215 86.511 43.3215C86.424 43.3215 86.34 43.314 86.2545 43.308C86.076 43.2945 86.4255 43.344 86.2545 43.308C86.2035 43.2975 86.154 43.29 86.1045 43.278C85.9965 43.2534 85.8899 43.2229 85.785 43.1865C85.758 43.176 85.6815 43.1625 85.665 43.1415L85.7505 43.1775L85.6575 43.1355C85.566 43.092 85.4775 43.044 85.3905 42.9855C85.3035 42.927 85.251 42.894 85.1835 42.846C85.0335 42.7485 85.305 42.9585 85.1835 42.846C85.137 42.8025 85.086 42.7605 85.0335 42.7155C84.9248 42.6057 84.8222 42.49 84.726 42.369C84.6285 42.2505 84.831 42.519 84.7425 42.39L84.669 42.288C84.6195 42.2175 84.573 42.1455 84.528 42.0735C84.441 41.934 84.3615 41.79 84.2865 41.643C84.243 41.5575 84.2025 41.472 84.1635 41.3865C84.1371 41.3447 84.1169 41.2992 84.1035 41.2515C84.1466 41.3516 84.1526 41.365 84.1215 41.292L84.0915 41.22C83.9294 40.804 83.7887 40.38 83.67 39.9495C83.5433 39.517 83.4387 39.0786 83.3565 38.6355C83.3475 38.586 83.34 38.5365 83.3325 38.4855V38.436C83.3205 38.3535 83.322 38.3685 83.3325 38.484C83.3123 38.3995 83.3028 38.3128 83.304 38.226C83.28 37.9965 83.2635 37.7655 83.256 37.5345C83.2409 37.1119 83.2488 36.6888 83.28 36.267C83.295 36.0675 83.307 35.862 83.3415 35.667C83.3055 35.8755 83.3415 35.6895 83.3415 35.6505C83.3415 35.6115 83.358 35.544 83.367 35.49C83.385 35.385 83.4045 35.28 83.4255 35.175C83.5086 34.7803 83.6219 34.3928 83.7645 34.0155C83.7855 33.957 83.826 33.9375 83.742 34.0635C83.7641 34.023 83.7831 33.9808 83.799 33.9375C83.8365 33.855 83.877 33.7755 83.919 33.696C84 33.546 84.1095 33.417 84.192 33.2715C84.096 33.4395 84.1605 33.3135 84.192 33.2715C84.2235 33.2295 84.255 33.195 84.288 33.1575C84.366 33.069 84.4455 32.9805 84.5295 32.895C84.6906 32.73 84.8595 32.5725 85.0365 32.4225L85.164 32.3175L85.251 32.2485C85.173 32.3085 85.167 32.313 85.233 32.2635C85.3245 32.196 85.416 32.1285 85.5105 32.064C85.719 31.914 85.935 31.7865 86.1555 31.6635C86.376 31.5405 86.619 31.4235 86.856 31.3125C87.042 31.227 86.706 31.368 86.901 31.293L87.1305 31.203C87.2475 31.1595 87.3645 31.119 87.483 31.0815C87.7418 30.9975 88.0046 30.9269 88.2705 30.87C88.4205 30.84 88.5615 30.8145 88.7085 30.7905C88.9185 30.7545 88.5495 30.804 88.7625 30.783L89.0175 30.7575C89.4075 30.7245 89.787 30.4365 89.7675 30.0075C89.751 29.6295 89.436 29.2215 89.0175 29.2575L89.0145 29.25Z" fill="black"/>
<path d="M59.6763 85.3185C59.6763 91.2285 64.3473 92.838 66.8853 93.2685C67.0787 93.3026 67.277 93.2973 67.4684 93.2529C67.6596 93.2084 67.8399 93.1259 67.9986 93.0099C68.1572 92.8941 68.2907 92.7474 68.3912 92.5787C68.4917 92.4099 68.5571 92.2226 68.5833 92.028C69.3513 86.028 74.5533 77.028 76.6053 74.982C77.4795 74.0061 78.5901 73.2716 79.8303 72.849C79.9692 72.8132 80.0945 72.7371 80.1903 72.6305C80.2862 72.5237 80.3483 72.3909 80.3688 72.249L80.7453 69.6135C79.6308 69.105 78.8193 68.0205 78.8193 66.1305C78.8193 61.704 81.0333 57.2805 83.9838 57.2805C86.1368 57.4017 88.2662 57.7907 90.3228 58.4385C90.989 58.6344 91.5644 59.0594 91.9473 59.6385L93.6813 62.2365C94.0892 62.8487 94.7099 63.2874 95.4228 63.468L97.2393 63.918V63.807H100.319L100.152 66.873C100.034 67.8798 99.63 68.8317 98.9882 69.6164C98.3463 70.401 97.4933 70.9856 96.5298 71.301C94.2585 71.3232 92.0057 71.7113 89.8578 72.45C89.7654 72.4848 89.6813 72.5382 89.6105 72.6071C89.5397 72.6759 89.4839 72.7586 89.4467 72.8501C89.4093 72.9414 89.3912 73.0395 89.3936 73.1382C89.396 73.2369 89.4186 73.334 89.4603 73.4235C90.7002 75.7178 91.3691 78.2769 91.4103 80.8845C91.3529 83.6205 90.3039 86.2425 88.4583 88.263V97.113C88.4583 97.113 91.3653 97.851 91.3653 100.065H70.7448C69.2703 100.065 67.7943 98.9955 67.7943 98.589C61.1523 98.589 58.1943 94.161 58.1943 91.209C58.2888 89.166 58.7928 87.1629 59.6763 85.3185Z" fill="white"/>
<path d="M57.4262 85.3185C57.4337 88.0035 58.3262 90.6945 60.3107 92.568C61.7522 93.927 63.5987 94.8285 65.5187 95.286C65.6957 95.328 65.8727 95.3655 66.0527 95.4L66.3227 95.448C66.8674 95.5556 67.4279 95.5556 67.9727 95.448C68.3443 95.3736 68.6998 95.234 69.0227 95.0355C69.3341 94.8558 69.6151 94.6281 69.8552 94.3605C70.2038 93.9648 70.4746 93.5067 70.6532 93.0105C70.762 92.6613 70.8286 92.3001 70.8512 91.935L70.7702 92.535C71.0852 90.2325 71.8802 88.0005 72.7772 85.8675L72.5462 86.4C73.7003 83.6441 75.1025 80.9987 76.7357 78.4965C77.0717 77.9865 77.4197 77.4855 77.7857 76.9965L77.4332 77.4465C77.9479 76.7645 78.5455 76.1493 79.2122 75.615L78.7622 75.9675C79.2797 75.5723 79.8439 75.2423 80.4422 74.985L79.9052 75.2115C80.0777 75.1395 80.2517 75.0735 80.4272 75.012C80.8883 74.8664 81.3142 74.6268 81.6782 74.3085C82.1138 73.9173 82.415 73.3988 82.5392 72.8265C82.5827 72.576 82.6112 72.321 82.6472 72.0765L82.9142 70.2075L82.9952 69.6075C83.008 69.3069 82.9406 69.0081 82.8002 68.742C82.6262 68.3265 82.3037 67.863 81.8807 67.665C81.6497 67.5587 81.4315 67.4268 81.2297 67.272L81.6797 67.623C81.4895 67.4706 81.317 67.2975 81.1652 67.107L81.5177 67.557C81.3484 67.3356 81.2069 67.0943 81.0962 66.8385L81.3227 67.377C81.179 67.026 81.0812 66.6581 81.0317 66.282L81.1127 66.882C81.0271 66.0168 81.0529 65.1443 81.1892 64.2855L81.1082 64.8855C81.2578 63.7635 81.5512 62.6655 81.9812 61.6185L81.7547 62.157C82.0478 61.4474 82.4294 60.7776 82.8902 60.1635L82.5392 60.6135C82.8317 60.2318 83.1709 59.8881 83.5487 59.5905L83.0987 59.943C83.3575 59.7455 83.6389 59.5799 83.9372 59.4495L83.4002 59.6895C83.6594 59.5824 83.9311 59.5083 84.2087 59.469L83.6087 59.55C83.951 59.5218 84.2953 59.5289 84.6362 59.571C85.0712 59.607 85.5047 59.6535 85.9367 59.7105L85.3367 59.6295C86.1482 59.739 86.9522 59.883 87.7487 60.0675C88.5271 60.2228 89.2921 60.4394 90.0362 60.7155L89.4992 60.489C89.7419 60.5943 89.9707 60.7295 90.1802 60.891L89.7302 60.54C89.9197 60.6923 90.0908 60.8658 90.2402 61.0575L89.8892 60.6075C90.4442 61.3485 90.9272 62.1525 91.4417 62.922C91.7927 63.4485 92.1347 64.0035 92.6147 64.422C93.215 64.9616 93.9254 65.3645 94.6967 65.6025C94.8602 65.652 95.0267 65.688 95.1902 65.73L96.6422 66.093C98.0552 66.4455 99.4922 65.412 99.4922 63.9225V63.8115L97.2422 66.0615H100.322L98.0717 63.8115L97.9877 65.3655C97.9592 65.8875 97.9622 66.4155 97.8977 66.939L97.9787 66.339C97.9133 66.8229 97.7843 67.296 97.5947 67.746L97.8212 67.2075C97.6387 67.6292 97.4038 68.0264 97.1222 68.3895L97.4747 67.9395C97.2022 68.2835 96.8906 68.5946 96.5462 68.8665L96.9962 68.514C96.6274 68.7972 96.2242 69.0326 95.7962 69.2145L96.3332 68.988C96.1997 69.0435 96.0647 69.093 95.9282 69.138L96.5282 69.057C94.9903 69.0782 93.4576 69.2429 91.9502 69.549C91.2752 69.687 90.6086 69.857 89.9507 70.059C89.7956 70.107 89.6413 70.157 89.4872 70.209C89.1731 70.296 88.871 70.421 88.5872 70.581C88.1396 70.8491 87.7709 71.2307 87.5186 71.6873C87.2662 72.1437 87.1391 72.659 87.1502 73.1805C87.1541 73.4564 87.1976 73.7301 87.2792 73.9935C87.4036 74.3178 87.5494 74.6336 87.7157 74.9385C87.8818 75.2685 88.0376 75.6035 88.1837 75.9435L87.9557 75.4065C88.5193 76.7421 88.904 78.1463 89.1002 79.5825L89.0192 78.9825C89.1728 80.0321 89.188 81.0971 89.0642 82.1505L89.1437 81.5505C89.0059 82.5473 88.7392 83.522 88.3502 84.45L88.5767 83.9115C88.1936 84.8133 87.6971 85.6628 87.0992 86.439L87.4517 85.989C87.3362 86.139 87.2177 86.289 87.0947 86.4255L86.9327 86.6115C86.8427 86.712 86.7707 86.8065 86.6852 86.9115C86.3813 87.3015 86.212 87.7793 86.2022 88.2735C86.2022 88.296 86.2022 88.32 86.2022 88.3425C86.2022 88.509 86.2022 88.6755 86.2022 88.842V97.125C86.2082 97.6157 86.3719 98.0915 86.6689 98.4821C86.966 98.8727 87.3809 99.1574 87.8522 99.294C88.0798 99.3558 88.3024 99.4346 88.5182 99.5295L87.9857 99.3C88.3792 99.465 88.7509 99.6776 89.0927 99.933L88.6427 99.5805C88.8686 99.7557 89.0731 99.9572 89.2517 100.181L88.8992 99.7305C89.0344 99.9048 89.1481 100.095 89.2382 100.296L89.0057 99.75C89.0903 99.9504 89.1473 100.161 89.1752 100.377L89.0957 99.777C89.1062 99.8775 89.1122 99.9765 89.1137 100.077L91.3637 97.827H73.1537C72.3557 97.827 71.5577 97.827 70.7612 97.827C70.6178 97.8255 70.4746 97.8165 70.3322 97.8L70.9322 97.881C70.5514 97.8293 70.1788 97.7283 69.8237 97.581L70.3607 97.8075C70.0174 97.6622 69.6934 97.4747 69.3962 97.2495L69.8462 97.6005C69.7213 97.5051 69.6071 97.3965 69.5057 97.2765L69.8582 97.7265C69.8206 97.68 69.7879 97.6298 69.7607 97.5765L69.9887 98.1135C69.9764 98.0858 69.9679 98.0565 69.9632 98.0265L70.0427 98.6265V98.607C70.0112 98.037 69.8192 97.416 69.3827 97.0155C68.9552 96.6027 68.3869 96.3674 67.7927 96.357C67.1843 96.3566 66.5765 96.317 65.9732 96.2385L66.5732 96.3195C65.6153 96.1907 64.678 95.9387 63.7847 95.5695L64.3217 95.796C63.5822 95.4872 62.8859 95.0838 62.2502 94.596L62.7002 94.947C62.1481 94.5179 61.6517 94.0217 61.2227 93.4695L61.5752 93.9195C61.1914 93.4227 60.8719 92.8794 60.6242 92.3025L60.8507 92.8395C60.6362 92.3384 60.4879 91.8114 60.4097 91.272L60.4892 91.872C60.3992 91.191 60.4787 90.504 60.5702 89.8275L60.4892 90.4275C60.6766 89.0942 61.036 87.7908 61.5587 86.55L61.3322 87.087C61.4242 86.8721 61.5197 86.6595 61.6187 86.4495C61.8827 85.893 62.0147 85.3275 61.8452 84.7155C61.6867 84.1496 61.3166 83.6663 60.8117 83.3655C60.2897 83.0895 59.6567 82.9515 59.0777 83.139C58.5482 83.3115 57.9812 83.6505 57.7277 84.1725C56.743 86.1539 56.153 88.3079 55.9907 90.5145C55.8793 91.6602 56.0375 92.816 56.4527 93.8895C56.6839 94.509 56.9753 95.1044 57.3227 95.667C57.7004 96.2571 58.1339 96.8097 58.6172 97.317C59.5568 98.2938 60.6778 99.0785 61.9172 99.627C62.7748 100.019 63.6719 100.319 64.5932 100.52C65.6488 100.735 66.7229 100.846 67.8002 100.851L65.5502 98.601C65.5856 99.3731 65.9248 100.1 66.4937 100.623C66.8689 100.978 67.2902 101.281 67.7462 101.523C68.672 102.028 69.7054 102.304 70.7597 102.329C71.0192 102.329 71.2787 102.329 71.5397 102.329H88.3502C89.3387 102.329 90.3272 102.341 91.3157 102.329H91.3577C91.952 102.321 92.5198 102.081 92.9401 101.661C93.3604 101.241 93.5999 100.673 93.6077 100.079C93.5993 99.3023 93.4033 98.5395 93.0362 97.8555C92.8537 97.5347 92.639 97.2332 92.3957 96.9555C92.278 96.8115 92.1485 96.6776 92.0087 96.555C91.2523 95.9028 90.3788 95.4005 89.4347 95.0745C89.308 95.0261 89.1788 94.9845 89.0477 94.95L90.6977 97.119V88.269L90.0377 89.8605C91.6277 88.11 92.8112 85.9605 93.3137 83.649C93.5849 82.4562 93.6859 81.2312 93.6137 80.01C93.535 78.7308 93.3295 77.4626 93.0002 76.224C92.6153 74.8607 92.0794 73.5446 91.4027 72.3L91.6292 72.837C91.6018 72.7689 91.5817 72.698 91.5692 72.6255L91.6487 73.2255C91.6412 73.1528 91.6412 73.0793 91.6487 73.0065L91.5677 73.6065C91.5764 73.5576 91.5905 73.5098 91.6097 73.464L91.3832 74.0025C91.4074 73.9499 91.4365 73.8996 91.4702 73.8525L91.1177 74.3025C91.1542 74.2568 91.1942 74.2142 91.2377 74.175L90.7877 74.5275C90.8503 74.4792 90.9188 74.4395 90.9917 74.409L90.4502 74.625C91.7803 74.1677 93.1517 73.8411 94.5452 73.65L93.9452 73.731C94.5872 73.646 95.2322 73.5896 95.8802 73.5615C96.3557 73.5405 96.8477 73.569 97.3022 73.4025C97.6966 73.2605 98.0818 73.0941 98.4557 72.9045C99.6088 72.2817 100.582 71.3718 101.28 70.263C101.93 69.2313 102.316 68.055 102.402 66.8385C102.443 66.3375 102.458 65.8335 102.485 65.3385L102.567 63.8055C102.567 63.51 102.509 63.2174 102.396 62.9442C102.283 62.6712 102.118 62.4231 101.909 62.214C101.481 61.8003 100.912 61.5648 100.317 61.5555H97.2392C96.6451 61.5641 96.0778 61.8038 95.6576 62.2239C95.2375 62.6441 94.9978 63.2114 94.9892 63.8055V63.9165L97.8392 61.7475L96.7892 61.4835C96.3815 61.4 95.9804 61.2866 95.5892 61.1445L96.1277 61.371C95.9062 61.2735 95.6963 61.1511 95.5022 61.0065L95.9522 61.359C95.7434 61.1969 95.5552 61.01 95.3912 60.8025L95.7437 61.2525C95.4677 60.885 95.2262 60.489 94.9712 60.108L93.9812 58.6245C93.7441 58.2476 93.4693 57.8957 93.1607 57.5745C92.5315 56.964 91.7642 56.5143 90.9242 56.2635C89.6495 55.8627 88.3456 55.5618 87.0242 55.3635C86.2052 55.239 85.3832 55.1325 84.5582 55.0635C83.9044 54.9999 83.2445 55.0506 82.6082 55.2135C81.4987 55.5399 80.501 56.1665 79.7252 57.024C78.9518 57.8691 78.3284 58.8401 77.8817 59.895C77.3626 61.064 76.999 62.2961 76.8002 63.5595C76.6718 64.3637 76.5971 65.1755 76.5767 65.9895C76.5524 66.7794 76.6604 67.5678 76.8962 68.322C77.3612 69.69 78.2792 70.935 79.6172 71.5575L78.5822 69.0165L78.3857 70.3965L78.2567 71.2965C78.2411 71.472 78.2095 71.6457 78.1622 71.8155L78.3887 71.2785C78.358 71.3475 78.3199 71.4129 78.2747 71.4735L78.6257 71.0235C78.5885 71.066 78.5479 71.105 78.5042 71.1405L78.9542 70.7895C78.9062 70.8218 78.8561 70.8509 78.8042 70.8765L79.3412 70.6485C78.7267 70.8686 78.1256 71.1245 77.5412 71.415C76.9705 71.7384 76.4302 72.113 75.9272 72.534C75.4315 72.9383 74.9767 73.3905 74.5697 73.884C73.7252 74.9156 72.9544 76.0053 72.2627 77.145C70.4488 80.0793 68.9333 83.1878 67.7387 86.424C67.4222 87.2835 67.1387 88.155 66.9002 89.04C66.6454 90.0234 66.4559 91.0226 66.3332 92.031L66.4142 91.431C66.3935 91.56 66.3583 91.6863 66.3092 91.8075L66.5357 91.2705C66.4823 91.3886 66.4159 91.5002 66.3377 91.6035L66.6902 91.1535C66.6209 91.2378 66.5435 91.3152 66.4592 91.3845L66.9092 91.0335C66.8 91.1169 66.6811 91.187 66.5552 91.242L67.0937 91.0155C66.9655 91.0659 66.8314 91.1003 66.6947 91.1175L67.2947 91.038C67.1804 91.0485 67.0655 91.0485 66.9512 91.038L67.5512 91.119C66.664 90.9807 65.7971 90.7344 64.9697 90.3855L65.5067 90.612C64.8206 90.3258 64.174 89.9534 63.5822 89.5035L64.0322 89.856C63.5645 89.4938 63.1429 89.0757 62.7767 88.611L63.1292 89.061C62.7646 88.5897 62.462 88.0736 62.2292 87.525L62.4557 88.062C62.1913 87.416 62.0117 86.7383 61.9217 86.046L62.0012 86.646C61.9454 86.2067 61.9174 85.7643 61.9172 85.3215C61.9093 84.7263 61.6736 84.1568 61.2587 83.73C60.8342 83.3115 60.2632 83.0753 59.6672 83.0715C59.0852 83.097 58.4822 83.2875 58.0757 83.73C57.6653 84.1578 57.4331 84.7257 57.4262 85.3185Z" fill="white"/>
<path d="M85.47 57.378C84.977 57.3147 84.4806 57.2807 83.9835 57.276C81.033 57.276 78.819 61.704 78.819 66.126C78.819 68.016 79.6305 69.1005 80.745 69.609L80.3685 72.2445C80.3478 72.3864 80.2857 72.5191 80.19 72.6259C80.0942 72.7326 79.9689 72.8086 79.83 72.8445C78.5898 73.267 77.4792 74.0016 76.605 74.9775C74.553 77.022 68.3865 87.3975 67.6185 93.4035C67.5675 93.8055 60.8535 89.7 60.5205 89.931C60.8115 90.009 63.8595 94.2165 64.9305 94.914C68.7525 97.407 70.995 94.164 71.514 92.364C71.5472 92.2528 71.5728 92.1396 71.5905 92.025C72.357 86.025 76.428 80.4315 78.4785 78.387C81.1695 75.987 83.1525 75.471 83.9445 72.1095L84.8745 69.099C83.76 68.5905 81.8205 67.995 81.033 66.123C79.458 62.4 82.89 58.0335 85.47 57.378Z" fill="#E5E5E5"/>
<path d="M57.5371 90.4605C57.5371 93.417 60.4936 97.854 67.1491 97.854C67.1491 98.2605 68.6266 99.333 70.1056 99.333H72.3241C71.4603 99.3036 70.6246 99.0174 69.9241 98.511C69.3723 98.1105 68.7234 97.8649 68.0446 97.8C62.3191 97.257 59.7541 93.222 59.7541 90.468C59.7595 89.8135 59.8237 89.1609 59.9461 88.518C59.3046 87.2958 58.984 85.9305 59.0146 84.5505C58.1311 86.4016 57.6288 88.4113 57.5371 90.4605Z" fill="#E5E5E5"/>
<path d="M94.7761 70.7325C94.7761 70.7325 91.9456 70.677 89.5261 70.752C89.209 70.7625 88.8993 70.85 88.6234 71.0066C88.3476 71.1632 88.1137 71.3844 87.9421 71.6513C87.7707 71.9181 87.6664 72.2226 87.6383 72.5387C87.6104 72.8546 87.6595 73.1727 87.7816 73.4655C88.6486 75.555 89.6311 78.528 89.2816 80.604C88.6816 84.1245 86.1856 85.254 85.9591 86.994C85.7326 88.734 86.3356 100.077 86.3356 100.077H91.3666C91.3666 100.077 91.1866 97.287 88.4596 97.125V88.275C88.4596 88.275 92.1571 84.3945 91.3666 79.2225C90.5761 74.0505 88.8856 74.094 89.4496 72.861C90.0136 71.628 94.7761 70.7325 94.7761 70.7325Z" fill="#B2B2B2"/>
<path d="M96.7609 72C100.859 70.635 101.039 66.4395 100.997 65.187C100.985 64.8672 100.87 64.5599 100.668 64.3113C100.467 64.0628 100.19 63.8862 99.8794 63.8085L95.5999 62.739C95.0662 62.6069 94.601 62.2806 94.2949 61.824L92.5594 59.22C92.0809 58.4991 91.3631 57.9705 90.5329 57.7275C88.4072 57.0612 86.2067 56.6627 83.9824 56.541C80.4514 56.541 78.0784 61.5015 78.0784 66.1335C78.0218 66.8681 78.1544 67.6049 78.4639 68.2734C78.7732 68.9421 79.2488 69.5202 79.8454 69.9525C79.8769 69.9735 79.9114 69.987 79.9429 70.0065L79.6429 72.147C78.2762 72.5984 77.051 73.3982 76.0879 74.4675C73.7959 76.7505 68.6269 85.911 67.8559 91.9425C67.844 92.0361 67.8133 92.1264 67.7653 92.2076C67.7173 92.2889 67.6531 92.3595 67.5769 92.415C67.4974 92.4743 67.4066 92.5167 67.3102 92.5397C67.2137 92.5626 67.1135 92.5656 67.0159 92.5485C64.5514 92.1255 60.4159 90.6255 60.4159 85.3215C60.418 85.1537 60.3626 84.99 60.2593 84.8579C60.1558 84.7256 60.0104 84.6326 59.8469 84.594C59.6836 84.5556 59.5118 84.5741 59.3603 84.6464C59.2088 84.7185 59.0864 84.8403 59.0134 84.9915C58.0783 86.942 57.551 89.0627 57.4639 91.224C57.4639 94.524 60.5404 99.1485 67.3639 99.3345C67.8022 99.7925 68.3269 100.159 68.9077 100.413C69.4886 100.667 70.114 100.804 70.7479 100.815H91.3624C91.5581 100.815 91.7458 100.737 91.8842 100.599C92.0225 100.46 92.1004 100.273 92.1004 100.077C92.1004 97.977 90.1759 96.972 89.1949 96.594V88.5465C89.6504 88.0254 90.0586 87.4647 90.4144 86.871C91.3789 85.263 91.8664 83.289 92.0299 82.2315C92.2549 81.042 90.6454 80.1315 90.6484 81.51C90.5149 83.28 90.3874 84.201 89.1484 86.109C88.8005 86.6957 88.3933 87.245 87.9334 87.7485C87.7952 87.8865 87.7175 88.0737 87.7174 88.269V97.119C87.7175 97.2831 87.7724 97.4424 87.8731 97.572C87.9739 97.7016 88.1149 97.7939 88.2739 97.8345C88.2919 97.8345 89.8969 98.2695 90.4429 99.3345H85.9669C85.6336 98.6528 85.15 98.0555 84.5524 97.5878C83.9546 97.1201 83.2588 96.7941 82.5169 96.6345C83.0198 96.1136 83.4128 95.4968 83.6726 94.8209C83.9323 94.145 84.0535 93.4238 84.0289 92.7C84.0454 91.5621 83.7964 90.4361 83.3015 89.4111C82.8068 88.3863 82.0801 87.491 81.1789 86.796C80.3872 86.2427 79.4728 85.8903 78.5146 85.769C77.5562 85.6478 76.5829 85.7613 75.6784 86.1C75.5864 86.1306 75.5014 86.1791 75.428 86.2427C75.3548 86.3061 75.2947 86.3834 75.2513 86.4701C75.208 86.5568 75.182 86.6513 75.1751 86.7479C75.1682 86.8446 75.1805 86.9418 75.2111 87.0338C75.2417 87.1257 75.2902 87.2108 75.3536 87.2841C75.4172 87.3573 75.4945 87.4173 75.5812 87.4608C75.6679 87.5042 75.7624 87.5301 75.859 87.537C75.9557 87.5439 76.0529 87.5316 76.1449 87.501C76.8286 87.2351 77.5672 87.1413 78.2956 87.2279C79.024 87.3144 79.72 87.5787 80.3224 87.9975C81.0334 88.5546 81.6052 89.2695 81.9922 90.0857C82.3793 90.9018 82.5713 91.7969 82.5529 92.7C82.5529 95.778 80.1844 96.4065 80.1529 96.4125C79.9786 96.4566 79.8263 96.5627 79.7248 96.711C79.6232 96.8592 79.5793 97.0395 79.6012 97.218C79.6231 97.3964 79.7093 97.5606 79.8439 97.68C79.9783 97.7993 80.1515 97.8654 80.3314 97.866C82.5454 97.866 83.6704 98.667 84.2314 99.342H74.4349C74.0435 99.3416 73.6684 99.186 73.3916 98.9093C73.1149 98.6325 72.9593 98.2574 72.9589 97.866C72.9589 97.7691 72.9398 97.6731 72.9026 97.5836C72.8656 97.494 72.8113 97.4127 72.7427 97.3442C72.6742 97.2756 72.5929 97.2213 72.5033 97.1841C72.4138 97.1471 72.3178 97.128 72.2209 97.128C72.124 97.128 72.028 97.1471 71.9384 97.1841C71.8489 97.2213 71.7676 97.2756 71.699 97.3442C71.6305 97.4127 71.5762 97.494 71.539 97.5836C71.5019 97.6731 71.4829 97.7691 71.4829 97.866C71.4871 98.3856 71.6288 98.895 71.8939 99.342H70.7449C69.9148 99.3095 69.1231 98.9843 68.5099 98.424C68.4698 98.2646 68.3776 98.1231 68.248 98.022C68.1184 97.9209 67.9588 97.866 67.7944 97.866C61.7524 97.866 58.9444 93.903 58.9444 91.224C58.9603 90.2304 59.1055 89.2431 59.3764 88.287C60.7159 92.472 64.8154 93.669 66.7669 94.0035C67.0601 94.0529 67.3603 94.0427 67.6495 93.9732C67.9387 93.9039 68.2109 93.777 68.4499 93.6C68.687 93.4266 68.8862 93.2064 69.035 92.9531C69.1838 92.6997 69.2792 92.4186 69.3154 92.127C70.0654 86.277 75.1819 77.448 77.1259 75.51C77.9105 74.6262 78.9082 73.9575 80.0239 73.5675C80.3018 73.4942 80.552 73.3406 80.743 73.1258C80.9341 72.911 81.0575 72.6446 81.0979 72.36L81.3529 70.5795C82.5251 70.808 83.7383 70.6944 84.8479 70.2525C85.261 70.0892 85.6151 69.8048 85.8641 69.4368C86.113 69.0689 86.245 68.6343 86.2429 68.19V63.18C86.2429 62.9843 86.165 62.7966 86.0267 62.6582C85.8883 62.5197 85.7006 62.442 85.5049 62.442C85.3091 62.442 85.1215 62.5197 84.983 62.6582C84.8446 62.7966 84.7669 62.9843 84.7669 63.18V68.19C84.7663 68.3379 84.7219 68.4824 84.6394 68.6051C84.557 68.7279 84.44 68.8235 84.3034 68.88C83.729 69.1397 83.1019 69.2615 82.472 69.2354C81.8423 69.2093 81.2273 69.0363 80.6764 68.73C80.2844 68.4269 79.9759 68.0292 79.7797 67.5743C79.5835 67.1193 79.5059 66.6221 79.5544 66.129C79.5544 61.881 81.6649 58.0125 83.9824 58.0125C86.0678 58.1346 88.1303 58.5131 90.1234 59.139C90.6205 59.2866 91.0493 59.6055 91.3339 60.039L93.0709 62.6445C93.5807 63.4088 94.3583 63.9546 95.2504 64.1745L96.5779 64.5075V66.1305C96.5779 66.522 96.7334 66.8975 97.0102 67.1742C97.2869 67.451 97.6624 67.6065 98.0539 67.6065H99.2164C99.019 68.288 98.6605 68.912 98.1713 69.4257C97.682 69.9395 97.0763 70.3281 96.4054 70.5585C94.0813 70.5903 91.7777 70.9997 89.5849 71.7705C89.3995 71.8449 89.231 71.9559 89.0894 72.0968C88.948 72.2378 88.8364 72.4059 88.7614 72.591C88.6871 72.774 88.6514 72.9704 88.6564 73.1678C88.6612 73.3652 88.7066 73.5594 88.7899 73.7385L88.9774 74.1465C90.0748 76.2285 90.6569 78.5432 90.6754 80.8965C90.6754 81.303 90.4534 83.7615 91.2274 83.853C91.9489 83.937 92.1514 81.303 92.1514 80.8965C92.1305 78.3315 91.5034 75.8079 90.3214 73.5315L90.1354 73.131C92.1968 72.434 94.3553 72.0659 96.5314 72.0405C96.6109 72.0408 96.6899 72.0282 96.7654 72.003L96.7609 72ZM99.4984 66.1335H98.0494V64.8795L99.5209 65.2485C99.5312 65.5427 99.5237 65.8373 99.4984 66.1305V66.1335Z" fill="black"/>
</svg>
