<svg width="120" height="120" viewBox="0 0 120 120" fill="none" xmlns="http://www.w3.org/2000/svg">
<path d="M94.4518 71.613C94.7119 71.8728 94.9178 72.1818 95.0573 72.522C95.197 72.8622 95.2675 73.2268 95.2648 73.5945C95.2648 74.8275 94.4923 75.867 93.4528 76.1684C93.6947 76.4056 93.8866 76.6891 94.0168 77.0019C94.1469 77.3147 94.2127 77.6506 94.2103 77.9894V78.0719C94.2103 79.1714 93.5353 80.1059 92.6173 80.3999C92.8897 80.6459 93.1067 80.947 93.2542 81.2831C93.4015 81.6193 93.4759 81.9829 93.4723 82.3499V82.5869C93.4723 83.9624 92.4493 85.0874 91.1983 85.0874H78.6088C78.6088 85.0874 75.2368 85.0964 74.6038 84.2864C74.1943 83.7614 73.4323 83.3099 72.9448 83.0579C72.6793 82.9199 72.4948 82.8389 72.4948 82.8389H68.6309V69.4785C68.6309 69.4785 72.0404 69.258 74.1148 68.166C74.475 67.9851 74.8056 67.7511 75.0958 67.4715C76.7818 65.7735 79.3123 61.0635 79.6648 58.5915C80.0173 56.1195 79.3828 54.423 79.6648 53.1915C79.9468 51.96 84.1648 51.03 85.4263 57.669C85.9768 60.558 85.8103 62.9055 85.4443 64.6365C85.3618 65.022 85.2703 65.376 85.1758 65.7H93.4258C93.9577 65.7009 94.4762 65.8659 94.9108 66.1725C95.3216 66.4683 95.6551 66.8586 95.8831 67.3105C96.1111 67.7626 96.2267 68.2629 96.2203 68.769C96.2143 70.05 95.4823 71.1585 94.4518 71.613Z" fill="white"/>
<path d="M93.9223 72.15L94.0363 72.27L94.1083 72.354L94.0603 72.291C94.1323 72.3225 94.2103 72.504 94.2463 72.5715C94.2823 72.639 94.3003 72.6705 94.3258 72.7215C94.3393 72.747 94.3513 72.774 94.3633 72.7995C94.3858 72.8505 94.3798 72.834 94.3438 72.753C94.4008 72.7965 94.4338 73.0185 94.4518 73.0845C94.4698 73.1505 94.4788 73.2 94.4908 73.2585C94.5028 73.317 94.5613 73.461 94.4908 73.296C94.5143 73.4058 94.5199 73.5189 94.5073 73.6305C94.5073 73.686 94.5073 73.743 94.5073 73.7985C94.5073 73.824 94.4818 74.013 94.5073 73.893C94.5328 73.773 94.4938 73.959 94.4893 73.983C94.4788 74.0355 94.4668 74.088 94.4518 74.1405C94.4278 74.235 94.3933 74.328 94.3618 74.421C94.3093 74.571 94.4248 74.301 94.3618 74.4345C94.3378 74.481 94.3153 74.529 94.2913 74.5755C94.2418 74.6655 94.1848 74.7525 94.1278 74.838C94.0318 74.988 94.2343 74.7165 94.1278 74.85C94.0948 74.8875 94.0618 74.9265 94.0273 74.964C93.9583 75.039 93.8773 75.1035 93.8098 75.1725C93.7018 75.273 93.9358 75.0915 93.8098 75.1725L93.6868 75.255C93.6088 75.3045 93.5278 75.345 93.4468 75.387C93.2968 75.4635 93.5038 75.378 93.4468 75.387C93.3898 75.396 93.3343 75.426 93.2803 75.441C93.1552 75.4777 93.0416 75.5463 92.9509 75.6399C92.86 75.7333 92.7947 75.8488 92.7616 75.9748C92.7284 76.101 92.7283 76.2336 92.7614 76.3597C92.7944 76.4859 92.8595 76.6014 92.9503 76.695C92.9893 76.734 93.0283 76.773 93.0658 76.8135C93.1033 76.854 93.2158 76.9635 93.0898 76.8345C93.1484 76.9066 93.1987 76.9851 93.2398 77.0685C93.2683 77.118 93.2953 77.169 93.3208 77.2185C93.3328 77.244 93.3463 77.2695 93.3568 77.2965C93.3673 77.3235 93.3733 77.331 93.3373 77.25C93.3824 77.3368 93.4123 77.4306 93.4258 77.5275C93.4408 77.5845 93.4528 77.643 93.4648 77.7015C93.5068 77.892 93.4648 77.5425 93.4648 77.7405C93.4648 77.826 93.4753 77.9115 93.4753 77.9985C93.4753 78.0855 93.4753 78.1575 93.4753 78.237C93.4753 78.261 93.4648 78.423 93.4753 78.303C93.4858 78.183 93.4618 78.3675 93.4573 78.393C93.4378 78.4899 93.4127 78.5854 93.3823 78.6795C93.3688 78.723 93.3508 78.7635 93.3373 78.8055C93.3238 78.8475 93.3253 78.8385 93.3628 78.7485C93.3523 78.7725 93.3403 78.7965 93.3283 78.819C93.2876 78.9054 93.2416 78.9889 93.1903 79.0695C93.1708 79.0995 93.1333 79.1865 93.1033 79.197C93.1498 79.1805 93.1948 79.086 93.1108 79.185C93.0506 79.2561 92.9866 79.3237 92.9188 79.3875C92.8963 79.4085 92.8303 79.4865 92.8048 79.485C92.8408 79.485 92.9353 79.3965 92.8168 79.473C92.7415 79.5243 92.6633 79.5714 92.5828 79.614L92.5153 79.647C92.4643 79.671 92.4868 79.662 92.5813 79.6215C92.5723 79.6425 92.4583 79.6665 92.4403 79.6725C91.9348 79.842 91.6678 80.526 92.1103 80.9265C92.1928 81 92.2603 81.0765 92.3413 81.1605C92.4688 81.294 92.2588 81.03 92.3623 81.1845C92.3923 81.231 92.4253 81.2775 92.4553 81.324C92.5048 81.405 92.5468 81.489 92.5903 81.573C92.6803 81.741 92.5468 81.423 92.6053 81.606C92.6293 81.681 92.6563 81.756 92.6758 81.828C92.6953 81.9 92.7058 81.942 92.7178 82.0005C92.7298 82.059 92.7823 82.2195 92.7283 82.038C92.7469 82.1368 92.7524 82.2376 92.7448 82.338C92.7448 82.4535 92.7448 82.5705 92.7448 82.6845C92.7448 82.74 92.7448 82.7925 92.7328 82.8465C92.7208 83.031 92.7703 82.6815 92.7328 82.8585C92.7088 82.962 92.6893 83.064 92.6593 83.1585C92.6488 83.1915 92.6383 83.2245 92.6263 83.256L92.6098 83.3055C92.5798 83.382 92.5858 83.3685 92.6278 83.268C92.593 83.3817 92.5376 83.4879 92.4643 83.5815L92.3818 83.706C92.3068 83.8245 92.4103 83.6775 92.4103 83.673C92.3998 83.739 92.2603 83.847 92.2153 83.8935C92.1703 83.94 92.1448 83.961 92.1088 83.9925C91.9768 84.108 92.1088 84.0015 92.1088 83.9925C92.0323 84.0493 91.951 84.0996 91.8658 84.1425C91.8238 84.1665 91.7803 84.186 91.7368 84.2085C91.5868 84.2865 91.9003 84.156 91.7368 84.2085C91.6438 84.2385 91.5538 84.2685 91.4593 84.2895C91.4458 84.2895 91.3648 84.3045 91.3633 84.3075L91.4653 84.2955C91.4338 84.2955 91.4008 84.2955 91.3678 84.3045H91.2178H79.0123C78.6568 84.3045 78.3028 84.3045 77.9473 84.288C77.6653 84.276 77.3818 84.258 77.0998 84.2325C76.9498 84.2205 76.8088 84.2055 76.6648 84.1875L76.5433 84.1725H76.5823L76.3438 84.135C76.0469 84.0882 75.7544 84.0169 75.4693 83.922C75.4183 83.9055 75.3673 83.8785 75.3193 83.865C75.5638 83.9295 75.3823 83.892 75.3058 83.85C75.2563 83.8245 75.2113 83.793 75.1633 83.7645C75.0673 83.706 75.2998 83.8875 75.2458 83.8275C75.2263 83.8065 75.2023 83.79 75.1843 83.7705C75.0583 83.6415 74.9518 83.5005 74.8183 83.379C74.6045 83.1877 74.3774 83.0118 74.1388 82.8525C73.7911 82.618 73.426 82.4104 73.0468 82.2315C72.8471 82.1232 72.6256 82.0617 72.3988 82.0515H68.6308L69.3808 82.8015V71.1285C69.3808 70.5885 69.4048 70.041 69.3808 69.501V69.4785L68.6308 70.2285C69.6356 70.1577 70.6339 70.0128 71.6173 69.795C73.2133 69.4485 74.8693 68.904 75.9673 67.632C76.9408 66.501 77.7283 65.2035 78.4273 63.8895C79.1488 62.5395 79.8163 61.1055 80.2123 59.619C80.4212 58.7994 80.5255 57.9567 80.5228 57.111C80.5228 56.292 80.4373 55.4805 80.3728 54.666C80.3417 54.3375 80.3333 54.0072 80.3473 53.6775C80.3473 53.613 80.3578 53.5485 80.3638 53.484C80.3788 53.334 80.3248 53.676 80.3638 53.5335C80.3638 53.5095 80.3638 53.484 80.3758 53.46C80.3878 53.436 80.3953 53.3805 80.4043 53.34C80.4343 53.2035 80.3368 53.4765 80.3593 53.4375L80.4298 53.3145C80.4958 53.2035 80.3278 53.43 80.3623 53.4015C80.3968 53.373 80.4058 53.3505 80.4283 53.328C80.4508 53.3055 80.5033 53.262 80.5408 53.229C80.3143 53.439 80.4718 53.28 80.5588 53.229C80.6128 53.1975 80.6698 53.1735 80.7253 53.1435C80.7808 53.1135 80.5018 53.229 80.6443 53.178L80.7658 53.136C80.8258 53.118 80.8873 53.1015 80.9488 53.088L81.0658 53.0655C81.2443 53.0325 80.8573 53.085 81.0058 53.073C81.1696 53.0595 81.3341 53.0595 81.4978 53.073C81.5758 53.0805 81.7153 53.124 81.4333 53.0625C81.4708 53.07 81.5098 53.073 81.5473 53.0805C81.6418 53.0985 81.7348 53.121 81.8278 53.148C81.9208 53.175 82.0018 53.2065 82.0888 53.238C82.1998 53.28 81.8968 53.1525 82.0048 53.2035L82.0528 53.2245C82.1053 53.2485 82.1578 53.274 82.2028 53.301C82.2898 53.3475 82.3738 53.397 82.4563 53.451C82.5043 53.4821 82.5542 53.5151 82.6063 53.55L82.6543 53.5845C82.7533 53.6535 82.4863 53.4465 82.6228 53.559C82.8122 53.7152 82.9888 53.8862 83.1508 54.0705C83.1943 54.1185 83.2348 54.1695 83.2768 54.2205C83.4013 54.3705 83.1793 54.087 83.2948 54.243C83.3863 54.369 83.4748 54.4965 83.5573 54.6285C83.7289 54.906 83.8817 55.1946 84.0148 55.4925L84.0613 55.6005C84.1303 55.7505 83.9983 55.4385 84.0613 55.6005L84.1513 55.833C84.2248 56.0295 84.2923 56.2275 84.3538 56.433C84.4843 56.856 84.5893 57.285 84.6778 57.7185C84.7258 57.963 84.7708 58.209 84.8098 58.455C84.8338 58.596 84.8548 58.7385 84.8743 58.8795C84.8938 59.0205 84.8743 58.9215 84.8743 58.89C84.8863 58.9815 84.8983 59.073 84.9088 59.166C85.0192 60.1067 85.0564 61.0545 85.0198 62.001C85.0048 62.401 84.9743 62.8009 84.9283 63.201L84.9103 63.351V63.402C84.8998 63.4845 84.9013 63.4695 84.9103 63.354C84.9298 63.3915 84.8818 63.5565 84.8758 63.6C84.8458 63.789 84.8143 63.978 84.7783 64.167C84.6913 64.6159 84.5837 65.0599 84.4558 65.499C84.425 65.6103 84.4205 65.7273 84.4424 65.8407C84.4643 65.9541 84.512 66.0609 84.5821 66.1528C84.652 66.2448 84.7423 66.3192 84.8458 66.3705C84.9493 66.4218 85.0633 66.4485 85.1788 66.4485H92.7493C92.9623 66.4485 93.1768 66.4485 93.3913 66.4485H93.4228C93.5098 66.4485 93.5953 66.4485 93.6823 66.462C93.4993 66.447 93.7033 66.462 93.7348 66.4725L93.9193 66.5175C93.9793 66.5355 94.0378 66.558 94.0978 66.576C94.2898 66.636 93.9733 66.504 94.1503 66.5985C94.2433 66.6465 94.3363 66.693 94.4248 66.7485C94.4758 66.78 94.5238 66.8145 94.5748 66.8475C94.7248 66.948 94.4578 66.7395 94.5898 66.8625C94.6693 66.9345 94.7503 67.005 94.8238 67.083C94.8613 67.122 94.8973 67.161 94.9318 67.203C94.9663 67.245 95.0818 67.323 94.9498 67.221C95.0363 67.3165 95.1067 67.4254 95.1583 67.5435L95.2108 67.6425C95.2273 67.6755 95.3443 67.899 95.2513 67.716C95.2985 67.8198 95.3362 67.9278 95.3638 68.0385C95.4151 68.1642 95.4451 68.2975 95.4523 68.433C95.4658 68.295 95.4448 68.352 95.4523 68.4075C95.4523 68.487 95.4658 68.5665 95.4688 68.646C95.4755 68.7634 95.4755 68.881 95.4688 68.9985C95.4691 69.0558 95.464 69.1131 95.4538 69.1695C95.5063 68.9625 95.4433 69.2055 95.4343 69.2475C95.4119 69.3565 95.3834 69.4642 95.3488 69.57C95.3323 69.6225 95.3128 69.6735 95.2963 69.72C95.2438 69.879 95.3548 69.603 95.2888 69.741C95.2018 69.9577 95.0825 70.1601 94.9348 70.341C95.0713 70.1985 94.9453 70.323 94.9198 70.353C94.8943 70.383 94.8388 70.443 94.7953 70.4865C94.7518 70.53 94.6318 70.6815 94.5463 70.7115C94.6783 70.6635 94.6153 70.659 94.5463 70.7025C94.4773 70.746 94.4473 70.77 94.3963 70.8015C94.2941 70.8627 94.1885 70.9177 94.0798 70.9665C93.7213 71.1285 93.6073 71.6775 93.8113 71.9925C94.0498 72.363 94.4533 72.435 94.8373 72.2625C95.7373 71.853 96.3913 71.04 96.7348 70.125C97.0847 69.1335 97.0375 68.0449 96.6028 67.0875C96.3946 66.6163 96.0889 66.1947 95.7061 65.85C95.3231 65.5054 94.8716 65.2456 94.3813 65.088C93.9862 64.9798 93.5771 64.9323 93.1678 64.947H85.1758L85.8988 65.8965C86.3866 64.1754 86.5957 62.3872 86.5183 60.6C86.4418 58.65 86.1313 56.64 85.3528 54.837C84.8788 53.7405 84.1393 52.6905 83.0938 52.0755C82.3244 51.6101 81.4066 51.4556 80.5273 51.6435C79.8508 51.7935 79.1623 52.2435 78.9538 52.938C78.7663 53.559 78.8368 54.264 78.8923 54.8985C78.9854 55.7382 79.027 56.5827 79.0168 57.4275C79.0078 57.6735 78.9913 57.9195 78.9658 58.1655C78.9583 58.2345 78.9508 58.305 78.9418 58.3755C78.9163 58.602 78.9583 58.2915 78.9418 58.425C78.9298 58.4955 78.9193 58.575 78.9058 58.6395C78.8461 58.9457 78.7705 59.2487 78.6793 59.547C78.5758 59.8875 78.4573 60.225 78.3298 60.558C78.2657 60.729 78.1982 60.8985 78.1273 61.0665C78.1273 61.08 78.0553 61.2345 78.1063 61.1175C78.1573 61.0005 78.0883 61.158 78.0838 61.17C78.0358 61.281 77.9863 61.392 77.9338 61.503C77.2925 62.9464 76.5197 64.3276 75.6253 65.6295C75.5293 65.7675 75.4318 65.904 75.3328 66.0375L75.2008 66.213C75.1063 66.339 75.3118 66.0735 75.2143 66.195C75.1798 66.2385 75.1468 66.282 75.1123 66.324C74.9308 66.5547 74.7349 66.7735 74.5258 66.9795C74.4536 67.0498 74.3776 67.116 74.2978 67.1775C74.4358 67.0695 74.2678 67.1955 74.2483 67.2105C74.1958 67.2465 74.1418 67.2825 74.0863 67.317C73.903 67.4302 73.7138 67.5334 73.5193 67.626C73.4309 67.6752 73.3385 67.7167 73.2433 67.7505C73.4488 67.692 73.1908 67.77 73.1353 67.791C72.9403 67.8675 72.7408 67.941 72.5353 67.9995C71.7887 68.2297 71.0269 68.4067 70.2553 68.529C70.0963 68.5545 69.9373 68.58 69.7768 68.6025C69.7168 68.6115 69.4693 68.6415 69.7378 68.6025L69.4813 68.6355C69.2713 68.661 69.0613 68.6835 68.8498 68.7015L68.6278 68.7195C68.4301 68.7234 68.2415 68.8036 68.1017 68.9434C67.9619 69.0832 67.8817 69.2718 67.8778 69.4695V81.177C67.8778 81.7185 67.8628 82.263 67.8778 82.8045V82.827C67.8805 83.025 67.9604 83.2143 68.1005 83.3542C68.2405 83.4943 68.4298 83.5743 68.6278 83.577H72.4933L72.1138 83.475C72.3922 83.598 72.6631 83.7373 72.9253 83.892C73.0753 83.9805 73.2253 84.0735 73.3753 84.1725C73.4573 84.2251 73.5365 84.2821 73.6123 84.3435C73.4863 84.237 73.5883 84.3255 73.6213 84.3525C73.6543 84.3795 73.7233 84.4395 73.7713 84.4845C73.9978 84.6945 74.1613 84.9255 74.4208 85.0995C74.6428 85.237 74.8825 85.3435 75.1333 85.416C75.6836 85.5771 76.2491 85.6812 76.8208 85.7265C77.2858 85.7775 77.7538 85.806 78.2218 85.818C79.0618 85.842 79.9048 85.8255 80.7448 85.8255H91.1833C91.8248 85.8202 92.4467 85.6041 92.9533 85.2105C94.2523 84.2055 94.5463 82.3185 93.8848 80.8605C93.7081 80.4802 93.4567 80.1394 93.1453 79.8585L92.8138 81.111C93.3307 80.9367 93.7931 80.6302 94.1551 80.2222C94.5172 79.8141 94.7663 79.3185 94.8778 78.7845C95.0021 78.2247 94.985 77.6425 94.8278 77.091C94.6708 76.5394 94.3786 76.0357 93.9778 75.6255L93.6463 76.8795C94.1891 76.7083 94.6796 76.402 95.0716 75.9892C95.4637 75.5766 95.7443 75.0709 95.8873 74.52C96.0469 73.9153 96.0469 73.2795 95.8873 72.6748C95.7278 72.0702 95.414 71.5171 94.9768 71.07C94.9076 70.9983 94.8248 70.9413 94.7333 70.902C94.6418 70.8625 94.5434 70.842 94.4438 70.8411C94.3442 70.8402 94.2455 70.8592 94.1533 70.8969C94.0612 70.9345 93.9775 70.9903 93.907 71.0607C93.8366 71.1312 93.7808 71.2149 93.7432 71.307C93.7055 71.3992 93.6865 71.4979 93.6874 71.5975C93.6883 71.6971 93.709 71.7955 93.7483 71.887C93.7876 71.9785 93.8446 72.0613 93.9163 72.1305L93.9223 72.15Z" fill="black"/>
<g style="mix-blend-mode:multiply" opacity="0.2">
<g style="mix-blend-mode:multiply" opacity="0.2">
<path d="M74.1149 68.166L72.9449 83.055C72.6794 82.917 72.4949 82.836 72.4949 82.836H68.6309V69.4785C68.6309 69.4785 72.0404 69.258 74.1149 68.166Z" fill="black"/>
</g>
</g>
<path d="M71.9586 68.2501V83.7842C71.9586 84.129 71.8216 84.4599 71.5777 84.7038C71.3338 84.9477 71.0029 85.0847 70.6581 85.0847H60.2226C60.0336 85.0836 59.847 85.0412 59.676 84.9606C59.505 84.8801 59.3535 84.7632 59.2323 84.6182C59.1111 84.473 59.0229 84.3033 58.974 84.1206C58.9251 83.9381 58.9165 83.747 58.9491 83.5607L60.2646 76.0186L61.6491 68.0296C61.7017 67.728 61.8589 67.4547 62.0934 67.2577C62.3277 67.0606 62.6239 66.9526 62.9301 66.9526H70.6566C71.0013 66.9522 71.3319 67.0887 71.5761 67.332C71.8203 67.5753 71.9578 67.9054 71.9586 68.2501Z" fill="white"/>
<path d="M71.2103 68.25V82.6229C71.2103 83.0099 71.2103 83.3954 71.2103 83.7809C71.2103 83.8109 71.1893 83.9489 71.2103 83.8364C71.2313 83.7239 71.1923 83.9114 71.1848 83.9354C71.1751 83.9587 71.1676 83.9828 71.1623 84.0074C71.1623 84.0944 71.1758 83.9279 71.1923 83.9429C71.1706 83.9959 71.143 84.0463 71.1098 84.0929C71.0983 84.1147 71.0846 84.1352 71.0693 84.1544C71.0588 84.1544 71.1758 84.0434 71.1113 84.0989C71.0768 84.1304 71.0438 84.1694 71.0108 84.2039C70.8878 84.3284 71.0978 84.1619 70.9898 84.2219C70.9418 84.2489 70.8878 84.2759 70.8398 84.3059C70.7678 84.3509 70.9043 84.2684 70.9043 84.2789C70.8812 84.2878 70.8577 84.2953 70.8338 84.3014C70.7858 84.3149 70.7363 84.3254 70.6838 84.3374C70.5998 84.3569 70.7573 84.3209 70.7573 84.3269C70.7573 84.3329 70.6448 84.3269 70.6523 84.3269H60.2243C60.1984 84.3254 60.1723 84.3254 60.1463 84.3269C60.0668 84.3269 60.2093 84.3359 60.2183 84.3404C60.1691 84.3262 60.119 84.3152 60.0683 84.3074C60.0458 84.3074 60.0218 84.2894 59.9978 84.2849C59.9138 84.2729 60.0713 84.3029 60.0623 84.3164C60.0106 84.2929 59.9605 84.2657 59.9123 84.2354L59.8508 84.1949C59.8628 84.1754 59.9723 84.3059 59.8898 84.2234L59.7878 84.1214C59.6933 84.0314 59.8538 84.2354 59.7878 84.1214C59.7593 84.0749 59.7338 84.0194 59.7038 83.9714C59.6558 83.9039 59.7413 84.0344 59.7293 84.0404C59.7173 84.0464 59.6963 83.9399 59.6978 83.9474C59.6993 83.9549 59.6678 83.7974 59.6648 83.7974C59.6618 83.7974 59.6753 83.9579 59.6753 83.8739C59.6753 83.8484 59.6753 83.8244 59.6753 83.7989C59.6753 83.7734 59.7008 83.5904 59.6753 83.6939C59.6498 83.7974 59.6888 83.6234 59.6948 83.5949L60.1703 80.8664L60.7898 77.316L61.0148 76.02L61.4933 73.281L62.1233 69.6645L62.3273 68.4975L62.3723 68.238C62.3798 68.1945 62.3888 68.151 62.3993 68.109C62.4206 68.0608 62.4368 68.0106 62.4473 67.959C62.4473 67.968 62.3813 68.088 62.4233 68.022C62.4413 67.995 62.4548 67.9635 62.4713 67.935C62.4878 67.9065 62.5133 67.884 62.5118 67.872C62.5103 67.86 62.4143 67.9785 62.4713 67.9245C62.5283 67.8705 62.5523 67.8405 62.5913 67.8C62.6828 67.7055 62.4818 67.8615 62.5913 67.8L62.7203 67.725C62.8268 67.662 62.5868 67.7655 62.7503 67.716C62.8088 67.7073 62.8666 67.6938 62.9228 67.6755C62.9138 67.6755 62.7728 67.683 62.8523 67.689C62.8783 67.6905 62.9044 67.6905 62.9303 67.689H68.1158C68.9453 67.689 69.7748 67.689 70.6043 67.689H70.6838C70.6973 67.689 70.7498 67.6995 70.7618 67.689C70.7738 67.6785 70.6118 67.659 70.6883 67.6785C70.7378 67.6905 70.7873 67.701 70.8383 67.7145C70.8622 67.7206 70.8857 67.7281 70.9088 67.737C70.9088 67.7475 70.7723 67.6635 70.8443 67.71C70.8908 67.74 70.9448 67.767 70.9943 67.794C71.1083 67.8585 70.9058 67.7025 70.9943 67.794L71.0978 67.8975C71.1908 67.989 71.0348 67.7865 71.0978 67.8975L71.1713 68.025C71.2328 68.133 71.1308 67.875 71.1713 68.052C71.1848 68.1 71.1953 68.1495 71.2073 68.202C71.2268 68.286 71.1908 68.1285 71.1968 68.1285C71.1989 68.1634 71.1989 68.1985 71.1968 68.2335C71.1968 68.4324 71.2759 68.6232 71.4164 68.7639C71.5571 68.9044 71.7479 68.9835 71.9468 68.9835C72.1457 68.9835 72.3365 68.9044 72.4772 68.7639C72.6178 68.6232 72.6968 68.4324 72.6968 68.2335C72.6838 67.6963 72.4636 67.1851 72.0823 66.8065C71.7008 66.4281 71.188 66.2116 70.6508 66.2025C70.4093 66.2025 70.1678 66.2025 69.9263 66.2025H63.2693C62.8211 66.1776 62.3737 66.2626 61.9658 66.45C61.6823 66.6054 61.4389 66.8244 61.2547 67.0899C61.0703 67.3554 60.9502 67.6602 60.9038 67.98L60.4298 70.6995L59.7848 74.4C59.6978 74.901 59.6093 75.402 59.5223 75.9L59.0618 78.5355L58.4243 82.1909L58.2428 83.2409C58.2173 83.3909 58.1918 83.5259 58.1798 83.6699C58.1615 83.96 58.2056 84.2507 58.3091 84.5224C58.4126 84.7942 58.5731 85.0405 58.7798 85.2449C58.9918 85.4462 59.242 85.6031 59.5156 85.7062C59.7892 85.8092 60.0806 85.8563 60.3728 85.8449H70.6043C71.3993 85.8449 72.1823 85.4159 72.5108 84.6674C72.6521 84.3301 72.7201 83.9665 72.7103 83.6009V68.25C72.7103 68.0511 72.6313 67.8603 72.4907 67.7196C72.35 67.579 72.1592 67.5 71.9603 67.5C71.7614 67.5 71.5706 67.579 71.4299 67.7196C71.2894 67.8603 71.2103 68.0511 71.2103 68.25Z" fill="black"/>
<g style="mix-blend-mode:multiply" opacity="0.2">
<g style="mix-blend-mode:multiply" opacity="0.2">
<path d="M59.486 80.439L58.949 83.5605C58.9165 83.7474 58.925 83.9391 58.9744 84.1223C59.0237 84.3054 59.1125 84.4757 59.2346 84.6209C59.3567 84.7661 59.509 84.8828 59.681 84.9629C59.8529 85.043 60.0403 85.0845 60.23 85.0845H70.6656C71.0104 85.0845 71.3413 84.9476 71.5852 84.7037C71.8291 84.4598 71.9661 84.1289 71.9661 83.784V80.439H59.486Z" fill="black"/>
</g>
</g>
<g style="mix-blend-mode:multiply" opacity="0.3">
<g style="mix-blend-mode:multiply" opacity="0.3">
<path d="M63.5207 82.671C64.3077 82.671 64.9457 82.0331 64.9457 81.246C64.9457 80.459 64.3077 79.821 63.5207 79.821C62.7336 79.821 62.0957 80.459 62.0957 81.246C62.0957 82.0331 62.7336 82.671 63.5207 82.671Z" fill="#184984"/>
</g>
</g>
<path d="M63.1516 82.5285C63.9386 82.5285 64.5766 81.8905 64.5766 81.1035C64.5766 80.3164 63.9386 79.6785 63.1516 79.6785C62.3645 79.6785 61.7266 80.3164 61.7266 81.1035C61.7266 81.8905 62.3645 82.5285 63.1516 82.5285Z" fill="black"/>
<g style="mix-blend-mode:multiply" opacity="0.2">
<g style="mix-blend-mode:multiply" opacity="0.2">
<path d="M96.2153 68.7645C96.2215 68.2585 96.1057 67.7586 95.8778 67.3069C95.6498 66.8553 95.3165 66.4651 94.9058 66.1695C94.8533 66.1335 94.8008 66.099 94.7468 66.0675C94.6988 66.039 94.6508 66.012 94.5968 65.988L94.5518 65.964L94.4228 65.9055L94.3898 65.892C94.3369 65.871 94.2844 65.8515 94.2323 65.8335L94.1723 65.8155L94.0538 65.7825L94.0073 65.7705C93.9518 65.757 93.8963 65.7465 93.8393 65.736H93.8003C93.7538 65.7285 93.7058 65.7225 93.6578 65.718H93.6083C93.5483 65.718 93.4883 65.718 93.4268 65.718H85.1768C85.2038 65.6265 85.2293 65.532 85.2563 65.436C85.2698 65.385 85.2833 65.331 85.2968 65.286L85.3373 65.1255C85.3508 65.073 85.3628 65.022 85.3763 64.968C85.3988 64.8675 85.4228 64.7655 85.4453 64.668C85.8113 62.9369 85.9793 60.5894 85.4288 57.7004C84.3653 52.1189 81.2153 51.8849 80.0723 52.6859C81.2018 53.2859 82.3553 54.7349 82.9223 57.7004C83.5943 61.2315 83.1953 63.9555 82.6718 65.7315V66.9885H91.8833C92.3604 66.9861 92.8194 67.1715 93.161 67.5046C93.5025 67.8378 93.6993 68.292 93.7088 68.769V68.8005C93.7088 70.0875 92.9768 71.2005 91.9478 71.6505C92.2077 71.9106 92.4134 72.2196 92.5529 72.5598C92.6925 72.8998 92.7632 73.2643 92.7608 73.632C92.7608 74.865 91.9883 75.9045 90.9488 76.206C91.1907 76.4431 91.3826 76.7266 91.5128 77.0394C91.6428 77.3523 91.7087 77.6881 91.7063 78.027V78.1095C91.7063 79.209 91.0313 80.1435 90.1133 80.4375C90.3857 80.6835 90.6027 80.9845 90.7502 81.3207C90.8975 81.6568 90.9719 82.0204 90.9683 82.3875V82.6245C90.9683 84 89.9438 85.125 88.6943 85.125H91.2008C92.4518 85.125 93.4748 84 93.4748 82.6245V82.35C93.4784 81.9829 93.404 81.6193 93.2567 81.2832C93.1092 80.947 92.8922 80.646 92.6198 80.4C93.5378 80.1 94.2128 79.1715 94.2128 78.072V77.9895C94.2146 77.6503 94.1482 77.3143 94.0172 77.0014C93.8863 76.6885 93.6937 76.4053 93.4508 76.1685C94.4903 75.8685 95.2628 74.8275 95.2628 73.5945C95.2655 73.2268 95.195 72.8622 95.0554 72.522C94.9159 72.1818 94.7099 71.8728 94.4498 71.613C95.4833 71.1585 96.2153 70.05 96.2153 68.7645Z" fill="black"/>
</g>
</g>
<path d="M23.9671 65.712C23.9671 73.5405 30.1516 75.6705 33.5146 76.2465C33.7707 76.2921 34.0335 76.2855 34.287 76.227C34.5405 76.1684 34.7794 76.0593 34.9897 75.906C35.1999 75.7527 35.3769 75.5585 35.5101 75.335C35.6433 75.1115 35.7298 74.8633 35.7646 74.6055C36.7816 66.6555 43.6696 54.738 46.3876 52.032C47.5447 50.7392 49.0156 49.7664 50.6581 49.2075C50.8429 49.1598 51.0094 49.0581 51.1363 48.9155C51.2632 48.7728 51.3448 48.5957 51.3706 48.4065L51.8686 44.9175C50.3941 44.2425 49.3186 42.807 49.3186 40.305C49.3186 34.4415 52.2496 28.578 56.1586 28.578C59.0114 28.7384 61.8332 29.2539 64.5586 30.1125C65.4389 30.3708 66.2 30.9311 66.7081 31.695L68.9986 35.1345C69.5381 35.9457 70.3598 36.5273 71.3041 36.7665L73.7986 37.392V40.305C73.7986 40.4334 73.8239 40.5605 73.873 40.6791C73.9222 40.7976 73.9943 40.9053 74.0851 40.9961C74.176 41.0867 74.2838 41.1587 74.4025 41.2076C74.5211 41.2566 74.6482 41.2817 74.7766 41.2815H77.5606C77.4037 42.6152 76.8683 43.8759 76.0177 44.915C75.1672 45.954 74.0369 46.7279 72.7606 47.145C69.7522 47.1785 66.769 47.6966 63.9256 48.6795C63.8033 48.7256 63.6919 48.7965 63.5981 48.8876C63.5045 48.9786 63.4306 49.0881 63.3811 49.209C63.3322 49.3302 63.3083 49.4603 63.3112 49.5909C63.314 49.7217 63.3434 49.8506 63.3976 49.9695C65.0432 53.0066 65.9314 56.3961 65.9866 59.85C65.9116 63.4737 64.5224 66.9468 62.0776 69.6225V81.3495C62.0776 81.3495 65.9281 82.326 65.9281 85.2585H38.6281C36.6781 85.2585 34.7191 83.841 34.7191 83.3085C25.9246 83.3085 22.0156 77.445 22.0156 73.536C22.134 70.8234 22.7977 68.1624 23.9671 65.712Z" fill="white"/>
<path d="M58.1249 28.7145C57.4723 28.6301 56.8151 28.5845 56.1569 28.578C52.2479 28.578 49.3169 34.4415 49.3169 40.305C49.3169 42.807 50.3924 44.2425 51.8669 44.9175L51.3689 48.4065C51.3431 48.5957 51.2615 48.7728 51.1346 48.9155C51.0077 49.0581 50.8412 49.1598 50.6564 49.2075C49.0139 49.7664 47.543 50.7392 46.3859 52.032C43.6679 54.732 35.5034 68.478 34.4864 76.4326C34.4189 76.9636 25.5269 71.5275 25.0859 71.8321C25.4729 71.937 29.5064 77.5081 30.9254 78.4321C35.9864 81.7321 38.9579 77.4466 39.6434 75.0541C39.688 74.9067 39.7216 74.7563 39.7439 74.604C40.7609 66.654 46.1504 59.25 48.8684 56.544C52.4309 53.358 55.0499 52.683 56.0999 48.2325L57.3299 44.2455C55.8554 43.5705 53.2874 42.783 52.2419 40.305C50.1644 35.3565 54.7094 29.58 58.1249 28.7145Z" fill="#E5E5E5"/>
<path d="M21.1348 72.522C21.1348 76.4385 25.0513 82.3125 33.8623 82.3125C33.8623 82.851 35.8213 84.2715 37.7788 84.2715H40.7173C39.5038 84.2715 38.2903 83.727 37.5433 83.184C36.8119 82.6493 35.9504 82.3203 35.0488 82.2315C27.4678 81.513 24.0718 76.1685 24.0718 72.522C24.0791 71.6568 24.1634 70.7938 24.3238 69.9435C23.476 68.3257 23.0522 66.5194 23.0923 64.6935C21.9212 67.1452 21.2555 69.8076 21.1348 72.522Z" fill="#E5E5E5"/>
<path d="M70.449 46.398C70.449 46.398 66.699 46.3245 63.4995 46.425C63.0798 46.4388 62.6699 46.5543 62.3046 46.7616C61.9394 46.9687 61.6299 47.2615 61.4027 47.6146C61.1756 47.9677 61.0374 48.3708 61.0004 48.7891C60.9632 49.2073 61.0281 49.6284 61.1895 50.016C62.337 52.7835 63.639 56.721 63.168 59.466C62.3685 64.128 59.0685 65.628 58.7685 67.9275C58.4685 70.227 59.268 85.2525 59.268 85.2525H65.9295C65.9295 85.2525 65.691 81.5595 62.079 81.3435V69.621C62.079 69.621 66.9765 64.482 65.9295 57.633C64.8825 50.784 62.6445 50.841 63.3915 49.209C64.1385 47.577 70.449 46.398 70.449 46.398Z" fill="#B2B2B2"/>
<path d="M73.0774 48.072C78.5028 46.272 78.7429 40.71 78.6859 39.0495C78.671 38.626 78.5186 38.2189 78.2518 37.8898C77.9849 37.5607 77.618 37.3276 77.2069 37.2255L71.5399 35.8095C70.8334 35.6341 70.2173 35.202 69.8119 34.5975L67.5139 31.1475C66.8783 30.1944 65.9279 29.4951 64.8288 29.172C62.0138 28.29 59.0999 27.762 56.1543 27.6C51.4788 27.6 48.3378 34.1685 48.3378 40.3035C48.2625 41.2761 48.4382 42.2518 48.8478 43.1371C49.2576 44.0224 49.8876 44.7879 50.6779 45.36C50.7183 45.387 50.7649 45.405 50.8054 45.432L50.4003 48.267C48.5906 48.8644 46.9682 49.9239 45.6933 51.3405C42.6573 54.3645 35.8143 66.4905 34.7928 74.481C34.7769 74.605 34.736 74.7244 34.6722 74.832C34.6085 74.9397 34.5234 75.033 34.4223 75.1065C34.3163 75.1861 34.1949 75.2431 34.0659 75.2736C33.9368 75.304 33.8028 75.3073 33.6723 75.2835C30.4083 74.724 24.9363 72.7335 24.9363 65.712C24.9381 65.4901 24.8645 65.2744 24.7274 65.1C24.5903 64.9255 24.3981 64.8028 24.1821 64.7521C23.9663 64.7014 23.7395 64.7256 23.5391 64.8207C23.3387 64.9158 23.1765 65.0761 23.0793 65.2755C21.842 67.8576 21.1439 70.6647 21.0273 73.5255C21.0273 77.898 25.1013 84.018 34.1343 84.264C34.7147 84.8713 35.4098 85.3575 36.1794 85.6942C36.9491 86.0311 37.7778 86.2119 38.6178 86.226H65.9179C66.0463 86.2261 66.1733 86.2011 66.292 86.152C66.4106 86.1031 66.5185 86.0311 66.6094 85.9405C66.7001 85.8498 66.7723 85.7421 66.8214 85.6236C66.8705 85.5049 66.8959 85.3779 66.8959 85.2495C66.8959 82.4715 64.3459 81.1365 63.0484 80.6355V69.9855C63.6514 69.2952 64.192 68.5527 64.6638 67.767C65.9403 65.6355 66.5869 63.0225 66.8029 61.617C67.1029 60.0405 64.9683 58.8435 64.9729 60.6615C64.7974 63.0045 64.6278 64.224 62.9898 66.7515C62.5289 67.528 61.9895 68.2554 61.3804 68.922C61.2896 69.0126 61.2176 69.12 61.1684 69.2385C61.1192 69.3568 61.0939 69.4837 61.0939 69.612V81.339C61.0936 81.5562 61.166 81.7674 61.2994 81.9388C61.4328 82.1103 61.6198 82.2324 61.8304 82.2855C61.8544 82.2855 63.9799 82.8615 64.7029 84.27H58.7839C58.3418 83.3689 57.7011 82.5798 56.9099 81.9622C56.1188 81.3447 55.1978 80.9146 54.2164 80.7045C54.884 80.0121 55.4053 79.192 55.7487 78.2937C56.0923 77.3952 56.2511 76.4367 56.2158 75.4755C56.2388 73.9695 55.9106 72.4788 55.257 71.1216C54.6035 69.7645 53.6427 68.5785 52.4509 67.6575C51.4018 66.9228 50.1896 66.4545 48.9189 66.2926C47.6484 66.1309 46.3575 66.2806 45.1578 66.729C44.9115 66.8109 44.708 66.9873 44.5917 67.2195C44.4756 67.4515 44.4564 67.7202 44.5384 67.9665C44.6203 68.2128 44.7966 68.4163 45.0288 68.5326C45.2609 68.6487 45.5296 68.6679 45.7759 68.586C46.681 68.233 47.6589 68.1081 48.6237 68.2224C49.5886 68.3368 50.5103 68.6868 51.3078 69.2415C52.25 69.9802 53.0075 70.9281 53.5203 72.01C54.0332 73.092 54.2874 74.2783 54.2628 75.4755C54.2628 79.551 51.1248 80.3835 51.0933 80.391C50.8614 80.4483 50.6586 80.5885 50.5232 80.7852C50.3879 80.9818 50.3291 81.2214 50.3583 81.4584C50.3876 81.6954 50.5025 81.9135 50.6816 82.0714C50.8608 82.2294 51.0916 82.3162 51.3304 82.3155C54.2629 82.3155 55.7509 83.376 56.4888 84.2655H43.5123C42.9951 84.2655 42.4992 84.06 42.1335 83.6943C41.7678 83.3286 41.5623 82.8327 41.5623 82.3155C41.5431 82.0701 41.432 81.841 41.2512 81.6739C41.0705 81.5068 40.8335 81.414 40.5873 81.414C40.3412 81.414 40.1042 81.5068 39.9234 81.6739C39.7427 81.841 39.6315 82.0701 39.6123 82.3155C39.6173 83.0023 39.8052 83.6754 40.1568 84.2655H38.6268C37.5272 84.2236 36.4779 83.7931 35.6658 83.0505C35.6129 82.8391 35.4909 82.6515 35.3192 82.5175C35.1473 82.3836 34.9356 82.3108 34.7178 82.311C26.7168 82.311 22.9908 77.061 22.9908 73.5165C23.0126 72.2007 23.2046 70.8933 23.5623 69.627C25.3368 75.168 30.7623 76.7535 33.3498 77.1975C33.7392 77.2636 34.1381 77.2507 34.5224 77.1592C34.9067 77.0677 35.2685 76.8996 35.5863 76.665C35.9003 76.4353 36.164 76.1439 36.3611 75.8085C36.5582 75.4732 36.6845 75.1011 36.7323 74.715C37.7223 66.9705 44.5023 55.275 47.0823 52.71C48.1203 51.5389 49.4408 50.6527 50.9179 50.136C51.2861 50.0391 51.6176 49.8357 51.8708 49.5513C52.1242 49.2669 52.2878 48.9141 52.3413 48.537L52.6728 46.2C54.225 46.5027 55.8317 46.3518 57.3004 45.765C57.848 45.5497 58.3176 45.1737 58.6475 44.6863C58.9773 44.1991 59.152 43.6234 59.1483 43.035V36.396C59.1589 36.2616 59.1416 36.1263 59.0974 35.9989C59.0531 35.8714 58.983 35.7546 58.8914 35.6554C58.7999 35.5564 58.6888 35.4774 58.5653 35.4234C58.4417 35.3694 58.3082 35.3415 58.1734 35.3415C58.0385 35.3415 57.905 35.3694 57.7814 35.4234C57.658 35.4774 57.5468 35.5564 57.4553 35.6554C57.3636 35.7546 57.2936 35.8714 57.2494 35.9989C57.2051 36.1263 57.1879 36.2616 57.1984 36.396V43.029C57.1991 43.2253 57.1409 43.4173 57.0317 43.5804C56.9224 43.7434 56.7667 43.87 56.5849 43.944C55.8248 44.2875 54.9951 44.4487 54.1617 44.415C53.3283 44.3811 52.5145 44.1531 51.7849 43.749C51.2649 43.3473 50.8557 42.8197 50.5959 42.2161C50.3361 41.6125 50.2343 40.9528 50.2998 40.299C50.2998 34.6725 53.0943 29.55 56.1618 29.55C58.9237 29.7142 61.6547 30.2181 64.2934 31.05C64.9513 31.2436 65.5196 31.6633 65.8984 32.235L68.1978 35.685C68.8717 36.6964 69.8987 37.4202 71.0779 37.7145L72.8373 38.1555V40.305C72.8373 40.8222 73.0429 41.3181 73.4086 41.6838C73.7743 42.0495 74.2701 42.255 74.7873 42.255H76.3264C76.0651 43.1586 75.5902 43.9858 74.9416 44.667C74.2931 45.3483 73.49 45.8632 72.6004 46.1685C69.5228 46.2097 66.4726 46.7512 63.5689 47.772C63.3232 47.8705 63.1 48.0175 62.9126 48.2044C62.7253 48.3913 62.5775 48.6141 62.4783 48.8595C62.3806 49.1016 62.3331 49.3611 62.3395 49.6222C62.3456 49.8832 62.4052 50.1403 62.5144 50.3775L62.7634 50.919C64.2151 53.6733 64.9867 56.7351 65.0134 59.8485C65.0134 60.3885 64.7133 63.6435 65.7453 63.7635C66.7008 63.876 66.9679 60.3885 66.9679 59.8485C66.9412 56.4526 66.1105 53.1114 64.5439 50.0985L64.2994 49.5675C67.0295 48.6445 69.8881 48.1576 72.7699 48.1245C72.8749 48.1242 72.9793 48.1069 73.0789 48.0735L73.0774 48.072ZM76.7014 40.305H74.7844V38.643L76.7344 39.132C76.7459 39.5233 76.7348 39.915 76.7014 40.305Z" fill="black"/>
</svg>
