<svg width="120" height="120" viewBox="0 0 120 120" fill="none" xmlns="http://www.w3.org/2000/svg">
<path d="M26.6312 67.1115C26.6312 74.9385 32.8172 77.0685 36.1787 77.646C36.4347 77.6907 36.6974 77.6833 36.9506 77.6244C37.2038 77.5654 37.4426 77.4561 37.6526 77.3028C37.8626 77.1495 38.0396 76.9554 38.1729 76.7322C38.3063 76.5088 38.3933 76.261 38.4287 76.0035C39.4442 68.0535 46.3337 56.1375 49.0502 53.43C50.208 52.138 51.6785 51.1653 53.3207 50.6055C53.5056 50.5579 53.6724 50.4562 53.7995 50.3136C53.9267 50.1709 54.0086 49.9938 54.0347 49.8045L54.5327 46.3155C53.0567 45.642 51.9827 44.205 51.9827 41.703C51.9827 35.8395 54.9137 29.9775 58.8227 29.9775C61.6754 30.1378 64.4972 30.6528 67.2227 31.5105C68.1038 31.7688 68.8655 32.3298 69.3737 33.0945L71.6702 36.534C72.2097 37.345 73.0314 37.9266 73.9757 38.166L76.4777 38.7915V41.7C76.4774 41.8284 76.5026 41.9554 76.5515 42.0741C76.6005 42.1927 76.6724 42.3006 76.7631 42.3915C76.8539 42.4822 76.9616 42.5544 77.0801 42.6034C77.1987 42.6526 77.3258 42.678 77.4542 42.678H80.2397C80.0823 44.0115 79.5468 45.2721 78.6963 46.311C77.8458 47.35 76.7157 48.1239 75.4397 48.5415C72.4296 48.5745 69.4446 49.0936 66.6002 50.079C66.4778 50.1252 66.3663 50.1961 66.2727 50.2873C66.179 50.3785 66.105 50.488 66.0555 50.6091C66.006 50.7301 65.9819 50.86 65.9847 50.9908C65.9876 51.1215 66.0174 51.2502 66.0722 51.369C67.7133 54.4069 68.5983 57.7956 68.6522 61.248C68.5772 64.8717 67.188 68.3448 64.7432 71.0205V82.7475C64.7432 82.7475 68.5937 83.724 68.5937 86.655H41.2937C39.3437 86.655 37.3847 85.239 37.3847 84.705C28.5887 84.705 24.6797 78.8415 24.6797 74.9325C24.7995 72.2211 25.4631 69.5613 26.6312 67.1115Z" fill="white"/>
<path d="M60.7894 30.1125C60.1366 30.0285 59.4795 29.9835 58.8214 29.9775C54.9124 29.9775 51.9814 35.8395 51.9814 41.703C51.9814 44.205 53.0554 45.642 54.5314 46.3155L54.0334 49.8C54.0073 49.9893 53.9254 50.1664 53.7982 50.3091C53.6712 50.4517 53.5044 50.5534 53.3194 50.601C51.6774 51.1623 50.2072 52.1365 49.0504 53.43C46.3339 56.1375 38.1679 69.8775 37.1524 77.832C37.0834 78.363 28.193 72.927 27.752 73.2315C28.1375 73.335 32.1725 78.906 33.5915 79.8315C38.6525 83.1315 41.6224 78.8445 42.3094 76.452C42.3541 76.3047 42.3878 76.1542 42.41 76.002C43.427 68.052 48.8164 60.6495 51.5329 57.942C55.0954 54.7545 57.7204 54.0795 58.7719 49.629L60.0019 45.642C58.5259 44.9685 55.9519 44.1795 54.9139 41.7015C52.8274 36.75 57.3739 30.9795 60.7894 30.1125Z" fill="#E5E5E5"/>
<path d="M23.7988 73.9215C23.7988 77.838 27.7138 83.712 36.5263 83.712C36.5263 84.2505 38.4853 85.662 40.4428 85.662H43.3798C42.1663 85.662 40.9543 85.1175 40.2058 84.5745C39.4749 84.0402 38.614 83.7117 37.7128 83.6235C30.1303 82.905 26.7358 77.5605 26.7358 73.914C26.7424 73.0482 26.8267 72.1848 26.9878 71.334C26.139 69.7167 25.7152 67.9101 25.7563 66.084C24.5841 68.5384 23.9184 71.2041 23.7988 73.9215Z" fill="#E5E5E5"/>
<path d="M73.1125 47.7975C73.1125 47.7975 69.3625 47.7225 66.163 47.823C65.7432 47.8368 65.3329 47.9523 64.9675 48.1596C64.6021 48.3669 64.2925 48.6597 64.0654 49.0131C63.8382 49.3665 63.7002 49.7697 63.6631 50.1882C63.6262 50.6066 63.6913 51.0278 63.853 51.4155C65.0005 54.183 66.3025 58.119 65.8315 60.8655C65.0305 65.529 61.7305 67.029 61.4305 69.3285C61.1305 71.628 61.9315 86.652 61.9315 86.652H68.593C68.593 86.652 68.3545 82.959 64.7425 82.7445V71.0205C64.7425 71.0205 69.64 65.8815 68.593 59.031C67.546 52.1805 65.308 52.239 66.055 50.6085C66.802 48.978 73.1125 47.7975 73.1125 47.7975Z" fill="#B2B2B2"/>
<path d="M75.7402 49.4715C81.1657 47.664 81.4042 42.108 81.3487 40.449C81.3339 40.0256 81.1815 39.6185 80.9146 39.2894C80.6478 38.9603 80.2809 38.727 79.8697 38.625L74.2012 37.209C73.4956 37.0341 72.8803 36.6033 72.4747 36L70.1752 32.55C69.5434 31.5965 68.596 30.896 67.4992 30.5715C64.6842 29.6895 61.7703 29.1615 58.8247 28.9995C54.1492 28.9995 50.9992 35.568 50.9992 41.7C50.9239 42.6731 51.0996 43.6491 51.5095 44.5347C51.9196 45.4203 52.5501 46.1859 53.3407 46.758C53.3812 46.785 53.4277 46.803 53.4682 46.8285L53.0647 49.6635C51.2547 50.2604 49.6321 51.3198 48.3577 52.737C45.3217 55.7595 38.4772 67.887 37.4557 75.8775C37.4401 76.0014 37.3993 76.1208 37.3359 76.2284C37.2724 76.3361 37.1877 76.4295 37.0867 76.503C36.9816 76.5815 36.8614 76.6376 36.7336 76.6679C36.606 76.698 36.4734 76.7016 36.3442 76.6785C33.0802 76.1205 27.6082 74.1285 27.6082 67.1085C27.6115 66.8859 27.5386 66.6689 27.4017 66.4934C27.2647 66.3179 27.072 66.1944 26.8552 66.1434C26.6386 66.0924 26.4109 66.1172 26.2101 66.2133C26.0094 66.3093 25.8474 66.4713 25.7512 66.672C24.5131 69.2538 23.8149 72.0611 23.6992 74.922C23.6992 79.293 27.7717 85.422 36.8062 85.6605C37.3869 86.2676 38.082 86.7536 38.8516 87.0903C39.6211 87.4271 40.4499 87.608 41.2897 87.6225H68.5897C68.8488 87.6225 69.097 87.5196 69.2802 87.3365C69.4633 87.1533 69.5662 86.9051 69.5662 86.646C69.5662 83.8665 67.0162 82.5315 65.7202 82.032V71.382C66.3232 70.6914 66.8634 69.9485 67.3342 69.162C68.6122 67.032 69.2572 64.419 69.4747 63.0195C69.7747 61.443 67.6402 60.2445 67.6447 62.0625C67.4677 64.407 67.2997 65.625 65.6602 68.1525C65.2 68.9318 64.66 69.6612 64.0492 70.329C63.8664 70.5126 63.7639 70.7613 63.7642 71.0205V82.7475C63.7626 82.9656 63.8341 83.178 63.9673 83.3507C64.1005 83.5233 64.2879 83.6463 64.4992 83.7C64.5217 83.7 66.6472 84.276 67.3702 85.6845H61.4467C61.0041 84.7836 60.3633 83.9948 59.5722 83.3769C58.7812 82.7592 57.8605 82.3286 56.8792 82.1175C57.5466 81.4251 58.0675 80.6054 58.411 79.7073C58.7547 78.8091 58.9137 77.8509 58.8787 76.89C58.9018 75.3837 58.5733 73.8929 57.9196 72.5358C57.2658 71.1786 56.3046 69.9927 55.1122 69.072C54.0636 68.3367 52.8519 67.8678 51.5814 67.7058C50.311 67.5438 49.0203 67.6935 47.8207 68.142C47.6988 68.1825 47.586 68.2467 47.4889 68.3309C47.3919 68.415 47.3122 68.5176 47.2546 68.6325C47.1972 68.7474 47.1628 68.8725 47.1537 69.0006C47.1445 69.1289 47.1606 69.2576 47.2012 69.3795C47.2419 69.5015 47.3061 69.6141 47.3902 69.7113C47.4744 69.8084 47.5768 69.888 47.6917 69.9456C47.8066 70.0031 47.9317 70.0374 48.0598 70.0466C48.1881 70.0557 48.3168 70.0395 48.4387 69.999C49.3435 69.6453 50.3214 69.5198 51.286 69.6333C52.2508 69.7469 53.1727 70.0961 53.9707 70.65C54.9132 71.3886 55.6707 72.3365 56.1832 73.4184C56.6959 74.5005 56.9496 75.687 56.9242 76.884C56.9242 80.9595 53.7877 81.7905 53.7562 81.7995C53.5239 81.8568 53.3206 81.9975 53.1852 82.1949C53.0497 82.3922 52.9915 82.6325 53.0214 82.8699C53.0514 83.1074 53.1676 83.3255 53.3478 83.483C53.5281 83.6405 53.7598 83.7263 53.9992 83.724C56.9302 83.724 58.4197 84.7845 59.1577 85.674H46.1752C45.658 85.674 45.1621 85.4685 44.7964 85.1028C44.4307 84.7371 44.2252 84.2412 44.2252 83.724C44.206 83.4786 44.0949 83.2496 43.9141 83.0825C43.7334 82.9154 43.4964 82.8225 43.2502 82.8225C43.0041 82.8225 42.7671 82.9154 42.5863 83.0825C42.4056 83.2496 42.2944 83.4786 42.2752 83.724C42.2803 84.4106 42.4678 85.0836 42.8182 85.674H41.2897C40.1901 85.6322 39.1408 85.2017 38.3287 84.459C38.2756 84.2478 38.1535 84.0603 37.9818 83.9264C37.81 83.7924 37.5985 83.7197 37.3807 83.7195C29.3797 83.7195 25.6537 78.4695 25.6537 74.925C25.6747 73.6088 25.8667 72.3008 26.2252 71.034C27.9997 76.584 33.4252 78.1605 36.0127 78.6045C36.4018 78.6717 36.8005 78.6596 37.1848 78.5688C37.5693 78.4781 37.9312 78.3107 38.2492 78.0765C38.5632 77.8469 38.8269 77.5554 39.024 77.22C39.2211 76.8848 39.3474 76.5126 39.3952 76.1265C40.3852 68.382 47.1637 56.688 49.7377 54.1215C50.7763 52.9508 52.0972 52.0652 53.5747 51.549C53.943 51.452 54.2743 51.2486 54.5275 50.9642C54.7807 50.6798 54.9444 50.327 54.9982 49.95L55.3357 47.592C56.8878 47.8953 58.4944 47.7449 59.9632 47.1585C60.5106 46.9428 60.9799 46.5668 61.3098 46.0796C61.6396 45.5924 61.8144 45.0168 61.8112 44.4285V37.8C61.792 37.5546 61.6809 37.3256 61.5001 37.1585C61.3194 36.9914 61.0824 36.8985 60.8362 36.8985C60.5901 36.8985 60.3531 36.9914 60.1723 37.1585C59.9916 37.3256 59.8804 37.5546 59.8612 37.8V44.4345C59.8614 44.6306 59.8032 44.8221 59.6938 44.9849C59.5846 45.1476 59.4292 45.2741 59.2477 45.348C58.4878 45.6917 57.658 45.8531 56.8246 45.8192C55.9912 45.7853 55.1773 45.5571 54.4477 45.153C53.928 44.751 53.5189 44.2235 53.2593 43.62C52.9995 43.0164 52.8975 42.3569 52.9627 41.703C52.9627 36.078 55.7572 30.954 58.8262 30.954C61.588 31.1183 64.3191 31.6221 66.9577 32.454C67.615 32.6481 68.1831 33.0671 68.5627 33.6375L70.8622 37.0875C71.5353 38.0997 72.5626 38.8236 73.7422 39.117L75.5002 39.558V41.7C75.5002 42.2172 75.7057 42.7131 76.0714 43.0788C76.4371 43.4445 76.933 43.65 77.4502 43.65H78.9892C78.7284 44.5526 78.2539 45.3789 77.6062 46.0593C76.9584 46.7397 76.1563 47.2541 75.2677 47.559C72.1896 47.6007 69.1387 48.1428 66.2347 49.164C65.9893 49.2624 65.7663 49.4094 65.5789 49.596C65.3916 49.7826 65.2437 50.0051 65.1442 50.25C65.0463 50.4924 64.999 50.7524 65.0055 51.0137C65.0119 51.275 65.0719 51.5322 65.1817 51.7695L65.4307 52.3095C66.8826 55.0644 67.654 58.1267 67.6807 61.2405C67.6807 61.7805 67.3807 65.034 68.4127 65.1555C69.3697 65.268 69.6352 61.7805 69.6352 61.2405C69.6088 57.8448 68.7787 54.5037 67.2127 51.4905L66.9667 50.9595C69.697 50.0369 72.5554 49.5498 75.4372 49.5165C75.5427 49.5165 75.6475 49.4999 75.7477 49.467L75.7402 49.4715ZM79.3642 41.7H77.4457V40.05L79.3957 40.539C79.408 40.9263 79.3975 41.3139 79.3642 41.7Z" fill="black"/>
<path d="M58.6826 69.2415L66.0581 76.7025L58.5971 84.0795C57.7021 84.9641 57.1949 86.168 57.1876 87.4265C57.1801 88.6848 57.6728 89.8947 58.5574 90.7898C59.4419 91.6848 60.6458 92.192 61.9043 92.1993C63.1627 92.2068 64.3726 91.7141 65.2676 90.8295L86.9351 69.4035C87.3784 68.9657 87.731 68.4447 87.9728 67.8705C88.2148 67.2963 88.3412 66.6801 88.345 66.0572C88.3487 65.4341 88.2298 64.8164 87.9947 64.2393C87.7598 63.6623 87.4135 63.1373 86.9756 62.694C86.5378 62.2508 86.0168 61.8981 85.4426 61.6563C84.8686 61.4144 84.2524 61.2879 83.6293 61.2842C83.0063 61.2804 82.3886 61.3994 81.8116 61.6344C81.2345 61.8693 80.7094 62.2157 80.2661 62.6535L72.8051 70.0305L65.4281 62.5695C64.5437 61.6745 63.3401 61.1673 62.0818 61.1597C60.8236 61.152 59.6138 61.6446 58.7186 62.529C57.8236 63.4134 57.3164 64.6172 57.3088 65.8754C57.3013 67.1337 57.7937 68.3435 58.6781 69.2385L58.6826 69.2415Z" fill="white"/>
<path d="M86.8511 84.24L79.4741 76.779L86.9351 69.4035C87.8303 68.5191 88.3373 67.3153 88.345 66.0571C88.3526 64.7988 87.8601 63.589 86.9757 62.694C86.0913 61.7989 84.8876 61.2918 83.6293 61.2841C82.3711 61.2765 81.1612 61.7691 80.2661 62.6535L58.5971 84.0795C57.7021 84.9641 57.1949 86.168 57.1876 87.4265C57.1801 88.6848 57.6728 89.8947 58.5574 90.7898C59.4419 91.6848 60.6458 92.192 61.9043 92.1993C63.1627 92.2068 64.3726 91.7141 65.2676 90.8295L72.7286 83.454L80.1011 90.9105C80.9857 91.8056 82.1896 92.3127 83.4481 92.3201C84.7064 92.3276 85.9163 91.8348 86.8114 90.9503C87.7066 90.0657 88.2136 88.8618 88.2211 87.6033C88.2284 86.345 87.7357 85.1351 86.8511 84.24Z" fill="#B2B2B2"/>
<path d="M84.849 82.2165L77.472 74.7555L84.933 67.38C86.7675 65.5665 88.083 63.894 86.2665 62.0595C85.3878 61.1733 84.1956 60.6686 82.9478 60.6542C81.6998 60.6399 80.4964 61.1172 79.5976 61.983L72.1365 69.3585L67.4686 64.6365C67.0307 64.1933 66.5098 63.8406 65.9356 63.5988C65.3615 63.3569 64.7453 63.2304 64.1222 63.2267C62.864 63.219 61.6541 63.7116 60.759 64.596C59.864 65.4804 59.3569 66.6842 59.3492 67.9424C59.3417 69.2007 59.8342 70.4105 60.7186 71.3055L65.3881 76.029L57.9301 83.4C57.0538 84.2886 56.5625 85.4865 56.5625 86.7345C56.5625 87.9825 57.0538 89.1804 57.9301 90.069C59.7421 91.902 61.4311 90.609 63.2641 88.797L70.725 81.4215L78.1005 88.8825C78.9851 89.7776 80.189 90.2847 81.4475 90.2921C82.7058 90.2996 83.9158 89.8068 84.8108 88.9223C85.7059 88.0377 86.213 86.8338 86.2205 85.5753C86.2278 84.317 85.7351 83.1071 84.8505 82.212L84.849 82.2165Z" fill="#EFEFEF"/>
<path d="M57.9246 91.4145C56.8635 90.3517 56.2676 88.9113 56.2676 87.4095C56.2676 85.9077 56.8635 84.4672 57.9246 83.4045L64.7106 76.695L58.0011 69.909C56.9397 68.8348 56.3486 67.3831 56.3576 65.8731C56.3666 64.363 56.975 62.9184 58.0491 61.857C59.1233 60.7956 60.5751 60.2044 62.085 60.2134C63.5951 60.2224 65.0397 60.8308 66.1011 61.905L72.8106 68.691L79.5966 61.983C80.6708 60.9216 82.1225 60.3304 83.6325 60.3394C85.1426 60.3484 86.5872 60.9568 87.6486 62.031C88.71 63.1051 89.3013 64.5568 89.2923 66.0669C89.2833 67.5769 88.6748 69.0216 87.6006 70.083L80.8146 76.791L87.5241 83.577C88.5041 84.6666 89.0268 86.0917 88.9838 87.5565C88.9406 89.0212 88.335 90.4132 87.2927 91.4433C86.2502 92.4733 84.8511 93.0622 83.3859 93.0879C81.9207 93.1135 80.5019 92.5738 79.4241 91.581L72.7206 84.7905L65.9346 91.5C64.8603 92.5494 63.4137 93.1299 61.9119 93.1138C60.4103 93.0978 58.9763 92.4867 57.9246 91.4145ZM64.7541 63.24C64.0466 62.5239 63.0836 62.1183 62.0769 62.1121C61.0703 62.1061 60.1025 62.5002 59.3864 63.2077C58.6703 63.9153 58.2647 64.8783 58.2585 65.8849C58.2525 66.8916 58.6466 67.8594 59.3541 68.5755L66.7296 76.0365C66.8174 76.125 66.8868 76.2298 66.9341 76.3452C66.9812 76.4605 67.005 76.584 67.0044 76.7085C67.0037 76.8331 66.9783 76.9563 66.9299 77.0712C66.8816 77.1859 66.8109 77.29 66.7221 77.3775L59.2641 84.75C58.548 85.4575 58.1424 86.4205 58.1363 87.4272C58.1303 88.4338 58.5243 89.4016 59.2319 90.1177C59.9394 90.8338 60.9024 91.2396 61.9091 91.2456C62.9157 91.2516 63.8835 90.8575 64.5996 90.15L72.0606 82.7745C72.1485 82.6863 72.2531 82.6162 72.3681 82.5684C72.4832 82.5207 72.6066 82.4961 72.7311 82.4961C72.8558 82.4961 72.9791 82.5207 73.0941 82.5684C73.2092 82.6162 73.3137 82.6863 73.4016 82.7745L80.7786 90.2355C81.4862 90.9516 82.4492 91.3573 83.4558 91.3633C84.4625 91.3693 85.4303 90.9753 86.1464 90.2677C86.8625 89.5602 87.2682 88.5972 87.2742 87.5905C87.2802 86.5839 86.8862 85.6161 86.1786 84.9L78.8031 77.439C78.7149 77.3511 78.6449 77.2465 78.597 77.1315C78.5493 77.0164 78.5247 76.8931 78.5247 76.7685C78.5247 76.6438 78.5493 76.5205 78.597 76.4055C78.6449 76.2904 78.7149 76.1859 78.8031 76.098L86.2641 68.721C86.9802 68.0133 87.3858 67.05 87.3918 66.0433C87.3976 65.0365 87.0033 64.0686 86.2956 63.3525C85.5879 62.6364 84.6248 62.2308 83.618 62.2249C82.6112 62.2189 81.6432 62.6133 80.9271 63.321L73.4676 70.698C73.2882 70.8744 73.0461 70.9725 72.7946 70.9708C72.5429 70.9692 72.3023 70.8678 72.1251 70.689L64.7541 63.24Z" fill="white"/>
<path d="M65.284 62.709C64.4974 61.9461 63.4658 61.4869 62.3725 61.413C61.3349 61.3434 60.3058 61.6395 59.464 62.25C58.5659 62.892 57.9295 63.8362 57.6715 64.9095C57.4307 65.9625 57.565 67.0663 58.051 68.031C58.4215 68.7675 59.0335 69.321 59.605 69.8985L62.035 72.357L64.7125 75.066C65.2 75.558 65.6905 76.0455 66.172 76.542L66.196 76.566C66.289 76.656 66.178 76.512 66.205 76.566C66.283 76.737 66.205 76.488 66.2365 76.6185C66.244 76.6455 66.2485 76.6755 66.2575 76.701C66.286 76.791 66.2455 76.6395 66.25 76.644C66.2545 76.6485 66.238 76.7595 66.25 76.7595C66.262 76.7595 66.2905 76.6095 66.25 76.731C66.2425 76.758 66.232 76.785 66.226 76.812C66.202 76.899 66.2395 76.7595 66.244 76.764C66.2308 76.7892 66.2162 76.8138 66.2005 76.8375C66.157 76.9245 66.2875 76.7595 66.211 76.821C66.202 76.821 66.1945 76.839 66.1855 76.8465L66.1435 76.887C65.9605 77.07 65.776 77.25 65.593 77.4315L63.2545 79.7445L60.5005 82.467L58.816 84.15C58.226 84.73 57.8032 85.4584 57.592 86.2585C57.3808 87.0586 57.389 87.9007 57.616 88.6965C58.2295 90.777 60.328 92.205 62.4955 91.9305C63.4894 91.8132 64.4182 91.3756 65.1415 90.684C65.2765 90.5535 65.41 90.4185 65.5435 90.2865L67.7245 88.1295L70.501 85.371L72.406 83.4885C72.46 83.4345 72.5155 83.379 72.571 83.3265C72.583 83.313 72.601 83.2995 72.613 83.286C72.673 83.214 72.574 83.3235 72.5725 83.313C72.571 83.3025 72.6385 83.274 72.646 83.268C72.721 83.2065 72.5275 83.2965 72.6235 83.268C72.6505 83.268 72.679 83.2515 72.7045 83.244C72.8365 83.205 72.595 83.244 72.733 83.244C72.751 83.244 72.8515 83.244 72.748 83.244C72.6445 83.244 72.7915 83.259 72.817 83.265C72.8425 83.271 72.8995 83.316 72.832 83.265C72.7645 83.214 72.832 83.265 72.844 83.2785C72.955 83.364 72.775 83.199 72.8725 83.304L72.9175 83.349L73.1275 83.562L75.127 85.584L77.884 88.3725L79.951 90.465C80.0785 90.594 80.203 90.726 80.3365 90.8505C81.1385 91.5934 82.1782 92.0278 83.2705 92.076C85.432 92.175 87.4705 90.6045 87.8905 88.476C88.1095 87.4158 87.9503 86.3125 87.4405 85.3575C87.2105 84.9468 86.9231 84.571 86.587 84.2415L84.796 82.431L82.054 79.6575L79.8265 77.4075C79.6765 77.2575 79.5145 77.0955 79.3615 76.938C79.3405 76.9155 79.2745 76.839 79.327 76.908C79.408 77.01 79.24 76.758 79.3075 76.878C79.351 76.953 79.3075 76.878 79.3075 76.8615C79.2931 76.8261 79.2839 76.7886 79.2805 76.7505C79.2805 76.7505 79.2805 76.9005 79.2925 76.806V76.719C79.2925 76.719 79.255 76.869 79.2925 76.7775C79.3015 76.752 79.312 76.6515 79.333 76.641C79.354 76.6305 79.2565 76.7625 79.3195 76.6905C79.327 76.6815 79.3525 76.62 79.3645 76.6185C79.3495 76.6185 79.273 76.7175 79.3645 76.638H79.3735C79.39 76.623 79.405 76.6065 79.4215 76.59L81.001 74.9865L83.74 72.279L86.1265 69.9195L86.7265 69.3285C87.191 68.866 87.5555 68.3131 87.7975 67.704C88.6165 65.6805 87.742 63.282 85.8925 62.169C85.0318 61.665 84.0305 61.4548 83.0399 61.57C82.0492 61.6854 81.1229 62.1199 80.401 62.808C79.951 63.249 79.501 63.7005 79.051 64.1475L76.366 66.792L73.849 69.2805L73.114 70.008L72.9565 70.158L72.9445 70.17C72.8545 70.266 73 70.152 72.9355 70.1805C72.9119 70.1965 72.8873 70.2111 72.862 70.224C72.862 70.2165 72.9985 70.1835 72.91 70.203L72.8275 70.2285C72.709 70.2645 72.856 70.2045 72.8575 70.2285C72.859 70.2525 72.7765 70.2285 72.7705 70.2285C72.679 70.239 72.829 70.2285 72.8275 70.239C72.826 70.2495 72.598 70.1355 72.7 70.206C72.802 70.2765 72.6895 70.1895 72.664 70.176C72.5845 70.137 72.709 70.1985 72.703 70.2075L72.6595 70.167L72.6505 70.1565C72.634 70.1385 72.616 70.122 72.5995 70.1055L72.3835 69.8865L71.551 69.054L68.9665 66.4395L66.3925 63.8355L65.278 62.709V63.7695C65.4185 63.6288 65.4976 63.4381 65.4976 63.2392C65.4976 63.0403 65.4185 62.8497 65.278 62.709C65.1355 62.5719 64.9454 62.4954 64.7477 62.4954C64.55 62.4954 64.36 62.5719 64.2175 62.709C64.0798 62.8512 64.0027 63.0412 64.0027 63.2392C64.0027 63.4372 64.0798 63.6273 64.2175 63.7695L65.401 64.95L67.951 67.5345L70.501 70.1085L71.3215 70.938C71.4881 71.1189 71.6698 71.2855 71.8645 71.436C72.4915 71.886 73.3435 71.778 73.9195 71.3085C73.9765 71.262 74.0275 71.211 74.08 71.1585L74.6665 70.578L77.0215 68.25L79.7425 65.5605L81.3925 63.93C81.4315 63.8925 81.469 63.8535 81.5095 63.816C81.55 63.7785 81.604 63.7305 81.6595 63.6885C81.6595 63.6885 81.724 63.6375 81.7225 63.636C81.721 63.6345 81.6085 63.72 81.6775 63.6705C81.7795 63.597 81.883 63.5205 81.9895 63.4605C82.096 63.4005 82.189 63.345 82.2895 63.2955C82.3412 63.2778 82.3915 63.2557 82.4395 63.2295C82.4395 63.2295 82.303 63.282 82.381 63.255L82.4785 63.2175C82.6991 63.1398 82.9259 63.0805 83.1565 63.0405C83.3065 63.015 83.017 63.054 83.1565 63.0405L83.3365 63.024C83.449 63.024 83.56 63.024 83.6725 63.024C83.785 63.024 83.8945 63.039 84.007 63.048C84.0925 63.0555 83.935 63.039 83.935 63.039C83.9602 63.0445 83.9858 63.0486 84.0115 63.051C84.079 63.063 84.148 63.0765 84.214 63.0915C84.3235 63.1155 84.433 63.1455 84.5395 63.18L84.6895 63.231L84.7615 63.2595C84.859 63.2925 84.6355 63.1995 84.7285 63.2445C84.9454 63.3427 85.1537 63.4591 85.351 63.5925C85.3765 63.6105 85.453 63.687 85.4815 63.687C85.4815 63.687 85.3735 63.5985 85.4365 63.654C85.456 63.672 85.4785 63.6885 85.4995 63.7065C85.597 63.789 85.69 63.8775 85.78 63.9705C85.87 64.0635 85.939 64.1475 86.014 64.239C86.0695 64.305 85.978 64.1955 85.9795 64.194C85.9939 64.2168 86.0093 64.2388 86.026 64.26C86.068 64.3185 86.107 64.377 86.146 64.4385C86.2015 64.5285 86.254 64.62 86.296 64.7145C86.3245 64.77 86.35 64.8255 86.377 64.881C86.386 64.899 86.4175 64.983 86.377 64.881C86.3365 64.779 86.377 64.893 86.389 64.9125C86.4718 65.1312 86.534 65.3572 86.575 65.5875L86.5885 65.664C86.605 65.748 86.5795 65.5935 86.5795 65.5935C86.5795 65.643 86.5915 65.697 86.596 65.7435C86.605 65.8635 86.6095 65.985 86.608 66.105C86.6065 66.225 86.6005 66.3285 86.59 66.4395C86.5849 66.4647 86.5819 66.4903 86.581 66.516C86.581 66.516 86.6065 66.366 86.59 66.444C86.5795 66.504 86.5705 66.564 86.5585 66.6225C86.536 66.7335 86.509 66.8415 86.476 66.9495C86.4595 67.008 86.44 67.0665 86.4205 67.1235C86.4085 67.1535 86.3485 67.329 86.383 67.2285C86.4175 67.128 86.359 67.2795 86.3455 67.3065C86.32 67.362 86.2915 67.4175 86.263 67.4715C86.209 67.5735 86.149 67.6725 86.086 67.7715C86.0515 67.824 86.014 67.875 85.978 67.9215C85.8955 68.037 86.0545 67.833 85.9615 67.941C85.8895 68.025 85.819 68.1075 85.741 68.187L85.6495 68.277L85.024 68.895L82.651 71.2575L79.939 73.9365L78.343 75.516C78.0128 75.8251 77.8168 76.2514 77.7968 76.7032C77.777 77.1552 77.9348 77.5969 78.2365 77.934C78.346 78.057 78.466 78.1695 78.5815 78.2865L80.6095 80.337L83.3365 83.1L85.351 85.14C85.4755 85.266 85.603 85.3875 85.7215 85.518C85.7635 85.566 85.804 85.617 85.846 85.668C85.888 85.719 85.813 85.6305 85.813 85.623C85.813 85.6155 85.8535 85.6785 85.8625 85.689C85.936 85.7895 86.0035 85.8945 86.068 86.0025C86.1325 86.1105 86.179 86.2035 86.227 86.3025C86.239 86.3265 86.2495 86.3505 86.26 86.3745C86.296 86.451 86.236 86.319 86.236 86.316C86.2499 86.376 86.2715 86.434 86.3005 86.4885C86.3365 86.595 86.3695 86.703 86.3965 86.8125C86.4235 86.922 86.428 87.0585 86.467 87.1665C86.467 87.1665 86.4505 87.0165 86.458 87.096C86.458 87.1215 86.458 87.147 86.458 87.1725C86.458 87.2235 86.467 87.276 86.47 87.3225C86.47 87.4425 86.47 87.564 86.47 87.684C86.47 87.744 86.47 87.804 86.4595 87.864C86.4595 87.894 86.431 88.059 86.452 87.9435C86.473 87.828 86.443 87.9945 86.437 88.023C86.425 88.0905 86.41 88.158 86.395 88.2255C86.3695 88.326 86.341 88.425 86.3095 88.5255C86.29 88.584 86.269 88.641 86.248 88.698C86.248 88.716 86.212 88.8015 86.248 88.698C86.284 88.5945 86.248 88.707 86.233 88.728C86.1338 88.9456 86.0138 89.1531 85.8745 89.3475L85.828 89.412C85.7785 89.481 85.8595 89.367 85.8625 89.367C85.8247 89.4066 85.7896 89.4486 85.7575 89.493C85.672 89.589 85.582 89.682 85.4875 89.7705C85.4485 89.808 85.4065 89.844 85.366 89.88C85.3255 89.916 85.186 90.0165 85.2715 89.958C85.357 89.8995 85.2175 89.994 85.195 90.009C85.136 90.049 85.076 90.088 85.015 90.126C84.925 90.18 84.832 90.2299 84.736 90.276C84.6781 90.2965 84.6223 90.3226 84.5695 90.354C84.5695 90.354 84.706 90.3 84.628 90.3285C84.595 90.339 84.5635 90.3525 84.5305 90.3645C84.3191 90.4419 84.1013 90.5001 83.8795 90.5385C83.6875 90.5715 83.9875 90.5385 83.848 90.5385L83.698 90.552C83.578 90.5595 83.458 90.5625 83.338 90.5595C83.218 90.5565 83.1145 90.546 83.0035 90.537C82.918 90.5295 83.0755 90.546 83.0755 90.546C83.0503 90.5406 83.0248 90.5365 82.999 90.534C82.939 90.5235 82.879 90.513 82.8205 90.4995C82.711 90.4755 82.6015 90.447 82.495 90.4125L82.345 90.363C82.312 90.351 82.2805 90.3375 82.2475 90.327C82.15 90.2925 82.3735 90.3855 82.2805 90.342C82.0717 90.247 81.871 90.1351 81.6805 90.0075C81.6275 89.9752 81.5774 89.9385 81.5305 89.898C81.6205 89.985 81.571 89.9295 81.5125 89.8785C81.454 89.8275 81.3745 89.757 81.3085 89.6925C81.1915 89.577 81.0775 89.46 80.962 89.343L78.901 87.2775L76.168 84.513L74.194 82.5165C74.0134 82.3098 73.8055 82.1286 73.576 81.978C73.256 81.7989 72.8873 81.7261 72.5233 81.7702C72.1592 81.8145 71.8187 81.9735 71.551 82.224C71.515 82.257 71.482 82.2915 71.4475 82.326L69.781 83.976L67.057 86.676L64.7215 88.986L64.1365 89.5635C64.075 89.625 64.012 89.685 63.946 89.7435C63.925 89.7615 63.7735 89.8935 63.8545 89.8245C63.9355 89.7555 63.8005 89.862 63.778 89.8785C63.676 89.9509 63.5704 90.018 63.4615 90.0795C63.37 90.132 63.2755 90.18 63.1795 90.2295C63.007 90.309 63.268 90.1995 63.1405 90.246L62.9695 90.3075C62.8615 90.3435 62.7535 90.3735 62.644 90.4005C62.593 90.4125 62.5435 90.423 62.494 90.432L62.4175 90.4455C62.3035 90.465 62.3605 90.4455 62.437 90.4455C62.215 90.4455 61.987 90.48 61.768 90.468C61.717 90.468 61.666 90.468 61.618 90.4575C61.5836 90.4576 61.5494 90.4536 61.516 90.4455C61.516 90.4455 61.6735 90.471 61.588 90.4545C61.468 90.432 61.3495 90.4125 61.2325 90.3825C61.1155 90.3525 61.033 90.327 60.9325 90.2925C60.8723 90.2815 60.8144 90.2602 60.7615 90.2295C60.7615 90.2295 60.898 90.2895 60.82 90.2535L60.7255 90.21C60.515 90.1113 60.3142 89.9934 60.1255 89.8575C59.9755 89.748 60.187 89.9145 60.085 89.826L59.9605 89.7195C59.8646 89.6334 59.7736 89.5423 59.6875 89.4465C59.65 89.406 59.614 89.364 59.5795 89.322L59.5285 89.259C59.461 89.1795 59.6035 89.3685 59.5465 89.2815C59.4895 89.1945 59.4145 89.091 59.3545 88.992C59.2945 88.893 59.242 88.791 59.1925 88.692C59.1805 88.668 59.116 88.5135 59.155 88.614C59.194 88.7145 59.1205 88.518 59.1085 88.485C59.0401 88.264 58.9876 88.0384 58.951 87.81C58.9345 87.726 58.96 87.882 58.96 87.882C58.96 87.849 58.951 87.813 58.948 87.78C58.945 87.747 58.939 87.6765 58.936 87.63C58.936 87.51 58.9285 87.3885 58.936 87.2685C58.9435 87.1485 58.963 87.0615 58.9615 86.9685C58.9615 87.1635 58.9615 87.0015 58.969 86.937C58.9765 86.8725 58.9915 86.8185 59.0065 86.76C59.032 86.6505 59.062 86.5425 59.0965 86.4345C59.113 86.385 59.131 86.3355 59.149 86.2845C59.162 86.2615 59.1716 86.2368 59.1775 86.211L59.152 86.2695L59.1745 86.2215C59.2696 86.0112 59.384 85.8103 59.5165 85.6215L59.5645 85.5555C59.6305 85.4625 59.5645 85.584 59.545 85.5795C59.5829 85.5396 59.6185 85.4976 59.6515 85.4535C59.6995 85.398 59.7505 85.3425 59.8015 85.29L59.9065 85.1865L61.618 83.4945L64.351 80.7945L66.664 78.5085L67.21 77.9685C67.3751 77.8113 67.5076 77.6232 67.6 77.4147C67.6924 77.2063 67.7428 76.9818 67.7483 76.7539C67.7539 76.5261 67.7146 76.2993 67.6325 76.0866C67.5503 75.8739 67.4272 75.6795 67.27 75.5145C66.8845 75.1065 66.481 74.7165 66.0865 74.3145L63.5155 71.7135L60.9805 69.15C60.568 68.7315 60.1225 68.328 59.7385 67.8795C59.722 67.8585 59.7055 67.8375 59.686 67.8165C59.6305 67.755 59.719 67.8555 59.719 67.8615C59.719 67.83 59.629 67.7385 59.6095 67.7115C59.539 67.608 59.473 67.503 59.413 67.3935C59.353 67.284 59.3185 67.2045 59.272 67.1085C59.2255 67.0125 59.2975 67.1655 59.2975 67.167C59.2877 67.1335 59.2753 67.1008 59.26 67.0695C59.239 67.0125 59.218 66.9555 59.2 66.897C59.167 66.7905 59.137 66.681 59.113 66.5715C59.101 66.5205 59.092 66.4695 59.083 66.4215L59.0695 66.345C59.05 66.243 59.0845 66.495 59.0695 66.3915C59.0452 66.1603 59.0398 65.9275 59.053 65.6955C59.053 65.6445 59.062 65.5935 59.0665 65.5455C59.0785 65.406 59.0395 65.706 59.0665 65.514C59.0864 65.403 59.1104 65.2935 59.1385 65.1855C59.167 65.076 59.2 64.9695 59.239 64.863L59.2675 64.782C59.233 64.881 59.3095 64.6905 59.326 64.656C59.4314 64.4511 59.5523 64.2546 59.6875 64.068C59.737 63.9975 59.656 64.113 59.653 64.1115C59.65 64.11 59.713 64.0395 59.722 64.029C59.758 63.987 59.794 63.945 59.8315 63.906C59.9185 63.8115 60.0115 63.7215 60.1075 63.636L60.2335 63.5295C60.343 63.4395 60.1375 63.597 60.2545 63.516C60.3715 63.435 60.445 63.3855 60.5455 63.327C60.646 63.2685 60.745 63.216 60.8455 63.1665C60.8695 63.156 60.895 63.1455 60.9175 63.1335C60.994 63.0975 60.862 63.1575 60.859 63.159C60.9181 63.1435 60.9754 63.1219 61.03 63.0945C61.235 63.0247 61.4452 62.971 61.6585 62.934C61.801 62.907 61.519 62.946 61.6585 62.934C61.7185 62.934 61.7785 62.922 61.8385 62.919C61.942 62.919 62.0455 62.91 62.1475 62.919C62.2495 62.928 62.371 62.9295 62.482 62.94C62.632 62.9535 62.344 62.916 62.482 62.94L62.6605 62.973C62.77 62.9955 62.8795 63.024 62.986 63.057C63.0814 63.1038 63.1822 63.1384 63.286 63.1605C63.286 63.1605 63.151 63.1005 63.2275 63.1365L63.3235 63.18C63.3715 63.2025 63.418 63.2265 63.4645 63.2505C63.5665 63.3045 63.667 63.363 63.7645 63.426C63.8095 63.4545 63.8545 63.4845 63.898 63.516L63.9625 63.564C64.0315 63.612 63.9205 63.531 63.919 63.5295C64.0261 63.6004 64.1227 63.6862 64.2055 63.7845C64.2746 63.8562 64.3574 63.9132 64.4489 63.9526C64.5404 63.9919 64.6388 64.0126 64.7384 64.0134C64.838 64.0143 64.9367 63.9954 65.029 63.9576C65.1211 63.9199 65.2049 63.8641 65.2753 63.7938C65.3458 63.7234 65.4014 63.6396 65.4391 63.5475C65.4769 63.4552 65.4958 63.3565 65.4949 63.2569C65.4941 63.1573 65.4734 63.0589 65.4341 62.9674C65.3948 62.8759 65.3377 62.7931 65.266 62.724L65.284 62.709Z" fill="black"/>
</svg>
