<svg width="120" height="120" viewBox="0 0 120 120" fill="none" xmlns="http://www.w3.org/2000/svg">
<path d="M26.6253 38.0476H98.2638C98.5025 38.0476 98.7314 38.1424 98.9003 38.3112C99.069 38.4801 99.1638 38.709 99.1638 38.9476V82.6501C99.1638 82.8092 99.1325 82.9669 99.0716 83.1139C99.0107 83.2609 98.9214 83.3945 98.8088 83.507C98.6963 83.6197 98.5626 83.7089 98.4156 83.7698C98.2686 83.8307 98.111 83.8621 97.9518 83.8621H25.3293C24.9344 83.8616 24.5558 83.7046 24.2765 83.4254C23.9973 83.1461 23.8403 82.7675 23.8398 82.3726V40.3876C23.8398 38.1676 24.3753 38.0476 26.6253 38.0476Z" fill="white"/>
<path d="M97.9594 84.3827H25.3309C24.7969 84.382 24.285 84.1694 23.9073 83.7919C23.5297 83.4142 23.3172 82.9022 23.3164 82.3682V40.3877C23.3164 37.7702 24.2239 37.5227 26.6269 37.5227H98.2654C98.6447 37.5232 99.0085 37.6741 99.2769 37.9423C99.5451 38.2106 99.696 38.5744 99.6964 38.9537V82.6502C99.6948 83.11 99.5111 83.5504 99.1856 83.8751C98.8601 84.1999 98.4192 84.3823 97.9594 84.3827ZM26.6269 38.5727C24.5374 38.5727 24.3664 38.5727 24.3664 40.3877V82.3682C24.3669 82.624 24.4686 82.8691 24.6493 83.0498C24.8301 83.2306 25.0752 83.3323 25.3309 83.3327H97.9594C98.1416 83.3327 98.3164 83.2604 98.4451 83.1316C98.5739 83.0027 98.6464 82.828 98.6464 82.6457V38.9537C98.6464 38.8526 98.6062 38.7557 98.5348 38.6843C98.4634 38.6129 98.3665 38.5727 98.2654 38.5727H26.6269Z" fill="black"/>
<path d="M49.9492 73.6277C49.9271 73.2713 49.7921 72.9312 49.5637 72.657C49.3352 72.3827 49.0252 72.1883 48.6787 72.1022L45.7567 71.3657C45.5108 71.3076 45.2723 71.2221 45.0457 71.1107L44.1307 70.6532C43.9168 70.5486 43.7365 70.386 43.6105 70.1838C43.4845 69.9818 43.4179 69.7484 43.4182 69.5102V68.9507C42.8224 69.2841 42.151 69.4592 41.4682 69.4592C40.7833 69.4569 40.1101 69.282 39.5107 68.9507V69.5102C39.5113 69.7482 39.445 69.9816 39.3193 70.1837C39.1936 70.3859 39.0134 70.5485 38.7997 70.6532L37.8847 71.1107C37.658 71.2221 37.4195 71.3076 37.1737 71.3657L34.2517 72.1022C33.905 72.1883 33.5948 72.3825 33.3661 72.6569C33.1373 72.9311 33.002 73.2713 32.9797 73.6277L32.6797 77.3372C32.813 77.3683 32.9492 77.3854 33.0862 77.3882H49.8532C49.99 77.3837 50.126 77.3666 50.2597 77.3372L49.9492 73.6277Z" fill="white"/>
<path d="M45.0216 70.8075L44.2116 70.4175C43.9591 70.2937 43.7464 70.1016 43.5979 69.8629C43.4494 69.6243 43.371 69.3486 43.3716 69.0675V68.4075C42.6654 68.8015 41.8702 69.0081 41.0616 69.0075C40.2534 69.0042 39.4591 68.7979 38.7516 68.4075V69.0675C38.7522 69.3486 38.6737 69.6243 38.5251 69.8629C38.3766 70.1016 38.164 70.2937 37.9116 70.4175L37.1016 70.8075C37.5282 71.47 38.1144 72.015 38.8062 72.3924C39.498 72.7698 40.2735 72.9675 41.0616 72.9675C41.8497 72.9675 42.6252 72.7698 43.317 72.3924C44.0088 72.015 44.5948 71.47 45.0216 70.8075Z" fill="white"/>
<path d="M41.4935 73.4745C40.7219 73.4736 39.963 73.2774 39.2876 72.9042C38.6123 72.5309 38.0423 71.9929 37.631 71.3401C37.5422 71.1946 37.5137 71.0203 37.5515 70.8542C37.5893 70.688 37.6905 70.5433 37.8335 70.4506C37.8528 70.4479 37.8707 70.439 37.8845 70.4251L38.5715 70.0951C38.6814 70.043 38.7737 69.9598 38.8368 69.8558C38.9 69.7519 38.9313 69.6317 38.927 69.5101V68.9506C38.9262 68.867 38.942 68.7842 38.9736 68.7068C39.0053 68.6294 39.0519 68.5592 39.111 68.5001C39.1701 68.441 39.2403 68.3944 39.3177 68.3627C39.395 68.3311 39.4779 68.3153 39.5615 68.3161C39.6665 68.3149 39.7698 68.3413 39.8615 68.3926C40.364 68.6672 40.9275 68.8112 41.5002 68.8112C42.0729 68.8112 42.6365 68.6672 43.139 68.3926C43.2105 68.3501 43.2897 68.3224 43.3721 68.311C43.4544 68.2994 43.5383 68.3045 43.6187 68.3257C43.6991 68.3468 43.7745 68.3839 43.8405 68.4346C43.9064 68.4851 43.9617 68.5484 44.003 68.6206C44.0513 68.7133 44.0774 68.816 44.0795 68.9206V69.4801C44.0784 69.601 44.1111 69.7199 44.1738 69.8233C44.2367 69.9266 44.3271 70.0103 44.435 70.0651L45.1205 70.3951C45.2676 70.4704 45.3795 70.6003 45.4319 70.757C45.4844 70.9138 45.4733 71.0849 45.401 71.2336C45.3983 71.2529 45.3893 71.2709 45.3755 71.2846C44.9684 71.95 44.3981 72.5003 43.7187 72.8835C43.0394 73.2668 42.2735 73.4702 41.4935 73.4745ZM39.1295 71.2126C39.4344 71.522 39.7974 71.7682 40.1976 71.9369C40.5978 72.1057 41.0276 72.1939 41.462 72.1963C41.8962 72.1985 42.3269 72.1151 42.729 71.9507C43.131 71.7863 43.4967 71.5441 43.805 71.2381L43.8305 71.2126C43.5735 71.0852 43.35 70.8992 43.1781 70.6697C43.0061 70.4402 42.8904 70.1735 42.8405 69.8911C41.9622 70.1714 41.0186 70.1714 40.1405 69.8911C40.0857 70.1746 39.9659 70.4414 39.7904 70.6708C39.615 70.9001 39.3887 71.0855 39.1295 71.2126Z" fill="black"/>
<path d="M45.6851 62.5215C45.5998 62.5173 45.5144 62.526 45.4316 62.547V65.8005C45.8458 65.8326 46.2568 65.7074 46.5827 65.4497C46.9085 65.192 47.1253 64.8209 47.1895 64.4105C47.2537 64.0001 47.1607 63.5805 46.9291 63.2357C46.6975 62.8907 46.3444 62.6459 45.9401 62.55C45.857 62.5277 45.7709 62.519 45.6851 62.5245V62.5215Z" fill="white"/>
<path d="M37.5531 65.52V62.5199C37.3379 62.4848 37.1177 62.4925 36.9054 62.5426C36.693 62.5925 36.4926 62.6839 36.3156 62.8114C36.1386 62.9387 35.9883 63.0998 35.8736 63.2854C35.7588 63.4708 35.6817 63.6772 35.6466 63.8924C35.6115 64.1077 35.6192 64.3279 35.6693 64.5401C35.7192 64.7525 35.8106 64.953 35.9381 65.13C36.0654 65.307 36.2265 65.4573 36.4121 65.572C36.5975 65.6868 36.8039 65.7639 37.0191 65.799C37.1961 65.8245 37.376 65.8245 37.5531 65.799V65.52Z" fill="white"/>
<path d="M42.0753 60.7171C40.6278 62.5171 38.4933 62.2681 37.7808 62.1151C37.7276 62.1055 37.6727 62.1152 37.6262 62.1428C37.5795 62.1704 37.5444 62.2138 37.5273 62.2651V65.4916C37.5273 66.5364 37.9424 67.5382 38.681 68.277C39.4197 69.0156 40.4216 69.4306 41.4663 69.4306C42.5111 69.4306 43.5129 69.0156 44.2517 68.277C44.9903 67.5382 45.4053 66.5364 45.4053 65.4916V61.9126C45.4017 61.8596 45.3792 61.8098 45.3417 61.7722C45.3041 61.7347 45.2543 61.712 45.2013 61.7086C43.5513 61.6576 42.6858 61.0231 42.3513 60.6916C42.3258 60.6166 42.1728 60.6166 42.0708 60.7171H42.0753Z" fill="white"/>
<path d="M37.2986 62.5213C37.3844 62.5171 37.4703 62.5257 37.5536 62.5468V62.3683C37.5534 62.3416 37.5585 62.3152 37.5686 62.2906C37.5788 62.2659 37.5936 62.2435 37.6125 62.2246C37.6313 62.2059 37.6538 62.1909 37.6784 62.1808C37.703 62.1708 37.7295 62.1657 37.7561 62.1658H37.8071C38.5196 62.3158 40.6571 62.5723 42.1016 60.7678C42.1193 60.7459 42.1412 60.7279 42.1661 60.7147C42.1908 60.7015 42.2181 60.6934 42.2462 60.691C42.2742 60.6886 42.3024 60.6919 42.3291 60.7008C42.3558 60.7096 42.3804 60.7237 42.4016 60.7423L42.4271 60.7678C42.7571 61.0978 43.6271 61.7338 45.2771 61.7848C45.3299 61.7883 45.3795 61.8108 45.417 61.848C45.4545 61.8852 45.4772 61.9347 45.4811 61.9873V62.5723C45.7314 62.5336 45.9872 62.5524 46.2291 62.6272C46.4712 62.7021 46.6929 62.8311 46.8776 63.0043V60.0313C46.8764 59.4321 46.6379 58.8576 46.2143 58.4337C45.7907 58.0098 45.2163 57.771 44.6171 57.7693C44.211 57.7614 43.812 57.8764 43.4726 58.0993C43.2741 57.7663 42.9926 57.4906 42.6554 57.2992C42.3183 57.1078 41.9373 57.0072 41.5496 57.0073H40.3796C39.2999 57.0097 38.2646 57.4378 37.4988 58.1989C36.7329 58.96 36.2982 59.9926 36.2891 61.0723V62.9023C36.4224 62.7714 36.5816 62.67 36.7565 62.6043C36.9314 62.5387 37.1181 62.5104 37.3046 62.5213H37.2986Z" fill="#808080"/>
<path d="M45.6863 66.4352C45.5672 66.4403 45.448 66.4317 45.3308 66.4097C45.1742 66.389 45.0314 66.309 44.9321 66.1862C44.8327 66.0635 44.7844 65.9072 44.7968 65.7497V62.5217C44.7982 62.3703 44.8522 62.2242 44.9497 62.1084C45.0472 61.9926 45.1819 61.9143 45.3308 61.8872C45.9305 61.7928 46.5431 61.9407 47.0339 62.2982C47.5246 62.6555 47.8533 63.1932 47.9476 63.7929C48.0418 64.3926 47.8941 65.0052 47.5366 65.496C47.1793 65.9867 46.6416 66.3153 46.0418 66.4097C45.9247 66.4319 45.8054 66.4404 45.6863 66.4352ZM46.0673 63.2087V65.0882C46.3138 64.9835 46.51 64.7871 46.6144 64.5405C46.7188 64.2941 46.7233 64.0164 46.6268 63.7667C46.5763 63.6405 46.5005 63.5261 46.4044 63.4302C46.3082 63.3342 46.1935 63.2589 46.0673 63.2087Z" fill="black"/>
<path d="M37.2993 66.435C36.7029 66.4197 36.1362 66.1721 35.7198 65.7449C35.3034 65.3178 35.0703 64.7448 35.0703 64.1483C35.0703 63.5517 35.3034 62.9787 35.7198 62.5517C36.1362 62.1245 36.7029 61.8768 37.2993 61.8615C37.4189 61.8564 37.5387 61.865 37.6563 61.887C37.8068 61.9106 37.9436 61.9878 38.0415 62.1045C38.1393 62.2211 38.1917 62.3693 38.1888 62.5215V65.7495C38.2017 65.9069 38.1536 66.0632 38.0544 66.186C37.9554 66.3089 37.8128 66.3888 37.6563 66.4095C37.5384 66.4299 37.4189 66.4385 37.2993 66.435ZM36.9183 63.2085C36.672 63.3134 36.4763 63.5099 36.3722 63.7565C36.2681 64.0031 36.2637 64.2804 36.3603 64.53C36.4109 64.6559 36.4863 64.7702 36.5822 64.866C36.6782 64.962 36.7925 65.0375 36.9183 65.088V63.2085Z" fill="black"/>
<path d="M41.493 70.095C40.8921 70.0952 40.2972 69.977 39.742 69.7472C39.1869 69.5174 38.6824 69.1803 38.2575 68.7555C37.8327 68.3306 37.4956 67.8261 37.2658 67.271C37.036 66.7158 36.9178 66.1209 36.918 65.52V62.3445C36.9199 62.1227 37.0089 61.9103 37.1656 61.7532C37.3224 61.5962 37.5346 61.5069 37.7565 61.5045C37.8171 61.5005 37.878 61.5092 37.935 61.53C38.646 61.68 40.3995 61.8615 41.595 60.33C41.7508 60.1493 41.9674 60.0318 42.204 60C42.3201 59.991 42.4368 60.0068 42.5464 60.0461C42.6559 60.0854 42.756 60.1473 42.84 60.228C43.0935 60.4575 43.8045 61.0425 45.2535 61.0665C45.4714 61.0739 45.678 61.1657 45.8296 61.3223C45.9813 61.479 46.0662 61.6884 46.0665 61.9065V65.4885C46.0717 66.0918 45.9571 66.6902 45.7294 67.2489C45.5017 67.8077 45.1654 68.3156 44.7402 68.7435C44.3148 69.1713 43.8087 69.5106 43.2513 69.7416C42.694 69.9725 42.0963 70.0907 41.493 70.089V70.095ZM38.193 62.826V65.526C38.193 66.4056 38.5425 67.2492 39.1644 67.8711C39.7863 68.4932 40.6299 68.8425 41.5095 68.8425C42.3891 68.8425 43.2327 68.4932 43.8546 67.8711C44.4766 67.2492 44.826 66.4056 44.826 65.526V62.3445C43.9158 62.2983 43.0384 61.9893 42.3 61.455C40.9335 62.9025 39.15 62.9535 38.1885 62.826H38.193Z" fill="black"/>
<path d="M46.853 63.6152C46.6922 63.61 46.5386 63.5465 46.421 63.4367C46.3268 63.3455 46.2155 63.274 46.0934 63.2261C45.9715 63.1783 45.8411 63.155 45.71 63.1577C45.6587 63.1543 45.6073 63.163 45.56 63.1832C45.3919 63.2077 45.2209 63.1655 45.0833 63.0658C44.9458 62.966 44.8526 62.8166 44.8235 62.6492V62.3687C43.9138 62.3234 43.0369 62.0149 42.299 61.4807C40.901 62.9537 39.071 62.9807 38.099 62.8517C38.0372 62.9692 37.9403 63.0644 37.8217 63.1238C37.7029 63.1834 37.5686 63.2041 37.4375 63.1832C37.2994 63.1591 37.1578 63.1648 37.022 63.1996C36.8861 63.2345 36.7594 63.298 36.65 63.3857C36.586 63.4399 36.5114 63.4802 36.4312 63.5045C36.3509 63.5288 36.2666 63.5363 36.1832 63.5267C36.1 63.5173 36.0194 63.4907 35.9468 63.4489C35.8741 63.4072 35.8108 63.3509 35.7605 63.2837C35.7136 63.2276 35.6782 63.163 35.6563 63.0932C35.6345 63.0235 35.6266 62.95 35.633 62.8772V61.0502C35.6336 60.4316 35.756 59.8192 35.9935 59.2479C36.2308 58.6767 36.5785 58.1579 37.0163 57.7211C37.4543 57.2841 37.9741 56.9379 38.5459 56.702C39.1177 56.4662 39.7304 56.3451 40.349 56.3462H41.4935C41.8943 56.3508 42.2902 56.4365 42.6569 56.5982C43.0238 56.7597 43.3541 56.994 43.628 57.2867C43.9399 57.1851 44.2661 57.1346 44.594 57.1367C44.9744 57.1365 45.3512 57.2112 45.7027 57.3568C46.0543 57.5023 46.3736 57.7157 46.6426 57.9846C46.9117 58.2536 47.125 58.573 47.2705 58.9246C47.416 59.276 47.4907 59.6528 47.4905 60.0332V63.0002C47.4784 63.1625 47.4068 63.3146 47.2894 63.4273C47.1721 63.5399 47.0171 63.6053 46.8545 63.6107L46.853 63.6152ZM46.0655 61.9127C46.1165 61.9127 46.142 61.9367 46.193 61.9367V60.0002C46.1954 59.714 46.1216 59.4323 45.9791 59.1842C45.8368 58.936 45.6308 58.7302 45.3824 58.5878C45.1342 58.4455 44.8525 58.3718 44.5663 58.3744C44.2801 58.3769 43.9997 58.4555 43.754 58.6022C43.6826 58.6448 43.6033 58.6727 43.5209 58.6844C43.4384 58.696 43.3546 58.691 43.2742 58.6697C43.1936 58.6486 43.1183 58.6115 43.0523 58.5607C42.9863 58.51 42.9311 58.4465 42.89 58.3742C42.7433 58.1348 42.5378 57.9369 42.2932 57.7991C42.0485 57.6612 41.7728 57.5882 41.492 57.5867H40.3235C39.4136 57.5921 38.5421 57.9546 37.8968 58.5963C37.2517 59.2379 36.8842 60.1073 36.8735 61.0172V61.8812C36.9245 61.8812 36.9755 61.8557 37.0235 61.8557C37.1123 61.7062 37.2463 61.5886 37.4062 61.5202C37.5661 61.4516 37.7435 61.4357 37.913 61.4747C38.624 61.6247 40.3775 61.8047 41.573 60.2747C41.7289 60.0938 41.9455 59.9765 42.182 59.9447C42.2983 59.9357 42.4151 59.9515 42.5248 59.9911C42.6344 60.0307 42.7343 60.0931 42.818 60.1742C43.0715 60.4022 43.784 60.9872 45.2315 61.0127C45.7145 61.0877 46.07 61.4447 46.07 61.9022L46.0655 61.9127Z" fill="black"/>
<path d="M49.878 78.0225H33.1065C32.4875 78.0201 31.8944 77.7732 31.4567 77.3354C31.0188 76.8977 30.7719 76.3046 30.7695 75.6855V56.5245C30.7719 55.9053 31.0188 55.3121 31.4565 54.8741C31.8942 54.4361 32.4873 54.1887 33.1065 54.186H49.878C50.4974 54.1887 51.0906 54.4361 51.5285 54.8741C51.9665 55.3119 52.2137 55.9052 52.2165 56.5245V75.6855C52.2137 76.3047 51.9665 76.8978 51.5285 77.3355C51.0905 77.7732 50.4972 78.0201 49.878 78.0225ZM33.1065 55.482C32.8241 55.484 32.5536 55.5972 32.354 55.797C32.1543 55.997 32.0415 56.2676 32.04 56.55V75.711C32.042 75.9933 32.1549 76.2633 32.3546 76.463C32.5541 76.6626 32.8242 76.7756 33.1065 76.7775H49.878C50.1605 76.776 50.4311 76.6631 50.6309 76.4636C50.8308 76.2639 50.9441 75.9935 50.946 75.711V56.5245C50.9444 56.2418 50.8314 55.971 50.6315 55.7711C50.4315 55.5711 50.1608 55.458 49.878 55.4565H33.1065V55.482Z" fill="black"/>
<path d="M49.8788 78.0225H33.1073C32.9183 78.0219 32.7302 77.9965 32.5478 77.9475C32.402 77.9122 32.2736 77.8264 32.1854 77.7052C32.0972 77.584 32.0549 77.4354 32.0663 77.286L32.3663 73.5765C32.393 73.0897 32.5752 72.6243 32.8863 72.249C33.1974 71.8735 33.6209 71.608 34.0943 71.4915L37.0163 70.755C37.2204 70.7052 37.4172 70.6284 37.6013 70.527L38.5163 70.0695C38.6262 70.0174 38.7185 69.9342 38.7816 69.8302C38.8448 69.7263 38.8761 69.6061 38.8718 69.4845V68.925C38.8709 68.8414 38.8868 68.7586 38.9184 68.6812C38.9501 68.6038 38.9967 68.5336 39.0558 68.4745C39.1149 68.4154 39.1851 68.3688 39.2625 68.3371C39.3398 68.3055 39.4227 68.2897 39.5063 68.2905C39.6113 68.2893 39.7146 68.3157 39.8063 68.367C40.3088 68.6416 40.8723 68.7856 41.445 68.7856C42.0177 68.7856 42.5813 68.6416 43.0838 68.367C43.1553 68.3245 43.2345 68.2968 43.3169 68.2854C43.3992 68.2738 43.4831 68.2788 43.5635 68.3001C43.6439 68.3212 43.7193 68.3583 43.7852 68.409C43.8512 68.4595 43.9065 68.5228 43.9478 68.595C43.9961 68.6877 44.0222 68.7904 44.0243 68.895V69.4545C44.0228 69.5755 44.0553 69.6945 44.1182 69.7978C44.181 69.9013 44.2716 69.985 44.3798 70.0395L45.3008 70.5C45.4898 70.5906 45.6852 70.6668 45.8858 70.728L48.8078 71.4645C49.2828 71.5867 49.7066 71.8572 50.0174 72.2368C50.3282 72.6163 50.5097 73.0851 50.5358 73.575L50.8358 77.259C50.847 77.4087 50.8046 77.5575 50.7161 77.6787C50.6276 77.7999 50.4987 77.8855 50.3528 77.9205C50.204 77.9974 50.0369 78.0322 49.8698 78.021L49.8788 78.0225ZM33.3878 76.752H49.5743L49.3208 73.677V73.65C49.3122 73.4283 49.2302 73.2157 49.0875 73.0458C48.945 72.8758 48.75 72.7581 48.5333 72.711L45.6098 71.973C45.3225 71.896 45.042 71.7957 44.7713 71.673L43.8563 71.2155C43.5954 71.0901 43.3676 70.9051 43.1912 70.6756C43.0148 70.4461 42.8948 70.1784 42.8408 69.894C41.9625 70.1743 41.0189 70.1743 40.1408 69.894C40.0806 70.1761 39.9581 70.4413 39.782 70.6699C39.606 70.8987 39.3812 71.085 39.1238 71.2155L38.2088 71.673C37.9382 71.7961 37.6577 71.8965 37.3703 71.973L34.4483 72.711C34.2336 72.7624 34.0413 72.8814 33.8994 73.0504C33.7577 73.2195 33.674 73.4298 33.6608 73.65L33.3878 76.752Z" fill="black"/>
<path d="M86.7542 43.0425H34.7207V46.2345H86.7542V43.0425Z" fill="#E0E0E0"/>
<path d="M54.3797 47.1523H34.7207V49.1698H54.3797V47.1523Z" fill="#E0E0E0"/>
<path d="M90.2788 52.5195H58.3633V54.537H90.2788V52.5195Z" fill="#E0E0E0"/>
<path d="M90.2788 55.8015H58.3633V57.819H90.2788V55.8015Z" fill="#E0E0E0"/>
<path d="M90.2788 59.1196H58.3633V61.1371H90.2788V59.1196Z" fill="#E0E0E0"/>
<path d="M90.2788 62.1074H58.3633V64.1249H90.2788V62.1074Z" fill="#E0E0E0"/>
<path d="M90.2788 65.0969H58.3633V67.1144H90.2788V65.0969Z" fill="#E0E0E0"/>
<g opacity="0.04">
<path opacity="0.04" d="M24.4043 47.1526C24.4043 47.1526 26.3993 68.4211 28.4648 73.7821C30.5303 79.1431 32.0648 82.0546 46.6958 80.6821C61.3268 79.3096 85.6133 71.4001 99.1703 73.8586L98.6993 83.2801H24.4043V47.1526Z" fill="#201600"/>
<path opacity="0.04" d="M98.7751 83.355H24.3301V47.1525L24.4801 47.145C24.4996 47.358 26.4946 68.4645 28.5301 73.755C29.6161 76.569 30.5056 78.5025 32.8996 79.6905C35.4901 80.9745 39.7411 81.2565 46.6846 80.601C51.9106 80.109 58.3366 78.792 65.1346 77.397C77.5846 74.847 90.4501 72.207 99.1756 73.785L99.2401 73.797L98.7751 83.355ZM24.4801 83.205H98.6326L99.0931 73.9215C90.3931 72.3735 77.5741 75.0015 65.1736 77.544C58.3666 78.939 51.9376 80.2575 46.7026 80.751C39.7306 81.408 35.4526 81.1215 32.8366 79.824C30.3961 78.6135 29.4931 76.656 28.3951 73.809C26.6701 69.3375 24.9826 53.6505 24.4801 48.6795V83.205Z" fill="#201600"/>
</g>
<path d="M87.3266 81.2683C90.3504 81.2683 92.8016 78.817 92.8016 75.7933C92.8016 72.7697 90.3504 70.3184 87.3266 70.3184C84.3029 70.3184 81.8516 72.7697 81.8516 75.7933C81.8516 78.817 84.3029 81.2683 87.3266 81.2683Z" fill="white"/>
<path d="M87.3282 81.5684C86.1861 81.5681 85.0697 81.2291 84.1202 80.5945C83.1707 79.9596 82.4307 79.0575 81.9939 78.0023C81.557 76.947 81.4428 75.786 81.6659 74.6658C81.8889 73.5456 82.439 72.5168 83.2467 71.7093C84.0545 70.9018 85.0835 70.3519 86.2037 70.1292C87.3239 69.9064 88.4849 70.0209 89.5401 70.4581C90.5952 70.8952 91.497 71.6355 92.1315 72.5852C92.766 73.5348 93.1047 74.6513 93.1047 75.7934C93.103 77.3247 92.4939 78.7929 91.4109 79.8756C90.3279 80.9585 88.8595 81.5672 87.3282 81.5684ZM87.3282 70.6184C86.3048 70.6187 85.3044 70.9224 84.4536 71.4912C83.6027 72.06 82.9397 72.8684 82.5482 73.814C82.1568 74.7597 82.0545 75.8001 82.2543 76.8039C82.4541 77.8076 82.9472 78.7296 83.6709 79.4533C84.3948 80.1769 85.3169 80.6695 86.3207 80.8691C87.3245 81.0686 88.3649 80.966 89.3105 80.5744C90.2559 80.1826 91.0641 79.5192 91.6326 78.6683C92.2012 77.8173 92.5047 76.8168 92.5047 75.7934C92.503 74.4212 91.9572 73.1055 90.9867 72.1353C90.0162 71.1651 88.7004 70.6196 87.3282 70.6184Z" fill="#222221"/>
<path d="M84.3954 76.7671L86.4954 76.7326L86.5299 78.8326C86.5428 79.0786 86.6507 79.3099 86.8308 79.4779C87.0108 79.6459 87.249 79.7375 87.4953 79.7333C87.7416 79.7293 87.9767 79.6298 88.151 79.456C88.3254 79.2821 88.4256 79.0474 88.4304 78.8011L88.3299 72.6976C88.3257 72.4454 88.2215 72.2051 88.0403 72.0298C87.8589 71.8543 87.6153 71.7581 87.3632 71.7623C87.1109 71.7665 86.8707 71.8708 86.6954 72.052C86.5199 72.2333 86.4237 72.4768 86.4279 72.7291L86.4639 74.8291L84.3639 74.8636C84.1179 74.8765 83.8866 74.9845 83.7186 75.1645C83.5506 75.3445 83.459 75.5828 83.463 75.829C83.4672 76.0753 83.5667 76.3103 83.7405 76.4848C83.9144 76.6591 84.1491 76.7593 84.3954 76.7641V76.7671Z" fill="white"/>
<path d="M90.4683 74.766L88.3683 74.8005L88.3338 72.7005C88.3296 72.4482 88.2253 72.2081 88.0441 72.0327C87.8628 71.8572 87.6192 71.7611 87.367 71.7653C87.1147 71.7695 86.8746 71.8736 86.6992 72.0549C86.5237 72.2363 86.4276 72.4797 86.4318 72.732L86.5338 78.8355C86.5467 79.0815 86.6545 79.3128 86.8347 79.4808C87.0147 79.6488 87.2529 79.7404 87.4992 79.7362C87.7455 79.7322 87.9805 79.6327 88.1548 79.4589C88.3293 79.285 88.4295 79.0501 88.4343 78.804L88.3998 76.704L90.4998 76.6695C90.7457 76.6566 90.9771 76.5486 91.1451 76.3686C91.3131 76.1885 91.4046 75.9503 91.4006 75.7041C91.3965 75.4578 91.2971 75.2228 91.1232 75.0483C90.9492 74.874 90.7145 74.7738 90.4683 74.769V74.766Z" fill="#B2B2B2"/>
<path d="M89.8992 74.7749L87.7992 74.8094L87.7632 72.7094C87.7557 72.1919 87.6942 71.7704 87.1782 71.7794C86.9282 71.7841 86.6901 71.887 86.5152 72.0658C86.3405 72.2446 86.2428 72.4849 86.2437 72.7349L86.2782 74.8349L84.9478 74.8574C84.7018 74.8703 84.4705 74.9783 84.3025 75.1583C84.1345 75.3383 84.0428 75.5767 84.047 75.8228C84.0511 76.0691 84.1505 76.3042 84.3244 76.4786C84.4982 76.6529 84.733 76.7531 84.9793 76.7579L86.3097 76.7354L86.3442 78.8355C86.352 79.0852 86.4578 79.3219 86.6384 79.4944C86.8191 79.6669 87.0603 79.7615 87.3102 79.758C87.8277 79.749 87.8742 79.326 87.8652 78.81L87.8307 76.7099L89.9307 76.6755C90.1767 76.6626 90.408 76.5545 90.576 76.3745C90.744 76.1945 90.8357 75.9562 90.8315 75.71C90.8274 75.4637 90.728 75.2287 90.5541 75.0542C90.3803 74.8799 90.1455 74.7797 89.8992 74.7749Z" fill="#EFEFEF"/>
<path d="M87.5 79.9498C87.1991 79.9555 86.9081 79.8417 86.6907 79.6335C86.4735 79.4251 86.3475 79.1392 86.3405 78.8383L86.309 76.9273L84.398 76.9588C84.1016 76.9545 83.8186 76.8349 83.6087 76.6255C83.3989 76.4161 83.2787 76.1334 83.2736 75.837C83.2685 75.5406 83.3791 75.2539 83.5816 75.0375C83.7841 74.821 84.0629 74.6919 84.359 74.6773L86.2715 74.6458L86.24 72.7349C86.2347 72.4325 86.3499 72.1406 86.5601 71.9231C86.7702 71.7056 87.0581 71.5806 87.3605 71.5754C87.6629 71.5703 87.9548 71.6853 88.1723 71.8955C88.3898 72.1056 88.5147 72.3935 88.52 72.6959L88.553 74.6083L90.464 74.5768C90.7602 74.5815 91.0431 74.7013 91.2528 74.9109C91.4624 75.1203 91.5824 75.4032 91.5872 75.6994C91.592 75.9957 91.4814 76.2823 91.2789 76.4986C91.0763 76.7149 90.7974 76.8439 90.5015 76.8583L88.5905 76.8898L88.622 78.8008C88.6251 79.1019 88.5089 79.3918 88.2986 79.6072C88.0881 79.8226 87.801 79.9459 87.5 79.9498ZM84.3665 75.0583C84.2666 75.06 84.1681 75.0811 84.0764 75.1209C83.9848 75.1605 83.9018 75.2178 83.8322 75.2896C83.7628 75.3613 83.708 75.4461 83.6713 75.5389C83.6345 75.6318 83.6164 75.7309 83.618 75.8308C83.6195 75.9307 83.6408 76.0293 83.6804 76.1209C83.7202 76.2126 83.7775 76.2955 83.8492 76.3651C83.921 76.4346 84.0056 76.4893 84.0986 76.5261C84.1915 76.5628 84.2906 76.581 84.3905 76.5793L86.4905 76.5433C86.5407 76.5435 86.589 76.5627 86.6255 76.5973C86.6435 76.6146 86.6579 76.6353 86.6676 76.6582C86.6774 76.6812 86.6825 76.7059 86.6825 76.7308L86.7185 78.8308C86.7299 79.0267 86.8164 79.2108 86.9604 79.3443C87.1043 79.4778 87.2942 79.5505 87.4904 79.5472C87.6867 79.5439 87.8741 79.4649 88.0134 79.3266C88.1528 79.1883 88.2332 79.0015 88.238 78.8053L88.2035 76.7053C88.203 76.6549 88.2225 76.6063 88.2576 76.5702C88.2927 76.534 88.3406 76.513 88.391 76.5118L90.491 76.4773C90.6927 76.474 90.8847 76.3906 91.025 76.2456C91.1652 76.1005 91.242 75.9058 91.2387 75.7041C91.2353 75.5023 91.152 75.3103 91.007 75.1701C90.8619 75.0298 90.6672 74.9529 90.4655 74.9563L88.3655 74.9923C88.3152 74.9925 88.2668 74.9731 88.2305 74.9383C88.1942 74.9032 88.1732 74.8552 88.172 74.8048L88.1375 72.7049C88.1343 72.5031 88.0511 72.311 87.9062 72.1706C87.7614 72.0303 87.5667 71.9532 87.365 71.9564C87.1632 71.9595 86.9711 72.0428 86.8307 72.1877C86.6904 72.3324 86.6133 72.5271 86.6165 72.7289L86.651 74.8288C86.6516 74.8537 86.6472 74.8783 86.6382 74.9016C86.6291 74.9247 86.6157 74.9458 86.5985 74.9638C86.5631 74.9995 86.5152 75.0205 86.465 75.0223L84.365 75.0568L84.3665 75.0583Z" fill="white"/>
<path d="M87.4993 79.8736C87.2335 79.8789 86.9755 79.7842 86.776 79.6084C86.5767 79.4326 86.4504 79.1884 86.4223 78.9241C86.4193 78.8697 86.4193 78.8151 86.4223 78.7606L86.3983 77.3806L86.3908 76.9306C86.3907 76.9207 86.3884 76.9112 86.3845 76.902C86.3806 76.893 86.3749 76.8849 86.3677 76.878C86.3607 76.8712 86.3523 76.8658 86.3431 76.8622C86.334 76.8586 86.3242 76.857 86.3143 76.8571L85.1713 76.8751L84.5218 76.8872H84.4033C84.2379 76.8888 84.0745 76.8511 83.9263 76.7776C83.709 76.6716 83.5342 76.4946 83.4307 76.2759C83.3274 76.0574 83.3014 75.81 83.3572 75.5746C83.4132 75.3393 83.5474 75.1299 83.7381 74.9811C83.9287 74.8323 84.1644 74.7528 84.4063 74.7556L84.9523 74.7466L86.2528 74.7257H86.2798C86.2897 74.7255 86.2993 74.7232 86.3085 74.7193C86.3175 74.7154 86.3256 74.7098 86.3325 74.7027C86.3392 74.6955 86.3446 74.6871 86.3482 74.6779C86.3518 74.6688 86.3535 74.6591 86.3533 74.6492L86.3338 73.5062L86.3233 72.8567C86.3233 72.8177 86.3233 72.7787 86.3233 72.7382C86.3217 72.5727 86.3592 72.4094 86.4328 72.2612C86.5098 72.1035 86.6247 71.9675 86.767 71.865C86.9094 71.7626 87.0748 71.6969 87.2487 71.6739C87.4225 71.651 87.5995 71.6712 87.7636 71.7332C87.9277 71.795 88.074 71.8965 88.1893 72.0287C88.3605 72.2265 88.4548 72.4794 88.4548 72.7412L88.4638 73.2871L88.4848 74.5877V74.6146C88.4856 74.6344 88.494 74.6531 88.5082 74.6669C88.5225 74.6805 88.5415 74.6882 88.5613 74.6882L89.7043 74.6687L90.3553 74.6582H90.4723C90.6382 74.6568 90.802 74.6943 90.9508 74.7677C91.1082 74.8452 91.2439 74.9602 91.3461 75.1027C91.4484 75.2452 91.5138 75.4107 91.5367 75.5845C91.5598 75.7584 91.5396 75.9352 91.4779 76.0993C91.4163 76.2634 91.315 76.41 91.1833 76.5257C90.9852 76.6962 90.7323 76.7899 90.4708 76.7896L89.9248 76.7986L88.6243 76.8196H88.5973C88.5876 76.8196 88.5778 76.8216 88.5688 76.8254C88.5598 76.8291 88.5516 76.8346 88.5448 76.8417C88.5379 76.8487 88.5325 76.857 88.5289 76.866C88.5253 76.8752 88.5237 76.8849 88.5238 76.8946L88.5418 78.0376L88.5523 78.6887C88.5523 78.7277 88.5523 78.7666 88.5523 78.8071C88.5544 78.969 88.5189 79.1292 88.4488 79.2751C88.3618 79.4524 88.2276 79.6023 88.0608 79.7082C87.8941 79.8141 87.7014 79.8718 87.5038 79.8751C87.4839 79.8751 87.4648 79.8831 87.4507 79.897C87.4368 79.9111 87.4288 79.9302 87.4288 79.9501C87.4288 79.9701 87.4368 79.9891 87.4507 80.0032C87.4648 80.0172 87.4839 80.0251 87.5038 80.0251C87.6961 80.0212 87.8847 79.9722 88.0546 79.882C88.2244 79.7919 88.3708 79.6632 88.4818 79.5061C88.6332 79.2828 88.7089 79.0167 88.6978 78.7471L88.6753 77.3596V76.8887L88.6018 76.9651L89.7853 76.9456L90.4228 76.9352C90.4693 76.9352 90.5143 76.9352 90.5593 76.9352C90.798 76.9196 91.0266 76.834 91.2169 76.6893C91.4071 76.5445 91.5505 76.3468 91.6291 76.1211C91.7077 75.8952 91.7179 75.6513 91.6587 75.4195C91.5994 75.1879 91.4733 74.979 91.2958 74.8187C91.0638 74.6129 90.763 74.5014 90.4528 74.5066L89.9338 74.5156L88.5838 74.5382H88.5568L88.6333 74.6117L88.6138 73.4281L88.6018 72.7907C88.6018 72.7442 88.6018 72.6992 88.6018 72.6527C88.5874 72.3306 88.4458 72.0275 88.2079 71.8098C87.9702 71.5923 87.6556 71.4782 87.3336 71.4924C87.0115 71.5067 86.7084 71.6484 86.4907 71.8863C86.2732 72.1241 86.1589 72.4386 86.1733 72.7607L86.1823 73.2781L86.2048 74.6281V74.6552L86.2783 74.5787L85.0948 74.5982L84.4573 74.6087H84.3193C84.1252 74.6207 83.9368 74.6793 83.7703 74.7797C83.5444 74.9198 83.3707 75.13 83.2758 75.3783C83.1807 75.6265 83.1696 75.8991 83.2441 76.1542C83.3187 76.4094 83.4747 76.633 83.6883 76.7911C83.902 76.9492 84.1615 77.0331 84.4273 77.0297L84.9448 77.0206L86.2948 76.9981H86.3218L86.2453 76.9247L86.2648 78.1081L86.2753 78.7456C86.2753 78.7921 86.2753 78.8371 86.2753 78.8836C86.2867 79.078 86.3449 79.2669 86.4448 79.4341C86.5561 79.6156 86.7126 79.7652 86.899 79.868C87.0855 79.9708 87.2955 80.0235 87.5083 80.0206C87.5251 80.0163 87.54 80.0063 87.5503 79.9922C87.5605 79.9781 87.5655 79.9608 87.5644 79.9434C87.5634 79.926 87.5563 79.9096 87.5445 79.8969C87.5325 79.8841 87.5166 79.8759 87.4993 79.8736Z" fill="white"/>
<path d="M84.3656 74.982C84.1749 74.9875 83.9919 75.0583 83.847 75.1822C83.7021 75.3063 83.604 75.4761 83.5689 75.6636C83.5338 75.8511 83.564 76.0449 83.6544 76.2129C83.7447 76.3809 83.8898 76.5129 84.0656 76.587C84.1754 76.6323 84.2934 76.6542 84.4121 76.6515H84.5801L85.2626 76.6395L86.0381 76.626H86.4881C86.5048 76.6248 86.5213 76.6269 86.537 76.6326C86.5526 76.6381 86.5669 76.6468 86.5789 76.6584C86.591 76.6698 86.6005 76.6837 86.6068 76.699C86.6131 76.7143 86.6161 76.7308 86.6156 76.7475C86.6156 76.7955 86.6156 76.845 86.6156 76.8975L86.6261 77.553L86.6396 78.339V78.8205C86.6366 79.042 86.7218 79.2558 86.8765 79.4146C87.031 79.5733 87.2423 79.6642 87.4639 79.6672C87.6854 79.6702 87.8992 79.585 88.058 79.4305C88.2167 79.2759 88.3076 79.0645 88.3106 78.843C88.3106 78.8055 88.3106 78.768 88.3106 78.7305L88.3001 78.138L88.2866 77.3445L88.2776 76.7805C88.2719 76.755 88.2713 76.7286 88.276 76.7028C88.2806 76.677 88.2904 76.6524 88.3046 76.6305C88.3249 76.6126 88.3489 76.5997 88.375 76.5927C88.4009 76.5858 88.4282 76.5847 88.4546 76.59L89.0171 76.581L89.8076 76.5675L90.4076 76.557H90.5171C90.7379 76.5468 90.9457 76.4496 91.0949 76.2865C91.2442 76.1235 91.3228 75.9079 91.3135 75.6871C91.3042 75.4663 91.2077 75.2581 91.0453 75.1083C90.8828 74.9584 90.6676 74.8789 90.4466 74.8875L89.9651 74.895L89.1836 74.907L88.5236 74.919H88.3736C88.3571 74.92 88.3405 74.9176 88.3249 74.9119C88.3093 74.9061 88.2952 74.8971 88.2833 74.8855C88.2713 74.874 88.262 74.86 88.2559 74.8446C88.2499 74.8291 88.247 74.8126 88.2476 74.796C88.2476 74.646 88.2476 74.496 88.2401 74.3565L88.2281 73.578L88.2161 72.897C88.2263 72.7263 88.2013 72.5551 88.1426 72.3945C88.0636 72.2241 87.9295 72.0852 87.7619 72.0004C87.5942 71.9155 87.403 71.8897 87.2189 71.9271C87.0347 71.9643 86.8685 72.0625 86.7472 72.2058C86.6257 72.3492 86.5561 72.5292 86.5496 72.717C86.5496 72.834 86.5496 72.9525 86.5496 73.0695L86.5616 73.8195L86.5736 74.5455V74.7675C86.5736 74.823 86.5736 74.88 86.5316 74.9175C86.4899 74.943 86.4404 74.9524 86.3921 74.9445H86.1626L85.4291 74.9565L84.6791 74.9685H84.3551L84.4316 75.042C84.4281 75.0247 84.4187 75.0091 84.405 74.9979C84.3914 74.9866 84.3743 74.9806 84.3566 74.9806C84.3389 74.9806 84.3218 74.9866 84.3081 74.9979C84.2945 75.0091 84.285 75.0247 84.2816 75.042C84.2828 75.0616 84.2912 75.0801 84.3054 75.0937C84.3197 75.1074 84.3384 75.1152 84.3581 75.1155H84.6971L85.4396 75.1035L86.1641 75.0915H86.3921C86.4464 75.0955 86.5009 75.0889 86.5526 75.072C86.6027 75.0519 86.6455 75.0174 86.6758 74.9727C86.7059 74.928 86.7221 74.8753 86.7221 74.8215C86.7221 74.8125 86.7221 74.802 86.7221 74.793V74.61L86.7116 73.926L86.6981 73.161C86.6981 73.011 86.6981 72.873 86.6981 72.729C86.6957 72.5703 86.7485 72.4155 86.8474 72.2914C86.9464 72.1672 87.0853 72.0811 87.2407 72.0481C87.3959 72.015 87.5579 72.0367 87.6988 72.1098C87.8398 72.1828 87.9511 72.3025 88.0136 72.4485C88.0625 72.5932 88.0825 72.7461 88.0721 72.8985L88.0841 73.5825L88.0961 74.3475C88.0961 74.4975 88.0961 74.6385 88.1036 74.784C88.1035 74.8197 88.1102 74.8549 88.1237 74.8879C88.1372 74.9211 88.157 74.9511 88.1821 74.9764C88.2071 75.0018 88.237 75.0219 88.2698 75.0357C88.3027 75.0496 88.3379 75.0568 88.3736 75.057H88.4771L89.0771 75.0465L89.8616 75.033L90.4121 75.024C90.466 75.0195 90.5203 75.0195 90.5741 75.024C90.7444 75.0508 90.8987 75.1395 91.0076 75.273C91.1141 75.4086 91.1662 75.5791 91.1537 75.751C91.1413 75.9231 91.0651 76.0842 90.9401 76.203C90.8182 76.3182 90.6578 76.3839 90.4901 76.3875H90.3911L89.7911 76.398L89.0066 76.41L88.4531 76.4205C88.39 76.4158 88.3267 76.4266 88.2686 76.452C88.2215 76.4788 88.1831 76.5187 88.1581 76.5669C88.1332 76.6152 88.1225 76.6695 88.1276 76.7235L88.1366 77.22L88.1501 77.997L88.1606 78.642C88.1606 78.6885 88.1606 78.7365 88.1606 78.792C88.1624 78.9192 88.1287 79.0444 88.0631 79.1535C87.973 79.3018 87.8306 79.4109 87.664 79.4592C87.4973 79.5075 87.3185 79.4916 87.1631 79.4145C87.0488 79.3558 86.9528 79.2669 86.8856 79.1574C86.8184 79.0479 86.7826 78.922 86.7821 78.7935V78.3L86.7686 77.523L86.7581 76.875C86.7581 76.827 86.7581 76.779 86.7581 76.725C86.7577 76.6533 86.729 76.5846 86.678 76.534C86.6272 76.4833 86.5583 76.455 86.4866 76.455C86.3651 76.455 86.2421 76.455 86.1206 76.455L85.3706 76.4685L84.6536 76.4805C84.5232 76.4907 84.392 76.4883 84.2621 76.473C84.0962 76.4422 83.9475 76.3513 83.8445 76.2178C83.7414 76.0843 83.6912 75.9174 83.7035 75.7492C83.7158 75.5809 83.7896 75.4231 83.9109 75.306C84.0323 75.1887 84.1925 75.1204 84.3611 75.114C84.4646 75.1275 84.4616 74.9775 84.3656 74.982Z" fill="white"/>
<path d="M84.3638 74.907C84.2066 74.911 84.0532 74.9559 83.9183 75.0372C83.7836 75.1183 83.6723 75.2331 83.5952 75.3702C83.5181 75.5073 83.4779 75.6619 83.4785 75.8193C83.4793 75.9766 83.5207 76.131 83.5988 76.2675C83.6966 76.4386 83.8478 76.573 84.0293 76.65C84.1501 76.7022 84.2803 76.7283 84.4118 76.7265H84.5813L85.2638 76.7145L86.0378 76.7025H86.4878H86.4983C86.5223 76.7025 86.4983 76.7025 86.4983 76.7025C86.4983 76.7025 86.5298 76.7025 86.5313 76.7115C86.5328 76.7205 86.5058 76.6965 86.5208 76.7115C86.5358 76.7265 86.5448 76.728 86.5298 76.7115C86.5148 76.695 86.5298 76.7115 86.5298 76.719C86.5298 76.7265 86.5223 76.71 86.5298 76.71C86.5373 76.71 86.5388 76.7235 86.5388 76.725C86.5388 76.7265 86.5388 76.7145 86.5388 76.7145C86.5388 76.7145 86.5493 76.764 86.5478 76.74C86.5463 76.716 86.5478 76.74 86.5478 76.74V76.7475C86.5478 76.797 86.5478 76.845 86.5478 76.8975L86.5583 77.5515L86.5718 78.339V78.8205C86.569 79.062 86.6623 79.2946 86.831 79.4674C86.9999 79.6401 87.2303 79.7386 87.4718 79.7415C87.7133 79.7443 87.946 79.651 88.1188 79.4823C88.2914 79.3134 88.39 79.083 88.3928 78.8415C88.3928 78.804 88.3928 78.7665 88.3928 78.729L88.3823 78.129L88.3688 77.3355L88.3598 76.7715C88.3598 76.7535 88.3598 76.7355 88.3598 76.716V76.707C88.3598 76.68 88.3598 76.719 88.3598 76.707C88.3594 76.6999 88.3594 76.693 88.3598 76.686C88.3598 76.668 88.3598 76.6965 88.3598 76.695L88.3688 76.68C88.3688 76.665 88.3523 76.695 88.3688 76.68L88.3808 76.668C88.3703 76.668 88.3643 76.686 88.3808 76.668C88.3973 76.65 88.4003 76.6545 88.3808 76.668C88.3613 76.6815 88.3808 76.668 88.3808 76.668H88.3973C88.4153 76.668 88.3868 76.668 88.3868 76.668C88.3868 76.668 88.3868 76.668 88.3988 76.668H88.4603L89.0228 76.659L89.8148 76.6455L90.4149 76.635H90.5258C90.7386 76.6218 90.9403 76.5361 91.0974 76.392C91.2369 76.2666 91.3344 76.1011 91.3764 75.9183C91.4184 75.7354 91.4028 75.5442 91.3318 75.3705C91.2609 75.1968 91.1382 75.0492 90.9801 74.9479C90.8221 74.8468 90.6367 74.7969 90.4493 74.805L89.9693 74.814L89.1863 74.826L88.5263 74.838H88.3628C88.3448 74.838 88.3748 74.838 88.3748 74.838H88.3583H88.3418C88.3418 74.838 88.3658 74.856 88.3418 74.838C88.3178 74.82 88.3238 74.8245 88.3418 74.838C88.3598 74.8515 88.3418 74.838 88.3418 74.8305C88.3418 74.823 88.3418 74.838 88.3418 74.8395C88.3418 74.841 88.3313 74.8185 88.3298 74.82C88.3283 74.8215 88.3388 74.847 88.3298 74.829V74.8125C88.3208 74.787 88.3298 74.835 88.3298 74.8125V74.802C88.3298 74.652 88.3298 74.502 88.3223 74.3625L88.3103 73.584L88.2983 72.903V72.732C88.2964 72.5682 88.2508 72.4078 88.1662 72.2674C88.0816 72.1272 87.9608 72.012 87.8168 71.934C87.6245 71.8336 87.4034 71.8035 87.1913 71.8485C86.9905 71.8939 86.8109 72.0057 86.6813 72.1657C86.5519 72.3256 86.48 72.5247 86.4773 72.7305C86.4773 72.8475 86.4773 72.966 86.4773 73.083L86.4893 73.833L86.5013 74.559V74.781V74.841C86.5013 74.841 86.5013 74.871 86.5013 74.841C86.5013 74.811 86.5013 74.8545 86.5013 74.8605C86.5013 74.8665 86.5013 74.85 86.5013 74.8515C86.5013 74.853 86.4878 74.871 86.4893 74.871C86.4908 74.871 86.5088 74.8515 86.4893 74.871C86.4698 74.8905 86.4683 74.8905 86.4893 74.871C86.5103 74.8515 86.4608 74.889 86.4893 74.871C86.5178 74.853 86.4653 74.8845 86.4653 74.8785C86.4653 74.8725 86.4953 74.8785 86.4653 74.8785H86.3993H86.1698L85.4363 74.8905L84.6863 74.9025H84.3623L84.5123 75.0525C84.5123 75.0127 84.4966 74.9745 84.4684 74.9464C84.4403 74.9182 84.4021 74.9025 84.3623 74.9025C84.3226 74.9025 84.2843 74.9182 84.2563 74.9464C84.2281 74.9745 84.2123 75.0127 84.2123 75.0525C84.2123 75.0922 84.2281 75.1305 84.2563 75.1585C84.2843 75.1867 84.3226 75.2025 84.3623 75.2025H84.7013L85.4438 75.1905L86.1683 75.1785H86.3963C86.4572 75.1818 86.5183 75.1737 86.5763 75.1545C86.6419 75.1293 86.6984 75.0849 86.7383 75.0271C86.7782 74.9692 86.7997 74.9007 86.7998 74.8305C86.7998 74.8215 86.7998 74.811 86.7998 74.802V74.619L86.7893 73.935L86.7758 73.17C86.7758 73.02 86.7758 72.882 86.7758 72.7395V72.729C86.7751 72.718 86.7751 72.7069 86.7758 72.696C86.7751 72.6855 86.7751 72.675 86.7758 72.6645C86.7758 72.6645 86.7758 72.654 86.7758 72.6495C86.7758 72.645 86.7758 72.678 86.7758 72.6585C86.7836 72.6127 86.7946 72.5676 86.8088 72.5235C86.8132 72.5139 86.8168 72.5038 86.8193 72.4935C86.8193 72.4935 86.8073 72.522 86.8193 72.507C86.8187 72.5025 86.8187 72.498 86.8193 72.4935C86.828 72.4716 86.8385 72.4506 86.8508 72.4305C86.8613 72.411 86.8733 72.393 86.8853 72.375C86.8973 72.357 86.9093 72.3465 86.8943 72.3615L86.9108 72.342C86.9393 72.309 86.9708 72.2805 87.0023 72.2505C87.0338 72.2205 86.9918 72.2595 86.9918 72.2595C86.9951 72.2557 86.9992 72.2526 87.0038 72.2505C87.0127 72.2427 87.0223 72.2356 87.0323 72.2295C87.0503 72.2175 87.0683 72.2055 87.0878 72.195C87.1057 72.1821 87.1253 72.1719 87.1463 72.165H87.1328H87.1478L87.1853 72.1515L87.2453 72.135L87.2813 72.1275H87.2963C87.2888 72.1275 87.2663 72.1275 87.2873 72.1275C87.3371 72.1225 87.3874 72.1225 87.4373 72.1275H87.4493H87.4643C87.4886 72.1311 87.5126 72.136 87.5363 72.1425L87.5993 72.1605H87.6128C87.6293 72.1605 87.6008 72.1605 87.6008 72.1605C87.6125 72.1636 87.6238 72.1687 87.6338 72.1755C87.6739 72.1951 87.7126 72.2176 87.7493 72.243C87.7733 72.2595 87.7298 72.2265 87.7493 72.243L87.7733 72.2625C87.7909 72.2773 87.8074 72.2934 87.8228 72.3105C87.8315 72.3183 87.8396 72.3268 87.8468 72.336C87.8468 72.336 87.8738 72.363 87.8573 72.348L87.8678 72.36L87.8903 72.393L87.9203 72.444C87.9263 72.4542 87.9319 72.4647 87.9368 72.4755V72.489C87.9458 72.507 87.9263 72.4635 87.9368 72.4815C87.9538 72.5245 87.9677 72.5686 87.9788 72.6135C87.9773 72.624 87.9773 72.6345 87.9788 72.645C87.9788 72.645 87.9788 72.6135 87.9788 72.63C87.9788 72.6465 87.9788 72.6405 87.9788 72.6465V72.7095V72.7365V72.9135L87.9908 73.5975L88.0028 74.364C88.0028 74.514 88.0028 74.655 88.0103 74.8005C88.0108 74.8923 88.0474 74.9802 88.1122 75.045C88.1771 75.1099 88.265 75.1465 88.3568 75.147H88.4603L89.0603 75.1365L89.8433 75.123L90.3953 75.114H90.4928H90.5303C90.5762 75.1206 90.6215 75.1315 90.6653 75.147H90.6789C90.6954 75.147 90.6654 75.147 90.6669 75.147C90.6684 75.147 90.6878 75.1575 90.6939 75.1605L90.7568 75.192L90.8108 75.228C90.8161 75.2295 90.8209 75.2326 90.8243 75.237L90.8123 75.228L90.8393 75.2505C90.8564 75.2643 90.8725 75.2793 90.8873 75.2955L90.9068 75.3165L90.9248 75.336C90.9098 75.3195 90.9248 75.336 90.9338 75.348L90.9533 75.378C90.9653 75.396 90.9774 75.414 90.9879 75.4335L91.0044 75.465C91.0038 75.4695 91.0038 75.474 91.0044 75.4785C91.0119 75.492 91.0044 75.4665 91.0044 75.4665C91.0116 75.489 91.0201 75.511 91.0299 75.5325C91.0299 75.552 91.0403 75.5715 91.0448 75.5925C91.0456 75.6045 91.0456 75.6165 91.0448 75.6285C91.0448 75.645 91.0448 75.6135 91.0448 75.6135C91.0439 75.6204 91.0439 75.6276 91.0448 75.6345C91.0486 75.6804 91.0486 75.7266 91.0448 75.7725C91.0448 75.7725 91.0373 75.8175 91.0448 75.795C91.0523 75.7725 91.0448 75.804 91.0448 75.81C91.0409 75.8338 91.0354 75.8574 91.0283 75.8805C91.0237 75.9019 91.0171 75.9231 91.0088 75.9435C90.9998 75.9705 91.0208 75.9195 91.0088 75.9435C90.9968 75.9675 90.9984 75.966 90.9939 75.9765C90.9849 75.9963 90.9743 76.0153 90.9623 76.0335C90.9533 76.0485 90.9383 76.083 90.9233 76.092L90.9323 76.0815L90.9233 76.0935L90.9039 76.116C90.8874 76.1325 90.8724 76.1505 90.8544 76.1655C90.8478 76.1728 90.8407 76.1799 90.8333 76.1865C90.8333 76.1865 90.8199 76.1985 90.8169 76.1985L90.8274 76.191L90.7748 76.2285C90.7568 76.2405 90.7373 76.251 90.7178 76.2615C90.7078 76.2673 90.6973 76.2724 90.6864 76.2765C90.6864 76.2765 90.6669 76.2855 90.6864 76.2765C90.7059 76.2675 90.6864 76.2765 90.6864 76.2765C90.6451 76.2933 90.6025 76.3063 90.5588 76.3155H90.5438H90.5528H90.5213H90.4673H90.3684L89.7683 76.326L88.9838 76.338L88.4303 76.347C88.3538 76.3434 88.2778 76.3582 88.2083 76.3905C88.1549 76.4203 88.1105 76.464 88.0793 76.5166C88.0483 76.5693 88.0318 76.6293 88.0313 76.6905V76.722L88.0403 77.22L88.0523 77.997L88.0643 78.642C88.0643 78.6885 88.0643 78.7365 88.0643 78.792C88.0643 78.8085 88.0643 78.8235 88.0643 78.84C88.0666 78.8524 88.0666 78.865 88.0643 78.8775C88.0643 78.8775 88.0643 78.846 88.0643 78.8625C88.0643 78.879 88.0643 78.876 88.0643 78.8835C88.0565 78.9274 88.045 78.9705 88.0298 79.0125C88.0178 79.0485 88.0388 78.9945 88.0298 79.0125L88.0163 79.041C88.0064 79.0621 87.9955 79.0827 87.9833 79.1025L87.9503 79.152C87.9353 79.1745 87.9683 79.131 87.9503 79.152L87.9278 79.1775C87.914 79.1946 87.899 79.2106 87.8828 79.2255L87.8618 79.245L87.8498 79.2555C87.8258 79.2765 87.8693 79.242 87.8498 79.2555C87.8152 79.2817 87.7786 79.3053 87.7403 79.326L87.7133 79.3395C87.6803 79.356 87.7328 79.3395 87.7133 79.3395L87.6458 79.3635L87.5858 79.3785H87.5558C87.5813 79.368 87.5768 79.3785 87.5648 79.3785H87.5438C87.4979 79.3822 87.4517 79.3822 87.4058 79.3785H87.3893C87.3683 79.3785 87.4193 79.3785 87.3983 79.3785H87.3683L87.2978 79.362L87.2393 79.3425C87.2198 79.3425 87.2663 79.3545 87.2468 79.3425H87.2333L87.2018 79.3275C87.182 79.3185 87.163 79.308 87.1448 79.296L87.1193 79.2795L87.1073 79.2705H87.1178C87.1058 79.2705 87.0803 79.2405 87.0713 79.2315L87.0218 79.1835L87.0023 79.161C86.9843 79.1415 87.0203 79.185 87.0023 79.161C86.9843 79.137 86.9768 79.1265 86.9648 79.1085C86.9528 79.0905 86.9423 79.071 86.9333 79.0515L86.9198 79.0245C86.9108 79.0065 86.9303 79.05 86.9198 79.0245C86.9204 79.018 86.9204 79.0114 86.9198 79.005C86.9042 78.9636 86.8921 78.921 86.8838 78.8775C86.8763 78.8415 86.8838 78.897 86.8838 78.87C86.8831 78.8595 86.8831 78.849 86.8838 78.8385C86.8831 78.8239 86.8831 78.8095 86.8838 78.795V78.7665L86.8748 78.273L86.8628 77.496L86.8508 76.8495C86.8508 76.8 86.8508 76.752 86.8508 76.6995C86.8496 76.608 86.8124 76.5205 86.7473 76.4563C86.6822 76.392 86.5943 76.356 86.5028 76.356C86.3813 76.356 86.2583 76.356 86.1368 76.356L85.3868 76.368L84.6698 76.38H84.4568H84.3428C84.3353 76.38 84.3038 76.3725 84.3263 76.38C84.3488 76.3875 84.3068 76.38 84.2993 76.38C84.2555 76.3708 84.2125 76.3587 84.1703 76.344H84.1838C84.1838 76.344 84.1688 76.3365 84.1643 76.335L84.1373 76.323L84.0758 76.2885C84.0577 76.2796 84.0409 76.2679 84.0263 76.254C84.0263 76.254 84.0548 76.2765 84.0263 76.254L84.0143 76.2435L83.9873 76.221C83.9723 76.206 83.9558 76.191 83.9423 76.176L83.9213 76.1535C83.9213 76.1535 83.9123 76.1445 83.9123 76.1415C83.9123 76.1385 83.9303 76.1655 83.9123 76.149C83.885 76.1124 83.8604 76.0737 83.8388 76.0335L83.8268 76.0065C83.8193 75.9915 83.8268 76.0185 83.8268 76.0185C83.8277 76.0125 83.8277 76.0065 83.8268 76.0005C83.8193 75.9795 83.8118 75.9585 83.8058 75.9375C83.7998 75.9165 83.7938 75.894 83.7893 75.873C83.7901 75.8674 83.7901 75.8619 83.7893 75.8565V75.8715C83.7871 75.8575 83.7871 75.8434 83.7893 75.8295C83.7856 75.7836 83.7856 75.7374 83.7893 75.6915C83.7893 75.6615 83.7893 75.7185 83.7893 75.6915C83.7893 75.6645 83.7893 75.6675 83.7893 75.6555C83.7893 75.6435 83.7998 75.612 83.8058 75.591C83.8118 75.57 83.8223 75.552 83.8253 75.5325C83.8283 75.513 83.8133 75.5595 83.8253 75.546C83.8247 75.541 83.8247 75.5359 83.8253 75.531C83.8297 75.5202 83.8348 75.5097 83.8403 75.4995C83.8493 75.4797 83.8598 75.4606 83.8718 75.4425C83.8793 75.4305 83.8913 75.4005 83.9048 75.393C83.9183 75.3855 83.8853 75.417 83.9048 75.4035L83.9168 75.3885L83.9363 75.366L83.9813 75.3195L84.0038 75.2985L84.0158 75.2895C84.0278 75.2775 84.0038 75.2985 84.0053 75.297C84.0068 75.2955 84.0428 75.27 84.0578 75.2595L84.1133 75.2265L84.1403 75.2115H84.1538H84.1418C84.1628 75.205 84.1834 75.1971 84.2033 75.1875L84.2678 75.1695H84.2993C84.3278 75.1695 84.2708 75.1695 84.2993 75.1695H84.3728C84.4126 75.1695 84.4507 75.1537 84.4789 75.1255C84.5071 75.0975 84.5228 75.0592 84.5228 75.0195C84.5228 74.9797 84.5071 74.9415 84.4789 74.9134C84.4507 74.8852 84.4126 74.8695 84.3728 74.8695L84.3638 74.907Z" fill="black"/>
</svg>
