<svg width="120" height="120" viewBox="0 0 120 120" fill="none" xmlns="http://www.w3.org/2000/svg">
<path d="M44.9377 93.6481C44.3995 94.186 43.6697 94.4882 42.9089 94.4882C42.148 94.4882 41.4182 94.186 40.8802 93.6481C40.3421 93.11 40.04 92.3803 40.04 91.6193C40.04 90.8584 40.3421 90.1286 40.8802 89.5906L45.7237 84.7501C46.2617 84.2122 46.9915 83.9099 47.7524 83.9099C48.5132 83.9099 49.243 84.2122 49.7812 84.7501C50.3168 85.2878 50.6176 86.0161 50.6176 86.7751C50.6176 87.5341 50.3168 88.2623 49.7812 88.8001L44.9377 93.6481Z" fill="white"/>
<path d="M44.4082 93.1183C44.3362 93.1873 44.2582 93.2533 44.1847 93.3193C44.1112 93.3853 44.3347 93.2203 44.1847 93.3193C44.1472 93.3433 44.1127 93.3703 44.0752 93.3943C43.9932 93.4464 43.9092 93.4963 43.8232 93.5443L43.7287 93.5893C43.5907 93.6553 43.8787 93.5353 43.6912 93.6028C43.6447 93.6193 43.1992 93.7828 43.1677 93.7393C43.1677 93.7393 43.3642 93.7198 43.2142 93.7318L43.0642 93.7453C42.9622 93.7453 42.8602 93.7453 42.7567 93.7453H42.6547H42.6037C42.5212 93.7363 42.5362 93.7453 42.6502 93.7528C42.5682 93.7291 42.4843 93.7116 42.3997 93.7003C42.3157 93.6793 42.2332 93.6538 42.1522 93.6253C42.1402 93.6253 41.9767 93.5668 42.0967 93.6058C42.2167 93.6448 42.0172 93.5683 41.9962 93.5578C41.9182 93.5178 41.8417 93.4743 41.7667 93.4273C41.7292 93.4048 41.6917 93.3793 41.6557 93.3538C41.6197 93.3283 41.5057 93.2743 41.6557 93.3538C41.4924 93.2362 41.3478 93.0946 41.2267 92.9338C41.1097 92.8003 41.2897 93.0298 41.2267 92.9338C41.2012 92.8978 41.1742 92.8618 41.1502 92.8243C41.1022 92.7508 41.0572 92.6743 41.0167 92.5978C40.9912 92.5513 40.9702 92.5033 40.9462 92.4568C40.8832 92.3278 40.9552 92.4868 40.9612 92.4913C40.9057 92.4448 40.8832 92.2708 40.8622 92.1913C40.8412 92.1118 40.8247 92.0248 40.8067 91.9408C40.7662 91.7653 40.8202 92.1148 40.8067 91.9408L40.7977 91.8388C40.7977 91.7458 40.7887 91.6513 40.7977 91.5568C40.7977 91.4983 40.7797 91.3228 40.8187 91.2763L40.8067 91.3738C40.8067 91.3408 40.8187 91.3063 40.8247 91.2733C40.8307 91.2403 40.8427 91.1893 40.8532 91.1473C40.8726 91.0636 40.8967 90.981 40.9252 90.8998C40.9333 90.8571 40.9486 90.816 40.9702 90.7783L40.9342 90.8608C40.9477 90.8293 40.9627 90.7978 40.9777 90.7663C41.0197 90.6795 41.0664 90.5949 41.1172 90.5128C41.1402 90.4758 41.1642 90.4383 41.1892 90.4003C41.2132 90.3658 41.2912 90.2143 41.1982 90.3793C41.25 90.3045 41.3104 90.2361 41.3782 90.1753L41.4352 90.1168C42.5932 88.9528 43.7572 87.7963 44.9167 86.6353C45.3577 86.1943 45.7987 85.7518 46.2412 85.3123L46.2592 85.2928C46.3252 85.2283 46.3927 85.1698 46.4617 85.1098C46.5937 84.9928 46.3657 85.1713 46.4617 85.1098C46.5142 85.0753 46.5637 85.0378 46.6117 85.0048C46.6867 84.9583 46.7617 84.9148 46.8412 84.8758L46.9597 84.8203C47.0587 84.7708 46.7857 84.8803 46.9492 84.8203C47.0317 84.7933 47.1112 84.7633 47.1952 84.7408C47.292 84.706 47.3928 84.6838 47.4952 84.6748L47.3977 84.6868L47.4997 84.6763L47.6017 84.6688C47.6872 84.6688 47.7727 84.6688 47.8582 84.6688C47.9107 84.6688 48.0712 84.6538 48.1132 84.6883L48.0157 84.6763L48.1162 84.6943L48.2662 84.7288C48.3502 84.7498 48.4327 84.7753 48.5137 84.8038C48.5677 84.8233 48.7087 84.8368 48.5287 84.8038C48.57 84.8182 48.6097 84.8368 48.6472 84.8593C48.7252 84.8983 48.7972 84.9403 48.8767 84.9868L48.9877 85.0588L49.0762 85.1203C49.0027 85.0633 48.9877 85.0513 49.0297 85.0858C49.1745 85.2111 49.3108 85.3459 49.4377 85.4893C49.4767 85.5328 49.5217 85.5448 49.4197 85.4653C49.4562 85.5043 49.4871 85.5483 49.5112 85.5958C49.569 85.6842 49.6215 85.7758 49.6687 85.8703C49.6852 85.9018 49.7002 85.9333 49.7152 85.9648C49.7932 86.1268 49.6642 85.8148 49.7152 85.9783C49.7407 86.0593 49.7707 86.1403 49.7947 86.2243C49.8187 86.3083 49.8322 86.3908 49.8517 86.4748C49.8832 86.6248 49.8517 86.4298 49.8517 86.4283C49.8772 86.4568 49.8682 86.5918 49.8697 86.6323C49.8697 86.7178 49.8697 86.8033 49.8697 86.8873C49.8697 86.9473 49.8817 87.1003 49.8487 87.1438L49.8607 87.0448C49.8577 87.0706 49.8532 87.0961 49.8472 87.1213C49.8397 87.1633 49.8307 87.2053 49.8217 87.2473C49.7976 87.3489 49.768 87.4489 49.7332 87.5473C49.7332 87.5593 49.6747 87.7213 49.7152 87.6028C49.7557 87.4843 49.6957 87.6418 49.6897 87.6568C49.6507 87.7348 49.6102 87.8068 49.5652 87.8878C49.5472 87.9148 49.4152 88.0768 49.4152 88.1083L49.4677 88.0423L49.3987 88.1263C49.3627 88.1683 49.3252 88.2073 49.2877 88.2478C48.9202 88.6303 48.5377 88.9978 48.1627 89.3728L44.4877 93.0493L44.4067 93.1303C44.335 93.1995 44.2779 93.2823 44.2386 93.3738C44.1993 93.4653 44.1786 93.5637 44.1778 93.6633C44.1769 93.7629 44.1958 93.8616 44.2336 93.9538C44.2713 94.0459 44.3269 94.1298 44.3974 94.2001C44.4678 94.2705 44.5516 94.3263 44.6437 94.3639C44.736 94.4017 44.8347 94.4206 44.9343 94.4197C45.0339 94.4188 45.1323 94.3983 45.2238 94.359C45.3153 94.3195 45.3981 94.2625 45.4672 94.1908L48.9667 90.6898C49.4167 90.2398 49.8667 89.8018 50.3032 89.3533C51.5272 88.1128 51.7372 86.0818 50.6782 84.6673C50.1316 83.9134 49.3153 83.3991 48.3993 83.2315C47.4834 83.0638 46.5379 83.2558 45.7597 83.7673C45.1837 84.1588 44.7097 84.7153 44.2162 85.2043L40.4032 89.0188C39.8533 89.5599 39.4873 90.2601 39.3568 91.0204C39.2263 91.7808 39.3378 92.5629 39.6757 93.2563C40.0944 94.0891 40.8186 94.728 41.6971 95.0394C42.5757 95.3508 43.5406 95.3106 44.3902 94.9273C44.7913 94.7499 45.1563 94.5001 45.4672 94.1908C45.6039 94.0494 45.6795 93.8599 45.6777 93.6633C45.676 93.4666 45.5971 93.2785 45.4581 93.1395C45.319 93.0004 45.1309 92.9215 44.9343 92.9199C44.7376 92.9181 44.5482 92.9937 44.4067 93.1303L44.4082 93.1183Z" fill="#222221"/>
<path d="M79.2261 93.648C79.7643 94.1859 80.4941 94.4881 81.2549 94.4881C82.0158 94.4881 82.7456 94.1859 83.2836 93.648C83.8215 93.1099 84.1238 92.3802 84.1238 91.6192C84.1238 90.8583 83.8215 90.1285 83.2836 89.5905L78.4401 84.75C77.9024 84.2143 77.1743 83.9136 76.4151 83.9136C75.6561 83.9136 74.928 84.2143 74.3901 84.75C73.8545 85.2877 73.5537 86.016 73.5537 86.775C73.5537 87.534 73.8545 88.2622 74.3901 88.8L79.2261 93.648Z" fill="white"/>
<path d="M78.6946 94.179C79.3534 94.8543 80.2501 95.2455 81.1931 95.2692C82.1363 95.293 83.0515 94.9472 83.7436 94.306C84.4355 93.6646 84.8497 92.7784 84.8975 91.8361C84.9455 90.894 84.6235 89.9701 84.0001 89.262C83.6146 88.797 83.1451 88.3889 82.7191 87.9629L80.4376 85.6815C79.9576 85.2015 79.4771 84.721 78.9961 84.2399C77.8186 83.0699 75.9361 82.8044 74.5126 83.6969C73.7188 84.1865 73.1447 84.9638 72.9101 85.8667C72.6757 86.7694 72.7988 87.7279 73.2541 88.542C73.6036 89.175 74.1961 89.6775 74.7031 90.192L78.6031 94.092L78.6916 94.1805C78.833 94.3171 79.0225 94.3927 79.2191 94.3909C79.4158 94.3893 79.6039 94.3104 79.7429 94.1713C79.882 94.0323 79.9609 93.8442 79.9625 93.6475C79.9643 93.4509 79.8887 93.2614 79.7521 93.12L76.4731 89.8394L74.9866 88.3499C74.9431 88.3064 74.8981 88.2629 74.8561 88.2164C74.8141 88.1699 74.7931 88.1504 74.7646 88.1159L74.7286 88.0739C74.6776 88.0109 74.6836 88.0184 74.7466 88.0979C74.684 88.0338 74.6333 87.9592 74.5966 87.8774C74.5501 87.8024 74.5096 87.7274 74.4706 87.6464C74.4524 87.6161 74.4379 87.584 74.4271 87.5504C74.4691 87.6509 74.4751 87.6614 74.4451 87.5864C74.4316 87.5534 74.4211 87.5204 74.4091 87.4874C74.3821 87.4064 74.3596 87.3239 74.3401 87.2399C74.3311 87.2069 74.3236 87.1724 74.3176 87.1394L74.3086 87.0885C74.2951 87.006 74.2951 87.0209 74.3086 87.1364C74.2877 87.0526 74.2807 86.9661 74.2876 86.88C74.2825 86.7801 74.2825 86.6799 74.2876 86.58C74.2876 86.5365 74.2951 86.4944 74.2996 86.4524C74.3101 86.3399 74.2606 86.6414 74.2996 86.4734C74.3176 86.3894 74.3326 86.3054 74.3566 86.2229C74.3806 86.1404 74.4076 86.0579 74.4361 85.9769C74.4946 85.8074 74.3596 86.127 74.4361 85.9635C74.4601 85.917 74.4811 85.869 74.5066 85.8225C74.5471 85.7445 74.5921 85.6724 74.6401 85.5944C74.6644 85.5469 74.6953 85.5031 74.7316 85.4639C74.7196 85.4729 74.6221 85.5929 74.7136 85.4879C74.7736 85.4189 74.8336 85.3499 74.8981 85.2854C74.9371 85.2464 74.9761 85.2089 75.0181 85.1729C75.0625 85.1414 75.104 85.1063 75.1426 85.0679L75.0766 85.119L75.1636 85.0574L75.2521 84.9989C75.3271 84.9524 75.4021 84.9089 75.4816 84.8699C75.5261 84.8417 75.574 84.8191 75.6241 84.8024C75.4606 84.8324 75.5551 84.8324 75.6136 84.8114C75.7025 84.7787 75.7931 84.7507 75.8851 84.7274L76.0351 84.6929L76.0861 84.6839C76.1521 84.6734 76.1536 84.6719 76.0861 84.6839H76.0366L76.1386 84.6734C76.1896 84.6734 76.2406 84.6659 76.2886 84.6644C76.3726 84.6644 76.4581 84.6644 76.5436 84.6644L76.6456 84.6719L76.7476 84.6824C76.6336 84.6674 76.6186 84.6659 76.7011 84.6824C76.8706 84.7214 77.0326 84.7635 77.1976 84.819C77.3281 84.8625 77.1766 84.804 77.1631 84.801C77.2156 84.8173 77.266 84.8399 77.3131 84.8684C77.407 84.9137 77.4986 84.9638 77.5876 85.0184C77.6161 85.0379 77.6446 85.0604 77.6746 85.0784C77.8246 85.1774 77.5546 84.9734 77.6941 85.0934C77.7631 85.1519 77.8306 85.2119 77.8966 85.2764L77.9191 85.2989L78.0796 85.4594L78.7756 86.1554L82.5781 89.9579L82.7281 90.1079L82.7821 90.1635C82.8121 90.1935 82.9186 90.36 82.9621 90.3675L82.9096 90.3015L82.9711 90.3885C83.0011 90.4335 83.0296 90.4784 83.0581 90.5234C83.1031 90.5984 83.1436 90.6735 83.1826 90.7545L83.2051 90.8024C83.2381 90.8774 83.2336 90.8654 83.1901 90.7664C83.1992 90.7999 83.2112 90.8326 83.2261 90.864C83.2553 90.9445 83.2804 91.0267 83.3011 91.11C83.3146 91.161 83.3266 91.2105 83.3356 91.26C83.3446 91.3095 83.3491 91.3275 83.3536 91.3605L83.3416 91.2629C83.3761 91.3019 83.3596 91.4625 83.3626 91.518C83.3626 91.6125 83.3626 91.707 83.3626 91.8C83.3626 91.8435 83.3626 91.8854 83.3521 91.9274C83.3386 92.0999 83.3791 91.797 83.3521 91.9065C83.3251 92.016 83.3131 92.1075 83.2846 92.2065C83.2561 92.3055 83.2306 92.37 83.2021 92.451C83.1676 92.556 83.2846 92.286 83.2021 92.4405C83.1781 92.487 83.1571 92.535 83.1316 92.5815C83.0911 92.658 83.0461 92.7314 82.9981 92.8079L82.9381 92.8965C82.8901 92.9625 82.8961 92.9549 82.9591 92.8739C82.9366 92.9024 82.9126 92.9295 82.8901 92.9565C82.7792 93.1029 82.6462 93.231 82.4956 93.336C82.6366 93.255 82.5541 93.2924 82.5196 93.3149L82.3861 93.4035C82.2973 93.4593 82.2052 93.5094 82.1101 93.5535C82.0802 93.5713 82.0486 93.5858 82.0156 93.5969C82.1911 93.5699 82.0576 93.5774 82.0006 93.5969C81.9196 93.6254 81.8371 93.6509 81.7546 93.6719C81.6728 93.6991 81.5884 93.7168 81.5026 93.7245L81.6001 93.711L81.4981 93.723L81.3481 93.732C81.2626 93.732 81.1771 93.732 81.0916 93.732L80.9416 93.7184C80.8231 93.7094 80.9836 93.7305 80.9881 93.726C80.9021 93.7197 80.8174 93.702 80.7361 93.6735C80.6356 93.648 80.5381 93.615 80.4361 93.5805C80.2666 93.522 80.5861 93.6555 80.4226 93.5805L80.3281 93.5355C80.2501 93.4954 80.1736 93.4519 80.0986 93.405C80.0536 93.3765 80.0116 93.3464 79.9666 93.3165C79.8541 93.243 79.9666 93.3285 79.9891 93.3375C79.8991 93.2752 79.8169 93.2022 79.7446 93.12C79.6031 92.9833 79.4137 92.9077 79.217 92.9095C79.0204 92.9111 78.8323 92.9901 78.6932 93.1291C78.5542 93.2682 78.4753 93.4563 78.4736 93.6529C78.4718 93.8496 78.5474 94.039 78.6841 94.1805L78.6946 94.179Z" fill="#222221"/>
<path d="M48.2621 39.1619C47.4299 37.9185 46.9819 36.458 46.9736 34.9619C46.9736 29.3744 53.5286 24.8279 61.5836 24.8279C69.6387 24.8279 76.1997 29.3774 76.1997 34.9649C76.1928 36.3453 75.8083 37.6976 75.0882 38.8754L72.9417 37.5959C73.4298 36.8045 73.6923 35.8947 73.7007 34.9649C73.7007 30.8264 68.1507 27.3299 61.5881 27.3299C55.0256 27.3299 49.4771 30.8264 49.4771 34.9649C49.4873 35.9759 49.7939 36.9615 50.3591 37.7999L48.2621 39.1619Z" fill="white"/>
<path d="M48.9103 38.7825C48.7753 38.5725 48.6463 38.358 48.5293 38.136C48.4768 38.037 48.4258 37.938 48.3793 37.836C48.3508 37.776 48.3223 37.716 48.2953 37.656C48.2683 37.596 48.2158 37.47 48.2668 37.593C48.0847 37.1532 47.9446 36.6972 47.8483 36.231C47.8243 36.117 47.8048 36.0015 47.7868 35.8845C47.7793 35.844 47.7628 35.6985 47.7868 35.862C47.7868 35.7975 47.7718 35.7345 47.7658 35.67C47.7433 35.436 47.7313 35.199 47.7313 34.9635C47.7313 34.8135 47.7313 34.6515 47.7463 34.497C47.7463 34.427 47.7523 34.3565 47.7643 34.2855C47.7643 34.224 47.8153 33.93 47.7643 34.1925C47.8617 33.5844 48.0226 32.9882 48.2443 32.4135C48.3028 32.2635 48.1708 32.58 48.2353 32.436L48.2683 32.358C48.3043 32.28 48.3388 32.208 48.3763 32.127C48.4453 31.986 48.5173 31.8465 48.5938 31.7085C48.7486 31.43 48.9183 31.1601 49.1023 30.9C49.1458 30.84 49.1878 30.78 49.2328 30.7215C49.2583 30.6855 49.2898 30.651 49.3123 30.615C49.2103 30.7785 49.2553 30.687 49.2913 30.6435C49.3993 30.5085 49.5073 30.3765 49.6213 30.246C49.8433 29.993 50.0769 29.751 50.3218 29.52C50.5668 29.289 50.8288 29.0615 51.1078 28.8375L51.2023 28.764C51.2863 28.6965 51.0523 28.8765 51.1843 28.7775L51.3793 28.6275C51.5383 28.512 51.6988 28.3995 51.8623 28.29C52.4842 27.8777 53.1361 27.5121 53.8123 27.1965C53.9728 27.1215 54.1333 27.0465 54.2953 26.9805C54.4573 26.9145 54.1453 27.0435 54.3118 26.9805L54.4363 26.9295C54.5428 26.886 54.6523 26.844 54.7603 26.802C55.1353 26.6591 55.5148 26.529 55.8988 26.412C56.6859 26.172 57.4876 25.9827 58.2988 25.845C58.4998 25.8105 58.7008 25.7805 58.8988 25.752C59.0968 25.7235 58.7338 25.7715 58.9333 25.752L59.0503 25.737L59.4328 25.695C59.8603 25.6515 60.2908 25.62 60.7198 25.6035C61.6107 25.5672 62.503 25.5873 63.3913 25.6635C63.6088 25.683 63.8263 25.7055 64.0423 25.731L64.1923 25.749C64.2373 25.749 64.3768 25.7715 64.1923 25.749C64.3078 25.7625 64.4233 25.7805 64.5388 25.7985C64.9578 25.8626 65.3743 25.94 65.7883 26.031C66.586 26.2061 67.3711 26.4335 68.1388 26.712C68.3248 26.7795 68.5093 26.85 68.6938 26.925C68.7448 26.946 69.0058 27.0465 68.8093 26.9715C68.9083 27.009 69.0058 27.0555 69.1018 27.099C69.4498 27.249 69.7933 27.423 70.1293 27.6045C70.7727 27.9521 71.3898 28.3461 71.9758 28.7835C72.1078 28.8825 71.8738 28.7025 71.9578 28.77L72.0523 28.8435L72.2563 29.01C72.3958 29.1255 72.5323 29.244 72.6673 29.367C72.9174 29.595 73.1574 29.8335 73.3873 30.0825C73.4893 30.195 73.5883 30.3075 73.6873 30.423C73.7443 30.492 73.8013 30.561 73.8568 30.6315C73.8748 30.6555 73.8928 30.6795 73.9123 30.702C73.7623 30.5325 73.8973 30.684 73.9288 30.7275C74.1204 30.9846 74.2977 31.2519 74.4598 31.5285C74.62 31.7984 74.7643 32.0772 74.8918 32.364C74.9038 32.3895 74.9143 32.4165 74.9263 32.442C74.9893 32.592 74.8588 32.2725 74.9158 32.4195C74.9413 32.484 74.9683 32.55 74.9923 32.616C75.0523 32.7735 75.1063 32.9325 75.1543 33.0945C75.2431 33.3899 75.3133 33.6905 75.3643 33.9945C75.3763 34.0635 75.3853 34.1325 75.3958 34.2015C75.3523 33.9405 75.3958 34.2015 75.3958 34.254C75.4123 34.4145 75.4228 34.5765 75.4288 34.7385C75.4288 34.926 75.4288 35.1135 75.4288 35.2995C75.4288 35.409 75.4168 35.517 75.4063 35.625C75.4063 35.691 75.3928 35.7555 75.3868 35.82C75.3748 35.9085 75.3763 35.907 75.3868 35.82C75.3868 35.8515 75.3763 35.8845 75.3718 35.916C75.298 36.3812 75.1801 36.8382 75.0193 37.281C74.9968 37.3425 74.9743 37.4055 74.9503 37.467C74.9428 37.485 74.8573 37.689 74.9233 37.536C74.8783 37.6395 74.8318 37.7415 74.7838 37.8435C74.6739 38.0696 74.5543 38.2916 74.4253 38.5095L75.4513 38.2395L73.3048 36.96L73.5748 37.9875C74.3446 36.7196 74.6022 35.2058 74.2948 33.7545C74.0578 32.694 73.4923 31.7355 72.7948 30.915C71.1748 29.0145 68.7448 27.846 66.3688 27.2115C63.4854 26.4528 60.4632 26.3891 57.5503 27.0255C55.0708 27.567 52.5583 28.6575 50.7523 30.4875C49.9629 31.2644 49.3615 32.2116 48.9943 33.2565C48.5887 34.4855 48.6291 35.8179 49.1083 37.02C49.2711 37.4285 49.4719 37.8207 49.7083 38.1915L49.9783 37.1655L47.8783 38.526C47.5498 38.739 47.3833 39.201 47.6098 39.552C47.8213 39.8805 48.2833 40.05 48.6358 39.8205L50.7358 38.4615C51.0658 38.247 51.2323 37.7895 51.0058 37.4355C50.9053 37.2855 50.8108 37.1205 50.7253 36.9585C50.6773 36.8685 50.6323 36.777 50.5903 36.6855C50.5813 36.6675 50.5243 36.5355 50.5603 36.624C50.5963 36.7125 50.5303 36.546 50.5243 36.5295C50.3961 36.1899 50.3026 35.838 50.2453 35.4795C50.2738 35.6505 50.2453 35.4135 50.2363 35.364C50.2363 35.2785 50.2258 35.1945 50.2228 35.1105C50.2228 34.974 50.2228 34.839 50.2303 34.704C50.2303 34.599 50.2498 34.494 50.2588 34.389C50.2378 34.638 50.2513 34.4565 50.2588 34.389C50.2663 34.3215 50.2828 34.26 50.2963 34.1955C50.3446 33.9747 50.4072 33.7572 50.4838 33.5445C50.5018 33.4935 50.5213 33.444 50.5408 33.3945C50.5521 33.3701 50.5621 33.345 50.5708 33.3195C50.5708 33.327 50.4928 33.4965 50.5438 33.387C50.5948 33.2775 50.6458 33.1635 50.7028 33.0555C50.812 32.8454 50.9338 32.6421 51.0673 32.4465C51.1318 32.352 51.1993 32.259 51.2668 32.1675C51.3343 32.076 51.1588 32.3025 51.2818 32.148L51.4078 31.998C51.7453 31.6043 52.1173 31.2413 52.5193 30.9135L52.6693 30.7935C52.7458 30.732 52.5508 30.882 52.6303 30.8235L52.7083 30.765C52.8253 30.6765 52.9453 30.591 53.0653 30.5085C53.2933 30.351 53.5273 30.2085 53.7658 30.0585C54.0043 29.9085 54.2788 29.7705 54.5428 29.6385C54.6778 29.5725 54.8143 29.5065 54.9508 29.445L55.1473 29.3565L55.2478 29.313C55.3333 29.2755 55.1113 29.3685 55.2478 29.313C55.8355 29.0729 56.4366 28.8665 57.0478 28.695C57.6922 28.518 58.3464 28.3784 59.0068 28.2765L59.2468 28.242C59.2813 28.242 59.3968 28.215 59.2273 28.242L59.3473 28.227C59.5303 28.2041 59.7133 28.1846 59.8963 28.1685C60.2473 28.1355 60.5973 28.113 60.9463 28.101C61.6467 28.0773 62.3478 28.0932 63.0463 28.149L63.5668 28.1985L63.8083 28.227C63.8491 28.2297 63.8896 28.2347 63.9298 28.242C63.8308 28.2195 63.8548 28.2315 63.9403 28.242C64.2763 28.29 64.6108 28.3475 64.9438 28.4145C65.578 28.5414 66.2041 28.7057 66.8188 28.9065C67.1188 29.004 67.4188 29.112 67.7098 29.2275L67.9138 29.31C68.0413 29.3625 67.9003 29.31 67.8838 29.298C67.9161 29.3153 67.9497 29.3298 67.9843 29.3415C68.1343 29.406 68.2843 29.472 68.4238 29.541C68.9511 29.7926 69.4602 30.0803 69.9478 30.402C70.0573 30.474 70.1653 30.552 70.2718 30.6255L70.4293 30.741L70.5073 30.7995C70.6438 30.9015 70.3738 30.693 70.5073 30.7995C70.7143 30.9675 70.9183 31.1385 71.1073 31.3215C71.2963 31.5045 71.4733 31.68 71.6428 31.872C71.7208 31.9605 71.7928 32.0505 71.8693 32.142C71.8861 32.1654 71.9041 32.1879 71.9233 32.2095C71.9158 32.2095 71.8138 32.0595 71.8858 32.1615C71.9278 32.2185 71.9713 32.277 72.0118 32.3355C72.1458 32.5239 72.2691 32.7197 72.3808 32.922C72.4378 33.024 72.4903 33.1275 72.5413 33.2325L72.6088 33.3825C72.6298 33.4275 72.6493 33.5085 72.5803 33.315C72.5923 33.3465 72.6058 33.378 72.6193 33.408C72.702 33.6192 72.7707 33.8357 72.8248 34.056C72.8488 34.158 72.8713 34.2615 72.8893 34.365C72.8893 34.3935 72.9223 34.5915 72.9043 34.4415C72.8863 34.2915 72.9118 34.5225 72.9148 34.5585C72.9381 34.8255 72.9381 35.094 72.9148 35.361C72.9148 35.4135 72.9043 35.4675 72.8998 35.52C72.8893 35.6355 72.9223 35.3985 72.8998 35.52C72.8833 35.604 72.8713 35.6895 72.8533 35.7735C72.8133 35.9541 72.7632 36.1325 72.7033 36.3075C72.6748 36.3915 72.6433 36.474 72.6133 36.558C72.5413 36.7575 72.6523 36.477 72.5998 36.5955C72.5803 36.636 72.5623 36.6765 72.5428 36.7185C72.4603 36.8955 72.3673 37.0665 72.2683 37.236C72.1714 37.4085 72.1453 37.6119 72.1954 37.8033C72.2454 37.9946 72.3679 38.1591 72.5368 38.262L74.6998 39.5235C74.8723 39.6207 75.076 39.6468 75.2676 39.5964C75.459 39.546 75.6234 39.423 75.7258 39.2535C76.7322 37.5777 77.1216 35.603 76.8268 33.6705C76.6039 32.3397 76.0666 31.0812 75.2593 30C73.3723 27.4305 70.4713 25.785 67.4518 24.9C63.9106 23.8823 60.1656 23.8028 56.5843 24.669C53.5438 25.404 50.4898 26.8995 48.4408 29.319C47.5122 30.3834 46.8381 31.6454 46.4698 33.009C46.042 34.7507 46.2003 36.5847 46.9198 38.2275C47.1151 38.6823 47.3485 39.1199 47.6173 39.5355C47.8288 39.8655 48.2923 40.0305 48.6433 39.804C48.8112 39.7011 48.9327 39.5375 48.9825 39.347C49.0321 39.1566 49.0063 38.9543 48.9103 38.7825Z" fill="#222221"/>
<path d="M76.0592 37.2012L71.0977 44.9356L81.0365 51.3112L85.998 43.5769L76.0592 37.2012Z" fill="white"/>
<path d="M70.9109 45.2655L74.2829 47.4285L79.6199 50.85L80.8499 51.639C80.9362 51.6876 81.038 51.7007 81.1337 51.6755C81.2296 51.6503 81.3118 51.5888 81.3629 51.504L83.0474 48.879L85.7099 44.73L86.3249 43.7715C86.3735 43.6853 86.3866 43.5834 86.3614 43.4877C86.3362 43.3919 86.2747 43.3097 86.1899 43.2585L82.8179 41.1L77.4824 37.6755L76.2524 36.8865C76.1663 36.8378 76.0646 36.8246 75.9689 36.8495C75.8732 36.8744 75.7909 36.9356 75.7394 37.02L74.0534 39.645L71.3999 43.8L70.7849 44.7585C70.5224 45.1665 71.1719 45.543 71.4314 45.1365L73.1174 42.5115L75.7784 38.3625L76.3934 37.404L75.8804 37.5375L79.2524 39.702L84.5894 43.125L85.8194 43.914L85.6844 43.401L83.9999 46.0215L81.3389 50.1705L80.7224 51.129L81.2354 50.994L77.8649 48.831L72.5279 45.408L71.2979 44.6175C70.8824 44.3565 70.4999 45 70.9109 45.2655Z" fill="#222221"/>
<g opacity="0.51">
<path opacity="0.51" d="M79.7024 36.864L73.3679 46.7385L68.0249 43.311L67.9424 43.44L80.7989 51.6885L87.2174 41.685L79.7024 36.864Z" fill="#222221"/>
</g>
<path d="M71.8154 38.9534C72.3707 37.7735 73.178 36.7295 74.1803 35.8952C75.1826 35.0609 76.3556 34.4564 77.6168 34.1243C78.8779 33.7922 80.1965 33.7405 81.4798 33.973C82.763 34.2053 83.9797 34.7162 85.0442 35.4695C86.1086 36.223 86.9952 37.2004 87.6412 38.3333C88.2871 39.4663 88.677 40.7269 88.7832 42.0268C88.8895 43.3265 88.7095 44.6338 88.2561 45.8566C87.8025 47.0792 87.0865 48.1877 86.1585 49.1039L71.8154 38.9534Z" fill="white"/>
<path d="M72.4617 39.333C72.7311 38.7737 73.053 38.2413 73.4232 37.743C73.4727 37.6755 73.3902 37.788 73.3872 37.7895C73.412 37.7639 73.4342 37.7357 73.4532 37.7055L73.5702 37.5555C73.6542 37.4535 73.7412 37.3545 73.8297 37.2555C73.9932 37.077 74.1642 36.903 74.3427 36.738C74.5212 36.573 74.7012 36.42 74.8887 36.27C74.9922 36.1875 74.7792 36.351 74.9202 36.2475C74.9667 36.2115 75.0147 36.1755 75.0702 36.141C75.1722 36.0675 75.2772 35.991 75.3837 35.9265C75.7842 35.6639 76.2057 35.4347 76.6437 35.241C76.7277 35.2035 76.7607 35.1975 76.6437 35.241C76.6992 35.2215 76.7517 35.1975 76.8072 35.1765C76.9223 35.1296 77.0393 35.0861 77.1582 35.046C77.3787 34.9695 77.6082 34.896 77.8272 34.8435C78.0462 34.791 78.2952 34.731 78.5322 34.6935L78.7047 34.665C78.7347 34.665 78.9297 34.632 78.8022 34.6485C78.6747 34.665 78.8757 34.641 78.8997 34.638L79.0737 34.62C79.5465 34.5762 80.022 34.5708 80.4957 34.6035C80.6127 34.611 80.7297 34.6215 80.8452 34.6335L81.0207 34.653L80.9457 34.644C80.9457 34.644 81.0627 34.6605 81.0702 34.662C81.3027 34.698 81.5337 34.7445 81.7632 34.7985C81.9927 34.8525 82.2387 34.923 82.4727 34.9995C82.5777 35.034 82.6827 35.0715 82.7877 35.109L82.9557 35.1735L83.0502 35.2125C83.1417 35.2485 83.0502 35.2125 83.0142 35.196C83.2433 35.2781 83.4633 35.3832 83.6712 35.5095C83.8962 35.6295 84.1163 35.7585 84.3312 35.8965C84.4362 35.964 84.5397 36.033 84.6417 36.105C84.6867 36.1365 84.7302 36.1665 84.7737 36.1995L84.8592 36.2625L84.8892 36.285C84.8022 36.219 84.9582 36.339 84.9807 36.357L85.1307 36.4755C85.2312 36.561 85.3302 36.648 85.4307 36.7365C85.6092 36.9015 85.7802 37.0725 85.9452 37.2525C86.0262 37.3395 86.1057 37.431 86.1837 37.5225C86.2227 37.5675 86.2602 37.614 86.2992 37.6605C86.3382 37.707 86.4492 37.851 86.3832 37.7655C86.3172 37.68 86.4327 37.8345 86.4477 37.8525L86.5362 37.9755C86.6097 38.079 86.6862 38.1855 86.7492 38.292C86.8827 38.496 87.0057 38.7075 87.1212 38.922C87.2367 39.1365 87.3327 39.3405 87.4212 39.555C87.4767 39.678 87.3627 39.405 87.4332 39.5835C87.4557 39.6375 87.4767 39.6915 87.4977 39.7455C87.5397 39.855 87.5802 39.9645 87.6177 40.0755C87.7694 40.5243 87.8862 40.9842 87.9672 41.451L87.9942 41.6235C87.9962 41.657 88.0012 41.69 88.0092 41.7225C88.0092 41.7225 87.9897 41.562 87.9987 41.646C88.0107 41.7705 88.0272 41.8935 88.0377 42.018C88.0572 42.2505 88.0677 42.483 88.0677 42.7155C88.0677 42.948 88.0677 43.2 88.0437 43.44C88.0347 43.5495 88.0242 43.6575 88.0122 43.7655C88.0122 43.8015 87.9852 43.983 88.0002 43.8645C88.0152 43.746 88.0002 43.8435 88.0002 43.8645C88.0002 43.8855 87.9882 43.9485 87.9807 43.989C87.904 44.4651 87.7887 44.9342 87.6357 45.3915C87.5987 45.5045 87.5582 45.617 87.5142 45.729C87.4962 45.777 87.4782 45.825 87.4587 45.879C87.4487 45.9116 87.4355 45.9432 87.4197 45.9735C87.4422 45.939 87.4737 45.8475 87.4347 45.9375C87.3327 46.1685 87.2247 46.395 87.1047 46.617C86.9847 46.839 86.8497 47.04 86.7192 47.25C86.6483 47.3561 86.5763 47.4611 86.5032 47.565C86.4567 47.631 86.4072 47.6955 86.3532 47.76C86.3622 47.7495 86.4192 47.6775 86.3667 47.745L86.2587 47.877C86.0582 48.1211 85.8455 48.3549 85.6212 48.5775L86.5302 48.4605L85.0992 47.4465L81.6777 45.0255L77.5257 42.087L73.9497 39.555C73.3722 39.1455 72.8067 38.709 72.2112 38.3235L72.1872 38.307C71.8662 38.079 71.3397 38.238 71.1612 38.5755C71.0658 38.7483 71.0405 38.9513 71.0906 39.1422C71.1405 39.3332 71.2619 39.4976 71.4297 39.6015L72.8622 40.614L76.2822 43.0365L80.4342 45.975L84.0102 48.504C84.5862 48.912 85.1502 49.3605 85.7487 49.734L85.7727 49.752C86.0412 49.9425 86.4612 49.8555 86.6817 49.635C88.3383 47.985 89.3493 45.7965 89.5317 43.4655C89.6874 41.3696 89.1557 39.2799 88.0167 37.5135C86.8046 35.6547 84.9984 34.2615 82.8927 33.561C80.8271 32.8853 78.594 32.9244 76.5533 33.6722C74.5127 34.4199 72.7829 35.8326 71.6427 37.683C71.4657 37.9742 71.3045 38.2746 71.1597 38.583C70.9902 38.937 71.0502 39.4095 71.4282 39.609C71.7702 39.7785 72.2817 39.711 72.4617 39.333Z" fill="#222221"/>
<path d="M47.1986 37.5833L37.2598 43.959L42.2213 51.6933L52.1601 45.3177L47.1986 37.5833Z" fill="white"/>
<path d="M51.9727 44.988L48.5992 47.151L43.2622 50.5755L42.0322 51.3645L42.5452 51.4995L40.8607 48.873L38.1982 44.7255L37.5832 43.7655L37.4482 44.2785L40.8202 42.1155L46.1572 38.691L47.3872 37.902L46.8742 37.7685L48.5587 40.3935L51.2227 44.55L51.8377 45.5085C52.0972 45.9135 52.7467 45.5385 52.4857 45.1305L50.8012 42.504L48.1387 38.3565L47.5237 37.3965C47.4725 37.3117 47.3902 37.2502 47.2943 37.2253C47.1985 37.2004 47.0966 37.2139 47.0107 37.263L43.6387 39.426L38.3017 42.849L37.0717 43.6395C36.9869 43.6906 36.9254 43.7728 36.9002 43.8687C36.875 43.9644 36.8881 44.0662 36.9367 44.1525L38.6227 46.7775L41.2837 50.9265L41.8987 51.885C41.9498 51.9697 42.032 52.0312 42.1279 52.0564C42.2236 52.0816 42.3254 52.0686 42.4117 52.02L45.7837 49.857L51.1207 46.4325L52.3507 45.6435C52.7557 45.3765 52.3807 44.727 51.9727 44.988Z" fill="#222221"/>
<g opacity="0.51">
<path opacity="0.51" d="M39.3926 41.6024L45.8996 51.3644L40.6181 54.8849L40.7036 55.0124L53.4146 46.5404L46.8206 36.6494L39.3926 41.6024Z" fill="#222221"/>
</g>
<path d="M81.0595 86.6374C91.6628 76.0341 91.6628 58.8427 81.0595 48.2394C70.4562 37.636 53.2648 37.636 42.6615 48.2394C32.0581 58.8427 32.0581 76.0341 42.6615 86.6374C53.2648 97.2406 70.4562 97.2406 81.0595 86.6374Z" fill="white"/>
<path d="M88.2644 67.4385C88.2644 68.1615 88.2359 68.8845 88.1789 69.606C88.1519 69.955 88.1174 70.305 88.0754 70.656C88.0664 70.743 88.0544 70.83 88.0439 70.9155C88.0439 70.9155 88.0274 71.043 88.0439 70.965C88.0604 70.887 88.0349 71.0325 88.0319 71.0505C88.0079 71.2215 87.9824 71.394 87.9539 71.5665C87.7337 72.9469 87.4061 74.308 86.9744 75.6375C86.7644 76.2825 86.5308 76.918 86.2739 77.544C86.2619 77.5755 86.1779 77.7765 86.2244 77.6655L86.1254 77.898C86.0534 78.063 85.9754 78.2265 85.9034 78.3915C85.7639 78.6915 85.6184 78.9915 85.4669 79.2915C84.8579 80.4949 84.1605 81.6517 83.3804 82.752C83.1804 83.0329 82.9754 83.31 82.7654 83.583L82.7084 83.6565C82.6574 83.7225 82.6049 83.787 82.5584 83.8515C82.4474 83.9914 82.3349 84.1295 82.2209 84.2655C81.7949 84.7775 81.3513 85.272 80.8904 85.749C80.4294 86.226 79.9428 86.695 79.4309 87.156C79.1819 87.3765 78.9314 87.594 78.6809 87.8055C78.5534 87.912 78.4244 88.017 78.2954 88.1205L78.0989 88.2705L77.9999 88.35L77.9549 88.3845C76.8831 89.1994 75.7542 89.9362 74.5769 90.5895C73.9769 90.9184 73.3668 91.225 72.7469 91.509C72.6059 91.5735 72.4619 91.638 72.3194 91.6995L72.0869 91.8L71.9369 91.863C71.6249 91.9905 71.3099 92.1135 70.9919 92.229C69.6965 92.7028 68.3666 93.0765 67.0139 93.3465C65.6585 93.6226 64.2819 93.7831 62.8994 93.8265C61.4696 93.8796 60.0377 93.8214 58.6169 93.6525L58.3559 93.621C58.2674 93.609 58.3559 93.621 58.3709 93.621L58.2209 93.6C58.0499 93.576 57.8774 93.5505 57.7064 93.522C57.3644 93.468 57.0239 93.405 56.6849 93.3375C55.9949 93.1975 55.3143 93.0349 54.6434 92.85C53.9724 92.665 53.3148 92.451 52.6709 92.208C52.3529 92.091 52.0379 91.968 51.7259 91.839L51.5924 91.7835C51.6059 91.7835 51.6854 91.8225 51.6059 91.7835L51.3734 91.683C51.2234 91.6155 51.0659 91.5465 50.9129 91.476C49.6743 90.9067 48.4803 90.2449 47.3414 89.496C46.7804 89.132 46.2378 88.7455 45.7139 88.3365C45.8099 88.41 45.6404 88.278 45.6134 88.257L45.4184 88.107C45.2789 87.9945 45.1409 87.882 45.0044 87.768C44.7494 87.555 44.4993 87.3375 44.2544 87.1155C43.257 86.2197 42.327 85.2516 41.4719 84.219C41.3658 84.09 41.2608 83.961 41.1569 83.832L41.0069 83.6355L40.9409 83.5515C40.9904 83.6145 40.9574 83.5725 40.9289 83.5335C40.7204 83.259 40.5149 82.983 40.3169 82.701C39.9249 82.146 39.5544 81.5775 39.2054 80.9955C38.8563 80.4135 38.5344 79.827 38.2394 79.236C38.0883 78.936 37.9428 78.633 37.8029 78.327C37.7339 78.177 37.6649 78.027 37.5989 77.8665L37.5224 77.6895C37.5524 77.76 37.5059 77.6505 37.5044 77.646L37.4354 77.4795C36.9179 76.2074 36.4982 74.8975 36.1799 73.5615C36.0159 72.8775 35.8799 72.1885 35.7719 71.4945C35.7464 71.334 35.7224 71.175 35.6999 71.0145V70.992L35.6864 70.881C35.6729 70.782 35.6609 70.683 35.6504 70.581C35.6103 70.233 35.5769 69.883 35.5499 69.531C35.4372 68.1012 35.4372 66.6648 35.5499 65.235C35.5779 64.872 35.6139 64.5105 35.6579 64.1505C35.6684 64.0635 35.6804 63.9765 35.6909 63.8895C35.6759 64.0095 35.6999 63.8295 35.7044 63.7935C35.7314 63.609 35.7584 63.4245 35.7884 63.2415C35.9024 62.5485 36.0423 61.8604 36.2084 61.1775C36.5357 59.8449 36.9624 58.5388 37.4849 57.27C37.4984 57.2355 37.5119 57.2025 37.5269 57.1695L37.5359 57.1485L37.6214 56.9505C37.6934 56.7855 37.7714 56.6205 37.8434 56.457C37.9934 56.1405 38.1434 55.8285 38.2934 55.518C38.5934 54.918 38.9189 54.3334 39.2699 53.7645C39.9498 52.6359 40.7156 51.5613 41.5604 50.55C42.4205 49.5213 43.3554 48.5575 44.3579 47.667C44.6049 47.446 44.8548 47.23 45.1079 47.019L45.4949 46.704L45.6629 46.572C45.6764 46.5615 45.7934 46.4715 45.7274 46.521L45.7934 46.4715C46.3334 46.0624 46.8873 45.672 47.4554 45.3C48.5889 44.5629 49.7757 43.911 51.0059 43.35C51.1559 43.281 51.3059 43.212 51.4664 43.146C51.4979 43.1325 51.6989 43.047 51.5864 43.0935L51.8534 42.984C52.1669 42.8565 52.4834 42.735 52.7999 42.621C53.4399 42.389 54.0899 42.1815 54.7499 41.9985C55.4219 41.811 56.0999 41.649 56.7884 41.514C57.1293 41.446 57.4704 41.3854 57.8114 41.3325C57.9839 41.3055 58.1549 41.28 58.3274 41.2575C58.4159 41.244 58.3274 41.2575 58.3139 41.2575L58.4639 41.238L58.7639 41.2035C60.1868 41.0418 61.6202 40.9917 63.0509 41.0535C63.7664 41.0835 64.4819 41.142 65.1929 41.229L65.4149 41.2575L65.5484 41.2755C65.7329 41.3025 65.9174 41.331 66.1004 41.361C66.4424 41.4169 66.7829 41.4795 67.1219 41.5485C68.4845 41.8266 69.8235 42.2097 71.1269 42.6945C71.8244 42.9525 72.2324 43.1235 72.8819 43.4235C73.5009 43.7095 74.1089 44.0194 74.7059 44.3535C75.3029 44.6875 75.8733 45.0345 76.4174 45.3945C76.7054 45.5835 76.9893 45.7785 77.2694 45.9795C77.3954 46.0695 77.5199 46.161 77.6444 46.2525L77.8439 46.4025L77.9744 46.5015C79.0326 47.3262 80.0285 48.2281 80.9534 49.2C81.4214 49.689 81.8714 50.1945 82.3034 50.7165C82.4099 50.8455 82.5134 50.9745 82.6169 51.105C82.6619 51.1605 82.7054 51.216 82.7489 51.273C82.7624 51.288 82.8359 51.384 82.7624 51.2895C82.7924 51.327 82.8209 51.3645 82.8494 51.4035C83.0493 51.6675 83.2458 51.936 83.4389 52.209C84.2225 53.3217 84.921 54.492 85.5284 55.71C85.6784 56.01 85.8224 56.313 85.9604 56.619C86.0309 56.769 86.0984 56.919 86.1644 57.081C86.1779 57.1125 86.2469 57.2745 86.2019 57.168C86.2394 57.2565 86.2769 57.345 86.3129 57.435C86.5709 58.074 86.8053 58.7239 87.0164 59.385C87.437 60.706 87.7554 62.0575 87.9689 63.4275C87.9959 63.6 88.0214 63.7725 88.0439 63.945C88.0274 63.8205 88.0574 64.044 88.0604 64.0785C88.0724 64.1655 88.0814 64.2525 88.0919 64.3395C88.1294 64.6755 88.1624 65.013 88.1879 65.3505C88.2399 66.0505 88.2663 66.7474 88.2674 67.4415C88.2674 67.6404 88.3464 67.8312 88.487 67.9719C88.6277 68.1124 88.8185 68.1915 89.0174 68.1915C89.2163 68.1915 89.4071 68.1124 89.5478 67.9719C89.6883 67.8312 89.7674 67.6404 89.7674 67.4415C89.7671 64.5237 89.3117 61.6239 88.4174 58.8465C87.5499 56.1675 86.2799 53.6359 84.6509 51.339C83.0051 49.0271 81.0227 46.9743 78.7694 45.249C73.0395 40.8786 65.84 38.8966 58.6806 39.7191C51.5214 40.5417 44.9588 44.1045 40.3694 49.6605C38.5634 51.8557 37.097 54.3096 36.0194 56.94C33.3095 63.6144 33.2846 71.0779 35.9498 77.7703C38.615 84.4627 43.764 89.8657 50.3204 92.85C55.6938 95.2845 61.6989 95.9595 67.4789 94.779C70.2645 94.2112 72.9459 93.2175 75.4289 91.833C79.1328 89.7753 82.3188 86.9001 84.7445 83.4259C87.1701 79.9518 88.7715 75.9702 89.4269 71.784C89.6496 70.3482 89.7635 68.8975 89.7674 67.4445C89.7674 67.2456 89.6883 67.0548 89.5478 66.9141C89.4071 66.7735 89.2163 66.6945 89.0174 66.6945C88.8185 66.6945 88.6277 66.7735 88.487 66.9141C88.3464 67.0548 88.2674 67.2456 88.2674 67.4445L88.2644 67.4385Z" fill="#222221"/>
<path d="M83.9165 72.2419C86.5676 60.0617 78.8431 48.0386 66.6629 45.3874C54.4828 42.7361 42.4595 50.4608 39.8083 62.641C37.157 74.8211 44.8817 86.8442 57.0619 89.4955C69.242 92.1467 81.2653 84.422 83.9165 72.2419Z" fill="white"/>
<path d="M84.0582 67.4386C84.0567 70.8709 83.2598 74.256 81.7301 77.3284C80.2002 80.4009 77.9792 83.077 75.2412 85.1467C72.5033 87.2164 69.3228 88.6234 65.9496 89.2573C62.5764 89.8912 59.1023 89.7348 55.7997 88.8001C53.6252 88.183 51.5582 87.2359 49.6707 85.9921C47.816 84.7693 46.1537 83.277 44.7387 81.5641C41.8325 78.0523 40.085 73.7268 39.7362 69.1816C39.5541 66.8301 39.7445 64.4644 40.3002 62.1721C40.8344 59.9794 41.7003 57.8812 42.8682 55.9501C45.1961 52.1121 48.6282 49.0662 52.7157 47.2111C54.7965 46.2663 57.0123 45.6528 59.2827 45.3931C61.6221 45.1257 63.9888 45.2269 66.2967 45.6931C71.3144 46.708 75.8258 49.4293 79.0638 53.3946C82.3017 57.3597 84.0666 62.3239 84.0582 67.4431C84.0582 67.9261 84.8082 67.9261 84.8082 67.4431C84.816 62.6917 83.3411 58.0563 80.5887 54.1831C79.245 52.2957 77.6271 50.6193 75.7887 49.2091C71.0732 45.6028 65.1429 43.966 59.2451 44.6427C53.3474 45.3195 47.942 48.2571 44.1657 52.8376C42.6902 54.6291 41.4918 56.6319 40.6107 58.7791C39.7124 60.9802 39.1637 63.3084 38.9847 65.6791C38.7975 68.0982 38.9934 70.5316 39.5652 72.8896C40.1162 75.1566 41.0121 77.3254 42.2217 79.3201C44.6762 83.3715 48.3231 86.565 52.6632 88.4629C57.0032 90.3609 61.8239 90.8706 66.4647 89.9221C71.0496 88.986 75.2384 86.6694 78.4683 83.2834C81.6984 79.8973 83.8149 75.6042 84.5337 70.9801C84.7143 69.8082 84.8061 68.6244 84.8082 67.4386C84.8082 66.9556 84.0582 66.9556 84.0582 67.4386Z" fill="#222221"/>
<g opacity="0.13">
<path opacity="0.13" d="M61.8615 45.0315C61.3425 45.0315 60.828 45.051 60.3165 45.0855C65.5394 46.3782 70.1286 49.494 73.2573 53.8713C76.3859 58.2486 77.8479 63.5995 77.3799 68.9595C76.9121 74.3196 74.5448 79.3362 70.7049 83.1051C66.8652 86.8741 61.8054 89.1474 56.4375 89.5155C59.5385 90.2823 62.7669 90.3822 65.9093 89.8086C69.0516 89.235 72.0366 88.0009 74.6666 86.1879C77.2967 84.375 79.5119 82.0245 81.1661 79.2918C82.8201 76.5591 83.8754 73.5063 84.2621 70.3354C84.6486 67.1646 84.3579 63.9478 83.4089 60.8977C82.4598 57.8476 80.8743 55.0336 78.7569 52.6417C76.6395 50.25 74.0387 48.3348 71.1261 47.0229C68.2137 45.711 65.0559 45.0322 61.8615 45.0315Z" fill="#222221"/>
</g>
<path d="M62.7003 47.7959C62.7006 47.9609 62.6518 48.1223 62.5605 48.2597C62.469 48.3969 62.3388 48.5042 62.1865 48.5675C62.0341 48.6308 61.8664 48.6476 61.7044 48.6155C61.5426 48.5835 61.3938 48.5042 61.2771 48.3876C61.1602 48.2711 61.0807 48.1224 61.0483 47.9606C61.0161 47.7989 61.0326 47.631 61.0956 47.4786C61.1587 47.3261 61.2655 47.1957 61.4028 47.1041C61.5399 47.0123 61.7013 46.9634 61.8663 46.9634C62.0872 46.9634 62.299 47.051 62.4555 47.2071C62.6118 47.3631 62.6998 47.5749 62.7003 47.7959Z" fill="black"/>
<path d="M52.7604 50.0116C52.8435 50.1538 52.8825 50.3176 52.8725 50.482C52.8626 50.6463 52.8039 50.8041 52.7043 50.9352C52.6046 51.0665 52.4682 51.165 52.3124 51.2186C52.1567 51.2723 51.9884 51.2784 51.8292 51.2364C51.6699 51.1943 51.5267 51.1059 51.4176 50.9825C51.3086 50.859 51.2385 50.706 51.2165 50.5427C51.1944 50.3795 51.2214 50.2133 51.2939 50.0654C51.3663 49.9175 51.4809 49.7944 51.6234 49.7116C51.7178 49.6565 51.822 49.6207 51.9302 49.606C52.0385 49.5913 52.1484 49.598 52.254 49.6259C52.3596 49.6538 52.4588 49.7021 52.5456 49.7683C52.6325 49.8346 52.7055 49.9172 52.7604 50.0116Z" fill="black"/>
<path d="M45.2672 56.8965C45.4097 56.9793 45.5243 57.1025 45.5967 57.2504C45.6692 57.3983 45.696 57.5645 45.6741 57.7277C45.6521 57.891 45.582 58.044 45.473 58.1675C45.3639 58.2909 45.2207 58.3793 45.0614 58.4214C44.9021 58.4634 44.7339 58.4573 44.5782 58.4036C44.4224 58.35 44.286 58.2515 44.1863 58.1202C44.0867 57.9891 44.0281 57.8313 44.0182 57.6669C44.0081 57.5025 44.0471 57.3387 44.1302 57.1965C44.2413 57.0062 44.4234 56.8677 44.6366 56.8115C44.8497 56.7552 45.0765 56.7858 45.2672 56.8965Z" fill="black"/>
<path d="M42.2192 66.6001C42.3839 66.6001 42.5449 66.6488 42.6818 66.7404C42.8186 66.8319 42.9254 66.9619 42.9884 67.114C43.0514 67.2661 43.0679 67.4335 43.0358 67.5951C43.0036 67.7565 42.9244 67.9048 42.808 68.0212C42.6914 68.1378 42.5432 68.217 42.3817 68.2491C42.2201 68.2812 42.0527 68.2648 41.9006 68.2018C41.7485 68.1387 41.6185 68.032 41.527 67.8951C41.4356 67.7583 41.3867 67.5973 41.3867 67.4326C41.3872 67.212 41.4749 67.0005 41.6311 66.8443C41.7871 66.6883 41.9986 66.6005 42.2192 66.6001Z" fill="black"/>
<path d="M44.4348 76.5391C44.577 76.4561 44.7407 76.4173 44.9051 76.4273C45.0693 76.4375 45.227 76.496 45.3581 76.5958C45.4892 76.6954 45.5876 76.8317 45.6413 76.9874C45.6948 77.1431 45.701 77.3113 45.659 77.4704C45.6171 77.6297 45.5289 77.7728 45.4055 77.8819C45.2822 77.9911 45.1293 78.0611 44.9661 78.0832C44.8029 78.1054 44.6369 78.0787 44.489 78.0065C44.3409 77.9342 44.2178 77.8198 44.1348 77.6776C44.0798 77.5831 44.0438 77.4787 44.0291 77.3704C44.0144 77.2621 44.0211 77.152 44.049 77.0462C44.0769 76.9405 44.1252 76.8413 44.1915 76.7543C44.2577 76.6673 44.3403 76.5941 44.4348 76.5391Z" fill="black"/>
<path d="M51.3192 84.0345C51.402 83.892 51.5252 83.7774 51.6731 83.7049C51.821 83.6325 51.9872 83.6056 52.1504 83.6275C52.3137 83.6496 52.4667 83.7196 52.5902 83.8287C52.7136 83.9377 52.802 84.081 52.8441 84.2403C52.8861 84.3996 52.88 84.5677 52.8263 84.7234C52.7727 84.8793 52.6742 85.0156 52.5429 85.1154C52.4118 85.215 52.254 85.2736 52.0896 85.2835C51.9252 85.2936 51.7614 85.2546 51.6192 85.1715C51.5249 85.1166 51.4422 85.0435 51.3759 84.9567C51.3098 84.8698 51.2615 84.7708 51.2336 84.6652C51.2057 84.5596 51.1989 84.4495 51.2136 84.3412C51.2283 84.2331 51.2642 84.1288 51.3192 84.0345Z" fill="black"/>
<path d="M61.0283 87.0826C61.028 86.9176 61.0768 86.756 61.1683 86.6186C61.2598 86.4812 61.39 86.3742 61.5425 86.3109C61.6949 86.2476 61.8628 86.2309 62.0246 86.263C62.1866 86.2952 62.3353 86.3746 62.4519 86.4914C62.5688 86.6081 62.6481 86.7568 62.6804 86.9188C62.7125 87.0806 62.6958 87.2485 62.6325 87.4009C62.5692 87.5534 62.462 87.6836 62.3247 87.7751C62.1874 87.8666 62.0258 87.9154 61.8608 87.9151C61.64 87.9151 61.4282 87.8273 61.2721 87.6712C61.1161 87.5152 61.0283 87.3034 61.0283 87.0826Z" fill="black"/>
<path d="M70.9632 84.8669C70.8801 84.7247 70.8411 84.5609 70.8512 84.3965C70.8611 84.2321 70.9197 84.0743 71.0193 83.9432C71.1191 83.8121 71.2554 83.7134 71.4113 83.6598C71.567 83.6062 71.7353 83.6 71.8944 83.6422C72.0537 83.6842 72.197 83.7725 72.306 83.896C72.415 84.0194 72.4851 84.1724 72.5071 84.3357C72.5292 84.4989 72.5022 84.6651 72.4298 84.813C72.3573 84.9609 72.2427 85.0841 72.1002 85.1669C72.006 85.2221 71.9016 85.2581 71.7935 85.2729C71.6852 85.2878 71.5751 85.281 71.4693 85.2531C71.3637 85.2252 71.2646 85.1768 71.1777 85.1105C71.0909 85.0442 71.018 84.9614 70.9632 84.8669Z" fill="black"/>
<path d="M78.4583 77.9821C78.3158 77.8993 78.2012 77.7761 78.1288 77.6282C78.0563 77.4803 78.0295 77.3141 78.0514 77.1509C78.0734 76.9875 78.1435 76.8345 78.2525 76.7111C78.3616 76.5876 78.5048 76.4993 78.6641 76.4573C78.8234 76.4151 78.9916 76.4214 79.1473 76.475C79.3031 76.5285 79.4395 76.6272 79.5392 76.7583C79.6388 76.8894 79.6975 77.0473 79.7074 77.2117C79.7174 77.3761 79.6784 77.5399 79.5953 77.6821C79.4836 77.8718 79.3015 78.0098 79.0885 78.0659C78.8756 78.1222 78.6491 78.092 78.4583 77.9821Z" fill="black"/>
<path d="M81.5054 68.271C81.3407 68.271 81.1798 68.2221 81.0428 68.1307C80.906 68.0392 80.7992 67.9092 80.7362 67.7571C80.6732 67.605 80.6567 67.4376 80.6888 67.276C80.7211 67.1146 80.8003 66.9663 80.9167 66.8499C81.0332 66.7333 81.1814 66.6541 81.343 66.622C81.5045 66.5898 81.6719 66.6063 81.824 66.6693C81.9761 66.7324 82.1062 66.8391 82.1977 66.976C82.289 67.1128 82.3379 67.2738 82.3379 67.4385C82.3379 67.6593 82.2502 67.8711 82.094 68.0271C81.9379 68.1832 81.7262 68.271 81.5054 68.271Z" fill="black"/>
<path d="M79.2904 58.338C79.1482 58.4211 78.9844 58.4601 78.82 58.45C78.6556 58.4401 78.4978 58.3815 78.3667 58.2819C78.2356 58.1821 78.1369 58.0458 78.0834 57.8899C78.0298 57.7342 78.0235 57.5661 78.0657 57.4068C78.1077 57.2475 78.196 57.1042 78.3195 56.9952C78.4429 56.8861 78.5959 56.8161 78.7593 56.794C78.9225 56.7721 79.0887 56.799 79.2366 56.8714C79.3846 56.9439 79.5076 57.0585 79.5904 57.201C79.7011 57.3916 79.7317 57.6184 79.6755 57.8316C79.6192 58.0447 79.4808 58.2268 79.2904 58.338Z" fill="black"/>
<path d="M72.4053 50.8502C72.3223 50.9924 72.199 51.1068 72.0511 51.1791C71.9031 51.2513 71.737 51.278 71.574 51.2558C71.4108 51.2337 71.2579 51.1637 71.1345 51.0545C71.0112 50.9454 70.923 50.8023 70.881 50.643C70.839 50.4839 70.8453 50.3157 70.8988 50.16C70.9524 50.0043 71.0509 49.868 71.182 49.7684C71.313 49.6686 71.4706 49.6101 71.635 49.5999C71.7993 49.5899 71.9629 49.6287 72.1053 49.7117C72.1998 49.7667 72.2824 49.8398 72.3486 49.9269C72.4147 50.0139 72.4632 50.1131 72.4911 50.2188C72.519 50.3246 72.5257 50.4347 72.5109 50.543C72.4962 50.6513 72.4603 50.7557 72.4053 50.8502Z" fill="black"/>
<path d="M52.8056 61.0837L51.9922 62.6169L61.1734 67.4883L61.9867 65.9553L52.8056 61.0837Z" fill="black"/>
<path d="M75.5203 58.9309L61.8369 66.4752L62.4582 67.6023L76.1418 60.0579L75.5203 58.9309Z" fill="black"/>
<path d="M65.8183 67.4384C65.8186 68.2211 65.5867 68.9863 65.1522 69.6373C64.7175 70.2881 64.0996 70.7956 63.3766 71.0953C62.6536 71.3949 61.8579 71.4736 61.0902 71.321C60.3226 71.1686 59.6173 70.7918 59.0638 70.2385C58.5103 69.6851 58.1332 68.9801 57.9804 68.2124C57.8277 67.4449 57.906 66.6491 58.2054 65.926C58.5048 65.2028 59.0119 64.5848 59.6628 64.15C60.3135 63.715 61.0786 63.4829 61.8613 63.4829C62.9104 63.4829 63.9168 63.8996 64.6588 64.6414C65.4009 65.3831 65.8179 66.3892 65.8183 67.4384Z" fill="white"/>
<path d="M65.0693 67.4385C65.0693 67.5435 65.0693 67.6485 65.0573 67.7535C65.0597 67.8039 65.0546 67.8544 65.0423 67.9035C65.0888 67.8585 65.0648 67.7535 65.0423 67.881C65.0104 68.073 64.9648 68.2624 64.9058 68.448C64.8863 68.505 64.8518 68.694 64.8023 68.7285L64.8398 68.6415L64.7993 68.7315C64.7813 68.769 64.7633 68.8065 64.7438 68.8425C64.6585 69.0112 64.5613 69.1737 64.4528 69.3285C64.4333 69.357 64.3958 69.4305 64.3658 69.447L64.4228 69.3735L64.3598 69.4485C64.3028 69.5175 64.2428 69.585 64.1798 69.6495C64.1168 69.714 64.0538 69.7755 63.9863 69.837C63.9503 69.87 63.9128 69.9015 63.8753 69.933L63.8003 69.996L63.8753 69.939C63.8453 70.0005 63.6908 70.071 63.6338 70.1085C63.5768 70.146 63.4838 70.203 63.4013 70.248C63.3188 70.293 63.2408 70.3335 63.1583 70.371L63.1133 70.392C63.0398 70.425 63.0533 70.419 63.1568 70.3755C63.1388 70.401 63.0503 70.4175 63.0173 70.4295C62.8354 70.4953 62.6489 70.548 62.4593 70.587L62.3348 70.611L62.2838 70.6185C62.1998 70.6305 62.2163 70.629 62.3303 70.6185C62.2928 70.659 62.0783 70.641 62.0198 70.644C61.8196 70.6485 61.6192 70.641 61.4198 70.6215C61.3073 70.6125 61.6118 70.656 61.4408 70.6215L61.2908 70.5945C61.1918 70.575 61.0928 70.5525 60.9908 70.524C60.8888 70.4955 60.7988 70.467 60.7043 70.4325C60.6788 70.4235 60.5813 70.401 60.5648 70.3785L60.6533 70.416L60.5843 70.3845C60.4138 70.3029 60.248 70.2118 60.0878 70.1115C60.0263 70.071 59.8823 70.005 59.8463 69.942L59.9213 69.999L59.8448 69.936L59.7533 69.8565C59.6129 69.7309 59.4817 69.5955 59.3603 69.4515L59.3303 69.414C59.2793 69.351 59.2883 69.363 59.3558 69.45C59.3258 69.4335 59.2883 69.36 59.2688 69.3315C59.2163 69.258 59.1683 69.1815 59.1188 69.105C59.0693 69.0285 59.0288 68.955 58.9868 68.868C58.9643 68.8245 58.9418 68.7795 58.9208 68.7345L58.8803 68.6445L58.9178 68.7315C58.8698 68.7045 58.8323 68.5035 58.8143 68.451C58.7858 68.3625 58.7618 68.274 58.7393 68.184C58.7168 68.094 58.6973 68.0025 58.6823 67.9095L58.6733 67.86C58.6613 67.776 58.6628 67.7925 58.6733 67.9065C58.6538 67.887 58.6613 67.7835 58.6583 67.7565C58.6435 67.5567 58.6435 67.3561 58.6583 67.1565C58.6583 67.113 58.6658 67.071 58.6688 67.0275C58.6838 66.8475 58.6373 67.2 58.6688 67.0275C58.6883 66.927 58.7048 66.8265 58.7288 66.7275C58.7738 66.5385 58.8458 66.3615 58.9028 66.1785C58.9358 66.075 58.8233 66.3465 58.9028 66.1965C58.9238 66.1515 58.9433 66.1065 58.9658 66.063C59.0108 65.9745 59.0573 65.8875 59.1083 65.802C59.1593 65.7165 59.2118 65.6355 59.2688 65.5545C59.2883 65.526 59.3258 65.4525 59.3558 65.436L59.2988 65.511L59.3453 65.454C59.4668 65.3106 59.597 65.1748 59.7353 65.0475C59.7713 65.0145 59.8073 64.9815 59.8448 64.95L59.8838 64.9185C59.9453 64.869 59.9333 64.878 59.8463 64.9455C59.8793 64.8855 60.0113 64.8255 60.0668 64.7955C60.2251 64.6914 60.3905 64.5987 60.5618 64.518L60.6083 64.497C60.6818 64.464 60.6683 64.47 60.5648 64.5135C60.5813 64.491 60.6788 64.47 60.7043 64.4595C60.7913 64.428 60.8783 64.401 60.9668 64.3755C61.0553 64.35 61.1468 64.3275 61.2368 64.308C61.2878 64.2975 61.3373 64.287 61.3868 64.2795L61.4888 64.263L61.3913 64.2765C61.4213 64.239 61.6523 64.254 61.7018 64.2525C61.7993 64.2525 61.8953 64.2525 61.9913 64.2525C62.0873 64.2525 62.1818 64.2645 62.2778 64.272C62.4578 64.2855 62.1053 64.2405 62.2778 64.272C62.3273 64.281 62.3783 64.2885 62.4278 64.299C62.6426 64.3408 62.8534 64.4011 63.0578 64.479L63.1043 64.497C63.1793 64.527 63.1658 64.521 63.0623 64.479C63.0953 64.47 63.2123 64.548 63.2423 64.563C63.3308 64.6065 63.4178 64.6545 63.5018 64.7055C63.5858 64.7565 63.6968 64.827 63.7898 64.8945C63.8188 64.9105 63.8455 64.9302 63.8693 64.953C63.7823 64.8855 63.7703 64.8765 63.8318 64.926L63.9068 64.989C64.0687 65.1267 64.2191 65.2773 64.3568 65.439L64.3883 65.4765C64.4393 65.5395 64.4303 65.5275 64.3628 65.4405C64.3958 65.4585 64.4273 65.5275 64.4498 65.559C64.5158 65.6535 64.5773 65.751 64.6358 65.85C64.6943 65.949 64.7318 66.0225 64.7738 66.111C64.7843 66.1335 64.8428 66.225 64.8368 66.246C64.7938 66.1459 64.7878 66.1324 64.8188 66.2055C64.8308 66.237 64.8428 66.267 64.8533 66.2985C64.9288 66.5041 64.9865 66.7159 65.0258 66.9315C65.0258 66.9645 65.0378 66.9975 65.0423 67.032C65.0558 67.1145 65.0528 67.0995 65.0423 66.9855C65.0423 67.02 65.0498 67.053 65.0528 67.0875C65.0633 67.209 65.0678 67.332 65.0693 67.4535C65.0693 67.6524 65.1484 67.8432 65.2891 67.9839C65.4296 68.1244 65.6204 68.2035 65.8193 68.2035C66.0182 68.2035 66.209 68.1244 66.3497 67.9839C66.4903 67.8432 66.5693 67.6524 66.5693 67.4535C66.5638 66.4807 66.2611 65.5329 65.7019 64.737C65.1427 63.9411 64.3535 63.3351 63.4403 63C62.5388 62.6815 61.5619 62.6443 60.6389 62.8935C59.7158 63.1426 58.8902 63.6661 58.2713 64.395C57.637 65.1612 57.2531 66.1036 57.1718 67.095C57.0977 68.0623 57.3274 69.0288 57.8288 69.8595C58.3399 70.6914 59.0938 71.3464 59.989 71.7361C60.884 72.1258 61.8772 72.2316 62.8343 72.039C64.6748 71.6745 66.2168 70.089 66.4973 68.2305C66.5408 67.9671 66.5648 67.7008 66.5693 67.434C66.5693 67.2351 66.4903 67.0443 66.3497 66.9036C66.209 66.763 66.0182 66.684 65.8193 66.684C65.6204 66.684 65.4296 66.763 65.2891 66.9036C65.1484 67.0443 65.0693 67.2351 65.0693 67.434V67.4385Z" fill="#222221"/>
<path d="M51.4501 39.324C50.8954 38.1427 50.0886 37.0974 49.0861 36.2617C48.0836 35.4261 46.9102 34.8204 45.6482 34.4875C44.3864 34.1545 43.0669 34.1023 41.7827 34.3347C40.4984 34.5669 39.2807 35.0781 38.2156 35.832C37.1503 36.5859 36.2633 37.5642 35.6171 38.698C34.9709 39.8319 34.5812 41.0935 34.4756 42.3943C34.3699 43.6951 34.5508 45.0033 35.0054 46.2265C35.4601 47.4498 36.1775 48.5584 37.1071 49.4745L51.4501 39.324Z" fill="white"/>
<path d="M52.097 38.9459C51.1116 36.8825 49.4238 35.2373 47.336 34.3049C45.369 33.434 43.1708 33.2316 41.078 33.7289C39.4898 34.1166 38.0259 34.9007 36.8231 36.0077C35.6204 37.1148 34.7178 38.5088 34.2 40.0593C33.6822 41.6099 33.566 43.2665 33.8622 44.8742C34.1585 46.4819 34.8575 47.9882 35.894 49.2524C36.1074 49.5143 36.3348 49.7646 36.575 50.0024C36.794 50.2199 37.2155 50.3024 37.484 50.1194L38.915 49.1069L42.3365 46.6844L46.4885 43.7459L50.0645 41.2169C50.6435 40.8059 51.227 40.4009 51.803 39.9869L51.827 39.9689C52.1465 39.7424 52.3295 39.3029 52.097 38.9429C51.8915 38.6249 51.413 38.4314 51.0695 38.6729L49.6385 39.6869L46.217 42.1079L42.065 45.0464L38.4905 47.5799C37.913 47.9879 37.3115 48.3764 36.752 48.8099L36.7265 48.8264L37.6355 48.9449C37.4039 48.714 37.1841 48.4718 36.977 48.2189L36.9125 48.1379C36.9125 48.1379 36.839 48.0434 36.887 48.1064C36.935 48.1694 36.8525 48.0599 36.842 48.0449C36.8315 48.0299 36.8 47.9894 36.7805 47.9609C36.6995 47.8484 36.62 47.7329 36.545 47.6159C36.2742 47.1972 36.0371 46.7579 35.8355 46.3019C35.7815 46.1774 35.8925 46.4429 35.822 46.2674C35.7995 46.2104 35.777 46.1549 35.756 46.0994C35.714 45.9873 35.6735 45.8748 35.6345 45.7619C35.5565 45.5279 35.4885 45.2913 35.4305 45.0524C35.3735 44.8229 35.327 44.5919 35.2895 44.3594C35.2805 44.3024 35.276 44.2424 35.2625 44.1854C35.2625 44.2019 35.2865 44.3684 35.2625 44.2349L35.2535 44.1599C35.24 44.0354 35.228 43.9109 35.219 43.7864C35.1822 43.3211 35.1822 42.8537 35.219 42.3884C35.228 42.2714 35.2415 42.1559 35.2535 42.0404C35.2655 41.9249 35.2295 42.1904 35.2535 42.0179C35.264 41.9519 35.273 41.8874 35.285 41.8214C35.324 41.5919 35.372 41.3639 35.435 41.1389C35.498 40.9139 35.5625 40.6739 35.6405 40.4444C35.678 40.3349 35.717 40.2254 35.759 40.1159C35.777 40.0694 35.795 40.0229 35.8145 39.9764C35.8241 39.9443 35.8367 39.9132 35.852 39.8834C35.831 39.9149 35.795 40.0169 35.8355 39.9254C36.0294 39.4875 36.2561 39.0648 36.5135 38.6609C36.578 38.5619 36.644 38.4644 36.713 38.3609C36.746 38.3129 36.7805 38.2629 36.8165 38.2109C36.848 38.1674 36.986 38.0114 36.8525 38.1584C37.013 37.9814 37.1525 37.7864 37.3175 37.6094C37.4825 37.4324 37.6535 37.2599 37.832 37.0949C37.922 37.0109 38.015 36.9299 38.108 36.8504L38.258 36.7319L38.3195 36.6824L38.369 36.6434L38.4635 36.5729L38.6135 36.4634C38.7155 36.3914 38.819 36.3209 38.924 36.2534C39.1389 36.1154 39.359 35.9868 39.584 35.8679C39.7985 35.7554 40.034 35.6699 40.241 35.5544C40.2245 35.5634 40.082 35.6189 40.205 35.5694L40.277 35.5409L40.445 35.4764C40.565 35.4314 40.685 35.3894 40.8065 35.3504C41.2646 35.201 41.7342 35.0891 42.2105 35.0159L42.2855 35.0054C42.371 34.9919 42.2075 35.0159 42.2105 35.0144C42.269 35.0144 42.3275 35.0009 42.3845 34.9934C42.5105 34.9799 42.635 34.9694 42.7595 34.9604C42.9935 34.9454 43.226 34.9379 43.46 34.9409C43.694 34.9439 43.9415 34.9559 44.1815 34.9784C44.24 34.9784 44.462 35.0444 44.504 35.0144C44.474 35.0354 44.345 34.9904 44.453 35.0144L44.5265 35.0264L44.723 35.0579C45.1896 35.1411 45.6491 35.261 46.097 35.4164C46.208 35.4539 46.3175 35.4944 46.4255 35.5364L46.589 35.6024L46.5245 35.5754C46.5653 35.5859 46.6043 35.6025 46.64 35.6249C46.853 35.7209 47.0645 35.8259 47.27 35.9369C47.4755 36.0479 47.693 36.1799 47.897 36.3149C47.99 36.3749 48.08 36.4379 48.17 36.5009L48.32 36.6059L48.3815 36.6524C48.4565 36.7064 48.263 36.5579 48.371 36.6434C48.7556 36.9504 49.1156 37.287 49.448 37.6499C49.5245 37.7339 49.598 37.8209 49.673 37.9079L49.79 38.0504C49.8125 38.0789 49.835 38.1059 49.856 38.1344C49.922 38.2139 49.775 38.0249 49.8365 38.1089C50.018 38.3549 50.192 38.6024 50.351 38.8589C50.51 39.1154 50.6615 39.4079 50.801 39.6929C50.9705 40.0469 51.506 40.1684 51.827 39.9614C51.9918 39.8574 52.1111 39.695 52.1612 39.5066C52.2113 39.3183 52.1883 39.1179 52.097 38.9459Z" fill="#222221"/>
<path opacity="0.27" d="M39.2907 35.6386C39.2907 35.6386 43.6302 36.7876 44.3907 39.1621C45.1512 41.5366 40.7412 46.8976 40.7412 46.8976L51.4497 38.7781C51.4497 38.7781 48.0747 33.9166 43.5552 34.2031C39.0357 34.4896 39.2907 35.6386 39.2907 35.6386Z" fill="#222221"/>
<path opacity="0.27" d="M85.6932 36.5714C85.6932 36.5714 85.9347 41.0534 83.9127 42.5129C81.8907 43.9724 75.4287 41.4224 75.4287 41.4224L86.4477 49.1039C86.4477 49.1039 90.0342 44.3999 88.3707 40.1849C86.7072 35.9699 85.6932 36.5714 85.6932 36.5714Z" fill="#222221"/>
</svg>
