<svg width="120" height="120" viewBox="0 0 120 120" fill="none" xmlns="http://www.w3.org/2000/svg">
<path d="M90.3335 83.4855H26.4695C25.9523 83.4855 25.4564 83.28 25.0907 82.9143C24.725 82.5486 24.5195 82.0527 24.5195 81.5355V45.123L35.4005 38.439H90.3335C90.8507 38.439 91.3466 38.6445 91.7123 39.0102C92.078 39.3759 92.2835 39.8718 92.2835 40.389V81.5325C92.284 81.7888 92.2338 82.0426 92.136 82.2796C92.0382 82.5166 91.8946 82.7319 91.7134 82.9132C91.5323 83.0947 91.3172 83.2386 91.0804 83.3368C90.8437 83.4349 90.5899 83.4855 90.3335 83.4855Z" fill="white"/>
<path d="M90.3338 82.7355H26.6348C26.2673 82.7355 25.9778 82.6889 25.7153 82.4729C25.3178 82.146 25.2653 81.7739 25.2653 81.2729V45.1229L24.9008 45.7709L28.5833 43.5089L34.4333 39.9194L35.7908 39.0854L35.4128 39.1889H90.1238C90.411 39.1633 90.6996 39.2227 90.9533 39.3599C91.4033 39.6224 91.5368 40.0499 91.5368 40.5689V79.2584C91.5368 79.989 91.5368 80.721 91.5368 81.4515C91.5368 82.1819 91.0508 82.719 90.3368 82.7355C89.3738 82.7579 89.3693 84.2595 90.3368 84.2355C91.0578 84.2233 91.7453 83.928 92.2505 83.4132C92.7557 82.8985 93.0381 82.2056 93.0368 81.4844C93.0368 81.2309 93.0368 80.976 93.0368 80.721V42.9374C93.0368 42.1124 93.0368 41.2874 93.0368 40.4624C93.0368 39.1559 92.1368 37.9529 90.8138 37.7354C90.5505 37.6975 90.2846 37.682 90.0188 37.6889H36.8303C36.3563 37.6889 35.8748 37.6604 35.4023 37.6889C35.17 37.7161 34.9495 37.8062 34.7648 37.9499L33.9503 38.4494L31.2008 40.1369L25.1738 43.8374C24.6983 44.1299 23.8013 44.4869 23.7638 45.1229C23.7548 45.3014 23.7638 45.4829 23.7638 45.6614V81.114C23.7425 81.5061 23.7779 81.899 23.8688 82.2809C24.0421 82.8493 24.3946 83.3464 24.8737 83.6979C25.3528 84.0493 25.9327 84.2363 26.5268 84.2309C27.0998 84.2309 27.6728 84.2309 28.2458 84.2309H90.3338C91.2998 84.2354 91.3013 82.7355 90.3338 82.7355Z" fill="#222221"/>
<path opacity="0.26" d="M70.6344 48.8354H47.7129V52.0229H70.6344V48.8354Z" fill="#222221"/>
<path opacity="0.26" d="M84.8786 54.9854H32.4941V56.2318H84.8786V54.9854Z" fill="#222221"/>
<path opacity="0.26" d="M84.8786 57.4546H32.4941V58.7011H84.8786V57.4546Z" fill="#222221"/>
<path opacity="0.26" d="M84.8786 59.9236H32.4941V61.1701H84.8786V59.9236Z" fill="#222221"/>
<path opacity="0.26" d="M84.8786 62.3926H32.4941V63.6391H84.8786V62.3926Z" fill="#222221"/>
<path opacity="0.26" d="M84.8786 64.8616H32.4941V66.1081H84.8786V64.8616Z" fill="#222221"/>
<path opacity="0.26" d="M84.8786 67.3303H32.4941V68.5769H84.8786V67.3303Z" fill="#222221"/>
<path opacity="0.26" d="M84.8786 69.7993H32.4941V71.0458H84.8786V69.7993Z" fill="#222221"/>
<path opacity="0.26" d="M84.8786 72.2686H32.4941V73.515H84.8786V72.2686Z" fill="#222221"/>
<path d="M104.476 41.7511C104.159 41.2876 103.906 40.783 103.726 40.2511C103.613 39.6773 103.579 39.091 103.624 38.5081C103.746 37.5244 103.59 36.5261 103.174 35.6266C102.599 34.807 101.805 34.1651 100.883 33.7741C100.364 33.5294 99.8802 33.2144 99.4464 32.8381C99.0682 32.4038 98.7513 31.9198 98.5044 31.3996C98.1139 30.4778 97.4719 29.6846 96.6519 29.1106C95.7538 28.6912 94.7559 28.5326 93.7719 28.6531C93.189 28.6996 92.6025 28.6652 92.0289 28.5511C91.4961 28.3694 90.9913 28.1146 90.5289 27.7936C89.7178 27.1853 88.7532 26.8154 87.7434 26.7256C86.7325 26.815 85.7668 27.1849 84.9549 27.7936C84.4926 28.1146 83.9877 28.3694 83.4549 28.5511C82.8814 28.6652 82.2948 28.6996 81.7119 28.6531C80.7276 28.5335 79.7293 28.6919 78.8304 29.1106C78.0111 29.6855 77.3694 30.4784 76.9779 31.3996C76.7332 31.9196 76.4184 32.4037 76.0419 32.8381C75.6079 33.2162 75.1239 33.5327 74.6034 33.7786C73.6764 34.1677 72.8782 34.8109 72.3009 35.6341C71.8821 36.5324 71.7237 37.5302 71.8434 38.5141C71.8899 39.0974 71.8555 39.6845 71.7414 40.2586C71.5612 40.7882 71.3089 41.2904 70.9914 41.7511C70.3822 42.5629 70.0119 43.5286 69.9219 44.5396C70.0122 45.5509 70.3825 46.517 70.9914 47.3296C71.3097 47.7925 71.562 48.2972 71.7414 48.8296C71.8554 49.4032 71.8897 49.9897 71.8434 50.5726C71.7252 51.554 71.8836 52.549 72.3009 53.4451C72.8749 54.2651 73.6681 54.9071 74.5899 55.2976C75.1102 55.5437 75.5941 55.8602 76.0284 56.2381C76.2624 56.4895 76.464 56.7691 76.6284 57.0706L75.9009 59.7841L74.2194 65.9746C74.1861 66.1009 74.188 66.2341 74.2254 66.3593C74.2626 66.4846 74.3335 66.5972 74.4304 66.685C74.5273 66.7726 74.6466 66.8318 74.775 66.8563C74.9034 66.8807 75.036 66.8695 75.1584 66.8236L79.9584 65.0416C80.097 64.9906 80.248 64.9843 80.3904 65.0236C80.5327 65.0629 80.6592 65.1457 80.7519 65.2606L83.9874 69.2146C84.0537 69.2954 84.1369 69.3608 84.2313 69.406C84.3256 69.451 84.4288 69.4748 84.5334 69.4756C84.5838 69.476 84.634 69.4711 84.6834 69.4606C84.8115 69.4333 84.9297 69.3713 85.0249 69.2813C85.1202 69.1913 85.1889 69.0769 85.2234 68.9506L87.0369 62.2681C87.4885 62.3761 87.9592 62.3761 88.4109 62.2681L90.2184 68.9446C90.2526 69.071 90.321 69.1855 90.4159 69.2756C90.5109 69.3656 90.6289 69.4279 90.7569 69.4553C90.885 69.4828 91.018 69.4744 91.1416 69.431C91.2652 69.3878 91.3744 69.3113 91.4574 69.2101L94.6914 65.2561C94.7863 65.1409 94.9146 65.0579 95.0586 65.0188C95.2026 64.9795 95.3551 64.9859 95.4954 65.0371L100.282 66.8191C100.405 66.8648 100.538 66.8758 100.666 66.8507C100.795 66.8258 100.914 66.7658 101.011 66.6773C101.108 66.589 101.178 66.4757 101.215 66.3499C101.251 66.224 101.252 66.0905 101.218 65.9641L98.8179 57.1021C98.9874 56.788 99.196 56.4967 99.4389 56.2351C99.8731 55.8572 100.357 55.5407 100.877 55.2946C101.799 54.9035 102.593 54.2617 103.168 53.4421C103.584 52.5425 103.74 51.5443 103.618 50.5606C103.573 49.9777 103.607 49.3913 103.72 48.8176C103.9 48.2855 104.152 47.7808 104.47 47.3176C105.078 46.5059 105.449 45.5408 105.539 44.5306C105.45 43.5233 105.081 42.5609 104.476 41.7511Z" fill="white"/>
<path d="M105.018 41.4345C104.787 41.1021 104.59 40.7474 104.43 40.3755C104.285 39.9789 104.216 39.5586 104.226 39.1365C104.217 38.6865 104.287 38.2545 104.283 37.8105C104.276 37.3401 104.215 36.872 104.101 36.4155C103.998 36 103.86 35.5155 103.602 35.1765C103.363 34.8504 103.093 34.5489 102.795 34.2765C102.487 33.9989 102.152 33.7532 101.794 33.543C101.458 33.3465 101.094 33.207 100.755 33.0135C100.412 32.8407 100.098 32.6144 99.8261 32.343C99.5692 32.0406 99.3481 31.7094 99.1676 31.356C98.9801 31.0065 98.8346 30.642 98.6216 30.306C98.404 29.9648 98.1527 29.6462 97.8716 29.355C97.601 29.0529 97.2901 28.7895 96.9476 28.572C96.5302 28.3551 96.082 28.2033 95.6186 28.122C95.171 28.0278 94.714 27.9851 94.2566 27.9945C93.8066 28.0065 93.3686 28.0665 92.9171 28.0425C92.5175 28.0317 92.1235 27.9452 91.7561 27.7875C91.379 27.6086 91.019 27.3957 90.6806 27.1515C89.9947 26.6739 89.2148 26.3477 88.3931 26.1945C88.1735 26.1453 87.9503 26.1147 87.7256 26.103C87.4891 26.114 87.2542 26.1465 87.0236 26.2005C86.6353 26.2767 86.2556 26.3928 85.8911 26.547C85.4846 26.7122 85.0977 26.9219 84.7376 27.1725C84.3986 27.417 84.037 27.6285 83.6576 27.804C82.8836 28.1535 82.0076 28.0095 81.1526 27.993C80.6954 27.9873 80.2391 28.0331 79.7921 28.1295C79.3409 28.2119 78.9053 28.3637 78.5006 28.5795C78.1495 28.8042 77.8306 29.0757 77.5526 29.3865C77.2763 29.6804 77.0291 30.0005 76.8146 30.342C76.4006 31.0035 76.1396 31.7805 75.6341 32.349C75.1286 32.9175 74.3051 33.174 73.6361 33.57C72.9317 33.9939 72.3195 34.5551 71.8361 35.22C71.5826 35.5635 71.4476 36.057 71.3471 36.4695C71.2399 36.9117 71.1825 37.3646 71.1761 37.8195C71.1671 38.676 71.3636 39.573 71.0261 40.3785C70.8656 40.7508 70.668 41.1062 70.4366 41.439L70.9781 41.1285C70.5641 41.1285 70.3421 41.547 70.1516 41.8575C69.9776 42.1511 69.8271 42.4581 69.7016 42.7755C69.5981 43.0404 69.5142 43.3127 69.4511 43.59C69.3563 43.9223 69.3083 44.2661 69.3086 44.6115C69.3627 45.2732 69.5318 45.9204 69.8081 46.524C70.0556 47.094 70.4366 47.5635 70.7411 48.0975C70.8797 48.338 70.9995 48.5886 71.0996 48.8475C71.1998 49.1613 71.2503 49.4886 71.2496 49.818C71.2736 50.4585 71.1581 51.0915 71.2211 51.732C71.2526 52.0707 71.3112 52.4063 71.3966 52.7355C71.4786 53.0924 71.6063 53.4372 71.7761 53.7615C72.0999 54.2649 72.5132 54.7047 72.9956 55.059C73.2668 55.2755 73.5563 55.4676 73.8611 55.6335C74.1611 55.791 74.4611 55.914 74.7611 56.0835C75.042 56.2401 75.3068 56.424 75.5516 56.6325C75.7804 56.8484 75.9701 57.1022 76.1126 57.3825L76.0496 56.8995C75.7796 57.8915 75.5101 58.8836 75.2411 59.8755L74.0306 64.3366L73.6316 65.8036C73.5311 66.174 73.8236 66.6256 74.2316 66.5971L73.6316 65.8036C73.5713 66.0449 73.578 66.2983 73.6509 66.5362C73.7238 66.7741 73.8603 66.9875 74.0456 67.1535C74.2169 67.3015 74.4226 67.4041 74.6438 67.4518C74.8649 67.4995 75.0946 67.4908 75.3116 67.4266C75.4616 67.3801 75.6116 67.3186 75.7526 67.2645L78.0971 66.3946L80.0471 65.6716L80.1206 65.6446H80.1371L80.1671 65.634C80.2121 65.6236 80.2091 65.6205 80.1566 65.625H80.1881C80.2331 65.625 80.2301 65.6251 80.1761 65.6131C80.1566 65.6221 80.3261 65.6011 80.2031 65.6131C80.2031 65.6131 80.3111 65.6746 80.2331 65.6131C80.2657 65.6405 80.2952 65.6711 80.3216 65.7046L80.3426 65.7301C80.4836 65.8981 80.6201 66.0691 80.7581 66.2386C81.6866 67.3726 82.5851 68.5396 83.5466 69.6466C83.6831 69.7969 83.8516 69.9143 84.0398 69.9905C84.2279 70.0666 84.4307 70.0993 84.6332 70.0862C84.8357 70.073 85.0328 70.0144 85.2095 69.9146C85.3862 69.815 85.5382 69.6767 85.6541 69.5101C85.7728 69.3161 85.8565 69.1028 85.9016 68.8801L86.4401 66.8911L87.6266 62.5245L87.6506 62.436L86.8796 62.8726C87.4414 63.0015 88.0249 63.0015 88.5866 62.8726L87.8156 62.436L89.4461 68.4601C89.5054 68.7193 89.5786 68.9752 89.6651 69.2266C89.7917 69.5548 90.0415 69.8206 90.3611 69.9673C90.6808 70.1141 91.0451 70.1303 91.3766 70.0126C91.6175 69.9197 91.8292 69.7643 91.9901 69.5626L94.1831 66.882L95.0711 65.7961C95.0936 65.7676 95.1191 65.7421 95.1386 65.7136C95.1581 65.6851 95.1911 65.6146 95.1581 65.6746C95.1581 65.6746 95.2676 65.6071 95.1746 65.6506C95.2138 65.6366 95.2538 65.6255 95.2946 65.6175C95.2331 65.6296 95.2391 65.6341 95.3171 65.6311C95.2616 65.5891 95.2976 65.6311 95.3441 65.6535L95.3801 65.6656L95.5526 65.7301L98.8841 66.9691C99.2801 67.1191 99.6746 67.2691 100.074 67.4191C100.273 67.4911 100.487 67.5151 100.698 67.489C100.908 67.4629 101.11 67.3876 101.286 67.2691C101.517 67.1095 101.693 66.8825 101.79 66.6192C101.887 66.3559 101.901 66.0689 101.829 65.7976C101.655 65.0746 101.439 64.3591 101.244 63.6421L99.4511 57.0795L99.4136 56.94L99.3506 57.423C99.4787 57.176 99.6374 56.9462 99.8231 56.739C100.034 56.5289 100.271 56.3474 100.53 56.199C101.011 55.899 101.548 55.704 102.03 55.392C102.511 55.0814 102.944 54.7025 103.317 54.267C103.545 54.0095 103.73 53.7161 103.863 53.3985C103.992 53.0865 104.093 52.7631 104.163 52.4325C104.281 51.7896 104.309 51.1332 104.247 50.4825C104.205 49.899 104.224 49.2255 104.434 48.711C104.674 48.123 105.07 47.6445 105.384 47.1C105.688 46.5761 105.911 46.0092 106.047 45.4185C106.145 45.0624 106.182 44.6921 106.156 44.3235C106.117 43.9817 106.051 43.6434 105.957 43.3125C105.757 42.6375 105.443 42.0021 105.027 41.4345C104.826 41.163 104.484 41.0265 104.169 41.2095C103.902 41.3595 103.743 41.793 103.945 42.066C104.365 42.6162 104.664 43.2491 104.823 43.923C104.863 44.0862 104.894 44.2515 104.917 44.418C104.917 44.3595 104.917 44.5485 104.917 44.5755C104.917 44.6025 104.901 44.7255 104.907 44.6715C104.907 44.649 104.889 44.796 104.887 44.8035C104.827 45.1581 104.731 45.5058 104.602 45.8415C104.483 46.1352 104.336 46.4169 104.164 46.683C103.96 47.001 103.737 47.2965 103.564 47.631C103.352 47.988 103.195 48.3749 103.098 48.7785C103.018 49.217 102.978 49.6619 102.978 50.1075C102.978 50.4945 103.039 50.8785 103.036 51.2655C103.036 51.6239 102.99 51.9807 102.9 52.3275C102.837 52.6739 102.703 53.0034 102.505 53.295C102.546 53.244 102.427 53.388 102.411 53.406C102.36 53.4675 102.307 53.526 102.253 53.5845C102.13 53.715 102 53.841 101.865 53.9595C101.634 54.1616 101.383 54.3386 101.115 54.4875C100.815 54.6615 100.476 54.7875 100.167 54.9645C99.8171 55.1655 99.485 55.3953 99.1736 55.6515C98.873 55.9104 98.6171 56.217 98.4161 56.559C98.2661 56.79 98.1626 57.009 98.2226 57.291C98.2316 57.33 98.2436 57.369 98.2541 57.4065L98.3921 57.9105L98.8961 59.7676L100.159 64.4176L100.563 65.9026C100.584 65.9791 100.606 66.0525 100.624 66.1306C100.611 66.072 100.624 66.1201 100.624 66.1605C100.624 66.0706 100.624 66.1606 100.624 66.1846C100.639 66.1486 100.678 66.1306 100.609 66.2116C100.636 66.1786 100.576 66.2325 100.575 66.2341C100.546 66.2476 100.545 66.2416 100.519 66.2341C100.417 66.216 100.594 66.261 100.494 66.2235C100.545 66.243 100.471 66.2236 100.462 66.2131H100.452C100.434 66.2048 100.415 66.1978 100.396 66.1921C99.0986 65.7181 97.8086 65.2291 96.5141 64.7476C95.9276 64.5286 95.3456 64.215 94.7141 64.4911C94.2371 64.6996 93.9056 65.2515 93.5861 65.6415C92.7401 66.6765 91.9076 67.7266 91.0436 68.7481C91.039 68.7553 91.0334 68.7617 91.0271 68.7676L90.9836 68.8171C91.0316 68.7676 90.9761 68.8276 90.9551 68.8381C90.9836 68.8231 91.0466 68.8291 90.9266 68.8471C90.9956 68.8366 90.9356 68.8471 90.9011 68.8471C90.9911 68.8651 90.8891 68.847 90.8771 68.8396C90.9176 68.8591 90.9296 68.8876 90.8621 68.8276C90.8756 68.8411 90.9266 68.8696 90.8726 68.8351C90.7946 68.7871 90.9161 68.8951 90.8576 68.8246C90.7991 68.7541 90.8756 68.9221 90.8351 68.7811V68.7736C90.7991 68.6506 90.7676 68.5276 90.7346 68.4061L90.2291 66.5371L89.0996 62.3671L89.0291 62.1045C88.9823 61.9463 88.876 61.8123 88.7326 61.7306C88.5892 61.649 88.4197 61.626 88.2596 61.6665C87.917 61.7445 87.5612 61.7445 87.2186 61.6665C87.0586 61.6256 86.8889 61.6484 86.7454 61.7301C86.602 61.8119 86.4956 61.9461 86.4491 62.1045L85.4696 65.7136L84.8411 68.0266L84.6671 68.67L84.6356 68.784C84.6307 68.8046 84.6242 68.8246 84.6161 68.8441C84.6491 68.7721 84.6161 68.8441 84.5966 68.8546L84.6071 68.8381C84.6311 68.8051 84.6206 68.8126 84.5756 68.8606L84.5921 68.8471C84.6221 68.8216 84.6101 68.8261 84.5546 68.8621C84.6236 68.8621 84.5546 68.8321 84.5546 68.8516C84.5426 68.8306 84.5111 68.8756 84.5636 68.8516C84.6161 68.8276 84.4661 68.8666 84.5636 68.8621C84.5426 68.8621 84.4751 68.8156 84.5351 68.8621C84.5023 68.8355 84.4725 68.8054 84.4466 68.7721C84.4338 68.7578 84.4219 68.7426 84.4106 68.7271C84.3536 68.6595 84.2966 68.5905 84.2411 68.5215L83.6126 67.7536L81.9626 65.7346C81.5936 65.2846 81.2126 64.6426 80.6381 64.4446C80.0306 64.2361 79.3406 64.62 78.7781 64.8285L76.3331 65.7375L75.3731 66.093C75.2225 66.1607 75.0665 66.2153 74.9066 66.2566C75.0566 66.2281 74.9066 66.2566 74.9066 66.2476L74.9621 66.2566L74.9096 66.2445C74.9396 66.168 74.7596 66.3286 74.9096 66.2445L74.8871 66.2311C74.8496 66.2071 74.8556 66.2131 74.9036 66.2476L74.8826 66.2281C74.8526 66.1966 74.8556 66.2026 74.8916 66.2476C74.8841 66.2476 74.8451 66.1576 74.8676 66.2221C74.8901 66.2866 74.8391 66.1276 74.8526 66.1831C74.8661 66.2386 74.8721 66.0631 74.8526 66.1471C74.9306 65.7766 74.6786 65.3251 74.2526 65.3551L74.8526 66.1471L75.6716 63.1336C75.9585 62.0756 76.2456 61.0181 76.5326 59.961L76.9301 58.497L77.1986 57.504C77.2211 57.4245 77.2466 57.3435 77.2646 57.2625C77.3366 56.934 77.1731 56.676 76.9961 56.415C76.7909 56.1015 76.5378 55.8221 76.2461 55.587C75.951 55.3505 75.6375 55.1378 75.3086 54.951C75.0206 54.7905 74.7086 54.6705 74.4236 54.5085C74.1737 54.3711 73.9368 54.2115 73.7156 54.0315C73.4829 53.8349 73.2672 53.6192 73.0706 53.3865C72.894 53.1648 72.7638 52.9097 72.6881 52.6365C72.4874 51.9702 72.4256 51.2697 72.5066 50.5785C72.5384 50.1905 72.5333 49.8002 72.4916 49.413C72.4691 49.206 72.4406 48.9975 72.4046 48.792C72.3447 48.5691 72.2597 48.3537 72.1511 48.15C72.0176 47.8326 71.8586 47.5266 71.6756 47.235C71.4941 46.9455 71.2841 46.6755 71.1176 46.3755C70.9665 46.1097 70.8453 45.828 70.7561 45.5355C70.7091 45.3866 70.6686 45.2366 70.6346 45.0855C70.6151 45.003 70.6001 44.9205 70.5851 44.838C70.5701 44.7555 70.5581 44.6685 70.5566 44.646C70.5474 44.3526 70.5912 44.06 70.6856 43.782C70.7622 43.4864 70.8678 43.199 71.0006 42.924C71.1504 42.6222 71.3271 42.3347 71.5286 42.0645L70.9886 42.375C71.4896 42.375 71.7806 41.7015 71.9756 41.31C72.1938 40.9046 72.3429 40.4655 72.4166 40.011C72.489 39.5291 72.5092 39.0408 72.4766 38.5545C72.4301 38.1279 72.4271 37.6977 72.4676 37.2705C72.5229 36.8907 72.6195 36.518 72.7556 36.159C72.8786 35.8335 73.0676 35.6415 73.3346 35.373C73.462 35.2454 73.5956 35.1243 73.7351 35.01C73.8606 34.9095 73.9917 34.8164 74.1281 34.731C74.4536 34.524 74.8046 34.3815 75.1451 34.203C75.5336 33.9948 75.9017 33.7508 76.2446 33.474C76.5689 33.1943 76.8473 32.8652 77.0696 32.499C77.285 32.1474 77.4794 31.7832 77.6516 31.4085C77.7281 31.2585 77.8106 31.1085 77.9006 30.9585C77.9486 30.882 77.9981 30.8085 78.0506 30.7335C78.0761 30.696 78.1031 30.66 78.1301 30.624C78.1571 30.588 78.1556 30.5865 78.1301 30.615L78.1721 30.5625C78.4073 30.2736 78.6712 30.0093 78.9596 29.7735C79.0466 29.703 78.9056 29.814 78.9941 29.7465C79.0301 29.7195 79.0661 29.6895 79.1036 29.6655C79.1679 29.6277 79.2358 29.5961 79.3061 29.571C79.5119 29.4917 79.7222 29.4251 79.9361 29.3715C80.3206 29.273 80.7169 29.2275 81.1136 29.2365C81.5636 29.2365 82.0001 29.307 82.4471 29.2905C82.9144 29.2919 83.3789 29.2179 83.8226 29.0715C84.2411 28.9107 84.643 28.7099 85.0226 28.4715C85.3631 28.257 85.6796 28.0125 86.0411 27.8295C86.3673 27.665 86.7116 27.5391 87.0671 27.4545C87.3856 27.354 87.7234 27.3308 88.0526 27.387C88.4303 27.453 88.7993 27.5624 89.1521 27.7125C89.8061 27.996 90.4766 28.5705 91.1861 28.8855C91.3952 28.9884 91.6118 29.0753 91.8341 29.145C92.0921 29.2041 92.3545 29.2418 92.6186 29.2575C93.071 29.294 93.526 29.2901 93.9776 29.2455C94.3735 29.2122 94.772 29.2278 95.1641 29.292C95.5615 29.3472 95.9477 29.4647 96.3086 29.64C96.5843 29.8256 96.8332 30.0482 97.0481 30.3015C97.1096 30.3675 97.1681 30.435 97.2266 30.504C97.2659 30.5487 97.3025 30.5958 97.3361 30.645C97.4471 30.795 97.5521 30.96 97.6481 31.1265C97.8431 31.4655 97.9841 31.8315 98.1806 32.1765C98.3957 32.5616 98.6539 32.9208 98.9501 33.2475C99.5246 33.855 100.317 34.155 101.029 34.548C101.188 34.635 101.341 34.7301 101.49 34.833C101.624 34.9233 101.75 35.0235 101.869 35.133C102.004 35.2521 102.133 35.3783 102.255 35.511C102.368 35.6267 102.472 35.7516 102.565 35.8845C102.766 36.1845 102.865 36.6345 102.939 37.008C103.01 37.3992 103.032 37.7978 103.005 38.1945C102.964 38.6303 102.955 39.0684 102.976 39.5055C102.996 39.7545 103.027 40.0035 103.071 40.2555C103.126 40.5122 103.213 40.761 103.329 40.9965C103.491 41.3709 103.689 41.7285 103.921 42.0645C104.007 42.2051 104.145 42.3069 104.304 42.3489C104.464 42.3908 104.633 42.3695 104.778 42.2895C104.922 42.207 105.028 42.0711 105.073 41.9112C105.118 41.7512 105.098 41.58 105.018 41.4345Z" fill="black"/>
<path d="M95.7421 59.334C95.7421 59.334 97.6351 61.9785 96.9256 62.6055C96.2161 63.2325 94.8376 62.4375 94.0036 62.9385C93.1696 63.4395 91.0801 68.742 91.0801 68.742L95.2141 64.818L101.172 66.468L98.5201 57.3645L95.7421 59.334Z" fill="#B2B2B2"/>
<path d="M82.8986 57.8882C82.8986 57.8882 83.6321 63.8627 82.7126 64.0862C81.7931 64.3097 80.9426 62.9657 79.9706 63.0197C78.9986 63.0737 74.6816 66.7937 74.6816 66.7937L80.1671 65.2502L84.6671 69.4802L87.9356 58.4162L82.8986 57.8882Z" fill="#B2B2B2"/>
<path d="M104.835 41.5396C104.596 41.1924 104.395 40.8208 104.235 40.4311C104.085 40.0165 104.013 39.5775 104.024 39.1366C104.015 38.6866 104.085 38.2546 104.079 37.8106C104.074 37.359 104.016 36.9093 103.907 36.4711C103.808 36.0721 103.676 35.6131 103.427 35.2816C103.198 34.9699 102.939 34.6819 102.653 34.4221C102.358 34.1572 102.037 33.9226 101.696 33.7216C101.358 33.5251 100.995 33.3856 100.656 33.1921C100.298 33.0099 99.9703 32.7724 99.6856 32.4886C99.4147 32.1745 99.1825 31.8291 98.9941 31.4596C98.8066 31.1116 98.6611 30.7471 98.4481 30.4096C98.2415 30.0844 98.0039 29.7799 97.7386 29.5006C97.4801 29.2116 97.1834 28.9593 96.8566 28.7506C96.4544 28.543 96.023 28.3978 95.5771 28.3201C95.1476 28.23 94.7092 28.1898 94.2706 28.2001C93.8206 28.2121 93.3826 28.2721 92.9311 28.2481C92.4946 28.2379 92.0642 28.1416 91.6651 27.9646C91.2878 27.7861 90.9278 27.5731 90.5896 27.3286C89.9171 26.8642 89.1539 26.5477 88.3501 26.4001C88.1488 26.3554 87.944 26.3278 87.7381 26.3176C87.5203 26.3262 87.3037 26.3557 87.0916 26.4061C86.7031 26.482 86.3236 26.5983 85.9591 26.7526C85.1776 27.0796 84.5446 27.6406 83.7751 27.9886C83.3857 28.1565 82.9675 28.2471 82.5436 28.2556C82.0801 28.2796 81.6271 28.2151 81.1651 28.2061C80.7266 28.2003 80.2889 28.2435 79.8601 28.3351C79.4267 28.411 79.0076 28.5537 78.6181 28.7581C77.9656 29.1451 77.4046 29.8081 77.0071 30.4456C76.5826 31.1236 76.3366 31.8871 75.7936 32.4946C75.2506 33.1021 74.4331 33.3466 73.7536 33.7486C73.0802 34.1515 72.4946 34.6855 72.0316 35.3191C71.7856 35.6506 71.6596 36.1216 71.5621 36.5191C71.4599 36.9438 71.4056 37.3785 71.4001 37.8151C71.3911 38.7016 71.5891 39.6016 71.2366 40.4536C71.0753 40.8357 70.8742 41.1997 70.6366 41.5396L70.9981 41.3326C70.6831 41.3326 70.4971 41.7241 70.3531 41.9581C70.1842 42.2349 70.0391 42.5254 69.9196 42.8266C69.8093 43.0921 69.7205 43.366 69.6541 43.6456C69.5633 43.9596 69.5174 44.2848 69.5176 44.6116C69.5701 45.2343 69.7294 45.8431 69.9886 46.4116C70.2346 46.9816 70.6171 47.4511 70.9231 47.9851C71.0701 48.2412 71.1965 48.5085 71.3011 48.7846C71.4035 49.1169 71.4541 49.4629 71.4511 49.8106C71.4751 50.4511 71.3596 51.0841 71.4241 51.7246C71.4886 52.3651 71.6236 53.0896 71.9491 53.6491C72.2645 54.1366 72.6667 54.5622 73.1356 54.9046C73.3943 55.1079 73.6699 55.2891 73.9591 55.4461C74.2591 55.6036 74.5591 55.7266 74.8591 55.8961C75.1559 56.061 75.4348 56.256 75.6916 56.4781C75.9341 56.7087 76.1369 56.9779 76.2916 57.2746L76.2496 56.9536C75.9796 57.9447 75.7106 58.9362 75.4426 59.9281L74.2306 64.3907L73.8316 65.8576C73.8151 65.9196 73.8131 65.9846 73.8254 66.0474C73.8379 66.1103 73.8646 66.1695 73.9033 66.2205C73.942 66.2716 73.9919 66.3132 74.0492 66.342C74.1064 66.3709 74.1695 66.3864 74.2336 66.3872L73.8316 65.8591C73.7795 66.0654 73.7855 66.2822 73.8491 66.4853C73.9126 66.6884 74.0312 66.8699 74.1916 67.0097C74.3363 67.1324 74.5094 67.2168 74.6953 67.2554C74.881 67.2938 75.0734 67.2852 75.2551 67.2302C75.4051 67.1837 75.5551 67.1222 75.6961 67.0681L78.0406 66.1982L79.9906 65.4752C80.1931 65.4002 80.3386 65.3927 80.4946 65.5771C80.6506 65.7617 80.7706 65.9162 80.9101 66.0857C81.8371 67.2197 82.7356 68.3867 83.6971 69.4922C83.8103 69.621 83.9513 69.7226 84.1096 69.7892C84.2677 69.8558 84.4388 69.8856 84.6103 69.8766C84.7816 69.8675 84.9487 69.8196 85.0988 69.7367C85.2491 69.6537 85.3786 69.5378 85.4776 69.3977C85.5871 69.2199 85.6634 69.0237 85.7026 68.8187L86.2426 66.8297L87.4291 62.4632L87.4531 62.3746L86.9386 62.6656C87.4639 62.7856 88.0093 62.7856 88.5346 62.6656L88.0201 62.3746L89.6506 68.3987C89.7091 68.658 89.7823 68.9139 89.8696 69.1652C89.9797 69.4413 90.1939 69.6633 90.466 69.783C90.7382 69.9029 91.0465 69.911 91.3246 69.8057C91.5307 69.7188 91.7102 69.5792 91.8451 69.4007L94.0396 66.7201L94.9276 65.6342C95.0311 65.5097 95.1331 65.3761 95.3206 65.4091C95.4203 65.4366 95.5177 65.4722 95.6116 65.5157L98.9431 66.7547C99.3391 66.9047 99.7336 67.0547 100.133 67.2047C100.328 67.2768 100.54 67.2941 100.744 67.2545C100.949 67.2149 101.139 67.1199 101.294 66.9801C101.448 66.8402 101.561 66.6606 101.621 66.461C101.681 66.2612 101.685 66.0489 101.633 65.8472C101.46 65.1242 101.241 64.4086 101.048 63.6917L99.2491 57.1351L99.2116 56.9956L99.1696 57.3181C99.307 57.0555 99.4768 56.811 99.6751 56.5906C99.9001 56.3694 100.152 56.1774 100.425 56.0191C100.907 55.7191 101.444 55.5241 101.925 55.2121C102.392 54.9103 102.812 54.5419 103.172 54.1186C103.377 53.8887 103.543 53.6268 103.664 53.3431C103.794 53.0314 103.895 52.708 103.964 52.3771C104.078 51.7524 104.104 51.1147 104.042 50.4826C103.997 49.8616 104.015 49.1851 104.258 48.6046C104.501 48.0241 104.892 47.5396 105.207 46.9951C105.502 46.4863 105.718 45.9363 105.849 45.3631C105.942 45.025 105.976 44.6734 105.951 44.3236C105.913 44.0005 105.848 43.681 105.759 43.3681C105.564 42.7105 105.256 42.0918 104.849 41.5396C104.79 41.4468 104.699 41.3796 104.593 41.3518C104.487 41.3239 104.375 41.3374 104.279 41.3896C104.184 41.4462 104.115 41.5378 104.087 41.6446C104.059 41.7516 104.074 41.8653 104.129 41.9611C104.555 42.529 104.861 43.1776 105.029 43.8676C105.122 44.1894 105.146 44.5272 105.101 44.8591C105.04 45.2137 104.945 45.5614 104.816 45.8971C104.558 46.5691 104.087 47.1061 103.752 47.7361C103.547 48.0772 103.396 48.4474 103.302 48.8341C103.225 49.2543 103.187 49.6806 103.188 50.1076C103.188 50.4946 103.251 50.8786 103.247 51.2656C103.241 51.6427 103.191 52.0179 103.097 52.3831C103.03 52.7472 102.888 53.0934 102.681 53.4001C102.48 53.6571 102.254 53.8942 102.008 54.1081C101.762 54.3214 101.495 54.5089 101.211 54.6676C100.902 54.8431 100.571 54.9676 100.262 55.1446C99.9274 55.3366 99.6094 55.5553 99.3106 55.7986C99.0235 56.0457 98.7787 56.338 98.5861 56.6641C98.4736 56.8456 98.3656 57.0166 98.4151 57.2356C98.4151 57.2746 98.4361 57.3136 98.4466 57.3511L98.5831 57.8552L99.0871 59.7121L100.35 64.3621L100.754 65.8472C100.775 65.9222 100.802 65.9972 100.817 66.0751C100.829 66.1217 100.83 66.1706 100.819 66.2174C100.808 66.2643 100.787 66.3081 100.756 66.3449C100.725 66.3816 100.685 66.4104 100.641 66.4287C100.596 66.447 100.548 66.4543 100.5 66.4501C100.438 66.4399 100.378 66.4218 100.322 66.3962C99.0241 65.9222 97.7341 65.4332 96.4396 64.9517C95.9131 64.7567 95.3371 64.4342 94.7761 64.6847C94.5653 64.7889 94.3835 64.9436 94.2466 65.1347L93.7156 65.7841C92.8681 66.8191 92.0371 67.8707 91.1731 68.8922C90.9961 69.0992 90.7096 69.1052 90.6121 68.8232C90.5716 68.7032 90.5461 68.5772 90.5131 68.4557L90.0106 66.6002L88.8811 62.4302L88.8106 62.1677C88.781 62.0607 88.7108 61.9695 88.615 61.9134C88.5193 61.8575 88.4053 61.841 88.2976 61.8677C87.9185 61.9547 87.5246 61.9547 87.1456 61.8677C87.0388 61.8407 86.9258 61.8561 86.8301 61.9105C86.7346 61.9651 86.6638 62.0546 86.6326 62.1601L85.6501 65.7662L85.0216 68.0792L84.8476 68.7227C84.7951 68.9132 84.6841 69.1306 84.4396 69.0452C84.2896 68.9957 84.1621 68.7767 84.0691 68.6627L83.4421 67.8947L81.7921 65.8757L81.2041 65.1572C81.0434 64.9262 80.8195 64.7465 80.5591 64.6397C80.2441 64.5287 79.9456 64.6022 79.6486 64.7132L78.8101 65.0236L76.3651 65.9326L75.4051 66.2882C75.2569 66.362 75.1003 66.4173 74.9386 66.4532C74.8916 66.4565 74.8447 66.4488 74.8013 66.4306C74.758 66.4125 74.7194 66.3844 74.689 66.3486C74.6585 66.3129 74.6368 66.2705 74.6257 66.2247C74.6146 66.1791 74.6144 66.1314 74.6251 66.0857C74.6761 65.8382 74.5081 65.5381 74.2216 65.5576L74.6251 66.0857L75.4426 63.0722C75.7306 62.0142 76.0181 60.9567 76.3051 59.8996C76.4371 59.4126 76.5695 58.9246 76.7026 58.4356L76.9711 57.4426C76.9936 57.3631 77.0191 57.2821 77.0371 57.2011C77.0956 56.9386 76.9306 56.7226 76.7881 56.5156C76.3682 55.932 75.8162 55.456 75.1771 55.1266C74.6176 54.8146 74.0386 54.5896 73.5421 54.1726C73.3079 53.9772 73.0915 53.7613 72.8956 53.5276C72.6934 53.2789 72.5452 52.9908 72.4606 52.6816C72.2572 51.9969 72.1928 51.2782 72.2716 50.5681C72.3376 49.7956 72.2806 48.9736 71.9716 48.2566C71.8388 47.9392 71.6803 47.6332 71.4976 47.3416C71.3146 47.0521 71.1046 46.7836 70.9396 46.4821C70.6247 45.9151 70.4245 45.2919 70.3501 44.6476C70.34 44.3355 70.3862 44.0239 70.4866 43.7281C70.5689 43.4179 70.6814 43.1164 70.8226 42.8281C70.9721 42.5262 71.1488 42.2385 71.3506 41.9686L70.9906 42.1756C71.2396 42.1756 71.3596 41.9626 71.4781 41.7781C71.5966 41.5936 71.7001 41.4076 71.7976 41.2141C72.0061 40.8238 72.148 40.4016 72.2176 39.9646C72.2852 39.5008 72.3029 39.0312 72.2701 38.5636C72.2236 38.137 72.2206 37.7068 72.2611 37.2796C72.3134 36.8799 72.4141 36.4881 72.5611 36.1126C72.7066 35.778 72.9224 35.4787 73.1941 35.2351C73.4462 34.9794 73.7264 34.7529 74.0296 34.5601C74.3551 34.3531 74.7061 34.2106 75.0451 34.0321C75.419 33.834 75.7732 33.6004 76.1026 33.3346C76.4147 33.0681 76.6825 32.7537 76.8961 32.4031C77.3161 31.7656 77.5516 31.0306 78.0346 30.4306C78.2687 30.1402 78.5332 29.8758 78.8236 29.6416C79.1425 29.4156 79.507 29.262 79.8916 29.1916C80.2943 29.0884 80.7088 29.038 81.1246 29.0416C81.5746 29.0416 82.0111 29.1121 82.4581 29.0956C82.9066 29.0964 83.3522 29.025 83.7781 28.8841C84.1816 28.7317 84.5689 28.5399 84.9346 28.3111C85.2766 28.0966 85.5916 27.8521 85.9531 27.6676C86.2957 27.4951 86.657 27.3627 87.0301 27.2731C87.386 27.1693 87.7606 27.1462 88.1266 27.2056C88.5038 27.2728 88.8727 27.3814 89.2261 27.5296C89.9761 27.8476 90.5761 28.3966 91.3096 28.7296C91.5034 28.8238 91.7039 28.9036 91.9096 28.9681C92.1493 29.0233 92.393 29.0584 92.6386 29.0731C93.091 29.1096 93.5458 29.1057 93.9976 29.0611C94.4122 29.0259 94.8296 29.044 95.2396 29.1151C95.657 29.1717 96.0625 29.2963 96.4396 29.4841C96.7328 29.6752 96.9962 29.9088 97.2211 30.1771C97.4641 30.4419 97.6763 30.7333 97.8541 31.0456C98.0491 31.3846 98.1901 31.7506 98.3866 32.0881C98.5925 32.4586 98.8402 32.8044 99.1246 33.1186C99.6841 33.7111 100.464 34.0021 101.16 34.3861C101.8 34.7233 102.352 35.2063 102.771 35.7961C102.992 36.1261 103.089 36.5851 103.166 36.9691C103.243 37.3783 103.267 37.7956 103.239 38.2111C103.199 38.6469 103.189 39.085 103.211 39.5221C103.229 39.7531 103.259 39.9826 103.298 40.2121C103.348 40.4514 103.428 40.6836 103.535 40.9036C103.7 41.2782 103.901 41.6358 104.135 41.9716C104.417 42.4021 105.14 41.9851 104.835 41.5396Z" fill="black"/>
<path d="M103.029 48.636C102.651 50.0475 103.257 51.8565 102.545 53.0895C101.832 54.3225 99.9437 54.72 98.9252 55.7325C98.5769 56.1126 98.2799 56.5368 98.0417 56.994C97.5497 57.894 97.1087 58.869 96.2822 59.346C95.0492 60.0585 93.2402 59.4525 91.8287 59.8305C90.8462 60.0945 89.9057 60.927 88.9007 61.362C88.5332 61.5411 88.1296 61.6335 87.7208 61.6321C87.3121 61.6308 86.909 61.5358 86.5427 61.3545C85.5452 60.9135 84.6122 60.0945 83.6357 59.8305C82.2257 59.4525 80.4152 60.0585 79.1837 59.346C78.3497 58.8615 77.9012 57.8715 77.4017 56.9595C77.1716 56.5116 76.882 56.0968 76.5407 55.7265C75.5207 54.714 73.6472 54.3375 72.9212 53.0835C72.1952 51.8295 72.8132 50.0415 72.4367 48.63C72.0722 47.28 70.6367 46.008 70.6367 44.5335C70.6367 43.059 72.0752 41.7915 72.4367 40.437C72.8132 39.027 72.2087 37.2165 72.9212 35.985C73.6337 34.7535 75.5207 34.353 76.5407 33.3405C77.5607 32.328 77.9297 30.4485 79.1837 29.7225C80.4377 28.9965 82.2257 29.6145 83.6357 29.238C84.9857 28.8735 86.2577 27.438 87.7322 27.438C89.2067 27.438 90.4757 28.8765 91.8287 29.238C93.2402 29.6145 95.0492 29.01 96.2822 29.7225C97.5152 30.435 97.9142 32.322 98.9252 33.3405C99.9362 34.359 101.817 34.731 102.545 35.985C103.272 37.239 102.651 39.027 103.029 40.437C103.392 41.787 104.829 43.059 104.829 44.5335C104.829 46.008 103.389 47.277 103.029 48.63V48.636Z" fill="white"/>
<path d="M88.0504 32.7C85.6474 32.7 83.2983 33.4126 81.3003 34.7476C79.3021 36.0826 77.7448 37.9802 76.8253 40.2004C75.9057 42.4204 75.6651 44.8635 76.1338 47.2203C76.6027 49.5772 77.7598 51.7421 79.459 53.4414C81.1582 55.1406 83.3232 56.2976 85.6801 56.7666C88.0369 57.2353 90.4799 56.9947 92.6999 56.0751C94.9201 55.1556 96.8177 53.5983 98.1527 51.6001C99.4877 49.6021 100.2 47.253 100.2 44.85C100.2 41.6275 98.9203 38.5372 96.6418 36.2586C94.3631 33.9801 91.2728 32.7 88.0504 32.7Z" fill="white"/>
<path d="M88.0499 32.2815C86.7376 32.2794 85.4329 32.4818 84.1829 32.8815C82.9769 33.2709 81.8373 33.842 80.8035 34.575C79.7571 35.3193 78.8283 36.2163 78.048 37.236C76.0822 39.8163 75.1908 43.0569 75.5604 46.2795C75.9301 49.5021 77.532 52.4568 80.031 54.525C81.0259 55.3432 82.1384 56.0071 83.3309 56.4945C84.5326 56.9839 85.8036 57.2826 87.0974 57.3795C89.6642 57.5736 92.2288 56.9754 94.445 55.6659C96.6611 54.3564 98.4221 52.3984 99.4904 50.0565C100.585 47.631 100.886 44.9216 100.35 42.315C99.835 39.8124 98.5687 37.5266 96.7199 35.763C95.8123 34.8936 94.7798 34.1645 93.6569 33.6C92.5055 33.0254 91.2718 32.6333 89.9999 32.4375C89.3501 32.3388 88.6937 32.2887 88.0364 32.2875C87.9299 32.294 87.8299 32.3408 87.7568 32.4183C87.6836 32.496 87.643 32.5986 87.643 32.7053C87.643 32.8119 87.6836 32.9145 87.7568 32.9922C87.8299 33.0699 87.9299 33.1166 88.0364 33.123C88.3604 33.123 88.684 33.1355 89.0069 33.1605C89.1569 33.174 89.3189 33.189 89.4749 33.207L89.5919 33.222C89.6009 33.222 89.6564 33.2295 89.6024 33.222H89.6294L89.8604 33.2565C90.4784 33.3555 91.0877 33.5025 91.6829 33.696C91.9709 33.789 92.2555 33.8936 92.5364 34.0095C92.5694 34.023 92.6474 34.056 92.5709 34.023L92.6744 34.068C92.7484 34.0991 92.8219 34.1321 92.8949 34.167C93.0314 34.2285 93.1664 34.2945 93.3014 34.362C93.8398 34.6347 94.3573 34.9472 94.8494 35.2965C94.9754 35.385 95.0984 35.478 95.2214 35.571C95.1644 35.5275 95.2079 35.5605 95.2379 35.583L95.3249 35.6535L95.5109 35.8035C95.7389 35.994 95.9609 36.192 96.1739 36.4035C96.3869 36.615 96.6014 36.831 96.8039 37.0575C96.9029 37.1685 96.9989 37.281 97.0949 37.395C97.1414 37.452 97.1894 37.509 97.2359 37.5675C97.2584 37.5975 97.2824 37.626 97.3049 37.6545C97.3274 37.683 97.3244 37.68 97.3349 37.6935C97.3724 37.74 97.2749 37.614 97.3349 37.6935C97.7002 38.1729 98.0302 38.6783 98.3219 39.2055C98.4689 39.4725 98.6065 39.7455 98.7344 40.0245L98.8199 40.215C98.8349 40.2495 98.8499 40.2855 98.8634 40.32C98.8289 40.236 98.8709 40.3365 98.8844 40.3695C98.9414 40.509 98.9954 40.65 99.0479 40.7925C99.2599 41.3718 99.4268 41.9666 99.5474 42.5715C99.5789 42.7215 99.6074 42.888 99.6329 43.0455L99.6644 43.26C99.6644 43.275 99.6764 43.3455 99.6644 43.287C99.6524 43.2285 99.6644 43.287 99.6644 43.299C99.6644 43.3425 99.6749 43.3875 99.6794 43.431C99.7174 43.7501 99.742 44.07 99.7529 44.391C99.7769 45.0311 99.7514 45.672 99.6764 46.308C99.6764 46.347 99.6659 46.386 99.6614 46.425C99.6569 46.464 99.6614 46.3995 99.6614 46.3965L99.6524 46.4625C99.6404 46.539 99.6299 46.6125 99.6164 46.6935C99.5924 46.8435 99.5639 46.9935 99.5339 47.151C99.4724 47.451 99.3989 47.7615 99.3134 48.0615C99.2279 48.3615 99.1334 48.654 99.0269 48.945C98.9744 49.086 98.9189 49.227 98.8619 49.3665C98.8529 49.3875 98.8454 49.407 98.8364 49.4265C98.8274 49.446 98.8664 49.3575 98.8469 49.401L98.8019 49.506C98.7719 49.575 98.7419 49.6425 98.7104 49.7115C98.4607 50.2618 98.1704 50.7927 97.8419 51.3C97.6784 51.549 97.5044 51.792 97.3244 52.029C97.3844 51.9495 97.3154 52.0395 97.3004 52.0575C97.2854 52.0755 97.2554 52.116 97.2314 52.1445C97.1819 52.2075 97.1309 52.269 97.0814 52.3305C96.9869 52.4445 96.8894 52.557 96.7904 52.6665C96.389 53.1127 95.9554 53.5288 95.4929 53.9115L95.3204 54.0525L95.2319 54.1215L95.1944 54.1515C95.2199 54.132 95.2409 54.1155 95.2034 54.144C95.0804 54.237 94.9559 54.33 94.8299 54.4185C94.582 54.5944 94.3274 54.76 94.0664 54.915C93.8054 55.0699 93.5429 55.215 93.2789 55.35C93.1439 55.4175 93.0089 55.482 92.8724 55.545L92.6654 55.6365L92.5964 55.6665C92.6459 55.6455 92.5964 55.6665 92.5874 55.6665L92.5124 55.698C91.9429 55.9293 91.3567 56.1172 90.7589 56.2605C90.4589 56.3325 90.1439 56.394 89.8334 56.442L89.6189 56.475H89.6309H89.5814L89.4479 56.49C89.2979 56.508 89.1359 56.523 88.9784 56.535C88.339 56.586 87.6964 56.586 87.0569 56.535C86.8949 56.5215 86.733 56.505 86.5724 56.4855L86.4554 56.4705H86.4344L86.1869 56.433C85.876 56.382 85.5685 56.3194 85.2644 56.2455C84.6682 56.0976 84.0837 55.906 83.5155 55.6725L83.4704 55.6545C83.5559 55.689 83.4989 55.6665 83.4809 55.6545L83.3925 55.617L83.1719 55.518C83.0309 55.452 82.8914 55.3845 82.7519 55.314C82.485 55.177 82.2235 55.0315 81.9675 54.8775C81.708 54.7275 81.4545 54.552 81.207 54.3765L81.0405 54.2535L80.9505 54.1875L80.8995 54.1485L80.8785 54.132H80.871L80.82 54.093L80.7329 54.024L80.5485 53.874C80.0884 53.4886 79.6572 53.07 79.2585 52.6215C79.1595 52.5105 79.0635 52.398 78.969 52.2825C78.921 52.2255 78.8745 52.1685 78.828 52.11L78.7695 52.035L78.753 52.014C78.786 52.0575 78.7425 52.0005 78.7365 51.993C78.5535 51.7515 78.378 51.504 78.213 51.2505C77.8831 50.7435 77.5918 50.2125 77.3415 49.662C77.31 49.593 77.2785 49.524 77.25 49.455C77.2395 49.434 77.196 49.3275 77.235 49.422L77.1855 49.302C77.1285 49.1625 77.0745 49.0215 77.022 48.879C76.9219 48.592 76.8289 48.3019 76.743 48.009C76.657 47.716 76.5844 47.413 76.5255 47.1C76.4955 46.95 76.4685 46.8 76.4445 46.6425C76.4325 46.566 76.422 46.4925 76.41 46.4115C76.41 46.3635 76.41 46.437 76.41 46.44L76.401 46.374C76.401 46.329 76.3905 46.2855 76.3845 46.2405C76.3117 45.6042 76.2892 44.9632 76.317 44.3235C76.33 44.0025 76.356 43.683 76.395 43.365L76.4085 43.2645C76.395 43.3695 76.4085 43.251 76.4085 43.227C76.4205 43.1445 76.434 43.062 76.4475 42.9795C76.4715 42.8295 76.5 42.6795 76.5315 42.5295C76.6549 41.9172 76.8259 41.3153 77.043 40.7295C77.0955 40.5885 77.1525 40.4475 77.2095 40.308C77.238 40.2375 77.1825 40.371 77.2245 40.2735C77.2365 40.2435 77.25 40.2135 77.262 40.185C77.295 40.11 77.328 40.035 77.3625 39.9645C77.49 39.687 77.6295 39.414 77.778 39.147C77.9265 38.88 78.078 38.631 78.243 38.382C78.3285 38.253 78.4155 38.1255 78.5055 37.9995L78.6285 37.833L78.6945 37.743C78.7155 37.716 78.7815 37.6305 78.726 37.701C79.0939 37.2282 79.495 36.7821 79.926 36.366C80.145 36.156 80.3715 35.9561 80.6055 35.766C80.6625 35.7195 80.7195 35.6715 80.778 35.6265L80.853 35.5665C80.868 35.5545 80.916 35.5185 80.844 35.5665L80.895 35.5275C81.0135 35.4375 81.1335 35.349 81.2565 35.2635C81.7543 34.9131 82.2777 34.6008 82.8225 34.329C82.9575 34.2615 83.0924 34.197 83.2289 34.1355L83.4359 34.044C83.4704 34.029 83.5229 34.008 83.4554 34.035L83.5754 33.9855C83.8604 33.87 84.1514 33.765 84.4454 33.6705C85.0367 33.483 85.6416 33.3407 86.2545 33.2445L86.4854 33.2115H86.5244L86.6414 33.1965C86.7914 33.18 86.9414 33.165 87.0914 33.1545C87.4034 33.1305 87.7154 33.1185 88.0274 33.1185C88.1339 33.1121 88.2338 33.0654 88.307 32.9877C88.3802 32.91 88.4209 32.8074 88.4209 32.7008C88.4209 32.5941 88.3802 32.4915 88.307 32.4138C88.2338 32.3363 88.1339 32.2895 88.0274 32.283L88.0499 32.2815Z" fill="black"/>
<path d="M105.164 44.4571C105.164 42.9811 103.726 41.7136 103.364 40.3591C102.986 38.9491 103.592 37.1401 102.88 35.9071C102.167 34.6741 100.279 34.2751 99.2601 33.2641C98.2416 32.2531 97.8711 30.3706 96.6171 29.6446C95.3631 28.9186 93.5736 29.5381 92.1636 29.1601C90.8136 28.7971 89.5416 27.3601 88.0671 27.3601C87.6993 27.3678 87.3361 27.4456 86.9976 27.5896C88.0476 28.0111 89.0106 28.8901 90.0261 29.1631C91.4376 29.5411 93.2466 28.9351 94.4796 29.6476C95.7126 30.3601 96.1101 32.2486 97.1226 33.2671C98.1351 34.2856 100.015 34.6561 100.742 35.9101C101.47 37.1641 100.849 38.9521 101.227 40.3621C101.59 41.7121 103.027 42.9841 103.027 44.4601C103.027 45.9361 101.588 47.2021 101.227 48.5566C100.849 49.9666 101.455 51.7756 100.742 53.0086C100.03 54.2416 98.1396 54.6376 97.1211 55.6501C96.7719 56.0294 96.4748 56.4536 96.2376 56.9116V56.9191C95.7456 57.8191 95.3046 58.7926 94.4781 59.2696C93.2451 59.9821 91.4361 59.3761 90.0246 59.7541C89.0421 60.0181 88.1016 60.8521 87.0966 61.2856C87.0636 61.3006 87.0291 61.3081 86.9961 61.3216C87.334 61.4684 87.6972 61.5485 88.0656 61.5571C88.4697 61.5485 88.8677 61.4561 89.2341 61.2856C90.2391 60.8521 91.1841 60.0181 92.1621 59.7541C93.5721 59.3761 95.3826 59.9821 96.6156 59.2696C97.4421 58.7926 97.8831 57.8236 98.3751 56.9191V56.9116C98.6123 56.4536 98.9094 56.0294 99.2586 55.6501C100.277 54.6391 102.151 54.2611 102.878 53.0071C103.606 51.7531 102.985 49.9651 103.363 48.5551C103.726 47.2051 105.163 45.9331 105.163 44.4586L105.164 44.4571Z" fill="#B2B2B2"/>
<path d="M87.7317 57.3631C94.8139 57.3631 100.555 51.6218 100.555 44.5396C100.555 37.4573 94.8139 31.7161 87.7317 31.7161C80.6495 31.7161 74.9082 37.4573 74.9082 44.5396C74.9082 51.6218 80.6495 57.3631 87.7317 57.3631Z" fill="#E5E5E5"/>
<path d="M87.7321 31.7161C87.3721 31.7161 87.0196 31.7401 86.6641 31.7701C89.8675 32.037 92.8534 33.4981 95.03 35.8635C97.2065 38.229 98.4146 41.3259 98.4146 44.5404C98.4146 47.7549 97.2065 50.8518 95.03 53.2173C92.8534 55.5826 89.8675 57.0438 86.6641 57.3106C87.0196 57.3391 87.3721 57.3646 87.7321 57.3646C89.4163 57.3646 91.084 57.0328 92.6399 56.3884C94.196 55.7439 95.6098 54.7992 96.8008 53.6083C97.9916 52.4173 98.9363 51.0035 99.5809 49.4474C100.225 47.8915 100.557 46.2238 100.557 44.5396C100.557 42.8554 100.225 41.1877 99.5809 39.6318C98.9363 38.0757 97.9916 36.6619 96.8008 35.4709C95.6098 34.2801 94.196 33.3354 92.6399 32.6908C91.084 32.0464 89.4163 31.7146 87.7321 31.7146V31.7161Z" fill="#B2B2B2"/>
<path d="M88.0499 32.2815C86.7376 32.2794 85.4329 32.4818 84.1829 32.8815C82.9769 33.2709 81.8373 33.842 80.8035 34.575C79.7571 35.3193 78.8283 36.2163 78.048 37.236C76.0822 39.8163 75.1908 43.0569 75.5604 46.2795C75.9301 49.5021 77.532 52.4568 80.031 54.525C81.0259 55.3432 82.1384 56.0071 83.3309 56.4945C84.5326 56.9839 85.8036 57.2826 87.0974 57.3795C89.6642 57.5736 92.2288 56.9754 94.445 55.6659C96.6611 54.3564 98.4221 52.3984 99.4904 50.0565C100.585 47.631 100.886 44.9216 100.35 42.315C99.835 39.8124 98.5687 37.5266 96.7199 35.763C95.8123 34.8936 94.7798 34.1645 93.6569 33.6C92.5055 33.0254 91.2718 32.6333 89.9999 32.4375C89.3501 32.3388 88.6937 32.2887 88.0364 32.2875C87.9299 32.294 87.8299 32.3408 87.7568 32.4183C87.6836 32.496 87.643 32.5986 87.643 32.7053C87.643 32.8119 87.6836 32.9145 87.7568 32.9922C87.8299 33.0699 87.9299 33.1166 88.0364 33.123C88.3604 33.123 88.684 33.1355 89.0069 33.1605C89.1569 33.174 89.3189 33.189 89.4749 33.207L89.5919 33.222C89.6009 33.222 89.6564 33.2295 89.6024 33.222H89.6294L89.8604 33.2565C90.4784 33.3555 91.0877 33.5025 91.6829 33.696C91.9709 33.789 92.2555 33.8936 92.5364 34.0095C92.5694 34.023 92.6474 34.056 92.5709 34.023L92.6744 34.068C92.7484 34.0991 92.8219 34.1321 92.8949 34.167C93.0314 34.2285 93.1664 34.2945 93.3014 34.362C93.8398 34.6347 94.3573 34.9472 94.8494 35.2965C94.9754 35.385 95.0984 35.478 95.2214 35.571C95.1644 35.5275 95.2079 35.5605 95.2379 35.583L95.3249 35.6535L95.5109 35.8035C95.7389 35.994 95.9609 36.192 96.1739 36.4035C96.3869 36.615 96.6014 36.831 96.8039 37.0575C96.9029 37.1685 96.9989 37.281 97.0949 37.395C97.1414 37.452 97.1894 37.509 97.2359 37.5675C97.2584 37.5975 97.2824 37.626 97.3049 37.6545C97.3274 37.683 97.3244 37.68 97.3349 37.6935C97.3724 37.74 97.2749 37.614 97.3349 37.6935C97.7002 38.1729 98.0302 38.6783 98.3219 39.2055C98.4689 39.4725 98.6065 39.7455 98.7344 40.0245L98.8199 40.215C98.8349 40.2495 98.8499 40.2855 98.8634 40.32C98.8289 40.236 98.8709 40.3365 98.8844 40.3695C98.9414 40.509 98.9954 40.65 99.0479 40.7925C99.2599 41.3718 99.4268 41.9666 99.5474 42.5715C99.5789 42.7215 99.6074 42.888 99.6329 43.0455L99.6644 43.26C99.6644 43.275 99.6764 43.3455 99.6644 43.287C99.6524 43.2285 99.6644 43.287 99.6644 43.299C99.6644 43.3425 99.6749 43.3875 99.6794 43.431C99.7174 43.7501 99.742 44.07 99.7529 44.391C99.7769 45.0311 99.7514 45.672 99.6764 46.308C99.6764 46.347 99.6659 46.386 99.6614 46.425C99.6569 46.464 99.6614 46.3995 99.6614 46.3965L99.6524 46.4625C99.6404 46.539 99.6299 46.6125 99.6164 46.6935C99.5924 46.8435 99.5639 46.9935 99.5339 47.151C99.4724 47.451 99.3989 47.7615 99.3134 48.0615C99.2279 48.3615 99.1334 48.654 99.0269 48.945C98.9744 49.086 98.9189 49.227 98.8619 49.3665C98.8529 49.3875 98.8454 49.407 98.8364 49.4265C98.8274 49.446 98.8664 49.3575 98.8469 49.401L98.8019 49.506C98.7719 49.575 98.7419 49.6425 98.7104 49.7115C98.4607 50.2618 98.1704 50.7927 97.8419 51.3C97.6784 51.549 97.5044 51.792 97.3244 52.029C97.3844 51.9495 97.3154 52.0395 97.3004 52.0575C97.2854 52.0755 97.2554 52.116 97.2314 52.1445C97.1819 52.2075 97.1309 52.269 97.0814 52.3305C96.9869 52.4445 96.8894 52.557 96.7904 52.6665C96.389 53.1127 95.9554 53.5288 95.4929 53.9115L95.3204 54.0525L95.2319 54.1215L95.1944 54.1515C95.2199 54.132 95.2409 54.1155 95.2034 54.144C95.0804 54.237 94.9559 54.33 94.8299 54.4185C94.582 54.5944 94.3274 54.76 94.0664 54.915C93.8054 55.0699 93.5429 55.215 93.2789 55.35C93.1439 55.4175 93.0089 55.482 92.8724 55.545L92.6654 55.6365L92.5964 55.6665C92.6459 55.6455 92.5964 55.6665 92.5874 55.6665L92.5124 55.698C91.9429 55.9293 91.3567 56.1172 90.7589 56.2605C90.4589 56.3325 90.1439 56.394 89.8334 56.442L89.6189 56.475H89.6309H89.5814L89.4479 56.49C89.2979 56.508 89.1359 56.523 88.9784 56.535C88.339 56.586 87.6964 56.586 87.0569 56.535C86.8949 56.5215 86.733 56.505 86.5724 56.4855L86.4554 56.4705H86.4344L86.1869 56.433C85.876 56.382 85.5685 56.3194 85.2644 56.2455C84.6682 56.0976 84.0837 55.906 83.5155 55.6725L83.4704 55.6545C83.5559 55.689 83.4989 55.6665 83.4809 55.6545L83.3925 55.617L83.1719 55.518C83.0309 55.452 82.8914 55.3845 82.7519 55.314C82.485 55.177 82.2235 55.0315 81.9675 54.8775C81.708 54.7275 81.4545 54.552 81.207 54.3765L81.0405 54.2535L80.9505 54.1875L80.8995 54.1485L80.8785 54.132H80.871L80.82 54.093L80.7329 54.024L80.5485 53.874C80.0884 53.4886 79.6572 53.07 79.2585 52.6215C79.1595 52.5105 79.0635 52.398 78.969 52.2825C78.921 52.2255 78.8745 52.1685 78.828 52.11L78.7695 52.035L78.753 52.014C78.786 52.0575 78.7425 52.0005 78.7365 51.993C78.5535 51.7515 78.378 51.504 78.213 51.2505C77.8831 50.7435 77.5918 50.2125 77.3415 49.662C77.31 49.593 77.2785 49.524 77.25 49.455C77.2395 49.434 77.196 49.3275 77.235 49.422L77.1855 49.302C77.1285 49.1625 77.0745 49.0215 77.022 48.879C76.9219 48.592 76.8289 48.3019 76.743 48.009C76.657 47.716 76.5844 47.413 76.5255 47.1C76.4955 46.95 76.4685 46.8 76.4445 46.6425C76.4325 46.566 76.422 46.4925 76.41 46.4115C76.41 46.3635 76.41 46.437 76.41 46.44L76.401 46.374C76.401 46.329 76.3905 46.2855 76.3845 46.2405C76.3117 45.6042 76.2892 44.9632 76.317 44.3235C76.33 44.0025 76.356 43.683 76.395 43.365L76.4085 43.2645C76.395 43.3695 76.4085 43.251 76.4085 43.227C76.4205 43.1445 76.434 43.062 76.4475 42.9795C76.4715 42.8295 76.5 42.6795 76.5315 42.5295C76.6549 41.9172 76.8259 41.3153 77.043 40.7295C77.0955 40.5885 77.1525 40.4475 77.2095 40.308C77.238 40.2375 77.1825 40.371 77.2245 40.2735C77.2365 40.2435 77.25 40.2135 77.262 40.185C77.295 40.11 77.328 40.035 77.3625 39.9645C77.49 39.687 77.6295 39.414 77.778 39.147C77.9265 38.88 78.078 38.631 78.243 38.382C78.3285 38.253 78.4155 38.1255 78.5055 37.9995L78.6285 37.833L78.6945 37.743C78.7155 37.716 78.7815 37.6305 78.726 37.701C79.0939 37.2282 79.495 36.7821 79.926 36.366C80.145 36.156 80.3715 35.9561 80.6055 35.766C80.6625 35.7195 80.7195 35.6715 80.778 35.6265L80.853 35.5665C80.868 35.5545 80.916 35.5185 80.844 35.5665L80.895 35.5275C81.0135 35.4375 81.1335 35.349 81.2565 35.2635C81.7543 34.9131 82.2777 34.6008 82.8225 34.329C82.9575 34.2615 83.0924 34.197 83.2289 34.1355L83.4359 34.044C83.4704 34.029 83.5229 34.008 83.4554 34.035L83.5754 33.9855C83.8604 33.87 84.1514 33.765 84.4454 33.6705C85.0367 33.483 85.6416 33.3407 86.2545 33.2445L86.4854 33.2115H86.5244L86.6414 33.1965C86.7914 33.18 86.9414 33.165 87.0914 33.1545C87.4034 33.1305 87.7154 33.1185 88.0274 33.1185C88.1339 33.1121 88.2338 33.0654 88.307 32.9877C88.3802 32.91 88.4209 32.8074 88.4209 32.7008C88.4209 32.5941 88.3802 32.4915 88.307 32.4138C88.2338 32.3363 88.1339 32.2895 88.0274 32.283L88.0499 32.2815Z" fill="black"/>
<path d="M75.6744 56.1974C75.9696 56.6337 76.2906 57.052 76.6359 57.4499C77.2539 58.1744 77.9529 58.8749 78.7779 59.3609C79.2682 59.6543 79.8133 59.8442 80.3799 59.9189C80.8038 59.9558 81.231 59.93 81.6474 59.8424C81.7359 59.8274 81.8244 59.8169 81.9129 59.8004C81.7734 59.8274 81.9129 59.8004 81.9489 59.8004C81.9849 59.8004 82.0659 59.7899 82.1244 59.7869C82.2168 59.7817 82.3095 59.7817 82.4019 59.7869C82.4524 59.7832 82.5031 59.7883 82.5519 59.8019H82.4994L82.5594 59.8109L82.6494 59.8274C82.7641 59.8516 82.8774 59.8826 82.9884 59.9204C83.0454 59.9384 83.1024 59.9594 83.1579 59.9804L83.2164 60.0014C83.2359 60.0104 83.3664 60.0629 83.2614 60.0194C83.4969 60.1199 83.7264 60.2339 83.9529 60.3524C84.9039 60.8519 85.8429 61.4699 86.9004 61.7204C87.4117 61.8457 87.946 61.8427 88.4559 61.7114C88.971 61.5623 89.4646 61.3469 89.9244 61.0709C90.3414 60.8354 90.7404 60.5729 91.1559 60.3344C91.2429 60.2834 91.3299 60.2354 91.4184 60.1844L91.5324 60.1274L91.5984 60.0959L91.6419 60.0764L91.5954 60.0959C91.6659 60.0704 91.7349 60.0419 91.8069 60.0224L91.9179 59.9984C91.9899 59.9819 91.8159 60.0089 91.8684 59.9984H91.9314C92.2989 59.9609 92.6709 59.9669 93.0384 59.9654C93.5094 59.9654 93.9804 59.9654 94.4499 59.9384C94.8996 59.9251 95.3469 59.8663 95.7849 59.7629C96.1656 59.6497 96.5218 59.4659 96.8349 59.2214C97.7071 58.5811 98.4931 57.8309 99.1734 56.9894C99.3369 56.7884 99.4959 56.5829 99.6414 56.3684C99.6966 56.2729 99.7119 56.1593 99.6837 56.0525C99.6556 55.9457 99.5865 55.8543 99.4914 55.7984C99.3951 55.745 99.282 55.7309 99.1755 55.7588C99.0691 55.7867 98.9775 55.8546 98.9199 55.9484C98.8554 56.0429 98.7894 56.1344 98.7204 56.2259C98.7099 56.2394 98.6439 56.3249 98.7069 56.2439L98.6664 56.2964L98.5164 56.4809C98.3514 56.6804 98.1774 56.8739 98.0004 57.0629C97.6405 57.4465 97.2589 57.8092 96.8574 58.1489C96.7644 58.2269 96.6699 58.2989 96.5754 58.3784C96.4809 58.4579 96.6444 58.3259 96.5589 58.3919L96.5094 58.4294L96.3399 58.5539C96.1858 58.6653 96.0238 58.7657 95.8554 58.8539L95.8089 58.8764C95.7399 58.9109 95.8359 58.8539 95.8419 58.8629C95.8479 58.8719 95.7369 58.9019 95.7279 58.9064C95.6409 58.9349 95.5524 58.9589 95.4624 58.9799C95.3724 59.0009 95.2734 59.0189 95.1789 59.0339L95.1249 59.0429H95.0964C95.0514 59.0429 95.0604 59.0429 95.1249 59.0429C95.1009 59.0654 94.9899 59.0594 94.9539 59.0624C94.0839 59.1539 93.2079 59.1104 92.3349 59.1374C91.9951 59.1311 91.657 59.1871 91.3374 59.3024C90.936 59.4836 90.5493 59.6957 90.1809 59.9369C89.7586 60.2078 89.3203 60.4528 88.8684 60.6704C88.8489 60.6794 88.6884 60.7499 88.7844 60.7094C88.7289 60.7334 88.6719 60.7559 88.6149 60.7769C88.4994 60.8204 88.3809 60.8594 88.2609 60.8924C88.1514 60.9325 88.0366 60.9566 87.9204 60.9644C88.0044 60.9644 87.9699 60.9644 87.9384 60.9644L87.8469 60.9734C87.7854 60.9734 87.7239 60.9809 87.6624 60.9809C87.6009 60.9809 87.5394 60.9809 87.4779 60.9719C87.4449 60.9719 87.2859 60.9644 87.4014 60.9719C87.2781 60.961 87.1563 60.9362 87.0384 60.8984C86.9244 60.8684 86.8134 60.8339 86.7024 60.7964L86.5254 60.7319L86.4444 60.7004C86.4279 60.7004 86.2944 60.6359 86.3829 60.6764C85.8954 60.4664 85.4304 60.2114 84.9654 59.9564C84.1059 59.4854 83.1804 58.9304 82.1664 58.9589C81.951 58.9687 81.7365 58.9928 81.5244 59.0309L81.2724 59.0729L81.1389 59.0939C81.1074 59.0939 81.0459 59.0939 81.1629 59.0939L81.0624 59.1059C80.8629 59.126 80.6619 59.126 80.4624 59.1059C80.4384 59.1059 80.3409 59.1059 80.4519 59.1059C80.4312 59.104 80.4106 59.1005 80.3904 59.0954C80.3244 59.0849 80.2584 59.0714 80.1939 59.0564C80.0607 59.0249 79.9296 58.9859 79.8009 58.9394L79.6149 58.8689C79.6539 58.8839 79.5669 58.8479 79.5714 58.8494L79.5009 58.7999C79.4019 58.7519 79.3059 58.7009 79.2114 58.6499C79.1169 58.5989 79.0194 58.5329 78.9279 58.4684C78.8799 58.4369 78.8334 58.4039 78.7869 58.3694L78.7239 58.3229C78.7074 58.3109 78.5964 58.2239 78.6819 58.2929C78.3193 58.001 77.9775 57.6842 77.6589 57.3449C77.3739 57.0449 77.1054 56.7269 76.8489 56.3999C76.8249 56.3699 76.7994 56.3414 76.7784 56.3099C76.8564 56.4224 76.7784 56.3189 76.7649 56.2919C76.7184 56.2319 76.6734 56.1704 76.6284 56.1089C76.5834 56.0474 76.5114 55.9499 76.4559 55.8689C76.4349 55.8404 76.4139 55.8104 76.3944 55.7804C76.3384 55.685 76.2469 55.6156 76.1398 55.5875C76.0329 55.5596 75.919 55.5752 75.8236 55.6311C75.7281 55.6871 75.6588 55.7786 75.6307 55.8856C75.6028 55.9927 75.6184 56.1065 75.6744 56.2019V56.1974Z" fill="black"/>
<path d="M92.877 53.2036C92.6643 53.2039 92.4548 53.1524 92.2665 53.0536L88.3125 50.9746C88.2294 50.9309 88.1372 50.9081 88.0433 50.9081C87.9495 50.9081 87.8571 50.9309 87.774 50.9746L83.82 53.0521C83.6037 53.1659 83.3597 53.2171 83.1158 53.1995C82.8719 53.182 82.6377 53.0963 82.44 52.9526C82.2422 52.8088 82.0886 52.6126 81.9966 52.3859C81.9047 52.1594 81.878 51.9115 81.9195 51.6706L82.6695 47.2681C82.6856 47.1757 82.6788 47.0807 82.6499 46.9916C82.6208 46.9025 82.5704 46.8218 82.503 46.7566L79.305 43.6381C79.1286 43.4674 79.0038 43.2506 78.9447 43.0123C78.8856 42.7741 78.8948 42.524 78.9708 42.2908C79.047 42.0575 79.1873 41.8502 79.3755 41.6927C79.5638 41.5352 79.7924 41.4338 80.0355 41.4001L84.45 40.7626C84.5427 40.7488 84.6306 40.7126 84.7064 40.6576C84.782 40.6025 84.8433 40.5299 84.885 40.4461L86.862 36.4396C86.9702 36.2203 87.1374 36.0358 87.345 35.9066C87.5526 35.7776 87.7922 35.7092 88.0365 35.7092C88.281 35.7092 88.5206 35.7776 88.728 35.9066C88.9356 36.0358 89.103 36.2203 89.211 36.4396L91.2 40.4461C91.2419 40.5298 91.3034 40.6022 91.379 40.6573C91.4547 40.7123 91.5425 40.7485 91.635 40.7626L96.051 41.4001C96.2928 41.4352 96.5201 41.5372 96.7068 41.6947C96.8937 41.8522 97.0328 42.0589 97.1082 42.2912C97.1838 42.5236 97.1928 42.7724 97.1341 43.0096C97.0756 43.2469 96.9519 43.463 96.777 43.6336L93.5775 46.7521C93.5105 46.8175 93.4602 46.8982 93.4313 46.9873C93.4023 47.0764 93.3953 47.1712 93.411 47.2636L94.161 51.6661C94.1931 51.8539 94.1838 52.0465 94.1339 52.2304C94.0839 52.4143 93.9945 52.5851 93.872 52.7311C93.7493 52.877 93.5964 52.9943 93.4238 53.0752C93.2513 53.156 93.0632 53.1983 92.8725 53.1991L92.877 53.2036Z" fill="white"/>
<path d="M92.8766 52.995C92.4866 52.995 92.1356 52.7475 91.8011 52.572L90.2561 51.759L88.7996 51L88.4456 50.814C88.3253 50.7469 88.19 50.7111 88.0523 50.7094C87.9144 50.7079 87.7786 50.7408 87.6566 50.805C86.8031 51.2415 85.9586 51.6975 85.1066 52.143L83.8631 52.797C83.7427 52.8678 83.6142 52.9242 83.4806 52.965C83.2551 53.02 83.0182 53.0029 82.8031 52.9164C82.5878 52.8297 82.4051 52.6779 82.2806 52.482C82.1348 52.2448 82.0814 51.9624 82.1306 51.6885L82.2011 51.2805L82.4831 49.6305L82.7831 47.925C82.8491 47.544 83.0021 47.073 82.7636 46.725C82.6898 46.6291 82.607 46.5408 82.5161 46.461L82.0796 46.035L80.7986 44.787L79.6826 43.698C79.6106 43.629 79.5401 43.5615 79.4696 43.491C79.3235 43.3501 79.2193 43.1715 79.1683 42.9751C79.1173 42.7786 79.1215 42.5719 79.1807 42.3777C79.2398 42.1836 79.3514 42.0094 79.5034 41.8747C79.6552 41.7402 79.8413 41.65 80.0411 41.6145C80.1356 41.5965 80.2316 41.5845 80.3261 41.571L81.7796 41.3595C82.6931 41.2275 83.6096 41.1135 84.5201 40.962C84.9701 40.8855 85.1201 40.4715 85.2971 40.113L86.0471 38.6025L86.8046 37.068C86.9546 36.7515 87.1046 36.363 87.3866 36.1425C87.5537 36.0157 87.7534 35.9391 87.9623 35.9212C88.1713 35.9035 88.381 35.9454 88.5671 36.042C88.7906 36.1639 88.9682 36.3556 89.0726 36.588L89.6021 37.6605L90.9896 40.47C91.037 40.5802 91.1071 40.6792 91.1953 40.7605C91.2833 40.842 91.3876 40.9039 91.5011 40.9425C91.5997 40.9666 91.7 40.9831 91.8011 40.992L93.2501 41.2035C94.1696 41.337 95.0906 41.4615 96.0086 41.604C96.1941 41.6289 96.3707 41.6995 96.5223 41.8095C96.6738 41.9194 96.7958 42.0652 96.8771 42.234C96.9704 42.4363 97.0004 42.6622 96.9632 42.882C96.926 43.1017 96.8233 43.305 96.6686 43.4655C96.4631 43.677 96.2456 43.878 96.0356 44.0835L93.6296 46.413C93.5636 46.479 93.4946 46.542 93.4301 46.608C93.3336 46.7095 93.2639 46.8333 93.227 46.9684C93.1901 47.1034 93.1873 47.2455 93.2186 47.382L93.4241 48.582L93.9521 51.654C93.9945 51.8736 93.9747 52.1005 93.8951 52.3095C93.8117 52.5115 93.6707 52.6846 93.4895 52.8072C93.3084 52.9296 93.0953 52.9959 92.8766 52.998C92.8212 52.998 92.7683 53.0199 92.7292 53.059C92.6902 53.0982 92.6681 53.1511 92.6681 53.2065C92.6681 53.2618 92.6902 53.3148 92.7292 53.3539C92.7683 53.3931 92.8212 53.415 92.8766 53.415C93.1446 53.4139 93.4077 53.3427 93.6399 53.2084C93.872 53.0743 94.0649 52.8817 94.1996 52.65C94.3783 52.3255 94.4381 51.9489 94.3691 51.585C94.3046 51.2055 94.2386 50.8245 94.1741 50.445L93.6356 47.3085C93.6156 47.2378 93.6145 47.1631 93.632 47.0919C93.6497 47.0206 93.6855 46.9552 93.7361 46.902L93.9551 46.6875L95.0936 45.5775L96.3866 44.319C96.6485 44.0895 96.8907 43.8387 97.1111 43.569C97.2545 43.3647 97.3452 43.1281 97.3754 42.8805C97.4057 42.6327 97.3744 42.3813 97.2844 42.1485C97.1944 41.9157 97.0484 41.7087 96.8594 41.5456C96.6704 41.3827 96.4441 41.2687 96.2006 41.214C95.9006 41.148 95.5781 41.121 95.2706 41.076L91.9466 40.593C91.8626 40.581 91.7771 40.5705 91.6916 40.5555C91.6091 40.539 91.5323 40.5009 91.4693 40.4449C91.4064 40.3891 91.3594 40.3174 91.3331 40.2375L90.7331 39.0285C90.2936 38.1285 89.8556 37.242 89.4116 36.351C89.3176 36.163 89.1858 35.9965 89.0247 35.8615C88.8636 35.7265 88.6764 35.626 88.475 35.5663C88.2736 35.5066 88.0619 35.4888 87.8532 35.5141C87.6447 35.5395 87.4434 35.6073 87.2621 35.7135C87.0075 35.8717 86.8031 36.0991 86.6726 36.369L86.4806 36.759L84.9611 39.837L84.7496 40.272C84.7223 40.3468 84.6755 40.4131 84.614 40.464C84.5527 40.5148 84.4788 40.5486 84.4001 40.5615C84.0761 40.6155 83.7506 40.656 83.4251 40.7025L80.1536 41.178C80.0184 41.1924 79.885 41.2189 79.7546 41.2575C79.5145 41.3359 79.2977 41.4732 79.124 41.6566C78.9504 41.8401 78.8253 42.064 78.7602 42.3081C78.6951 42.5523 78.692 42.8088 78.7511 43.0543C78.8104 43.2999 78.9299 43.5268 79.0991 43.7145C79.1681 43.794 79.2491 43.8645 79.3211 43.938L81.7211 46.2735C81.9371 46.4835 82.1546 46.6905 82.3676 46.9035C82.4198 46.9621 82.4557 47.0335 82.4717 47.1103C82.4878 47.1871 82.4834 47.2668 82.4591 47.3415L82.3661 47.877L81.7886 51.2505C81.7676 51.3675 81.7481 51.4845 81.7286 51.6C81.6837 51.8307 81.6931 52.0687 81.7561 52.2952C81.8189 52.5216 81.9335 52.7304 82.091 52.905C82.2483 53.0796 82.4441 53.2152 82.6629 53.301C82.8818 53.3869 83.1174 53.4208 83.3516 53.4C83.5874 53.3719 83.8153 53.2975 84.0221 53.181L86.8721 51.681L87.8666 51.159C87.9281 51.1264 87.9969 51.1102 88.0665 51.1117C88.1361 51.1134 88.2041 51.1327 88.2641 51.168L88.6496 51.372L91.6886 52.9695C92.0741 53.172 92.4386 53.397 92.8886 53.4045C92.936 53.394 92.9783 53.3674 93.0082 53.329C93.038 53.2908 93.0536 53.2432 93.0521 53.1948C93.0507 53.1462 93.0325 53.0997 93.0004 53.0632C92.9683 53.0268 92.9246 53.0026 92.8766 52.995Z" fill="#222221"/>
<path d="M87.9976 50.4285C88.0529 50.4285 88.1059 50.4066 88.145 50.3674C88.1842 50.3283 88.2061 50.2753 88.2061 50.22C88.2061 50.1646 88.1842 50.1117 88.145 50.0725C88.1059 50.0334 88.0529 50.0115 87.9976 50.0115C87.9422 50.0115 87.8893 50.0334 87.8501 50.0725C87.811 50.1117 87.7891 50.1646 87.7891 50.22C87.7891 50.2753 87.811 50.3283 87.8501 50.3674C87.8893 50.4066 87.9422 50.4285 87.9976 50.4285Z" fill="#222221"/>
<path d="M96.2457 43.4235C96.3678 43.3043 96.4541 43.1534 96.4949 42.9878C96.5357 42.822 96.5294 42.6483 96.4766 42.486C96.4239 42.3239 96.3269 42.1796 96.1965 42.0696C96.066 41.9595 95.9075 41.8881 95.7387 41.8635L91.4548 41.241C91.3079 41.2196 91.1685 41.1627 91.0487 41.0754C90.9287 40.9883 90.8318 40.8731 90.7663 40.74L88.8508 36.8595C88.7554 36.6647 88.5935 36.5105 88.3945 36.4244C88.1953 36.3383 87.9721 36.3261 87.7648 36.39C87.68 36.4259 87.5975 36.4665 87.5173 36.5115C87.386 36.5987 87.2801 36.7187 87.2098 36.8595L86.8093 37.671L85.2883 40.791C85.1548 41.061 84.4423 41.1975 84.1438 41.241L81.8023 41.6475L80.3218 41.8635C80.153 41.8881 79.9945 41.9595 79.864 42.0696C79.7336 42.1796 79.6366 42.3239 79.5839 42.486C79.5311 42.6483 79.5248 42.822 79.5656 42.9878C79.6064 43.1534 79.6927 43.3043 79.8148 43.4235L82.9153 46.4445C83.0215 46.548 83.101 46.676 83.1467 46.8172C83.1925 46.9583 83.2031 47.1083 83.1778 47.2545L82.4458 51.5206C82.4215 51.6644 82.4318 51.8119 82.4759 51.9509C82.52 52.09 82.5965 52.2166 82.6993 52.3201C82.8113 52.433 82.9468 52.5203 83.0959 52.5758C83.2451 52.6312 83.4046 52.6535 83.5633 52.6411C83.7388 52.6211 83.9095 52.5704 84.0673 52.4911L87.8998 50.4706C87.9874 50.426 88.0816 50.3962 88.1788 50.3821C88.276 50.3965 88.37 50.4263 88.4578 50.4706L92.2888 52.4851C92.4398 52.5644 92.6102 52.6 92.7805 52.5877C92.9507 52.5754 93.114 52.5157 93.2522 52.4153C93.3903 52.315 93.4976 52.178 93.5619 52.0199C93.6263 51.8618 93.645 51.6889 93.6162 51.5206L92.8827 47.25C92.8578 47.1038 92.8687 46.9538 92.9144 46.8128C92.9602 46.6716 93.0393 46.5438 93.1452 46.44L96.2457 43.4235Z" fill="white"/>
<path d="M83.4548 52.7326C83.1494 52.7189 82.8599 52.5928 82.6418 52.3786C82.5293 52.2658 82.4456 52.1276 82.3976 51.9757C82.3494 51.8237 82.3386 51.6626 82.3657 51.5056L83.1008 47.2396C83.1237 47.107 83.1141 46.9706 83.0726 46.8425C83.031 46.7144 82.9587 46.5985 82.8622 46.5046L79.7632 43.4836C79.6296 43.3538 79.5351 43.1891 79.4902 43.0084C79.4454 42.8275 79.4522 42.6377 79.5096 42.4606C79.5671 42.2834 79.6729 42.1258 79.8153 42.0058C79.9576 41.8856 80.1309 41.8078 80.3152 41.7811L81.7958 41.5651L84.1358 41.1586C84.5753 41.0941 85.1228 40.9501 85.2188 40.7551L86.7398 37.6336L87.1403 36.8221C87.2174 36.6685 87.3332 36.5377 87.4763 36.4426C87.555 36.3958 87.6372 36.3553 87.7223 36.3211L87.7448 36.3106C87.971 36.2393 88.2153 36.2518 88.4331 36.3457C88.6509 36.4396 88.8278 36.6086 88.9313 36.8221L90.8468 40.7041C90.9074 40.8236 90.9957 40.927 91.1046 41.0053C91.2135 41.0836 91.3395 41.1347 91.4723 41.1541L95.7563 41.7766C95.9406 41.8043 96.1134 41.8832 96.2553 42.0041C96.3972 42.125 96.5025 42.2833 96.5591 42.4609C96.6158 42.6385 96.6216 42.8284 96.5759 43.0091C96.5303 43.1899 96.435 43.3541 96.3008 43.4836L93.2048 46.5001C93.1085 46.5941 93.0365 46.7101 92.9949 46.8382C92.9534 46.9661 92.9435 47.1025 92.9663 47.2351L93.6983 51.5011C93.729 51.6845 93.7079 51.8729 93.6374 52.045C93.5669 52.217 93.4497 52.366 93.2991 52.4752C93.1487 52.5844 92.9705 52.6492 92.7851 52.6627C92.5995 52.676 92.414 52.6375 92.2493 52.5511L88.4183 50.5501C88.3427 50.5126 88.2617 50.4868 88.1783 50.4736C88.0944 50.4869 88.013 50.5127 87.9368 50.5501L84.1073 52.5646C83.9418 52.6504 83.7626 52.7062 83.5778 52.7296C83.5368 52.7336 83.4957 52.7347 83.4548 52.7326ZM87.7943 36.4696H87.7838C87.7085 36.5008 87.6353 36.5368 87.5648 36.5776C87.4443 36.658 87.348 36.7694 87.2858 36.9001L86.8853 37.7116L85.3643 40.8331C85.2143 41.1436 84.4643 41.2831 84.1568 41.3281L81.8183 41.7346L80.3347 41.9506C80.1813 41.9729 80.0371 42.0377 79.9185 42.1376C79.8 42.2375 79.7118 42.3688 79.664 42.5162C79.616 42.6637 79.6103 42.8216 79.6475 42.9722C79.6847 43.1227 79.7632 43.2598 79.8742 43.3681L82.9748 46.3891C83.0906 46.502 83.1773 46.6415 83.2271 46.7954C83.277 46.9493 83.2887 47.1131 83.2613 47.2726L82.5293 51.5386C82.5071 51.6692 82.5165 51.8033 82.5567 51.9296C82.5968 52.0559 82.6667 52.1708 82.7603 52.2646C82.8629 52.3682 82.9865 52.4488 83.123 52.5005C83.2593 52.5523 83.4053 52.574 83.5508 52.5646C83.718 52.544 83.8802 52.4932 84.0293 52.4146L87.8603 50.4001C87.9546 50.3521 88.0557 50.3192 88.1603 50.3026H88.1843C88.2885 50.3189 88.3898 50.3513 88.4843 50.3986L92.3168 52.4131C92.4539 52.4837 92.6078 52.5148 92.7615 52.5028C92.9153 52.4908 93.0626 52.4363 93.1871 52.3454C93.3117 52.2545 93.4085 52.1308 93.4667 51.988C93.5249 51.8453 93.5423 51.6892 93.5168 51.5371L92.7848 47.2711C92.7576 47.1116 92.7696 46.948 92.8194 46.7941C92.8694 46.6403 92.9558 46.5008 93.0713 46.3876L96.1718 43.3666C96.2828 43.2583 96.3614 43.1212 96.3986 42.9707C96.4358 42.8201 96.4301 42.6622 96.3821 42.5147C96.3342 42.3673 96.246 42.236 96.1274 42.1361C96.0089 42.0362 95.8647 41.9714 95.7113 41.9491L91.4273 41.3266C91.2675 41.3029 91.1157 41.2408 90.9852 41.1458C90.8546 41.0507 90.749 40.9253 90.6773 40.7806L88.7768 36.9001C88.6914 36.7228 88.5455 36.5819 88.3652 36.5029C88.185 36.424 87.9824 36.4121 87.7943 36.4696Z" fill="#222221"/>
<path opacity="0.26" d="M79.8131 43.4236C79.6917 43.3039 79.6059 43.153 79.5654 42.9874C79.5249 42.8218 79.5312 42.6482 79.5836 42.4861C79.6343 42.3238 79.73 42.1792 79.8596 42.0689C79.989 41.9588 80.1473 41.8876 80.3156 41.8636L84.5591 41.2096C84.7035 41.1944 84.842 41.1436 84.9618 41.0617C85.0818 40.9796 85.1795 40.8692 85.2461 40.7401L87.1496 36.8596C87.243 36.6653 87.4032 36.511 87.6009 36.4249C87.7985 36.3386 88.0206 36.3263 88.2266 36.3901C88.1156 36.5338 88.0242 36.6917 87.9551 36.8596L86.6336 40.7401C86.5691 40.8728 86.4732 40.9877 86.3543 41.075C86.2355 41.1623 86.097 41.2193 85.9511 41.2411L81.7046 41.8636C81.5363 41.8876 81.378 41.9588 81.2486 42.0689C81.119 42.1792 81.0233 42.3238 80.9726 42.4861C80.9202 42.6482 80.9139 42.8218 80.9544 42.9874C80.9949 43.153 81.0807 43.3039 81.2021 43.4236L84.2756 46.4446C84.3809 46.5487 84.4595 46.6768 84.5046 46.8178C84.5498 46.9588 84.5603 47.1086 84.5351 47.2546L83.8106 51.5206C83.7176 52.0681 83.9306 52.1761 84.3131 52.0576C84.3432 52.119 84.3783 52.1776 84.4181 52.2331L83.7806 52.5661C83.4806 52.7281 83.0666 52.6201 82.7876 52.4161C82.649 52.315 82.5417 52.177 82.4778 52.018C82.4138 51.8589 82.3959 51.6849 82.4261 51.5161L83.1476 47.2501C83.172 47.104 83.1611 46.9543 83.1156 46.8133C83.0703 46.6725 82.9917 46.5443 82.8866 46.4401L79.8131 43.4236Z" fill="#222221"/>
<g opacity="0.26">
<path opacity="0.26" d="M24.9238 46.3995H35.4328C35.5666 46.3995 35.6991 46.3722 35.8219 46.3192C35.9449 46.2661 36.0556 46.1886 36.1476 46.0914C36.2394 45.994 36.3103 45.8788 36.3562 45.7531C36.402 45.6274 36.4216 45.4936 36.4138 45.36L36.0643 39.1995L24.9238 44.85V46.3995Z" fill="#222221"/>
</g>
<path d="M24.5156 45.123L35.6561 44.85L35.4011 38.4375L24.5156 45.123Z" fill="white"/>
<path d="M24.5143 45.4981L28.2793 45.4066L34.2793 45.2566L35.6563 45.2221C35.7555 45.2209 35.8501 45.181 35.9202 45.111C35.9902 45.0409 36.0301 44.9463 36.0313 44.8471L35.9458 42.6901L35.8078 39.2281L35.7763 38.4361C35.7754 38.3704 35.7576 38.3062 35.7243 38.2497C35.691 38.1931 35.6436 38.1462 35.5867 38.1135C35.5297 38.0808 35.4654 38.0634 35.3997 38.0632C35.334 38.0629 35.2695 38.0799 35.2123 38.1121L31.5148 40.3846L25.6648 43.9771L24.3253 44.7991C23.9158 45.0511 24.2908 45.6991 24.7048 45.4471L28.4023 43.1761L34.2523 39.5851L35.5918 38.7616L35.0278 38.4391L35.1133 40.5946L35.2513 44.0566L35.2828 44.8501L35.6578 44.4751L31.8943 44.5666L25.8943 44.7166L24.5158 44.7511C24.0328 44.7601 24.0313 45.5101 24.5143 45.4981Z" fill="#222221"/>
<path opacity="0.03" d="M24.9237 58.3501C24.9237 58.3501 24.6522 71.6776 28.7112 76.4266C32.7702 81.1756 53.7612 82.9366 53.7612 82.9366H25.1112L24.9237 58.3501Z" fill="#222221"/>
</svg>
