<svg width="690" height="460" viewBox="0 0 690 460" fill="none" xmlns="http://www.w3.org/2000/svg">
<path d="M314.313 193.048C314.313 193.048 336.72 191.801 341.453 230.331L343.353 295.117L313.766 294.4L314.313 193.048Z" fill="#C6C6C6"/>
<path d="M344.049 295.826L313.072 295.081L313.629 192.395L314.277 192.358C314.517 192.358 320.198 192.087 326.513 196.682C332.273 200.873 339.656 210.096 342.121 230.262V230.322L344.049 295.826ZM314.457 293.733L342.623 294.4L340.746 230.368C338.335 210.749 331.238 201.825 325.681 197.8C320.961 194.364 316.587 193.821 314.981 193.743L314.457 293.733Z" fill="#1D1D1B"/>
<path d="M314.314 193.048C314.314 193.048 327.921 196.061 329.135 216.628C330.35 237.195 332.875 230.207 314.314 292.937L230.074 317.4L256.57 191.852L278.848 191.452L314.314 193.048Z" fill="white"/>
<path d="M229.162 318.384L256.008 191.171L278.833 190.762L314.405 192.363H314.464C314.602 192.395 328.591 195.73 329.819 216.577C329.962 218.955 330.118 220.975 330.279 222.759C331.351 236.426 331.438 237.544 314.993 293.139L314.888 293.503L229.162 318.384ZM257.139 192.533L230.984 316.415L313.784 292.38C330.026 237.401 329.957 236.555 328.899 222.874C328.757 221.085 328.596 219.061 328.439 216.669C327.298 197.349 315.26 193.991 314.211 193.733L278.791 192.142L257.139 192.533Z" fill="#1D1D1B"/>
<path opacity="0.14" d="M328.472 216.504C327.386 198.104 319.111 189.957 296.12 192.229C300.568 193.862 309.727 199.129 312.772 205.942C315.909 212.952 319.322 219.457 309.552 253.487C307.172 261.768 302.734 269.311 296.65 275.413C290.566 281.514 283.036 285.974 274.762 288.378L232.953 300.522L229.42 317.276L313.66 292.808C332.216 230.078 329.686 237.07 328.472 216.504Z" fill="black"/>
<path d="M292.308 280.747C292.308 280.747 314.751 264.647 329.779 271.823C329.779 271.823 339.163 278.02 336.422 284.772L288.752 296.783L292.308 280.747Z" fill="white"/>
<path d="M287.836 297.726L291.691 280.343L291.907 280.186C292.827 279.519 314.857 263.916 330.087 271.202L330.17 271.248C330.57 271.515 339.991 277.84 337.07 285.048L336.936 285.37L287.836 297.726ZM292.924 281.166L289.667 295.845L335.901 284.197C337.907 278.369 330.045 272.849 329.434 272.431C315.717 265.912 295.233 279.565 292.924 281.161V281.166Z" fill="#1D1D1B"/>
<g opacity="0.24">
<path opacity="0.24" d="M292.306 277.61L269.766 277.274C264.407 277.463 264.982 266.234 266.827 261.215L278.244 219.815C279.965 214.845 280.215 209.482 278.962 204.373C277.435 198.453 274.049 194.276 267.462 192.381C255.097 188.048 244.945 201.3 241.177 210.063C223.486 251.238 220.289 285.333 219.714 296.314C219.613 297.164 219.578 298.02 219.608 298.876C219.608 299.635 219.608 300.049 219.608 300.049L219.709 299.989C219.785 300.816 219.917 301.637 220.105 302.445C222.653 312.97 233.739 317.878 243.721 313.683L296.161 298.462L292.306 277.61Z" fill="black"/>
</g>
<path d="M292.306 277.61L261.675 278.709C260.437 278.753 259.208 278.492 258.095 277.949C256.982 277.406 256.02 276.598 255.293 275.596C254.565 274.593 254.096 273.427 253.925 272.201C253.755 270.974 253.889 269.725 254.315 268.562L273.672 215.74C274.579 213.487 275.003 211.068 274.916 208.641C274.83 206.214 274.234 203.832 273.169 201.649C272.104 199.466 270.592 197.532 268.732 195.97C266.871 194.408 264.704 193.255 262.37 192.584C250.009 188.246 236.849 202.731 233.081 211.494C215.39 252.678 212.193 286.773 211.6 297.753C211.499 298.603 211.464 299.46 211.494 300.316C211.471 301.075 211.471 301.489 211.471 301.489L211.572 301.429C211.648 302.255 211.78 303.076 211.967 303.885C212.567 306.359 213.696 308.674 215.278 310.669C216.86 312.664 218.856 314.292 221.128 315.44C223.4 316.588 225.894 317.23 228.439 317.319C230.983 317.409 233.517 316.945 235.864 315.96L296.124 298.48L292.306 277.61Z" fill="white"/>
<path d="M229.08 318.021C224.983 318.021 221.004 316.646 217.782 314.114C214.56 311.582 212.283 308.041 211.315 304.06C211.2 303.577 211.108 303.08 211.03 302.537L210.795 302.666V301.484C210.795 301.484 210.795 301.065 210.818 300.293C210.787 299.419 210.824 298.544 210.928 297.675C211.577 285.255 214.986 251.85 232.443 211.232C236.445 201.917 249.945 187.505 262.595 191.939C265.018 192.641 267.267 193.843 269.197 195.468C271.126 197.093 272.693 199.104 273.797 201.372C274.9 203.64 275.516 206.114 275.604 208.635C275.692 211.156 275.25 213.667 274.307 216.007L254.964 268.801C254.581 269.856 254.463 270.99 254.62 272.101C254.777 273.213 255.204 274.269 255.864 275.177C256.525 276.085 257.398 276.818 258.407 277.31C259.416 277.803 260.531 278.04 261.653 278.001L292.877 276.92L296.911 298.977L236.113 316.609C233.885 317.539 231.494 318.019 229.08 318.021ZM212.203 300.504L212.29 301.364C212.358 302.159 212.485 302.948 212.667 303.724C213.243 306.101 214.328 308.325 215.848 310.242C217.367 312.158 219.285 313.722 221.468 314.825C223.651 315.927 226.048 316.543 228.492 316.629C230.937 316.715 233.371 316.268 235.626 315.321L235.699 315.298L295.32 297.974L291.737 278.3L261.703 279.376C260.352 279.426 259.01 279.142 257.794 278.551C256.579 277.959 255.528 277.077 254.733 275.982C253.939 274.889 253.426 273.616 253.24 272.277C253.055 270.938 253.201 269.573 253.667 268.304L273.024 215.51C273.899 213.347 274.309 211.025 274.23 208.694C274.15 206.362 273.582 204.073 272.561 201.975C271.541 199.877 270.091 198.017 268.306 196.515C266.522 195.013 264.441 193.902 262.2 193.255C255.544 190.923 249.15 194.373 244.95 197.676C239.2 202.197 235.29 208.099 233.735 211.775C216.366 252.19 212.975 285.375 212.327 297.795C212.229 298.625 212.192 299.461 212.216 300.297C212.198 300.38 212.198 300.435 212.193 300.504H212.203Z" fill="#F5F7F8"/>
<path opacity="0.14" d="M240.602 310.96C238.255 311.947 235.722 312.411 233.178 312.322C230.633 312.233 228.138 311.592 225.866 310.445C223.594 309.297 221.598 307.669 220.016 305.674C218.434 303.679 217.305 301.364 216.706 298.89C216.518 298.081 216.386 297.26 216.31 296.434L216.209 296.489C216.209 296.489 216.209 296.079 216.232 295.316C216.202 294.462 216.237 293.607 216.337 292.758C216.912 281.778 220.11 247.678 237.801 206.504C239.086 203.68 240.736 201.037 242.709 198.642C238.252 202.63 234.747 207.621 233.081 211.522C215.39 252.678 212.193 286.774 211.6 297.754C211.499 298.604 211.464 299.46 211.494 300.316C211.471 301.075 211.471 301.489 211.471 301.489L211.572 301.429C211.648 302.256 211.78 303.077 211.967 303.886C212.567 306.36 213.696 308.675 215.278 310.67C216.86 312.665 218.856 314.293 221.128 315.441C223.4 316.589 225.894 317.23 228.439 317.32C230.983 317.41 233.517 316.946 235.864 315.961L296.124 298.481L295.494 295.04L240.602 310.96Z" fill="black"/>
<path d="M211.26 362.14C205.437 396.433 202.52 412.832 206.168 413.821C209.158 414.644 219.333 403.162 220.428 390.821L244.965 393.479C251.11 394.648 257.164 391.722 259.685 386.497C260.703 384.257 261.058 381.773 260.71 379.339C260.36 376.904 259.322 374.619 257.716 372.756C240.121 371.652 228.814 363.23 211.26 362.14Z" fill="#191919"/>
<path d="M350.428 341.743C350.428 341.743 380.061 349.103 375.875 374.435C371.689 399.767 345.221 398.355 345.221 398.355H232.921C232.101 398.353 231.292 398.168 230.552 397.814C229.812 397.46 229.161 396.945 228.645 396.308C228.129 395.67 227.762 394.926 227.57 394.129C227.377 393.332 227.365 392.501 227.534 391.699L233.082 365.7L303.549 352.746L350.428 341.743Z" fill="white"/>
<path d="M346.02 399.078C345.528 399.078 345.238 399.078 345.183 399.078H232.943C232.02 399.078 231.107 398.872 230.274 398.475C229.44 398.077 228.706 397.498 228.125 396.78C227.543 396.062 227.13 395.224 226.915 394.325C226.7 393.427 226.688 392.492 226.88 391.589L232.525 365.12L303.447 352.084L350.455 341.044L350.616 341.081C355.827 342.537 360.745 344.891 365.147 348.036C374.384 354.752 378.335 363.924 376.578 374.56C374.366 387.969 365.934 393.926 359.255 396.557C355.032 398.189 350.548 399.043 346.02 399.078ZM233.679 366.303L228.21 391.874C228.059 392.576 228.068 393.303 228.235 394.001C228.402 394.699 228.723 395.351 229.175 395.909C229.627 396.467 230.197 396.916 230.846 397.226C231.494 397.534 232.203 397.694 232.92 397.693H345.22C349.85 397.762 354.449 396.938 358.767 395.264C367.967 391.616 373.487 384.574 375.194 374.339C376.9 364.104 373.225 355.621 364.319 349.14C360.096 346.144 355.398 343.882 350.423 342.447L303.705 353.427L233.679 366.303Z" fill="#1D1D1B"/>
<path opacity="0.14" d="M359.144 345.184C364.301 350.244 368.123 357.544 366.435 367.775C362.249 393.116 335.781 391.695 335.781 391.695H227.538C227.368 392.499 227.379 393.33 227.57 394.129C227.762 394.927 228.13 395.673 228.646 396.312C229.163 396.95 229.815 397.466 230.556 397.82C231.297 398.175 232.108 398.359 232.929 398.36H345.22C345.22 398.36 371.689 399.773 375.875 374.44C378.538 358.34 367.539 349.481 359.144 345.184Z" fill="black"/>
<path d="M227.865 372.646C239.618 404.248 247.305 419.488 251.058 418.342C254.145 417.422 254.55 405.361 252.162 382.108L275.457 371.105C281.543 368.768 285.517 363.078 285.167 357.397C284.845 352.58 281.487 348.523 276.602 347.051C260.371 355.644 244.125 364.176 227.865 372.646Z" fill="#191919"/>
<path d="M372.674 295.748L372.853 295.651C362.991 273.879 342.033 277.987 342.033 277.987L213.44 307.156C185.73 353.156 231.334 367.632 234.536 368.662L258.686 357.328L276.253 376.537C277.298 377.675 278.693 378.429 280.217 378.679C281.74 378.929 283.304 378.661 284.657 377.917L357.553 337.805C357.553 337.805 385.02 321.655 372.674 295.748Z" fill="white"/>
<path d="M259.086 357.116L234.55 368.662C231.33 367.632 185.744 353.156 213.454 307.156L342.038 277.987C342.038 277.987 362.991 273.879 372.858 295.651" fill="white"/>
<path d="M234.601 369.403L234.343 369.32C229.117 367.637 211.725 360.967 205.823 345.23C201.725 334.296 204.094 321.365 212.866 306.802L213.017 306.549L341.891 277.316C345.907 276.701 350.007 276.93 353.929 277.987C359.978 279.57 368.281 283.871 373.484 295.366L372.228 295.936C368.24 287.127 361.984 281.543 353.635 279.335C349.901 278.337 346.002 278.109 342.176 278.663L213.901 307.763C205.483 321.844 203.201 334.287 207.12 344.747C212.723 359.688 229.2 366.188 234.513 367.922L258.797 356.5L259.381 357.747L234.601 369.403Z" fill="#1D1D1B"/>
<path opacity="0.14" d="M276.534 364.858L267.486 354.959C266.033 353.371 264.09 352.314 261.968 351.955C259.846 351.597 257.664 351.958 255.77 352.981L246.4 358.041C243.82 359.433 240.931 360.153 238 360.135C235.069 360.117 232.189 359.36 229.628 357.935C217.999 351.495 201.058 336.931 211.757 309.971C187.58 353.799 231.413 367.655 234.55 368.662L259.105 357.852L274.593 374.794C276.09 376.432 278.094 377.518 280.283 377.88C282.473 378.241 284.72 377.856 286.664 376.786L357.504 337.815L293.122 368.133C290.369 369.428 287.274 369.808 284.29 369.219C281.306 368.629 278.588 367.101 276.534 364.858Z" fill="black"/>
<path opacity="0.14" d="M373.059 295.467C363.201 273.695 342.055 277.987 342.055 277.987L213.439 307.156C212.354 308.959 211.397 310.712 210.527 312.423L335.385 284.101C335.385 284.101 356.334 279.993 366.205 301.765L366.026 301.861C373.17 316.843 367.001 328.541 360.506 335.777C367.254 330.68 382.834 316.02 373.059 295.467Z" fill="#606060"/>
<path d="M281.979 379.002C280.775 379.002 279.583 378.751 278.482 378.264C277.38 377.777 276.392 377.065 275.581 376.174L257.921 356.854C257.339 356.216 256.913 355.452 256.678 354.621C256.442 353.79 256.403 352.916 256.564 352.068C256.726 351.22 257.082 350.421 257.606 349.734C258.13 349.048 258.806 348.493 259.582 348.114C270.272 342.902 335.638 310.596 340.804 307.979C340.823 307.796 340.803 307.612 340.746 307.437C340.689 307.264 340.596 307.103 340.473 306.967C340.091 306.677 339.213 306.82 338.063 307.349L337.483 306.097C339.19 305.306 340.478 305.233 341.31 305.872C342.414 306.718 342.17 308.346 342.143 308.53L342.092 308.825L341.844 308.99C341.301 309.349 269.214 344.953 260.189 349.355C259.605 349.64 259.096 350.056 258.702 350.572C258.307 351.088 258.038 351.689 257.917 352.327C257.795 352.964 257.824 353.621 258.002 354.246C258.179 354.871 258.5 355.445 258.938 355.925L276.597 375.245C277.701 376.456 279.181 377.26 280.798 377.526C282.415 377.792 284.074 377.506 285.508 376.712L357.645 337.019C362.335 334.043 366.435 330.227 369.738 325.762C376.638 316.24 377.411 306.014 372.093 295.37L373.326 294.754C380.268 308.66 375.819 319.746 370.828 326.6C367.436 331.226 363.198 335.168 358.339 338.219L286.165 377.922C284.884 378.631 283.444 379.003 281.979 379.002Z" fill="#1D1D1B"/>
<path d="M313.029 192.906L316.548 169.202L293.82 142.283L281.887 191.503L275.254 191.53C275.254 191.53 287.863 211.31 307.39 208.822C319.258 207.317 314.29 193.062 314.29 193.062L313.029 192.906Z" fill="white"/>
<path d="M304.06 209.709C286.267 209.709 274.804 192.077 274.684 191.889L274.008 190.831L281.368 190.799L293.48 140.801L317.289 168.995L313.816 192.28L314.824 192.39L314.966 192.804C315.072 193.112 317.574 200.482 314.506 205.404C313.085 207.704 310.716 209.061 307.464 209.475C306.335 209.624 305.198 209.702 304.06 209.709ZM276.584 192.202C279.532 196.213 291.055 210.183 307.312 208.122C310.132 207.763 312.165 206.613 313.352 204.7C315.684 200.946 314.272 195.247 313.812 193.683L312.261 193.508L315.845 169.409L294.17 143.768L282.44 192.174L276.584 192.202Z" fill="#1D1D1B"/>
<path opacity="0.39" d="M312.676 193.863C310.785 184.088 295.619 170.016 295.619 170.016L315.859 172.891L312.676 193.863Z" fill="black"/>
<path d="M330.532 111.564C338.002 115.819 342.377 124.214 342.23 133.014C342.06 143.134 341.135 158.774 337.239 165.959C331.199 177.1 320.729 185.702 306.308 179.534C306.308 179.534 288.925 171.948 289.601 144.371C290.406 111.739 313.756 102.014 330.532 111.564Z" fill="white"/>
<path d="M315.647 182.059C312.365 182.013 309.126 181.298 306.13 179.957C305.946 179.874 301.627 177.951 297.344 172.597C293.406 167.666 288.788 158.76 289.142 144.376C289.533 128.441 295.292 116.532 305.348 110.851C313.168 106.44 322.649 106.568 330.758 111.182C338.275 115.46 342.843 123.837 342.691 133.041C342.502 144.261 341.476 159.123 337.631 166.198C334.747 171.53 327.52 182.054 315.647 182.059ZM317.607 108.533C313.47 108.526 309.403 109.594 305.803 111.633C296.038 117.153 290.449 128.782 290.062 144.38C289.4 171.304 306.323 179.037 306.498 179.11C309.362 180.394 312.459 181.078 315.597 181.121C327.046 181.121 334.029 170.922 336.835 165.743C340.777 158.466 341.619 142.108 341.771 133.005C341.918 124.136 337.525 116.077 330.303 111.964C326.441 109.736 322.065 108.554 317.607 108.533Z" fill="#1D1D1B"/>
<path d="M298.327 147.862C298.327 147.862 306.304 138.004 305.559 123.225C305.559 123.225 327.809 129.021 340.772 126.61C340.772 126.61 339.672 106.43 310.412 105.101C270.313 103.261 274.532 144.201 292.564 153.81L298.327 147.862Z" fill="#20120C"/>
<path d="M281.317 148.957C283.304 154.509 288.819 157.614 293.645 155.889C298.47 154.164 300.775 148.267 298.792 142.715C296.81 137.163 291.29 134.058 286.464 135.783C281.639 137.508 279.334 143.4 281.317 148.957Z" fill="white"/>
<path d="M290.798 156.86C286.428 156.86 282.26 153.548 280.752 148.787C279.842 146.058 279.951 143.092 281.06 140.438C281.561 139.217 282.322 138.119 283.291 137.221C284.259 136.324 285.411 135.648 286.667 135.24C289.105 134.467 291.916 134.932 294.377 136.505C297.408 138.451 299.437 141.836 299.897 145.802L298.977 145.912C298.517 142.168 296.677 139.104 293.848 137.282C291.649 135.875 289.059 135.442 286.911 136.119C285.782 136.493 284.749 137.108 283.881 137.921C283.014 138.735 282.333 139.727 281.888 140.829C280.868 143.276 280.765 146.008 281.598 148.525C283.042 153.079 287.118 156.198 291.258 155.94L291.318 156.86H290.798Z" fill="#1D1D1B"/>
<path d="M314.998 124.582C314.998 124.582 356.265 136.514 350.611 113.62C344.958 90.7258 317.859 101.2 314.998 108.376C312.137 115.552 314.998 124.582 314.998 124.582Z" fill="#20120C"/>
<path d="M431.02 398.273H401.364C401.364 398.273 399.685 389.74 410.78 387.076C412.207 386.748 413.466 385.916 414.327 384.733C415.189 383.549 415.594 382.095 415.468 380.636C414.548 370.194 414.667 349.08 430.754 349.572C452.107 350.221 446.886 398.259 446.886 398.259L431.02 398.273Z" fill="#181818"/>
<path d="M412.748 351.868L397.513 338.068C397.513 338.068 398.893 366.96 391.252 387.421C390.702 388.836 389.688 390.022 388.377 390.786C387.065 391.549 385.532 391.846 384.03 391.626C380.212 391.143 376.353 392.546 373.805 398.277H396.46C396.46 398.277 396.331 398.153 396.101 397.946C398.553 395.379 414.648 377.513 412.748 351.868Z" fill="#7A7A7A"/>
<path d="M396.46 398.963H372.742L373.175 397.992C376.109 391.391 380.746 390.508 384.118 390.936C385.464 391.135 386.839 390.873 388.017 390.19C389.196 389.507 390.108 388.445 390.604 387.177C398.093 367.08 396.837 338.385 396.823 338.1L396.745 336.439L413.415 351.541V351.817C415.228 376.321 401.051 393.572 397.053 397.909L398.166 398.963H396.46ZM374.9 397.583H395.489L395.6 397.468C397.476 395.504 413.834 377.619 412.081 352.194L398.254 339.669C398.396 346.109 398.447 370.084 391.897 387.66C391.291 389.22 390.176 390.529 388.731 391.372C387.286 392.216 385.599 392.545 383.943 392.307C380.019 391.81 376.979 393.585 374.9 397.583Z" fill="#1D1D1B"/>
<path d="M476.482 398.273C476.482 398.273 502.965 387.233 488.314 349.513C488.314 349.513 492.421 390.793 465.773 386.313L476.482 398.273Z" fill="white"/>
<path d="M476.298 399.101L463.924 385.278L465.865 385.604C471.633 386.575 476.348 385.393 479.886 382.085C489.808 372.812 487.646 349.789 487.623 349.559L487.14 344.54L488.98 349.246C496.658 369.003 492.955 381.446 488.52 388.406C483.672 395.982 477.075 398.797 476.795 398.917L476.298 399.101ZM467.507 387.214L476.657 397.44C481.022 395.155 484.711 391.762 487.352 387.601C492.872 378.957 493.484 367.471 489.238 354.172C489.353 361.634 488.488 375.94 480.829 383.102C477.356 386.34 472.88 387.72 467.507 387.214Z" fill="#1D1D1B"/>
<path opacity="0.14" d="M488.06 349.531C488.304 352.535 488.359 355.553 488.216 358.565C494.058 383.566 479.817 394.068 474.932 396.86L476.233 398.319C476.233 398.319 502.725 387.256 488.06 349.531Z" fill="#606060"/>
<path d="M443.371 308.127C438.918 302.772 439.139 294.212 439.622 289.786L440.169 289.644L442.98 263.162C443.256 260.569 442.506 257.97 440.889 255.923C439.272 253.877 436.919 252.545 434.332 252.214L376.979 244.854C376.979 244.854 363.29 258.437 376.556 274.524C382.628 281.884 389.79 283.107 396.764 284.418C397.848 284.622 398.87 285.076 399.748 285.744C400.626 286.412 401.337 287.275 401.823 288.266C402.309 289.256 402.558 290.346 402.549 291.449C402.54 292.552 402.275 293.638 401.773 294.621C395.917 306.167 393.245 320.574 397.5 338.063C398.875 343.562 400.8 348.908 403.245 354.021C402.914 362.627 401.557 376.368 396.676 388.134C396.113 389.5 395.084 390.622 393.772 391.301C392.46 391.98 390.95 392.171 389.51 391.842C385.31 390.885 380.866 391.906 378.037 398.282H401.263C401.263 398.282 410.532 389.179 415.431 374.247C418.49 378.424 421.572 382.168 424.424 385.407C424.516 386.014 424.575 386.327 424.575 386.327C407.583 387.191 409.759 398.259 409.759 398.259H476.459C472.995 332.033 449.59 315.597 443.371 308.127Z" fill="white"/>
<path d="M477.208 398.963H409.207L409.096 398.406C408.908 397.103 408.985 395.775 409.322 394.503C409.659 393.23 410.251 392.039 411.06 391C413.475 387.909 417.754 386.129 423.784 385.701C420.909 382.426 418.186 379.068 415.674 375.705C410.683 389.892 401.874 398.678 401.759 398.765L401.557 398.963H376.988L377.42 397.992C380.64 390.779 385.857 390.301 389.68 391.17C390.961 391.464 392.305 391.293 393.473 390.689C394.641 390.086 395.558 389.088 396.06 387.872C400.775 376.501 402.206 363.294 402.569 354.163C400.139 349.054 398.222 343.717 396.847 338.229C392.987 322.364 394.445 307.584 401.18 294.308C401.63 293.421 401.868 292.442 401.875 291.447C401.881 290.452 401.656 289.469 401.217 288.577C400.777 287.684 400.137 286.906 399.344 286.304C398.552 285.702 397.631 285.293 396.653 285.108L396.257 285.035C389.325 283.733 382.158 282.39 376.04 274.974C362.53 258.598 376.372 244.518 376.5 244.38L376.745 244.141L434.428 251.547C437.187 251.915 439.695 253.342 441.421 255.526C443.146 257.71 443.954 260.48 443.675 263.249L440.8 290.196L440.34 290.32L440.238 290.348C439.778 294.897 439.778 302.768 443.886 307.699C444.567 308.518 445.482 309.474 446.545 310.578C450.726 314.925 457.723 322.207 463.919 335.662C471.366 351.817 475.819 372.876 477.153 398.25L477.208 398.963ZM410.389 397.583H475.755C472.562 339.623 454.342 320.648 445.565 311.517C444.488 310.394 443.555 309.424 442.842 308.568C438.242 303.048 438.426 294.386 438.937 289.708L438.987 289.248L439.535 289.101L442.295 263.093C442.54 260.68 441.837 258.266 440.333 256.363C438.83 254.46 436.644 253.218 434.24 252.899L377.237 245.585C375.091 248.011 373.461 250.846 372.443 253.92C370.208 260.82 371.772 267.619 377.099 274.077C382.899 281.106 389.817 282.403 396.506 283.659L396.906 283.733C398.096 283.956 399.217 284.455 400.182 285.187C401.145 285.92 401.925 286.868 402.459 287.955C402.992 289.041 403.265 290.238 403.255 291.448C403.246 292.659 402.954 293.851 402.403 294.929C395.825 307.901 394.404 322.359 398.185 337.898C399.548 343.356 401.456 348.664 403.88 353.74L403.953 353.892V354.062C403.594 363.313 402.155 376.782 397.334 388.415C396.709 389.932 395.566 391.177 394.109 391.931C392.652 392.684 390.975 392.895 389.376 392.527C384.872 391.502 381.437 393.208 379.155 397.587H400.991C407.197 390.791 411.899 382.763 414.791 374.026L415.21 372.752L416.005 373.833C418.742 377.568 421.756 381.308 424.957 384.942L425.095 385.098L425.122 385.296C425.214 385.885 425.275 386.216 425.275 386.216L425.413 386.989L424.63 387.026C418.6 387.32 414.428 388.949 412.16 391.828C410.895 393.47 410.266 395.514 410.389 397.583Z" fill="#1D1D1B"/>
<g opacity="0.14">
<path opacity="0.14" d="M396.778 284.418C397.863 284.622 398.885 285.076 399.763 285.744C400.641 286.412 401.351 287.274 401.837 288.265C402.324 289.255 402.573 290.345 402.564 291.449C402.555 292.552 402.29 293.638 401.788 294.621C395.932 306.167 393.259 320.574 397.514 338.063C398.89 343.561 400.814 348.908 403.26 354.02C402.929 362.627 401.572 376.367 396.691 388.134C396.46 388.69 396.15 389.211 395.771 389.68C396.759 389.474 397.681 389.032 398.461 388.391C399.239 387.75 399.851 386.929 400.242 386C405.123 374.233 406.48 360.493 406.816 351.886C404.367 346.774 402.44 341.428 401.066 335.929C396.811 318.449 399.483 304.032 405.339 292.486C405.841 291.503 406.106 290.417 406.115 289.314C406.124 288.21 405.875 287.119 405.389 286.129C404.903 285.138 404.192 284.274 403.314 283.606C402.436 282.938 401.414 282.484 400.33 282.279C393.356 280.972 386.194 279.749 380.122 272.389C370.14 260.291 375.361 249.628 378.581 245.06L376.975 244.858C376.975 244.858 363.286 258.437 376.552 274.523C382.643 281.883 389.805 283.107 396.778 284.418Z" fill="black"/>
<path opacity="0.14" d="M427.966 383.235C425.114 380.015 422.032 376.257 418.973 372.08C418.449 373.676 417.869 375.19 417.262 376.652C419.497 379.578 423.863 384.173 425.97 386.588C427.39 386.324 428.827 386.16 430.271 386.096C430.271 386.096 428.058 383.847 427.966 383.235Z" fill="black"/>
<path opacity="0.14" d="M394.629 396.115H381.579C382.234 394.555 383.169 393.128 384.339 391.906C381.933 392.638 379.707 394.524 378.037 398.273H401.262C401.262 398.273 402.026 397.514 403.213 396.115H394.629Z" fill="black"/>
<path opacity="0.14" d="M458.818 396.115H413.301C413.096 394.618 413.266 393.092 413.795 391.676C414.324 390.26 415.196 388.997 416.332 388C408.411 391.308 409.773 398.273 409.773 398.273H476.473C476.436 397.546 476.39 396.833 476.349 396.115H458.818Z" fill="black"/>
</g>
<path d="M438.476 298.54C438.476 298.54 429.608 306.061 399.979 298.54C399.979 298.54 387.918 321.002 403.659 354.016C403.659 354.016 412.56 350.869 415.619 354.733C418.678 358.597 415.426 374.247 415.426 374.247L417.928 377.126C417.928 377.126 433.062 346.104 444.3 347.902C455.538 349.701 456.978 363.639 463.004 363.726C469.03 363.814 470.824 360.129 470.824 360.129C470.824 360.129 468.901 334.121 448.564 313.706C440.045 305.136 438.476 298.54 438.476 298.54Z" fill="#F1443D"/>
<path d="M418.052 377.94L414.947 374.366L414.993 374.145C415.025 373.989 418.163 358.666 415.274 355.009C412.459 351.449 403.916 354.411 403.829 354.439L403.443 354.577L403.263 354.204C395.075 337.056 394.523 322.786 395.443 313.839C396.487 304.12 399.431 298.544 399.556 298.31L399.726 297.997L400.075 298.084C429.055 305.444 438.071 298.25 438.159 298.176L438.729 297.716L438.904 298.434C438.904 298.503 440.565 305.035 448.886 313.389C469.126 333.684 471.265 359.849 471.283 360.102V360.226L471.228 360.336C471.15 360.497 469.232 364.288 462.985 364.191C460.124 364.15 458.288 361.367 456.163 358.142C453.449 354.002 450.367 349.347 444.203 348.362C433.43 346.633 418.443 377.025 418.314 377.342L418.052 377.94ZM415.941 374.109L417.841 376.294C420.113 371.772 433.711 345.731 444.392 347.438C450.942 348.487 454.277 353.551 456.959 357.622C458.942 360.626 460.639 363.22 463.026 363.257C468.174 363.345 470.032 360.608 470.386 360.037C470.198 358.009 467.507 333.357 448.27 314.037C441.158 306.903 438.84 301.157 438.228 299.29C435.882 300.775 425.84 305.513 400.241 299.078C399.606 300.398 397.265 305.725 396.386 314C395.466 322.74 396.014 336.688 403.93 353.455C405.747 352.88 413.13 350.814 416.01 354.453C418.981 358.216 416.341 372.089 415.941 374.109Z" fill="#1D1D1B"/>
<path d="M433.206 335.482C433.206 335.482 415.017 334.355 417.258 351.937C419.774 371.717 432.093 386.34 432.093 386.34L461.045 370.912C461.045 370.912 454.191 330.537 433.206 335.482Z" fill="white"/>
<path d="M431.48 387.439H419.709C419.527 387.439 419.351 387.367 419.222 387.237C419.092 387.108 419.019 386.933 419.019 386.75C419.019 386.566 419.092 386.391 419.222 386.261C419.351 386.132 419.527 386.06 419.709 386.06H430.179C426.531 380.576 411.319 356.32 417.556 342.861C419.902 337.801 424.999 334.898 432.709 334.199C432.892 334.183 433.074 334.24 433.215 334.357C433.356 334.475 433.445 334.644 433.461 334.827C433.477 335.01 433.42 335.192 433.302 335.333C433.185 335.474 433.016 335.563 432.833 335.579C425.652 336.228 420.933 338.877 418.808 343.445C412.202 357.645 431.848 386.073 432.046 386.363C432.119 386.466 432.162 386.587 432.17 386.713C432.179 386.839 432.152 386.965 432.094 387.077C432.036 387.188 431.947 387.282 431.839 387.347C431.731 387.411 431.607 387.445 431.48 387.444V387.439Z" fill="#181818"/>
<path d="M383.493 245.691L371.961 251.937V247.756C371.962 247.208 372.085 246.667 372.322 246.173C372.558 245.679 372.903 245.243 373.329 244.899C373.755 244.555 374.253 244.31 374.786 244.183C375.319 244.055 375.873 244.049 376.409 244.163L383.493 245.691Z" fill="#181818"/>
<path d="M403.3 253.133C403.3 253.534 403.181 253.925 402.959 254.258C402.736 254.591 402.42 254.85 402.05 255.003C401.68 255.156 401.274 255.197 400.881 255.118C400.489 255.04 400.128 254.847 399.845 254.564C399.562 254.282 399.369 253.921 399.291 253.528C399.213 253.135 399.253 252.729 399.406 252.359C399.559 251.989 399.819 251.673 400.152 251.45C400.485 251.228 400.876 251.109 401.276 251.109C401.812 251.109 402.328 251.322 402.707 251.702C403.087 252.082 403.3 252.597 403.3 253.133Z" fill="#181818"/>
<path opacity="0.39" d="M434.074 302.975C432.115 302.575 430.362 301.493 429.129 299.92C425.908 295.743 420.287 285.508 420.582 264.864C420.669 258.631 425.425 253.272 431.622 252.697L432.206 252.651C429.916 251.992 427.517 251.793 425.149 252.066C418.939 252.646 414.187 258 414.109 264.233C413.81 284.883 419.413 295.113 422.652 299.29C423.884 300.871 425.638 301.961 427.601 302.367C429.819 302.831 432.079 303.059 434.345 303.048L434.074 302.975Z" fill="black"/>
<path d="M417.955 264.215C418.043 257.982 422.799 252.623 428.995 252.043C434.58 251.523 440.744 252.747 443.039 259.743C446.526 270.383 449.019 280.31 454.378 288.264C455.085 289.284 455.551 290.453 455.742 291.68C455.933 292.907 455.843 294.162 455.479 295.349C455.115 296.537 454.487 297.626 453.641 298.536C452.796 299.445 451.755 300.151 450.597 300.601C444.518 303.042 437.858 303.653 431.438 302.358C429.476 301.951 427.724 300.861 426.493 299.281C423.259 295.095 417.679 284.86 417.955 264.215Z" fill="white"/>
<path d="M438.031 303.72C435.771 303.718 433.517 303.484 431.305 303.021C429.188 302.574 427.295 301.394 425.96 299.69C422.588 295.343 416.977 284.97 417.271 264.201C417.363 257.6 422.492 251.956 428.946 251.358C436.618 250.64 441.724 253.465 443.707 259.528C444.337 261.446 444.94 263.355 445.519 265.204C448.151 273.548 450.63 281.433 454.963 287.864C455.731 288.987 456.235 290.269 456.436 291.615C456.636 292.961 456.529 294.335 456.122 295.633C455.726 296.903 455.047 298.066 454.136 299.036C453.225 300.005 452.107 300.756 450.865 301.231C446.778 302.85 442.426 303.694 438.031 303.72ZM417.956 264.215H418.646C418.356 284.547 423.784 294.63 427.046 298.835C428.179 300.284 429.789 301.285 431.591 301.659C437.75 302.956 444.061 302.372 450.359 299.934C451.408 299.533 452.353 298.9 453.123 298.082C453.892 297.264 454.467 296.282 454.802 295.21C455.146 294.109 455.235 292.944 455.065 291.803C454.895 290.663 454.468 289.575 453.818 288.623C449.37 282.031 446.858 274.054 444.199 265.623C443.62 263.783 443.022 261.874 442.391 259.965C440.607 254.509 436.122 252.08 429.051 252.733C423.292 253.271 418.711 258.322 418.628 264.233L417.956 264.215Z" fill="#1D1D1B"/>
<path d="M323.458 140.498C323.113 139.679 321.848 140.065 322.22 140.829C324.831 147.349 326.629 154.165 327.575 161.124C327.786 160.917 327.989 160.664 328.205 160.466C326.83 160.463 325.511 159.925 324.525 158.967C324.396 158.845 324.224 158.779 324.047 158.784C323.87 158.789 323.702 158.864 323.58 158.992C323.458 159.121 323.391 159.293 323.397 159.47C323.401 159.648 323.476 159.815 323.605 159.937C324.864 161.109 326.517 161.766 328.237 161.777C328.323 161.782 328.41 161.768 328.49 161.735C328.57 161.704 328.642 161.655 328.702 161.592C328.762 161.53 328.808 161.456 328.836 161.374C328.865 161.293 328.875 161.206 328.867 161.12C327.905 154.046 326.086 147.115 323.453 140.479L323.458 140.498Z" fill="#161616"/>
<path d="M336.04 145.24C336.881 145.387 337.323 147.2 336.789 148.654C336.127 150.36 334.029 151.667 333.261 151.34C332.493 151.013 333.169 148.98 333.261 148.654C333.79 147.057 335.156 145.061 336.04 145.24Z" fill="#161616"/>
<path d="M333.533 151.62C333.408 151.622 333.285 151.598 333.17 151.551C332.383 151.206 332.71 149.757 333.009 148.695L333.041 148.58C333.588 146.928 335.005 144.785 336.091 145.001C336.259 145.042 336.416 145.119 336.551 145.227C336.686 145.335 336.796 145.472 336.873 145.627C337.101 146.107 337.231 146.628 337.255 147.158C337.278 147.689 337.195 148.22 337.011 148.718C336.488 149.922 335.532 150.885 334.333 151.418C334.082 151.537 333.81 151.606 333.533 151.62ZM335.921 145.461C335.258 145.461 334.016 147.103 333.478 148.727L333.45 148.824C332.907 150.705 333.202 151.059 333.354 151.124C333.626 151.178 333.909 151.136 334.154 151.004C335.234 150.516 336.097 149.649 336.578 148.566C336.741 148.132 336.815 147.669 336.797 147.205C336.778 146.741 336.666 146.286 336.468 145.866C336.423 145.771 336.358 145.686 336.279 145.616C336.2 145.547 336.108 145.494 336.008 145.461H335.925H335.921Z" fill="#161616"/>
<path d="M313.26 145.24C314.097 145.387 314.539 147.2 314.01 148.654C313.348 150.36 311.25 151.667 310.482 151.34C309.714 151.013 310.39 148.98 310.482 148.654C311.011 147.057 312.377 145.061 313.26 145.24Z" fill="#161616"/>
<path d="M310.754 151.621C310.629 151.622 310.506 151.598 310.39 151.552C309.604 151.207 309.93 149.758 310.229 148.7L310.257 148.594C310.804 146.943 312.226 144.799 313.302 145.015C313.471 145.055 313.629 145.131 313.764 145.24C313.899 145.348 314.009 145.485 314.084 145.641C314.313 146.12 314.444 146.641 314.468 147.172C314.493 147.703 314.411 148.233 314.227 148.732C313.704 149.935 312.749 150.899 311.55 151.432C311.299 151.546 311.029 151.61 310.754 151.621ZM313.141 145.461C312.479 145.461 311.237 147.104 310.698 148.727L310.671 148.824C310.123 150.705 310.418 151.06 310.57 151.124C310.844 151.179 311.129 151.136 311.375 151.004C312.454 150.515 313.316 149.648 313.799 148.566C313.961 148.131 314.035 147.668 314.016 147.205C313.997 146.742 313.885 146.286 313.688 145.866C313.643 145.771 313.579 145.686 313.5 145.617C313.421 145.547 313.329 145.494 313.228 145.461H313.146H313.141Z" fill="#161616"/>
<path d="M326.992 168.19C327.788 167.882 327.125 166.736 326.284 167.045C321.518 169.073 317.083 165.853 313.661 162.849C313.04 162.274 312.069 163.204 312.741 163.769C316.715 167.256 321.615 170.476 327.001 168.181L326.992 168.19Z" fill="#161616"/>
<path d="M338.467 140.157C339.084 140.686 340.059 139.762 339.438 139.237C338.373 138.305 337.009 137.784 335.593 137.767C334.178 137.75 332.803 138.239 331.715 139.145C331.052 139.679 331.977 140.603 332.635 140.065C333.467 139.405 334.502 139.052 335.564 139.068C336.627 139.084 337.651 139.467 338.463 140.153L338.467 140.157Z" fill="#161616"/>
<path d="M316.939 139.674C317.602 140.245 318.526 139.32 317.859 138.754C316.737 137.724 315.319 137.071 313.807 136.888C312.294 136.706 310.762 137.003 309.427 137.738C308.677 138.138 309.34 139.283 310.09 138.888C311.174 138.301 312.413 138.062 313.638 138.203C314.863 138.343 316.015 138.857 316.939 139.674Z" fill="#161616"/>
<path d="M398.103 304.194C398.103 304.194 416.627 318.78 452.231 318.403L456.555 323.173C456.555 323.173 413.775 323.302 396.512 309.971L398.103 304.194Z" fill="#191919"/>
<path d="M441.802 306.709C441.802 306.709 408.991 315.1 398.512 341.743L400.306 347.051C400.306 347.051 408.535 320.371 443.96 309.41L441.802 306.709Z" fill="#191919"/>
<path d="M439.276 314.73L416.73 309.55C415.742 309.323 414.757 309.94 414.53 310.928L412.397 320.213C412.169 321.2 412.786 322.185 413.774 322.412L436.321 327.592C437.309 327.82 438.293 327.203 438.52 326.215L440.654 316.93C440.881 315.942 440.264 314.957 439.276 314.73Z" fill="#191919"/>
<path d="M550.785 66.5252V158.985C550.785 159.114 550.836 159.238 550.928 159.33C551.02 159.421 551.144 159.473 551.273 159.473C551.401 159.473 551.526 159.421 551.618 159.33C551.71 159.238 551.76 159.114 551.76 158.985V66.5252C551.76 66.3955 551.71 66.2717 551.618 66.1802C551.526 66.0887 551.401 66.0376 551.273 66.0376C551.144 66.0376 551.02 66.0887 550.928 66.1802C550.836 66.2717 550.785 66.3955 550.785 66.5252Z" fill="#E8E8E8"/>
<path d="M550.786 66.1663C576.569 66.5895 602.357 67.3057 628.144 68.3145C628.765 68.3513 628.765 67.3945 628.144 67.3393C602.357 66.3273 576.569 65.6097 550.786 65.1865C550.666 65.1985 550.551 65.2551 550.469 65.3457C550.386 65.4363 550.34 65.5541 550.34 65.6764C550.34 65.7988 550.386 65.9165 550.469 66.0072C550.551 66.0978 550.666 66.1544 550.786 66.1663Z" fill="#E8E8E8"/>
<path d="M551.601 159.565C575.755 161.322 599.749 164.712 623.71 168.139C624.331 168.236 624.589 167.288 623.972 167.192C599.914 163.769 575.82 160.379 551.601 158.585C550.98 158.553 550.98 159.533 551.601 159.565Z" fill="#E8E8E8"/>
<path d="M627.656 68.5125V168.498C627.656 168.627 627.707 168.752 627.799 168.843C627.891 168.934 628.015 168.986 628.144 168.986C628.273 168.986 628.397 168.934 628.489 168.843C628.581 168.752 628.631 168.627 628.631 168.498V68.5125C628.631 68.3832 628.581 68.259 628.489 68.1675C628.397 68.0764 628.273 68.0249 628.144 68.0249C628.015 68.0249 627.891 68.0764 627.799 68.1675C627.707 68.259 627.656 68.3832 627.656 68.5125Z" fill="#E8E8E8"/>
<path d="M623.127 168.07C624.723 168.3 626.319 168.595 627.883 168.889C628.503 169.018 628.766 168.07 628.145 167.942C626.549 167.615 624.98 167.357 623.384 167.127C622.768 167.063 622.506 167.974 623.127 168.07Z" fill="#E8E8E8"/>
<path d="M551.729 109.264C564.835 109.425 577.876 110.731 590.829 112.521C597.187 113.404 603.544 114.361 609.869 115.359C615.932 116.302 622.096 117.659 628.269 117.153C628.89 117.084 628.89 116.109 628.269 116.173C621.88 116.693 615.458 115.23 609.197 114.25C602.757 113.238 596.29 112.263 589.836 111.38C577.186 109.687 564.504 108.413 551.725 108.252C551.591 108.252 551.463 108.305 551.366 108.4C551.274 108.495 551.219 108.624 551.219 108.758C551.219 108.892 551.274 109.021 551.366 109.116C551.463 109.211 551.591 109.264 551.725 109.264H551.729Z" fill="#E8E8E8"/>
<path d="M556.784 109.622C557.336 124.26 557.902 138.897 558.477 153.534C558.509 154.15 559.489 154.15 559.457 153.534C558.9 138.897 558.334 124.26 557.759 109.622C557.727 109.001 556.752 109.001 556.784 109.622Z" fill="#E8E8E8"/>
<path d="M559.65 154.1C581.886 156.805 604.15 159.16 626.414 161.46C627.035 161.524 627.035 160.54 626.414 160.48C604.15 158.134 581.886 155.788 559.65 153.12C559.033 153.051 559.033 154.04 559.65 154.095V154.1Z" fill="#E8E8E8"/>
<path d="M552.216 158.7C554.663 157.32 557.074 155.899 559.521 154.464C559.631 154.399 559.714 154.293 559.751 154.167C559.783 154.042 559.765 153.909 559.7 153.797C559.636 153.684 559.53 153.603 559.406 153.569C559.277 153.535 559.144 153.553 559.033 153.617C556.586 154.997 554.176 156.419 551.729 157.854C551.618 157.919 551.535 158.025 551.503 158.151C551.466 158.275 551.485 158.409 551.549 158.521C551.614 158.633 551.719 158.715 551.844 158.749C551.972 158.783 552.106 158.765 552.216 158.7Z" fill="#E8E8E8"/>
<path d="M558.77 103.914C578.592 105.447 598.422 106.97 618.267 108.482C618.883 108.514 618.883 107.534 618.267 107.502C598.445 105.969 578.615 104.447 558.77 102.939C558.149 102.874 558.149 103.859 558.77 103.914Z" fill="#E8E8E8"/>
<path d="M556.49 96.9403C578.068 97.0355 599.651 97.6487 621.23 98.7803C621.851 98.8125 621.851 97.8327 621.23 97.8005C599.683 96.6597 578.105 96.0465 556.49 95.9604C556.361 95.9604 556.237 96.0124 556.145 96.104C556.053 96.196 556.002 96.3206 556.002 96.4504C556.002 96.5805 556.053 96.7052 556.145 96.7967C556.237 96.8887 556.361 96.9403 556.49 96.9403Z" fill="#E8E8E8"/>
<path d="M560.335 86.8665L604.955 86.9631C605.084 86.9631 605.208 86.9116 605.3 86.82C605.392 86.729 605.443 86.6048 605.443 86.4755C605.443 86.3462 605.392 86.222 605.3 86.1305C605.208 86.0394 605.084 85.9879 604.955 85.9879L560.335 85.8867C560.206 85.8867 560.082 85.9382 559.99 86.0302C559.898 86.1222 559.848 86.2464 559.848 86.3766C559.848 86.5063 559.898 86.631 559.99 86.723C560.082 86.815 560.206 86.8665 560.335 86.8665Z" fill="#E8E8E8"/>
<path d="M556.945 77.1511C577.185 76.8907 597.406 77.4335 617.614 78.7795C618.23 78.8117 618.23 77.8595 617.614 77.8043C597.434 76.4643 577.208 75.9201 556.945 76.1713C556.816 76.1713 556.692 76.2233 556.6 76.3148C556.508 76.4068 556.457 76.5315 556.457 76.6612C556.457 76.7914 556.508 76.916 556.6 77.008C556.692 77.0996 556.816 77.1511 556.945 77.1511Z" fill="#E8E8E8"/>
<path d="M607.149 157.573C606.726 156.63 606.855 156.11 607.54 155.944C607.793 155.84 608.055 155.763 608.322 155.714L609.27 155.521C609.679 155.43 610.061 155.258 610.401 155.016C610.742 154.773 611.032 154.465 611.248 154.11C611.469 153.754 611.611 153.359 611.676 152.946C611.74 152.533 611.717 152.112 611.616 151.708C611.593 151.604 611.533 151.511 611.45 151.446C611.367 151.381 611.262 151.346 611.156 151.349C608.446 151.574 608.676 147.338 611.446 148.184C611.938 148.35 612.228 147.697 611.938 147.37C609.785 145.07 605.645 139.417 608.479 136.33C609.228 135.516 610.567 134.991 611.579 135.645C612.172 136.116 612.632 136.735 612.913 137.439C613.373 138.253 613.764 139.164 614.546 139.688C616.303 140.861 618.097 139.228 618.392 137.471C618.654 135.838 617.872 134.209 617.872 132.581C617.872 131.44 618.097 130.166 618.944 129.32C619.79 128.473 621.326 128.147 622.371 128.993C622.449 129.067 622.55 129.114 622.656 129.126C622.762 129.138 622.872 129.114 622.964 129.059C623.056 129.004 623.13 128.92 623.166 128.82C623.208 128.72 623.212 128.609 623.185 128.505C622.858 127.429 622.725 126.288 623.346 125.285C624.063 124.177 625.793 123.754 626.511 125.124C626.8 125.676 627.651 125.189 627.357 124.637C627.168 124.311 626.915 124.026 626.612 123.802C626.313 123.577 625.963 123.417 625.6 123.33C625.232 123.244 624.85 123.234 624.482 123.3C624.109 123.367 623.755 123.508 623.442 123.717C621.75 124.761 621.717 127.043 622.237 128.74C622.499 128.574 622.794 128.413 623.051 128.248C620.475 126.095 617.38 128.542 616.956 131.38C616.851 132.225 616.869 133.081 617.021 133.92C617.219 135.258 617.941 137.052 617.053 138.29C615.213 140.866 613.764 136.661 612.913 135.617C611.073 133.317 607.697 134.508 606.85 137.149C605.613 140.962 608.741 145.429 611.188 148.037C611.349 147.775 611.515 147.48 611.676 147.223C610.144 146.731 608.286 147.614 608.023 149.307C607.761 150.999 609.458 152.407 611.087 152.274C610.926 152.162 610.774 152.043 610.627 151.915C611.28 155.406 606.358 153.874 605.512 156.446C605.411 156.73 605.397 157.038 605.47 157.331C605.539 157.624 605.7 157.89 605.921 158.095C606.142 158.3 606.418 158.435 606.717 158.485C607.016 158.534 607.319 158.495 607.595 158.373C608.216 158.143 607.724 157.297 607.135 157.587L607.149 157.573Z" fill="#E8E8E8"/>
<path d="M402.961 31.9012V85.9512C402.961 86.0804 403.012 86.2046 403.104 86.2962C403.195 86.3873 403.319 86.4388 403.449 86.4388C403.578 86.4388 403.702 86.3873 403.793 86.2962C403.885 86.2046 403.936 86.0804 403.936 85.9512V31.9012C403.936 31.7719 403.885 31.6479 403.793 31.5564C403.702 31.465 403.578 31.4136 403.449 31.4136C403.319 31.4136 403.195 31.465 403.104 31.5564C403.012 31.6479 402.961 31.7719 402.961 31.9012Z" fill="#E8E8E8"/>
<path d="M402.78 86.246C390.911 92.2738 381.398 102.098 375.755 114.154C375.492 114.706 376.343 115.23 376.601 114.642C382.18 102.746 391.569 93.0526 403.281 87.097C403.838 86.8348 403.35 85.9884 402.793 86.246H402.78Z" fill="#E8E8E8"/>
<path d="M403.421 86.8341C409.149 89.2495 414.34 92.78 418.69 97.2209C423.041 101.662 426.464 106.923 428.762 112.7C428.992 113.284 429.935 113.026 429.71 112.438C427.359 106.5 423.843 101.092 419.369 96.5346C414.895 91.9769 409.553 88.3608 403.66 85.9003C403.076 85.6749 402.814 86.6179 403.402 86.8479L403.421 86.8341Z" fill="#E8E8E8"/>
<path d="M378.3 115.23C394.014 108.086 411.618 110.763 428.013 113.468C428.634 113.565 428.896 112.622 428.275 112.52C411.549 109.76 393.775 107.143 377.776 114.36C377.256 114.623 377.744 115.469 378.3 115.211V115.23Z" fill="#E8E8E8"/>
<path d="M397.467 111.053C396.52 113.109 396.128 115.584 397.14 117.705C398.249 120.051 400.986 121.095 403.465 121.159C405.765 121.228 408.226 120.239 409.399 118.128C409.954 117.177 410.192 116.075 410.08 114.979C409.969 113.885 409.513 112.853 408.778 112.033C408.355 111.573 407.67 112.263 408.093 112.718C409.432 114.154 409.399 116.371 408.323 117.967C407.182 119.692 404.965 120.267 402.978 120.12C400.991 119.973 398.769 119.011 397.955 117.019C397.205 115.23 397.532 113.206 398.314 111.499C398.576 110.975 397.729 110.487 397.467 111.072V111.053Z" fill="#E8E8E8"/>
<path d="M355.217 141.961C361.542 137.917 367.899 133.874 374.224 129.867C374.744 129.541 374.256 128.69 373.736 129.016C367.411 133.06 361.054 137.103 354.729 141.114C354.173 141.468 354.665 142.319 355.217 141.961Z" fill="#E8E8E8"/>
<path d="M358.671 161.29C364.049 156.37 369.174 151.181 374.026 145.742C374.454 145.282 373.769 144.569 373.345 145.056C368.492 150.495 363.367 155.686 357.99 160.609C357.53 161.032 358.216 161.713 358.671 161.29Z" fill="#E8E8E8"/>
<path d="M384.331 158.162C379.442 170.735 374.888 183.462 370.669 196.342C370.475 196.926 371.418 197.188 371.616 196.599C375.821 183.756 380.373 171.03 385.274 158.419C385.504 157.83 384.556 157.605 384.354 158.157L384.331 158.162Z" fill="#E8E8E8"/>
<path d="M404.639 149.261C408.454 159.335 412.288 169.398 416.139 179.451C416.365 180.035 417.312 179.777 417.059 179.189C413.247 169.115 409.423 159.053 405.587 149.003C405.357 148.415 404.409 148.677 404.639 149.261Z" fill="#E8E8E8"/>
<path d="M422.602 135.277C428.308 140.084 433.658 145.299 438.61 150.88C439.033 151.34 439.718 150.65 439.29 150.195C434.333 144.627 428.985 139.418 423.287 134.61C422.827 134.187 422.146 134.872 422.602 135.295V135.277Z" fill="#E8E8E8"/>
<path d="M431.37 121.9C435.805 124.085 440.271 126.238 444.71 128.423C445.262 128.68 445.787 127.866 445.198 127.572C440.764 125.391 436.297 123.239 431.858 121.053C431.301 120.791 430.814 121.61 431.366 121.9H431.37Z" fill="#E8E8E8"/>
<path d="M465.98 107.829C487.237 109.141 508.383 111.929 529.253 116.173C529.874 116.302 530.136 115.359 529.515 115.23C508.567 110.964 487.347 108.152 466.012 106.817C465.879 106.812 465.746 106.861 465.649 106.953C465.552 107.045 465.493 107.172 465.493 107.307C465.488 107.44 465.534 107.571 465.626 107.669C465.718 107.767 465.847 107.824 465.98 107.829Z" fill="#E8E8E8"/>
<path d="M466.027 107.079C466.252 105.711 466.316 104.322 466.22 102.939C466.188 102.318 465.208 102.318 465.245 102.939C465.355 104.244 465.295 105.558 465.079 106.849C464.983 107.438 465.925 107.695 466.027 107.079Z" fill="#E8E8E8"/>
<path d="M465.925 103.882C487.182 106.067 508.535 107.99 529.465 112.489C530.081 112.622 530.344 111.674 529.723 111.569C508.696 107.07 487.278 105.129 465.925 102.93C465.309 102.861 465.309 103.85 465.925 103.905V103.882Z" fill="#E8E8E8"/>
<path d="M529.042 111.835C528.927 113.077 528.991 114.329 529.235 115.552C529.368 116.173 530.311 115.911 530.182 115.295C529.966 114.155 529.906 112.99 530.017 111.835C530.081 111.219 529.097 111.219 529.042 111.835Z" fill="#E8E8E8"/>
<path d="M467.559 92.6668C467.126 96.4131 467.572 100.209 468.86 103.753C469.09 104.337 470.033 104.079 469.808 103.491C468.538 100.033 468.101 96.3247 468.534 92.6668C468.603 92.0182 467.614 92.0504 467.559 92.6668Z" fill="#E8E8E8"/>
<path d="M467.392 92.7684C471.444 93.8779 475.649 94.3439 479.849 94.1484C480.465 94.1162 480.465 93.141 479.849 93.1732C475.736 93.3365 471.624 92.8709 467.654 91.7932C467.53 91.7656 467.401 91.7863 467.295 91.8516C467.185 91.9164 467.106 92.0204 467.07 92.1423C467.037 92.2642 467.051 92.3944 467.111 92.5057C467.171 92.617 467.272 92.7012 467.392 92.7408V92.7684Z" fill="#E8E8E8"/>
<path d="M479.029 94.1342C479.567 97.4297 479.117 100.812 477.728 103.849C477.465 104.406 478.312 104.926 478.574 104.337C480.05 101.061 480.529 97.4232 479.954 93.8766C479.857 93.2556 478.91 93.5178 479.006 94.1342H479.029Z" fill="#E8E8E8"/>
<path d="M471.142 92.3773C469.886 90.737 469.007 88.8422 468.561 86.8251C468.115 84.8085 468.12 82.7187 468.566 80.7025C468.308 80.7715 468.014 80.8359 467.752 80.9325C471.114 84.1774 473.253 88.4857 473.801 93.1271C473.87 93.7435 474.845 93.7435 474.781 93.1271C474.252 88.2244 472.011 83.6645 468.455 80.2471C468.4 80.1772 468.322 80.1252 468.239 80.0976C468.152 80.0705 468.06 80.0691 467.972 80.0935C467.885 80.1179 467.807 80.1675 467.747 80.2356C467.692 80.3037 467.655 80.3879 467.641 80.4771C467.163 82.6175 467.154 84.8361 467.614 86.9801C468.078 89.1242 468.998 91.1431 470.314 92.8971C470.673 93.3571 471.519 92.8649 471.16 92.3773H471.142Z" fill="#E8E8E8"/>
<path d="M473.685 88.5268C474.117 86.2263 474.876 83.999 475.934 81.912C476.436 80.9216 477.016 79.9726 477.664 79.0738C478.124 78.4528 478.124 78.0618 478.414 78.7794C478.584 79.3976 478.69 80.0306 478.741 80.67C479.214 85.1909 477.903 89.7182 475.088 93.2878C474.697 93.7754 475.382 94.4608 475.773 93.9732C479.132 89.6998 480.834 83.637 479.293 78.2918C478.575 75.7802 476.882 78.4528 476.197 79.497C474.513 82.1829 473.345 85.1568 472.742 88.2692C472.641 88.8856 473.588 89.1478 473.662 88.5268H473.685Z" fill="#E8E8E8"/>
<path d="M488.289 105.938C488.404 105.524 488.436 105.091 488.386 104.664C488.353 104.273 487.995 103.459 488.128 103.132C488.616 101.798 491.679 102.773 492.595 102.874C495.815 103.265 499.035 103.689 502.209 104.144C508.405 105.023 514.564 106.035 520.691 107.111C520.581 106.95 520.462 106.796 520.333 106.651C520.434 107.332 520.498 108.031 520.595 108.703C520.692 109.374 521.639 109.324 521.575 108.703C521.51 108.082 521.409 107.323 521.313 106.651C521.308 106.546 521.271 106.445 521.207 106.362C521.142 106.279 521.055 106.22 520.954 106.191C513.75 104.888 506.533 103.747 499.306 102.769C495.985 102.309 492.526 101.596 489.186 101.499C488.436 101.467 487.686 101.596 487.295 102.345C486.776 103.39 487.622 104.563 487.364 105.639C487.351 105.753 487.378 105.867 487.438 105.963C487.502 106.059 487.594 106.13 487.705 106.165C487.811 106.2 487.93 106.196 488.036 106.153C488.142 106.111 488.229 106.034 488.284 105.933L488.289 105.938Z" fill="#E8E8E8"/>
<path d="M498.332 102.285C497.09 100.395 499.712 99.3828 501.133 99.3828C502.513 99.4596 503.884 99.6349 505.241 99.9072C507.72 100.266 510.232 100.625 512.707 101.016C515.182 101.407 517.629 101.798 520.067 102.253C521.176 102.483 522.284 102.713 523.425 102.971C524.4 103.196 528.379 103.688 527.533 105.515C527.271 106.067 528.117 106.586 528.379 106.002C529.759 103.035 525.283 102.382 523.393 101.959C519.446 101.08 515.472 100.427 511.46 99.8428C509.473 99.5484 507.513 99.254 505.526 98.9918C503.764 98.7342 501.846 98.2098 500.048 98.5042C498.06 98.7986 496.266 100.882 497.541 102.805C497.83 103.297 498.681 102.805 498.323 102.285H498.332Z" fill="#E8E8E8"/>
<path d="M520.719 107.079C522.982 107.674 525.351 107.785 527.661 107.405C528.282 107.304 528.02 106.361 527.399 106.458C525.25 106.794 523.061 106.682 520.958 106.131C520.342 106.002 520.08 106.945 520.701 107.079H520.719Z" fill="#E8E8E8"/>
<path d="M376.244 115.262C382.998 116.045 389.789 116.468 396.589 116.532C396.711 116.52 396.824 116.463 396.906 116.373C396.988 116.282 397.034 116.164 397.034 116.042C397.034 115.919 396.988 115.802 396.906 115.711C396.824 115.62 396.711 115.564 396.589 115.552C389.79 115.473 382.999 115.049 376.244 114.282C375.627 114.218 375.627 115.202 376.244 115.262Z" fill="#E8E8E8"/>
<path d="M410.183 116.108C416.504 116.056 422.805 115.378 428.992 114.084C429.613 113.956 429.351 113.013 428.73 113.164C422.63 114.446 416.416 115.112 410.183 115.152C410.061 115.164 409.949 115.22 409.866 115.311C409.784 115.401 409.738 115.52 409.738 115.642C409.738 115.764 409.784 115.882 409.866 115.973C409.949 116.063 410.061 116.12 410.183 116.131V116.108Z" fill="#E8E8E8"/>
<path d="M386.645 137.462L376.865 154.868C376.8 154.981 376.782 155.114 376.815 155.24C376.849 155.365 376.93 155.472 377.042 155.538C377.155 155.603 377.288 155.621 377.414 155.588C377.539 155.555 377.646 155.473 377.712 155.361C380.975 149.555 384.234 143.752 387.491 137.95C387.786 137.398 386.939 136.905 386.645 137.462Z" fill="#E8E8E8"/>
<path d="M408.65 131.464C410.761 134.806 412.7 138.255 414.46 141.795C414.754 142.352 415.601 141.864 415.306 141.308C413.549 137.789 411.594 134.329 409.506 130.976C409.441 130.864 409.334 130.782 409.209 130.748C409.084 130.715 408.951 130.732 408.839 130.797C408.726 130.861 408.644 130.968 408.61 131.093C408.577 131.218 408.594 131.351 408.659 131.464H408.65Z" fill="#E8E8E8"/>
<path d="M423.154 124.485C425.633 125.92 428.08 127.323 430.555 128.758C430.667 128.81 430.794 128.818 430.911 128.781C431.029 128.744 431.128 128.664 431.189 128.557C431.251 128.45 431.27 128.324 431.242 128.204C431.215 128.083 431.144 127.978 431.042 127.907C428.568 126.477 426.12 125.074 423.646 123.639C423.533 123.573 423.4 123.555 423.274 123.589C423.149 123.622 423.042 123.704 422.976 123.816C422.911 123.928 422.893 124.061 422.927 124.187C422.96 124.313 423.041 124.42 423.154 124.485Z" fill="#E8E8E8"/>
</svg>
