<svg width="200" height="30" viewBox="0 0 200 30" fill="none" xmlns="http://www.w3.org/2000/svg">
<path d="M54.9461 23.4412C54.1022 23.6287 53.0708 23.7225 52.0394 23.7225C49.0389 23.7225 48.3825 22.691 48.3825 20.722V9.37646H42.7567V21.3783C42.7567 26.7229 45.7571 29.1608 51.7581 29.1608C54.6648 29.1608 57.3839 28.5982 60.6657 27.8481V9.37646H54.9461V23.4412ZM73.2302 24.0037C71.1674 24.0037 70.8861 23.0661 70.8861 21.4721V14.1585H75.5743V9.37646H70.8861V3.75059H65.2602V9.37646H62.4472V14.0647H65.2602V21.7534C65.2602 25.1289 65.9165 29.067 71.5424 29.067C73.2302 29.067 74.6366 28.692 76.2306 28.2232L75.6681 23.5349C74.8242 23.8162 74.0741 24.0037 73.2302 24.0037ZM14.0647 13.4083C13.0333 13.0333 11.8143 12.6582 10.5954 12.2832C7.31364 11.3455 6.28223 10.8767 6.28223 9.37646C6.28223 7.6887 7.50117 6.84482 10.5016 6.84482C12.9395 6.84482 15.0961 7.50117 17.2527 8.25129L18.4716 2.81294C15.94 1.87529 13.5959 1.03141 10.6892 1.03141C3.93811 1.03141 0.187529 4.87576 0.187529 9.47023C0.187529 12.9395 1.68776 15.1899 5.06329 16.5963C6.00094 16.9714 7.21988 17.3465 8.43882 17.7215C12.0956 18.8467 13.2208 19.4093 13.2208 20.8158C13.2208 22.5035 11.8143 23.4412 8.90764 23.4412C6.28223 23.4412 3.84435 22.691 1.3127 21.5659L0 27.1917C2.81294 28.3169 5.53211 29.067 8.90764 29.067C15.8462 29.067 19.4093 25.2227 19.4093 20.5345C19.4093 16.7839 17.2527 14.6273 14.0647 13.4083ZM87.9512 8.43882C86.0759 8.43882 84.2944 8.90764 83.0755 9.2827V0H77.4496V29.067H83.0755V14.5335C84.1069 14.1585 85.232 13.7834 86.6385 13.7834C88.7951 13.7834 89.639 14.6273 89.639 16.6901V29.067H95.2649V16.0338C95.2649 10.8767 92.9207 8.43882 87.9512 8.43882ZM30.9423 8.34505C25.2227 8.34505 20.6282 12.3769 20.6282 18.6592C20.6282 24.9414 25.2227 29.1608 30.9423 29.1608C36.662 29.1608 41.2564 25.0352 41.2564 18.6592C41.2564 12.2832 36.662 8.34505 30.9423 8.34505ZM30.9423 23.5349C28.5044 23.5349 26.5354 21.7534 26.5354 18.5654C26.5354 15.3774 28.4107 13.6896 30.9423 13.6896C33.474 13.6896 35.3493 15.3774 35.3493 18.5654C35.3493 21.8472 33.3802 23.5349 30.9423 23.5349ZM157.243 17.0652C156.399 16.7839 155.556 16.5026 154.524 16.2213C152.555 15.6587 151.805 15.3774 151.805 14.5335C151.805 13.6896 152.555 13.1271 154.337 13.1271C156.212 13.1271 157.9 13.5021 159.775 14.0647L160.713 9.18894C158.65 8.72011 156.681 8.34505 154.43 8.34505C149.086 8.34505 146.179 11.0642 146.179 14.8148C146.179 17.4402 147.492 19.128 150.117 20.2532C150.867 20.5345 151.711 20.9095 152.743 21.1908C154.805 21.7534 155.837 22.0347 155.837 22.9723C155.837 23.91 154.618 24.285 152.93 24.285C150.867 24.285 148.992 23.91 147.023 23.1599L146.179 28.0356C148.617 28.692 150.867 29.1608 153.399 29.1608C159.025 29.1608 161.556 26.2541 161.556 22.5973C161.463 20.0656 160.431 18.1903 157.243 17.0652ZM136.146 8.34505C130.239 8.34505 126.02 12.4707 126.02 19.0342C126.02 25.1289 129.676 29.1608 136.24 29.1608C139.147 29.1608 141.491 28.3169 143.929 27.2855L143.085 22.5973C141.21 23.4412 139.334 24.0975 137.084 24.0975C133.708 24.0975 132.302 22.691 132.114 20.6282H144.773C144.773 20.6282 144.96 18.3779 144.96 17.909C144.96 12.5645 142.053 8.34505 136.146 8.34505ZM132.208 16.8776C132.583 15.1899 133.427 13.0333 135.865 13.0333C138.303 13.0333 139.053 15.4712 139.053 16.8776H132.208ZM172.621 24.0037C170.558 24.0037 170.277 23.0661 170.277 21.4721V14.1585H174.965V9.37646H170.277V3.75059H164.651V9.37646H161.744V14.1585H164.651V21.8472C164.651 25.2227 165.495 29.1608 171.12 29.1608C172.808 29.1608 174.215 28.7857 175.809 28.3169L175.152 23.6287C174.215 23.8162 173.465 24.0037 172.621 24.0037ZM176.371 1.12518C174.965 1.12518 173.933 2.25035 173.84 3.65682C173.746 5.06329 174.965 6.18847 176.277 6.18847C177.684 6.18847 178.809 5.06329 178.809 3.65682C178.809 2.25035 177.778 1.12518 176.371 1.12518ZM176.371 5.71964C175.246 5.71964 174.402 4.87576 174.402 3.65682C174.402 2.43788 175.246 1.594 176.465 1.594C177.59 1.594 178.528 2.43788 178.434 3.65682C178.34 4.87576 177.496 5.71964 176.371 5.71964ZM176.653 3.75059C177.121 3.65682 177.403 3.46929 177.403 3.00047C177.403 2.53165 177.028 2.15659 176.465 2.15659H175.527V5.06329H176.09V3.84435C176.277 3.84435 176.371 3.93812 176.465 4.12564L177.121 5.06329H177.778L177.215 4.12564C176.84 3.93812 176.746 3.84435 176.653 3.75059ZM176.277 3.46929H175.996V2.62541H176.371C176.746 2.62541 176.84 2.81294 176.84 3.00047C176.84 3.37553 176.559 3.46929 176.277 3.46929ZM120.769 9.37646L117.206 20.1594L113.643 9.37646H108.767L105.11 20.1594L101.547 9.37646H95.4524L102.485 29.067H107.642L111.205 18.3779L114.768 29.067H119.925L126.957 9.37646H120.769Z" fill="#304CB2"/>
<path d="M193.717 8.25098C191.842 8.25098 190.248 8.90733 189.029 9.56368C187.81 8.90733 186.31 8.25098 184.341 8.25098C180.496 8.25098 178.059 10.6889 178.059 15.002C178.059 20.1591 183.028 25.2224 189.029 29.348C195.03 25.3161 200 20.2529 200 15.002C200 10.6889 197.468 8.25098 193.717 8.25098Z" fill="#CCCCCC"/>
<path d="M178.621 15.0964C178.621 20.3472 184.247 25.3168 188.935 28.5985C190.342 27.6609 191.748 26.5357 193.061 25.4105C186.779 20.1597 180.778 15.3777 178.715 13.6899C178.715 14.065 178.621 14.5338 178.621 15.0964Z" fill="url(#paint0_linear)"/>
<path d="M198.968 17.5341C194.374 13.7835 191.654 11.8144 188.654 10.0329C187.81 9.56408 186.216 8.81396 184.434 8.81396C182.747 8.81396 181.246 9.37655 180.215 10.408C179.559 11.0643 179.09 11.9082 178.902 12.9396C181.246 14.6274 187.716 19.2218 194.186 24.3789C196.343 22.3161 198.124 19.972 198.968 17.5341Z" fill="url(#paint1_linear)"/>
<path d="M197.749 10.408C196.718 9.37655 195.311 8.81396 193.624 8.81396C191.842 8.81396 190.529 9.37655 189.498 9.93914C191.28 10.9706 195.124 13.1271 199.156 16.1276C199.25 15.7525 199.25 15.2837 199.25 14.9087C199.343 13.0334 198.781 11.4394 197.749 10.408Z" fill="url(#paint2_linear)"/>
<defs>
<linearGradient id="paint0_linear" x1="178.662" y1="21.0791" x2="193.156" y2="21.0791" gradientUnits="userSpaceOnUse">
<stop stop-color="#3656CC"/>
<stop offset="0.35" stop-color="#304CB2"/>
<stop offset="0.72" stop-color="#283B80"/>
</linearGradient>
<linearGradient id="paint1_linear" x1="180.721" y1="9.62981" x2="197.094" y2="21.0942" gradientUnits="userSpaceOnUse">
<stop offset="0.3" stop-color="#E61C23"/>
<stop offset="0.8" stop-color="#C3161C"/>
</linearGradient>
<linearGradient id="paint2_linear" x1="190.871" y1="8.14777" x2="200.232" y2="14.7026" gradientUnits="userSpaceOnUse">
<stop stop-color="#FDBC11"/>
<stop offset="0.25" stop-color="#FCB415"/>
<stop offset="0.8" stop-color="#F89E1C"/>
</linearGradient>
</defs>
</svg>
