<svg width="250" height="38" viewBox="0 0 250 38" fill="none" xmlns="http://www.w3.org/2000/svg">
<path d="M223.438 27.5683L227.797 34.8116C229.148 36.9824 231.374 37.9676 234.147 37.9676H245.362L232.233 22.0582L230.371 20.9976L225.455 22.6014L222.965 26.2056L223.438 27.5683Z" fill="url(#paint0_linear)"/>
<path d="M232.234 22.0581L229.494 18.7358L222.25 22.6321L223.018 26.5649L223.439 27.5681C223.274 24.9027 227.851 21.8081 232.234 22.0581Z" fill="url(#paint1_linear)"/>
<path d="M223.439 27.568L219.519 21.0878C219.047 20.3527 218.918 19.7095 218.918 18.9601C218.918 18.1359 219.269 17.6839 220.619 16.9682C222.191 16.2155 225.356 15.8882 228.619 15.8882C233.921 15.8882 235.191 17.5897 235.733 19.4258C235.733 19.4258 234.984 19.1283 233.223 19.1283C227.638 19.1283 223.173 21.8395 223.173 25.9447C223.173 26.8062 223.439 27.568 223.439 27.568Z" fill="url(#paint2_linear)"/>
<path d="M206.605 0H211.877C214.1 0 215.012 0.909469 215.912 1.80177C216.941 2.73753 220.063 6.96291 226.663 15.2099H219.52C216.599 15.2099 215.675 14.7123 214.545 12.9895L206.605 0Z" fill="url(#paint3_linear)"/>
<path d="M248.647 36.2549L249.029 37.6258H249.036L249.424 36.2549H249.748L250 37.9714H249.74L249.562 36.5709H249.556L249.156 37.9714H248.878L248.488 36.5765H248.484L248.306 37.9714H248.059L248.309 36.2549H248.647ZM247.839 36.2549V36.4755H247.334V37.9713H247.084V36.4755H246.578V36.2549H247.839Z" fill="#334357"/>
<path d="M124.125 15.2239H124.066L121.066 23.7048H127.132L124.125 15.2239ZM129.495 30.3865L128.026 26.2205H120.171L118.699 30.3865H115.346L122.382 11.8429H126.118L133.046 30.3865H129.495ZM157.953 11.0999H161.233V14.1999H157.953V11.0999ZM157.99 16.2618H161.195V30.3865H157.99V16.2618ZM134.322 11.0985H137.604V14.1999H134.322V11.0985ZM134.36 16.2618H137.566V30.3865H134.36V16.2618ZM154.491 11.1168H151.286V30.3865H154.491V11.1168ZM144.274 23.4984V30.3865H141.059V19.8914C141.059 18.8828 140.944 16.9627 140.904 16.2646H143.493C143.773 16.2646 143.853 16.3826 143.861 16.6579C143.867 17.0751 143.889 18.408 143.889 18.408H143.962C144.215 17.797 145.127 15.9682 147.79 15.9682C148.682 15.9682 149.342 16.2562 149.45 16.2998C149.45 16.908 149.387 18.2423 149.354 18.5949C149.335 18.8266 149.234 18.9025 149.118 18.9025C149.009 18.9025 148.958 18.8772 148.898 18.8533C148.699 18.7691 148.232 18.6272 147.585 18.6272C145.874 18.6272 144.274 19.8618 144.274 23.4984ZM173.467 30.3865V21.265C173.467 19.5233 172.672 18.4615 171.181 18.4615C169.209 18.4615 167.899 20.56 167.899 23.3916V30.3865H164.693V20.0107C164.693 18.8687 164.589 17.2043 164.535 16.2646H167.111C167.402 16.2646 167.485 16.384 167.488 16.6453C167.496 16.9473 167.522 18.408 167.522 18.408H167.595C167.981 17.7437 168.968 15.9669 171.924 15.9669C174.97 15.9669 176.673 18.0499 176.673 20.3886V30.3865H173.467ZM182.339 21.8732H188.272C188.394 19.5963 187.199 18.3209 185.395 18.3209C183.507 18.3209 182.424 19.6862 182.339 21.8732ZM190.248 27.2852C190.426 27.2852 190.478 27.441 190.493 27.6012C190.547 28.2037 190.599 29.5662 190.591 29.9131C190.248 30.0227 188.525 30.6562 186.21 30.6562C181.714 30.6562 179.008 28.3302 179.008 23.3228C179.008 19.0233 181.315 15.9682 185.461 15.9682C189.532 15.9682 191.467 18.6904 191.467 22.0698C191.467 22.4673 191.424 23.1387 191.354 24.0307H182.298C182.298 26.4424 183.835 28.1729 186.675 28.1729C188.24 28.1729 189.484 27.6124 189.978 27.3736C190.077 27.3259 190.134 27.2852 190.248 27.2852ZM197.757 30.6562C201.93 30.6562 203.928 28.9496 203.928 26.4129C203.928 23.9155 202.154 22.8649 200.274 22.2441C199.735 22.0699 199.207 21.8928 198.714 21.7271C197.427 21.3015 196.76 20.7425 196.76 19.9082C196.76 19.0275 197.563 18.4109 199.232 18.4109C200.715 18.4109 201.927 19.0163 202.408 19.248C202.488 19.2846 202.559 19.3365 202.687 19.3365C202.788 19.3365 202.913 19.2733 202.93 19.0232C202.963 18.5499 203.019 17.6917 203.019 16.8672C202.63 16.6888 201.227 15.9682 198.969 15.9682C195.521 15.9682 193.401 17.7619 193.401 20.1287C193.401 22.4238 194.97 23.4717 196.697 24.0434C197.094 24.1782 197.832 24.4198 198.263 24.5659C200.065 25.1642 200.579 25.7078 200.579 26.5505C200.579 27.6503 199.408 28.1939 197.392 28.1939C195.739 28.1939 194.602 27.5871 194.146 27.3736C194.053 27.3329 193.998 27.2852 193.871 27.2852C193.633 27.2852 193.629 27.6012 193.626 27.6532C193.616 27.8049 193.541 29.2684 193.541 29.7558C193.918 29.9188 195.556 30.6562 197.757 30.6562ZM8.77878 15.2239H8.71978L5.71815 23.7048H11.7804L8.77878 15.2239ZM14.1472 30.3865L12.6766 26.2205H4.82201L3.35139 30.3865H0L7.03567 11.8415H10.7691L17.6966 30.3865H14.1472ZM66.5375 11.0985H69.8159V14.1984H66.5375V11.0985ZM66.5755 16.2618H69.778V30.3865H66.5755V16.2618ZM59.6929 23.4984V30.3865H56.4834V19.8914C56.4834 18.8814 56.3682 16.9613 56.3261 16.2618H58.9161C59.1957 16.2618 59.2785 16.3826 59.2799 16.6565C59.2884 17.0723 59.3137 18.408 59.3137 18.408H59.3853C59.6395 17.797 60.5483 15.9682 63.2128 15.9682C64.102 15.9682 64.7677 16.2548 64.8773 16.2983C64.8773 16.9065 64.8113 18.2409 64.7804 18.5949C64.7593 18.8252 64.6568 18.8996 64.543 18.8996C64.4349 18.8996 64.3801 18.8772 64.3211 18.8533C64.1188 18.7676 63.6539 18.6258 63.012 18.6258C61.2998 18.6258 59.6929 19.8618 59.6929 23.4984ZM36.0155 30.3865V21.3493C36.0155 19.7213 35.3272 18.4586 33.6656 18.4586C31.7946 18.4586 30.7159 20.5065 30.7159 23.3747V30.3865H27.512V21.3212C27.512 19.8407 26.894 18.4586 25.1747 18.4586C23.2771 18.4586 22.2152 20.5024 22.2152 23.4759V30.3865H19.0043V20.0992C19.0043 18.7704 18.8863 16.8911 18.8484 16.2618H21.4146C21.704 16.2618 21.7995 16.3573 21.8051 16.6565C21.8121 17.0315 21.8346 18.408 21.8346 18.408H21.9076C22.1029 18.0049 23.1577 15.9669 26.1018 15.9669C28.845 15.9669 29.8942 17.9347 30.1541 18.5415C30.4069 18.0078 31.6247 15.9669 34.3875 15.9669C37.2614 15.9669 39.2222 17.5091 39.2222 20.6076V30.3865H36.0155ZM44.8842 21.8704H50.8186C50.9408 19.5978 49.7497 18.3196 47.942 18.3196C46.0542 18.3196 44.9741 19.6863 44.8842 21.8704ZM52.7977 27.2852C52.9733 27.2852 53.0266 27.441 53.0407 27.6012C53.0955 28.2037 53.1474 29.5676 53.139 29.9131C52.7977 30.0227 51.0743 30.6562 48.7595 30.6562C44.2619 30.6562 41.5566 28.3274 41.5566 23.32C41.5566 19.0261 43.8616 15.9682 48.0122 15.9682C52.0785 15.9682 54.0183 18.689 54.0183 22.0698C54.0183 22.4673 53.9734 23.1387 53.9017 24.0278H44.8462C44.8462 26.4424 46.3843 28.1729 49.2202 28.1729C50.7863 28.1729 52.0336 27.6124 52.5266 27.3708C52.6249 27.3231 52.6811 27.2852 52.7977 27.2852ZM93.0143 23.2203H92.4694C88.4409 23.2203 87.6488 24.6206 87.6488 26.0434C87.6488 27.2065 88.4157 28.3078 89.9214 28.3078C91.9216 28.3078 93.0143 26.3764 93.0143 24.3439V23.2203ZM93.7869 30.3865C93.5284 30.3865 93.3135 30.3009 93.2854 29.9258C93.2545 29.4651 93.1913 28.5732 93.1913 28.5732H93.1478C92.9582 28.833 91.7895 30.6562 88.8553 30.6562C86.0447 30.6562 84.4322 28.4903 84.4322 26.1123C84.4322 22.8157 87.6333 21.1596 92.3823 21.1596H93.0143V20.6414C93.0143 19.1624 91.9623 18.3702 89.9959 18.3702C88.2261 18.3702 86.7568 18.991 86.1852 19.2817C86.1472 19.3 86.0433 19.3603 85.9478 19.3603C85.7961 19.3603 85.7104 19.2663 85.702 19.0991C85.6767 18.5682 85.6219 17.5471 85.6135 16.8995C86.1922 16.679 88.1109 15.9669 90.222 15.9669C94.419 15.9669 96.2211 17.9151 96.2211 21.0263V26.5337C96.2211 28.5423 96.4079 29.857 96.4739 30.3865H93.7869ZM82.706 27.2852C82.7902 27.2852 82.9096 27.3414 82.9377 27.5886C82.9995 28.2614 83.0248 29.3625 83.0276 29.7081C82.3871 30.0241 80.9994 30.6562 79.297 30.6562C75.0186 30.6562 72.3947 28.1728 72.3947 23.3143C72.3947 18.762 74.7278 15.9682 79.297 15.9682C80.8125 15.9682 82.2073 16.4964 83.0276 16.9178C83.0276 17.4206 82.9784 18.5597 82.9377 19.0387C82.918 19.2395 82.8211 19.3365 82.706 19.3365C82.5781 19.3365 82.5346 19.3027 82.4587 19.269C81.4263 18.7634 80.4558 18.519 79.5821 18.519C76.8586 18.519 75.7377 20.3014 75.7377 23.3143C75.7377 25.9999 76.6339 28.1054 79.5821 28.1054C80.7086 28.1054 81.7354 27.7038 82.3717 27.3976C82.543 27.3175 82.5725 27.2852 82.706 27.2852ZM107.771 30.3865V21.265C107.771 19.5219 106.976 18.46 105.487 18.46C103.514 18.46 102.202 20.5571 102.202 23.3916V30.3865H98.998V20.0107C98.998 18.8687 98.894 17.2043 98.8435 16.2618H101.415C101.709 16.2618 101.793 16.384 101.795 16.6453C101.802 16.9444 101.825 18.408 101.825 18.408H101.896C102.286 17.7423 103.272 15.9654 106.227 15.9654C109.278 15.9654 110.981 18.0499 110.981 20.3858V30.3865H107.771Z" fill="#334357"/>
<defs>
<linearGradient id="paint0_linear" x1="222.956" y1="22.1972" x2="222.956" y2="37.9277" gradientUnits="userSpaceOnUse">
<stop stop-color="#EB2023"/>
<stop offset="0.0963" stop-color="#E92026"/>
<stop offset="0.2039" stop-color="#E31E27"/>
<stop offset="0.2986" stop-color="#E01E26"/>
<stop offset="0.4043" stop-color="#D81F27"/>
<stop offset="0.5" stop-color="#CF2027"/>
<stop offset="0.6" stop-color="#C62127"/>
<stop offset="0.7" stop-color="#B92025"/>
<stop offset="0.8" stop-color="#AE1F23"/>
<stop offset="0.9" stop-color="#A01D22"/>
<stop offset="1" stop-color="#901C1C"/>
</linearGradient>
<linearGradient id="paint1_linear" x1="223.393" y1="27.5421" x2="232.134" y2="21.9447" gradientUnits="userSpaceOnUse">
<stop stop-color="#6C221F"/>
<stop offset="0.2491" stop-color="#7F2620"/>
<stop offset="0.4983" stop-color="#982B24"/>
<stop offset="0.7491" stop-color="#B53125"/>
<stop offset="1" stop-color="#CB3327"/>
</linearGradient>
<linearGradient id="paint2_linear" x1="222.707" y1="26.0343" x2="235.511" y2="18.626" gradientUnits="userSpaceOnUse">
<stop stop-color="#E7EBEE"/>
<stop offset="0.2491" stop-color="#DFE4E8"/>
<stop offset="0.4983" stop-color="#CAD1D7"/>
<stop offset="0.7491" stop-color="#A8B5BD"/>
<stop offset="1" stop-color="#93A6AD"/>
</linearGradient>
<linearGradient id="paint3_linear" x1="215.445" y1="0.00456328" x2="215.445" y2="15.2013" gradientUnits="userSpaceOnUse">
<stop stop-color="#05AEE9"/>
<stop offset="0.0963" stop-color="#00A9E0"/>
<stop offset="0.2039" stop-color="#07A3DC"/>
<stop offset="0.2986" stop-color="#089DD5"/>
<stop offset="0.4043" stop-color="#0A92CC"/>
<stop offset="0.5" stop-color="#0F87C3"/>
<stop offset="0.6" stop-color="#127CB8"/>
<stop offset="0.7" stop-color="#0E70AD"/>
<stop offset="0.8" stop-color="#0F63A3"/>
<stop offset="0.9" stop-color="#135393"/>
<stop offset="1" stop-color="#184485"/>
</linearGradient>
</defs>
</svg>
