<svg width="200" height="37" viewBox="0 0 200 37" fill="none" xmlns="http://www.w3.org/2000/svg">
<path d="M198.503 33.9905C197.666 33.9905 197.005 34.6542 197.005 35.4854C197.005 36.3171 197.666 36.9795 198.503 36.9795C199.337 36.9795 200 36.3171 200 35.4854C200.001 35.2886 199.963 35.0936 199.888 34.9116C199.813 34.7296 199.703 34.5643 199.563 34.4253C199.424 34.2862 199.259 34.1762 199.077 34.1015C198.895 34.0268 198.7 33.989 198.503 33.9902V33.9905ZM198.503 36.7508C197.817 36.7508 197.232 36.191 197.232 35.4854C197.232 34.779 197.817 34.2221 198.503 34.2221C199.186 34.2221 199.769 34.779 199.769 35.4854C199.769 36.1907 199.186 36.7508 198.503 36.7508Z" fill="#0033A0"/>
<path d="M199.235 35.0894C199.235 34.7374 198.95 34.6573 198.652 34.6573H197.942V36.2925H198.172V35.5373H198.449L198.937 36.2925H199.213L198.72 35.5373C199.011 35.5288 199.235 35.4127 199.235 35.0896V35.0894ZM198.449 35.3099H198.172V34.8885H198.607C198.785 34.8885 199.006 34.9181 199.006 35.0854C199.006 35.346 198.648 35.3101 198.449 35.3101V35.3099ZM188.909 37C189.21 36.1814 189.468 35.3475 189.681 34.5018C190.107 32.7353 190.321 30.9245 190.32 29.1076C190.32 28.0447 190.246 26.9932 190.105 25.9583C190 27.4662 189.737 28.7876 189.737 28.7876C189.799 28.9867 189.909 29.3138 189.959 29.5156L189.959 29.5165C189.8 31.0461 189.509 32.5593 189.091 34.0392C188.893 33.3088 188.627 32.6057 188.61 32.5603L188.609 32.5578C188.075 33.9796 187.278 35.6537 186.554 37H188.909Z" fill="#0033A0"/>
<path d="M183.971 37H185.333C189.209 31.274 189.404 26.1993 189.404 25.227C189.404 23.3902 189.096 21.7026 188.58 20.3663C188.58 20.3663 187.775 18.2895 186.523 16.4414C186.66 16.8544 186.922 17.6916 187.068 18.4394C187.077 18.4893 187.085 18.5333 187.092 18.5741C187.339 18.9855 188.452 20.9477 188.601 23.1054L188.601 23.1119C188.601 23.1119 187.815 22.0105 187.231 21.3146C187.211 22.5005 187.057 23.6875 186.808 24.8338C186.808 24.8338 187.973 26.183 188.495 27.0532C188.495 27.0532 188.14 28.9511 187.38 30.7698C186.607 29.6453 185.619 28.5531 185.619 28.5531C185.041 29.9815 184.31 31.4189 183.497 32.7481C183.497 32.7481 184.973 34.4755 185.297 34.9681C184.864 35.6979 184.441 36.3334 183.971 37Z" fill="#0033A0"/>
<path d="M179.119 37C181.691 34.1229 183.883 30.7385 185.2 27.1144C186.343 23.9705 186.965 20.1309 185.953 16.7155C185.885 16.4856 185.807 16.2584 185.72 16.0345C185.397 15.1992 184.978 14.4707 184.521 13.8985C183.29 12.5212 181.896 11.2979 180.371 10.2551C180.592 10.5382 180.795 10.8353 180.978 11.1444C180.978 11.1444 182.837 12.5232 183.916 13.9241C182.532 12.938 181.748 12.5388 181.646 12.4883C181.643 12.4865 181.638 12.4847 181.635 12.4827C182.161 13.7788 182.319 14.8521 182.319 14.8539C182.319 14.8539 183.962 15.7109 185.44 16.9914C185.645 17.9382 185.73 18.9082 185.716 19.8794C184.225 18.5683 182.501 17.5443 182.501 17.5443C182.469 18.6546 182.316 19.7791 182.071 20.8722C182.071 20.8722 183.7 21.9035 185.287 23.3493C185.287 23.3493 184.832 25.3981 184.096 27.0092C182.573 25.5916 181.089 24.4883 180.972 24.4022C180.972 24.4022 180.216 26.3735 178.991 28.3519C180.516 29.678 181.949 31.0531 181.949 31.0531C181.073 32.4188 180.083 33.719 179.014 34.9348L179.014 34.9359L176.287 32.2203C175.178 33.5905 173.97 34.8779 172.674 36.0722C172.735 36.1412 173.285 36.7506 173.51 37H179.119Z" fill="#0033A0"/>
<path d="M179.819 10.5583C179.643 10.3172 179.443 10.0711 179.214 9.85236C179.013 9.66078 178.817 9.4879 178.611 9.3326C176.342 7.62159 172.166 6.76631 172.166 6.76631C172.416 6.90005 172.66 7.04406 172.898 7.19796C172.918 7.20307 174.602 7.62515 176.095 8.35561C176.095 8.35561 174.737 8.04701 173.866 7.92686C174.231 8.24968 174.566 8.60482 174.868 8.98795C174.868 8.98795 177.639 9.49347 178.856 10.1605C178.856 10.1605 179.438 10.7597 179.914 11.8108C178.015 11.0398 175.864 10.6378 175.864 10.6378C176.15 11.2775 176.354 11.9625 176.479 12.6754C176.479 12.6754 178.844 13.2539 180.621 14.1072C180.774 14.9509 180.83 15.8231 180.798 16.7055C178.699 15.6531 176.616 14.9923 176.616 14.9923C176.574 15.9021 176.428 16.8448 176.182 17.8078C176.182 17.8078 179.048 19.0871 180.335 19.8641C180.051 21.0015 179.652 22.1156 179.172 23.1882C177.211 21.9142 175.135 20.7812 175.135 20.7812C174.614 22.0332 173.332 24.0838 173.332 24.0838L173.333 24.0847C173.365 24.1069 175.5 25.5721 177.137 26.8723C176.324 28.105 175.406 29.2887 174.408 30.4143C174.064 30.085 170.917 27.2917 170.917 27.2917C169.968 28.3929 168.91 29.4656 167.752 30.4924C167.752 30.4924 167.752 30.4928 167.753 30.493L170.786 33.926C170.787 33.926 170.787 33.926 170.787 33.9264L170.787 33.9269C168.819 35.5466 166.858 36.7744 166.858 36.7744L164.327 33.181C164.327 33.181 162.546 34.5363 159.54 35.9587V37H169.411C180.429 28.6637 184.339 16.7433 179.819 10.5583Z" fill="#0033A0"/>
<path d="M174.23 9.30789C171.494 5.62466 167.21 6.15087 165.933 6.32953C164.53 6.52622 163.469 6.83327 163.469 6.83327C163.783 6.86263 164.209 6.9187 164.517 6.97989C164.744 6.92649 166.714 6.47749 168.145 6.66506L168.149 6.66528C167.097 6.77942 165.662 7.21329 165.513 7.25913C165.511 7.25957 165.511 7.26046 165.509 7.26113L165.513 7.26291C165.565 7.27804 165.979 7.40353 166.509 7.7148C166.664 7.67319 168.613 7.15633 170.471 7.11984V7.12029C170.471 7.12029 171.158 7.42489 171.82 7.879C169.419 7.86988 167.431 8.3309 167.377 8.34358C167.683 8.61376 167.955 8.91931 168.189 9.25382C170.821 8.85955 173.092 9.03043 173.092 9.03043C173.092 9.03043 173.401 9.40712 173.54 9.60959C173.715 9.86457 173.895 10.1814 174.034 10.4598C171.347 10.1456 168.778 10.3703 168.776 10.3703C168.953 10.8278 169.073 11.317 169.139 11.8315C169.436 11.8292 171.711 11.8335 174.609 12.3552C174.702 13.0196 174.711 13.7314 174.638 14.4825C174.145 14.3544 171.766 13.7601 169.17 13.5024C169.118 14.1512 168.994 14.8267 168.804 15.5194C169.095 15.5879 172.303 16.3524 174.099 17.0802C174.064 17.1939 174.028 17.3072 173.99 17.4202C173.733 18.1916 173.411 18.9661 173.031 19.7381C171.584 19.0259 168.037 17.6391 168.037 17.6391C167.682 18.4325 167.248 19.2357 166.742 20.0374C166.742 20.0374 169.783 21.7731 171.248 22.7341C170.55 23.7273 169.788 24.6734 168.965 25.566C167.903 24.6131 165.246 22.5541 165.045 22.3988C164.188 23.4192 163.109 24.4923 162.786 24.8095L165.974 28.4661C165.945 28.4925 165.914 28.5195 165.883 28.5466C165.193 29.1187 164.45 29.6571 163.821 30.0887C163.276 30.4592 162.826 30.7462 162.67 30.8464C162.633 30.7901 160.546 27.4564 160.232 26.9259C160.004 27.0939 159.773 27.258 159.54 27.4183V34.2715C159.915 34.0906 160.291 33.9033 160.666 33.7041C162.464 32.8188 164.209 31.6954 165.833 30.3976C166.966 29.4981 168.038 28.5244 169.042 27.4826C170.323 26.1694 171.434 24.7937 172.362 23.3998C175.88 18.2085 176.822 12.7958 174.23 9.30789Z" fill="#0033A0"/>
<path d="M167.131 9.03005C165.828 7.53442 163.659 7.02223 161.139 7.38245C161.07 7.39269 160.999 7.40248 160.935 7.41316C160.739 7.44663 160.545 7.48499 160.352 7.52819C159.962 7.61852 159.696 7.70752 159.54 7.76782V8.52209C159.787 8.32682 160.041 8.14112 160.303 7.9654C160.805 7.85793 161.293 7.78962 161.763 7.7587C161.035 8.1741 160.195 8.73769 159.54 9.25789V9.83861L159.563 9.85196C159.563 9.85196 161.41 8.3897 162.878 7.75959C163.219 7.78323 163.559 7.83307 163.893 7.90866C161.7 8.83892 160.081 9.9928 159.969 10.0738C160.128 10.1708 160.281 10.2786 160.426 10.3964C160.454 10.3786 162.58 9.04874 164.92 8.25175C165.238 8.39682 165.545 8.57749 165.81 8.78197C163.262 9.49796 160.813 10.7764 160.813 10.7764C160.951 10.9375 161.073 11.1116 161.178 11.2964L161.221 11.2791C163.829 10.163 166.6 9.59074 166.6 9.59074C166.822 9.89606 167.001 10.2304 167.132 10.5844C167.132 10.5844 164.645 10.8688 161.446 11.8949C161.587 12.3368 161.626 12.6692 161.626 12.6721C161.626 12.6721 164.642 11.9975 167.423 11.9227C167.462 12.3695 167.448 12.871 167.384 13.3854C165.737 13.2987 161.813 13.5076 161.659 13.5196C161.659 13.5196 161.645 14.0848 161.498 14.6165C161.498 14.6165 164.365 14.7086 166.972 15.195C166.766 15.8279 166.511 16.4436 166.208 17.0364C164.47 16.5144 161.833 15.8805 161.139 15.7212C160.95 16.1831 160.721 16.6275 160.455 17.0493C160.455 17.0493 163.677 18.4555 164.914 19.1435H164.916L164.916 19.1448C164.379 19.9485 163.315 21.0734 163.315 21.0734C163.024 20.8559 162.732 20.6397 162.439 20.4251C161.585 19.8272 160.317 18.9394 159.546 18.403L159.54 18.3985V21.0634L161.211 23.0156C160.675 23.4476 160.118 23.8518 159.54 24.2264V25.8164L159.601 25.7764C160.386 25.2419 161.138 24.6615 161.854 24.0382C167.62 19.0209 169.983 12.3014 167.131 9.03027" fill="#0033A0"/>
<path d="M159.54 16.6668C161.013 14.5695 161.226 12.1626 159.933 10.9875C159.811 10.8772 159.679 10.7826 159.54 10.701V16.6668ZM167.582 5.39173C180.65 5.39173 191.282 16.0634 191.282 29.1805C191.282 31.8409 190.832 34.488 189.961 37H195.779V0.760429H159.539V6.80481L159.567 6.79457C162.137 5.86415 164.849 5.38934 167.582 5.3915V5.39173ZM144.376 12.315C143.491 11.5273 142.362 10.9161 140.987 10.482C139.612 10.0482 137.961 9.831 136.031 9.831H126.262V27.9201H136.031C139.504 27.9201 142.193 27.1685 144.099 25.6648C146.004 24.1619 146.957 21.8988 146.957 18.8758C146.957 17.5252 146.748 16.2908 146.33 15.1734C145.911 14.0556 145.26 13.1031 144.376 12.315ZM141.108 21.1428C140.907 21.754 140.581 22.2442 140.131 22.6137C139.681 22.9844 139.097 23.2494 138.382 23.4098C137.667 23.5709 136.802 23.651 135.79 23.651H131.521V14.0998H135.79C136.834 14.0998 137.715 14.1888 138.431 14.3651C139.146 14.5426 139.725 14.8234 140.167 15.2094C140.609 15.5953 140.927 16.0896 141.12 16.6926C141.313 17.296 141.409 18.0234 141.409 18.8758C141.409 19.776 141.308 20.5316 141.108 21.143L141.108 21.1428ZM105.496 20.4915H115.385V16.946H105.496V13.9557H117.242L117.146 9.83056H100.238V27.9201H117.628L117.724 23.8439H105.496L105.496 20.4915ZM73.5384 9.83078L73.3943 14.0998H80.3162V27.9199H85.5983V14.0996H92.5202L92.4 9.83078H73.5384ZM60.0322 27.9201H65.3866V9.83078H60.0322V27.9201ZM45.1746 18.827L45.2231 20.7568L45.1746 20.8048L43.7996 19.406L34.0079 9.83078H29.6663V27.9201H34.4418V18.4176L34.3939 16.4637L34.4658 16.4396L35.8409 17.8142L46.5012 27.9201H49.9506V9.831H45.1746V18.827ZM15.1225 20.0334C15.1225 21.4 14.7365 22.4173 13.9649 23.0845C13.1932 23.752 11.9546 24.0853 10.2505 24.0853C8.5299 24.0853 7.26767 23.752 6.46379 23.0845C5.65946 22.417 5.25762 21.4 5.25762 20.0334V9.831H0V19.9854C0 22.7828 0.880202 24.8692 2.64105 26.2442C4.40168 27.6188 6.93793 28.3061 10.2505 28.3061C13.5786 28.3061 16.0953 27.6228 17.7998 26.2562C19.5039 24.8894 20.3566 22.7986 20.3566 19.9854V9.831H15.1225V20.0334Z" fill="#0033A0"/>
</svg>
