<svg width="160" height="63" viewBox="0 0 160 63" fill="none" xmlns="http://www.w3.org/2000/svg">
<path d="M57.1497 57.3567L59.8883 51.5173L62.6275 57.3567H57.1497ZM51.9783 62.5643H54.6974L56.0868 59.5568H63.6365L65.0063 62.5643H67.7087L61.3479 49.4634H58.4279L51.9783 62.5643ZM71.1878 49.4636H73.7461V62.5646H71.1878V49.4636ZM81.1891 55.2861V51.591H86.1253C88.2164 51.591 89.2807 51.8958 89.2807 53.429C89.2807 54.9791 88.2164 55.2861 86.1253 55.2861H81.1891ZM78.6298 62.5643H81.1887V57.4118H85.243L89.0446 62.5646H92.198L88.1804 57.231C90.1086 57.1246 91.8374 55.7899 91.8374 53.3758C91.8374 50.167 89.6037 49.4641 86.5048 49.4641H78.6296V62.5653H78.6298V62.5643ZM95.0651 49.4636H97.6232L100.148 58.4732H100.181L102.688 49.4636H105.139L107.681 58.4541H107.715L110.221 49.4636H112.726L108.906 62.5646H106.455L103.968 53.268H103.932L101.426 62.5646H98.9238L95.0651 49.4636ZM119.341 57.3567L122.081 51.5173L124.819 57.3567H119.341ZM114.17 62.5643H116.891L118.278 59.5568H125.827L127.197 62.5643H129.902L123.54 49.4634H120.62L114.17 62.5643ZM136.067 57.3178L129.671 49.4631H132.805L137.345 55.0128L141.87 49.4631H145.024L138.626 57.3178V62.5641H136.067L136.067 57.3178ZM157.366 53.4462C156.951 52.2738 155.89 51.2656 152.771 51.2656C151.04 51.2656 149.294 51.6978 149.294 52.904C149.294 53.4643 149.618 54.0587 152.231 54.3833L155.331 54.8513C158.267 55.303 160 56.4365 160 58.6356C160 61.7357 157.043 62.8892 153.546 62.8892C147.924 62.8892 146.554 60.1133 146.247 59.122L148.716 58.3473C149.184 59.3023 150.157 60.6915 153.618 60.6915C155.708 60.6915 157.437 60.0059 157.437 58.8699C157.437 58.0231 156.465 57.4648 154.591 57.2305L151.455 56.7986C148.428 56.3828 146.732 55.0671 146.732 53.0662C146.732 49.139 151.834 49.139 152.842 49.139C158.483 49.139 159.455 51.7524 159.778 52.6521L157.366 53.4462ZM4.49944 10.7301H9.83729V39.332C9.83729 43.7794 6.59103 46.764 2.08991 46.764H0V41.7398H1.51508C3.34715 41.7398 4.49944 40.9 4.49944 38.9124V10.7301ZM4.49944 0H9.83729V5.3388H4.49944V0ZM18.6208 21.6157C18.7245 17.5863 21.0804 15.4411 24.222 15.4411C27.3633 15.4411 29.6652 17.5863 29.8203 21.6157H18.6208ZM35.1586 26.0099V21.6157C35.1586 14.7601 30.08 10.4162 24.2224 10.4162C19.0902 10.4162 13.2829 13.764 13.2829 24.076C13.2829 34.9611 19.6145 37.5788 25.0589 37.5788C28.6153 37.5788 32.0185 36.3202 34.6334 33.2857L30.7641 29.9906C29.1915 31.6113 26.9948 32.5539 24.9537 32.5539C21.2896 32.5539 18.621 30.3545 18.621 26.0099H35.1586ZM39.3906 2.66928H44.7285V10.7301H48.5985V14.8123H44.7285V30.2498C44.7285 31.7167 45.3031 32.2396 46.6078 32.2396H48.5985V37.2638H45.8259C42.1086 37.2638 39.3906 34.9046 39.3906 30.7214V14.8123H36.7171V10.7301H39.3906V2.66928ZM66.3434 20.726C70.5294 20.726 72.4099 23.3938 72.4099 26.3243C72.4099 29.2566 70.529 31.925 66.3434 31.925H57.6539V20.726H66.3434ZM51.9991 37.2638H67.7015C73.3027 37.2638 78.0633 33.1288 78.0633 26.6926C78.0633 22.9242 76.0755 19.0516 71.994 18.107V18.004C76.3379 16.067 77.4904 13.084 77.4904 9.99733C77.4899 4.13546 73.718 0 66.4455 0H51.9991V37.2638ZM65.8168 5.0261C69.8997 5.0261 71.8356 7.48476 71.8356 10.3637C71.8356 13.2925 69.8997 15.7032 65.8168 15.7032H57.6539V5.0261H65.8168ZM81.1317 0H86.4695V30.4073C86.4695 31.6108 87.1502 32.2396 88.4628 32.2396H90.2918V37.2638H87.9369C84.0614 37.2638 81.1317 35.5901 81.1317 30.8252V0ZM92.5413 10.7301H97.8798V26.5337C97.8798 30.1473 100.129 32.2396 103.169 32.2396C106.151 32.2396 108.398 30.1475 108.398 26.5337V10.7301H113.738V37.2638H108.398V34.4361H108.298C106.621 36.5308 104.213 37.5786 101.438 37.5786C97.2544 37.5786 92.5413 34.3841 92.5413 28.3677V10.7301ZM121.945 21.6157C122.054 17.5863 124.404 15.4411 127.545 15.4411C130.685 15.4411 132.987 17.5863 133.148 21.6157H121.945ZM138.485 26.0099V21.6157C138.485 14.7601 133.408 10.4162 127.545 10.4162C122.416 10.4162 116.605 13.764 116.605 24.076C116.605 34.9611 122.94 37.5788 128.381 37.5788C131.944 37.5788 135.343 36.3202 137.961 33.2857L134.086 29.9908C132.516 31.6116 130.321 32.5544 128.279 32.5544C124.616 32.5544 121.945 30.3553 121.945 26.0101L138.485 26.0099Z" fill="#003876"/>
</svg>
