<svg width="120" height="120" viewBox="0 0 120 120" fill="none" xmlns="http://www.w3.org/2000/svg">
<path d="M29.7786 71.2981C29.7786 79.1251 35.9646 81.2566 39.3261 81.8326C39.5823 81.8782 39.8451 81.8716 40.0987 81.8129C40.3522 81.7543 40.5913 81.6449 40.8016 81.4915C41.0118 81.338 41.1888 81.1436 41.3218 80.92C41.455 80.6963 41.5414 80.4481 41.5761 80.1901C42.5931 72.2401 49.4826 60.3241 52.1991 57.6166C53.3569 56.3246 54.8275 55.3519 56.4696 54.7921C56.6544 54.7444 56.8209 54.6427 56.9478 54.5C57.0747 54.3574 57.1563 54.1802 57.1821 53.9911L57.6816 50.5021C56.2056 49.8286 55.1316 48.3916 55.1316 45.8896C55.1316 40.0276 58.0641 34.1641 61.9731 34.1641C64.8259 34.3244 67.6477 34.84 70.3731 35.6986C71.254 35.9554 72.0156 36.5161 72.5226 37.2811L74.8191 40.7206C75.3592 41.5316 76.1814 42.1133 77.1261 42.3526L79.6266 42.9781V45.8896C79.6266 46.1489 79.7296 46.3978 79.9131 46.5811C80.0964 46.7645 80.3452 46.8676 80.6046 46.8676H83.3901C83.2324 48.2009 82.6968 49.4614 81.8463 50.5003C80.9959 51.5392 79.866 52.3132 78.5901 52.7311C75.5797 52.7632 72.5943 53.2813 69.7491 54.2656C69.6268 54.3119 69.5155 54.383 69.4221 54.4742C69.3285 54.5656 69.2547 54.6751 69.2053 54.7961C69.156 54.9172 69.132 55.0469 69.135 55.1776C69.138 55.3082 69.1678 55.4369 69.2226 55.5556C70.8637 58.5935 71.7487 61.9822 71.8026 65.4346C71.7262 69.058 70.3372 72.5306 67.8936 75.2071V86.9341C67.8936 86.9341 71.7426 87.9106 71.7426 90.8431H44.4426C42.4926 90.8431 40.5336 89.4256 40.5336 88.8931C31.7391 88.8931 27.8301 83.0296 27.8301 79.1206C27.9475 76.4087 28.6102 73.7482 29.7786 71.2981Z" fill="white"/>
<path d="M63.9383 34.2991C63.2855 34.2151 62.6284 34.1701 61.9703 34.1641C58.0613 34.1641 55.1288 40.0276 55.1288 45.8896C55.1288 48.3916 56.2043 49.8286 57.6788 50.5021L57.1793 53.9911C57.1535 54.1802 57.0719 54.3574 56.945 54.5C56.8181 54.6427 56.6516 54.7444 56.4668 54.7921C54.8264 55.3526 53.3575 56.3252 52.2008 57.6166C49.4843 60.3241 41.3183 74.0641 40.3013 82.0186C40.2338 82.5496 31.3418 77.1136 30.9023 77.4181C31.2878 77.5216 35.3228 83.0926 36.7403 84.0181C41.8013 87.3181 44.7728 83.0311 45.4598 80.6401C45.503 80.4923 45.5366 80.342 45.5603 80.1901C46.5758 72.2401 51.9668 64.8376 54.6833 62.1301C58.2458 58.9426 60.8708 58.2676 61.9208 53.8171L63.1508 49.8301C61.6748 49.1566 59.1008 48.3676 58.0628 45.8896C55.9763 40.9501 60.5213 35.1661 63.9383 34.2991Z" fill="#E5E5E5"/>
<path d="M26.9473 78.1078C26.9473 82.0243 30.8638 87.8984 39.6763 87.8984C39.6763 88.4369 41.6338 89.8574 43.5927 89.8574H46.5297C45.3162 89.8574 44.1028 89.3114 43.3558 88.7684C42.6241 88.2344 41.7628 87.906 40.8613 87.8174C33.2803 87.0989 29.8843 81.7543 29.8843 78.1078C29.8913 77.242 29.9762 76.3785 30.1378 75.5278C29.2889 73.9105 28.8652 72.1039 28.9063 70.2778C27.7337 72.7297 27.0674 75.3927 26.9473 78.1078Z" fill="#E5E5E5"/>
<path d="M76.2595 51.9843C76.2595 51.9843 72.5095 51.9108 69.3101 52.0098C68.8904 52.0237 68.4803 52.1394 68.115 52.3468C67.7499 52.5543 67.4405 52.8472 67.2135 53.2005C66.9864 53.5537 66.8486 53.9569 66.8117 54.3753C66.7748 54.7936 66.8399 55.2147 67.0016 55.6023C68.1491 58.3698 69.4511 62.3058 68.9786 65.0523C68.1791 69.7158 64.8791 71.2158 64.5791 73.5153C64.2791 75.8148 65.0786 90.8403 65.0786 90.8403H71.74C71.74 90.8403 71.5015 87.1458 67.8911 86.9313V75.2073C67.8911 75.2073 72.787 70.0683 71.74 63.2178C70.693 56.3673 68.4566 56.4273 69.2036 54.7953C69.9506 53.1633 76.2595 51.9843 76.2595 51.9843Z" fill="#B2B2B2"/>
<path d="M78.8872 53.6579C84.3127 51.8505 84.5527 46.2945 84.4957 44.6355C84.4808 44.2122 84.3287 43.8054 84.0622 43.4763C83.7956 43.1472 83.4292 42.9138 83.0182 42.8115L77.3497 41.4C76.6427 41.2246 76.0265 40.7919 75.6217 40.1865L73.3237 36.7365C72.6889 35.7826 71.7382 35.0832 70.6387 34.761C67.8241 33.879 64.9108 33.351 61.9657 33.189C57.2887 33.186 54.1492 39.75 54.1492 45.8895C54.0736 46.8624 54.2491 47.8383 54.6589 48.724C55.0685 49.6096 55.6988 50.3752 56.4892 50.9475C56.5312 50.9745 56.5762 50.9925 56.6182 51.018L56.2132 53.8529C54.4034 54.4504 52.781 55.5098 51.5062 56.9264C48.4717 59.9489 41.6272 72.0764 40.6057 80.0669C40.5901 80.191 40.5491 80.3105 40.4854 80.4182C40.4218 80.5258 40.3366 80.6191 40.2352 80.6924C40.1305 80.7712 40.0106 80.8276 39.8831 80.858C39.7556 80.8885 39.6232 80.8924 39.4942 80.8694C36.2302 80.3099 30.7567 78.3194 30.7567 71.2979C30.7592 71.0759 30.686 70.8596 30.5492 70.6847C30.4124 70.51 30.22 70.387 30.0038 70.3361C29.7877 70.2853 29.5607 70.3096 29.3602 70.4051C29.1598 70.5005 28.9979 70.6615 28.9012 70.8614C27.6625 73.4431 26.9638 76.2503 26.8477 79.1114C26.8477 83.4839 30.9217 89.6039 39.9562 89.8499C40.5362 90.4574 41.231 90.9436 42.0004 91.2805C42.7697 91.6172 43.5985 91.7978 44.4382 91.8119H71.7382C71.9971 91.8115 72.2452 91.7086 72.4282 91.5254C72.6113 91.3424 72.7142 91.0943 72.7147 90.8354C72.7147 88.0559 70.1647 86.7224 68.8672 86.2214V75.5714C69.4711 74.8807 70.0117 74.1373 70.4827 73.3499C71.7592 71.2199 72.4057 68.6069 72.6217 67.2074C72.9217 65.6309 70.7872 64.4339 70.7917 66.2504C70.6162 68.5949 70.4467 69.8129 68.8087 72.3404C68.3483 73.1188 67.8089 73.8476 67.1992 74.5154C67.0157 74.6989 66.9127 74.9476 66.9127 75.2069V86.9339C66.913 87.1511 66.9854 87.3619 67.1188 87.5333C67.2521 87.7046 67.4387 87.8269 67.6492 87.8804C67.6732 87.8804 69.7987 88.4564 70.5217 89.8649H64.5937C64.1515 88.9639 63.5107 88.1747 62.7196 87.5569C61.9285 86.939 61.0076 86.5087 60.0262 86.2979C60.6941 85.6058 61.2155 84.7862 61.5593 83.888C61.9031 82.9898 62.0623 82.0315 62.0272 81.0704C62.05 79.5643 61.7213 78.0736 61.0675 76.7165C60.4138 75.3593 59.4527 74.1734 58.2607 73.2524C57.2119 72.5177 56 72.049 54.7298 71.887C53.4595 71.725 52.1689 71.8744 50.9692 72.3224C50.8472 72.3629 50.7344 72.427 50.6374 72.5111C50.5402 72.5951 50.4605 72.6976 50.4029 72.8123C50.3453 72.9272 50.3108 73.0523 50.3017 73.1804C50.2924 73.3085 50.3084 73.4372 50.3489 73.5592C50.3894 73.6811 50.4535 73.7939 50.5376 73.891C50.6216 73.9882 50.7239 74.0678 50.8388 74.1254C50.9537 74.183 51.0787 74.2174 51.2069 74.2267C51.335 74.236 51.4637 74.2199 51.5857 74.1794C52.4909 73.8269 53.4691 73.7024 54.4337 73.817C55.3984 73.9316 56.3201 74.2817 57.1177 74.8364C58.0603 75.5749 58.8179 76.5227 59.3309 77.6047C59.8438 78.6868 60.0977 79.8733 60.0727 81.0704C60.0727 85.1459 56.9362 85.9784 56.9047 85.9859C56.6729 86.0432 56.4703 86.1833 56.3348 86.3798C56.1994 86.5763 56.1406 86.8156 56.1695 87.0526C56.1986 87.2894 56.3134 87.5075 56.4922 87.6656C56.671 87.8236 56.9015 87.9107 57.1402 87.9104C60.0727 87.9104 61.5622 88.9709 62.3002 89.8604H49.3237C48.8065 89.8604 48.3106 89.6549 47.9449 89.2892C47.5792 88.9235 47.3737 88.4276 47.3737 87.9104C47.3545 87.665 47.2433 87.436 47.0626 87.2689C46.8818 87.1018 46.6448 87.0089 46.3987 87.0089C46.1525 87.0089 45.9155 87.1018 45.7348 87.2689C45.554 87.436 45.4429 87.665 45.4237 87.9104C45.4274 88.5973 45.6149 89.2705 45.9667 89.8604H44.4367C43.337 89.8186 42.2878 89.3881 41.4757 88.6454C41.4227 88.4341 41.3008 88.2464 41.129 88.1125C40.9571 87.9785 40.7455 87.9058 40.5277 87.9059C32.5282 87.9059 28.8007 82.6559 28.8007 79.1114C28.8229 77.7952 29.0155 76.4873 29.3737 75.2204C31.1482 80.7704 36.5737 82.3484 39.1612 82.7909C39.5504 82.8578 39.9491 82.8451 40.3333 82.7536C40.7173 82.6621 41.0789 82.4936 41.3962 82.2584C41.7104 82.0289 41.9744 81.7376 42.1717 81.4022C42.3691 81.0668 42.4957 80.6945 42.5437 80.3084C43.5322 72.5639 50.3122 60.8684 52.8862 58.3019C53.9248 57.1312 55.2457 56.2457 56.7232 55.7294C57.0911 55.6321 57.4223 55.4285 57.6755 55.1441C57.9287 54.8597 58.0925 54.5072 58.1467 54.1304L58.4827 51.7725C60.0347 52.0758 61.6414 51.9253 63.1102 51.339C63.6578 51.1237 64.1275 50.7477 64.4573 50.2603C64.787 49.7731 64.9618 49.1974 64.9582 48.609V41.982C64.9687 41.8476 64.9514 41.7123 64.9072 41.5849C64.8629 41.4574 64.7929 41.3406 64.7012 41.2414C64.6097 41.1424 64.4986 41.0634 64.3751 41.0094C64.2515 40.9554 64.118 40.9275 63.9832 40.9275C63.8483 40.9275 63.7148 40.9554 63.5912 41.0094C63.4678 41.0634 63.3566 41.1424 63.2651 41.2414C63.1735 41.3406 63.1034 41.4574 63.0592 41.5849C63.0149 41.7123 62.9977 41.8476 63.0082 41.982V48.615C63.0083 48.811 62.9503 49.0026 62.8414 49.1656C62.7323 49.3285 62.5774 49.4553 62.3962 49.53C61.6361 49.8735 60.8063 50.0344 59.9729 50.0004C59.1395 49.9663 58.3256 49.7379 57.5962 49.3335C57.0764 48.9315 56.6674 48.4039 56.4077 47.8005C56.1479 47.1969 56.0459 46.5373 56.1112 45.8835C56.1112 40.2585 58.9057 35.1345 61.9747 35.1345C64.7365 35.2989 67.4675 35.8027 70.1062 36.6345C70.7593 36.8304 71.3231 37.2492 71.6992 37.818L73.9987 41.268C74.6717 42.2803 75.6989 43.0042 76.8787 43.2975L78.6382 43.7385V45.888C78.6382 46.4052 78.8437 46.9011 79.2094 47.2668C79.5751 47.6325 80.071 47.838 80.5882 47.838H82.1272C81.8672 48.7405 81.3937 49.5672 80.7467 50.2482C80.0998 50.929 79.2983 51.4443 78.4102 51.75C75.3326 51.7918 72.2822 52.3339 69.3787 53.355C69.133 53.4535 68.9098 53.6005 68.7224 53.7874C68.5351 53.9743 68.3873 54.1971 68.2882 54.4425C68.1902 54.6846 68.143 54.9442 68.1494 55.2054C68.1559 55.4665 68.2159 55.7234 68.3257 55.9604L68.5747 56.5005C70.0265 59.2553 70.798 62.3176 70.8247 65.4314C70.8247 65.9714 70.5322 69.2264 71.5567 69.3464C72.5122 69.4589 72.7792 65.9714 72.7792 65.4314C72.7529 62.0356 71.9222 58.6942 70.3552 55.6814L70.1107 55.1519C72.8408 54.2287 75.6994 53.7413 78.5812 53.7074C78.6862 53.7076 78.7904 53.691 78.8902 53.6579H78.8872ZM82.5127 45.8895H80.5942V44.229L82.5442 44.718C82.5562 45.1087 82.5457 45.4999 82.5127 45.8895Z" fill="black"/>
<path d="M60.4507 88.9367L69.9517 88.9742L69.9127 98.4752C69.9287 99.6008 70.3859 100.675 71.186 101.467C71.9861 102.259 73.0652 102.705 74.191 102.71C75.3167 102.714 76.3993 102.277 77.2058 101.491C78.0122 100.706 78.4781 99.6351 78.5032 98.5097L78.6142 70.9096C78.5981 69.7839 78.1409 68.7096 77.3408 67.9176C76.5407 67.1256 75.4616 66.6793 74.3359 66.6748C73.2101 66.6703 72.1276 67.1079 71.321 67.8934C70.5146 68.679 70.0487 69.7497 70.0237 70.8751L69.9847 80.3762L60.4852 80.3372C59.3458 80.3325 58.2512 80.7809 57.4424 81.5832C56.6335 82.3857 56.1764 83.4765 56.1719 84.6159C56.1673 85.7553 56.6156 86.8499 57.418 87.6587C58.2205 88.4676 59.3113 88.9245 60.4507 88.9292V88.9367Z" fill="white"/>
<path d="M88.0736 80.4555L78.5742 80.418L78.6117 70.917C78.5956 69.7912 78.1384 68.7169 77.3383 67.9249C76.5382 67.1329 75.4591 66.6867 74.3334 66.6822C73.2076 66.6777 72.1251 67.1152 71.3185 67.9008C70.5121 68.6863 70.0462 69.757 70.0212 70.8825L69.9102 98.4825C69.9262 99.6081 70.3834 100.683 71.1835 101.475C71.9836 102.267 73.0627 102.713 74.1885 102.717C75.3142 102.722 76.3967 102.284 77.2033 101.499C78.0097 100.713 78.4756 99.6424 78.5007 98.517L78.5396 89.016L88.0391 89.0535C89.1649 89.0374 90.2392 88.5802 91.0312 87.7801C91.8232 86.98 92.2694 85.9009 92.2739 84.7752C92.2784 83.6494 91.8409 82.5669 91.0553 81.7603C90.2698 80.9539 89.1991 80.488 88.0736 80.463V80.4555Z" fill="#B2B2B2"/>
<path d="M85.5001 80.4449L75.9991 80.4074L76.0381 70.9064C76.0471 68.5724 75.8131 66.6614 73.4776 66.6509C72.3475 66.6479 71.2615 67.0899 70.4545 67.8812C69.6476 68.6724 69.1844 69.7494 69.1651 70.8794L69.1276 80.3789L63.1141 80.3549C61.9747 80.3502 60.8801 80.7986 60.0713 81.6009C59.2624 82.4034 58.8053 83.4942 58.8008 84.6336C58.7962 85.773 59.2445 86.8676 60.0469 87.6764C60.8494 88.4853 61.9402 88.9422 63.0796 88.9469L69.0931 88.9709L69.0541 98.4704C69.0647 99.6005 69.5195 100.681 70.3202 101.479C71.1209 102.276 72.2033 102.727 73.3336 102.733C75.6676 102.742 75.9181 100.833 75.9271 98.4989L75.9661 88.9979L85.4656 89.0354C86.5913 89.0193 87.6656 88.5621 88.4576 87.762C89.2496 86.9619 89.6959 85.8828 89.7004 84.7571C89.7049 83.6313 89.2673 82.5486 88.4818 81.7422C87.6962 80.9358 86.6255 80.4699 85.5001 80.4449Z" fill="#EFEFEF"/>
<path d="M74.1857 103.596C72.8257 103.596 71.5213 103.056 70.5587 102.095C69.5962 101.134 69.0541 99.8307 69.0512 98.4706L69.0872 89.8291L60.4502 89.7946C59.0833 89.7892 57.7745 89.2411 56.8117 88.2708C55.8489 87.3004 55.311 85.9873 55.3164 84.6204C55.3218 83.2534 55.8699 81.9447 56.8403 80.9818C57.8106 80.0191 59.1237 79.4812 60.4907 79.4866L69.1322 79.5211L69.1667 70.8796C69.1946 69.5274 69.7528 68.2402 70.721 67.2958C71.6891 66.3513 72.9896 65.8251 74.3422 65.8306C75.6947 65.836 76.9909 66.3729 77.9512 67.3252C78.9116 68.2776 79.4593 69.5692 79.4762 70.9216L79.4417 79.5616L88.0817 79.5961C89.434 79.6239 90.7211 80.1819 91.6657 81.15C92.6102 82.1179 93.1367 83.4183 93.1313 84.7708C93.1261 86.1232 92.5895 87.4195 91.6373 88.3801C90.6851 89.3406 89.3936 89.8885 88.0412 89.9056L79.3997 89.8711L79.3652 98.5126C79.3514 99.8733 78.7982 101.173 77.8271 102.126C76.856 103.079 75.5464 103.608 74.1857 103.596ZM60.4802 81.2041C59.5688 81.2004 58.6932 81.5587 58.046 82.2006C57.3989 82.8424 57.0332 83.715 57.0294 84.6264C57.0257 85.5378 57.3841 86.4133 58.0259 87.0606C58.6678 87.7077 59.5403 88.0734 60.4517 88.0771L69.9527 88.1146C70.0655 88.1151 70.1771 88.1377 70.2812 88.1812C70.3852 88.2249 70.4797 88.2885 70.559 88.3686C70.6385 88.4487 70.7014 88.5436 70.744 88.6482C70.7867 88.7526 70.8083 88.8643 70.8077 88.9771L70.7702 98.4781C70.7684 98.9295 70.8556 99.3766 71.0266 99.7942C71.1977 100.212 71.4493 100.592 71.7673 100.912C72.0851 101.232 72.463 101.487 72.8792 101.661C73.2955 101.836 73.7419 101.926 74.1932 101.928C74.6446 101.93 75.0917 101.843 75.5093 101.672C75.9269 101.501 76.3067 101.249 76.6271 100.931C76.9475 100.613 77.2021 100.236 77.3765 99.8193C77.5508 99.403 77.6414 98.9565 77.6432 98.5051L77.6807 89.0056C77.6809 88.8927 77.7034 88.7809 77.7469 88.6767C77.7904 88.5726 77.854 88.4779 77.9341 88.3983C78.0143 88.3188 78.1093 88.2558 78.2138 88.213C78.3184 88.1703 78.4303 88.1485 78.5432 88.1491L88.0427 88.1881C88.9541 88.1919 89.8297 87.8335 90.4769 87.1917C91.124 86.5498 91.4897 85.6773 91.4935 84.7659C91.4972 83.8545 91.1389 82.9789 90.497 82.3317C89.8552 81.6846 88.9826 81.3189 88.0712 81.3151L78.5702 81.2776C78.3427 81.2761 78.125 81.1845 77.9647 81.0228C77.8045 80.8612 77.7148 80.6427 77.7152 80.4151L77.7527 70.9141C77.7379 70.015 77.3711 69.1576 76.7312 68.5258C76.0913 67.894 75.2294 67.5382 74.3302 67.5346C73.4311 67.5312 72.5662 67.8802 71.9215 68.5069C71.2766 69.1336 70.9033 69.9882 70.8812 70.8871L70.8422 80.3866C70.8418 80.4994 70.8191 80.611 70.7756 80.7151C70.732 80.8191 70.6684 80.9136 70.5883 80.9929C70.5082 81.0724 70.4132 81.1353 70.3088 81.1779C70.2043 81.2206 70.0925 81.2422 69.9797 81.2416L60.4802 81.2041Z" fill="white"/>
<path d="M60.4799 80.4542C58.5629 80.4887 56.8064 81.8552 56.4299 83.7542C56.2307 84.7218 56.3716 85.7285 56.8289 86.6042C57.2519 87.4041 57.926 88.0428 58.7474 88.4222C59.3083 88.6791 59.9171 88.8146 60.5339 88.8197H61.2839L64.3379 88.8317C66.1949 88.8392 68.0519 88.8317 69.9074 88.8542C69.9239 88.8542 69.9404 88.8542 69.9584 88.8542C70.1399 88.8542 69.8084 88.8092 69.9809 88.8542C70.0604 88.8812 70.0529 88.8767 69.9584 88.8392C69.9922 88.8554 70.0249 88.8738 70.0559 88.8947L69.9929 88.8467C70.0213 88.8717 70.0478 88.8989 70.0724 88.9277L70.0244 88.8647C70.0439 88.8962 70.0634 88.9292 70.0799 88.9622L70.0454 88.8872C70.058 88.9223 70.0676 88.9584 70.0739 88.9952C70.0409 89.0747 70.0739 88.7582 70.0634 88.9637V89.0012C70.0634 89.2202 70.0634 89.4392 70.0634 89.6567L70.0499 92.6327L70.0274 98.3777C70.0163 99.4662 70.4296 100.516 71.1797 101.305C71.9299 102.094 72.9578 102.56 74.0456 102.604C75.1334 102.647 76.1954 102.266 77.0063 101.539C77.8173 100.813 78.3137 99.7997 78.3899 98.7137C78.4049 98.5232 78.4004 98.3312 78.4019 98.1392L78.4124 95.4602L78.4364 89.3102C78.4364 89.2247 78.4364 89.1377 78.4364 89.0522V89.0087C78.4364 88.9892 78.4454 88.9547 78.4364 88.9472L78.4259 89.0342C78.4333 88.9977 78.4429 88.9616 78.4544 88.9262C78.4124 89.0192 78.4109 89.0282 78.4544 88.9532C78.4979 88.8782 78.4934 88.8902 78.4364 88.9682L78.4754 88.9277C78.5369 88.8722 78.5294 88.8752 78.4544 88.9382L78.5024 88.9082C78.5774 88.8707 78.5684 88.8737 78.4754 88.9082L78.5294 88.8917C78.6134 88.8752 78.6029 88.8752 78.4964 88.8917C78.5504 88.9547 78.5339 88.8917 78.5534 88.8917H78.8309L81.3554 88.9022L87.6554 88.9277C87.8234 88.9277 87.9914 88.9277 88.1579 88.9277C89.1287 88.8864 90.0566 88.5162 90.7889 87.8777C92.2544 86.6147 92.5994 84.4112 91.6889 82.7282C91.3223 82.0703 90.7868 81.522 90.1376 81.1403C89.4884 80.7584 88.749 80.5568 87.9959 80.5562L85.8374 80.5502L79.3049 80.5232H78.5729C78.4064 80.5232 78.6194 80.5232 78.6014 80.5322L78.5474 80.5187C78.4679 80.4932 78.4754 80.4977 78.5699 80.5352C78.5361 80.5185 78.5034 80.4995 78.4724 80.4782C78.5489 80.5412 78.5564 80.5442 78.4934 80.4887C78.3584 80.3597 78.5789 80.6132 78.4754 80.4617C78.3719 80.3102 78.5234 80.6042 78.4664 80.4332C78.4094 80.2622 78.4559 80.5832 78.4664 80.4077V80.3672C78.4664 79.7012 78.4664 79.0337 78.4664 78.3677L78.4934 71.7767C78.4934 70.9727 78.5174 70.1867 78.2054 69.4217C77.8532 68.516 77.1959 67.7616 76.347 67.2888C75.4982 66.8159 74.5109 66.654 73.5554 66.8312C71.6399 67.1402 70.2194 68.8727 70.1264 70.7777C70.1009 71.3117 70.1189 71.8517 70.1174 72.3872L70.0904 79.0697V80.0897C70.0904 80.1737 70.0904 80.2562 70.0904 80.3387V80.3807C70.0979 80.5652 70.1354 80.2307 70.0904 80.4062C70.0454 80.5817 70.1729 80.2772 70.0799 80.4317C70.0349 80.5007 70.0409 80.4962 70.0979 80.4167C70.0733 80.4455 70.0468 80.4726 70.0184 80.4977C70.1474 80.4572 70.0634 80.4512 70.0079 80.4977C69.9179 80.5607 70.1729 80.4377 70.0079 80.4977C69.8429 80.5577 70.1579 80.5082 69.9824 80.4977H69.6824H68.6489L61.9664 80.4707H60.4889L61.2389 81.2207C61.2389 81.0218 61.1599 80.831 61.0193 80.6903C60.8786 80.5497 60.6878 80.4707 60.4889 80.4707C60.29 80.4707 60.0992 80.5497 59.9585 80.6903C59.818 80.831 59.7389 81.0218 59.7389 81.2207C59.7416 81.4187 59.8216 81.608 59.9617 81.7481C60.1016 81.888 60.2909 81.968 60.4889 81.9707L65.4074 81.9902L68.6759 82.0037H69.6824C70.0286 82.0277 70.3757 81.9711 70.6964 81.8387C71.3129 81.5507 71.5964 80.9222 71.5964 80.2727V79.4387L71.6084 76.3382C71.6159 74.5382 71.6084 72.7382 71.6294 70.9382C71.6294 70.9247 71.6294 70.9112 71.6294 70.8977C71.6294 70.8842 71.6294 70.8257 71.6294 70.7912C71.6294 70.7567 71.6294 70.6862 71.6399 70.6412C71.6504 70.5962 71.6474 70.5722 71.6519 70.5377C71.6354 70.6532 71.6339 70.6682 71.6519 70.5857C71.6875 70.3872 71.7376 70.1918 71.8019 70.0007C71.8124 69.9707 71.8319 69.8792 71.8559 69.8612L71.8199 69.9482C71.8334 69.9182 71.8469 69.8882 71.8619 69.8582C71.9039 69.7692 71.9504 69.6822 72.0014 69.5972C72.0509 69.5132 72.1049 69.4307 72.1619 69.3512L72.1904 69.3107C72.2384 69.2477 72.2294 69.2582 72.1619 69.3467C72.1619 69.3317 72.2459 69.2477 72.2564 69.2342C72.3209 69.1607 72.3884 69.0842 72.4589 69.0212C72.5294 68.9582 72.6479 68.8037 72.7169 68.7977L72.6434 68.8547L72.7214 68.7977L72.8039 68.7422C72.8849 68.6882 72.9689 68.6372 73.0559 68.5922C73.1039 68.5667 73.2704 68.4497 73.3229 68.4632L73.2344 68.4992L73.3274 68.4647C73.3904 68.4407 73.4534 68.4197 73.5164 68.4002C73.6139 68.3717 73.7114 68.3462 73.8089 68.3267L73.9589 68.2982C74.1359 68.2652 73.7834 68.3102 73.9589 68.2982C74.1666 68.2832 74.3751 68.2832 74.5829 68.2982C74.6334 68.295 74.684 68.3001 74.7329 68.3132L74.6354 68.3012L74.7359 68.3177C74.8349 68.3372 74.9339 68.3597 75.0359 68.3867C75.1379 68.4137 75.2264 68.4452 75.3209 68.4797L75.3674 68.4977C75.4424 68.5277 75.4289 68.5217 75.3254 68.4797C75.3389 68.4707 75.4469 68.5367 75.4589 68.5427C75.6344 68.6324 75.8029 68.7351 75.9629 68.8502C76.1024 68.9477 75.8369 68.7392 75.9629 68.8502L76.0739 68.9447C76.1589 69.021 76.2401 69.1016 76.3169 69.1862C76.3499 69.2222 76.3829 69.2597 76.4144 69.2972C76.4459 69.3347 76.5014 69.4397 76.4459 69.3362C76.3904 69.2327 76.4639 69.3617 76.4759 69.3782C76.5029 69.4187 76.5314 69.4592 76.5569 69.4997C76.6094 69.5837 76.6589 69.6677 76.7069 69.7547C76.7294 69.7997 76.7519 69.8432 76.7729 69.8882L76.8134 69.9782C76.7699 69.8747 76.7639 69.8612 76.7939 69.9377C76.8636 70.1262 76.9193 70.3199 76.9604 70.5167C76.9604 70.5587 76.9739 70.6007 76.9814 70.6427C77.0024 70.7522 76.9664 70.4477 76.9814 70.6217C76.9814 70.7252 76.9979 70.8287 76.9979 70.9337C76.9979 70.9727 76.9979 71.0117 76.9979 71.0507V71.8697L76.9859 74.9567C76.9859 76.7657 76.9589 78.5762 76.9634 80.3852C76.9601 80.8176 77.1267 81.2342 77.4275 81.545C77.7282 81.8559 78.1391 82.0362 78.5714 82.0472C78.7214 82.0472 78.8804 82.0472 79.0334 82.0472L81.7559 82.0577L87.7904 82.0817H88.0679C88.1204 82.0817 88.1729 82.0817 88.2179 82.0817C88.2629 82.0817 88.3214 82.0907 88.3679 82.0952H88.3214L88.4219 82.1117C88.6041 82.1474 88.7831 82.1975 88.9574 82.2617C88.9859 82.2722 89.0774 82.2917 89.0969 82.3157L89.0084 82.2782L89.0984 82.3202C89.2011 82.37 89.3013 82.425 89.3984 82.4852C89.4824 82.5362 89.5619 82.5932 89.6429 82.6487C89.7839 82.7477 89.5169 82.5392 89.6429 82.6487C89.6789 82.6817 89.7179 82.7117 89.7539 82.7447C89.8259 82.8107 89.9039 82.8782 89.9624 82.9502C90.0074 82.9982 90.1484 83.1122 90.1544 83.1722L90.0959 83.0987L90.1544 83.1782L90.2354 83.2997C90.2879 83.3837 90.3374 83.4677 90.3854 83.5547C90.4079 83.5997 90.4304 83.6432 90.4514 83.6882L90.4709 83.7332C90.5039 83.8067 90.4979 83.7932 90.4544 83.6897C90.4994 83.7062 90.5534 83.9717 90.5669 84.0212C90.5909 84.1007 90.6104 84.1832 90.6284 84.2657C90.6389 84.3152 90.6464 84.3647 90.6554 84.4157C90.6884 84.5912 90.6434 84.2402 90.6554 84.4157C90.6734 84.6408 90.6734 84.867 90.6554 85.0922V85.1432C90.6449 85.2272 90.6479 85.2122 90.6554 85.0967C90.653 85.1475 90.6444 85.1979 90.6299 85.2467C90.6089 85.3457 90.5849 85.4447 90.5564 85.5467C90.5279 85.6487 90.5069 85.7057 90.4769 85.7837L90.4589 85.8302C90.4289 85.9052 90.4349 85.8917 90.4769 85.7882C90.4889 85.8077 90.4034 85.9382 90.3914 85.9667C90.3464 86.0537 90.2984 86.1392 90.2414 86.2232C90.2084 86.2742 90.1304 86.4437 90.0734 86.4647L90.1304 86.3897L90.0689 86.4662C90.0374 86.5037 90.0044 86.5397 89.9714 86.5757C89.9054 86.6477 89.8349 86.7167 89.7629 86.7827L89.6534 86.8787L89.6159 86.9102L89.6504 86.8832C89.6504 86.9222 89.4449 87.0257 89.4074 87.0482C89.3249 87.0992 89.2379 87.1487 89.1509 87.1982L89.0159 87.2627C88.9424 87.2957 88.9559 87.2897 89.0594 87.2462L88.9664 87.2807C88.7933 87.3453 88.6152 87.3954 88.4339 87.4307C88.4099 87.4307 88.3019 87.4682 88.2839 87.4562L88.3814 87.4427L88.2779 87.4532C88.1909 87.4602 88.1039 87.4647 88.0169 87.4667H87.5669L84.8459 87.4562L78.7919 87.4322C78.4361 87.4065 78.0797 87.471 77.7554 87.6197C77.1554 87.9302 76.9034 88.5437 76.9019 89.1827L76.8929 91.4327L76.8659 97.8632C76.8659 98.0762 76.8659 98.2877 76.8659 98.4992V98.5367C76.8659 98.6057 76.8659 98.6762 76.8554 98.7452C76.8579 98.7957 76.8524 98.8464 76.8389 98.8952C76.8554 98.7812 76.8569 98.7662 76.8389 98.8487L76.8209 98.9492C76.785 99.1299 76.7349 99.3075 76.6709 99.4802L76.6529 99.5267C76.6229 99.6017 76.6289 99.5882 76.6709 99.4847C76.6784 99.4982 76.6154 99.6047 76.6079 99.6197C76.5569 99.7217 76.4999 99.8222 76.4384 99.9197C76.4054 99.9737 76.3304 100.137 76.2719 100.161L76.3289 100.088L76.2659 100.163C76.2449 100.188 76.2239 100.212 76.2014 100.236C76.1369 100.308 76.0679 100.386 75.9959 100.446C75.9614 100.479 75.9239 100.512 75.8879 100.544L75.8129 100.607C75.7499 100.657 75.7619 100.648 75.8489 100.58C75.8489 100.617 75.6404 100.722 75.6044 100.745C75.5219 100.796 75.4349 100.844 75.3479 100.895L75.2144 100.959C75.0644 101.034 75.3749 100.902 75.2144 100.959C75.1199 100.992 75.0269 101.027 74.9309 101.055C74.8349 101.084 74.7359 101.106 74.6309 101.124C74.5823 101.14 74.5319 101.149 74.4809 101.151L74.5784 101.138C74.5454 101.138 74.5109 101.145 74.4764 101.147C74.2511 101.164 74.0247 101.161 73.7999 101.139C73.6214 101.124 73.9709 101.175 73.7999 101.139L73.6994 101.121C73.6004 101.102 73.5029 101.076 73.3994 101.048C73.2959 101.019 73.2104 100.986 73.1159 100.952C72.9524 100.892 73.2659 101.027 73.1159 100.952C73.0574 100.922 72.9974 100.895 72.9389 100.863C72.8534 100.817 72.7679 100.767 72.6854 100.713C72.6449 100.688 72.6044 100.659 72.5639 100.631C72.5234 100.602 72.4469 100.515 72.5219 100.602C72.5969 100.689 72.5009 100.583 72.4844 100.568C72.4679 100.553 72.4109 100.503 72.3749 100.47C72.2908 100.393 72.2107 100.311 72.1349 100.226L72.0404 100.115C71.9294 99.9842 72.1349 100.253 72.0404 100.115C71.9849 100.034 71.9279 99.9542 71.8784 99.8702C71.8289 99.7862 71.7794 99.6977 71.7374 99.6092C71.7194 99.5732 71.7044 99.5342 71.6849 99.4982C71.6654 99.4622 71.6714 99.4682 71.7119 99.5627L71.6759 99.4697C71.6093 99.2798 71.5592 99.0846 71.5259 98.8862L71.5169 98.8367C71.5049 98.7527 71.5064 98.7692 71.5169 98.8832C71.5058 98.834 71.5013 98.7836 71.5034 98.7332C71.4974 98.6631 71.4944 98.5926 71.4944 98.5217V98.3882L71.5034 96.1607L71.5289 89.7107C71.5289 89.4932 71.5289 89.2742 71.5289 89.0552C71.5322 88.6238 71.3651 88.2086 71.064 87.8997C70.763 87.5907 70.3522 87.4131 69.9209 87.4052C69.3734 87.3887 68.8229 87.4052 68.2709 87.4052L61.6529 87.3782H60.6704H60.4499C60.3719 87.3782 60.2999 87.3782 60.2159 87.3662C60.1724 87.3687 60.1289 87.3642 60.0869 87.3527C60.2009 87.3677 60.2174 87.3692 60.1334 87.3527C60.1004 87.3527 60.0674 87.3467 60.0344 87.3347C59.8373 87.2928 59.6437 87.2357 59.4554 87.1637C59.2919 87.1052 59.6054 87.2402 59.4554 87.1637C59.4104 87.1412 59.3654 87.1217 59.3219 87.0977C59.2189 87.0455 59.1188 86.988 59.0219 86.9252C58.9739 86.8937 58.8404 86.8322 58.8209 86.7842L58.8959 86.8412L58.8194 86.7782L58.7099 86.6822C58.6379 86.6147 58.5704 86.5457 58.5044 86.4737C58.4714 86.4377 58.4384 86.4002 58.4069 86.3627L58.3454 86.2862C58.4129 86.3747 58.4219 86.3852 58.3739 86.3222C58.2713 86.174 58.1776 86.0196 58.0934 85.8602C58.0709 85.8167 58.0514 85.7717 58.0304 85.7267C57.9539 85.5767 58.0859 85.8872 58.0304 85.7267C57.9929 85.6172 57.9524 85.5077 57.9224 85.3952C57.8951 85.2965 57.8731 85.1963 57.8564 85.0952L57.8474 85.0442C57.8354 84.9617 57.8369 84.9767 57.8474 85.0922C57.8359 85.0431 57.8308 84.9926 57.8324 84.9422C57.82 84.7337 57.8239 84.5246 57.8444 84.3167C57.8594 84.1382 57.8099 84.4892 57.8444 84.3167C57.8549 84.2672 57.8624 84.2162 57.8729 84.1667C57.8954 84.0692 57.9209 83.9717 57.9509 83.8667C57.9689 83.8067 58.0004 83.6237 58.0514 83.5862L58.0154 83.6747L58.0559 83.5847C58.0784 83.5397 58.0994 83.4962 58.1234 83.4527C58.1624 83.3792 58.2029 83.3027 58.2464 83.2397C58.2899 83.1767 58.3574 83.0177 58.4144 82.9982L58.3574 83.0717C58.3769 83.0462 58.3979 83.0222 58.4189 82.9967C58.4399 82.9712 58.4834 82.9232 58.5164 82.8872C58.5824 82.8152 58.6529 82.7462 58.7249 82.6802L58.8344 82.5842L58.8734 82.5527C58.9345 82.5036 58.9225 82.5126 58.8374 82.5797C58.8374 82.5392 59.0444 82.4297 59.0804 82.4147C59.1494 82.3712 59.2214 82.3307 59.2934 82.2917L59.4269 82.2272L59.4719 82.2062C59.5454 82.1732 59.5319 82.1792 59.4284 82.2227C59.4449 82.1822 59.6684 82.1372 59.7119 82.1237C59.8079 82.0952 59.9069 82.0697 60.0044 82.0487L60.1544 82.0217C60.3299 81.9887 59.9789 82.0337 60.1544 82.0217C60.2594 82.0142 60.3629 82.0052 60.4679 82.0037C60.6668 82.0037 60.8576 81.9246 60.9983 81.7841C61.1389 81.6434 61.2179 81.4526 61.2179 81.2537C61.2179 81.0548 61.1389 80.864 60.9983 80.7233C60.8576 80.5827 60.6668 80.5037 60.4679 80.5037L60.4799 80.4542Z" fill="black"/>
</svg>
