<svg width="120" height="120" viewBox="0 0 120 120" fill="none" xmlns="http://www.w3.org/2000/svg">
<path d="M34.1038 71.2993C34.1038 79.1263 40.2898 81.2578 43.6513 81.8338C43.9075 81.8794 44.1703 81.8728 44.424 81.8142C44.6775 81.7556 44.9166 81.6462 45.1269 81.4927C45.337 81.3393 45.514 81.1449 45.6471 80.9212C45.7803 80.6976 45.8667 80.4493 45.9013 80.1913C46.9183 72.2413 53.8078 60.3253 56.5243 57.6178C57.6822 56.3259 59.1528 55.3532 60.7948 54.7934C60.9771 54.7446 61.141 54.6434 61.2663 54.5023C61.3917 54.3612 61.4728 54.1866 61.4998 53.9998L61.9978 50.5108C60.5218 49.8373 59.4478 48.4003 59.4478 45.8983C59.4478 40.0363 62.3803 34.1729 66.2893 34.1729C69.1422 34.3332 71.964 34.8488 74.6893 35.7074C75.5704 35.9642 76.332 36.5249 76.8388 37.2899L79.1353 40.7294C79.6755 41.5404 80.4976 42.1221 81.4423 42.3614L83.9443 42.9868V45.8983C83.9442 46.0267 83.9692 46.1538 84.0183 46.2725C84.0672 46.3911 84.1392 46.499 84.2298 46.5899C84.3205 46.6806 84.4282 46.7527 84.5469 46.8018C84.6654 46.851 84.7924 46.8764 84.9208 46.8764H87.7048C87.5476 48.2099 87.0121 49.4705 86.1615 50.5094C85.311 51.5484 84.181 52.3223 82.9048 52.7399C79.8969 52.7726 76.914 53.2906 74.0713 54.2743C73.9491 54.3205 73.8376 54.3915 73.7439 54.4827C73.6501 54.5739 73.5762 54.6834 73.5267 54.8045C73.4772 54.9255 73.453 55.0554 73.4559 55.1862C73.4589 55.3168 73.4886 55.4455 73.5433 55.5643C75.1845 58.6023 76.0695 61.9909 76.1233 65.4433C76.047 69.0667 74.658 72.5394 72.2143 75.2158V86.9428C72.2143 86.9428 76.0648 87.9193 76.0648 90.8518H48.7648C46.8148 90.8518 44.8558 89.4343 44.8558 88.9018C36.0613 88.9018 32.1523 83.0384 32.1523 79.1294C32.2696 76.4147 32.9334 73.7515 34.1038 71.2993Z" fill="white"/>
<path d="M68.2618 34.3005C67.609 34.2165 66.9518 34.1715 66.2938 34.1655C62.3848 34.1655 59.4523 40.029 59.4523 45.891C59.4523 48.393 60.5278 49.83 62.0023 50.5035L61.4998 54C61.4734 54.1892 61.3915 54.3663 61.2644 54.509C61.1374 54.6516 60.9707 54.7532 60.7858 54.801C59.1436 55.3608 57.6731 56.3336 56.5153 57.6255C53.7988 60.333 45.6328 74.073 44.6158 82.0275C44.5483 82.5585 35.6578 77.1225 35.2168 77.427C35.6023 77.5305 39.6373 83.1015 41.0563 84.027C46.1158 87.327 49.0873 83.04 49.7743 80.649C49.8175 80.5013 49.8509 80.351 49.8748 80.199C50.8903 72.249 56.2813 64.8465 58.9978 62.139C62.5603 58.9515 65.1853 58.2765 66.2353 53.826L67.4668 49.839C65.9908 49.1655 63.4168 48.3765 62.3788 45.8985C60.2998 40.95 64.8448 35.1675 68.2618 34.3005Z" fill="#E5E5E5"/>
<path d="M31.2715 78.1093C31.2715 82.0258 35.188 87.8998 44.0005 87.8998C44.0005 88.4383 45.958 89.8588 47.917 89.8588H50.851C49.6375 89.8588 48.424 89.3128 47.677 88.7698C46.9453 88.2358 46.084 87.9075 45.1825 87.8188C37.6015 87.1003 34.2055 81.7558 34.2055 78.1093C34.2125 77.2435 34.2974 76.38 34.459 75.5293C33.6101 73.912 33.1864 72.1054 33.2275 70.2793C32.0573 72.7318 31.3922 75.3946 31.2715 78.1093Z" fill="#E5E5E5"/>
<path d="M80.5853 51.9857C80.5853 51.9857 76.8353 51.9122 73.6358 52.0112C73.2159 52.025 72.8057 52.1405 72.4403 52.3478C72.0749 52.5551 71.7653 52.8479 71.5382 53.2013C71.3109 53.5547 71.1729 53.9579 71.1359 54.3764C71.099 54.7948 71.1641 55.216 71.3258 55.6037C72.4733 58.3712 73.7753 62.3072 73.3028 65.0537C72.5033 69.7172 69.2033 71.2172 68.9033 73.5167C68.6033 75.8162 69.4028 90.8417 69.4028 90.8417H76.0658C76.0658 90.8417 75.8273 87.1472 72.2153 86.9327V75.2087C72.2153 75.2087 77.1113 70.0697 76.0658 63.2192C75.0203 56.3687 72.7808 56.4272 73.5278 54.7967C74.2748 53.1662 80.5853 51.9857 80.5853 51.9857Z" fill="#B2B2B2"/>
<path d="M83.2129 53.6595C88.6384 51.852 88.8769 46.296 88.8199 44.637C88.805 44.2137 88.6529 43.8069 88.3862 43.4778C88.1197 43.1487 87.7532 42.9153 87.3424 42.813L81.6739 41.4C80.9675 41.2232 80.3525 40.7895 79.9489 40.1835L77.6509 36.7335C77.0161 35.7797 76.0654 35.0802 74.9659 34.758C72.1513 33.876 69.2378 33.348 66.2929 33.186C61.6174 33.186 58.4749 39.7545 58.4749 45.8895C58.3993 46.8624 58.5748 47.8383 58.9846 48.7241C59.3942 49.6097 60.0245 50.3753 60.8149 50.9475C60.8569 50.9745 60.9019 50.9925 60.9439 51.018L60.5374 53.85C58.7269 54.4467 57.1037 55.5063 55.8289 56.9235C52.7944 59.946 45.9499 72.0735 44.9284 80.064C44.9128 80.1881 44.8718 80.3076 44.8081 80.4153C44.7443 80.5229 44.6591 80.6162 44.5579 80.6895C44.453 80.7683 44.3332 80.8247 44.2057 80.8551C44.0783 80.8856 43.9459 80.8895 43.8169 80.8665C40.5529 80.307 35.0809 78.3165 35.0809 71.295C35.0842 71.0724 35.0113 70.8554 34.8743 70.6799C34.7374 70.5044 34.5446 70.3809 34.3279 70.3299C34.1111 70.2789 33.8836 70.3037 33.6827 70.3998C33.482 70.4958 33.32 70.6578 33.2239 70.8585C31.9856 73.4403 31.2875 76.2476 31.1719 79.1085C31.1719 83.481 35.2444 89.601 44.2789 89.847C44.8588 90.4545 45.5537 90.9407 46.3231 91.2776C47.0924 91.6143 47.921 91.7949 48.7609 91.809H76.0609C76.3198 91.8086 76.5679 91.7057 76.7509 91.5225C76.9339 91.3395 77.0369 91.0914 77.0374 90.8325C77.0374 88.053 74.4874 86.7195 73.1899 86.2185V75.5685C73.7945 74.8793 74.3357 74.1366 74.8069 73.35C76.0849 71.22 76.7299 68.607 76.9474 67.2C77.2474 65.6235 75.1129 64.4265 75.1159 66.243C74.9404 68.5875 74.7724 69.8055 73.1329 72.333C72.6727 73.1102 72.1333 73.8375 71.5234 74.5035C71.3399 74.687 71.2369 74.9357 71.2369 75.195V86.922C71.2369 87.1394 71.3096 87.3506 71.4433 87.522C71.5769 87.6935 71.764 87.8154 71.9749 87.8685C71.9974 87.8685 74.1229 88.4445 74.8459 89.853H68.9179C68.4739 88.9542 67.8322 88.1676 67.0409 87.5523C66.2497 86.9369 65.3293 86.5086 64.3489 86.2995C65.0167 85.6074 65.5382 84.7878 65.882 83.8896C66.2258 82.9914 66.385 82.0331 66.3499 81.072C66.3725 79.5659 66.044 78.0752 65.3902 76.718C64.7365 75.3609 63.7754 74.1749 62.5834 73.254C61.5346 72.5192 60.3227 72.0504 59.0525 71.8884C57.7822 71.7264 56.4914 71.876 55.2919 72.324C55.0456 72.4058 54.8419 72.582 54.7256 72.8139C54.6092 73.0458 54.5899 73.3145 54.6716 73.5608C54.7534 73.8071 54.9296 74.0108 55.1615 74.127C55.3934 74.2434 55.6621 74.2628 55.9084 74.181C56.8139 73.8287 57.7922 73.7042 58.7572 73.8188C59.722 73.9334 60.644 74.2833 61.4419 74.838C62.384 75.5768 63.1412 76.5246 63.6539 77.6067C64.1665 78.6887 64.4203 79.875 64.3954 81.072C64.3954 85.1475 61.2589 85.9785 61.2274 85.9875C60.9955 86.0448 60.7927 86.1851 60.6572 86.3817C60.5218 86.5784 60.4631 86.8179 60.4924 87.0549C60.5215 87.2919 60.6365 87.51 60.8156 87.668C60.9947 87.8259 61.2256 87.9128 61.4644 87.912C64.3954 87.912 65.8849 88.9725 66.6229 89.862H53.6479C53.1307 89.862 52.6346 89.6565 52.2689 89.2908C51.9032 88.9251 51.6979 88.4292 51.6979 87.912C51.6785 87.6666 51.5675 87.4376 51.3868 87.2705C51.206 87.1034 50.969 87.0105 50.7229 87.0105C50.4767 87.0105 50.2396 87.1034 50.059 87.2705C49.8782 87.4376 49.7671 87.6666 49.7479 87.912C49.7516 88.5989 49.9391 89.2721 50.2909 89.862H48.7609C47.6612 89.8202 46.612 89.3897 45.7999 88.647C45.7469 88.4357 45.625 88.248 45.4532 88.1141C45.2813 87.9801 45.0697 87.9074 44.8519 87.9075C36.8524 87.9075 33.1264 82.6575 33.1264 79.113C33.1474 77.7968 33.3394 76.4888 33.6979 75.222C35.4724 80.772 40.8979 82.3485 43.4854 82.7925C43.8748 82.8593 44.2738 82.8467 44.6581 82.755C45.0425 82.6635 45.4043 82.4952 45.7219 82.26C46.0358 82.0304 46.2995 81.7389 46.4966 81.4035C46.6937 81.0683 46.82 80.6961 46.8679 80.31C47.8579 72.5655 54.6364 60.87 57.2179 58.3035C58.2556 57.1359 59.5742 56.2524 61.0489 55.737C61.417 55.64 61.7485 55.4366 62.0017 55.1522C62.2549 54.8678 62.4185 54.515 62.4724 54.138L62.8099 51.78C64.3615 52.0832 65.9675 51.9327 67.4359 51.3465C67.9835 51.1314 68.4533 50.7554 68.7832 50.268C69.113 49.7808 69.2876 49.205 69.2839 48.6165V41.9835C69.2944 41.8491 69.277 41.7138 69.2329 41.5865C69.1886 41.459 69.1186 41.3421 69.0269 41.243C68.9354 41.144 68.8243 41.0649 68.7007 41.0109C68.5772 40.9569 68.4437 40.929 68.3089 40.929C68.174 40.929 68.0405 40.9569 67.9169 41.0109C67.7933 41.0649 67.6823 41.144 67.5907 41.243C67.4992 41.3421 67.4291 41.459 67.3849 41.5865C67.3406 41.7138 67.3232 41.8491 67.3339 41.9835V48.6165C67.3345 48.8126 67.2766 49.0044 67.1675 49.1675C67.0585 49.3304 66.9034 49.4573 66.7219 49.5315C65.9618 49.875 65.1319 50.036 64.2986 50.0019C63.4652 49.9677 62.6513 49.7394 61.9219 49.335C61.4021 48.933 60.9931 48.4055 60.7333 47.802C60.4736 47.1984 60.3715 46.5389 60.4369 45.885C60.4369 40.26 63.2314 35.136 66.3004 35.136C69.0622 35.3003 71.7932 35.8041 74.4319 36.636C75.089 36.8301 75.6572 37.2491 76.0369 37.8195L78.3364 41.2695C79.0084 42.2822 80.0353 43.0062 81.2149 43.299L82.9744 43.74V45.8895C82.9744 46.4067 83.1797 46.9026 83.5454 47.2683C83.9111 47.634 84.4072 47.8395 84.9244 47.8395H86.4634C86.2021 48.743 85.7269 49.5701 85.078 50.2508C84.4292 50.9316 83.6257 51.4458 82.7359 51.75C79.6577 51.7917 76.6069 52.3338 73.7029 53.355C73.4572 53.4536 73.234 53.6006 73.0466 53.7875C72.8593 53.9744 72.7115 54.1971 72.6124 54.4425C72.5144 54.6846 72.4672 54.9443 72.4736 55.2054C72.4801 55.4666 72.5401 55.7235 72.6499 55.9605L72.8989 56.5005C74.3507 59.2554 75.1222 62.3177 75.1489 65.4315C75.1489 65.9715 74.8489 69.2265 75.8809 69.3465C76.8379 69.459 77.1034 65.9715 77.1034 65.4315C77.077 62.0358 76.2467 58.6947 74.6809 55.6815L74.4349 55.152C77.165 54.2288 80.0236 53.7414 82.9054 53.7075C83.0108 53.7075 83.1157 53.6909 83.2159 53.658L83.2129 53.6595ZM86.8369 45.891H84.9184V44.2305L86.8684 44.7195C86.8804 45.1103 86.8699 45.5015 86.8369 45.891Z" fill="black"/>
<path d="M76.1247 74.6581C75.1958 73.345 73.9694 72.2702 72.5457 71.5216C71.1221 70.7728 69.5415 70.3714 67.9332 70.3501C63.0822 70.3501 59.7402 74.6521 59.7402 79.6921C59.7402 85.8421 64.8402 91.9471 75.6132 98.8741C75.7662 98.971 75.9437 99.0226 76.1247 99.0226C76.3059 99.0226 76.4832 98.971 76.6362 98.8741C87.4032 91.9501 92.5092 85.8466 92.5092 79.6981C92.5092 74.6581 89.1672 70.3561 84.3162 70.3561C82.7084 70.3768 81.1283 70.7773 79.7046 71.5249C78.281 72.2725 77.0544 73.346 76.1247 74.6581Z" fill="#E5E5E5"/>
<path d="M75.6133 98.8801C75.7663 98.977 75.9437 99.0286 76.1248 99.0286C76.306 99.0286 76.4833 98.977 76.6363 98.8801C77.5363 98.3026 78.3778 97.7326 79.1968 97.1671C70.1848 90.9376 65.8842 85.3321 65.8842 79.6981C65.8073 77.8768 66.2721 76.0736 67.22 74.5165C68.1679 72.9593 69.5561 71.7182 71.2093 70.9501C70.1603 70.5617 69.0518 70.3588 67.9333 70.3501C63.0822 70.3501 59.7402 74.6521 59.7402 79.6921C59.7402 85.8466 64.8462 91.9501 75.6133 98.8801Z" fill="white"/>
<path d="M77.2597 99.8429C88.4467 92.6429 93.6577 86.2499 93.6577 79.6965C93.6577 73.8165 89.5552 69.21 84.3172 69.21C81.4981 69.2118 78.7873 70.2964 76.7452 72.24L76.1257 72.8265L75.5062 72.24C73.4632 70.2958 70.7514 69.2112 67.9312 69.21C62.6962 69.21 58.5938 73.8165 58.5938 79.698C58.5938 86.2484 63.8032 92.6504 74.9902 99.8429C75.3288 100.06 75.7227 100.176 76.125 100.176C76.5273 100.176 76.9212 100.06 77.2597 99.8429ZM60.8902 79.698C60.8902 75.027 63.9172 71.505 67.9402 71.505H67.9507C69.3603 71.5246 70.7457 71.874 71.9959 72.5251C73.2463 73.1763 74.3266 74.1112 75.1507 75.255C75.2644 75.4095 75.4129 75.535 75.5841 75.6216C75.7552 75.7081 75.9444 75.7531 76.1362 75.753C76.33 75.7519 76.5207 75.7053 76.6931 75.6166C76.8652 75.528 77.0142 75.4 77.1277 75.243C77.9517 74.1033 79.0308 73.1722 80.2789 72.5242C81.5271 71.8761 82.9095 71.5291 84.3157 71.511C88.3417 71.511 91.3657 75.033 91.3657 79.704C91.3657 85.2134 86.5432 91.0439 76.6222 97.5299L76.1302 97.8524L75.6382 97.5299C65.7127 91.0394 60.8902 85.209 60.8902 79.698Z" fill="black"/>
<path d="M84.3159 69.2101C89.5539 69.2101 93.6564 73.8166 93.6564 79.6965C93.6564 86.25 88.4454 92.652 77.2584 99.843C76.9199 100.06 76.526 100.176 76.1237 100.176C75.7214 100.176 75.3275 100.06 74.9889 99.843C63.8019 92.643 58.5924 86.2485 58.5924 79.6981C58.5924 73.8166 62.6949 69.2101 67.9299 69.2101C70.7501 69.2113 73.4619 70.2959 75.5049 72.2401L76.1244 72.8266L76.7439 72.2401C78.786 70.2965 81.4968 69.2119 84.3159 69.2101ZM76.1229 75.7501C75.9311 75.7502 75.7419 75.7052 75.5708 75.6187C75.3995 75.5321 75.2511 75.4066 75.1374 75.2521C74.3133 74.1083 73.2329 73.1734 71.9826 72.5222C70.7324 71.8711 69.347 71.5216 67.9374 71.5021H67.9269C63.9099 71.5021 60.8769 75.0241 60.8769 79.695C60.8769 85.206 65.6994 91.0365 75.6204 97.521L76.1124 97.8435L76.6044 97.521C86.5254 91.035 91.3479 85.2045 91.3479 79.695C91.3479 75.0241 88.3209 71.5021 84.2979 71.5021C82.8917 71.5202 81.5093 71.8672 80.2611 72.5153C79.013 73.1633 77.9339 74.0944 77.1099 75.2341C76.9964 75.3911 76.8474 75.5191 76.6752 75.6077C76.5029 75.6964 76.3121 75.743 76.1184 75.7441L76.1229 75.7501ZM84.3114 68.4571C81.308 68.4566 78.4187 69.6088 76.2399 71.6761L76.1199 71.7901L76.0164 71.6926C73.8347 69.6166 70.9386 68.4583 67.9269 68.4571C62.2689 68.4571 57.8379 73.3936 57.8379 79.695C57.8379 86.4075 62.9754 92.895 73.9929 100.095C74.3817 100.349 74.7978 100.559 75.2334 100.721L75.6174 100.863C75.9434 100.986 76.3008 100.998 76.6344 100.898L76.9494 100.8C77.202 100.724 77.4429 100.613 77.6649 100.47C89.0874 93.12 94.4079 86.52 94.4079 79.6921C94.4079 73.3921 89.9754 68.4556 84.3174 68.4556L84.3114 68.4571ZM76.1244 96.9495L76.0494 96.9C71.1759 93.714 67.4994 90.642 65.1249 87.771C62.7834 84.9405 61.6464 82.3005 61.6464 79.7011C61.6464 75.4591 64.3464 72.2581 67.9464 72.2581C69.2363 72.2768 70.5039 72.5969 71.648 73.1929C72.7922 73.7888 73.7811 74.644 74.5359 75.6901C74.7194 75.9409 74.9592 76.145 75.2363 76.2857C75.5133 76.4264 75.8196 76.4999 76.1304 76.5001C76.4429 76.4986 76.7505 76.4234 77.0283 76.2805C77.3061 76.1377 77.5464 75.9313 77.7294 75.6781C78.4847 74.6344 79.4733 73.7815 80.6166 73.1878C81.7599 72.5939 83.0262 72.2756 84.3144 72.2581C87.9054 72.2581 90.6144 75.4606 90.6144 79.7011C90.6144 82.3005 89.4774 84.939 87.1359 87.7695C84.7614 90.642 81.0849 93.7125 76.2114 96.9L76.1289 96.9525L76.1244 96.9495Z" fill="white"/>
</svg>
