<svg width="160" height="223" viewBox="0 0 160 223" fill="none" xmlns="http://www.w3.org/2000/svg">
<path d="M61.0564 184.068C61.0564 184.068 37.1666 187.371 29.4618 165.078C21.789 142.863 42.3257 129.167 43.5453 129.988C44.7648 130.81 27.4601 146.479 35.4707 164.257C43.0973 181.181 62.3897 177.466 62.3897 177.466L61.0564 184.068Z" fill="white"/>
<path d="M57.8093 184.591C54.5115 184.596 51.2283 184.153 48.0493 183.275C41.6493 181.462 33.155 176.854 29.1266 165.192C22.499 145.992 36.6289 133.946 39.5302 131.72C40.0955 131.286 42.9471 129.156 43.7435 129.693C43.7983 129.731 43.8452 129.779 43.8815 129.835C43.9174 129.892 43.9419 129.955 43.9533 130.02C44.0315 130.465 43.5977 131.115 42.2964 132.925C38.5275 138.205 29.6955 150.575 35.7933 164.107C43.2209 180.584 62.1293 177.149 62.3213 177.114L62.8404 177.011L61.3542 184.385L61.1053 184.42C60.0109 184.543 58.9105 184.6 57.8093 184.591ZM43.1746 130.34C42.0724 130.635 38.3177 133.007 34.7444 137.405C30.1222 143.094 25.4999 152.513 29.7986 164.961C33.7097 176.321 41.9835 180.815 48.22 182.582C52.2957 183.716 56.5421 184.11 60.7569 183.745L61.9266 177.896C58.5243 178.346 55.0708 178.226 51.708 177.54C46.3746 176.442 39.1355 173.274 35.1355 164.385C28.867 150.479 37.8662 137.878 41.7062 132.499C42.2353 131.807 42.7256 131.086 43.1746 130.34Z" fill="black"/>
<path d="M106.486 39.5172C102.518 41.2558 102.539 72.6407 105.597 73.263C113.085 74.7847 118.13 66.0381 118.486 60.7012C118.816 55.6274 114.301 36.0896 106.486 39.5172Z" fill="white"/>
<path d="M107.288 73.7924C106.691 73.7928 106.095 73.732 105.51 73.6111C104.895 73.4867 104.014 72.7009 103.441 67.3391C102.506 58.5462 103.086 40.6155 106.328 39.1898C107.095 38.8342 107.945 38.6955 108.784 38.7887C109.625 38.8822 110.423 39.204 111.093 39.7195C116.39 43.4387 119.082 56.9 118.826 60.7258C118.595 64.1462 116.479 69.0493 112.881 71.7978C111.29 73.0643 109.322 73.7658 107.288 73.7924ZM106.627 39.8404C104.138 40.932 103.071 56.868 104.163 67.2644C104.625 71.5773 105.326 72.8467 105.667 72.9142C108.074 73.4049 110.357 72.836 112.465 71.2324C115.896 68.612 117.912 63.94 118.129 60.6795C118.41 56.4804 115.462 43.6449 110.698 40.3026C110.129 39.8568 109.447 39.5773 108.728 39.4959C108.009 39.4141 107.282 39.5336 106.627 39.8404Z" fill="black"/>
<path d="M127.254 57.871C125.953 56.0754 117.114 54.3581 115.72 52.3172C114.326 50.2763 114.212 45.3234 111.869 42.2656C109.526 39.2078 97.3769 34.863 89.0889 41.6292C80.2 48.8861 88.968 49.1421 67.4711 101.007C56.8044 123.194 57.0356 142.703 57.0356 142.703C64.2711 179.428 105.69 156.858 105.69 156.858C102.465 136.456 120.268 128.317 119.034 112.893C118.572 107.108 107.777 92.8114 109.274 73.5296C109.274 73.5296 118.372 75.855 123.076 72.8505C125.864 71.0621 128.726 59.9012 127.254 57.871Z" fill="white"/>
<path d="M80.513 164.043C76.7476 164.043 72.993 163.428 69.5939 161.835C62.9023 158.695 58.5716 152.278 56.6836 142.763V142.695C56.6836 142.5 56.577 122.849 67.1547 100.84C78.8525 72.623 81.5939 59.6167 83.0659 52.6265C84.3103 46.7243 84.7299 44.7332 88.8685 41.3554C93.3627 37.6861 98.6001 37.4158 102.202 37.839C106.998 38.3972 110.909 40.4235 112.157 42.0484C113.544 43.8546 114.163 46.2656 114.71 48.3918C115.098 49.8852 115.461 51.2964 116.019 52.1177C116.677 53.0777 119.468 54.0733 121.932 54.9622C124.577 55.9044 126.86 56.719 127.549 57.6718C128.346 58.7705 127.951 61.6363 127.645 63.247C126.899 67.1581 125.114 71.979 123.276 73.1524C119.009 75.8688 111.468 74.3936 109.605 73.9705C108.716 86.9376 113.445 97.7358 116.584 104.904C118.07 108.303 119.247 110.987 119.397 112.861C119.962 119.944 116.605 125.469 113.057 131.315C108.751 138.408 104.3 145.739 106.049 156.801L106.088 157.046L105.868 157.167C105.697 157.248 93.0427 164.043 80.513 164.043ZM57.4019 142.656C59.233 151.922 63.4463 158.159 69.9067 161.192C83.4996 167.567 103.023 157.839 105.313 156.651C103.628 145.476 108.115 138.087 112.453 130.941C115.941 125.191 119.237 119.763 118.693 112.911C118.55 111.158 117.398 108.519 115.937 105.184C112.737 97.8706 107.894 86.8167 108.929 73.4905L108.961 73.0674L109.37 73.1737C109.462 73.195 118.38 75.4244 122.881 72.5408C124.492 71.5133 126.209 66.9341 126.938 63.1012C127.407 60.6301 127.418 58.703 126.963 58.0807C126.401 57.3056 124.005 56.4487 121.683 55.6238C118.867 54.6176 116.211 53.6715 115.421 52.5195C114.792 51.595 114.429 50.191 113.999 48.5696C113.466 46.5074 112.869 44.175 111.567 42.479C110.397 40.9536 106.533 39.0617 102.099 38.5426C98.6285 38.1373 93.5974 38.3936 89.2987 41.9065C85.3521 45.1278 84.9787 46.8839 83.7414 52.7755C82.2623 59.7835 79.5139 72.8327 67.7841 101.131C57.4836 122.596 57.3876 141.757 57.3912 142.656H57.4019Z" fill="black"/>
<path d="M61.0561 184.068C61.0561 184.068 27.4383 153.391 46.2472 136.63C61.7032 122.859 69.4721 161.113 85.8312 160.601C102.19 160.089 111.047 127.848 121.387 139.691C128.971 148.363 103.118 184.068 103.118 184.068H61.0561Z" fill="white"/>
<path d="M103.317 184.424H60.9173L60.8177 184.331C60.6079 184.139 40.0782 165.22 40.1742 149.035C40.2026 144.057 42.1653 139.791 46.0124 136.367C48.5973 134.059 51.0862 133.067 53.6106 133.319C58.8586 133.853 63.2462 139.741 67.8933 145.97C73.2266 153.081 78.7093 160.466 85.8204 160.249C93.3546 160.015 99.3315 152.825 104.601 146.482C108.928 141.273 112.668 136.772 116.601 136.726C118.379 136.697 120.046 137.597 121.675 139.456C129.355 148.242 104.487 182.809 103.424 184.256L103.317 184.424ZM61.1946 183.712H102.955C104.732 181.206 128.199 148.011 121.138 139.926C119.655 138.23 118.18 137.408 116.612 137.437C113.006 137.479 109.365 141.863 105.145 146.937C99.7795 153.394 93.6959 160.715 85.8417 160.957C78.3395 161.184 72.7466 153.671 67.3244 146.379C62.7733 140.278 58.4746 134.511 53.5395 134.009C51.2213 133.775 48.9173 134.72 46.4853 136.879C42.7982 140.164 40.9137 144.249 40.8853 149.024C40.7928 164.331 59.6408 182.262 61.1946 183.712Z" fill="black"/>
<path opacity="0.21" d="M90.4462 68.1891C90.4462 68.1891 110.62 68.3135 107.193 51.0584C105.625 43.1615 101.906 39.6309 98.3289 38.1162C95.168 38.3367 91.552 38.358 88.7964 40.6549C84.6115 44.1429 85.3756 52.4807 84.4512 64.278C86.2894 65.8122 88.3015 67.1249 90.4462 68.1891Z" fill="black"/>
<path d="M76.3393 77.8918C76.3393 77.8918 98.6931 90.9834 109.292 81.4723C109.292 81.4723 111.308 90.3292 112.848 95.467C114.387 100.605 120.823 111.648 119.049 116.224L112.314 142.279C112.314 142.279 101.648 147.727 97.3562 159.186C95.1695 164.967 87.6993 164.114 83.7953 164.256C79.8913 164.399 68.6806 165.831 67.4966 157.433C66.718 151.904 61.4309 139.908 58.1277 135.851C57.9133 135.581 57.6549 135.349 57.3633 135.165C57.3633 135.165 57.2886 117.778 66.0033 101.558C74.718 85.3372 76.3393 77.8918 76.3393 77.8918Z" fill="#F1443D"/>
<path d="M79.2286 164.783C74.3397 164.783 68.0357 163.816 67.1397 157.476C66.3931 152.164 61.1806 140.161 57.8491 136.068C57.6727 135.852 57.4693 135.66 57.2446 135.496L56.9922 135.418V135.162C56.9922 134.987 57.0171 117.494 65.6749 101.384C74.2544 85.4123 75.9611 77.8888 75.986 77.8176L76.0891 77.3376L76.5122 77.5865C76.7326 77.7145 98.7628 90.4363 109.049 81.2061L109.497 80.8008L109.632 81.391C109.654 81.4799 111.662 90.2976 113.166 95.3679C113.622 96.9074 114.55 99.0337 115.531 101.288C117.924 106.781 120.637 113.021 119.367 116.331L112.612 142.525L112.47 142.596C112.363 142.653 101.888 148.122 97.6784 159.307C95.7051 164.563 89.554 164.573 85.4864 164.584C84.882 164.584 84.3166 164.584 83.8153 164.602C83.4597 164.602 83.0722 164.637 82.6277 164.662C81.6642 164.715 80.4944 164.783 79.2286 164.783ZM57.7211 134.959C57.9725 135.153 58.2014 135.375 58.4037 135.62C61.8633 139.866 67.0722 151.866 67.8473 157.377C68.882 164.708 78.1371 164.2 82.5815 163.955L83.7833 163.894C84.2953 163.876 84.85 163.876 85.4757 163.876C89.5824 163.876 95.2037 163.855 97.0064 159.059C101.042 148.331 110.699 142.749 111.993 142.042L118.702 116.086C119.883 113.039 117.113 106.675 114.887 101.565C113.983 99.6086 113.183 97.605 112.491 95.5634C111.204 91.2257 109.55 84.1643 109.078 82.1163C104.615 85.7465 97.6002 86.255 88.7397 83.5812C84.52 82.2742 80.4425 80.5455 76.5691 78.4221C76.0642 80.2923 73.7637 87.8514 66.3149 101.711C58.2437 116.74 57.7495 132.968 57.7211 134.959Z" fill="black"/>
<path opacity="0.38" d="M121.39 139.691C116.871 134.571 112.633 137.696 107.943 142.927C111.232 134.948 115.41 131.193 118.08 123.879C113.632 118.784 110.862 116.363 104.178 116.228C91.8329 115.972 85.2302 126.948 75.0222 132.551C62.4569 139.435 58.7378 134.592 57.8311 133.458C57.76 133.853 57.6925 134.237 57.632 134.614L57.5645 135.613C73.7671 154.994 67.6836 184.068 67.6836 184.068H102.965C102.965 184.068 129.049 148.363 121.39 139.691Z" fill="black"/>
<path d="M100.911 178.162C99.2988 178.318 97.7226 178.732 96.2425 179.389C96.2425 174.575 96.2425 165.878 96.3349 152.669C96.3811 144.929 96.3953 138.248 96.3918 132.829C97.5146 131.744 98.4035 130.441 99.0048 129C99.6057 127.559 99.9057 126.01 99.8869 124.449C99.8869 118.404 95.5385 113.533 90.1731 113.533H89.7998C89.2864 113.495 88.7712 113.563 88.2851 113.732C83.8264 114.717 80.4629 119.137 80.4629 124.438C80.4629 128.306 82.2407 131.706 84.9607 133.643C86.1518 156.004 90.294 180.612 90.8416 183.723C90.6922 183.933 90.6211 184.058 90.6211 184.058H109.554C110.091 182.746 108.214 177.412 100.911 178.162Z" fill="white"/>
<path d="M120.417 58.3008C120.812 56.9994 127.528 57.1807 127.997 58.3008C128.467 59.4208 126.095 63.3283 124.979 63.3283C123.862 63.3283 120.022 59.5914 120.417 58.3008Z" fill="black"/>
<path d="M103.3 51.4421C103.286 52.0612 103.032 52.65 102.59 53.0837C102.148 53.5172 101.555 53.7614 100.936 53.7639C100.633 53.765 100.333 53.7053 100.053 53.5886C99.7729 53.4717 99.5193 53.2999 99.3071 53.0837C99.0945 52.8672 98.9277 52.6105 98.8161 52.3285C98.7044 52.0469 98.6504 51.7454 98.6568 51.4421C98.6688 50.8235 98.9227 50.234 99.364 49.8002C99.8052 49.3661 100.399 49.1221 101.018 49.1204C101.321 49.1197 101.622 49.179 101.902 49.296C102.181 49.4126 102.435 49.5844 102.648 49.8005C102.861 50.0171 103.028 50.2738 103.14 50.5557C103.252 50.8377 103.307 51.1389 103.3 51.4421Z" fill="black"/>
<path opacity="0.21" d="M116.075 52.3172C114.628 50.2763 114.394 45.3234 111.972 42.2656C110.934 40.9501 107.752 39.2043 104.107 38.4576C107.251 40.3563 109.089 48.6585 116.075 52.3172Z" fill="black"/>
<path d="M94.9728 177.234C93.7176 165.903 96.9603 157.906 99.9008 153.195C103.101 148.079 106.539 145.682 106.685 145.583L107.087 146.17C106.948 146.262 93.3265 155.894 95.6803 177.156L94.9728 177.234Z" fill="black"/>
<path d="M112.154 49.3729C113.217 50.4563 114.432 51.3796 115.76 52.1142C115.802 52.0644 115.834 52.004 115.873 51.9507C115.307 50.8591 114.892 49.695 114.64 48.4911C114.454 48.4061 114.253 48.3578 114.049 48.3489C113.674 48.3553 113.307 48.4513 112.977 48.6294C112.647 48.8079 112.365 49.0628 112.154 49.3729Z" fill="black"/>
<path d="M116.565 71.6451L112.91 69.0424C112.89 69.0282 112.873 69.0101 112.86 68.9894C112.847 68.9688 112.839 68.9457 112.835 68.9215C112.83 68.8974 112.831 68.8725 112.837 68.849C112.843 68.8252 112.853 68.8024 112.867 68.7829C112.881 68.7626 112.898 68.7452 112.919 68.732C112.939 68.7189 112.962 68.71 112.986 68.7061C113.01 68.7018 113.035 68.7029 113.058 68.7089C113.082 68.7146 113.104 68.7253 113.123 68.7402L116.601 71.2113L124.423 67.3215L124.86 63.0975C124.862 63.0726 124.869 63.0485 124.88 63.0268C124.892 63.0047 124.908 62.9855 124.927 62.9699C124.947 62.9546 124.969 62.9436 124.993 62.9372C125.017 62.9311 125.042 62.9297 125.066 62.934C125.115 62.9393 125.159 62.9635 125.19 63.0015C125.221 63.0396 125.235 63.0879 125.23 63.1366L124.768 67.5633L116.565 71.6451Z" fill="black"/>
<path d="M125.928 68.843C125.882 68.842 125.838 68.8246 125.804 68.7933L124.488 67.5808C124.452 67.5488 124.429 67.5033 124.426 67.455C124.423 67.4063 124.439 67.3583 124.471 67.3213C124.487 67.3028 124.507 67.2871 124.529 67.2761C124.551 67.2651 124.576 67.2587 124.6 67.2569C124.625 67.2555 124.65 67.2587 124.673 67.2665C124.697 67.2747 124.719 67.2871 124.737 67.3035L126.053 68.5159C126.087 68.5511 126.106 68.5984 126.106 68.6475C126.106 68.6969 126.087 68.7438 126.053 68.779C126.037 68.7975 126.018 68.8128 125.997 68.8235C125.976 68.8345 125.952 68.8413 125.928 68.843Z" fill="black"/>
<path d="M64.75 184.068C64.75 184.068 68.5687 179.126 76.1989 178.351C83.8291 177.576 85.0878 182.675 84.5367 184.068H64.75Z" fill="white"/>
<path d="M84.7756 184.424H64.0254L64.4698 183.851C64.6298 183.642 68.4698 178.778 76.1641 177.999C80.7294 177.533 82.9409 179.108 83.9863 180.509C84.9854 181.842 85.1809 183.403 84.8574 184.2L84.7756 184.424ZM65.5472 183.713H84.2672C84.3518 182.715 84.0503 181.722 83.4245 180.939C82.4823 179.681 80.4734 178.276 76.2352 178.706C72.1993 179.083 68.4204 180.853 65.5472 183.713Z" fill="black"/>
<path d="M98.6523 184.068C98.6523 184.068 102.471 179.126 110.105 178.351C117.739 177.576 118.994 182.675 118.439 184.068H98.6523Z" fill="#919191"/>
<path d="M118.682 184.424H97.9316L98.3725 183.851C98.5325 183.642 102.373 178.778 110.07 177.999C114.632 177.533 116.847 179.108 117.893 180.509C118.888 181.839 119.084 183.403 118.764 184.2L118.682 184.424ZM99.4534 183.713H118.173C118.259 182.713 117.957 181.719 117.331 180.936C116.389 179.681 114.38 178.276 110.141 178.706C106.105 179.083 102.326 180.853 99.4534 183.713Z" fill="black"/>
<path d="M123.606 178.387C121.851 178.559 120.139 179.041 118.55 179.809C118.55 175.005 118.55 166.155 118.643 152.538C118.693 144.31 118.704 137.249 118.704 131.642L118.806 121.899C118.806 121.899 119.098 113.978 119.077 113.789C118.902 112.243 115.418 111.706 113.086 111.827C107.727 112.1 103.372 116.712 103.372 122.739C103.35 124.37 103.677 125.986 104.333 127.48C104.989 128.973 105.957 130.309 107.173 131.396C108.286 156.04 113.217 184.253 113.217 184.253H113.359C113.348 184.27 113.337 184.288 113.328 184.307H132.261C132.787 182.955 130.906 177.647 123.606 178.387Z" fill="white"/>
<path d="M132.484 184.808H112.694L112.861 184.516V184.463C112.8 184.107 106.966 150.376 106.617 124.73H107.328C107.659 149.042 112.932 180.673 113.508 184.058H113.988L113.956 184.111H131.972C132.036 183.563 131.805 182.514 131.015 181.462C130.159 180.321 128.061 178.468 123.645 178.916C121.931 179.08 120.261 179.546 118.71 180.292L118.198 180.538V179.972C118.198 174.909 118.198 166.07 118.29 152.698C118.418 130.778 119.001 113.551 119.001 113.377L119.712 113.402C119.712 113.572 119.143 130.792 119.001 152.701C118.923 165.597 118.909 174.276 118.909 179.414C120.392 178.772 121.965 178.365 123.574 178.209C128.338 177.725 130.639 179.773 131.584 181.035C132.612 182.404 132.864 183.88 132.576 184.591L132.484 184.808Z" fill="black"/>
<path d="M84.6582 125.302C84.9889 149.48 90.2298 180.527 90.8378 184.047C90.6884 184.257 90.6173 184.381 90.6173 184.381H109.551C110.091 183.048 108.214 177.736 100.911 178.479C99.2982 178.633 97.7217 179.047 96.2422 179.706C96.2422 174.888 96.2778 132.687 96.356 119.467" fill="white"/>
<path d="M109.79 184.737H90.0179L90.3272 184.203C90.3272 184.203 90.377 184.118 90.4766 183.965C89.7655 179.862 84.6455 149.192 84.3184 125.299H85.0295C85.3601 149.43 90.6046 180.523 91.2019 183.99V184.029H109.282C109.346 183.482 109.115 182.433 108.325 181.38C107.469 180.239 105.371 178.387 100.955 178.835C99.3808 178.987 97.8419 179.392 96.3966 180.033L95.8952 180.257V179.709C95.8952 174.699 95.9308 132.531 96.009 119.467H96.7201C96.6455 132.143 96.6064 172.235 96.6064 179.169C97.972 178.621 99.4085 178.269 100.873 178.123C105.634 177.643 107.938 179.688 108.884 180.968C109.911 182.34 110.164 183.812 109.876 184.523L109.79 184.737Z" fill="black"/>
<path d="M88.9763 39.524C93.5736 41.22 93.506 73.6324 89.9967 74.2724C81.4065 75.8404 68.2758 63.0475 67.8669 57.5613C67.4758 52.3275 82.3771 37.0849 88.9763 39.524Z" fill="white"/>
<path d="M88.4507 74.7669C83.9814 74.7669 79.3058 71.7092 76.7529 69.7358C71.7076 65.8247 67.736 60.6123 67.5085 57.5794C67.2454 54.0238 73.1618 46.9447 78.6374 42.8203C81.1263 40.9394 85.8054 37.974 89.0978 39.19C92.7671 40.5447 93.3289 57.846 92.5894 66.3581C92.1307 71.6203 91.2809 74.4007 90.0578 74.6247C89.5277 74.72 88.9897 74.7677 88.4507 74.7669ZM87.384 39.6132C85.2329 39.6132 82.3494 40.9109 79.064 43.3856C73.1654 47.83 67.9956 54.5678 68.216 57.5261C68.4258 60.3705 72.2836 65.3838 77.1831 69.1741C81.8907 72.8114 86.5378 74.5429 89.9263 73.9243C90.5307 73.8141 91.4018 71.7518 91.8747 66.294C92.8169 55.4816 91.5796 40.8647 88.8454 39.8549C88.3775 39.6896 87.8839 39.6078 87.3876 39.6132H87.384Z" fill="black"/>
<path opacity="0.21" d="M109.275 73.5189C109.275 73.5189 99.4044 71.8869 93.3066 69.4585C93.3066 69.4585 101.922 74.1092 107.138 86.6354C116.076 108.086 119.035 112.591 119.035 112.591C113.694 98.1625 108.123 88.3847 109.275 73.5189Z" fill="black"/>
<path d="M68.5341 180.833L67.823 180.762C69.5332 163.592 66.4434 152.093 63.5563 145.473C60.4239 138.305 56.8399 135.162 56.8008 135.115L57.2666 134.578C57.4159 134.71 60.9821 137.842 64.1821 145.138C67.1226 151.844 70.2621 163.478 68.5341 180.833Z" fill="black"/>
<path d="M92.6656 100.353V102.131H85.3945V94.0345H92.5056V95.8123H87.9261V97.1777H91.951V98.8843H87.9261V100.363L92.6656 100.353Z" fill="white"/>
<path d="M93.459 101.395L94.2981 99.7057C95.2119 100.218 96.2401 100.492 97.2883 100.502C98.355 100.502 98.7639 100.239 98.7639 99.8443C98.7639 98.5643 93.6119 99.4888 93.6119 96.495C93.6119 95.0514 94.9345 93.8746 97.6261 93.8746C98.7621 93.8582 99.8871 94.1014 100.915 94.5857L100.126 96.2817C99.3445 95.8895 98.4855 95.6769 97.6119 95.6594C96.5452 95.6594 96.1505 95.983 96.1505 96.3883C96.1505 97.6221 101.288 96.6977 101.288 99.6772C101.288 101.099 99.9692 102.291 97.2777 102.291C95.7879 102.283 94.3123 101.924 93.459 101.395Z" fill="white"/>
<path d="M108.541 100.548H104.708L103.997 102.12H101.395L105.395 94.0345H107.919L111.93 102.12H109.263L108.541 100.548ZM107.791 98.863L106.625 96.2746L105.462 98.863H107.791Z" fill="white"/>
</svg>
