<svg width="160" height="223" viewBox="0 0 160 223" fill="none" xmlns="http://www.w3.org/2000/svg">
<path d="M57.5469 135.16C57.5469 135.16 73.106 152.074 68.7078 180.795L57.5469 135.16Z" fill="white"/>
<path d="M57.5469 135.16C57.5469 135.16 73.106 152.074 68.7078 180.795" stroke="black" stroke-width="2" stroke-miterlimit="10"/>
<path d="M61.0562 184.067C61.0562 184.067 37.1665 187.37 29.465 165.076C21.7885 142.861 42.3291 129.165 43.5451 129.987C44.7611 130.808 27.4596 146.477 35.4703 164.251C43.0971 181.176 62.3896 177.46 62.3896 177.46L61.0562 184.067Z" fill="white"/>
<path d="M57.809 184.589C54.5123 184.596 51.2298 184.153 48.0525 183.273C41.6525 181.46 33.1547 176.852 29.1263 165.193C22.4987 145.993 36.6321 133.943 39.5299 131.718C40.0952 131.287 42.9467 129.154 43.7432 129.695C43.7979 129.732 43.8449 129.78 43.8808 129.835C43.9171 129.891 43.9416 129.953 43.953 130.018C44.0347 130.466 43.5974 131.113 42.2961 132.923C38.5272 138.207 29.6952 150.573 35.793 164.105C38.9041 171.007 44.3014 175.295 51.8356 176.852C55.2884 177.554 58.8379 177.642 62.321 177.112L62.8401 177.012L61.3539 184.386L61.105 184.418C60.0109 184.542 58.9101 184.599 57.809 184.589ZM43.1743 130.338C42.0721 130.637 38.3174 133.005 34.7476 137.403C30.1254 143.092 25.5032 152.511 29.7983 164.959C33.7272 176.336 41.9974 180.823 48.2445 182.591C52.3135 183.722 56.5528 184.112 60.7601 183.743L61.937 177.894C58.5347 178.347 55.0808 178.226 51.7183 177.538C46.3672 176.439 39.1494 173.271 35.1459 164.383C28.8774 150.477 37.8765 137.876 41.7201 132.497C42.2456 131.806 42.7313 131.085 43.1743 130.338Z" fill="black"/>
<path d="M106.486 39.5154C102.518 41.2541 102.539 72.6425 105.597 73.2648C113.085 74.7865 118.13 66.0399 118.486 60.703C118.823 55.6292 114.301 36.0914 106.486 39.5154Z" fill="white"/>
<path d="M107.308 73.7906C106.71 73.7902 106.115 73.7309 105.53 73.6128C104.918 73.4884 104.037 72.7026 103.464 67.3408C102.526 58.5479 103.109 40.6137 106.348 39.1879C107.114 38.8324 107.964 38.6937 108.804 38.7869C109.644 38.8804 110.442 39.2025 111.112 39.7177C116.41 43.4368 119.102 56.9017 118.846 60.7239C118.614 64.1479 116.502 69.051 112.901 71.7959C111.309 73.0631 109.342 73.765 107.308 73.7906ZM106.646 39.8422C104.158 40.9302 103.091 56.8697 104.186 67.2626C104.645 71.5755 105.345 72.8448 105.686 72.9159C108.094 73.403 110.38 72.8377 112.485 71.2306C115.916 68.6137 117.932 63.9417 118.149 60.6777C118.43 56.4786 115.482 43.6466 110.718 40.3008C110.148 39.8557 109.465 39.5769 108.747 39.4958C108.028 39.4148 107.301 39.535 106.646 39.8422Z" fill="black"/>
<path d="M127.258 57.8688C125.956 56.091 117.114 54.3559 115.72 52.3186C114.326 50.2812 114.212 45.3212 111.869 42.2635C109.526 39.2057 97.3804 34.8645 89.0889 41.6306C80.2 48.8875 88.968 49.1435 67.4746 101.008C56.808 123.199 57.0355 142.708 57.0355 142.708C64.2711 179.433 105.693 156.863 105.693 156.863C102.465 136.457 120.271 128.322 119.034 112.898C118.575 107.11 107.777 92.8163 109.274 73.531C109.274 73.531 118.372 75.8563 123.076 72.8555C125.868 71.0564 128.726 59.899 127.258 57.8688Z" fill="white"/>
<path d="M80.5114 164.045C76.746 164.045 72.9914 163.43 69.5923 161.833C62.9043 158.697 58.57 152.279 56.6856 142.761V142.697C56.6856 142.502 56.5789 122.85 67.1567 100.841C78.8545 72.6208 81.5958 59.6146 83.0678 52.6279C84.3123 46.7221 84.7318 44.7346 88.8705 41.3532C93.3647 37.6875 98.602 37.4172 102.204 37.8368C107 38.3986 110.911 40.4252 112.159 42.0466C113.546 43.8563 114.168 46.2635 114.716 48.3897C115.1 49.883 115.462 51.2946 116.024 52.1159C116.678 53.0795 119.473 54.075 121.934 54.9603C124.579 55.9026 126.862 56.7168 127.551 57.6697C128.348 58.7648 127.953 61.6306 127.647 63.2412C126.901 67.1523 125.116 71.9737 123.278 73.147C119.011 75.8635 111.47 74.3879 109.606 73.9683C108.718 86.9319 113.446 97.7337 116.586 104.902C118.072 108.301 119.249 110.985 119.398 112.859C119.964 119.938 116.611 125.463 113.059 131.312C108.753 138.402 104.302 145.737 106.051 156.795L106.09 157.044L105.87 157.161C105.695 157.25 93.0411 164.041 80.5114 164.045ZM57.4003 142.658C59.2314 151.903 63.4447 158.157 69.9016 161.19C83.4909 167.568 103.022 157.84 105.311 156.649C103.626 145.478 108.113 138.086 112.451 130.939C115.939 125.193 119.235 119.764 118.691 112.912C118.549 111.156 117.397 108.521 115.935 105.183C112.735 97.8688 107.896 86.8181 108.927 73.4883L108.959 73.0688L109.368 73.1719C109.461 73.1968 118.374 75.4261 122.879 72.5426C124.49 71.515 126.207 66.9355 126.936 63.1026C127.406 60.6137 127.416 58.7043 126.965 58.0786C126.403 57.3035 124.003 56.4501 121.681 55.6217C118.869 54.619 116.209 53.6697 115.42 52.5177C114.79 51.5932 114.428 50.1923 113.998 48.5675C113.468 46.5088 112.867 44.1728 111.569 42.4803C110.396 40.9515 106.531 39.0599 102.094 38.5443C98.6305 38.139 93.5958 38.395 89.2936 41.9043C85.3469 45.1257 84.9736 46.8821 83.7363 52.7737C82.2607 59.7852 79.5087 72.8341 67.7789 101.129C57.4856 122.612 57.386 141.755 57.3896 142.658H57.4003Z" fill="black"/>
<path d="M61.0561 184.066C61.0561 184.066 27.4383 153.392 46.2472 136.631C61.7068 122.857 69.4757 161.111 85.8312 160.603C102.187 160.095 111.051 127.846 121.387 139.693C128.971 148.361 103.122 184.066 103.122 184.066H61.0561Z" fill="white"/>
<path d="M103.321 184.422H60.9208L60.8177 184.329C60.6115 184.141 40.0782 165.218 40.1742 149.037C40.2026 144.059 42.1688 139.792 46.0124 136.365C48.5973 134.061 51.0826 133.062 53.6106 133.321C58.8622 133.855 63.2497 139.739 67.8933 145.972C73.1306 152.994 78.5599 160.251 85.5075 160.251H85.8204C93.3546 160.016 99.3315 152.827 104.601 146.487C108.932 141.275 112.668 136.777 116.601 136.727H116.668C118.428 136.727 120.064 137.623 121.675 139.462C129.355 148.244 104.487 182.811 103.424 184.262L103.321 184.422ZM61.1982 183.711H102.955C104.732 181.222 128.199 148.009 121.138 139.924C119.673 138.249 118.208 137.435 116.665 137.435H116.612C113.006 137.481 109.365 141.862 105.145 146.935C99.7795 153.396 93.6959 160.713 85.8417 160.959H85.4862C78.1653 160.959 72.6471 153.556 67.3066 146.381C62.7555 140.276 58.4604 134.512 53.5217 134.011C51.2071 133.78 48.8995 134.722 46.4675 136.88C42.7804 140.162 40.8959 144.247 40.8675 149.023C40.7928 164.329 59.6408 182.26 61.1982 183.711Z" fill="black"/>
<path opacity="0.21" d="M90.4462 68.187C90.4462 68.187 110.62 68.3115 107.196 51.0599C105.625 43.1595 101.906 39.6288 98.3289 38.1141C95.168 38.3346 91.5733 38.3595 88.7964 40.6564C84.6115 44.1444 85.3756 52.4821 84.4512 64.2759C86.2883 65.8116 88.3008 67.1243 90.4462 68.187Z" fill="black"/>
<path d="M76.3418 77.894C76.3418 77.894 98.692 90.9856 109.295 81.4709C109.295 81.4709 111.307 90.3278 112.832 95.4692C114.358 100.61 120.818 111.65 119.04 116.212L112.285 142.282C112.285 142.282 101.636 147.729 97.3267 159.185C95.1543 164.962 87.684 164.113 83.78 164.251C79.876 164.39 68.6654 165.823 67.4814 157.425C66.7027 151.899 61.4369 139.899 58.1125 135.842C57.8991 135.574 57.6421 135.343 57.3516 135.16C57.3516 135.16 57.2734 117.77 65.988 101.553C74.7027 85.3358 76.3418 77.894 76.3418 77.894Z" fill="#1DAAF1"/>
<path d="M79.2189 164.781C74.33 164.781 68.026 163.818 67.13 157.474C66.3833 152.162 61.1709 140.159 57.8393 136.07C57.6626 135.853 57.4596 135.66 57.2349 135.494L56.9824 135.419V135.16C56.9824 134.986 57.0038 117.496 65.6615 101.382C74.2411 85.414 75.9478 77.8905 75.9726 77.8158L76.0758 77.3394L76.4989 77.5847C76.7193 77.7162 98.7495 90.438 109.036 81.2078L109.484 80.8025L109.619 81.3927C109.64 81.4816 111.649 90.2816 113.153 95.3696C113.843 97.3802 114.639 99.3525 115.539 101.279C117.932 106.772 120.645 113.012 119.375 116.326L112.62 142.516L112.478 142.591C112.371 142.644 101.896 148.113 97.6864 159.302C95.7131 164.561 89.562 164.571 85.4944 164.578C84.8935 164.578 84.3246 164.578 83.8233 164.6C83.4678 164.6 83.0802 164.632 82.6393 164.657C81.6651 164.717 80.4953 164.781 79.2189 164.781ZM57.7113 134.957C57.9609 135.153 58.1895 135.375 58.394 135.618C61.8535 139.885 67.0624 151.864 67.8375 157.375C68.8722 164.71 78.1273 164.198 82.5718 163.953C83.0233 163.928 83.4251 163.906 83.7735 163.896C84.2855 163.896 84.8615 163.874 85.466 163.874C89.5726 163.874 95.194 163.874 96.9966 159.06C101.032 148.33 110.689 142.751 111.983 142.043L118.693 116.088C119.873 113.037 117.103 106.676 114.878 101.563C113.972 99.6071 113.172 97.6035 112.481 95.5616C111.194 91.2238 109.541 84.1625 109.068 82.1145C104.606 85.7447 97.594 86.2567 88.73 83.5829C84.5113 82.2723 80.4342 80.5443 76.5593 78.4238C76.058 80.2905 73.754 87.8496 66.3051 101.713C58.2411 116.738 57.7504 132.973 57.722 134.957H57.7113Z" fill="black"/>
<path opacity="0.38" d="M121.394 139.679C116.871 134.559 112.633 137.681 107.943 142.915C111.232 134.936 115.41 131.181 118.08 123.864C113.632 118.787 110.862 116.365 104.178 116.212C91.8331 115.96 85.2304 126.936 75.0047 132.536C62.4393 139.423 58.7202 134.577 57.8135 133.446C57.7424 133.837 57.6784 134.221 57.6144 134.602L57.5469 135.597C73.7495 154.982 67.666 184.052 67.666 184.052H102.948C102.948 184.052 129.049 148.362 121.394 139.679Z" fill="black"/>
<path d="M100.907 178.164C99.295 178.32 97.7185 178.735 96.2383 179.391C96.2383 174.573 96.2383 165.88 96.3308 152.671C96.377 144.931 96.3912 138.246 96.3912 132.827C97.5127 131.742 98.4012 130.438 99.0014 128.997C99.6019 127.556 99.9016 126.008 99.8828 124.447C99.8828 118.42 95.5343 113.535 90.169 113.535H89.8135C89.3004 113.494 88.7845 113.561 88.2988 113.731C83.8401 114.719 80.4766 119.135 80.4766 124.436C80.4766 128.308 82.2543 131.704 84.9779 133.642C86.1655 156.003 90.3112 180.61 90.8552 183.722C90.7095 183.935 90.6348 184.056 90.6348 184.056H109.568C110.091 182.733 108.213 177.425 100.907 178.164Z" fill="white"/>
<path d="M120.417 58.2887C120.812 56.9874 127.528 57.1723 127.997 58.2887C128.467 59.4052 126.095 63.3159 124.982 63.3159C123.869 63.3159 120.022 59.5901 120.417 58.2887Z" fill="black"/>
<path d="M103.3 51.4407C103.288 52.0597 103.033 52.6489 102.591 53.083C102.149 53.5168 101.555 53.7607 100.936 53.7625C100.633 53.7632 100.332 53.7038 100.053 53.5868C99.7728 53.4698 99.5193 53.2981 99.3071 53.0819C99.0945 52.8654 98.9277 52.6087 98.816 52.3271C98.7044 52.0451 98.6504 51.7436 98.6568 51.4407C98.6699 50.822 98.9241 50.2332 99.365 49.7994C99.8059 49.3657 100.399 49.1214 101.018 49.1189C101.321 49.1178 101.622 49.1772 101.902 49.2942C102.181 49.4112 102.435 49.5826 102.648 49.7991C102.861 50.0153 103.028 50.272 103.14 50.5539C103.252 50.8359 103.307 51.1374 103.3 51.4407Z" fill="black"/>
<path opacity="0.21" d="M116.075 52.3189C114.632 50.278 114.394 45.3216 111.972 42.2638C110.934 40.9482 107.752 39.206 104.107 38.4594C107.251 40.3545 109.085 48.6567 116.075 52.3189Z" fill="black"/>
<path d="M94.9735 177.236C93.722 165.904 96.9611 157.908 99.9015 153.193C103.102 148.077 106.54 145.68 106.686 145.581L107.087 146.167C106.949 146.263 93.3273 155.895 95.6811 177.158L94.9735 177.236Z" fill="black"/>
<path d="M112.156 49.3678C113.218 50.4508 114.431 51.3742 115.758 52.1091C115.801 52.0558 115.833 51.9989 115.872 51.942C115.308 50.8504 114.893 49.6881 114.638 48.486C114.453 48.3999 114.252 48.3502 114.048 48.3402C113.673 48.3466 113.306 48.4433 112.976 48.6222C112.647 48.8014 112.366 49.057 112.156 49.3678Z" fill="black"/>
<path d="M116.552 71.6434L112.897 69.0408C112.857 69.0123 112.83 68.9693 112.821 68.9209C112.813 68.8726 112.824 68.8232 112.852 68.783C112.881 68.7428 112.924 68.7158 112.972 68.7072C113.02 68.6991 113.07 68.7101 113.11 68.7385L116.587 71.2274L124.41 67.3376L124.85 63.1136C124.851 63.0888 124.857 63.0642 124.868 63.0418C124.879 63.0194 124.895 62.9999 124.914 62.9839C124.933 62.9682 124.955 62.9565 124.98 62.9501C125.003 62.9437 125.029 62.9423 125.053 62.9465C125.077 62.949 125.101 62.9565 125.122 62.9686C125.144 62.9803 125.163 62.9963 125.178 63.0155C125.193 63.0347 125.205 63.0568 125.211 63.0802C125.218 63.1037 125.22 63.1286 125.217 63.1528L124.758 67.5794L116.552 71.6434Z" fill="black"/>
<path d="M125.916 68.8412C125.87 68.8415 125.826 68.8252 125.791 68.795L124.476 67.5825C124.441 67.5473 124.422 67.5 124.422 67.451C124.422 67.4019 124.441 67.3546 124.476 67.3194C124.493 67.302 124.513 67.2881 124.536 67.2789C124.558 67.2693 124.583 67.2646 124.607 67.2646C124.632 67.2646 124.656 67.2693 124.679 67.2789C124.701 67.2881 124.722 67.302 124.739 67.3194L126.054 68.5319C126.088 68.5671 126.108 68.6143 126.108 68.6634C126.108 68.7128 126.088 68.7598 126.054 68.795C126.035 68.8117 126.013 68.8245 125.99 68.8323C125.966 68.8405 125.94 68.8433 125.916 68.8412Z" fill="black"/>
<path d="M64.75 184.066C64.75 184.066 68.5687 179.124 76.1989 178.353C83.8291 177.581 85.0878 182.673 84.5367 184.066H64.75Z" fill="white"/>
<path d="M84.7756 184.422H64.0254L64.4698 183.85C64.6298 183.643 68.4698 178.779 76.1641 177.997C80.7294 177.535 82.941 179.11 83.9863 180.511C84.9854 181.841 85.181 183.405 84.8574 184.202L84.7756 184.422ZM65.5472 183.711H84.2672C84.3518 182.713 84.0503 181.72 83.4245 180.938C82.4823 179.682 80.4734 178.274 76.2387 178.705C72.2025 179.083 68.4229 180.853 65.5472 183.711Z" fill="black"/>
<path d="M98.6562 184.066C98.6562 184.066 102.475 179.124 110.105 178.353C117.735 177.581 118.994 182.673 118.439 184.066H98.6562Z" fill="#919191"/>
<path d="M118.685 184.422H97.9316L98.3725 183.85C98.5325 183.643 102.376 178.779 110.07 177.997C114.636 177.535 116.847 179.11 117.893 180.511C118.892 181.841 119.087 183.405 118.764 184.202L118.685 184.422ZM99.457 183.711H118.177C118.262 182.713 117.96 181.72 117.334 180.938C116.392 179.682 114.383 178.274 110.145 178.705C106.108 179.082 102.328 180.852 99.4534 183.711H99.457Z" fill="black"/>
<path d="M123.605 178.388C121.849 178.561 120.137 179.043 118.549 179.811C118.549 175.003 118.549 166.157 118.641 152.539C118.691 144.308 118.705 137.251 118.702 131.64L118.805 121.901C118.805 121.901 119.1 113.976 119.079 113.791C118.901 112.244 115.42 111.707 113.084 111.825C107.726 112.102 103.37 116.714 103.37 122.74C103.349 124.371 103.677 125.987 104.332 127.48C104.988 128.972 105.956 130.307 107.171 131.395C108.287 156.042 113.215 184.255 113.215 184.255H113.358L113.326 184.305H132.259C132.785 182.957 130.908 177.649 123.605 178.388Z" fill="white"/>
<path d="M132.484 184.806H112.69L112.861 184.515V184.461C112.8 184.106 106.966 150.374 106.617 124.728H107.328C107.659 149.044 112.935 180.671 113.511 184.059H113.988L113.956 184.109H131.975C132.039 183.562 131.808 182.513 131.019 181.464C130.162 180.319 128.068 178.467 123.648 178.915C121.936 179.081 120.265 179.547 118.713 180.291L118.201 180.539V179.971C118.201 174.968 118.201 166.175 118.294 152.696C118.425 130.779 119.005 113.549 119.005 113.379L119.716 113.4C119.716 113.574 119.151 130.794 119.005 152.699C118.927 165.691 118.912 174.328 118.912 179.416C120.395 178.772 121.969 178.364 123.577 178.207C128.342 177.727 130.642 179.771 131.588 181.051C132.615 182.424 132.868 183.896 132.583 184.607L132.484 184.806Z" fill="black"/>
<path d="M84.6582 125.3C84.9889 149.478 90.2298 180.525 90.8378 184.049C90.692 184.258 90.6173 184.383 90.6173 184.383H109.551C110.091 183.046 108.214 177.738 100.911 178.477C99.2986 178.633 97.7224 179.047 96.2422 179.704C96.2422 174.886 96.2778 132.689 96.356 119.466" fill="white"/>
<path d="M109.796 184.739H90.0023L90.3116 184.205C90.3116 184.205 90.3614 184.116 90.4609 183.967C89.7498 179.864 84.6298 149.211 84.3027 125.3H85.0138C85.3445 149.453 90.5925 180.529 91.1863 183.992V184.031H109.266C109.33 183.48 109.099 182.435 108.31 181.382C107.453 180.237 105.359 178.385 100.939 178.836C99.3655 178.988 97.8266 179.392 96.3809 180.031L95.8796 180.259V179.707C95.8796 174.687 95.9152 132.475 95.9934 119.469H96.7045C96.6298 132.091 96.5907 172.227 96.5907 179.167C97.9564 178.62 99.3928 178.27 100.857 178.125C105.625 177.642 107.922 179.686 108.868 180.952C109.896 182.321 110.148 183.796 109.864 184.507L109.796 184.739Z" fill="black"/>
<path d="M88.9759 39.5225C93.5768 41.2221 93.5056 73.6345 89.9963 74.2745C81.4061 75.8425 68.2754 63.0461 67.8665 57.5634C67.4861 52.3261 82.3768 37.0834 88.9759 39.5225Z" fill="white"/>
<path d="M88.4624 74.7651C83.9931 74.7651 79.3175 71.707 76.7646 69.7372C71.7229 65.8261 67.7477 60.6104 67.5202 57.5776C67.2571 54.022 73.1735 46.9429 78.6491 42.8184C81.138 40.9411 85.8171 37.9722 89.1095 39.1882C92.7789 40.5429 93.3406 57.8478 92.6011 66.3562C92.1424 71.6184 91.2926 74.4024 90.0695 74.6229C89.5394 74.72 89.0014 74.7676 88.4624 74.7651ZM87.3957 39.6149C85.2446 39.6149 82.3611 40.9091 79.0757 43.3873C73.1771 47.8282 68.0073 54.5696 68.2277 57.5242C68.4411 60.3687 72.2953 65.3856 77.1984 69.1722C81.9024 72.8131 86.5495 74.5447 89.938 73.926C90.5424 73.8158 91.4135 71.7496 91.8864 66.2954C92.8286 55.4794 91.5913 40.8664 88.8606 39.8567C88.3906 39.6896 87.8946 39.6074 87.3957 39.6149Z" fill="black"/>
<path opacity="0.21" d="M109.273 73.5171C109.273 73.5171 99.4025 71.8887 93.3047 69.4567C93.3047 69.4567 101.92 74.1109 107.139 86.6371C116.074 108.088 119.033 112.593 119.033 112.593C113.706 98.1607 108.121 88.3864 109.273 73.5171Z" fill="black"/>
<path d="M68.5517 180.831L67.8406 180.76C69.5472 163.594 66.4575 152.095 63.5739 145.471C60.4415 138.303 56.8575 135.16 56.8184 135.117L57.2841 134.577C57.4335 134.708 60.9997 137.841 64.1997 145.137C67.1295 151.842 70.2619 163.48 68.5517 180.831Z" fill="black"/>
<path d="M89.9062 101.354L90.8627 99.4194C91.9045 100.006 93.0771 100.32 94.2725 100.333C95.4814 100.333 95.9543 100.027 95.9543 99.5759C95.9543 98.1074 90.0805 99.1812 90.0805 95.7359C90.0805 94.0825 91.588 92.7314 94.6565 92.7314C95.956 92.7073 97.2431 92.9835 98.4183 93.5385L97.5187 95.487C96.6359 95.0397 95.6638 94.7969 94.6743 94.7759C93.4476 94.7759 93.0067 95.1314 93.0067 95.6114C93.0067 97.0337 98.8627 95.967 98.8627 99.3875C98.8627 101.002 97.3587 102.378 94.2903 102.378C92.5623 102.371 90.8769 101.962 89.9062 101.354Z" fill="white"/>
<path d="M107.101 100.386H102.732L101.921 102.186H98.9414L103.5 92.9163H106.376L110.952 102.186H107.912L107.101 100.386ZM106.241 98.4523L104.912 95.4869L103.585 98.4523H106.241Z" fill="white"/>
</svg>
