<svg width="160" height="223" viewBox="0 0 160 223" fill="none" xmlns="http://www.w3.org/2000/svg">
<path d="M61.0564 184.067C61.0564 184.067 37.163 187.37 29.4618 165.076C21.789 142.861 42.3257 129.165 43.5453 129.987C44.7648 130.808 27.46 146.481 35.4849 164.259C43.1115 181.183 62.4004 177.467 62.4004 177.467L61.0564 184.067Z" fill="white"/>
<path d="M57.8103 184.589C54.5121 184.595 51.2289 184.153 48.0503 183.273C41.6503 181.46 33.156 176.852 29.1276 165.193C22.5 145.993 36.6298 133.943 39.5312 131.718C40.0965 131.287 42.9481 129.154 43.7445 129.695C43.7993 129.732 43.8462 129.78 43.8821 129.835C43.9184 129.891 43.9425 129.953 43.9543 130.018C44.0325 130.466 43.5987 131.113 42.2974 132.923C38.5249 138.207 29.6965 150.573 35.7943 164.105C38.9054 171.007 44.3027 175.295 51.8369 176.852C55.2897 177.554 58.8389 177.642 62.3223 177.112L62.8414 177.012L61.3552 184.386L61.1063 184.418C60.0119 184.542 58.9114 184.598 57.8103 184.589ZM43.1756 130.338C42.0734 130.637 38.3187 133.005 34.7454 137.403C30.1231 143.092 25.5009 152.511 29.7996 164.959C33.7107 176.336 41.9987 180.824 48.2458 182.591C52.3141 183.72 56.5516 184.11 60.7578 183.743L61.9383 177.894C58.536 178.347 55.0821 178.227 51.7196 177.538C46.3685 176.439 39.1472 173.271 35.1471 164.383C28.8787 150.477 37.8778 137.876 41.7178 132.497C42.2423 131.804 42.7287 131.083 43.1756 130.338Z" fill="black"/>
<path d="M106.486 39.5154C102.518 41.2541 102.539 72.6425 105.597 73.2648C113.063 74.7865 118.127 66.0399 118.486 60.703C118.823 55.6292 114.301 36.0914 106.486 39.5154Z" fill="white"/>
<path d="M107.307 73.7906C106.71 73.7902 106.114 73.7309 105.529 73.6128C104.914 73.4884 104.032 72.7026 103.46 67.3408C102.525 58.5479 103.104 40.6137 106.347 39.1879C107.113 38.8324 107.963 38.6937 108.803 38.7869C109.643 38.8804 110.441 39.2025 111.111 39.7177C116.409 43.4368 119.097 56.8981 118.845 60.7239C118.613 64.1479 116.498 69.0475 112.9 71.7959C111.308 73.0624 109.341 73.7639 107.307 73.7906ZM106.645 39.8422C104.157 40.9302 103.09 56.8697 104.181 67.2661C104.644 71.5755 105.344 72.8448 105.685 72.9159C108.089 73.403 110.375 72.8377 112.48 71.2306C115.915 68.6137 117.931 63.9417 118.148 60.6777C118.429 56.4786 115.481 43.6466 110.717 40.3008C110.148 39.8532 109.465 39.5734 108.746 39.4923C108.027 39.4112 107.3 39.5325 106.645 39.8422Z" fill="black"/>
<path d="M127.253 57.8688C125.952 56.091 117.113 54.3559 115.719 52.3186C114.325 50.2812 114.211 45.3212 111.868 42.2635C109.525 39.2057 97.3759 34.8645 89.0879 41.6306C80.199 48.8839 88.967 49.1399 67.4701 101.008C56.8035 123.199 57.0346 142.708 57.0346 142.708C64.2701 179.433 105.689 156.863 105.689 156.863C102.46 136.457 120.267 128.322 119.033 112.898C118.571 107.11 107.776 92.8163 109.273 73.531C109.273 73.531 118.371 75.8563 123.075 72.8555C125.863 71.0599 128.725 59.899 127.253 57.8688Z" fill="white"/>
<path d="M80.512 164.045C76.7467 164.045 72.992 163.43 69.5929 161.833C62.9013 158.697 58.5707 152.279 56.6827 142.761V142.697C56.6827 142.502 56.576 122.85 67.1538 100.841C78.8515 72.6208 81.5929 59.6146 83.0649 52.6279C84.3093 46.7221 84.7289 44.7346 88.8675 41.3532C93.3618 37.6875 98.5956 37.4172 102.201 37.8368C106.997 38.3986 110.908 40.4252 112.156 42.0466C113.543 43.8563 114.162 46.2635 114.709 48.3897C115.093 49.883 115.46 51.2946 116.018 52.1159C116.676 53.0795 119.467 54.075 121.931 54.9603C124.576 55.9026 126.859 56.7168 127.548 57.6697C128.345 58.7648 127.95 61.6306 127.644 63.2412C126.898 67.1523 125.113 71.9737 123.275 73.147C119.008 75.8635 111.467 74.3879 109.604 73.9648C108.715 86.9319 113.444 97.7337 116.583 104.898C118.069 108.297 119.246 110.982 119.396 112.855C119.961 119.935 116.604 125.46 113.056 131.309C108.75 138.399 104.299 145.734 106.048 156.791L106.087 157.04L105.867 157.158C105.696 157.25 93.0382 164.041 80.512 164.045ZM57.4009 142.658C59.2355 151.924 63.4453 158.157 69.9058 161.19C83.5022 167.568 103.026 157.84 105.316 156.653C103.63 145.474 108.117 138.086 112.455 130.939C115.943 125.193 119.239 119.764 118.692 112.912C118.553 111.156 117.401 108.521 115.94 105.183C112.74 97.8688 107.897 86.8181 108.932 73.4883L108.964 73.0688L109.372 73.1719C109.461 73.1932 118.379 75.4261 122.884 72.5426C124.494 71.5115 126.212 66.9355 126.94 63.1026C127.41 60.6137 127.42 58.7043 126.965 58.0786C126.404 57.3035 124.004 56.4501 121.685 55.6217C118.869 54.619 116.213 53.6697 115.424 52.5177C114.795 51.5932 114.432 50.1923 114.002 48.5675C113.468 46.5088 112.868 44.1728 111.57 42.4803C110.4 40.9515 106.535 39.0599 102.098 38.5443C98.6347 38.139 93.6 38.395 89.2978 41.9043C85.3547 45.1257 84.9813 46.8821 83.744 52.7737C82.2649 59.7852 79.5164 72.8341 67.7867 101.129C57.4827 122.594 57.3867 141.755 57.3867 142.658H57.4009Z" fill="black"/>
<path d="M61.0556 184.066C61.0556 184.066 27.4342 153.389 46.2467 136.631C61.7027 122.857 69.4716 161.111 85.8307 160.603C102.19 160.095 111.047 127.846 121.404 139.693C128.988 148.361 103.136 184.066 103.136 184.066H61.0556Z" fill="white"/>
<path d="M103.317 184.422H60.9173L60.8177 184.33C60.6079 184.141 40.0782 165.218 40.1742 149.037C40.2026 144.059 42.1653 139.793 46.0088 136.365C48.5973 134.061 51.0862 133.066 53.6106 133.322C58.8586 133.855 63.2462 139.722 67.8933 145.972C73.1271 152.994 78.5386 160.251 85.5075 160.251H85.8204C93.3546 160.017 99.3315 152.827 104.597 146.488C108.928 141.275 112.668 136.778 116.601 136.728C118.379 136.728 120.046 137.599 121.671 139.462C129.355 148.244 104.487 182.811 103.424 184.262L103.317 184.422ZM61.1946 183.711H102.955C104.732 181.222 128.199 148.01 121.138 139.924C119.673 138.25 118.208 137.435 116.665 137.435H116.608C113.006 137.482 109.365 141.862 105.145 146.936C99.7795 153.396 93.696 160.714 85.8417 160.959C78.3502 161.19 72.7466 153.67 67.3244 146.381C62.7733 140.28 58.4746 134.516 53.5395 134.015C51.2177 133.777 48.9173 134.726 46.4817 136.881C42.7982 140.166 40.9137 144.251 40.8853 149.026C40.7928 164.33 59.6408 182.26 61.1946 183.711Z" fill="black"/>
<path opacity="0.21" d="M90.4458 68.187C90.4458 68.187 110.62 68.3115 107.193 51.0599C105.625 43.1595 101.906 39.6288 98.3289 38.1141C95.1644 38.3346 91.5516 38.3595 88.7961 40.6564C84.6112 44.1444 85.3721 52.4786 84.4512 64.2759C86.2883 65.8116 88.3008 67.1243 90.4458 68.187Z" fill="black"/>
<path d="M76.3379 77.8901C76.3379 77.8901 98.6917 90.9853 109.291 81.4706C109.291 81.4706 111.307 90.3275 112.846 95.4688C114.386 100.61 120.818 111.636 119.04 116.223L112.285 142.281C112.285 142.281 101.618 147.728 97.3263 159.184C95.1539 164.962 87.6837 164.112 83.7797 164.251C79.8757 164.39 68.665 165.823 67.481 157.424C66.7023 151.899 61.4152 139.899 58.1121 135.842C57.8984 135.572 57.6399 135.342 57.3477 135.159C57.3477 135.159 57.273 117.769 65.9877 101.552C74.7023 85.3355 76.3379 77.8901 76.3379 77.8901Z" fill="#50AE54"/>
<path d="M79.2189 164.781C74.3264 164.781 68.0224 163.818 67.13 157.474C66.3798 152.162 61.1709 140.159 57.8393 136.07C57.6622 135.852 57.4582 135.659 57.2313 135.494L56.9824 135.419V135.16C56.9824 134.986 57.0073 117.496 65.6651 101.382C74.2446 85.414 75.9513 77.8905 75.9762 77.8158L76.0793 77.3394L76.5024 77.5847C76.7229 77.7162 98.7531 90.438 109.039 81.2078L109.487 80.8025L109.622 81.3927C109.644 81.4816 111.649 90.2816 113.157 95.366C113.839 97.3799 114.628 99.3561 115.521 101.286C117.914 106.779 120.623 113.019 119.358 116.333L112.602 142.523L112.46 142.598C112.353 142.651 101.878 148.12 97.6686 159.309C95.6917 164.568 89.5442 164.578 85.4766 164.586C84.8722 164.586 84.3069 164.586 83.8055 164.607C83.45 164.607 83.0624 164.639 82.618 164.664C81.6651 164.717 80.4953 164.781 79.2189 164.781ZM57.7078 134.957C57.9556 135.156 58.1842 135.377 58.3904 135.618C61.85 139.885 67.0553 151.864 67.834 157.375C68.8651 164.71 78.1202 164.198 82.5682 163.953C83.0162 163.928 83.4215 163.906 83.7664 163.896C84.282 163.896 84.8544 163.874 85.4624 163.874C89.5691 163.874 95.1904 163.857 96.9931 159.06C101.029 148.33 110.686 142.751 111.98 142.043L118.689 116.088C119.87 113.037 117.1 106.676 114.874 101.563C113.968 99.6071 113.168 97.6035 112.478 95.5616C111.19 91.2238 109.537 84.1625 109.064 82.1145C104.602 85.7447 97.5869 86.2531 88.7229 83.5829C84.5053 82.2727 80.4295 80.5443 76.5558 78.4238C76.0509 80.2905 73.7504 87.8496 66.3015 101.713C58.2411 116.738 57.7504 132.97 57.722 134.957H57.7078Z" fill="black"/>
<path opacity="0.38" d="M121.39 139.693C116.871 134.573 112.633 137.695 107.943 142.929C111.232 134.946 115.41 131.195 118.08 123.878C113.628 118.783 110.862 116.365 104.178 116.226C91.8329 115.974 85.2302 126.95 75.0222 132.55C62.4569 139.437 58.7378 134.591 57.8311 133.46C57.76 133.851 57.6925 134.235 57.632 134.616L57.5645 135.611C73.7671 154.996 67.6836 184.066 67.6836 184.066H102.965C102.965 184.066 129.049 148.362 121.39 139.693Z" fill="black"/>
<path d="M100.907 178.164C99.2943 178.318 97.7178 178.732 96.2383 179.391C96.2383 174.573 96.2383 165.88 96.3272 152.671C96.3735 144.93 96.3912 138.246 96.3877 132.827C97.5105 131.742 98.3994 130.439 99.0007 128.998C99.6015 127.557 99.902 126.008 99.8828 124.447C99.8828 118.42 95.5343 113.535 90.169 113.535H89.8135C89.3004 113.494 88.7845 113.561 88.2988 113.73C83.8366 114.719 80.4766 119.135 80.4766 124.436C80.4766 128.308 82.2543 131.704 84.9743 133.642C86.1655 156.002 90.3077 180.61 90.8552 183.722C90.7059 183.935 90.6348 184.056 90.6348 184.056H109.568C110.091 182.747 108.213 177.414 100.907 178.164Z" fill="white"/>
<path d="M120.416 58.3029C120.811 57.0016 127.545 57.1864 127.996 58.3029C128.448 59.4193 126.094 63.3305 124.978 63.3305C123.861 63.3305 120.021 59.59 120.416 58.3029Z" fill="black"/>
<path d="M103.299 51.4407C103.286 52.0597 103.032 52.6489 102.59 53.083C102.148 53.5168 101.554 53.7607 100.934 53.7625C100.631 53.7632 100.331 53.7038 100.051 53.5868C99.7708 53.4702 99.5169 53.2985 99.3043 53.0819C99.0917 52.8657 98.9245 52.609 98.8122 52.3271C98.7002 52.0451 98.6458 51.744 98.6518 51.4407C98.665 50.8213 98.9196 50.2322 99.3615 49.798C99.8031 49.3642 100.397 49.1203 101.016 49.1189C101.32 49.1178 101.62 49.1772 101.9 49.2942C102.18 49.4112 102.434 49.5826 102.647 49.7991C102.859 50.0153 103.027 50.272 103.139 50.5539C103.251 50.8359 103.305 51.1374 103.299 51.4407Z" fill="black"/>
<path opacity="0.21" d="M116.075 52.3186C114.628 50.2777 114.394 45.3212 111.972 42.2634C110.934 40.9479 107.748 39.2057 104.107 38.4554C107.251 40.3541 109.085 48.6599 116.075 52.3186Z" fill="black"/>
<path d="M94.9718 177.236C93.7167 165.904 96.9593 157.908 99.8998 153.193C103.1 148.077 106.538 145.68 106.684 145.581L107.086 146.167C106.947 146.263 93.3256 155.895 95.6793 177.158L94.9718 177.236Z" fill="black"/>
<path d="M112.154 49.3748C113.217 50.4568 114.432 51.3791 115.76 52.1126C115.8 52.06 115.838 52.0052 115.873 51.9491C115.306 50.8589 114.891 49.6959 114.64 48.4931C114.458 48.4084 114.263 48.359 114.064 48.3473C113.686 48.3512 113.315 48.4465 112.982 48.6257C112.65 48.8045 112.365 49.0616 112.154 49.3748Z" fill="black"/>
<path d="M116.552 71.6434L112.897 69.0408C112.877 69.0265 112.86 69.0088 112.847 68.9885C112.834 68.9679 112.825 68.9451 112.821 68.9209C112.817 68.8971 112.818 68.8726 112.823 68.8488C112.828 68.8253 112.838 68.8029 112.852 68.783C112.866 68.7631 112.884 68.746 112.904 68.7332C112.925 68.7204 112.948 68.7115 112.972 68.7072C112.996 68.7033 113.02 68.7037 113.044 68.709C113.068 68.7144 113.09 68.7243 113.11 68.7385L116.587 71.2274L124.409 67.3376L124.847 63.1136C124.848 63.0884 124.854 63.0639 124.866 63.0418C124.877 63.0194 124.893 62.9995 124.913 62.9839C124.932 62.9679 124.955 62.9565 124.979 62.9501C125.003 62.9437 125.028 62.9423 125.053 62.9465C125.078 62.949 125.101 62.9565 125.122 62.9686C125.144 62.9803 125.163 62.9963 125.178 63.0155C125.193 63.0347 125.204 63.0568 125.211 63.0802C125.218 63.1037 125.219 63.1282 125.217 63.1528L124.754 67.5794L116.552 71.6434Z" fill="black"/>
<path d="M125.917 68.8412C125.871 68.8415 125.827 68.8252 125.792 68.795L124.473 67.5825C124.439 67.5473 124.42 67.5 124.42 67.451C124.42 67.4019 124.439 67.3546 124.473 67.3194C124.491 67.302 124.511 67.2881 124.534 67.2789C124.556 67.2693 124.58 67.2646 124.605 67.2646C124.629 67.2646 124.654 67.2693 124.676 67.2789C124.699 67.2881 124.719 67.302 124.736 67.3194L126.055 68.5318C126.09 68.567 126.109 68.6143 126.109 68.6634C126.109 68.7128 126.09 68.7598 126.055 68.795C126.017 68.828 125.967 68.8447 125.917 68.8412Z" fill="black"/>
<path d="M64.75 184.066C64.75 184.066 68.5687 179.124 76.1989 178.353C83.8291 177.581 85.0878 182.673 84.5331 184.066H64.75Z" fill="white"/>
<path d="M84.7746 184.422H64.0244L64.4689 183.85C64.6289 183.643 68.4689 178.779 76.1631 177.997C80.7284 177.535 82.94 179.11 83.9853 180.511C84.9844 181.841 85.18 183.405 84.8564 184.202L84.7746 184.422ZM65.5462 183.711H84.2662C84.3508 182.713 84.0493 181.72 83.4235 180.938C82.4813 179.683 80.4724 178.275 76.2342 178.705C72.1986 179.083 68.4201 180.853 65.5462 183.711Z" fill="black"/>
<path d="M98.6533 184.066C98.6533 184.066 102.472 179.124 110.106 178.353C117.74 177.581 118.995 182.673 118.44 184.066H98.6533Z" fill="#919191"/>
<path d="M118.685 184.422H97.9385L98.3794 183.85C98.5394 183.643 102.379 178.779 110.077 177.997C114.639 177.535 116.854 179.11 117.899 180.511C118.895 181.841 119.09 183.405 118.77 184.202L118.685 184.422ZM99.4603 183.711H118.177C118.262 182.713 117.962 181.721 117.338 180.938C116.395 179.683 114.386 178.275 110.148 178.705C106.11 179.081 102.329 180.851 99.4531 183.711H99.4603Z" fill="black"/>
<path d="M123.606 178.388C121.85 178.56 120.138 179.042 118.55 179.81C118.55 175.003 118.55 166.157 118.642 152.539C118.688 144.308 118.703 137.25 118.703 131.64L118.806 121.901C118.806 121.901 119.097 113.976 119.076 113.791C118.902 112.244 115.417 111.704 113.085 111.825C107.726 112.102 103.371 116.71 103.371 122.74C103.349 124.37 103.677 125.987 104.332 127.48C104.988 128.973 105.956 130.308 107.172 131.394C108.285 156.042 113.216 184.255 113.216 184.255H113.358L113.327 184.305H132.26C132.786 182.957 130.909 177.645 123.606 178.388Z" fill="white"/>
<path d="M132.484 184.806H112.697L112.861 184.518V184.461C112.8 184.106 106.966 150.374 106.617 124.728H107.328C107.659 149.044 112.932 180.671 113.508 184.059H113.991L113.959 184.109H131.975C132.039 183.562 131.808 182.513 131.019 181.46C130.162 180.319 128.064 178.467 123.648 178.915C121.936 179.081 120.265 179.547 118.713 180.291L118.201 180.539V179.971C118.201 174.911 118.201 166.072 118.294 152.696C118.422 130.776 118.983 113.549 119.005 113.379L119.716 113.4C119.716 113.574 119.147 130.794 119.005 152.699C118.927 165.595 118.912 174.275 118.912 179.416C120.395 178.772 121.969 178.364 123.577 178.207C128.342 177.727 130.642 179.771 131.588 181.051C132.615 182.424 132.868 183.896 132.58 184.607L132.484 184.806Z" fill="black"/>
<path d="M84.6592 125.3C84.9898 149.478 90.2307 180.525 90.8387 184.048C90.6894 184.258 90.6183 184.383 90.6183 184.383H109.552C110.092 183.046 108.215 177.737 100.912 178.477C99.2995 178.633 97.7234 179.047 96.2432 179.703C96.2432 174.886 96.2784 132.688 96.3566 119.465" fill="white"/>
<path d="M109.796 184.738H90.0056L90.3185 184.202C90.3185 184.202 90.3682 184.116 90.4678 183.967C89.7567 179.864 84.6367 149.19 84.3096 125.3H85.0207C85.3513 149.432 90.5958 180.525 91.1931 183.992V184.031H109.273C109.337 183.48 109.106 182.434 108.317 181.382C107.46 180.237 105.366 178.388 100.946 178.836C99.3723 178.988 97.8335 179.391 96.3878 180.031L95.8865 180.258V179.707C95.8865 174.687 95.922 132.475 96.0002 119.469H96.7113C96.6367 132.091 96.5976 172.226 96.5976 179.167C97.9636 178.62 99.4001 178.269 100.864 178.125C105.625 177.642 107.929 179.69 108.875 180.97C109.902 182.338 110.155 183.814 109.867 184.525L109.796 184.738Z" fill="black"/>
<path d="M88.9749 39.5225C93.5722 41.2221 93.5047 73.6345 89.9953 74.2745C81.4051 75.8425 68.2744 63.0461 67.8656 57.5634C67.4851 52.3261 82.3722 37.0834 88.9749 39.5225Z" fill="white"/>
<path d="M88.4624 74.7651C83.9931 74.7651 79.3175 71.707 76.7646 69.7372C71.7193 65.8261 67.7477 60.6104 67.5202 57.5776C67.2571 54.022 73.1735 46.9429 78.6491 42.8184C81.138 40.9411 85.8135 37.9722 89.1095 39.1882C92.7753 40.5429 93.3371 57.8478 92.5975 66.3562C92.1424 71.6184 91.2891 74.4024 90.0695 74.6229C89.539 74.7182 89.0011 74.7658 88.4624 74.7651ZM87.3957 39.6149C85.2624 39.6149 82.3611 40.9091 79.0757 43.3873C73.1771 47.8282 68.0073 54.5696 68.2277 57.5242C68.4375 60.3687 72.2953 65.3855 77.1948 69.1722C81.9024 72.8131 86.5495 74.5447 89.938 73.926C90.5424 73.8158 91.4135 71.7496 91.8864 66.2954C92.8251 55.4794 91.5877 40.8664 88.8571 39.8567C88.3881 39.6892 87.8932 39.6071 87.3957 39.6149Z" fill="black"/>
<path opacity="0.21" d="M109.272 73.5171C109.272 73.5171 99.4021 71.8887 93.3008 69.4567C93.3008 69.4567 101.919 74.1109 107.135 86.6371C116.074 108.088 119.032 112.593 119.032 112.593C113.706 98.1607 108.117 88.3864 109.272 73.5171Z" fill="black"/>
<path d="M68.5517 180.831L67.8406 180.76C69.5508 163.593 66.461 152.095 63.5739 145.471C60.4415 138.303 56.8575 135.16 56.8184 135.117L57.2841 134.576C57.4335 134.708 60.9997 137.84 64.1997 145.136C67.1295 151.842 70.2619 163.48 68.5517 180.831Z" fill="black"/>
<path d="M79.4991 98.9782H78.0342V97.7017L82.3009 97.684V98.9604H80.8431L80.8609 103.38H79.5097L79.4991 98.9782Z" fill="white"/>
<path d="M87.339 97.6697L87.3603 103.359H86.0128V101.136H84.1745V103.359H82.827L82.8057 97.6697H84.1532V99.803H85.9914V97.6697H87.339Z" fill="white"/>
<path d="M92.1397 102.104V103.348H88.31L88.2891 97.6594H92.0295V98.9039H89.6259V99.8639H91.7593V101.066H89.6259V102.107L92.1397 102.104Z" fill="white"/>
<path d="M94.976 101.823H94.24V103.338H92.8924L92.8711 97.6487H95.0506C96.352 97.6487 97.184 98.4451 97.184 99.7465C97.2099 100.103 97.1374 100.459 96.9746 100.777C96.8114 101.095 96.5642 101.362 96.2595 101.549L97.2942 103.327H95.8506L94.976 101.823ZM94.976 98.9109H94.2293V100.578H94.9795C95.0937 100.586 95.2082 100.57 95.3155 100.531C95.4233 100.493 95.5218 100.433 95.6053 100.354C95.6889 100.276 95.7554 100.182 95.8009 100.077C95.846 99.9719 95.8695 99.8588 95.8695 99.7447C95.8695 99.6302 95.846 99.5171 95.8009 99.4122C95.7554 99.3073 95.6889 99.2131 95.6053 99.1349C95.5218 99.0567 95.4233 98.9966 95.3155 98.9578C95.2082 98.9194 95.0937 98.9034 94.9795 98.9109H94.976Z" fill="white"/>
<path d="M101.128 102.207H99.1116L98.756 103.316H97.3516L99.4351 97.6271H100.765L102.898 103.316H101.497L101.128 102.207ZM100.729 101.019L100.111 99.1986L99.5027 101.026L100.729 101.019Z" fill="white"/>
<path d="M107.578 99.7003C107.578 100.995 106.77 101.802 105.469 101.809H104.637V103.295H103.29L103.265 97.6061H105.444C106.753 97.5954 107.574 98.399 107.578 99.7003ZM106.216 99.7003C106.229 99.5869 106.216 99.4717 106.179 99.3639C106.141 99.2562 106.079 99.1584 105.998 99.0784C105.916 98.9981 105.818 98.9373 105.709 98.901C105.601 98.8647 105.486 98.8534 105.373 98.8683H104.626V100.536H105.373C105.486 100.55 105.601 100.538 105.709 100.502C105.817 100.465 105.915 100.404 105.996 100.324C106.077 100.244 106.139 100.147 106.177 100.039C106.215 99.9318 106.228 99.8173 106.216 99.7038V99.7003Z" fill="white"/>
<path d="M110.794 101.232V103.277H109.44V101.211L107.608 97.5879H109.031L110.172 99.8457L111.292 97.5808H112.6L110.794 101.232Z" fill="white"/>
</svg>
