<svg width="200" height="200" viewBox="0 0 200 200" fill="none" xmlns="http://www.w3.org/2000/svg">
<path d="M135.431 46.1399H60.5782C59.9894 46.1396 59.4069 46.2589 58.8657 46.4904C58.3244 46.7221 57.8359 47.0614 57.4297 47.4876C57.0237 47.9139 56.7084 48.4181 56.5032 48.9699C56.2979 49.5216 56.2069 50.1094 56.2357 50.6974L61.3157 155.8C61.3697 156.916 61.8507 157.968 62.6589 158.738C63.4674 159.509 64.5412 159.939 65.6582 159.94H140.501C141.089 159.94 141.672 159.82 142.213 159.588C142.755 159.356 143.243 159.017 143.649 158.591C144.055 158.164 144.37 157.66 144.576 157.108C144.781 156.556 144.872 155.968 144.843 155.38L139.773 50.2774C139.719 49.1621 139.238 48.1101 138.43 47.3399C137.621 46.5696 136.547 46.1399 135.431 46.1399Z" fill="#7C7C7C"/>
<path d="M135.43 44.89H64.6798C63.3448 44.89 62.0073 44.89 60.6798 44.89C59.48 44.8837 58.3088 45.2567 57.3338 45.9557C56.3585 46.655 55.6293 47.6442 55.2498 48.7825C55.0235 49.526 54.9385 50.3052 54.9998 51.08L55.1923 55.04L55.5573 62.62L56.0573 72.98L56.6523 85.29L57.3023 98.71L57.9648 112.407L58.5998 125.545L59.1673 137.295L59.6273 146.807L59.9398 153.25C59.9823 154.1 60.0123 154.947 60.0648 155.795C60.1365 157.237 60.7543 158.598 61.793 159.601C62.8318 160.604 64.2135 161.174 65.6573 161.195H140.445C142.977 161.165 145.287 159.51 145.927 157.015C146.222 155.865 146.067 154.632 146.01 153.46L145.725 147.527L145.282 138.407L144.727 126.935L144.1 113.935L143.44 100.267L142.787 86.755L142.182 74.25L141.665 63.555L141.277 55.5225L141.057 50.9875C141.045 50.7575 141.037 50.5275 141.025 50.3C140.952 48.8575 140.334 47.4967 139.295 46.4937C138.256 45.491 136.874 44.921 135.43 44.9C133.82 44.87 133.82 47.37 135.43 47.4C136.226 47.4077 136.99 47.7187 137.565 48.2695C138.141 48.8202 138.485 49.5695 138.527 50.365C138.545 50.6925 138.557 51.0175 138.575 51.345L138.825 56.3175L139.225 64.5925L139.75 75.415L140.355 87.915L141.005 101.36L141.66 114.895L142.275 127.645L142.82 138.917L143.25 147.805L143.527 153.57L143.597 155.012C143.665 155.622 143.589 156.239 143.377 156.815C142.815 158.092 141.642 158.687 140.307 158.69H66.4022C66.0522 158.69 65.6923 158.705 65.3423 158.69C63.8423 158.57 62.6423 157.235 62.5598 155.72C62.5048 154.697 62.4598 153.677 62.4123 152.655L62.0823 145.852L61.6148 136.177L61.0448 124.355L60.4123 111.297L59.7498 97.6925L59.1098 84.4425L58.5273 72.3775L58.0273 62.2175L57.6723 54.8575L57.4998 51.035C57.4648 50.285 57.4998 49.625 57.8573 49C58.4823 47.8825 59.5598 47.39 60.8223 47.39H135.43C137.04 47.39 137.042 44.89 135.43 44.89Z" fill="#222221"/>
<path opacity="0.2" d="M135.161 49.9675H59.8359L65.0984 154.795L130.598 154.708L141.483 145.058L135.161 49.9675Z" fill="black"/>
<path d="M135.75 49.965C136.546 81.358 139.074 112.683 143.322 143.797L145.072 155.482C126.297 155.482 87.947 156.112 69.1745 156.112C63.8568 120.959 60.7365 85.5072 59.832 49.965H135.75Z" fill="white"/>
<path d="M127.318 63.88H92.5007C92.469 63.0117 92.4382 62.1442 92.4082 61.2775H127.226C127.256 62.1457 127.286 63.0132 127.318 63.88Z" fill="#E0E0E0"/>
<path d="M119.959 69.3525H92.7091C92.6723 68.4842 92.6366 67.6167 92.6016 66.75H119.852C119.887 67.6182 119.922 68.4857 119.959 69.3525Z" fill="#E0E0E0"/>
<path d="M92.3966 86.445H69.9516C69.8591 85.5775 69.7691 84.7075 69.6816 83.84H92.1266C92.2141 84.7075 92.3041 85.5775 92.3966 86.445Z" fill="#E0E0E0"/>
<path d="M128.664 86.445H97.3887C97.2219 85.5782 97.0554 84.71 96.8887 83.84H128.151C128.319 84.7067 128.49 85.575 128.664 86.445Z" fill="#E0E0E0"/>
<path d="M128.928 91.9224H70.0906C69.9806 91.0524 69.8706 90.1849 69.7656 89.3174H128.603C128.708 90.1849 128.818 91.0524 128.928 91.9224Z" fill="#E0E0E0"/>
<path d="M129.751 98.0175H70.9031C70.7914 97.1507 70.6831 96.2825 70.5781 95.4125H129.416C129.521 96.2825 129.631 97.15 129.751 98.0175Z" fill="#E0E0E0"/>
<path d="M130.501 104.115H71.6531C71.5414 103.245 71.4331 102.377 71.3281 101.51H130.166C130.271 102.378 130.381 103.25 130.501 104.115Z" fill="#E0E0E0"/>
<path d="M130.905 110.21H72.0672C71.9572 109.343 71.8472 108.475 71.7422 107.605H130.58C130.693 108.475 130.801 109.343 130.905 110.21Z" fill="#E0E0E0"/>
<path d="M131.655 116.307H72.8172C72.7072 115.44 72.5972 114.557 72.4922 113.702H131.33C131.437 114.57 131.545 115.44 131.655 116.307Z" fill="#E0E0E0"/>
<path d="M132.846 122.403H74.0008C73.8908 121.535 73.7808 120.668 73.6758 119.8H132.521C132.628 120.668 132.736 121.536 132.846 122.403Z" fill="#E0E0E0"/>
<path d="M133.844 128.5H74.9988C74.8888 127.632 74.7788 126.763 74.6738 125.895H133.519C133.626 126.763 133.734 127.632 133.844 128.5Z" fill="#E0E0E0"/>
<path d="M134.321 134.598H75.4832C75.3732 133.728 75.2632 132.86 75.1582 131.993H134.001C134.101 132.86 134.211 133.728 134.321 134.598Z" fill="#E0E0E0"/>
<path d="M116.139 145.5H76.6914C76.5864 144.632 76.4822 143.764 76.3789 142.897H115.826C115.93 143.767 116.034 144.635 116.139 145.5Z" fill="#E0E0E0"/>
<path d="M95.3324 150.977H77.3749C77.2624 150.11 77.1524 149.24 77.0449 148.372H94.9999C95.1099 149.25 95.2199 150.11 95.3324 150.977Z" fill="#E0E0E0"/>
<path d="M106.055 150.977H98.3046C98.1921 150.11 98.0821 149.24 97.9746 148.372H105.725C105.835 149.25 105.945 150.11 106.055 150.977Z" fill="#E0E0E0"/>
<path d="M118.171 48.455C116.949 45.205 114.119 43.0525 111.071 43.0525H104.866C104.406 43.05 103.957 42.9132 103.573 42.6587C103.19 42.4042 102.889 42.043 102.709 41.62C102.271 40.5775 101.538 39.686 100.6 39.0555C99.6617 38.425 98.5592 38.0832 97.4287 38.0725C96.3369 38.0632 95.2704 38.402 94.3844 39.04C93.4984 39.678 92.8387 40.5817 92.5012 41.62C92.3607 42.0427 92.0892 42.4095 91.7259 42.6672C91.3624 42.9247 90.9264 43.0597 90.4812 43.0525H84.2687C81.2212 43.0525 78.5987 45.2075 77.6887 48.455L77.3262 49.75H118.661L118.171 48.455Z" fill="#050505"/>
<path d="M118.394 51.0275H77.7118C77.3695 51.0225 77.0418 50.8883 76.7943 50.6518C76.5465 50.4155 76.3975 50.0943 76.3768 49.7525C76.3678 49.588 76.3928 49.4238 76.4498 49.2693C76.5068 49.1148 76.5948 48.9738 76.7083 48.8545C76.8218 48.7353 76.9585 48.6408 77.11 48.5763C77.2615 48.5118 77.4245 48.479 77.5893 48.48H118.269C118.612 48.4838 118.94 48.6173 119.188 48.8533C119.436 49.0893 119.586 49.4105 119.607 49.7525C119.616 49.917 119.591 50.0818 119.535 50.2365C119.478 50.3913 119.39 50.5328 119.276 50.6523C119.163 50.7715 119.026 50.8665 118.874 50.931C118.722 50.9955 118.559 51.0285 118.394 51.0275Z" fill="#606060"/>
<path d="M79.3282 78.69C85.1175 78.69 89.8107 73.9967 89.8107 68.2075C89.8107 62.4182 85.1175 57.725 79.3282 57.725C73.539 57.725 68.8457 62.4182 68.8457 68.2075C68.8457 73.9967 73.539 78.69 79.3282 78.69Z" fill="white"/>
<path d="M79.3274 79.0675C77.1794 79.068 75.0794 78.4315 73.2932 77.2385C71.5069 76.0455 70.1147 74.3495 69.2924 72.3653C68.4699 70.3808 68.2544 68.1973 68.6732 66.0903C69.0919 63.9835 70.1262 62.0483 71.6449 60.5293C73.1637 59.0103 75.0987 57.9755 77.2054 57.5563C79.3119 57.137 81.4957 57.352 83.4802 58.174C85.4649 58.9958 87.1612 60.3878 88.3544 62.1738C89.5479 63.9598 90.1849 66.0595 90.1849 68.2075C90.1822 71.0865 89.0377 73.8468 87.0022 75.8828C84.9664 77.9188 82.2064 79.0643 79.3274 79.0675ZM79.3274 58.1C77.3277 58.0995 75.3727 58.692 73.7097 59.8028C72.0467 60.9135 70.7504 62.4925 69.9849 64.34C69.2194 66.1873 69.0189 68.2203 69.4092 70.1818C69.7992 72.143 70.7619 73.9448 72.1762 75.3588C73.5902 76.773 75.3917 77.7358 77.3532 78.1258C79.3147 78.5158 81.3474 78.3155 83.1949 77.55C85.0424 76.7845 86.6214 75.4883 87.7322 73.8253C88.8429 72.1623 89.4354 70.2073 89.4349 68.2075C89.4322 65.5275 88.3664 62.9583 86.4717 61.0633C84.5767 59.1683 82.0072 58.1025 79.3274 58.1Z" fill="#222221"/>
<path d="M73.5521 69.8025L77.5371 69.7375L77.6046 73.7225C77.6279 74.1895 77.8319 74.6293 78.1734 74.9488C78.5149 75.2683 78.9674 75.4425 79.4349 75.4348C79.9024 75.427 80.3486 75.2377 80.6794 74.907C81.0101 74.5762 81.1994 74.13 81.2071 73.6625L81.0146 62.0875C80.9914 61.6205 80.7874 61.1807 80.4459 60.8612C80.1044 60.5417 79.6519 60.3675 79.1844 60.3752C78.7169 60.383 78.2706 60.5722 77.9399 60.903C77.6091 61.2335 77.4199 61.68 77.4121 62.1475L77.4771 66.1325L73.4996 66.2C73.0326 66.2232 72.5929 66.4273 72.2734 66.7688C71.9539 67.1103 71.7796 67.5627 71.7874 68.0302C71.7951 68.4977 71.9844 68.944 72.3151 69.2747C72.6459 69.6055 73.0921 69.7947 73.5596 69.8025H73.5521Z" fill="white"/>
<path d="M85.0671 65.9999L81.0821 66.0649L81.0146 62.0799C80.9914 61.6129 80.7874 61.1732 80.4459 60.8537C80.1044 60.5342 79.6519 60.3599 79.1844 60.3677C78.7169 60.3754 78.2706 60.5647 77.9399 60.8954C77.6091 61.2262 77.4199 61.6724 77.4121 62.1399L77.6046 73.7149C77.6279 74.1819 77.8319 74.6217 78.1734 74.9412C78.5149 75.2607 78.9674 75.4349 79.4349 75.4272C79.9024 75.4194 80.3486 75.2302 80.6794 74.8994C81.0101 74.5689 81.1994 74.1224 81.2071 73.6549L81.1421 69.6699L85.1271 69.6024C85.5941 69.5792 86.0339 69.3752 86.3534 69.0337C86.6729 68.6922 86.8471 68.2397 86.8394 67.7722C86.8316 67.3047 86.6424 66.8584 86.3116 66.5277C85.9809 66.1969 85.5346 66.0077 85.0671 65.9999Z" fill="#B2B2B2"/>
<path d="M84.0012 66.0249L80.0137 66.0899L79.9487 62.1049C79.9312 61.1249 79.8162 60.3249 78.8387 60.3549C78.3644 60.3629 77.9127 60.5572 77.5809 60.8959C77.2489 61.2349 77.0642 61.6907 77.0662 62.1649L77.1312 66.1524L74.6087 66.1924C74.1307 66.2004 73.6754 66.3979 73.3429 66.7417C73.0104 67.0852 72.8282 67.5469 72.8362 68.0249C72.8442 68.5029 73.0417 68.9582 73.3854 69.2907C73.7289 69.6232 74.1907 69.8054 74.6687 69.7974L77.1912 69.7549L77.2562 73.7424C77.2707 74.2164 77.4709 74.6657 77.8137 74.9929C78.1567 75.3204 78.6147 75.4999 79.0887 75.4924C80.0687 75.4749 80.1562 74.6724 80.1412 73.6924L80.0737 69.7074L84.0612 69.6424C84.5409 69.6344 84.9977 69.4362 85.3314 69.0914C85.6649 68.7467 85.8479 68.2834 85.8399 67.8037C85.8319 67.3239 85.6337 66.8672 85.2889 66.5334C84.9442 66.1999 84.4809 66.0169 84.0012 66.0249Z" fill="#EFEFEF"/>
<path d="M79.4441 75.8351C78.8731 75.8466 78.3209 75.6311 77.9086 75.2361C77.4961 74.8409 77.2571 74.2986 77.2441 73.7276L77.1841 70.1026L73.5591 70.1626C72.9856 70.1719 72.4319 69.9529 72.0196 69.5539C71.6076 69.1549 71.3709 68.6086 71.3616 68.0351C71.3524 67.4616 71.5714 66.9079 71.9704 66.4956C72.3691 66.0836 72.9156 65.8469 73.4891 65.8376L77.1141 65.7776L77.0541 62.1526C77.0449 61.5791 77.2639 61.0254 77.6629 60.6131C78.0616 60.2011 78.6081 59.9644 79.1816 59.9551C79.7551 59.9459 80.3089 60.1649 80.7209 60.5639C81.1331 60.9626 81.3699 61.5091 81.3791 62.0826L81.4391 65.7076L85.0641 65.6476C85.6376 65.6384 86.1914 65.8574 86.6034 66.2564C87.0157 66.6551 87.2524 67.2016 87.2617 67.7751C87.2709 68.3486 87.0519 68.9024 86.6529 69.3144C86.2541 69.7266 85.7076 69.9634 85.1341 69.9726L81.5091 70.0326L81.5691 73.6576C81.5751 74.2279 81.3549 74.7774 80.9566 75.1854C80.5581 75.5936 80.0144 75.8271 79.4441 75.8351ZM73.5016 66.5601C73.1291 66.5806 72.7791 66.7444 72.5249 67.0174C72.2706 67.2904 72.1321 67.6514 72.1381 68.0241C72.1444 68.3971 72.2946 68.7534 72.5579 69.0179C72.8209 69.2821 73.1761 69.4344 73.5491 69.4426L77.5366 69.3776C77.6299 69.3771 77.7196 69.4129 77.7866 69.4776C77.8209 69.5099 77.8481 69.5484 77.8671 69.5914C77.8859 69.6344 77.8959 69.6806 77.8966 69.7276L77.9641 73.7151C77.9846 74.0876 78.1484 74.4376 78.4214 74.6919C78.6944 74.9461 79.0551 75.0846 79.4281 75.0786C79.8011 75.0723 80.1574 74.9219 80.4219 74.6589C80.6861 74.3959 80.8386 74.0406 80.8466 73.6676L80.7816 69.6801C80.7811 69.5869 80.8169 69.4971 80.8816 69.4301C80.9139 69.3959 80.9524 69.3686 80.9954 69.3496C81.0384 69.3309 81.0846 69.3209 81.1316 69.3201L85.1191 69.2526C85.4916 69.2321 85.8419 69.0679 86.0959 68.7946C86.3499 68.5214 86.4884 68.1604 86.4819 67.7874C86.4754 67.4141 86.3246 67.0581 86.0611 66.7939C85.7976 66.5296 85.4421 66.3779 85.0691 66.3701L81.0841 66.4351C81.0379 66.4359 80.9919 66.4274 80.9491 66.4104C80.9061 66.3931 80.8671 66.3676 80.8341 66.3351C80.7999 66.3029 80.7726 66.2641 80.7536 66.2214C80.7349 66.1784 80.7249 66.1321 80.7241 66.0851L80.6566 62.0976C80.6361 61.7251 80.4719 61.3749 80.1986 61.1209C79.9254 60.8669 79.5644 60.7284 79.1914 60.7349C78.8181 60.7414 78.4621 60.8921 78.1979 61.1556C77.9336 61.4191 77.7819 61.7746 77.7741 62.1476L77.8391 66.1326C77.8396 66.2259 77.8039 66.3156 77.7391 66.3826C77.7069 66.4169 77.6681 66.4441 77.6254 66.4631C77.5824 66.4819 77.5361 66.4919 77.4891 66.4926L73.5016 66.5601Z" fill="white"/>
<path d="M79.4393 75.6926C79.1063 75.6981 78.777 75.6216 78.4805 75.4701C78.184 75.3183 77.9295 75.0958 77.7393 74.8226C77.55 74.5456 77.4315 74.2261 77.3943 73.8926C77.3943 73.7901 77.3943 73.6876 77.3818 73.5826L77.3393 70.9676L77.3243 70.1001C77.323 70.0626 77.307 70.0268 77.28 70.0008C77.253 69.9746 77.2168 69.9601 77.1793 69.9601L75.0118 69.9976L73.7793 70.0176H73.5568C73.1451 70.0206 72.7421 69.8973 72.4021 69.6648C72.0621 69.4323 71.8013 69.1016 71.6548 68.7166C71.5083 68.3318 71.4828 67.9113 71.5818 67.5116C71.6811 67.1118 71.8998 66.7518 72.2093 66.4801C72.5851 66.1556 73.0653 65.9778 73.5618 65.9801L74.5968 65.9626L77.0618 65.9226H77.1143C77.1518 65.9213 77.1875 65.9053 77.2135 65.8783C77.2398 65.8513 77.2543 65.8151 77.2543 65.7776L77.2168 63.6126L77.1968 62.3775C77.1968 62.3025 77.1968 62.23 77.1968 62.155C77.1938 61.7428 77.317 61.3395 77.5498 60.9995C77.7825 60.6593 78.114 60.3985 78.4993 60.252C78.8845 60.1058 79.3056 60.0808 79.7056 60.1805C80.1055 60.28 80.4653 60.4998 80.7368 60.81C81.0608 61.185 81.2383 61.6645 81.2368 62.16L81.2543 63.1951L81.2943 65.6601V65.7126C81.2955 65.7501 81.3115 65.7858 81.3385 65.8118C81.3655 65.8381 81.4018 65.8526 81.4393 65.8526L83.6043 65.8151L84.8393 65.7951H85.0618C85.5488 65.7906 86.0208 65.9626 86.3908 66.2791C86.7608 66.5958 87.0035 67.0358 87.0743 67.5176C87.122 67.8518 87.0865 68.1928 86.9703 68.5101C86.8543 68.8271 86.6615 69.1106 86.4093 69.3351C86.0333 69.6588 85.553 69.8363 85.0568 69.8351L84.0218 69.8526L81.5568 69.8926H81.4993C81.4618 69.8938 81.426 69.9098 81.4 69.9368C81.3738 69.9638 81.3593 70.0001 81.3593 70.0376L81.3968 72.2051L81.4168 73.4376C81.4168 73.5126 81.4168 73.5851 81.4168 73.6601C81.4225 73.9678 81.3558 74.2728 81.2218 74.5501C81.0578 74.8873 80.804 75.1728 80.488 75.3748C80.1723 75.5768 79.8068 75.6876 79.4318 75.6951C79.3941 75.6951 79.3578 75.7101 79.331 75.7368C79.3043 75.7636 79.2893 75.7998 79.2893 75.8376C79.2893 75.8753 79.3043 75.9116 79.331 75.9383C79.3578 75.9651 79.3941 75.9801 79.4318 75.9801C79.798 75.9748 80.1581 75.8831 80.4825 75.7128C80.8068 75.5426 81.0868 75.2986 81.2993 75.0001C81.585 74.5766 81.7285 74.0731 81.7093 73.5626L81.6643 70.9301L81.6493 70.0376L81.5093 70.1826L83.7593 70.1451L84.9693 70.1251H85.2193C85.824 70.0898 86.3905 69.8178 86.7965 69.3681C87.2023 68.9181 87.4145 68.3266 87.3878 67.7216C87.3608 67.1163 87.0965 66.5461 86.6525 66.1341C86.2083 65.7221 85.6198 65.5016 85.0143 65.5201L84.0318 65.5351L81.4793 65.5776H81.4293L81.5743 65.7176L81.5368 63.4675L81.5168 62.2575C81.5168 62.17 81.5168 62.085 81.5168 62.0075C81.4815 61.4028 81.2095 60.8363 80.7598 60.4303C80.3098 60.0245 79.7183 59.8123 79.1133 59.839C78.508 59.866 77.9378 60.1303 77.5258 60.5743C77.1138 61.0185 76.8933 61.607 76.9118 62.2126L76.9268 63.1951L76.9693 65.7476V65.7976L77.1093 65.6526L74.8593 65.6901L73.6493 65.7101H73.3993C72.7946 65.7453 72.2281 66.0173 71.8221 66.4671C71.4163 66.9171 71.2038 67.5086 71.2308 68.1136C71.2578 68.7188 71.5221 69.2891 71.9661 69.7011C72.4103 70.1131 72.9988 70.3336 73.6043 70.3151L74.5843 70.3001L77.1393 70.2576H77.1893L77.0443 70.1176L77.0818 72.3676L77.1018 73.5776C77.1018 73.6651 77.1018 73.7526 77.1018 73.8276C77.1366 74.4201 77.4 74.9761 77.8363 75.3786C78.2728 75.7811 78.8483 75.9983 79.4418 75.9851C79.4805 75.9848 79.5175 75.9691 79.5448 75.9413C79.572 75.9138 79.587 75.8763 79.5868 75.8376C79.5865 75.7988 79.5708 75.7618 79.543 75.7346C79.5153 75.7073 79.4781 75.6923 79.4393 75.6926Z" fill="white"/>
<path d="M73.4995 66.4175C73.1375 66.4275 72.79 66.5615 72.515 66.7968C72.2397 67.032 72.0537 67.3545 71.9875 67.7105C71.9215 68.0665 71.9795 68.4343 72.1517 68.7528C72.324 69.071 72.6002 69.3208 72.9345 69.46C73.1417 69.5465 73.3647 69.589 73.5895 69.585H73.9095L75.202 69.5625L76.672 69.5375L77.517 69.525C77.549 69.5215 77.5815 69.5248 77.612 69.5348C77.6425 69.5448 77.6707 69.5613 77.6945 69.583C77.718 69.6048 77.7367 69.6315 77.7495 69.6613C77.762 69.6908 77.768 69.7228 77.767 69.755C77.767 69.8475 77.767 69.94 77.767 70.0325L77.787 71.2825L77.812 72.7825L77.827 73.6975C77.8212 74.118 77.983 74.5233 78.2762 74.8245C78.5695 75.1258 78.9702 75.2983 79.3907 75.3038C79.811 75.3095 80.2165 75.1478 80.5177 74.8545C80.819 74.5613 80.9912 74.1605 80.997 73.74C80.997 73.6675 80.997 73.5975 80.997 73.5275L80.977 72.4025L80.952 70.9025L80.9345 69.835C80.9172 69.7415 80.936 69.6453 80.987 69.565C81.062 69.4775 81.167 69.49 81.267 69.4875L82.3345 69.47L83.8345 69.445L84.9645 69.425H85.1745C85.5945 69.4073 85.9902 69.223 86.2745 68.9135C86.559 68.6038 86.7087 68.1938 86.6907 67.7738C86.6727 67.3538 86.4887 66.958 86.1792 66.6738C85.8695 66.3893 85.4595 66.2395 85.0395 66.2575L84.127 66.2725L82.6445 66.2975L81.3945 66.32H81.1145C81.0822 66.324 81.0495 66.321 81.0185 66.311C80.9875 66.301 80.959 66.2845 80.9352 66.2623C80.9112 66.24 80.8927 66.213 80.8805 66.1828C80.8682 66.1525 80.8627 66.12 80.8645 66.0875C80.8645 65.81 80.8645 65.53 80.8495 65.2525L80.8245 63.7775L80.8045 62.4875C80.8222 62.163 80.7745 61.8383 80.6645 61.5325C80.5185 61.2015 80.2635 60.9303 79.942 60.7643C79.6205 60.598 79.2517 60.547 78.8972 60.6195C78.5425 60.6918 78.2235 60.8835 77.9927 61.1623C77.7622 61.4413 77.634 61.7908 77.6295 62.1525C77.6295 62.375 77.6295 62.5975 77.6295 62.82L77.6545 64.245L77.677 65.6225V66.045C77.677 66.15 77.6895 66.2575 77.5995 66.3325C77.5185 66.379 77.4242 66.3965 77.332 66.3825H76.897L75.507 66.405L74.092 66.43H73.477L73.622 66.57C73.622 66.5323 73.607 66.496 73.5802 66.4693C73.5535 66.4425 73.5172 66.4275 73.4795 66.4275C73.4417 66.4275 73.4055 66.4425 73.3787 66.4693C73.352 66.496 73.337 66.5323 73.337 66.57C73.3382 66.6075 73.3542 66.6433 73.3812 66.6693C73.4082 66.6955 73.4445 66.71 73.482 66.71H74.1245L75.532 66.685L76.907 66.6625H77.337C77.441 66.6703 77.5455 66.6575 77.6445 66.625C77.7395 66.5878 77.821 66.5223 77.8777 66.4373C77.9345 66.3525 77.964 66.2523 77.962 66.15V66.095V65.75L77.9395 64.45L77.9145 63C77.9145 62.7275 77.9145 62.455 77.9145 62.1825C77.9067 61.879 78.0052 61.5825 78.1932 61.3443C78.381 61.1058 78.6465 60.9408 78.9432 60.8775C79.24 60.8143 79.5497 60.857 79.8185 60.998C80.087 61.139 80.298 61.3698 80.4145 61.65C80.507 61.926 80.5445 62.2173 80.5245 62.5075L80.5445 63.805L80.5695 65.2575C80.5695 65.5325 80.5695 65.81 80.5845 66.085C80.5825 66.152 80.594 66.2185 80.6182 66.281C80.6425 66.3435 80.679 66.4003 80.7255 66.4483C80.7722 66.4963 80.828 66.5345 80.8895 66.5605C80.9512 66.5868 81.0175 66.6 81.0845 66.6C81.152 66.6 81.217 66.6 81.282 66.6L82.427 66.5825L83.912 66.5575L84.957 66.54C85.0585 66.5313 85.1605 66.5313 85.262 66.54C85.5037 66.576 85.7305 66.6793 85.9162 66.8383C86.102 66.9973 86.2392 67.2053 86.312 67.4388C86.385 67.672 86.3905 67.9213 86.328 68.1575C86.2657 68.394 86.138 68.608 85.9595 68.775C85.73 68.991 85.4295 69.1155 85.1145 69.125H84.9245L83.787 69.1425L82.2995 69.1675L81.2495 69.185C81.1295 69.1775 81.0095 69.199 80.8995 69.2475C80.8107 69.2985 80.7385 69.374 80.6915 69.4648C80.6445 69.5558 80.6247 69.6583 80.6345 69.76L80.6495 70.7025L80.6745 72.1775L80.6945 73.3975C80.6945 73.4875 80.6945 73.5775 80.6945 73.6675C80.697 73.89 80.6425 74.1095 80.536 74.305C80.4295 74.5003 80.2747 74.6653 80.0862 74.7835C79.898 74.902 79.6822 74.97 79.46 74.9813C79.2377 74.9925 79.0162 74.9465 78.817 74.8475C78.5997 74.737 78.4172 74.5685 78.2897 74.3605C78.1622 74.1528 78.0947 73.9138 78.0945 73.67L78.0795 72.735L78.0545 71.2625L78.0345 70.035C78.0345 69.9425 78.0345 69.85 78.0345 69.7575C78.0345 69.6908 78.0212 69.6248 77.9952 69.5633C77.9692 69.5018 77.9315 69.446 77.8837 69.3995C77.836 69.353 77.7792 69.3163 77.7172 69.292C77.655 69.2675 77.5887 69.2558 77.522 69.2575C77.2895 69.2575 77.0595 69.2575 76.827 69.2575L75.4095 69.2825L74.0495 69.305C73.7997 69.325 73.5485 69.321 73.2995 69.2925C72.9847 69.2345 72.7025 69.0623 72.5067 68.809C72.311 68.5558 72.2157 68.239 72.239 67.9198C72.262 67.6005 72.4022 67.301 72.6325 67.0788C72.863 66.8565 73.1672 66.727 73.487 66.715C73.5265 66.7168 73.565 66.7025 73.594 66.676C73.623 66.6493 73.6402 66.612 73.642 66.5725C73.6437 66.533 73.6295 66.4945 73.6027 66.4655C73.576 66.4365 73.539 66.4193 73.4995 66.4175Z" fill="white"/>
<path d="M73.5004 66.2751C73.1091 66.2908 72.7344 66.4371 72.4361 66.6911C72.1379 66.9448 71.9334 67.2913 71.8554 67.6751C71.7809 68.0791 71.8499 68.4966 72.0504 68.8551C72.2346 69.1821 72.5221 69.4388 72.8679 69.5851C73.0966 69.6836 73.3439 69.7323 73.5929 69.7276H73.9154L75.2079 69.7051L76.6779 69.6801L77.5229 69.6676H77.5429C77.5904 69.6676 77.5429 69.6676 77.5429 69.6676C77.5429 69.6676 77.6054 69.6676 77.6079 69.6851C77.6104 69.7026 77.5604 69.6551 77.5879 69.6851C77.6154 69.7151 77.6329 69.7176 77.6029 69.6851C77.5729 69.6526 77.6029 69.6851 77.6154 69.6976C77.6279 69.7101 77.6004 69.6826 77.6154 69.6826C77.6304 69.6826 77.6304 69.7076 77.6329 69.7101C77.6354 69.7126 77.6204 69.6901 77.6329 69.6926C77.6454 69.6951 77.6504 69.7851 77.6479 69.7376C77.6454 69.6901 77.6479 69.7376 77.6479 69.7376V69.7501C77.6479 69.8426 77.6479 69.9351 77.6479 70.0276L77.6679 71.2776L77.6929 72.7775L77.7079 73.6925C77.7114 73.9978 77.7946 74.2968 77.9494 74.56C78.1044 74.8233 78.3251 75.0413 78.5904 75.1925C78.9366 75.3818 79.3367 75.4485 79.7257 75.3818C80.1147 75.315 80.4694 75.1188 80.7329 74.825C80.9969 74.5198 81.1487 74.1333 81.1629 73.7301C81.1629 73.6601 81.1629 73.5876 81.1629 73.5176L81.1429 72.3926L81.1179 70.8926L81.1004 69.8251V69.7026C81.1004 69.6501 81.1004 69.7251 81.1004 69.7026C81.1004 69.6801 81.1004 69.6751 81.1004 69.6626C81.1004 69.6501 81.1004 69.6826 81.1004 69.6801L81.1179 69.6526C81.1304 69.6226 81.0879 69.6776 81.1179 69.6526C81.1479 69.6276 81.1379 69.6276 81.1404 69.6301C81.1429 69.6326 81.1104 69.6626 81.1404 69.6301C81.1704 69.5976 81.1804 69.6026 81.1404 69.6301C81.1004 69.6576 81.1404 69.6301 81.1404 69.6301H81.1704C81.2029 69.6301 81.1504 69.6301 81.1479 69.6301C81.1454 69.6301 81.1654 69.6301 81.1704 69.6301H81.2504L82.3179 69.6126L83.8179 69.5876L84.9504 69.5676H85.1604C85.5699 69.5353 85.9554 69.3611 86.2504 69.0751C86.5104 68.8368 86.6912 68.5243 86.7687 68.1803C86.8459 67.8361 86.8159 67.4766 86.6829 67.1498C86.5497 66.8231 86.3197 66.5451 86.0239 66.3528C85.7282 66.1608 85.3804 66.0638 85.0279 66.0751L84.1154 66.0901L82.6329 66.1151L81.3829 66.1376H81.0854H81.1079H81.0754H81.0429C81.0429 66.1251 81.0904 66.1701 81.0429 66.1376C80.9954 66.1051 81.0079 66.1101 81.0429 66.1376C81.0779 66.1651 81.0429 66.1376 81.0304 66.1376C81.0179 66.1376 81.0304 66.1526 81.0304 66.1526C81.0217 66.1408 81.0142 66.1283 81.0079 66.1151C81.0079 66.1151 81.0229 66.1676 81.0079 66.1351C80.9929 66.1026 81.0079 66.1126 81.0079 66.1026C81.0079 66.0926 81.0079 66.1451 81.0079 66.1026V66.0851C81.0079 65.8076 81.0079 65.5276 80.9929 65.2501L80.9679 63.7751L80.9479 62.4851V62.1576C80.9414 61.8493 80.8537 61.5483 80.6934 61.2848C80.5332 61.0216 80.3062 60.8051 80.0354 60.6576C79.6712 60.4676 79.2524 60.4101 78.8504 60.4951C78.4781 60.5821 78.1449 60.7886 77.9011 61.0828C77.6574 61.3773 77.5166 61.7433 77.5004 62.1251C77.5004 62.3476 77.5004 62.5701 77.5004 62.7926L77.5254 64.2176L77.5479 65.5951V66.0176V66.1326C77.5479 66.1326 77.5479 66.1851 77.5479 66.1326C77.5479 66.0801 77.5479 66.1551 77.5479 66.1701C77.5479 66.1851 77.5479 66.1501 77.5479 66.1501C77.5479 66.1501 77.5229 66.1876 77.5254 66.1876C77.5279 66.1876 77.5629 66.1501 77.5254 66.1726C77.4879 66.1951 77.4854 66.2101 77.5129 66.1876C77.5404 66.1651 77.4604 66.2226 77.5129 66.1876C77.5654 66.1526 77.4654 66.2101 77.4654 66.2001C77.4654 66.1901 77.5229 66.2001 77.4654 66.2001H77.3379H76.9004L75.5104 66.2226L74.0954 66.2476H73.4804L73.7704 66.5276C73.7621 66.4606 73.7306 66.3983 73.6814 66.3521C73.6319 66.3061 73.5679 66.2788 73.5004 66.2751C73.4254 66.2783 73.3546 66.3101 73.3024 66.3641C73.2504 66.4181 73.2209 66.4901 73.2204 66.5651C73.2229 66.6403 73.2546 66.7116 73.3089 66.7638C73.3629 66.8161 73.4351 66.8451 73.5104 66.8451H74.1529L75.5604 66.8201L76.9354 66.7976H77.3654C77.4821 66.8048 77.5991 66.7906 77.7104 66.7551C77.8344 66.7071 77.9409 66.6226 78.0159 66.5128C78.0909 66.4031 78.1309 66.2731 78.1304 66.1401V66.0851V65.7401L78.1079 64.4426L78.0829 62.9901C78.0829 62.7176 78.0829 62.4451 78.0829 62.1726V62.0926C78.0829 62.0726 78.0829 62.0526 78.0829 62.0326C78.0829 62.0126 78.0829 62.0126 78.0829 62.0026C78.0829 61.9926 78.0829 62.0601 78.0829 62.0201C78.0974 61.9353 78.1184 61.8518 78.1454 61.7701C78.1531 61.7521 78.1599 61.7338 78.1654 61.7151C78.1654 61.7151 78.1404 61.7676 78.1654 61.7376C78.1664 61.7293 78.1664 61.7208 78.1654 61.7126C78.1854 61.6726 78.2054 61.6326 78.2279 61.5926C78.2476 61.5566 78.2694 61.5216 78.2929 61.4876C78.2929 61.4876 78.3379 61.4351 78.3079 61.4626L78.3404 61.4251C78.3956 61.3646 78.4539 61.3068 78.5154 61.2526C78.5379 61.2301 78.4929 61.2701 78.4954 61.2676C78.5019 61.2611 78.5094 61.2561 78.5179 61.2526L78.5704 61.2126L78.6754 61.1476C78.7094 61.1228 78.7474 61.1043 78.7879 61.0926H78.7629H78.7904L78.8629 61.0651L78.9754 61.0326L79.0429 61.0176C79.0519 61.0198 79.0614 61.0198 79.0704 61.0176C79.0579 61.0176 79.0154 61.0176 79.0554 61.0176C79.1452 61.0101 79.2356 61.0101 79.3254 61.0176H79.3854C79.4179 61.0176 79.3604 61.0176 79.3604 61.0176C79.3694 61.0198 79.3789 61.0198 79.3879 61.0176L79.5229 61.0451L79.6429 61.0826H79.6704C79.7004 61.0826 79.6454 61.0826 79.6479 61.0826C79.6691 61.0886 79.6894 61.0978 79.7079 61.1101C79.7851 61.1468 79.8597 61.1893 79.9304 61.2376C79.9729 61.2676 79.8904 61.2076 79.9304 61.2376L79.9754 61.2751C80.0071 61.3033 80.0397 61.3333 80.0729 61.3651L80.1179 61.4126C80.1179 61.4126 80.1654 61.4651 80.1379 61.4351C80.1104 61.4051 80.1379 61.4501 80.1554 61.4601L80.1979 61.5226C80.2179 61.5551 80.2379 61.5876 80.2554 61.6201C80.2729 61.6526 80.2779 61.6601 80.2879 61.6801C80.2912 61.6888 80.2952 61.6973 80.3004 61.7051C80.3179 61.7401 80.2804 61.6551 80.3004 61.6901C80.3334 61.7711 80.3594 61.8546 80.3779 61.9401C80.3809 61.9603 80.3849 61.9803 80.3904 62.0001C80.3904 62.0001 80.3904 61.9401 80.3904 61.9726C80.3904 62.0051 80.3904 61.9926 80.3904 62.0026C80.3929 62.0426 80.3929 62.0826 80.3904 62.1226C80.3892 62.1393 80.3892 62.1561 80.3904 62.1726V62.5101L80.4104 63.8076L80.4354 65.2601C80.4354 65.5351 80.4354 65.8126 80.4504 66.0876C80.4504 66.2613 80.5194 66.4278 80.6421 66.5508C80.7651 66.6736 80.9317 66.7426 81.1054 66.7426C81.1729 66.7426 81.2379 66.7426 81.3029 66.7426L82.4479 66.7251L83.9329 66.7001L84.9779 66.6826H85.1629H85.2329C85.2329 66.6826 85.2704 66.6826 85.2329 66.6826C85.1954 66.6826 85.2329 66.6826 85.2454 66.6826C85.3304 66.6961 85.4142 66.7168 85.4954 66.7451H85.5229H85.4979C85.5169 66.7498 85.5349 66.7583 85.5504 66.7701C85.5904 66.7883 85.6304 66.8083 85.6704 66.8301L85.7729 66.8976C85.7729 66.8976 85.7929 66.8976 85.7954 66.9151C85.7979 66.9326 85.7504 66.8776 85.7754 66.9001L85.8254 66.9426C85.8577 66.9673 85.8879 66.9951 85.9154 67.0251L85.9554 67.0676C85.9554 67.0676 86.0154 67.1351 85.9879 67.1026C85.9604 67.0701 85.9879 67.1176 86.0054 67.1276L86.0429 67.1826C86.0654 67.2151 86.0879 67.2526 86.1079 67.2876L86.1379 67.3476C86.1379 67.3476 86.1379 67.3651 86.1504 67.3726C86.1629 67.3801 86.1504 67.3501 86.1504 67.3501C86.1622 67.3928 86.1772 67.4346 86.1954 67.4751C86.2079 67.5126 86.2179 67.5501 86.2279 67.5901C86.2379 67.6301 86.2279 67.6351 86.2404 67.6576C86.2529 67.6801 86.2404 67.6301 86.2404 67.6301C86.2392 67.6433 86.2392 67.6568 86.2404 67.6701C86.2472 67.7533 86.2472 67.8368 86.2404 67.9201C86.2404 67.9201 86.2279 68.0026 86.2404 67.9601C86.2529 67.9176 86.2404 67.9801 86.2404 67.9901C86.2329 68.0356 86.2229 68.0806 86.2104 68.1251L86.1729 68.2451C86.1529 68.2951 86.1929 68.1976 86.1729 68.2451C86.1649 68.2656 86.1557 68.2856 86.1454 68.3051C86.1274 68.3428 86.1074 68.3796 86.0854 68.4151C86.0704 68.4426 86.0429 68.5076 86.0129 68.5251C85.9829 68.5426 86.0504 68.4801 86.0279 68.5051L86.0104 68.5251L85.9729 68.5701C85.9454 68.6026 85.9129 68.6351 85.8829 68.6651L85.8404 68.7026C85.8404 68.7026 85.8154 68.7276 85.8104 68.7276L85.8304 68.7126L85.7304 68.7826L85.6229 68.8451L85.5629 68.8751C85.5629 68.8751 85.5254 68.8901 85.5629 68.8751C85.6004 68.8601 85.5629 68.8751 85.5629 68.8751C85.4819 68.9068 85.3984 68.9311 85.3129 68.9476H85.2829C85.2329 68.9476 85.2829 68.9476 85.3004 68.9476H85.2404H85.1404H84.9504L83.8129 68.9651L82.3129 68.9901L81.2629 69.0076C81.1174 69.0003 80.9724 69.0286 80.8404 69.0901C80.7379 69.1471 80.6527 69.2311 80.5942 69.3328C80.5357 69.4346 80.5059 69.5503 80.5079 69.6676V69.7501L80.5229 70.6926L80.5479 72.1651L80.5679 73.3875C80.5679 73.4775 80.5679 73.5676 80.5679 73.6576V73.6726C80.5679 73.705 80.5679 73.735 80.5679 73.765C80.5704 73.7883 80.5704 73.8118 80.5679 73.835C80.5679 73.835 80.5679 73.7751 80.5679 73.8076V73.8476C80.5544 73.9328 80.5327 74.0166 80.5029 74.0976C80.4804 74.1651 80.5204 74.065 80.5029 74.11C80.4937 74.127 80.4852 74.1445 80.4779 74.1625C80.4579 74.2025 80.4379 74.2425 80.4154 74.28L80.3529 74.375C80.3254 74.415 80.3854 74.335 80.3529 74.375L80.3104 74.4251C80.2829 74.4576 80.2529 74.485 80.2229 74.515L80.1829 74.5525L80.1604 74.57C80.1129 74.6125 80.1954 74.545 80.1604 74.57C80.0947 74.6195 80.0254 74.6638 79.9529 74.7025L79.9029 74.7301C79.8379 74.76 79.9379 74.715 79.9029 74.7301L79.7754 74.775L79.6629 74.8025C79.6429 74.801 79.6229 74.801 79.6029 74.8025C79.6529 74.7825 79.6454 74.8025 79.6204 74.8025H79.5804C79.4929 74.8088 79.4054 74.8088 79.3179 74.8025H79.2904C79.2504 74.8025 79.3454 74.8025 79.3054 74.8025H79.2479C79.2031 74.7953 79.1589 74.7853 79.1154 74.7725C79.0779 74.7725 79.0429 74.7475 79.0054 74.735C78.9679 74.7225 79.0554 74.7575 79.0204 74.735L78.9929 74.7226L78.9329 74.695L78.8254 74.635L78.7779 74.6025L78.7529 74.5875L78.7379 74.575C78.7204 74.575 78.7379 74.575 78.7579 74.5925C78.7354 74.5925 78.6904 74.535 78.6729 74.5175C78.6394 74.4888 78.6076 74.4578 78.5779 74.4251L78.5404 74.3825C78.5079 74.345 78.5754 74.43 78.5404 74.3825C78.5054 74.335 78.4929 74.3175 78.4704 74.2825C78.4479 74.2475 78.4279 74.2101 78.4079 74.1751C78.4007 74.1571 78.3921 74.1395 78.3829 74.1225C78.3654 74.0875 78.4029 74.1725 78.3829 74.1375L78.3679 74.1025C78.3381 74.021 78.3149 73.9375 78.2979 73.8525C78.2854 73.785 78.2979 73.8925 78.2979 73.8525C78.2966 73.8326 78.2966 73.8126 78.2979 73.7926C78.2979 73.7651 78.2979 73.7376 78.2979 73.7126C78.2966 73.6943 78.2966 73.6758 78.2979 73.6576L78.2829 72.7201L78.2579 71.2476L78.2379 70.0201C78.2379 69.9276 78.2379 69.8351 78.2379 69.7426C78.2367 69.5693 78.1666 69.4036 78.0434 69.2818C77.9201 69.1601 77.7536 69.0918 77.5804 69.0926C77.3479 69.0926 77.1179 69.0926 76.8854 69.0926L75.4679 69.1176L74.1079 69.1401H73.7029H73.4854C73.4729 69.1401 73.4129 69.1251 73.4554 69.1401H73.4054C73.3204 69.1243 73.2369 69.1018 73.1554 69.0726H73.1804C73.1684 69.0686 73.1566 69.0636 73.1454 69.0576L73.0929 69.0326L72.9754 68.9676C72.9504 68.9501 72.9004 68.9301 72.8829 68.9026C72.8654 68.8751 72.9354 68.9451 72.8954 68.9026L72.8729 68.8851L72.8229 68.8426L72.7354 68.7551L72.6979 68.7126C72.6979 68.7126 72.6804 68.6951 72.6804 68.6901C72.6804 68.6851 72.7154 68.7376 72.6804 68.6901C72.6149 68.6321 72.5546 68.5686 72.5004 68.5001C72.4931 68.4821 72.4846 68.4646 72.4754 68.4476C72.4604 68.4201 72.4754 68.4701 72.4754 68.4701C72.4726 68.4576 72.4674 68.4458 72.4604 68.4351C72.4454 68.3951 72.4329 68.3576 72.4204 68.3151C72.4076 68.2751 72.3976 68.2341 72.3904 68.1926C72.3904 68.1926 72.3904 68.1726 72.3904 68.1626C72.3904 68.1526 72.3904 68.1926 72.3904 68.1901C72.3866 68.1636 72.3866 68.1366 72.3904 68.1101C72.3834 68.0268 72.3834 67.9433 72.3904 67.8601C72.3904 67.8026 72.3904 67.9101 72.3904 67.8601C72.3904 67.8101 72.3904 67.8151 72.4029 67.7926L72.4329 67.6701C72.4479 67.6343 72.4606 67.5976 72.4704 67.5601C72.4704 67.5601 72.4479 67.6126 72.4704 67.5851C72.4709 67.5758 72.4709 67.5668 72.4704 67.5576C72.4794 67.5378 72.4894 67.5188 72.5004 67.5001L72.5604 67.3926C72.5761 67.3573 72.5981 67.3251 72.6254 67.2976C72.6254 67.2976 72.5879 67.3426 72.6104 67.3201L72.6329 67.2901L72.6704 67.2476C72.6979 67.2151 72.7254 67.1876 72.7554 67.1576L72.7979 67.1201L72.8204 67.1026C72.8429 67.0801 72.7979 67.1176 72.8004 67.1176C72.8029 67.1176 72.8704 67.0651 72.9004 67.0451L73.0054 66.9826L73.0579 66.9551L73.0829 66.9426C73.1104 66.9276 73.0604 66.9426 73.0604 66.9426C73.1006 66.9313 73.1399 66.9171 73.1779 66.9001L73.3004 66.8651H73.3579C73.4104 66.8526 73.3054 66.8651 73.3579 66.8651C73.4046 66.8626 73.4511 66.8626 73.4979 66.8651C73.5731 66.8626 73.6444 66.8308 73.6966 66.7766C73.7489 66.7226 73.7779 66.6503 73.7779 66.5751C73.7796 66.5371 73.7736 66.4993 73.7606 66.4636C73.7476 66.4278 73.7276 66.3951 73.7016 66.3673C73.6759 66.3393 73.6449 66.3168 73.6104 66.3011C73.5756 66.2851 73.5384 66.2763 73.5004 66.2751Z" fill="black"/>
<path d="M116.697 130.065L129.832 168.677L139.895 157.312L153.335 169.91L157.56 166.837L156.945 163.842L145.117 152.55L156.485 143.565L155.562 141.26L117.517 128.97L116.697 130.065Z" fill="white"/>
<path d="M153.695 170.873C153.087 170.875 152.484 170.756 151.922 170.523C151.36 170.291 150.849 169.949 150.42 169.518L139.898 159L132.783 168.588C132.503 168.971 132.136 169.283 131.712 169.497C131.289 169.712 130.82 169.822 130.345 169.82C129.705 169.821 129.081 169.621 128.561 169.247C128.041 168.873 127.652 168.345 127.45 167.738L115.5 131.903C115.342 131.445 115.297 130.955 115.37 130.477C115.442 129.998 115.629 129.543 115.915 129.153C116.296 128.628 116.834 128.237 117.451 128.037C118.068 127.836 118.733 127.837 119.35 128.038L155.188 140C155.716 140.176 156.186 140.493 156.546 140.917C156.906 141.342 157.143 141.857 157.231 142.406C157.319 142.956 157.254 143.519 157.044 144.035C156.834 144.55 156.487 144.998 156.04 145.33L146.453 152.448L156.973 162.97C157.62 163.618 158.061 164.444 158.24 165.342C158.418 166.241 158.327 167.172 157.976 168.019C157.625 168.865 157.031 169.589 156.269 170.097C155.507 170.606 154.611 170.878 153.695 170.878V170.873ZM139.655 155.68L151.955 167.98C152.424 168.428 153.048 168.677 153.696 168.677C154.345 168.677 154.968 168.428 155.438 167.98C155.897 167.518 156.156 166.892 156.156 166.24C156.156 165.588 155.897 164.962 155.438 164.5L143.135 152.2L154.75 143.583C154.878 143.487 154.977 143.358 155.037 143.21C155.096 143.062 155.114 142.901 155.089 142.743C155.063 142.585 154.994 142.438 154.891 142.317C154.787 142.195 154.652 142.105 154.5 142.055L118.67 130.11C118.493 130.05 118.3 130.049 118.122 130.108C117.944 130.166 117.79 130.281 117.683 130.435C117.601 130.546 117.547 130.675 117.527 130.811C117.507 130.947 117.521 131.086 117.568 131.215L129.5 167.045C129.558 167.22 129.67 167.373 129.82 167.48C129.97 167.588 130.151 167.644 130.335 167.643C130.47 167.643 130.603 167.611 130.724 167.55C130.844 167.489 130.948 167.4 131.028 167.29L139.655 155.68Z" fill="black"/>
<path opacity="0.07" d="M117.518 129.673L156.158 141.8V144.2L144.5 152.333L157.33 166.12L153.83 169.91C153.83 169.91 153.66 170.393 151.915 165.225C148.725 155.78 143.49 154.375 143.873 151.95C144.255 149.525 145.568 142.375 117.518 129.673Z" fill="#222221"/>
</svg>
