<svg width="200" height="200" viewBox="0 0 200 200" fill="none" xmlns="http://www.w3.org/2000/svg">
<path d="M53.2379 146.611L144.679 137.823L139.447 83.3861L48.0059 92.1749L53.2379 146.611Z" fill="white"/>
<path d="M53.2507 147.862L55.7032 147.627L62.3407 147L72.2057 146.053L84.2057 144.9L97.3357 143.65L110.586 142.377L122.991 141.185L133.471 140.185L140.971 139.462C142.156 139.35 143.343 139.24 144.528 139.12L144.681 139.107C145.303 139.047 146.001 138.58 145.931 137.857L145.411 132.428L144.161 119.393L142.661 103.732L141.353 90.1125C141.141 87.91 140.948 85.7075 140.718 83.5075V83.4175C140.658 82.7975 140.191 82.1 139.468 82.1675L137.013 82.405L130.348 83L120.486 83.95L108.486 85.1025L95.3557 86.3525L82.1057 87.6275L69.7007 88.82L59.2207 89.82L51.7207 90.54C50.5357 90.655 49.3482 90.7625 48.1632 90.8825L48.0107 90.8975C47.3882 90.9575 46.6907 91.4225 46.7607 92.1475L47.2807 97.5775L48.5307 110.61L50.0307 126.272L51.3382 139.892C51.5507 142.092 51.7432 144.297 51.9732 146.495C51.9732 146.525 51.9732 146.555 51.9732 146.585C52.0357 147.257 52.5007 147.835 53.2232 147.835C53.8482 147.835 54.5382 147.26 54.4732 146.585L53.9507 141.155L52.7007 128.122L51.2007 112.46L49.8907 98.84L49.4607 94.3575C49.3932 93.655 49.3682 92.9325 49.2557 92.2375C49.2557 92.2075 49.2557 92.1775 49.2557 92.1475L48.0057 93.3975L50.4582 93.1625L57.1057 92.5225L66.9707 91.575L78.9707 90.4225L92.1007 89.16L105.351 87.885L117.751 86.7225L128.231 85.7225L135.751 85C136.933 84.8875 138.131 84.8175 139.308 84.6575L139.463 84.6425L138.213 83.3925L138.733 88.8225L139.983 101.857L141.483 117.518L142.793 131.137L143.223 135.622C143.291 136.322 143.318 137.045 143.428 137.742C143.428 137.772 143.428 137.803 143.428 137.833L144.678 136.583L142.226 136.818L135.578 137.455L125.713 138.405L113.713 139.557L100.583 140.807L87.3332 142.083L74.9282 143.275L64.4482 144.275L56.9482 144.995C55.7632 145.11 54.5757 145.217 53.3907 145.337L53.2382 145.352C52.5657 145.417 51.9882 145.88 51.9882 146.602C52.0007 147.25 52.5632 147.927 53.2507 147.862Z" fill="#030402"/>
<path opacity="0.32" d="M96.5828 117.473L48.0078 92.175L139.448 83.385L96.5828 117.473Z" fill="#1C1C1C"/>
<path d="M85.5175 62.3475L48 92.175L139.45 83.385L96.945 61.25C95.138 60.3088 93.0967 59.9118 91.0687 60.1065C89.0405 60.3013 87.1125 61.0798 85.5175 62.3475Z" fill="white"/>
<path d="M84.6335 61.465L80.8835 64.4425L71.926 71.5675L61.101 80.1775L51.751 87.62L48.671 90.0675C48.186 90.455 47.671 90.8175 47.1985 91.24L47.1335 91.29C46.3085 91.9475 46.9785 93.525 48.0185 93.425L50.4585 93.19L57.1285 92.55L66.9635 91.605L78.9635 90.45L92.1485 89.1825L105.398 87.9075L117.766 86.72L128.216 85.72L135.731 85C136.921 84.8875 138.109 84.7775 139.296 84.6575L139.451 84.6425C139.723 84.635 139.985 84.5425 140.201 84.3777C140.418 84.2132 140.577 83.9847 140.656 83.725C140.726 83.4595 140.708 83.1782 140.605 82.9237C140.501 82.6695 140.317 82.4557 140.081 82.315L134.906 79.6175L122.906 73.3675L109.381 66.3225L99.5435 61.2L97.646 60.2C96.071 59.3742 94.3317 58.9102 92.5547 58.8415C90.7777 58.7727 89.0077 59.101 87.3735 59.8025C86.3945 60.2345 85.4767 60.7935 84.6435 61.465C84.111 61.88 84.206 62.795 84.6435 63.2325C85.1685 63.7575 85.8785 63.65 86.411 63.2325C87.8117 62.164 89.4855 61.5125 91.24 61.3532C92.9945 61.194 94.7585 61.5335 96.3285 62.3325C96.8285 62.5825 97.3435 62.86 97.8485 63.1225L107.098 67.9425L120.349 74.85L132.579 81.2175L136.751 83.3875C137.409 83.73 138.056 84.11 138.729 84.42C138.761 84.4325 138.789 84.45 138.819 84.465L139.451 82.135L137.009 82.37L130.339 83.0125L120.501 83.9575L108.501 85.11L95.316 86.3775L82.066 87.6525L69.6985 88.84L59.2485 89.84L51.7335 90.5625C50.546 90.6775 49.351 90.7575 48.1685 90.905C48.1185 90.905 48.066 90.905 48.016 90.92L48.8985 93.055L52.6485 90.075L61.606 82.9525L72.436 74.34L81.796 66.8975L84.8735 64.45C85.361 64.0625 85.8735 63.7 86.346 63.2775L86.411 63.2275C86.941 62.8075 86.851 61.8975 86.411 61.46C85.8785 60.9425 85.1635 61.0425 84.6335 61.465Z" fill="#030402"/>
<path opacity="0.2" d="M136.052 83.7125L95.6673 62.6801C94.3031 61.9703 92.7626 61.6708 91.2318 61.8181C89.7013 61.9656 88.2461 62.5531 87.0423 63.5101L51.4023 91.8475L136.052 83.7125Z" fill="black"/>
<path d="M119.165 80.6949L131.54 83.9999L131.837 89.0474L96.5825 117.08L56.6325 96.275L56.04 88.1425L119.165 80.6949Z" fill="white"/>
<path d="M119 81.2975L129.838 84.19L131.375 84.6025L130.915 84L131.213 89.05L131.395 88.6075L127.895 91.3925L119.455 98.1L109.278 106.193L100.458 113.205L97.565 115.5C97.1125 115.86 96.6225 116.198 96.1975 116.588C96.18 116.605 96.16 116.618 96.14 116.635L96.89 116.535L92.9225 114.47L83.3675 109.5L71.8325 103.5L61.8325 98.2975L58.555 96.59C58.055 96.325 57.5375 96.0025 57.005 95.7825L56.94 95.7475L57.25 96.275L56.75 89.17L56.675 88.1425L56.05 88.7675L57.7425 88.5675L62.3475 88.025L69.125 87.225L77.3925 86.25L86.4825 85.1775L95.66 84.095L104.185 83.095L111.418 82.2425L116.6 81.6325C117.423 81.535 118.245 81.44 119.068 81.34L119.175 81.3275C119.339 81.3225 119.495 81.255 119.612 81.139C119.728 81.0228 119.795 80.8668 119.8 80.7025C119.799 80.537 119.733 80.3783 119.616 80.2613C119.499 80.1443 119.341 80.0783 119.175 80.0775L117.483 80.2775L112.878 80.82L106.098 81.62L97.8325 82.595L88.74 83.6675L79.5525 84.75L71.03 85.75L63.795 86.6025L58.6125 87.215L56.145 87.5L56.04 87.5125C55.875 87.515 55.7175 87.5818 55.601 87.6985C55.4843 87.815 55.4175 87.9725 55.415 88.1375L55.83 93.855C55.89 94.645 55.93 95.4375 56.005 96.225C56.0425 96.645 56.255 96.775 56.5575 96.935L59.105 98.2625L63.81 100.713L69.975 103.923L76.795 107.475L83.595 111.015L89.565 114.125L94.0175 116.445C94.735 116.818 95.4475 117.195 96.17 117.565L96.265 117.615C96.3848 117.678 96.5213 117.703 96.6555 117.686C96.7898 117.668 96.9155 117.609 97.015 117.518L101.335 114.085L111.283 106.173L122.533 97.225L130.698 90.75C131.198 90.3475 131.765 89.9675 132.24 89.525C132.605 89.185 132.428 88.4825 132.403 88.0425L132.208 84.7225L132.165 84.0025C132.161 83.8665 132.115 83.735 132.033 83.627C131.95 83.5188 131.835 83.4393 131.705 83.4L120.87 80.5L119.33 80.09C118.553 79.885 118.22 81.09 119 81.2975Z" fill="#222221"/>
<path opacity="0.44" d="M96.5819 117.19L56.6318 96.385V97.0825L96.5819 117.887L131.837 89.855L131.704 89.2625L96.5819 117.19Z" fill="black"/>
<path d="M119.165 80.6949L121.5 87.1724L131.54 83.9999" fill="#E0E0E0"/>
<path d="M119.165 80.6949L120.365 86.0374L131.54 83.9999" fill="#F0F0F0"/>
<path d="M118.563 80.8625L119.608 85.5225L119.763 86.2025C119.81 86.36 119.916 86.4935 120.059 86.575C120.202 86.6565 120.37 86.6798 120.53 86.64L124.305 85.9525L130.323 84.8525L131.705 84.6025C131.864 84.5565 131.999 84.4503 132.08 84.3063C132.162 84.1625 132.184 83.9925 132.143 83.8325C132.095 83.6743 131.989 83.5405 131.846 83.459C131.702 83.3775 131.533 83.3545 131.373 83.395L127.598 84.085L121.58 85.1825L120.198 85.4325L120.968 85.87L119.92 81.2075L119.768 80.5275C119.59 79.7425 118.385 80.075 118.563 80.86V80.8625Z" fill="#222221"/>
<path d="M103.89 111.652L144.68 137.825L53.25 146.613L88.2975 113.15C90.3525 111.189 93.0068 109.975 95.8345 109.703C98.6623 109.431 101.499 110.118 103.89 111.652Z" fill="white"/>
<path d="M103.25 112.73L107.313 115.338L117.063 121.588L128.813 129.13L139.013 135.673L142.363 137.825C142.893 138.165 143.415 138.543 143.965 138.853L144.033 138.895L144.663 136.568L142.223 136.8L135.553 137.443L125.718 138.388L113.718 139.54L100.533 140.808L87.2829 142.083L74.9154 143.27L64.4654 144.27L56.9579 145C55.7704 145.115 54.5754 145.195 53.3929 145.343C53.3429 145.343 53.2904 145.343 53.2404 145.358L54.1229 147.493L58.6454 143.175L69.0179 133.275L80.4629 122.353L88.1654 115C88.7874 114.37 89.4426 113.773 90.1279 113.213C91.6212 112.091 93.3644 111.349 95.2079 111.051C97.0514 110.753 98.9396 110.907 100.71 111.5C101.609 111.802 102.466 112.217 103.26 112.735C103.544 112.873 103.87 112.899 104.172 112.807C104.474 112.714 104.73 112.511 104.889 112.238C105.047 111.964 105.096 111.641 105.026 111.333C104.956 111.025 104.772 110.755 104.51 110.578C102.695 109.43 100.64 108.715 98.5039 108.489C96.3679 108.263 94.2086 108.531 92.1929 109.273C90.2519 110.041 88.4856 111.193 87.0004 112.66L80.2154 119.138L68.9279 129.913L58.0329 140.31C56.1704 142.088 54.2354 143.81 52.4354 145.653L52.3554 145.73C51.6204 146.43 52.1379 147.98 53.2404 147.863L55.6804 147.628L62.3504 147L72.1854 146.055L84.1854 144.9L97.3704 143.635L110.62 142.36L123 141.158L133.45 140.158L140.965 139.435C142.153 139.323 143.343 139.213 144.53 139.093L144.683 139.08C145.895 138.963 146.413 137.455 145.315 136.75L141.25 134.138L131.5 127.888L119.75 120.345L109.553 113.803C107.908 112.745 106.288 111.615 104.6 110.625L104.533 110.58C104.391 110.484 104.23 110.417 104.062 110.385C103.893 110.353 103.719 110.357 103.552 110.395C103.384 110.433 103.227 110.505 103.088 110.607C102.95 110.709 102.834 110.838 102.748 110.987C102.662 111.136 102.607 111.3 102.588 111.471C102.568 111.642 102.584 111.814 102.634 111.979C102.684 112.143 102.768 112.295 102.879 112.426C102.991 112.556 103.128 112.663 103.283 112.738L103.25 112.73Z" fill="#030402"/>
<path d="M132.026 161.175C134.336 161.179 136.587 160.45 138.456 159.092C139.015 158.688 139.544 158.244 140.038 157.762C140.505 157.267 140.939 156.741 141.336 156.187C142.043 155.25 142.733 154.3 143.431 153.355L151.901 141.892L160.428 130.36C163.262 126.527 166.089 122.701 168.911 118.882C170.316 116.985 171.736 115.097 173.121 113.185C174.552 111.183 175.295 108.77 175.236 106.31C175.212 105.093 174.975 103.89 174.536 102.755C174.085 101.492 173.394 100.328 172.501 99.3274C171.435 98.1022 170.117 97.1219 168.637 96.4534C167.157 95.7852 165.55 95.4444 163.926 95.4549C163.242 95.4762 162.561 95.5489 161.888 95.6724C161.442 95.7407 161.002 95.8504 160.576 95.9999C159.453 96.3942 158.4 96.9664 157.458 97.6949C156.709 98.2637 156.021 98.9079 155.403 99.6174C154.058 101.185 152.903 102.917 151.668 104.577L147.443 110.295L138.908 121.85L130.363 133.407L128.363 136.125C128.085 136.604 127.938 137.148 127.938 137.702C127.938 138.257 128.085 138.801 128.363 139.28C128.637 139.742 129.023 140.128 129.486 140.4C129.964 140.68 130.509 140.828 131.063 140.827L131.928 140.715C132.478 140.682 133.015 140.537 133.506 140.287C134.085 139.941 134.533 139.414 134.783 138.787C135.004 138.278 135.078 137.717 134.998 137.167C134.906 136.494 134.606 135.866 134.138 135.372L128.963 129.457C127.388 127.66 125.821 125.77 123.571 124.787C122.218 124.125 120.739 123.763 119.233 123.725C118.621 123.709 118.009 123.748 117.403 123.842C116.783 123.914 116.171 124.041 115.573 124.22C113.003 125.039 110.8 126.73 109.343 129C108.652 130.08 108.169 131.281 107.921 132.54C107.774 133.281 107.69 134.034 107.671 134.79C107.677 135.562 107.752 136.333 107.893 137.092C108.114 138.347 108.568 139.55 109.231 140.637C109.951 141.827 110.926 142.845 111.838 143.887C115.258 147.796 118.679 151.711 122.101 155.632C122.851 156.5 123.583 157.417 124.458 158.17C124.998 158.644 125.572 159.078 126.176 159.467C126.803 159.844 127.462 160.164 128.146 160.425C129.29 160.873 130.501 161.126 131.728 161.175C132.359 161.23 132.994 161.119 133.568 160.853C134.143 160.588 134.639 160.176 135.006 159.66C135.373 159.144 135.599 158.541 135.661 157.911C135.723 157.281 135.62 156.645 135.361 156.067C135.074 155.364 134.572 154.77 133.926 154.37C133.35 154.03 132.695 153.846 132.026 153.835C131.261 153.78 130.343 154.222 129.816 154.75C129.526 155.04 129.295 155.384 129.138 155.763C128.981 156.142 128.9 156.548 128.9 156.959C128.9 157.369 128.981 157.775 129.138 158.154C129.295 158.533 129.526 158.877 129.816 159.167C130.419 159.727 131.203 160.053 132.026 160.085H132.091L131.258 159.975C131.317 159.984 131.374 160 131.428 160.022L130.678 159.707C130.711 159.723 130.742 159.742 130.771 159.762L130.138 159.275C130.166 159.296 130.191 159.321 130.213 159.347L129.713 158.715C129.745 158.756 129.772 158.799 129.796 158.845L129.481 158.095C129.499 158.143 129.513 158.192 129.523 158.242L129.411 157.412C129.421 157.48 129.421 157.549 129.411 157.617L129.523 156.787C129.513 156.837 129.498 156.885 129.481 156.932L129.796 156.182C129.781 156.213 129.765 156.242 129.746 156.27L130.246 155.637C130.215 155.678 130.18 155.714 130.141 155.747L130.773 155.247C130.745 155.269 130.714 155.287 130.681 155.3L131.431 154.985C131.396 155.001 131.359 155.012 131.321 155.017L132.153 154.907C131.784 154.93 131.414 154.907 131.051 154.84L131.883 154.952C131.172 154.851 130.475 154.662 129.811 154.387L130.561 154.702C129.881 154.409 129.24 154.032 128.653 153.58L129.286 154.08C128.266 153.282 127.458 152.275 126.611 151.305L123.681 147.96L117.808 141.25C116.771 140.062 115.666 138.91 114.696 137.667L115.196 138.3C114.765 137.744 114.407 137.136 114.128 136.49L114.443 137.24C114.167 136.568 113.978 135.863 113.881 135.142L113.993 135.975C113.903 135.257 113.903 134.53 113.993 133.812L113.881 134.642C113.982 133.925 114.174 133.223 114.453 132.555L114.138 133.305C114.403 132.703 114.738 132.134 115.138 131.612L114.638 132.25C115.063 131.702 115.555 131.209 116.101 130.782L115.468 131.27C116.037 130.833 116.659 130.47 117.318 130.19L116.568 130.505C117.232 130.23 117.927 130.04 118.638 129.94L117.808 130.052C118.501 129.965 119.203 129.965 119.896 130.052L119.066 129.94C119.738 130.032 120.396 130.208 121.023 130.465L120.273 130.15C120.94 130.433 121.568 130.798 122.143 131.237L121.516 130.75C122.198 131.297 122.825 131.911 123.386 132.582L125.481 134.977L129.711 139.812L131.921 134.477L131.056 134.59L133.751 139.28L144.078 125.305L154.471 111.25L157.363 107.337C158.113 106.337 158.828 105.297 159.591 104.3L159.091 104.932C159.798 103.976 160.624 103.113 161.548 102.365L160.916 102.865C161.445 102.461 162.023 102.125 162.636 101.865L161.886 102.18C162.484 101.937 163.109 101.769 163.748 101.68L162.918 101.792C163.625 101.701 164.341 101.701 165.048 101.792L164.218 101.682C164.94 101.783 165.646 101.975 166.318 102.255L165.568 101.94C166.208 102.214 166.813 102.565 167.368 102.985L166.736 102.485C167.289 102.914 167.788 103.409 168.221 103.96L167.721 103.327C168.138 103.866 168.486 104.453 168.758 105.077L168.443 104.327C168.719 104.983 168.908 105.671 169.006 106.375L168.893 105.545C168.985 106.25 168.985 106.964 168.893 107.67L169.006 106.837C168.897 107.575 168.697 108.295 168.408 108.982L168.723 108.232C168.058 109.767 166.936 111.07 165.948 112.402C164.862 113.874 163.773 115.346 162.681 116.817L156.121 125.692L143.083 143.33C140.676 146.58 138.306 149.875 135.858 153.102L136.358 152.47C135.876 153.097 135.316 153.66 134.693 154.147L135.326 153.647C134.766 154.089 134.152 154.459 133.501 154.75L134.251 154.435C133.61 154.699 132.938 154.88 132.251 154.975L133.081 154.862C132.73 154.908 132.377 154.932 132.023 154.932C131.197 154.945 130.406 155.273 129.813 155.85C129.523 156.14 129.293 156.484 129.136 156.863C128.979 157.242 128.898 157.648 128.898 158.059C128.898 158.469 128.979 158.875 129.136 159.254C129.293 159.633 129.523 159.977 129.813 160.267C130.405 160.845 131.197 161.172 132.023 161.182L132.026 161.175Z" fill="white"/>
<path d="M132.025 157.5C130.951 157.5 129.89 157.27 128.913 156.826C127.936 156.383 127.064 155.735 126.357 154.927L113.19 139.877C111.901 138.371 111.258 136.418 111.4 134.441C111.543 132.463 112.46 130.622 113.952 129.317C115.444 128.012 117.39 127.348 119.369 127.469C121.348 127.59 123.199 128.487 124.52 129.965L131.52 137.98L157.95 102.23C158.537 101.435 159.275 100.764 160.122 100.254C160.969 99.7447 161.908 99.4069 162.885 99.2602C163.862 99.1134 164.859 99.1607 165.818 99.3992C166.777 99.6377 167.68 100.063 168.475 100.65C169.27 101.237 169.941 101.975 170.451 102.822C170.96 103.669 171.298 104.608 171.445 105.585C171.591 106.562 171.544 107.559 171.306 108.518C171.067 109.477 170.642 110.38 170.055 111.175L138.055 154.452C137.387 155.36 136.524 156.105 135.528 156.632C134.532 157.16 133.431 157.455 132.305 157.497H132.04L132.025 157.5Z" fill="#EAEAEA"/>
<path d="M132.025 156.88C130.393 156.878 128.813 156.301 127.565 155.25C127.197 154.92 126.853 154.565 126.535 154.187L123.955 151.25L119.907 146.622L115.957 142.11L113.735 139.567C112.641 138.355 112.011 136.795 111.959 135.162C111.906 133.53 112.434 131.932 113.448 130.652C114.462 129.372 115.897 128.493 117.498 128.171C119.099 127.849 120.762 128.104 122.192 128.892C122.971 129.342 123.666 129.924 124.245 130.612L127.542 134.382L130.895 138.215L131.09 138.437C131.38 138.767 131.84 138.61 132.07 138.31L133.165 136.827L136.047 132.93L140.137 127.395L144.887 120.985L149.637 114.555L153.887 108.805L157.017 104.57C157.499 103.917 157.981 103.265 158.462 102.615C158.985 101.853 159.655 101.204 160.433 100.706C161.21 100.208 162.08 99.8712 162.99 99.7152C163.901 99.5592 164.833 99.5874 165.732 99.7984C166.632 100.009 167.479 100.398 168.226 100.942C168.972 101.487 169.601 102.175 170.077 102.967C170.552 103.759 170.864 104.638 170.993 105.553C171.123 106.467 171.067 107.398 170.831 108.291C170.594 109.184 170.181 110.02 169.615 110.75C169.292 111.197 168.96 111.637 168.632 112.08L166.16 115.425L162.525 120.33L158.115 126.297L153.327 132.775L148.555 139.23L144.18 145.15L140.632 149.95L138.29 153.12C137.833 153.791 137.318 154.42 136.75 155C135.469 156.202 133.779 156.871 132.022 156.87C131.217 156.87 131.217 158.12 132.022 158.12C134.011 158.114 135.931 157.388 137.425 156.075C137.919 155.624 138.362 155.121 138.747 154.575L140.312 152.457L143.337 148.365L147.385 142.89L152.055 136.57L156.94 129.962L161.647 123.595L165.75 118.065L168.81 113.922L170.445 111.712C170.746 111.317 171.016 110.899 171.252 110.462C172.012 109.032 172.328 107.408 172.161 105.797C171.994 104.187 171.351 102.662 170.313 101.419C169.276 100.175 167.892 99.2687 166.337 98.8152C164.783 98.3617 163.128 98.3817 161.585 98.8724C159.908 99.4217 158.447 100.488 157.412 101.917L157.012 102.46L154.737 105.537L150.987 110.597L146.382 116.83L141.5 123.46L136.96 129.602L133.335 134.5L131.265 137.3L131 137.67L131.98 137.542L129.35 134.542L125.5 130.132C125.14 129.693 124.753 129.275 124.342 128.882C123.163 127.815 121.695 127.119 120.122 126.882C118.544 126.634 116.927 126.856 115.473 127.52C114.019 128.185 112.793 129.262 111.947 130.618C111.102 131.974 110.673 133.549 110.716 135.146C110.759 136.744 111.27 138.293 112.187 139.602C112.772 140.425 113.492 141.167 114.155 141.925L117.855 146.15L122.142 151.052L125.297 154.66L125.91 155.357C126.675 156.23 127.617 156.929 128.674 157.408C129.73 157.887 130.877 158.135 132.037 158.135C132.83 158.135 132.83 156.885 132.025 156.88Z" fill="black"/>
<path d="M170.07 111.183L138.085 154.458C137.417 155.365 136.553 156.11 135.558 156.638C134.562 157.165 133.461 157.462 132.335 157.505H132.025C130.952 157.504 129.892 157.273 128.915 156.829C127.938 156.384 127.068 155.736 126.362 154.928L124.385 152.678C125.556 153.382 126.896 153.752 128.262 153.75H128.562C129.688 153.705 130.789 153.408 131.784 152.881C132.779 152.353 133.643 151.609 134.312 150.703L166.312 107.425C167.492 105.818 167.992 103.811 167.705 101.838C167.599 101.156 167.403 100.492 167.122 99.8625C167.607 100.075 168.068 100.34 168.495 100.653C169.292 101.241 169.965 101.981 170.475 102.83C170.985 103.679 171.322 104.62 171.467 105.6C171.751 107.572 171.249 109.577 170.07 111.183Z" fill="#B2B2B2"/>
<path d="M132.001 156.955C129.723 156.903 127.886 155.873 126.413 154.19L123.891 151.305L116.141 142.458C113.946 139.958 111.331 137.543 111.928 133.835C112.19 132.266 112.974 130.832 114.154 129.766C115.335 128.7 116.841 128.064 118.428 127.963C120.826 127.84 122.843 128.933 124.386 130.695L131.103 138.375C131.353 138.668 131.773 138.528 131.968 138.263L144.531 121.263C149.121 115.053 153.641 108.783 158.303 102.628C160.326 99.9575 163.903 98.855 166.998 100.34C171.033 102.275 172.091 107.34 169.546 110.898C168.391 112.51 167.183 114.093 166.003 115.69L148.618 139.25L140.796 149.835C139.628 151.413 138.546 153.125 137.243 154.585C136.586 155.328 135.78 155.924 134.876 156.332C133.972 156.741 132.992 156.953 132.001 156.955C131.291 156.955 131.291 158.058 132.001 158.058C134.678 158.058 137.031 156.728 138.613 154.615C139.113 153.94 139.613 153.258 140.113 152.58L147.251 142.93L165.783 117.855C167.321 115.775 168.868 113.7 170.398 111.605C172.043 109.355 172.586 106.485 171.596 103.838C170.921 102.064 169.648 100.58 167.997 99.6438C166.346 98.7075 164.42 98.3763 162.551 98.7075C158.901 99.37 157.098 102.43 155.083 105.158L146.781 116.39L131.328 137.295C131.228 137.43 127.461 132.518 125.243 129.983C123.793 128.328 121.993 127.163 119.773 126.9C118.293 126.726 116.794 126.964 115.441 127.589C114.088 128.214 112.935 129.201 112.108 130.441C111.281 131.68 110.814 133.125 110.757 134.614C110.7 136.103 111.056 137.578 111.786 138.878C112.358 139.898 113.208 140.76 113.973 141.628L122.096 150.91L125.596 154.898C127.278 156.823 129.413 157.983 132.011 158.043C132.718 158.073 132.718 156.97 132.001 156.955Z" fill="black"/>
<path d="M132.023 158.558H131.958C129.348 158.488 127.078 157.373 125.208 155.245L113.598 141.975L113.178 141.5C112.486 140.782 111.876 139.991 111.358 139.14C110.582 137.761 110.204 136.194 110.264 134.613C110.324 133.032 110.821 131.498 111.698 130.181C112.576 128.865 113.801 127.817 115.238 127.154C116.674 126.49 118.266 126.237 119.838 126.423C122.015 126.673 123.963 127.77 125.625 129.673C126.693 130.89 128.083 132.618 129.31 134.14C130.035 135.038 130.833 136.025 131.278 136.548L154.688 104.878C154.915 104.573 155.138 104.263 155.36 103.953C157.165 101.453 159.03 98.8575 162.468 98.2325C164.451 97.8908 166.492 98.2468 168.243 99.24C169.993 100.233 171.346 101.802 172.07 103.68C173.07 106.38 172.608 109.46 170.82 111.918C169.803 113.308 168.778 114.688 167.755 116.07L166.205 118.163L140.028 153.555C139.693 154.01 139.358 154.465 139.028 154.915C137.3 157.22 134.76 158.545 132.053 158.558H132.023ZM131.993 157.558H132.043C132.043 157.545 132.043 157.478 132.023 157.46H131.98C131.968 157.491 131.968 157.526 131.98 157.558H131.993ZM133.033 157.385C133.033 157.42 133.033 157.453 133.033 157.485C134.063 157.326 135.051 156.964 135.941 156.42C136.831 155.877 137.604 155.162 138.215 154.318C138.553 153.87 138.885 153.418 139.215 152.965L146.85 142.635L165.385 117.56L166.933 115.468C167.958 114.088 168.978 112.705 169.995 111.32C171.598 109.135 172.02 106.408 171.13 104.023C170.489 102.363 169.294 100.977 167.746 100.099C166.199 99.221 164.396 98.9063 162.643 99.2075C159.603 99.76 157.933 102.078 156.168 104.53C155.94 104.843 155.715 105.155 155.488 105.465L131.588 137.8H131.338H131.288L131.488 138.03C131.526 138.017 131.56 137.993 131.585 137.96L144.145 120.96C145.675 118.893 147.199 116.82 148.718 114.74C151.718 110.653 154.81 106.428 157.923 102.32C160.173 99.34 164.008 98.3375 167.233 99.8825C168.211 100.343 169.074 101.015 169.761 101.851C170.447 102.686 170.938 103.664 171.2 104.713C171.481 105.815 171.516 106.966 171.304 108.084C171.091 109.202 170.636 110.26 169.97 111.183C169.198 112.263 168.39 113.343 167.608 114.388C167.213 114.918 166.815 115.45 166.423 115.98L141.195 150.128C140.835 150.628 140.473 151.128 140.12 151.628C139.348 152.771 138.514 153.87 137.62 154.92C136.434 156.262 134.807 157.136 133.033 157.383V157.385ZM118.863 127.355C117.538 127.35 116.235 127.692 115.084 128.347C113.933 129.003 112.973 129.949 112.302 131.091C111.63 132.233 111.27 133.531 111.257 134.856C111.244 136.18 111.579 137.485 112.228 138.64C112.713 139.426 113.281 140.158 113.923 140.823L114.358 141.323L125.968 154.593C127.393 156.223 129.073 157.188 130.968 157.478C130.965 157.444 130.965 157.411 130.968 157.378C129.095 157.095 127.438 156.128 126.03 154.528L115.763 142.798C115.535 142.548 115.303 142.275 115.068 142.015C113 139.708 110.86 137.32 111.435 133.765C111.707 132.079 112.546 130.535 113.814 129.391C115.082 128.246 116.702 127.569 118.408 127.47C120.798 127.348 122.998 128.353 124.765 130.375L127.445 133.435C126.533 132.313 125.61 131.185 124.858 130.328C123.358 128.62 121.63 127.638 119.708 127.413C119.427 127.377 119.145 127.358 118.863 127.355ZM118.805 128.453C118.695 128.453 118.585 128.453 118.475 128.453C116.999 128.539 115.596 129.126 114.498 130.118C113.4 131.109 112.673 132.445 112.438 133.905C111.938 136.99 113.828 139.095 115.828 141.328C116.065 141.578 116.3 141.853 116.533 142.118L126.798 153.85C128.263 155.525 130.018 156.398 132.013 156.445C132.931 156.443 133.839 156.246 134.675 155.868C135.512 155.49 136.259 154.938 136.868 154.25C137.738 153.227 138.551 152.157 139.303 151.045C139.658 150.545 140.023 150.023 140.393 149.523L165.62 115.4C166.015 114.865 166.413 114.335 166.81 113.803C167.588 112.76 168.393 111.685 169.16 110.613C169.741 109.808 170.138 108.886 170.324 107.912C170.509 106.937 170.479 105.934 170.235 104.973C170.009 104.066 169.583 103.22 168.989 102.498C168.396 101.776 167.649 101.195 166.803 100.798C164.013 99.46 160.69 100.34 158.723 102.938C155.615 107.038 152.52 111.26 149.528 115.343C148.004 117.421 146.478 119.496 144.95 121.568L132.39 138.568C132.288 138.706 132.157 138.82 132.006 138.902C131.856 138.985 131.689 139.033 131.518 139.045C131.372 139.052 131.228 139.025 131.094 138.968C130.961 138.91 130.842 138.823 130.748 138.713L124.028 131.025C122.553 129.338 120.75 128.453 118.805 128.453Z" fill="black"/>
<path opacity="0.07" d="M55.0693 144.865C55.0693 144.865 87.6994 111.865 94.2344 110.715C100.769 109.565 106.322 114.035 106.322 114.035L115.822 120.162C115.822 120.162 101.524 111.928 92.7794 119.27C84.0344 126.612 81.2794 130.97 84.6944 135.567C86.9994 138.662 93.2494 138.75 94.2344 141.225C95.2194 143.7 94.6394 143.397 94.6394 143.397L55.0693 146.012V144.865Z" fill="#222221"/>
</svg>
