<svg width="200" height="200" viewBox="0 0 200 200" fill="none" xmlns="http://www.w3.org/2000/svg">
<path d="M137.193 46.1399H58.6376C58.2989 46.1394 57.9639 46.2079 57.6524 46.3409C57.3409 46.4742 57.0599 46.6689 56.8261 46.9139C56.5921 47.1589 56.4106 47.4489 56.2924 47.7664C56.1741 48.0837 56.1214 48.4217 56.1376 48.7599L61.3876 157.56C61.4184 158.202 61.6954 158.807 62.1609 159.251C62.6266 159.694 63.2449 159.941 63.8876 159.94H142.45C142.789 159.94 143.124 159.872 143.436 159.739C143.748 159.605 144.029 159.41 144.263 159.165C144.496 158.92 144.678 158.629 144.796 158.312C144.914 157.994 144.967 157.656 144.95 157.317L139.7 48.5174C139.669 47.8744 139.39 47.2687 138.923 46.8257C138.456 46.3829 137.836 46.1372 137.193 46.1399Z" fill="#7C7C7C"/>
<path d="M137.193 44.8899H59.0777C57.9152 44.8899 56.7902 45.1399 55.9452 46.0324C55.5702 46.4406 55.2839 46.9221 55.1049 47.4469C54.9259 47.9714 54.8579 48.5276 54.9052 49.0799L55.0927 52.9249L55.4577 60.4999L55.9577 70.9549L56.5602 83.3974L57.2227 97.0899L57.9002 111.145L58.5552 124.67L59.1477 136.937L59.6477 147.047L59.9902 154.14C60.0427 155.237 60.0877 156.335 60.1477 157.432C60.2652 159.507 61.7777 161.135 63.8977 161.182C64.1852 161.182 64.4727 161.182 64.7577 161.182H142.055C143.405 161.182 144.648 160.755 145.485 159.622C146.403 158.372 146.18 156.935 146.11 155.51L145.825 149.625L145.385 140.5L144.823 128.887L144.183 115.667L143.5 101.725L142.828 87.8099L142.203 74.8574L141.658 63.6074L141.25 54.9324L141 49.7074C140.983 49.3549 140.97 49.0024 140.95 48.6499C140.833 46.5649 139.323 44.9549 137.2 44.8999C135.59 44.8474 135.593 47.3499 137.2 47.3999C138.005 47.4249 138.42 47.9999 138.45 48.8074L138.515 50.1574L138.788 55.7949L139.218 64.6824L139.768 75.9999L140.395 89.0149L141.063 102.8L141.73 116.59L142.358 129.59L142.908 141.002L143.34 149.937L143.615 155.635L143.683 157.02C143.683 157.11 143.683 157.202 143.683 157.295C143.711 157.576 143.646 157.858 143.498 158.099C143.35 158.339 143.126 158.524 142.863 158.625C142.497 158.704 142.123 158.729 141.75 158.697H64.6327C64.3602 158.697 63.9602 158.722 63.7602 158.697C62.9652 158.592 62.6702 158.012 62.6352 157.26L62.4527 153.5L62.0927 146.052L61.5927 135.802L61.0002 123.5L60.3477 109.955L59.6752 96.0674L59.0227 82.5924L58.4302 70.2949L57.9302 60.0899L57.5827 52.7499L57.4052 49.0524C57.3627 48.2124 57.6002 47.5099 58.5052 47.3999C58.6927 47.3774 59.1027 47.3999 59.3727 47.3999H137.193C138.8 47.3899 138.803 44.8899 137.193 44.8899Z" fill="#222221"/>
<path opacity="0.2" d="M135.161 49.9675H59.8359L65.0984 154.795L130.598 154.708L141.483 145.058L135.161 49.9675Z" fill="black"/>
<path d="M135.751 49.9651C136.548 81.3581 139.076 112.683 143.324 143.798C137.349 147.903 131.408 152.008 125.501 156.113H69.1784C63.8607 120.959 60.7404 85.5073 59.8359 49.9651H135.751Z" fill="white"/>
<path d="M143.312 143.798C137.344 147.903 131.407 152.008 125.5 156.113C126.792 150.676 128.137 145.238 129.535 139.798L143.312 143.798Z" fill="#EBEBEB"/>
<path d="M80.2644 59.5575C80.4044 63.3908 80.5711 67.23 80.7644 71.075H69.2494C69.0561 67.2418 68.8894 63.4025 68.7494 59.5575H80.2694H80.2644ZM81.4419 58.3425H67.4844C67.6511 62.9893 67.8526 67.6383 68.0894 72.29H82.0419C81.8019 67.64 81.6001 62.9908 81.4369 58.3425H81.4419Z" fill="#999999"/>
<path d="M127.318 63.88H87.8706C87.8324 63.0117 87.7974 62.1442 87.7656 61.2775H127.213C127.238 62.1457 127.273 63.0132 127.318 63.88Z" fill="#E0E0E0"/>
<path d="M118.982 69.3525H88.1141C88.0724 68.4842 88.0324 67.6167 87.9941 66.75H118.862C118.899 67.6175 118.942 68.485 118.982 69.3525Z" fill="#E0E0E0"/>
<path d="M81.3906 82.1175C81.6324 85.9592 81.9014 89.8017 82.1981 93.645H70.6781C70.3831 89.8017 70.1139 85.9592 69.8706 82.1175H81.3906ZM82.5306 80.9025H68.5781C68.8649 85.5557 69.1914 90.2082 69.5581 94.86H83.5006C83.1389 90.2067 82.8131 85.5542 82.5231 80.9025H82.5306Z" fill="#999999"/>
<path d="M103.602 86.445H89.1022C89.0447 85.5775 88.9847 84.7075 88.9297 83.84H103.43C103.485 84.7075 103.542 85.5775 103.602 86.445Z" fill="#E0E0E0"/>
<path d="M117.329 86.445H106.669C106.609 85.5775 106.552 84.7075 106.494 83.84H117.154C117.212 84.7075 117.269 85.5775 117.329 86.445Z" fill="#E0E0E0"/>
<path d="M124.023 91.9225H89.5005C89.4355 91.0525 89.3723 90.1843 89.3105 89.3175H123.833C123.896 90.1858 123.96 91.0543 124.023 91.9225Z" fill="#E0E0E0"/>
<path d="M83.1204 104.69C83.4654 108.533 83.8371 112.376 84.2354 116.217H72.7154C72.3171 112.374 71.9454 108.532 71.6004 104.69H83.1204ZM84.2279 103.475H70.2754C70.6871 108.128 71.1371 112.781 71.6254 117.432H85.5779C85.0896 112.779 84.6396 108.127 84.2279 103.475Z" fill="#999999"/>
<path d="M130.682 111.89H91.2324C91.3199 112.76 91.4049 113.627 91.4949 114.495H130.942C130.854 113.628 130.767 112.76 130.682 111.89Z" fill="#E0E0E0"/>
<path d="M121.58 106.415H90.7129C90.7929 107.282 90.8761 108.149 90.9629 109.017H121.825C121.75 108.15 121.66 107.282 121.58 106.415Z" fill="#E0E0E0"/>
<path d="M85.4512 127.263C85.9012 131.104 86.3762 134.945 86.8762 138.785H75.3562C74.8562 134.952 74.3819 131.111 73.9337 127.263H85.4512ZM86.5287 126.048H72.5762C73.1112 130.699 73.6854 135.35 74.2987 140H88.2512C87.6394 135.35 87.0654 130.699 86.5287 126.048Z" fill="#999999"/>
<path d="M132.85 131.59H93.4023C93.2973 130.723 93.1923 129.84 93.0898 128.985H132.537C132.639 129.853 132.743 130.722 132.85 131.59Z" fill="#E0E0E0"/>
<path d="M112.045 137.062H94.0875L93.75 134.46H111.708L112.045 137.062Z" fill="#E0E0E0"/>
<path d="M122.769 137.062H115.019L114.689 134.46H122.439C122.548 135.32 122.658 136.187 122.769 137.062Z" fill="#E0E0E0"/>
<path d="M75.1716 69.4326L74.6716 68.6176C73.5566 66.8426 71.2791 65.2576 70.4941 64.7951L71.0791 63.7551C72.6229 64.6896 74.0024 65.8721 75.1616 67.2551C76.9116 64.8651 79.5091 62.3976 83.0616 59.7426L83.8116 60.7226C80.0191 63.5601 77.3641 66.1626 75.6916 68.6626L75.1716 69.4326Z" fill="#263238"/>
<path d="M76.5625 92L76.03 91.185C74.87 89.41 72.5475 87.8225 71.75 87.36L72.3075 86.32C73.8783 87.2558 75.2888 88.4373 76.485 89.82C78.175 87.4275 80.7025 84.96 84.1825 82.3L84.9625 83.2825C81.245 86.125 78.66 88.7225 77.055 91.2275L76.5625 92Z" fill="#263238"/>
<path d="M78.5622 114.627L77.9997 113.812C76.7922 112.037 74.4272 110.45 73.6172 109.987L74.1447 108.947C75.7432 109.883 77.1849 111.064 78.4172 112.447C80.0447 110.055 82.5047 107.587 85.9172 104.927L86.7222 105.91C83.0822 108.752 80.5647 111.352 79.0272 113.855C78.8747 114.117 78.7172 114.372 78.5622 114.627Z" fill="#263238"/>
<path d="M115.105 149.867C112.965 149.867 111.733 149.077 110.648 148.382C109.608 147.715 108.625 147.087 106.82 147.085C105.015 147.082 104.208 147.715 103.358 148.382C102.47 149.077 101.463 149.882 99.3252 149.867C97.1877 149.852 95.9527 149.077 94.8652 148.382C93.8277 147.715 92.8477 147.087 91.0402 147.085C89.2327 147.082 88.4302 147.715 87.5802 148.382C86.6902 149.077 85.6827 149.882 83.5452 149.867C81.4077 149.852 80.1752 149.077 79.0877 148.382C78.0477 147.715 77.0677 147.087 75.2627 147.085C75.2127 146.737 75.1652 146.39 75.1152 146.042C77.2552 146.042 78.4852 146.832 79.5702 147.542C80.6077 148.207 81.5902 148.837 83.3977 148.837C85.2052 148.837 86.0052 148.207 86.8577 147.542C87.7102 146.877 88.7552 146.042 90.8952 146.042C93.0352 146.042 94.2602 146.832 95.3477 147.542C96.3852 148.207 97.3677 148.837 99.1752 148.837C100.983 148.837 101.785 148.207 102.635 147.542C103.525 146.845 104.535 146.042 106.673 146.042C108.81 146.042 110.043 146.832 111.128 147.542C112.165 148.207 113.148 148.837 114.955 148.837L115.105 149.867Z" fill="#EBEBEB"/>
<path d="M118.171 48.455C116.949 45.205 114.119 43.0525 111.071 43.0525H104.866C104.406 43.05 103.957 42.9132 103.573 42.6587C103.19 42.4042 102.889 42.043 102.709 41.62C102.271 40.5775 101.538 39.686 100.6 39.0555C99.6617 38.425 98.5592 38.0832 97.4287 38.0725C96.3369 38.0632 95.2704 38.402 94.3844 39.04C93.4984 39.678 92.8387 40.5817 92.5012 41.62C92.3607 42.0427 92.0892 42.4095 91.7259 42.6672C91.3624 42.9247 90.9264 43.0597 90.4812 43.0525H84.2687C81.2212 43.0525 78.5987 45.2075 77.6887 48.455L77.3262 49.75H118.661L118.171 48.455Z" fill="#050505"/>
<path d="M118.394 51.0275H77.7118C77.3695 51.0225 77.0418 50.8883 76.7943 50.6518C76.5465 50.4155 76.3975 50.0943 76.3768 49.7525C76.3678 49.588 76.3928 49.4238 76.4498 49.2693C76.5068 49.1148 76.5948 48.9738 76.7083 48.8545C76.8218 48.7353 76.9585 48.6408 77.11 48.5763C77.2615 48.5118 77.4245 48.479 77.5893 48.48H118.269C118.612 48.4838 118.94 48.6173 119.188 48.8533C119.436 49.0893 119.586 49.4105 119.607 49.7525C119.616 49.917 119.591 50.0818 119.535 50.2365C119.478 50.3913 119.39 50.5328 119.276 50.6523C119.163 50.7715 119.026 50.8665 118.874 50.931C118.722 50.9955 118.559 51.0285 118.394 51.0275Z" fill="#606060"/>
</svg>
