<svg width="591" height="451" viewBox="0 0 591 451" fill="none" xmlns="http://www.w3.org/2000/svg">
<path d="M512.397 358.394C506.893 349.825 503.31 340.129 501.944 329.982C501.759 330.207 501.574 330.47 501.427 330.696C502.683 330.583 503.754 330.846 504.751 331.635C505.305 332.086 506.081 331.297 505.527 330.846C504.271 329.869 502.978 329.418 501.427 329.568C501.02 329.606 500.836 329.906 500.909 330.282C502.313 340.542 505.896 350.314 511.474 358.958C511.843 359.56 512.803 358.996 512.397 358.394Z" fill="#CFD8DC"/>
<path d="M505.49 331.034C504.234 317.842 506.229 304.538 511.326 292.323C510.994 292.323 510.698 292.323 510.366 292.323C510.92 293.15 511.326 293.939 511.658 294.879C511.88 295.555 512.951 295.255 512.73 294.578C512.36 293.563 511.954 292.661 511.326 291.759C511.104 291.459 510.55 291.346 510.366 291.759C505.194 304.162 503.126 317.654 504.382 331.034C504.456 331.748 505.564 331.786 505.49 331.034Z" fill="#CFD8DC"/>
<path d="M513.062 294.39C514.355 291.196 515.796 288.039 517.421 285.032C518.788 282.514 520.745 277.44 524.291 278.154C527.874 278.868 529.056 283.716 529.832 286.761C530.682 290.143 531.051 293.638 531.162 297.096C531.383 303.636 530.866 310.213 530.423 316.715C529.943 323.63 529.167 330.545 527.579 337.31C525.843 344.827 523.257 352.081 519.97 358.996C519.674 359.635 520.598 360.236 520.93 359.56C524.181 352.757 526.766 345.616 528.502 338.25C530.312 330.696 531.125 322.991 531.605 315.249C532.085 307.544 532.824 299.652 531.901 291.947C531.346 287.324 530.017 277.177 523.811 276.876C520.561 276.726 518.862 280.184 517.495 282.589C515.389 286.272 513.579 290.106 511.991 294.052C511.733 294.766 512.804 295.067 513.062 294.39Z" fill="#CFD8DC"/>
<path d="M531.272 321.3C532.528 318.744 534.005 316.339 535.778 314.159C536.628 313.107 540.617 307.695 542.205 308.935C542.538 309.198 542.648 310.476 542.722 310.927C542.944 311.866 543.092 312.844 543.166 313.821C543.313 315.324 543.35 316.79 543.276 318.293C543.129 321.488 542.575 324.682 541.799 327.802C538.992 339.19 533.968 349.938 527.43 359.56C527.024 360.161 527.984 360.725 528.391 360.123C535.963 349.036 542.131 335.732 544.015 322.239C544.458 319.045 544.606 315.813 544.163 312.618C543.978 311.228 543.72 306.718 541.466 307.169C540.432 307.394 539.472 308.597 538.733 309.273C537.551 310.401 536.406 311.603 535.372 312.844C533.377 315.249 531.678 317.88 530.311 320.699C529.979 321.375 530.939 321.939 531.272 321.3Z" fill="#CFD8DC"/>
<path d="M240.87 359.823C235.994 354.148 231.968 347.759 228.939 340.881C228.865 341.144 228.791 341.407 228.754 341.67C230.232 340.994 231.709 340.731 233.334 340.843C234.036 340.881 234.036 339.753 233.334 339.716C231.525 339.603 229.862 339.941 228.2 340.693C227.905 340.843 227.905 341.219 228.015 341.482C231.118 348.473 235.181 354.899 240.131 360.65C240.537 361.176 241.35 360.387 240.87 359.823Z" fill="#CFD8DC"/>
<path d="M233.408 339.265C230.49 334.078 228.643 328.328 228.126 322.39C227.793 318.631 227.128 305.177 234.036 308.86C236.474 310.175 237.877 312.994 239.133 315.362C240.611 318.105 241.903 320.962 243.048 323.855C245.117 329.155 246.631 334.679 247.555 340.279C248.663 346.932 248.922 353.697 248.404 360.462C248.331 361.176 249.476 361.176 249.513 360.462C250.547 346.894 248.294 333.176 242.901 320.698C241.571 317.617 240.093 314.46 238.247 311.641C236.917 309.611 235.107 307.619 232.632 307.168C226.722 306.079 226.796 315.136 226.796 318.894C226.833 326.261 228.791 333.477 232.41 339.866C232.817 340.43 233.777 339.866 233.408 339.265Z" fill="#CFD8DC"/>
<path d="M246.336 329.794C246.114 326.975 246.927 314.122 252.172 316.828C256.346 318.97 257.232 325.622 257.454 329.831C257.713 334.605 257.528 339.415 257.417 344.188C257.269 349.187 256.9 354.148 255.201 358.883C254.942 359.56 256.014 359.861 256.272 359.184C258.378 353.396 258.488 347.233 258.599 341.144C258.71 335.394 259.19 329.268 257.676 323.63C256.826 320.511 253.797 313.633 249.439 315.7C247.592 316.602 246.779 319.158 246.188 320.999C245.302 323.893 245.006 326.862 245.228 329.869C245.265 330.546 246.373 330.546 246.336 329.794Z" fill="#CFD8DC"/>
<path d="M230.601 308.108C235.366 318.932 239.281 330.094 242.273 341.557C242.458 342.271 243.529 341.971 243.344 341.257C240.315 329.719 236.4 318.444 231.561 307.544C231.266 306.868 230.305 307.432 230.601 308.108Z" fill="#CFD8DC"/>
<path d="M227.535 322.953C233.186 324.983 237.767 329.155 240.389 334.642C240.722 335.281 241.645 334.717 241.35 334.078C238.579 328.328 233.74 324.006 227.83 321.864C227.166 321.638 226.87 322.728 227.535 322.953Z" fill="#CFD8DC"/>
<path d="M238.579 313.182C237.582 316.527 237.065 319.947 236.954 323.404C236.917 324.119 238.025 324.119 238.062 323.404C238.173 320.022 238.69 316.715 239.65 313.482C239.835 312.768 238.764 312.468 238.579 313.182Z" fill="#CFD8DC"/>
<path d="M246.04 322.954C249.512 327.088 251.987 331.823 253.465 337.047C253.649 337.761 254.721 337.461 254.536 336.747C253.021 331.335 250.436 326.411 246.853 322.164C246.373 321.601 245.597 322.39 246.04 322.954Z" fill="#CFD8DC"/>
<path d="M251.544 322.653C253.945 334.792 253.539 346.781 252.283 359.033C252.209 359.748 253.317 359.748 253.391 359.033C254.684 346.706 255.053 334.604 252.615 322.352C252.468 321.638 251.396 321.939 251.544 322.653Z" fill="#CFD8DC"/>
<path d="M179.59 224.936C179.59 227.605 179.59 230.273 179.59 232.979C179.59 233.693 180.698 233.693 180.698 232.979C180.698 230.311 180.698 227.642 180.698 224.936C180.698 224.222 179.59 224.222 179.59 224.936Z" fill="#CFD8DC"/>
<path d="M180.145 233.731C193.073 233.731 205.964 233.731 218.892 233.731C219.594 233.731 219.594 232.603 218.892 232.603C205.964 232.603 193.073 232.603 180.145 232.603C179.443 232.603 179.443 233.731 180.145 233.731Z" fill="#CFD8DC"/>
<path d="M180.145 225.387C193.147 225.387 206.149 225.387 219.151 225.387C219.852 225.387 219.852 224.26 219.151 224.26C206.149 224.26 193.147 224.26 180.145 224.26C179.443 224.26 179.443 225.387 180.145 225.387Z" fill="#CFD8DC"/>
<path d="M218.597 224.748C218.597 227.492 218.597 230.235 218.597 232.979C218.597 233.693 219.705 233.693 219.705 232.979C219.705 230.235 219.705 227.492 219.705 224.748C219.705 223.997 218.597 223.997 218.597 224.748Z" fill="#CFD8DC"/>
<path d="M194.181 233.58C194.181 235.873 194.181 238.166 194.181 240.458C194.181 241.172 195.289 241.172 195.289 240.458C195.289 238.166 195.289 235.873 195.289 233.58C195.289 232.866 194.181 232.866 194.181 233.58Z" fill="#CFD8DC"/>
<path d="M194.809 241.435C205.114 241.435 215.42 241.435 225.726 241.435C226.427 241.435 226.427 240.308 225.726 240.308C215.42 240.308 205.114 240.308 194.809 240.308C194.07 240.308 194.07 241.435 194.809 241.435Z" fill="#CFD8DC"/>
<path d="M219.224 233.806C221.514 233.806 223.804 233.806 226.131 233.806C226.833 233.806 226.833 232.678 226.131 232.678C223.841 232.678 221.551 232.678 219.224 232.678C218.485 232.678 218.485 233.806 219.224 233.806Z" fill="#CFD8DC"/>
<path d="M225.614 233.656C225.614 235.986 225.614 238.316 225.614 240.684C225.614 241.398 226.722 241.398 226.722 240.684C226.722 238.354 226.722 236.023 226.722 233.656C226.722 232.942 225.614 232.942 225.614 233.656Z" fill="#CFD8DC"/>
<path d="M222.068 241.022C222.068 243.578 222.068 246.096 222.068 248.651C222.068 249.365 223.176 249.365 223.176 248.651C223.176 246.096 223.176 243.578 223.176 241.022C223.176 240.27 222.068 240.27 222.068 241.022Z" fill="#CFD8DC"/>
<path d="M222.77 249.253C231.266 249.253 239.761 249.253 248.257 249.253C248.959 249.253 248.959 248.125 248.257 248.125C239.761 248.125 231.266 248.125 222.77 248.125C222.031 248.125 222.031 249.253 222.77 249.253Z" fill="#CFD8DC"/>
<path d="M226.242 241.51C233.63 241.51 241.017 241.51 248.405 241.51C249.107 241.51 249.107 240.383 248.405 240.383C241.017 240.383 233.63 240.383 226.242 240.383C225.54 240.383 225.54 241.51 226.242 241.51Z" fill="#CFD8DC"/>
<path d="M247.777 240.871C247.777 243.314 247.777 245.72 247.777 248.163C247.777 248.877 248.885 248.877 248.885 248.163C248.885 245.72 248.885 243.314 248.885 240.871C248.885 240.157 247.777 240.157 247.777 240.871Z" fill="#CFD8DC"/>
<path d="M222.585 248.088C215.53 248.088 208.475 248.088 201.42 248.088C200.718 248.088 200.718 249.215 201.42 249.215C208.475 249.215 215.53 249.215 222.585 249.215C223.287 249.215 223.287 248.088 222.585 248.088Z" fill="#CFD8DC"/>
<path d="M201.864 248.576C201.864 246.171 201.864 243.766 201.864 241.323C201.864 240.609 200.756 240.609 200.756 241.323C200.756 243.728 200.756 246.133 200.756 248.576C200.756 249.29 201.864 249.29 201.864 248.576Z" fill="#CFD8DC"/>
<path d="M156.319 63.779C156.319 90.9517 156.319 118.087 156.319 145.26C156.319 145.974 157.427 145.974 157.427 145.26C157.427 118.087 157.427 90.9517 157.427 63.779C157.427 63.0649 156.319 63.0649 156.319 63.779Z" fill="#CFD8DC"/>
<path d="M156.8 146.086C182.804 146.086 208.808 146.086 234.812 146.086C242.162 146.086 249.55 146.086 256.9 146.086C257.602 146.086 257.602 144.959 256.9 144.959C230.896 144.959 204.892 144.959 178.888 144.959C171.538 144.959 164.15 144.959 156.8 144.959C156.098 144.959 156.098 146.086 156.8 146.086Z" fill="#CFD8DC"/>
<path d="M157.059 63.7789C182.767 63.7789 208.476 63.7789 234.184 63.7789C241.461 63.7789 248.701 63.7789 255.977 63.7789C256.679 63.7789 256.679 62.6514 255.977 62.6514C230.269 62.6514 204.56 62.6514 178.852 62.6514C171.575 62.6514 164.335 62.6514 157.059 62.6514C156.357 62.6514 156.357 63.7789 157.059 63.7789Z" fill="#CFD8DC"/>
<path d="M256.567 63.5534C256.567 90.7261 256.567 117.899 256.567 145.109C256.567 145.823 257.675 145.823 257.675 145.109C257.675 117.936 257.675 90.7637 257.675 63.5534C257.675 62.8393 256.567 62.8393 256.567 63.5534Z" fill="#CFD8DC"/>
<path d="M161.786 67.9131C161.786 92.455 161.786 116.997 161.786 141.501C161.786 142.215 162.894 142.215 162.894 141.501C162.894 116.959 162.894 92.4174 162.894 67.9131C162.894 67.1614 161.786 67.1614 161.786 67.9131Z" fill="#CFD8DC"/>
<path d="M162.266 142.291C191.89 142.291 221.514 142.291 251.101 142.291C251.802 142.291 251.802 141.163 251.101 141.163C221.477 141.163 191.853 141.163 162.266 141.163C161.564 141.163 161.527 142.291 162.266 142.291Z" fill="#CFD8DC"/>
<path d="M162.488 67.9508C191.743 67.9508 221.034 67.9508 250.289 67.9508C250.991 67.9508 250.991 66.8232 250.289 66.8232C221.034 66.8232 191.743 66.8232 162.488 66.8232C161.786 66.8232 161.786 67.9508 162.488 67.9508Z" fill="#CFD8DC"/>
<path d="M250.732 67.6877C250.732 92.2296 250.732 116.809 250.732 141.351C250.732 142.065 251.841 142.065 251.841 141.351C251.841 116.809 251.841 92.2296 251.841 67.6877C251.841 66.9736 250.732 66.9736 250.732 67.6877Z" fill="#CFD8DC"/>
<path d="M205.262 68.0259C205.262 80.015 205.262 91.9665 205.262 103.956C205.262 104.67 206.37 104.67 206.37 103.956C206.37 91.9665 206.37 80.015 206.37 68.0259C206.37 67.2742 205.262 67.2742 205.262 68.0259Z" fill="#CFD8DC"/>
<path d="M205.816 103.354C191.743 103.354 177.633 103.354 163.56 103.354C162.858 103.354 162.858 104.482 163.56 104.482C177.633 104.482 191.743 104.482 205.816 104.482C206.518 104.482 206.518 103.354 205.816 103.354Z" fill="#CFD8DC"/>
<path d="M210.766 68.0259C210.766 79.9022 210.766 91.741 210.766 103.617C210.766 104.331 211.874 104.331 211.874 103.617C211.874 91.741 211.874 79.9022 211.874 68.0259C211.874 67.2742 210.766 67.2742 210.766 68.0259Z" fill="#CFD8DC"/>
<path d="M211.32 104.82C224.322 104.82 237.324 104.82 250.326 104.82C251.028 104.82 251.028 103.692 250.326 103.692C237.324 103.692 224.322 103.692 211.32 103.692C210.581 103.692 210.581 104.82 211.32 104.82Z" fill="#CFD8DC"/>
<path d="M163.227 110.082C177.374 110.082 191.521 110.082 205.631 110.082C206.333 110.082 206.333 108.954 205.631 108.954C191.484 108.954 177.337 108.954 163.227 108.954C162.525 108.954 162.488 110.082 163.227 110.082Z" fill="#CFD8DC"/>
<path d="M205.077 109.668C205.077 120.229 205.077 130.752 205.077 141.313C205.077 142.027 206.185 142.027 206.185 141.313C206.185 130.752 206.185 120.229 206.185 109.668C206.185 108.954 205.077 108.954 205.077 109.668Z" fill="#CFD8DC"/>
<path d="M210.58 110.495C210.58 120.755 210.58 131.016 210.58 141.313C210.58 142.027 211.688 142.027 211.688 141.313C211.688 131.053 211.688 120.793 211.688 110.495C211.688 109.781 210.58 109.781 210.58 110.495Z" fill="#CFD8DC"/>
<path d="M210.988 111.247C224.322 111.247 237.656 111.247 250.991 111.247C251.693 111.247 251.693 110.119 250.991 110.119C237.656 110.119 224.322 110.119 210.988 110.119C210.286 110.119 210.249 111.247 210.988 111.247Z" fill="#CFD8DC"/>
<path d="M238.616 68.2889C230.305 77.835 222.511 87.8322 215.198 98.2052C214.791 98.8065 215.752 99.3703 216.158 98.769C223.398 88.4711 231.155 78.5491 239.392 69.0781C239.872 68.552 239.096 67.7251 238.616 68.2889Z" fill="#CFD8DC"/>
<path d="M238.543 82.1947C234.701 86.9302 230.86 91.6657 227.018 96.3636C226.575 96.9273 227.351 97.7166 227.794 97.1529C231.635 92.4173 235.477 87.6818 239.318 82.9839C239.762 82.4202 238.986 81.6309 238.543 82.1947Z" fill="#CFD8DC"/>
<path d="M167.475 140.9C177.152 131.053 186.83 121.169 196.507 111.322C197.025 110.796 196.212 110.006 195.732 110.533C186.054 120.379 176.377 130.264 166.699 140.111C166.219 140.599 166.994 141.389 167.475 140.9Z" fill="#CFD8DC"/>
<path d="M184.207 137.442C187.494 133.158 190.966 129.099 194.697 125.228C195.214 124.701 194.402 123.912 193.921 124.438C190.191 128.309 186.682 132.368 183.431 136.653C182.988 137.217 183.764 138.044 184.207 137.442Z" fill="#CFD8DC"/>
<path d="M436.38 62.5387C436.38 89.7115 436.38 116.847 436.38 144.019C436.38 144.733 437.488 144.733 437.488 144.019C437.488 116.847 437.488 89.7115 437.488 62.5387C437.488 61.8247 436.38 61.8247 436.38 62.5387Z" fill="#CFD8DC"/>
<path d="M436.859 144.846C462.863 144.846 488.867 144.846 514.871 144.846C522.222 144.846 529.609 144.846 536.96 144.846C537.662 144.846 537.662 143.719 536.96 143.719C510.956 143.719 484.952 143.719 458.948 143.719C451.597 143.719 444.21 143.719 436.859 143.719C436.158 143.719 436.158 144.846 436.859 144.846Z" fill="#CFD8DC"/>
<path d="M437.118 62.5762C462.827 62.5762 488.535 62.5762 514.244 62.5762C521.52 62.5762 528.76 62.5762 536.037 62.5762C536.738 62.5762 536.738 61.4487 536.037 61.4487C510.328 61.4487 484.62 61.4487 458.911 61.4487C451.635 61.4487 444.395 61.4487 437.118 61.4487C436.416 61.4487 436.416 62.5762 437.118 62.5762Z" fill="#CFD8DC"/>
<path d="M536.628 62.3132C536.628 89.4859 536.628 116.659 536.628 143.869C536.628 144.583 537.736 144.583 537.736 143.869C537.736 116.696 537.736 89.5235 537.736 62.3132C537.736 61.5991 536.628 61.5991 536.628 62.3132Z" fill="#CFD8DC"/>
<path d="M441.847 66.6729C441.847 91.2148 441.847 115.757 441.847 140.261C441.847 140.975 442.955 140.975 442.955 140.261C442.955 115.719 442.955 91.1772 442.955 66.6729C442.955 65.9212 441.847 65.9212 441.847 66.6729Z" fill="#CFD8DC"/>
<path d="M442.327 141.05C471.95 141.05 501.574 141.05 531.161 141.05C531.863 141.05 531.863 139.923 531.161 139.923C501.537 139.923 471.913 139.923 442.327 139.923C441.588 139.923 441.588 141.05 442.327 141.05Z" fill="#CFD8DC"/>
<path d="M442.549 66.7105C471.803 66.7105 501.095 66.7105 530.349 66.7105C531.051 66.7105 531.051 65.583 530.349 65.583C501.095 65.583 471.803 65.583 442.549 65.583C441.847 65.583 441.847 66.7105 442.549 66.7105Z" fill="#CFD8DC"/>
<path d="M530.792 66.4472C530.792 90.9891 530.792 115.569 530.792 140.111C530.792 140.825 531.9 140.825 531.9 140.111C531.9 115.569 531.9 90.9891 531.9 66.4472C531.9 65.7331 530.792 65.7331 530.792 66.4472Z" fill="#CFD8DC"/>
<path d="M485.322 66.7857C485.322 78.7748 485.322 90.7263 485.322 102.715C485.322 103.429 486.43 103.429 486.43 102.715C486.43 90.7263 486.43 78.7748 486.43 66.7857C486.43 66.034 485.322 66.034 485.322 66.7857Z" fill="#CFD8DC"/>
<path d="M485.876 102.114C471.802 102.114 457.692 102.114 443.619 102.114C442.917 102.114 442.917 103.242 443.619 103.242C457.692 103.242 471.802 103.242 485.876 103.242C486.577 103.242 486.577 102.114 485.876 102.114Z" fill="#CFD8DC"/>
<path d="M490.826 66.7857C490.826 78.662 490.826 90.5007 490.826 102.377C490.826 103.091 491.934 103.091 491.934 102.377C491.934 90.5007 491.934 78.662 491.934 66.7857C491.934 66.034 490.826 66.034 490.826 66.7857Z" fill="#CFD8DC"/>
<path d="M491.38 103.58C504.382 103.58 517.384 103.58 530.386 103.58C531.088 103.58 531.088 102.452 530.386 102.452C517.384 102.452 504.382 102.452 491.38 102.452C490.641 102.452 490.641 103.58 491.38 103.58Z" fill="#CFD8DC"/>
<path d="M443.286 108.841C457.434 108.841 471.581 108.841 485.691 108.841C486.393 108.841 486.393 107.714 485.691 107.714C471.544 107.714 457.397 107.714 443.286 107.714C442.548 107.714 442.548 108.841 443.286 108.841Z" fill="#CFD8DC"/>
<path d="M485.138 108.465C485.138 119.026 485.138 129.55 485.138 140.111C485.138 140.825 486.246 140.825 486.246 140.111C486.246 129.55 486.246 119.026 486.246 108.465C486.246 107.714 485.138 107.714 485.138 108.465Z" fill="#CFD8DC"/>
<path d="M490.642 109.292C490.642 119.553 490.642 129.813 490.642 140.111C490.642 140.825 491.75 140.825 491.75 140.111C491.75 129.85 491.75 119.59 491.75 109.292C491.75 108.541 490.642 108.541 490.642 109.292Z" fill="#CFD8DC"/>
<path d="M491.047 110.006C504.382 110.006 517.716 110.006 531.05 110.006C531.752 110.006 531.752 108.879 531.05 108.879C517.716 108.879 504.382 108.879 491.047 108.879C490.308 108.879 490.308 110.006 491.047 110.006Z" fill="#CFD8DC"/>
<path d="M518.677 67.0488C510.366 76.5949 502.572 86.5921 495.258 96.9651C494.852 97.5664 495.812 98.1302 496.219 97.5289C503.458 87.231 511.215 77.309 519.453 67.838C519.933 67.3118 519.157 66.5226 518.677 67.0488Z" fill="#CFD8DC"/>
<path d="M518.602 80.9544C514.761 85.6899 510.919 90.4254 507.078 95.1233C506.634 95.6871 507.41 96.4763 507.853 95.9126C511.695 91.1771 515.536 86.4416 519.378 81.7437C519.821 81.1799 519.045 80.3907 518.602 80.9544Z" fill="#CFD8DC"/>
<path d="M447.535 139.66C457.213 129.813 466.89 119.928 476.568 110.081C477.085 109.555 476.273 108.766 475.792 109.292C466.115 119.139 456.437 129.023 446.759 138.87C446.279 139.359 447.055 140.148 447.535 139.66Z" fill="#CFD8DC"/>
<path d="M464.267 136.24C467.555 131.955 471.027 127.896 474.758 124.025C475.275 123.499 474.462 122.71 473.982 123.236C470.251 127.107 466.742 131.166 463.492 135.45C463.048 135.977 463.824 136.803 464.267 136.24Z" fill="#CFD8DC"/>
<path d="M434.385 184.233C447.424 184.233 460.5 184.233 473.538 184.233C474.24 184.233 474.24 183.106 473.538 183.106C460.5 183.106 447.424 183.106 434.385 183.106C433.683 183.106 433.683 184.233 434.385 184.233Z" fill="#CFD8DC"/>
<path d="M453.519 184.158C453.519 186.676 453.519 189.157 453.519 191.675C453.519 192.389 454.627 192.389 454.627 191.675C454.627 189.157 454.627 186.676 454.627 184.158C454.627 183.444 453.519 183.444 453.519 184.158Z" fill="#CFD8DC"/>
<path d="M454.073 192.239C464.342 192.239 474.61 192.239 484.842 192.239C485.544 192.239 485.544 191.111 484.842 191.111C474.573 191.111 464.305 191.111 454.073 191.111C453.371 191.111 453.371 192.239 454.073 192.239Z" fill="#CFD8DC"/>
<path d="M473.465 183.895C473.465 186.301 473.465 188.743 473.465 191.149C473.465 191.863 474.573 191.863 474.573 191.149C474.573 188.743 474.573 186.301 474.573 183.895C474.573 183.181 473.465 183.181 473.465 183.895Z" fill="#CFD8DC"/>
<path d="M434.939 183.407C434.939 181.415 434.939 179.385 434.939 177.393C434.939 176.679 433.831 176.679 433.831 177.393C433.831 179.385 433.831 181.415 433.831 183.407C433.831 184.121 434.939 184.121 434.939 183.407Z" fill="#CFD8DC"/>
<path d="M434.865 177.694C444.395 177.694 453.925 177.694 463.418 177.694C464.12 177.694 464.12 176.566 463.418 176.566C453.888 176.566 444.358 176.566 434.865 176.566C434.163 176.566 434.163 177.694 434.865 177.694Z" fill="#CFD8DC"/>
<path d="M463.123 177.882C463.123 179.799 463.123 181.715 463.123 183.632C463.123 184.346 464.231 184.346 464.231 183.632C464.231 181.715 464.231 179.799 464.231 177.882C464.231 177.168 463.123 177.168 463.123 177.882Z" fill="#CFD8DC"/>
<path d="M428.475 192.502C437.598 192.502 446.685 192.502 455.808 192.502C456.51 192.502 456.51 191.374 455.808 191.374C446.685 191.374 437.598 191.374 428.475 191.374C427.773 191.374 427.773 192.502 428.475 192.502Z" fill="#CFD8DC"/>
<path d="M427.663 192.427C427.663 194.531 427.663 196.598 427.663 198.703C427.663 199.417 428.771 199.417 428.771 198.703C428.771 196.598 428.771 194.531 428.771 192.427C428.771 191.713 427.663 191.713 427.663 192.427Z" fill="#CFD8DC"/>
<path d="M428.217 199.755C436.934 199.755 445.614 199.755 454.331 199.755C455.033 199.755 455.033 198.628 454.331 198.628C445.614 198.628 436.934 198.628 428.217 198.628C427.515 198.628 427.515 199.755 428.217 199.755Z" fill="#CFD8DC"/>
<path d="M453.777 192.427C453.777 194.607 453.777 196.786 453.777 198.929C453.777 199.643 454.885 199.643 454.885 198.929C454.885 196.749 454.885 194.569 454.885 192.427C454.885 191.713 453.777 191.713 453.777 192.427Z" fill="#CFD8DC"/>
<path d="M245.561 167.659C261.665 167.659 277.733 167.659 293.838 167.659C294.54 167.659 294.54 166.532 293.838 166.532C277.733 166.532 261.665 166.532 245.561 166.532C244.859 166.532 244.859 167.659 245.561 167.659Z" fill="#CFD8DC"/>
<path d="M245.893 167.095C245.893 164.991 245.893 162.886 245.893 160.781C245.893 160.067 244.785 160.067 244.785 160.781C244.785 162.886 244.785 164.991 244.785 167.095C244.785 167.81 245.893 167.81 245.893 167.095Z" fill="#CFD8DC"/>
<path d="M245.967 160.669C254.573 160.669 263.217 160.669 271.823 160.669C272.525 160.669 272.525 159.541 271.823 159.541C263.217 159.541 254.573 159.541 245.967 159.541C245.265 159.541 245.265 160.669 245.967 160.669Z" fill="#CFD8DC"/>
<path d="M271.27 160.782C271.27 162.811 271.27 164.841 271.27 166.87C271.27 167.584 272.378 167.584 272.378 166.87C272.378 164.841 272.378 162.811 272.378 160.782C272.378 160.03 271.27 160.03 271.27 160.782Z" fill="#CFD8DC"/>
<path d="M264.214 167.96C264.214 170.065 264.214 172.169 264.214 174.274C264.214 174.988 265.322 174.988 265.322 174.274C265.322 172.169 265.322 170.065 265.322 167.96C265.322 167.208 264.214 167.208 264.214 167.96Z" fill="#CFD8DC"/>
<path d="M264.989 175.251C274.371 175.251 283.79 175.251 293.173 175.251C293.874 175.251 293.874 174.124 293.173 174.124C283.79 174.124 274.371 174.124 264.989 174.124C264.287 174.124 264.287 175.251 264.989 175.251Z" fill="#CFD8DC"/>
<path d="M293.284 167.734C293.284 170.14 293.284 172.507 293.284 174.913C293.284 175.627 294.392 175.627 294.392 174.913C294.392 172.507 294.392 170.14 294.392 167.734C294.392 167.02 293.284 167.02 293.284 167.734Z" fill="#CFD8DC"/>
<path d="M271.048 175.101C271.048 177.055 271.048 179.009 271.048 180.964C271.048 181.678 272.156 181.678 272.156 180.964C272.156 179.009 272.156 177.055 272.156 175.101C272.156 174.387 271.048 174.387 271.048 175.101Z" fill="#CFD8DC"/>
<path d="M271.195 180.851C262.995 180.851 254.832 180.851 246.632 180.851C245.93 180.851 245.93 181.979 246.632 181.979C254.832 181.979 262.995 181.979 271.195 181.979C271.897 181.979 271.897 180.851 271.195 180.851Z" fill="#CFD8DC"/>
<path d="M266.061 174.349C259.634 174.349 253.244 174.349 246.816 174.349C246.115 174.349 246.115 175.477 246.816 175.477C253.244 175.477 259.634 175.477 266.061 175.477C266.763 175.477 266.763 174.349 266.061 174.349Z" fill="#CFD8DC"/>
<path d="M246.3 174.913C246.3 177.018 246.3 179.122 246.3 181.227C246.3 181.941 247.408 181.941 247.408 181.227C247.408 179.122 247.408 177.018 247.408 174.913C247.408 174.161 246.3 174.161 246.3 174.913Z" fill="#CFD8DC"/>
<path d="M501.759 259.814C511.917 259.814 522.074 259.814 532.232 259.814C532.934 259.814 532.934 258.686 532.232 258.686C522.074 258.686 511.917 258.686 501.759 258.686C501.057 258.686 501.057 259.814 501.759 259.814Z" fill="#CFD8DC"/>
<path d="M519.895 258.949C519.895 256.619 519.895 254.289 519.895 251.959C519.895 251.245 518.787 251.245 518.787 251.959C518.787 254.289 518.787 256.619 518.787 258.949C518.787 259.663 519.895 259.663 519.895 258.949Z" fill="#CFD8DC"/>
<path d="M519.637 252.372C528.317 252.372 536.998 252.372 545.715 252.372C546.417 252.372 546.417 251.245 545.715 251.245C537.035 251.245 528.354 251.245 519.637 251.245C518.898 251.245 518.898 252.372 519.637 252.372Z" fill="#CFD8DC"/>
<path d="M545.124 252.109C545.124 254.101 545.124 256.093 545.124 258.085C545.124 258.799 546.232 258.799 546.232 258.085C546.232 256.093 546.232 254.101 546.232 252.109C546.232 251.357 545.124 251.357 545.124 252.109Z" fill="#CFD8DC"/>
<path d="M531.494 259.663C536.074 259.663 540.654 259.663 545.271 259.663C545.973 259.663 545.973 258.536 545.271 258.536C540.691 258.536 536.111 258.536 531.494 258.536C530.755 258.536 530.755 259.663 531.494 259.663Z" fill="#CFD8DC"/>
<path d="M500.614 259.851C500.614 261.655 500.614 263.421 500.614 265.225C500.614 265.94 501.722 265.94 501.722 265.225C501.722 263.421 501.722 261.655 501.722 259.851C501.722 259.137 500.614 259.099 500.614 259.851Z" fill="#CFD8DC"/>
<path d="M501.315 266.353C510.919 266.353 520.56 266.353 530.164 266.353C530.865 266.353 530.865 265.226 530.164 265.226C520.56 265.226 510.919 265.226 501.315 265.226C500.614 265.226 500.614 266.353 501.315 266.353Z" fill="#CFD8DC"/>
<path d="M529.905 259.4C529.905 261.43 529.905 263.459 529.905 265.526C529.905 266.24 531.013 266.24 531.013 265.526C531.013 263.497 531.013 261.467 531.013 259.4C531.013 258.686 529.905 258.686 529.905 259.4Z" fill="#CFD8DC"/>
<path d="M504.677 243.277C513.985 243.277 523.33 243.277 532.638 243.277C533.34 243.277 533.34 242.149 532.638 242.149C523.33 242.149 513.985 242.149 504.677 242.149C503.975 242.149 503.975 243.277 504.677 243.277Z" fill="#CFD8DC"/>
<path d="M532.085 243.164C532.085 246.058 532.085 248.914 532.085 251.808C532.085 252.522 533.193 252.522 533.193 251.808C533.193 248.914 533.193 246.058 533.193 243.164C533.193 242.412 532.085 242.412 532.085 243.164Z" fill="#CFD8DC"/>
<path d="M504.418 242.863C504.418 245.532 504.418 248.238 504.418 250.906C504.418 251.62 505.526 251.62 505.526 250.906C505.526 248.238 505.526 245.532 505.526 242.863C505.526 242.149 504.418 242.149 504.418 242.863Z" fill="#CFD8DC"/>
<path d="M505.712 252.071C512.287 252.071 518.899 252.071 525.473 252.071C526.175 252.071 526.175 250.944 525.473 250.944C518.899 250.944 512.287 250.944 505.712 250.944C505.01 250.944 505.01 252.071 505.712 252.071Z" fill="#CFD8DC"/>
<path d="M197.099 361.025C203.156 361.025 209.214 361.025 215.272 361.025C215.974 361.025 215.974 359.898 215.272 359.898C209.214 359.898 203.156 359.898 197.099 359.898C196.397 359.898 196.397 361.025 197.099 361.025Z" fill="#273238"/>
<path d="M150.52 361.101C203.377 361.101 256.198 361.101 309.056 361.101C361.618 361.101 414.217 361.101 466.779 361.101C496.44 361.101 526.1 361.101 555.761 361.101C557.202 361.101 557.202 358.846 555.761 358.846C502.904 358.846 450.083 358.846 397.225 358.846C344.663 358.846 292.064 358.846 239.502 358.846C209.842 358.846 180.181 358.846 150.52 358.846C149.079 358.846 149.079 361.101 150.52 361.101Z" fill="#273238"/>
<path d="M484.952 368.693C510.587 368.693 536.184 368.693 561.819 368.693C563.26 368.693 563.26 366.438 561.819 366.438C536.184 366.438 510.587 366.438 484.952 366.438C483.549 366.438 483.549 368.693 484.952 368.693Z" fill="#273238"/>
<path d="M221.329 397.106C250.067 397.106 278.767 397.106 307.505 397.106C308.945 397.106 308.945 394.851 307.505 394.851C278.767 394.851 250.067 394.851 221.329 394.851C219.889 394.851 219.889 397.106 221.329 397.106Z" fill="#273238"/>
<path d="M65.7484 386.094C84.9189 386.094 104.09 386.094 123.26 386.094C124.701 386.094 124.701 383.839 123.26 383.839C104.09 383.839 84.9189 383.839 65.7484 383.839C64.3078 383.839 64.3078 386.094 65.7484 386.094Z" fill="#273238"/>
<path d="M135.375 375.833C156.393 375.833 177.41 375.833 198.428 375.833C199.868 375.833 199.868 373.578 198.428 373.578C177.41 373.578 156.393 373.578 135.375 373.578C133.935 373.578 133.935 375.833 135.375 375.833Z" fill="#273238"/>
<path d="M121.857 345.391C150.225 329.568 177.3 311.415 203.784 292.511C230.305 273.569 256.346 253.875 282.83 234.858C297.679 224.222 312.676 213.774 327.968 203.814C328.559 203.439 328.005 202.461 327.414 202.837C300.117 220.614 273.817 239.894 247.555 259.212C221.329 278.53 195.104 297.923 167.955 315.85C152.736 325.885 137.259 335.506 121.339 344.376C120.675 344.752 121.229 345.729 121.857 345.391Z" fill="#273238"/>
<path d="M101.319 337.649C99.1027 338.889 97.6252 340.505 96.8496 341.37C95.6676 342.685 94.8549 343.549 94.227 344.865C93.2666 346.969 93.3774 349.337 93.6729 353.998C93.8946 357.455 94.1162 357.117 93.9684 357.906C93.1558 362.191 88.5386 362.98 88.6494 365.874C88.7233 367.678 90.4963 369.144 92.0107 369.67C94.3378 370.497 97.145 369.444 98.8072 367.001C97.0342 367.903 94.4486 369.632 92.8234 372.714C92.2324 373.842 91.4567 375.307 91.9738 376.021C92.8603 377.262 96.8865 375.796 100.469 374.217C100.285 375.082 100.248 376.134 100.839 376.886C102.279 378.727 106.527 377.262 107.635 376.886C108.891 376.435 109.076 376.209 114.727 372.601C117.682 370.722 118.717 370.083 120.416 368.805C121.856 367.715 122.964 366.776 123.777 366.062C126.436 366.137 129.65 365.987 133.196 365.31C139.882 363.995 145.016 361.326 148.303 359.222C148.562 360.312 148.784 361.439 149.042 362.529C145.829 364.558 143.354 366.062 141.655 367.077C140.584 367.715 139.475 368.392 139.586 368.881C139.771 369.595 142.283 369.557 143.871 369.557C145.644 369.557 147.121 369.332 148.156 369.181C148.23 369.444 148.488 370.158 149.19 370.497C150.224 371.06 151.554 370.421 151.517 370.309C151.517 370.234 150.963 370.234 150.963 370.196C150.963 370.121 154.989 370.121 157.759 369.895C160.087 369.707 163.485 369.256 167.659 367.903C168.361 365.009 168.508 362.754 168.508 361.176C168.508 360.011 168.434 359.41 168.619 358.244C168.952 355.952 169.653 355.2 170.023 353.509C170.281 352.381 170.355 350.69 169.653 348.473C170.872 347.984 171.685 347.308 172.165 346.857C172.276 346.744 174.788 344.263 174.492 340.881C174.418 340.167 174.344 339.227 173.753 338.889C172.793 338.363 171.131 339.716 170.318 340.693C168.878 342.384 168.804 344.489 168.841 345.429C167.843 343.85 165.849 341.144 162.414 339.453C161.047 338.776 159.68 338.363 158.203 338.137C151.258 336.935 143.095 339.378 137.961 341.257C131.238 343.737 128.025 345.88 123.888 345.165C122.632 344.94 119.899 344.451 118.015 342.309C117.276 341.482 117.202 340.994 116.242 339.829C115.909 339.415 114.173 337.348 111.957 336.333C107.451 334.229 102.353 337.085 101.319 337.649Z" fill="white"/>
<path d="M120.231 344.451C119.382 346.443 118.2 348.247 116.722 349.863C116.242 350.39 117.018 351.179 117.498 350.653C119.049 348.999 120.268 347.12 121.155 345.015C121.487 344.339 120.527 343.775 120.231 344.451Z" fill="#273238"/>
<path d="M120.748 344.902C119.899 347.308 118.606 349.412 116.87 351.216C116.39 351.742 117.165 352.532 117.646 352.006C119.529 350.051 120.896 347.759 121.819 345.203C122.041 344.526 120.97 344.226 120.748 344.902Z" fill="#273238"/>
<path d="M102.538 346.481C103.24 351.066 103.905 355.801 106.084 359.973C107.636 362.98 110.886 365.836 114.358 363.995C117.793 362.153 118.274 357.643 118.052 354.11C117.793 350.239 116.464 346.518 113.693 343.775C113.176 343.286 112.401 344.075 112.918 344.564C115.245 346.894 116.501 349.976 116.87 353.246C117.239 356.591 117.129 361.439 113.656 363.093C109.446 365.047 106.823 359.409 105.789 356.252C104.681 352.983 104.164 349.6 103.683 346.18C103.499 345.466 102.427 345.767 102.538 346.481Z" fill="#273238"/>
<path d="M101.134 337.047C96.9597 340.016 93.1552 343.85 92.6011 349.262C92.4903 350.54 92.5642 351.818 92.8597 353.02C93.3029 354.787 94.2633 356.252 93.229 358.056C91.6038 360.913 89.2767 363.581 87.356 366.25C86.9497 366.851 87.91 367.415 88.3164 366.813C90.1263 364.295 92.0101 361.815 93.7462 359.259C95.2237 357.117 94.8174 355.689 94.1155 353.283C92.1209 346.781 96.8859 341.407 101.725 337.987C102.279 337.611 101.725 336.634 101.134 337.047Z" fill="#273238"/>
<path d="M87.32 367.227C88.8713 368.655 90.5705 370.196 92.7498 370.422C94.7444 370.609 96.6651 369.52 98.2165 368.392C101.726 365.874 104.237 362.304 105.863 358.282C106.121 357.606 105.05 357.305 104.791 357.981C103.499 361.214 101.504 364.183 98.8814 366.438C97.4039 367.678 95.4831 369.181 93.4885 369.294C91.3092 369.444 89.5731 367.791 88.0956 366.4C87.5785 365.949 86.8028 366.738 87.32 367.227Z" fill="#273238"/>
<path d="M94.4118 353.922C94.9658 354.975 95.5938 355.952 96.3694 356.816C96.8496 357.38 97.6253 356.553 97.1451 356.027C96.4433 355.2 95.8523 354.298 95.3721 353.359C95.0028 352.72 94.0793 353.284 94.4118 353.922Z" fill="#273238"/>
<path d="M89.0193 365.235C89.758 366.099 89.9796 367.189 89.8688 368.279C89.7949 368.993 90.9031 368.993 90.9769 368.279C91.1247 366.889 90.7184 365.498 89.7949 364.446C89.3148 363.92 88.5391 364.709 89.0193 365.235Z" fill="#273238"/>
<path d="M88.0219 366.889C88.4652 367.227 88.8715 367.603 89.3148 367.941C89.758 368.317 90.5706 367.828 90.2013 367.264C89.9058 366.813 89.7211 366.287 89.7211 365.723C89.3886 365.836 89.0193 365.911 88.6868 366.024C88.7976 366.174 88.9084 366.325 88.9823 366.475C89.3886 367.076 90.349 366.513 89.9427 365.911C89.8319 365.761 89.7211 365.611 89.6472 365.46C89.3517 365.047 88.6129 365.16 88.6129 365.761C88.6129 366.513 88.8346 367.227 89.2409 367.866C89.5364 367.64 89.8319 367.415 90.1274 367.189C89.6841 366.851 89.2778 366.475 88.8346 366.137C88.6129 365.949 88.2805 365.911 88.0589 366.137C87.8373 366.287 87.8003 366.701 88.0219 366.889Z" fill="#273238"/>
<path d="M109.963 336.221C113.139 337.01 115.282 339.49 117.203 342.008C119.049 344.376 120.305 345.654 123.408 345.466C129.835 345.053 135.967 342.572 142.061 340.693C148.341 338.776 156.282 336.672 162.488 339.904C168.915 343.249 171.316 351.292 168.102 357.793C167.77 358.432 168.73 358.996 169.063 358.357C173.68 348.961 167.548 338.4 157.501 337.31C145.977 336.07 135.56 343.023 124.331 344.226C122.226 344.451 120.453 344.339 118.976 342.535C118.089 341.445 117.276 340.28 116.353 339.227C114.654 337.31 112.696 335.732 110.184 335.093C109.556 334.943 109.261 336.033 109.963 336.221Z" fill="#273238"/>
<path d="M157.132 346.969C154.25 349.3 152.145 352.344 152.367 356.253C152.588 359.71 154.62 362.679 157.649 364.258C158.277 364.596 158.831 363.619 158.203 363.281C155.359 361.777 153.438 358.959 153.475 355.614C153.512 352.231 155.432 349.751 157.907 347.759C158.461 347.345 157.686 346.518 157.132 346.969Z" fill="#273238"/>
<path d="M157.723 363.957C155.654 364.596 153.622 365.348 151.628 366.25C150.52 366.776 147.786 367.528 147.417 368.918C146.641 371.85 153.807 370.685 154.878 370.609C157.021 370.459 159.163 370.234 161.305 369.895C163.189 369.595 165.738 369.557 167.437 368.618C168.73 367.941 168.619 366.475 168.693 365.16C168.878 362.567 169.099 360.011 169.284 357.418C169.358 356.704 168.25 356.704 168.176 357.418C168.065 359.071 167.917 360.687 167.806 362.341C167.696 363.844 168.028 366.851 166.588 367.716C165.59 368.317 163.854 368.317 162.709 368.505C160.899 368.805 159.126 369.069 157.279 369.256C155.765 369.407 154.25 369.52 152.736 369.557C151.923 369.595 151.111 369.67 150.298 369.632C149.596 369.595 148.414 369.858 148.894 368.843C149.116 368.43 150.52 367.941 150.963 367.753C151.813 367.34 152.699 366.926 153.586 366.55C155.026 365.949 156.504 365.461 157.981 365.01C158.72 364.822 158.424 363.732 157.723 363.957Z" fill="#273238"/>
<path d="M117.128 356.253C117.387 362.529 112.326 366.738 107.377 369.444C105.271 370.572 97.3296 373.127 100.137 376.961C102.612 380.343 108.706 376.848 111.403 375.382C116.057 372.864 120.12 369.444 124.183 366.024C124.737 365.573 123.962 364.784 123.407 365.235C119.898 368.166 116.389 371.136 112.474 373.466C110.479 374.668 108.374 375.721 106.158 376.472C104.902 376.886 103.24 377.562 101.984 376.923C99.3981 375.646 101.54 373.729 103.018 372.902C109.667 369.332 118.643 365.348 118.236 356.215C118.199 355.538 117.091 355.538 117.128 356.253Z" fill="#273238"/>
<path d="M95.5568 353.96C95.7414 352.682 96.4063 351.517 97.5514 350.916C98.1793 350.577 97.6252 349.6 96.9973 349.939C95.5937 350.69 94.7072 352.118 94.4856 353.659C94.3748 354.373 95.4459 354.674 95.5568 353.96Z" fill="#273238"/>
<path d="M100.174 364.709C99.5831 365.836 98.475 366.475 97.5146 367.264C96.5173 368.091 95.5569 368.993 94.6335 369.933C93.5254 371.098 91.0506 373.127 90.9397 374.894C90.6812 379.253 98.6597 375.495 100.174 375.006C100.839 374.781 100.543 373.691 99.8786 373.917C98.2164 374.48 96.5912 375.082 94.8921 375.57C94.4119 375.758 93.8947 375.871 93.4146 375.908C92.4911 374.819 92.4542 373.879 93.2299 373.165C93.5992 372.526 94.2641 371.962 94.7443 371.436C95.8524 370.233 97.0344 369.106 98.2903 368.053C99.3246 367.189 100.47 366.513 101.098 365.272C101.467 364.633 100.507 364.07 100.174 364.709Z" fill="#273238"/>
<path d="M124.072 366.438C134.452 366.475 144.646 363.205 153.105 357.079C153.696 356.666 153.142 355.689 152.551 356.102C144.24 362.115 134.304 365.348 124.072 365.31C123.37 365.272 123.37 366.4 124.072 366.438Z" fill="#273238"/>
<path d="M147.38 359.748C147.602 360.387 147.786 360.988 148.008 361.627C148.34 362.566 148.636 362.867 147.713 363.431C146.567 364.145 145.201 364.671 143.982 365.272C142.726 365.874 141.47 366.438 140.251 367.114C139.66 367.415 139.106 367.753 138.848 368.392C137.518 372 146.235 369.97 147.528 369.557C148.193 369.331 147.897 368.242 147.232 368.467C146.235 368.805 145.201 369.068 144.167 369.181C143.502 369.256 141.655 369.67 140.99 369.294C139.217 368.279 142.061 367.452 142.652 367.152C143.576 366.701 144.499 366.212 145.459 365.761C146.494 365.235 149.005 364.634 149.486 363.468C149.929 362.416 148.747 360.387 148.414 359.409C148.23 358.771 147.158 359.071 147.38 359.748Z" fill="#273238"/>
<path d="M169.358 345.278C169.321 343.812 169.58 342.422 170.355 341.144C170.688 340.618 171.168 339.904 171.759 339.641C174.862 338.325 174.308 341.294 174.049 342.347C173.384 344.752 171.537 346.706 169.506 347.984C168.878 348.36 169.469 349.337 170.06 348.961C172.054 347.759 173.68 346.03 174.677 343.85C175.305 342.422 175.933 340.317 174.714 339.039C173.606 337.874 171.833 338.175 170.688 339.077C168.878 340.505 168.213 343.061 168.287 345.316C168.287 345.992 169.395 346.03 169.358 345.278Z" fill="#273238"/>
<path d="M101.504 338.325C103.942 336.672 107.82 334.98 110.664 336.484C111.292 336.822 111.846 335.845 111.219 335.506C107.968 333.778 103.757 335.469 100.95 337.348C100.359 337.724 100.913 338.701 101.504 338.325Z" fill="#273238"/>
<path opacity="0.09" d="M113.768 343.7C114.876 344.151 117.683 345.429 119.678 348.51C120.527 349.826 122.633 353.096 121.451 356.779C120.379 360.086 117.351 361.552 116.649 361.853C117.129 360.8 117.794 359.109 117.942 356.967C118.126 354.261 117.461 352.231 116.723 350.014C116.205 348.398 115.319 346.18 113.768 343.7Z" fill="#79909C"/>
<path opacity="0.13" d="M102.686 355.463C101.652 359.56 99.7311 362.228 98.6968 363.657C96.5545 366.626 94.1535 368.618 92.3066 369.858C93.7103 369.67 95.7418 369.144 97.8473 367.866C98.4383 367.49 101.098 365.874 103.129 362.491C104.237 360.65 104.792 358.959 105.087 357.794C104.459 354.261 103.868 350.728 103.24 347.157C103.462 348.999 103.573 351.968 102.686 355.463Z" fill="#79909C"/>
<path opacity="0.07" d="M166.588 342.685C166.92 344.451 167.289 347.195 166.772 350.502C165.886 356.365 162.857 360.199 161.49 361.89C157.168 367.264 151.813 369.407 149.301 370.271C155.137 370.083 159.865 369.557 163.337 369.031C165.701 368.693 167.215 368.392 168.139 367.152C169.69 365.047 167.843 362.792 168.693 357.756C169.247 354.336 170.244 354.11 170.355 351.63C170.466 349.375 169.801 346.368 166.588 342.685Z" fill="#79909C"/>
<path opacity="0.14" d="M148.23 359.861C148.489 360.274 149.339 361.664 148.895 362.98C148.785 363.281 148.489 363.957 146.753 364.859C143.798 366.438 142.136 365.799 140.732 367.415C140.621 367.527 139.661 368.655 139.993 369.407C140.326 370.121 141.803 370.046 143.059 369.97C144.278 369.895 146.014 369.632 148.046 368.843C149.228 368.054 150.668 367.189 152.404 366.4C154.325 365.536 156.098 364.972 157.576 364.596C157.428 364.107 157.096 363.393 156.541 362.604C155.544 361.251 154.621 361.063 153.771 359.861C153.402 359.334 152.922 358.47 152.737 357.117C151.222 358.057 149.708 358.959 148.23 359.861Z" fill="#79909C"/>
<path opacity="0.25" d="M173.791 339.19C173.717 340.167 173.496 341.633 172.868 343.249C171.76 346.143 170.097 347.684 170.356 347.947C170.578 348.172 172.203 347.157 173.237 345.692C174.087 344.451 174.308 343.249 174.345 342.873C174.604 341.106 174.05 339.716 173.791 339.19Z" fill="#79909C"/>
<path d="M405.057 334.943C413.405 342.91 421.715 350.916 430.063 358.883C420.312 379.065 416.396 389.739 418.317 390.942C420.681 392.445 432.132 379.178 452.706 351.066C438.522 340.542 424.338 330.019 410.154 319.458C408.455 324.645 406.756 329.794 405.057 334.943Z" fill="#273238"/>
<path d="M369.301 218.585C366.198 223.395 367.971 227.793 369.744 244.404C371.554 261.242 370.039 259.475 371.517 271.126C374.029 290.82 379.569 305.064 384.002 316.226C384.002 316.226 390.244 332.049 402.47 346.593C402.803 347.007 403.579 347.834 404.687 348.623C405.795 349.412 408.159 351.066 410.929 350.652C413.847 350.239 416.063 347.721 416.95 345.428C417.947 342.835 416.765 341.632 418.058 339.528C419.018 338.024 419.868 338.25 422.306 336.371C424.005 335.018 426.184 333.327 427.219 330.47C428.364 327.238 427.477 324.307 427.219 323.442C426.443 320.962 424.965 319.383 424.559 318.895C422.749 316.903 419.942 311.303 414.327 300.103C409.969 291.459 403.135 271.878 400.956 247.336C399.035 225.538 402.36 217.833 396.265 213.135C389.062 207.573 374.435 210.617 369.301 218.585Z" fill="white"/>
<path d="M399.331 226.552C398.998 239.631 400.587 252.673 403.357 265.451C406.053 277.854 409.526 290.369 414.327 302.095C416.765 308.108 419.794 313.858 423.747 318.97C424.19 319.533 424.965 318.744 424.522 318.18C417.135 308.709 413.293 297.021 409.821 285.633C406.053 273.344 403.061 260.791 401.51 247.975C400.661 240.872 400.291 233.693 400.476 226.552C400.476 225.801 399.368 225.801 399.331 226.552Z" fill="#273238"/>
<path d="M369.448 243.164C369.522 263.271 372.145 283.491 378.313 302.659C381.342 312.054 385.221 321.225 390.059 329.794C392.497 334.153 395.194 338.4 398.149 342.459C400.623 345.879 403.542 349.675 407.826 350.765C411.779 351.78 415.731 350.164 417.282 346.218C418.871 342.121 417.799 336.784 421.124 333.477C421.641 332.951 420.865 332.161 420.348 332.688C417.799 335.206 417.652 338.851 417.135 342.196C416.876 343.85 416.58 345.579 415.694 347.007C414.216 349.487 411.372 350.314 408.676 349.788C403.837 348.848 400.697 344.151 398.038 340.355C395.415 336.596 392.977 332.688 390.724 328.666C381.601 312.205 375.949 293.902 373.031 275.26C371.369 264.662 370.593 253.913 370.556 243.164C370.556 242.412 369.448 242.412 369.448 243.164Z" fill="#273238"/>
<path d="M422.86 317.917C425.852 321.525 428.179 326.223 426.591 330.996C425.778 333.514 423.931 334.454 421.9 335.769C420.127 336.935 418.649 338.475 417.43 340.242C417.024 340.843 417.984 341.407 418.391 340.806C419.425 339.377 420.607 338.024 422.047 337.01C422.971 336.371 424.005 335.882 424.928 335.206C426.665 333.928 427.625 331.936 427.994 329.831C428.807 325.021 426.591 320.699 423.636 317.091C423.192 316.564 422.417 317.391 422.86 317.917Z" fill="#273238"/>
<path opacity="0.16" d="M370.15 242.3C370.076 247.261 370.224 252.447 370.594 257.897C371.923 277.102 375.95 293.751 380.567 307.356C380.567 307.356 386.366 324.231 394.086 336.032C394.935 337.31 396.561 339.452 399.848 343.699C403.246 348.134 404.244 349.224 406.054 350.013C406.312 350.126 410.929 352.08 414.032 349.788C414.882 349.187 415.546 347.721 416.913 344.827C418.317 341.858 419.019 340.279 419.351 338.062C421.161 337.987 422.491 336.972 422.675 335.807C422.897 334.379 421.272 333.176 421.124 333.101C418.908 331.56 415.842 332.838 414.475 333.101C407.716 334.341 399.257 317.955 396.708 312.994C386.181 292.21 380.899 281.837 377.168 270.337C374.989 263.233 372.293 253.762 370.15 242.3Z" fill="#79909C"/>
<path opacity="0.13" d="M375.026 286.122C375.358 286.009 375.949 287.7 381.675 299.426C392.83 322.239 395.489 325.547 398.333 328.102C401.732 331.184 407.826 335.394 418.317 337.122C418.427 337.799 419.757 345.24 415.435 348.623C413.552 350.126 411.372 350.201 410.781 350.201C404.096 350.427 397.151 341.144 391.02 330.094C379.089 308.597 373.807 286.535 375.026 286.122Z" fill="#79909C"/>
<path d="M323.757 337.273C318.807 347.796 313.895 358.282 308.945 368.805C287.115 365.498 275.886 364.972 275.332 367.189C274.63 369.933 290.587 376.999 323.129 388.349C328.67 371.399 334.21 354.449 339.714 337.461C334.432 337.423 329.113 337.348 323.757 337.273Z" fill="#273238"/>
<path d="M367.675 215.127C363.871 218.434 362.763 221.967 359.697 229.183C354.969 240.27 349.613 251.094 344.811 262.181C335.244 284.28 332.142 289.166 324.902 306.53C320.728 316.527 320.765 317.241 318.512 321.413C316.185 325.697 313.784 329.305 312.121 335.469C311.124 339.152 310.902 341.896 311.863 344.677C312.232 345.767 313.377 349.187 316.369 350.352C318.29 351.104 320.248 350.653 322.464 350.089C324.274 349.638 325.714 348.999 326.712 348.473C327.377 349.337 328.559 350.615 330.442 351.442C333.951 353.058 337.313 351.968 338.938 351.442C339.898 351.141 343.481 349.863 346.104 346.293C347.914 343.85 348.431 341.407 348.763 340.092C350.093 334.492 352.827 329.343 354.6 323.856C355.56 320.849 357.407 316.264 369.744 297.923C383.041 278.154 383.706 279.319 390.207 268.458C397.262 256.657 401.215 250.192 402.951 240.346C404.354 232.378 406.423 220.689 399.552 213.774C391.759 205.731 375.986 207.836 367.675 215.127Z" fill="white"/>
<path d="M403.135 222.418C405.462 244.066 393.938 263.722 381.859 280.485C375.728 288.978 369.264 297.209 363.686 306.041C357.924 315.136 353.454 324.908 349.798 335.056C347.951 340.205 346.769 346.819 341.782 349.901C337.608 352.457 332.141 352.269 328.263 349.262C327.709 348.811 327.155 349.788 327.709 350.239C334.321 355.313 343.74 352.494 347.286 345.128C349.613 340.28 350.98 334.868 352.937 329.869C355.154 324.269 357.665 318.744 360.546 313.483C371.406 293.827 387.732 277.779 397.336 257.333C402.434 246.434 405.573 234.483 404.244 222.381C404.17 221.704 403.062 221.667 403.135 222.418Z" fill="#273238"/>
<path d="M367.084 211.745C356.964 234.257 346.843 256.807 336.685 279.319C331.587 290.707 326.453 302.057 321.356 313.445C318.955 318.82 316.443 324.156 314.116 329.568C312.269 333.815 310.496 338.588 311.198 343.286C311.789 347.082 314.116 351.104 318.216 351.404C321.171 351.63 324.163 350.202 326.896 349.3C330.11 348.247 333.36 347.157 336.574 346.105C337.239 345.88 336.943 344.79 336.279 345.015C333.73 345.842 331.218 346.669 328.669 347.533C326.01 348.398 323.35 349.488 320.617 350.089C315.261 351.216 312.306 346.556 312.121 341.67C311.937 336.258 314.596 331.034 316.739 326.261C319.103 321.037 321.43 315.813 323.794 310.551C333.213 289.617 342.632 268.683 352.014 247.749C357.333 235.911 362.652 224.072 367.971 212.271C368.34 211.632 367.38 211.068 367.084 211.745Z" fill="#273238"/>
<path d="M326.749 349.525C327.118 349.751 327.487 350.014 327.82 350.277C328.042 350.465 328.374 350.502 328.596 350.277C328.78 350.089 328.817 349.675 328.596 349.488C328.189 349.149 327.746 348.849 327.303 348.548C326.712 348.172 326.158 349.149 326.749 349.525Z" fill="#273238"/>
<path opacity="0.09" d="M386.809 208.437C382.34 210.692 383.706 219.863 383.042 229.897C382.561 237.301 381.342 239.556 364.388 278.906C350.13 312.017 348.431 316.377 342.854 324.983C335.946 335.619 329.002 343.625 323.979 348.924C325.161 348.849 326.343 348.773 327.525 348.698C328.3 349.45 329.556 350.427 331.292 351.179C332.142 351.555 335.946 353.208 339.936 351.855C343.851 350.54 345.772 347.082 347.249 344.414C349.465 340.392 350.056 336.822 350.352 335.168C351.165 330.771 353.713 325.772 358.774 315.738C365.607 302.245 372.256 296.721 384.519 278.267C394.566 263.083 400.107 254.552 402.729 241.699C404.835 231.438 404.207 222.606 403.394 216.856C397.964 211.632 391.02 206.295 386.809 208.437Z" fill="#79909C"/>
<path opacity="0.16" d="M402.766 234.858C402.138 234.595 399.035 242.187 392.793 253.387C384.187 268.721 381.195 270.149 369.707 287.701C358.109 305.44 358.293 308.409 346.178 326.524C339.898 335.92 334.358 343.362 330.627 348.21C329.556 349.976 329.741 350.803 329.962 351.141C330.886 352.757 335.54 351.667 337.719 351.141C340.526 350.465 341.967 350.127 343.481 349.112C346.695 346.97 347.397 343.625 349.687 336.709C350.906 332.989 352.457 329.381 353.676 325.66C356.336 317.692 360.103 312.092 366.309 303.072C387.585 272.291 387.511 274.02 391.168 267.18C399.922 250.944 403.653 235.234 402.766 234.858Z" fill="#79909C"/>
<path d="M297.789 102.941C296.829 104.594 296.644 106.173 296.57 106.887C296.201 109.969 297.235 112.374 297.679 113.314C300.116 118.688 305.694 120.53 306.691 120.83C307.356 123.348 308.021 125.867 308.76 128.422C310.422 134.398 312.158 140.261 313.931 145.974C316.295 145.635 318.659 145.297 321.023 144.959C320.358 141.764 319.546 139.209 318.955 137.517C317.182 132.331 315.519 129.738 314.079 124.1C313.709 122.597 313.451 121.319 313.303 120.53C313.894 120.116 314.707 119.402 315.482 118.387C318.548 114.328 317.809 109.367 317.662 108.315C317.403 106.699 316.997 103.768 314.559 101.287C311.456 98.0924 307.467 98.0173 306.876 98.0173C303.293 97.9045 299.599 99.7837 297.789 102.941Z" fill="#CFD8DC"/>
<path d="M299.932 105.985C299.784 106.436 299.378 108.052 299.821 110.044C300.486 112.976 302.776 115.644 305.842 116.546C308.243 117.26 311.9 117.185 313.857 114.742C315.224 113.051 315.187 111.021 315.15 109.142C315.113 107.037 315.039 103.805 312.528 101.701C309.499 99.145 305.473 100.423 305.214 100.498C302.592 101.362 300.634 103.505 299.932 105.985Z" fill="white"/>
<path d="M306.618 129.7C306.507 130.264 306.359 131.091 306.359 132.03C306.359 132.481 306.359 133.722 306.803 135.601C307.098 136.766 307.283 137.066 308.502 140.073C309.832 143.343 310.09 144.245 311.087 144.658C311.752 144.959 312.454 144.846 312.897 144.733C311.826 143.005 311.9 141.99 312.159 141.389C312.38 140.825 312.75 140.712 312.971 139.998C313.045 139.735 313.156 139.246 312.75 137.555C312.343 135.901 312.159 135.901 312.048 134.924C311.9 133.797 312.159 133.759 312.011 132.707C311.974 132.519 311.826 131.504 311.198 130.339C310.607 129.287 310.238 128.61 309.499 128.385C308.539 128.159 307.467 128.723 306.618 129.7Z" fill="white"/>
<path d="M315.815 129.249C314.892 130.189 313.599 131.955 314.116 132.895C314.559 133.646 316.111 133.721 316.887 133.759C317.441 133.797 317.884 133.759 318.216 133.721C318.364 134.135 318.512 134.511 318.623 134.924C319.657 138.006 320.543 141.05 321.282 144.057C321.393 144.47 321.504 144.884 321.578 145.26C321.245 145.748 320.617 146.5 319.62 147.101C318.253 147.89 316.96 148.003 316.332 148.003C317.034 149.732 318.069 151.912 319.62 154.28C320.063 154.956 321.356 156.948 323.498 159.316C325.53 161.571 327.561 163.826 330.812 165.78C335.208 168.448 339.345 169.05 341.635 169.35C345.07 169.801 347.766 169.614 349.133 169.463C350.315 169.35 355.006 168.749 360.436 165.93C365.496 163.3 368.562 160.143 370.889 157.7C372.699 155.82 375.802 152.476 378.498 147.176C380.345 143.493 381.047 140.75 382.377 135.375C384.261 127.783 385.184 123.987 383.337 122.259C381.786 120.83 379.052 121.432 376.836 121.958C373.179 122.785 370.704 124.777 367.713 127.257C366.198 128.535 364.868 129.85 362.32 132.406C356.927 137.818 356.594 138.682 353.639 141.163C351.866 142.666 350.426 143.643 347.545 145.56C341.782 149.469 340.157 149.807 338.901 149.882C336.611 149.995 334.875 149.206 333.287 148.492C328.559 146.312 326.306 142.478 325.604 141.276C324.68 139.66 323.979 138.419 323.942 136.691C323.905 134.699 324.754 134.06 324.791 131.617C324.828 130.189 324.865 128.197 323.683 127.182C321.836 125.528 317.921 127.144 315.815 129.249Z" fill="white"/>
<path d="M323.313 138.758C326.785 144.846 332.141 151.235 339.824 150.296C340.526 150.221 340.526 149.093 339.824 149.168C332.51 150.07 327.561 143.944 324.236 138.194C323.904 137.555 322.943 138.119 323.313 138.758Z" fill="#273238"/>
<path d="M331.735 151.649C336.611 152.1 341.117 149.958 345.218 147.552C349.465 145.072 353.381 142.065 356.927 138.607C364.019 131.654 371.406 120.455 382.746 122.522C383.448 122.634 383.743 121.545 383.042 121.432C372.958 119.59 365.496 127.821 359.254 134.548C355.597 138.495 351.645 142.103 347.138 145.034C342.558 148.041 337.35 151.01 331.735 150.521C331.034 150.446 331.034 151.574 331.735 151.649Z" fill="#273238"/>
<path d="M314.449 146.049C319.879 156.535 326.564 166.87 338.717 169.501C349.909 171.944 361.286 167.81 369.486 159.992C374.288 155.407 377.981 149.77 380.641 143.681C380.936 143.042 379.976 142.441 379.68 143.117C375.211 153.265 367.639 162.51 357.296 166.72C346.88 170.929 334.506 169.576 326.232 161.571C321.578 157.061 318.401 151.235 315.409 145.485C315.077 144.809 314.116 145.41 314.449 146.049Z" fill="#273238"/>
<path d="M317.441 127.671C315.557 128.497 312.897 131.015 313.932 133.383C315.077 135.939 319.14 133.721 320.58 132.632C321.134 132.218 320.58 131.241 320.026 131.654C319.177 132.293 315.224 134.699 314.855 132.481C314.559 130.828 316.776 129.211 318.032 128.648C318.66 128.347 318.069 127.37 317.441 127.671Z" fill="#273238"/>
<path d="M317.662 128.723C319.066 127.633 321.282 125.904 323.055 127.483C324.496 128.798 324.2 131.091 323.942 132.782C323.609 134.962 322.76 138.006 324.127 139.96C324.533 140.562 325.493 139.998 325.087 139.397C323.757 137.48 324.976 134.022 325.198 131.917C325.383 130.339 325.309 128.723 324.422 127.407C322.501 124.551 319.251 126.092 317.108 127.746C316.554 128.197 317.108 129.174 317.662 128.723Z" fill="#273238"/>
<path d="M317.034 133.721C318.29 137.517 319.435 141.351 320.543 145.222C320.654 144.997 320.802 144.771 320.913 144.546C318.401 145.147 315.815 144.508 313.451 145.748C313.71 145.861 314.005 145.974 314.264 146.086C313.821 144.47 313.267 142.854 312.713 141.276C312.454 140.599 311.383 140.9 311.642 141.576C312.233 143.155 312.75 144.771 313.193 146.387C313.304 146.763 313.673 146.876 314.005 146.725C316.222 145.56 318.844 146.199 321.208 145.635C321.504 145.56 321.688 145.222 321.578 144.959C320.47 141.088 319.324 137.292 318.069 133.458C317.884 132.707 316.813 133.007 317.034 133.721Z" fill="#273238"/>
<path d="M313.599 146.462C315.224 149.168 320.285 148.153 321.43 145.447C321.725 144.771 320.765 144.207 320.469 144.884C319.694 146.763 315.741 147.89 314.522 145.899C314.19 145.26 313.229 145.823 313.599 146.462Z" fill="#273238"/>
<path d="M314.597 146.801C316.48 147.214 318.327 147.101 320.137 146.425C320.802 146.162 320.507 145.072 319.842 145.335C318.216 145.936 316.554 146.049 314.892 145.711C314.19 145.56 313.895 146.65 314.597 146.801Z" fill="#273238"/>
<path d="M314.264 146.613C315.594 144.545 318.105 143.982 320.174 145.222C320.802 145.598 321.356 144.621 320.728 144.245C318.068 142.704 314.966 143.456 313.267 146.049C312.897 146.65 313.858 147.251 314.264 146.613Z" fill="#273238"/>
<path d="M316.295 145.936C316.738 144.508 318.622 145.297 319.508 145.711C320.136 146.011 320.727 145.034 320.062 144.734C318.474 143.982 315.925 143.343 315.223 145.636C315.039 146.35 316.11 146.65 316.295 145.936Z" fill="#273238"/>
<path d="M311.678 144.17C310.718 143.531 310.09 142.441 310.127 141.238C310.164 140.712 310.311 140.223 310.533 139.772C310.644 139.584 311.678 138.231 311.937 138.419C312.491 138.87 313.266 138.081 312.712 137.63C311.309 136.503 309.61 138.795 309.24 140.035C308.612 142.027 309.462 144.019 311.124 145.147C311.715 145.523 312.269 144.545 311.678 144.17Z" fill="#273238"/>
<path d="M312.011 141.99C313.636 141.05 313.895 138.833 312.454 137.593C311.9 137.142 311.124 137.931 311.679 138.382C312.565 139.134 312.491 140.411 311.457 141.013C310.829 141.389 311.383 142.366 312.011 141.99Z" fill="#273238"/>
<path d="M310.423 144.508C311.235 145.335 312.528 145.523 313.488 144.884C314.079 144.508 313.525 143.531 312.934 143.907C312.38 144.282 311.678 144.207 311.198 143.719C310.718 143.193 309.942 143.982 310.423 144.508Z" fill="#273238"/>
<path d="M309.535 140.75C308.87 139.735 308.649 138.57 308.907 137.367C309.203 135.939 310.459 134.21 311.936 135.676C312.453 136.202 313.229 135.375 312.712 134.887C311.271 133.421 309.498 133.834 308.464 135.563C307.393 137.33 307.504 139.622 308.612 141.313C308.981 141.915 309.942 141.351 309.535 140.75Z" fill="#273238"/>
<path d="M308.243 138.157C308.169 137.63 307.984 137.217 307.726 136.728C307.246 135.826 307.135 135.15 307.394 134.135C307.837 132.406 309.277 131.128 311.013 132.181C311.641 132.557 312.195 131.579 311.567 131.204C309.979 130.264 307.948 130.64 306.95 132.256C306.433 133.083 306.101 134.173 306.101 135.15C306.064 136.39 306.987 137.255 307.172 138.457C307.283 139.171 308.354 138.871 308.243 138.157Z" fill="#273238"/>
<path d="M307.171 132.669C306.58 131.805 306.543 130.602 307.282 129.813C308.021 129.024 309.203 128.986 310.089 129.55C310.68 129.926 311.235 128.948 310.644 128.573C309.351 127.746 307.578 127.896 306.507 129.024C305.435 130.151 305.361 131.993 306.211 133.271C306.617 133.834 307.578 133.271 307.171 132.669Z" fill="#273238"/>
<path d="M310.607 132.03C311.42 132.444 311.715 133.609 311.087 134.323C310.607 134.849 311.383 135.676 311.863 135.112C312.934 133.909 312.639 131.805 311.161 131.053C310.533 130.752 309.942 131.692 310.607 132.03Z" fill="#273238"/>
<path d="M309.646 129.587C310.348 129.925 310.755 130.677 310.607 131.504C310.459 132.218 311.53 132.519 311.678 131.805C311.937 130.527 311.346 129.211 310.2 128.648C309.572 128.272 309.018 129.249 309.646 129.587Z" fill="#273238"/>
<path d="M311.862 136.164C312.121 136.578 312.195 137.104 311.973 137.592C311.862 137.856 311.899 138.194 312.158 138.382C312.38 138.532 312.786 138.457 312.934 138.194C313.303 137.367 313.266 136.427 312.823 135.638C312.453 134.962 311.493 135.525 311.862 136.164Z" fill="#273238"/>
<path d="M306.396 121.281C306.839 123.837 307.393 126.355 308.095 128.873C308.28 129.587 309.351 129.287 309.166 128.573C308.464 126.092 307.91 123.536 307.467 120.981C307.356 120.267 306.285 120.567 306.396 121.281Z" fill="#273238"/>
<path d="M312.601 120.68C313.488 123.687 314.374 126.656 315.224 129.663C315.445 130.339 316.48 130.076 316.295 129.362C315.408 126.355 314.522 123.386 313.672 120.379C313.451 119.665 312.38 119.966 312.601 120.68Z" fill="#273238"/>
<path d="M306.507 120.191C301.816 119.74 297.531 113.652 296.866 109.217C296.053 103.843 300.966 99.4079 305.842 98.4683C316.295 96.514 321.836 115.155 312.897 120.041C312.269 120.379 312.823 121.357 313.451 121.018C321.208 116.771 319.103 103.317 312.602 98.9193C304.771 93.6201 293.025 102.152 296.275 111.397C297.79 115.682 301.742 120.83 306.507 121.281C307.209 121.394 307.209 120.267 306.507 120.191Z" fill="#273238"/>
<path d="M306.47 116.245C302.887 115.418 300.079 112.224 300.116 108.39C300.153 104.331 303.441 100.723 307.467 100.573C312.306 100.423 314.67 105.196 314.596 109.556C314.559 112.074 314.19 114.479 311.641 115.494C309.683 116.245 307.541 116.922 305.472 116.095C304.807 115.832 304.512 116.922 305.177 117.185C307.541 118.124 310.274 117.335 312.527 116.32C314.67 115.343 315.298 113.615 315.593 111.322C316.184 106.323 314.263 100.197 308.612 99.5208C303.958 98.957 299.821 102.64 299.156 107.263C298.491 111.961 301.778 116.283 306.248 117.335C306.876 117.486 307.171 116.396 306.47 116.245Z" fill="#273238"/>
<path d="M307.652 100.16C306.137 105.008 304.623 109.894 303.145 114.742C302.924 115.418 303.995 115.719 304.216 115.043C305.731 110.194 307.245 105.309 308.723 100.46C308.944 99.7838 307.873 99.4832 307.652 100.16Z" fill="#273238"/>
<path d="M309.831 105.572C308.686 109.067 307.43 112.525 306.138 115.945C305.879 116.621 306.95 116.922 307.209 116.245C308.502 112.825 309.757 109.33 310.903 105.872C311.124 105.158 310.053 104.858 309.831 105.572Z" fill="#273238"/>
<path opacity="0.12" d="M382.967 122.409C381.342 126.581 378.498 132.782 373.622 139.397C368.377 146.575 362.43 154.693 351.718 158.226C349.059 159.09 341.117 161.608 331.587 158.602C323.276 155.971 318.29 150.559 316.332 148.191C317.255 150.709 318.992 154.58 322.242 158.414C323.941 160.406 330.184 167.584 340.932 169.388C342.262 169.614 349.206 170.703 357.296 167.546C366.198 164.089 371 157.662 374.361 153.114C376.725 149.92 380.936 144.057 382.635 135.187C383.632 129.926 383.374 125.416 382.967 122.409Z" fill="#79909C"/>
<path opacity="0.21" d="M324.053 158.977C326.823 160.781 331.847 163.525 338.606 164.277C346.991 165.216 353.344 162.548 357.998 160.631C367.233 156.76 373.697 150.935 377.76 146.387C376.356 149.769 373.401 155.557 367.528 160.631C364.758 163.036 355.191 171.305 342.189 169.388C332.29 167.922 326.084 161.345 324.053 158.977Z" fill="#79909C"/>
<path d="M376.43 118.726C370.298 123.349 368.045 129.512 365.496 136.352C360.768 149.056 361.544 159.165 362.061 175.176C362.393 185.361 362.689 200.131 362.393 218.547C368.747 220.163 376.725 221.554 385.959 221.892C393.125 222.118 399.515 221.667 404.908 220.915C407.937 206.746 411.114 195.321 413.478 187.391C421.383 160.857 429.398 141.426 422.084 125.867C421.715 125.115 421.346 124.476 420.939 123.912C412.518 111.81 388.914 109.292 376.43 118.726Z" fill="#273238"/>
<path opacity="0.15" d="M403.098 113.84C402.618 116.583 401.805 120.906 400.587 126.092C393.679 155.407 386.735 157.023 385.516 173.259C384.26 189.608 390.761 195.508 385.331 207.798C382.487 214.225 378.129 218.509 374.915 221.14C380.049 221.516 385.553 221.742 391.426 221.704C396.043 221.666 400.402 221.479 404.539 221.14C407.161 209.527 409.673 200.244 411.557 193.742C412.48 190.547 413.589 186.752 415.694 179.686C419.129 168.11 420.016 165.254 421.456 159.767C423.562 151.611 424.633 147.439 424.854 143.305C425.224 137.104 425.63 130.038 421.271 124.1C418.501 120.304 414.697 118.275 412.665 117.147C408.897 115.08 405.425 114.216 403.098 113.84Z" fill="#79909C"/>
<path opacity="0.17" d="M418.539 165.931C417.763 165.63 413.811 176.304 406.867 190.773C400.403 204.228 394.271 214.826 389.986 221.855C394.825 221.479 399.701 221.14 404.54 220.765C405.796 215.766 407.716 208.287 410.117 199.192C416.027 176.792 419.315 166.194 418.539 165.931Z" fill="#79909C"/>
<path d="M415.841 122.221C414.622 122.672 412.886 123.424 410.892 124.589C403.874 128.685 400.143 134.323 397.853 137.705C397.853 137.705 390.133 149.131 378.239 164.465C374.545 169.238 370.851 173.673 366.308 178.483C356.889 188.48 352.715 190.547 350.905 191.337C346.399 193.366 342.446 195.133 337.238 194.719C333.803 194.456 331.661 193.366 329.297 194.832C326.785 196.373 325.123 200.056 325.455 202.086C325.492 202.311 325.64 203.025 325.714 204.04C325.751 204.303 325.788 205.205 325.714 206.52C325.603 208.55 325.381 208.362 325.455 209.114C325.677 210.73 326.785 211.557 326.453 212.083C326.231 212.459 325.64 212.12 325.197 212.609C324.68 213.135 324.901 214.15 324.938 214.3C325.197 215.465 326.157 216.142 326.563 216.367C328.152 217.42 329.223 216.856 333.249 217.006C336.093 217.119 336.943 217.457 338.346 216.743C338.716 216.555 339.344 216.217 340.452 214.939C343.628 211.331 343.259 208.926 346.029 206.633C347.027 205.806 348.024 205.355 348.652 205.092C350.684 204.19 352.013 204.228 353.971 203.777C355.301 203.514 356.63 202.95 359.29 201.822C363.612 200.018 366.936 198.252 368.229 197.538C376.023 193.253 383.078 187.841 384.592 186.639C392.681 180.362 397.853 175.063 404.575 168.185C409.414 163.262 414.512 157.7 419.461 150.145C420.976 147.815 423.672 143.493 424.559 137.405C424.965 134.661 425.371 131.579 423.82 128.46C421.677 123.912 416.986 122.522 415.841 122.221Z" fill="white"/>
<path d="M414.734 121.883C407.752 124.1 402.433 130.527 398.075 136.164C393.125 142.591 388.656 149.356 383.854 155.858C378.72 162.811 373.401 169.614 367.601 176.003C362.098 182.016 356.077 187.954 348.652 191.412C344.331 193.404 339.566 194.531 334.838 194.118C332.141 193.892 328.706 193.216 327.044 195.997C326.675 196.598 327.635 197.2 328.004 196.561C329.002 194.87 331.07 194.907 332.769 195.058C334.542 195.17 336.278 195.396 338.051 195.321C341.56 195.133 345.033 194.231 348.283 192.84C355.19 189.871 360.953 184.76 366.124 179.31C377.279 167.584 386.44 154.204 395.896 141.088C398.555 137.405 401.288 133.797 404.428 130.527C407.457 127.37 410.892 124.326 415.14 122.973C415.694 122.747 415.399 121.657 414.734 121.883Z" fill="#273238"/>
<path d="M414.623 122.597C420.792 121.732 424.227 128.385 424.19 133.759C424.153 139.096 421.937 144.358 419.351 148.905C414.55 157.437 407.568 164.728 400.809 171.681C387.437 185.323 371.85 197.688 353.418 203.213C351.165 203.89 348.431 204.115 346.437 205.468C344.553 206.746 343.593 209.226 342.3 211.068C341.339 212.421 340.305 213.736 339.197 214.977C337.756 216.555 336.427 216.706 334.469 216.555C332.992 216.442 331.514 216.33 330 216.217C328.485 216.104 326.343 216.217 325.604 214.563C325.309 213.887 324.348 214.488 324.644 215.127C325.419 216.893 327.266 217.119 328.965 217.269C330.332 217.382 331.699 217.495 333.065 217.57C334.395 217.683 335.91 217.983 337.239 217.72C339.456 217.269 341.118 214.451 342.411 212.797C343.962 210.767 345.255 207.422 347.508 206.145C348.764 205.431 350.352 205.243 351.719 204.867C353.086 204.491 354.415 204.115 355.745 203.664C358.146 202.875 360.547 201.935 362.874 200.921C367.75 198.778 372.404 196.223 376.873 193.291C385.812 187.428 393.938 180.325 401.437 172.695C409.046 164.953 417.061 156.647 421.863 146.688C424.375 141.464 426.443 135.15 424.818 129.362C423.525 124.702 419.351 120.868 414.402 121.545C413.626 121.62 413.922 122.71 414.623 122.597Z" fill="#273238"/>
<path d="M325.825 201.822C326.157 199.53 331.882 199.755 333.397 199.605C335.465 199.417 337.312 198.966 338.937 197.576C339.491 197.087 338.679 196.298 338.162 196.786C335.798 198.816 332.547 198.402 329.666 198.778C328.152 199.004 325.049 199.567 324.79 201.484C324.643 202.236 325.714 202.537 325.825 201.822Z" fill="#273238"/>
<path d="M324.716 201.973C326.525 205.618 330.441 207.61 334.356 206.746C335.058 206.595 334.763 205.506 334.061 205.656C330.589 206.445 327.227 204.604 325.639 201.409C325.343 200.77 324.383 201.334 324.716 201.973Z" fill="#273238"/>
<path d="M325.234 203.025C324.495 204.979 325.345 207.159 326.97 208.362C328.817 209.753 331.218 209.602 333.36 209.226C334.062 209.114 333.766 208.024 333.065 208.136C331.402 208.437 329.519 208.587 327.967 207.685C326.453 206.821 325.677 204.979 326.268 203.326C326.564 202.649 325.492 202.349 325.234 203.025Z" fill="#273238"/>
<path d="M325.308 206.145C324.273 207.873 324.717 210.166 326.157 211.557C327.856 213.21 330.442 213.022 332.4 212.045C333.028 211.745 332.474 210.767 331.846 211.068C330.331 211.782 328.374 212.008 327.007 210.805C325.862 209.79 325.492 208.061 326.268 206.708C326.637 206.069 325.677 205.506 325.308 206.145Z" fill="#273238"/>
<path d="M325.788 214.714C325.049 213.511 326.047 212.008 327.45 212.534C328.115 212.797 328.41 211.707 327.746 211.444C325.456 210.579 323.646 213.285 324.865 215.277C325.197 215.879 326.157 215.315 325.788 214.714Z" fill="#273238"/>
<path d="M327.007 196.749C329.076 195.997 331.255 197.012 332.141 199.041C332.437 199.718 333.397 199.116 333.102 198.478C332.031 196.035 329.223 194.757 326.712 195.696C326.047 195.922 326.342 197.012 327.007 196.749Z" fill="#273238"/>
<path d="M326.601 196.072C325.123 197.162 325.16 199.756 326.822 200.658C327.45 200.996 328.004 200.019 327.376 199.68C326.49 199.192 326.268 197.651 327.155 197.05C327.746 196.599 327.192 195.621 326.601 196.072Z" fill="#273238"/>
<path d="M326.933 199.192C327.007 198.365 327.266 197.688 327.746 197.012C327.413 197.012 327.118 197.012 326.785 197.012C327.155 197.651 327.155 198.252 326.785 198.853C327.118 198.891 327.45 198.929 327.783 199.004C327.709 198.778 327.672 197.049 328.115 197.35C328.448 197.576 327.709 198.741 327.561 199.004C327.893 199.004 328.189 199.004 328.521 199.004C328.374 198.741 328.263 198.478 328.263 198.177C328.411 197.35 328.632 197.275 328.891 197.989C329.075 198.139 329.26 198.252 329.408 198.402C329.297 197.989 329.408 197.764 329.74 197.839C330.073 197.688 330.147 197.801 329.962 198.139C330.221 198.215 330.479 198.29 330.738 198.327C330.848 198.44 330.922 198.553 331.033 198.665C330.922 199.38 331.994 199.68 332.104 198.966C332.252 198.027 331.403 196.749 330.442 197.613C329.63 198.365 330.442 199.755 331.476 199.192C332.474 198.628 332.067 197.087 331.033 196.824C329.851 196.561 329.26 197.989 329.777 198.891C329.925 199.154 330.294 199.229 330.553 199.079C331.476 198.515 331.403 196.937 330.368 196.523C329.039 195.96 328.189 197.576 328.374 198.703C328.411 198.966 328.669 199.117 328.891 199.117C330.442 199.192 330.812 196.862 329.371 196.373C327.376 195.696 326.822 198.252 327.561 199.605C327.783 200.018 328.3 199.943 328.521 199.605C329.039 198.853 330.11 196.147 328.411 195.997C326.822 195.884 326.379 198.215 326.711 199.342C326.859 199.793 327.487 199.906 327.709 199.492C328.263 198.553 328.263 197.463 327.709 196.486C327.487 196.11 326.97 196.147 326.748 196.486C326.157 197.313 325.899 198.215 325.788 199.229C325.751 199.943 326.859 199.906 326.933 199.192Z" fill="#273238"/>
<path d="M326.01 200.432C327.894 200.77 332.474 201.146 332.954 198.365C333.065 197.651 331.994 197.35 331.883 198.064C331.55 199.981 327.598 199.567 326.305 199.342C325.603 199.229 325.308 200.319 326.01 200.432Z" fill="#273238"/>
<path d="M330.479 199.868C331.883 205.618 331.735 211.519 329.999 217.156C329.777 217.833 330.848 218.134 331.07 217.457C332.843 211.632 333.028 205.506 331.55 199.567C331.365 198.853 330.294 199.154 330.479 199.868Z" fill="#273238"/>
<path d="M330.258 199.943C330.516 202.8 330.664 205.618 330.738 208.475C330.812 211.218 330.997 214.037 330.11 216.668C329.888 217.344 330.96 217.645 331.181 216.969C332.031 214.45 331.92 211.82 331.883 209.189C331.809 206.107 331.661 203.025 331.403 199.943C331.292 199.229 330.184 199.229 330.258 199.943Z" fill="#273238"/>
<path d="M331.698 199.906C332.511 200.507 332.363 203.476 332.4 204.416C332.437 205.694 332.437 206.934 332.363 208.212C332.216 210.918 331.809 213.624 331.144 216.254C330.96 216.968 332.031 217.269 332.216 216.555C333.028 213.248 333.471 209.903 333.508 206.483C333.508 204.754 333.435 203.025 333.25 201.296C333.139 200.281 333.065 199.53 332.252 198.928C331.661 198.515 331.107 199.492 331.698 199.906Z" fill="#273238"/>
<path d="M331.44 199.605C331.92 202.649 332.068 205.694 331.846 208.738C331.809 209.452 332.917 209.452 332.954 208.738C333.176 205.581 333.028 202.424 332.511 199.305C332.4 198.59 331.329 198.891 331.44 199.605Z" fill="#273238"/>
<path d="M328.743 199.831C329.962 204.002 330.442 208.324 330.11 212.684C330.036 213.812 328.891 219.111 331.883 217.683C332.991 217.157 333.102 215.841 333.212 214.789C333.434 212.647 333.471 210.504 333.471 208.362C333.471 204.98 333.914 200.883 331.993 197.951C331.587 197.35 330.627 197.914 331.033 198.515C332.621 200.958 332.326 204.115 332.363 206.934C332.363 208.475 332.363 210.016 332.326 211.557C332.289 212.271 332.252 212.985 332.215 213.699C332.178 214.075 331.956 217.157 330.885 215.879C330.885 215.879 331.107 214.225 331.144 214.037C331.218 213.361 331.292 212.647 331.329 211.97C331.402 210.579 331.402 209.189 331.329 207.836C331.181 205.017 330.664 202.236 329.888 199.53C329.629 198.816 328.558 199.117 328.743 199.831Z" fill="#273238"/>
<path d="M330.109 199.68C330.331 201.484 330.516 203.288 330.737 205.055C330.811 205.769 331.919 205.769 331.845 205.055C331.624 203.251 331.439 201.447 331.217 199.68C331.107 198.966 329.999 198.966 330.109 199.68Z" fill="#273238"/>
<path d="M329.002 198.59C329.778 200.62 330.405 202.725 330.812 204.867C330.96 205.581 332.031 205.28 331.883 204.566C331.477 202.424 330.886 200.319 330.073 198.29C329.814 197.613 328.743 197.914 329.002 198.59Z" fill="#273238"/>
<path opacity="0.15" d="M422.491 126.242C421.087 126.242 420.718 133.834 418.723 140.299C416.987 145.899 414.032 150.484 401.473 162.961C384.039 180.25 375.026 189.007 360.177 196.598C353.898 199.793 348.394 201.86 344.553 203.176C343.334 204.265 339.308 207.573 333.435 207.573C330.553 207.573 328.226 206.784 326.786 206.107C326.527 206.257 325.715 206.746 325.345 207.761C324.939 208.851 325.234 210.128 326.047 211.068C325.752 211.331 324.939 212.233 324.976 213.436C325.013 214.826 326.084 215.691 326.416 215.991C327.672 217.044 329.815 217.081 333.952 217.081C335.023 217.081 336.574 217.081 338.458 217.081C339.16 216.33 340.194 215.165 341.339 213.624C344.072 209.865 344.368 207.986 346.363 206.295C348.653 204.378 351.312 204.303 352.457 204.115C362.32 202.386 374.546 194.118 381.379 189.495C392.276 182.129 398.481 175.176 410.855 161.345C410.855 161.345 417.43 153.979 422.528 142.704C423.303 141.013 424.966 137.066 424.485 132.105C424.227 129.738 423.451 126.28 422.491 126.242Z" fill="#79909C"/>
<path d="M406.94 88.3208C407.236 97.416 406.903 102.565 408.418 111.247C409.12 115.306 409.969 118.575 410.597 120.755C406.792 121.995 400.402 123.499 392.572 122.634C387.437 122.071 383.263 120.68 380.271 119.402C381.638 116.771 383.3 112.9 384.224 108.014C385.036 103.768 385.036 100.084 384.852 97.3032C381.01 95.7247 377.169 94.1086 373.327 92.5301C372.995 90.5382 372.699 88.5463 372.367 86.592C371.296 86.2537 370.187 85.9155 369.116 85.5772C370.557 83.3598 372.81 79.8646 375.469 75.5049C380.456 67.2741 380.752 65.9963 382.746 64.3802C388.139 59.9454 398.038 58.8179 403.173 63.3655C406.201 66.0715 406.497 73.513 406.94 88.3208Z" fill="white" stroke="#273238" stroke-width="2" stroke-miterlimit="10"/>
<path d="M369.042 86.2161C371.073 86.8174 373.142 87.1933 375.247 87.4188C375.949 87.4939 375.949 86.3664 375.247 86.2913C373.253 86.0658 371.258 85.6899 369.337 85.1262C368.636 84.9383 368.34 86.0282 369.042 86.2161Z" fill="#273238"/>
<path d="M372.367 69.9425C373.733 69.6042 375.211 70.3559 375.728 71.7089C375.987 72.3854 377.058 72.0847 376.799 71.4082C376.06 69.4539 374.103 68.364 372.108 68.8525C371.369 69.0405 371.665 70.1304 372.367 69.9425Z" fill="#273238"/>
<path d="M380.678 73.513C382.34 73.4379 383.855 74.415 384.409 75.9935C384.63 76.67 385.702 76.3694 385.48 75.6929C384.778 73.6258 382.857 72.2352 380.715 72.3479C379.976 72.4231 379.976 73.5506 380.678 73.513Z" fill="#273238"/>
<path d="M381.047 78.286C380.789 77.7222 380.899 77.2337 380.973 76.6323C381.084 76.482 381.084 76.4068 380.973 76.482C380.863 76.5196 380.863 76.5947 380.973 76.7075C381.01 76.9706 381.084 77.2337 381.121 77.4967C381.121 77.6847 381.047 78.0605 381.084 78.2108C381.158 78.286 381.232 78.3612 381.306 78.4363C381.306 78.3236 381.343 78.2108 381.343 78.0981C381.417 77.5343 381.49 76.9706 381.564 76.3692C381.638 75.8055 380.752 75.6176 380.53 76.0686C380.345 76.4444 380.272 76.7827 380.272 77.1961C380.308 77.9101 381.417 77.9101 381.38 77.1961C381.38 76.9706 381.38 76.8578 381.49 76.6323C381.158 76.5196 380.789 76.4444 380.456 76.3317C380.382 77.0082 380.198 77.7222 380.198 78.3987C380.198 78.8873 380.456 79.3007 380.936 79.3759C382.155 79.5638 382.266 77.9853 382.192 77.1209C382.081 76.3317 381.49 74.6404 380.419 75.5424C379.496 76.2941 379.717 77.9102 380.124 78.8497C380.382 79.4887 381.343 78.9249 381.047 78.286Z" fill="#273238"/>
<path d="M380.678 66.2218C381.416 64.4554 382.894 61.6742 385.664 59.081C386.625 58.179 388.693 56.2622 391.463 55.3226C396.709 53.5562 403.542 55.6233 407.605 60.6219C411.594 65.5077 412.37 72.5734 409.674 78.6243C400.033 74.4901 390.355 70.356 380.678 66.2218Z" fill="#3A3A3A"/>
<path d="M364.24 61.6742C379.2 67.8003 394.16 73.8888 409.083 80.0148C411.077 80.8417 411.927 77.5719 409.969 76.7451C395.009 70.619 380.05 64.5305 365.127 58.4044C363.169 57.6152 362.283 60.8849 364.24 61.6742Z" fill="#273238"/>
<path d="M399.775 75.5424C396.783 75.843 394.714 77.3088 392.276 79.0752C387.142 82.8335 387.844 84.9006 384.335 87.1556C378.757 90.7636 375.063 86.7798 370.003 90.3878C365.681 93.4696 364.758 98.8816 364.573 100.159C364.389 101.362 363.761 106.286 366.753 110.57C369.338 114.291 373.66 116.132 374.103 115.569C374.251 115.381 374.029 114.704 371.998 112.374C372.589 113.088 373.549 114.028 374.953 114.667C376.578 115.418 378.24 115.569 378.314 115.306C378.388 115.118 377.464 114.892 376.947 113.953C376.652 113.389 376.615 112.825 376.615 112.374C377.723 113.614 379.237 114.855 380.973 114.817C385.738 114.629 389.1 104.895 390.208 101.663C393.791 91.2146 392.276 84.5624 396.93 81.7812C397.337 81.5557 399.184 80.4282 400.735 81.1799C402.73 82.1195 403.431 85.7651 402.213 87.757C401.141 89.4482 398.962 89.4106 398.999 89.7865C399.073 90.2751 402.767 90.5381 406.276 88.9596C407.568 88.3959 408.603 87.9073 409.415 86.7798C410.782 84.7879 410.487 81.9691 409.674 80.1651C407.901 76.2941 403.025 75.2041 399.775 75.5424Z" fill="#273238" stroke="#273238" stroke-width="2" stroke-miterlimit="10"/>
<path opacity="0.22" d="M400.291 90.3879C399.626 90.2751 398.666 90.0496 398.666 89.8241C398.666 89.7114 398.924 89.5986 398.924 89.5986C398.924 89.5611 397.89 90.3879 396.856 90.2751C396.376 90.2 396.006 89.9369 395.785 89.7114C396.597 93.808 397.299 98.769 397.336 104.482C397.41 111.735 396.486 117.936 395.452 122.71C397.668 122.973 400.845 123.048 404.502 122.259C406.792 121.77 408.75 121.018 410.264 120.304C408.048 113.389 407.383 108.127 407.198 104.632C407.087 102.978 406.977 99.1072 406.903 97.2281C406.792 93.7704 406.681 90.9141 406.644 88.9973C406.312 89.1476 405.795 89.4107 405.13 89.6738C404.243 90.0496 402.396 90.7261 400.291 90.3879Z" fill="#79909C"/>
<path d="M397.558 54.9844C401.362 56.8635 403.541 60.9225 403.024 64.9064C402.396 69.6419 398.259 71.8593 397.853 72.0848C401.99 73.776 406.127 75.4297 410.264 77.121C410.597 76.1438 410.966 74.7908 411.151 73.0995C411.668 67.7627 409.525 63.7789 409.045 62.9896C408.306 61.7118 405.684 57.3897 400.513 55.6609C399.368 55.2099 398.333 55.0595 397.558 54.9844Z" fill="#282828"/>
</svg>
