<svg width="600" height="400" viewBox="0 0 600 400" fill="none" xmlns="http://www.w3.org/2000/svg">
<g clip-path="url(#clip0)">
<path d="M419.148 355.868C381.023 359.468 361.591 359.304 360.803 355.22C360.139 351.872 372.151 345.872 396.963 337.296C396.651 328.268 396.351 319.172 396.039 310.14C395.239 303.296 398.963 296.888 404.904 294.572C409.952 292.628 415.808 293.916 419.828 297.852C419.6 317.2 419.38 336.508 419.148 355.868Z" fill="#191919"/>
<path d="M467.048 84.6166C474.464 92.8886 468.648 107.697 460.064 136.501C448.792 174.241 440.3 202.989 436.864 232.289C431.716 276.729 439.908 308.861 427.476 313.773C423.24 315.465 418.396 313.221 414.864 311.041C410.992 311.653 407.116 312.329 403.264 312.941C399.64 313.049 394.628 312.565 390.744 309.233C380.008 299.985 387.28 277.101 395.144 243.429C402.744 210.985 407.264 177.829 413.58 145.149C418.66 119.097 422.208 98.0206 424.38 85.0246C435.256 81.1486 458.04 74.4806 467.048 84.6166Z" fill="white"/>
<path d="M424.275 314.772C421.543 314.772 418.407 313.673 414.791 311.461C412.899 311.757 411.007 312.072 409.115 312.388C407.223 312.704 405.251 313.029 403.323 313.337H403.271C397.915 313.497 393.611 312.221 390.471 309.533C380.839 301.233 385.271 282.836 391.959 254.992C392.859 251.248 393.787 247.392 394.731 243.336C399.531 222.864 403.155 201.768 406.663 181.368C408.715 169.452 410.835 157.128 413.163 145.068C418.363 118.316 422.011 96.6123 423.963 84.9523L423.999 84.7203L424.223 84.6403C436.527 80.2403 458.495 74.3963 467.335 84.3443C474.015 91.8043 470.227 104.284 463.335 126.936C462.399 130.012 461.435 133.192 460.419 136.612C449.411 173.464 440.719 202.576 437.243 232.328C435.215 249.832 435.243 265.56 435.299 278.2C435.355 297.992 435.391 311.065 427.607 314.137C426.547 314.557 425.415 314.773 424.275 314.772ZM414.959 310.62L415.083 310.7C420.111 313.8 424.119 314.7 427.339 313.4C434.619 310.524 434.579 297.668 434.539 278.2C434.503 265.54 434.455 249.8 436.491 232.232C439.975 202.408 448.675 173.268 459.691 136.376C460.707 132.96 461.691 129.776 462.607 126.7C469.407 104.324 473.143 91.9963 466.763 84.8723C458.287 75.3323 436.895 81.0083 424.739 85.3123C422.779 97.0323 419.139 118.632 413.971 145.216C411.643 157.268 409.527 169.588 407.475 181.5C403.967 201.9 400.335 223.02 395.535 243.5C394.591 247.544 393.659 251.416 392.759 255.164C386.135 282.724 381.755 300.929 391.015 308.909C393.987 311.457 398.095 312.681 403.239 312.509C405.155 312.205 407.079 311.884 408.999 311.568C410.919 311.252 412.887 310.921 414.827 310.613L414.959 310.62Z" fill="#161616"/>
<path opacity="0.14" d="M454.543 79.396C457.999 79.664 463.799 80.16 467.343 84.38C469.047 86.448 469.967 89.18 470.171 93.852C470.571 103.812 467.299 111.312 465.287 116.504C463.083 122.336 465.435 117.704 458.583 143.704C449.531 178.24 446.531 182.104 441.331 205.964C438.363 219.672 437.215 228.168 436.707 232.72C436.059 238.764 434.895 248.772 434.951 261.784C435.003 274.144 434.151 286.476 434.463 298.796C434.583 301.632 434.739 307.492 430.911 311.064C427.803 313.984 423.463 314.024 422.807 314.028C419.795 313.984 416.895 312.864 414.635 310.872C411.123 311.188 407.539 311.568 404.023 311.884C405.979 267.856 414.343 234.368 421.867 211.572C430.147 186.42 440.239 165.572 443.867 131.376C445.655 114.526 445.579 97.53 443.643 80.696C447.159 79.5588 450.859 79.1172 454.543 79.396Z" fill="#6D6C6C"/>
<path opacity="0.1" d="M445.096 189.388C441.036 207.592 438.256 220.068 436.728 237.2C434 268.144 434.188 284.588 434.188 284.588C434.34 297.94 435.204 309.388 429.104 312.68C425.708 314.516 421.372 313.18 417.976 311.604C415.604 310.98 413.292 310.428 410.98 309.876C417.604 296.218 422.756 281.894 426.344 267.144C434.088 235.304 430.168 219.42 438.556 189.744C442.608 175.48 448.384 161.764 455.756 148.9C452.536 159.296 448.712 173.052 445.096 189.388Z" fill="#6D6C6C"/>
<path d="M524.848 356.969C487.248 364.229 467.888 365.929 466.708 361.941C465.728 358.669 477.108 351.541 500.976 340.621C499.8 331.661 498.624 322.621 497.448 313.677C496.008 306.941 499.08 300.205 504.772 297.325C509.612 294.925 515.572 295.625 519.944 299.157C521.512 318.449 523.148 337.677 524.848 356.969Z" fill="#191919"/>
<path d="M448.332 88.2522C441.204 95.9042 441.664 107.216 441.728 108.328C442.528 123.304 454.676 131.412 455.92 132.196C462.56 154.981 467.392 178.253 470.372 201.796C473.172 224.36 474.624 235.608 475.212 246.596C475.212 246.596 476.716 275.112 486.012 303.56C486.928 306.5 488.812 311.928 493.468 313.828C501.38 317.096 511.324 307.744 512.892 306.228C512.236 307.864 511.78 309.696 512.492 310.412C514.192 311.984 521.692 307.928 525.572 302.812C530.736 296.012 529.624 286.984 527.468 275.868C522.888 251.996 517.592 238.852 513.668 223.42C511.38 214.524 510.66 209.096 507.716 186.22C503.4 152.932 499.348 120.888 495.552 89.8202C477.892 77.3962 457.752 78.1162 448.332 88.2522Z" fill="white"/>
<path d="M497.036 314.892C495.756 314.902 494.488 314.658 493.304 314.176C488.248 312.112 486.34 305.968 485.62 303.656C476.42 275.492 474.82 246.884 474.82 246.6C474.256 236.108 472.952 225.628 470.348 204.744L469.984 201.832C467.016 178.363 462.2 155.164 455.584 132.452C453.704 131.252 442.112 123.144 441.336 108.348C441.26 107.084 440.816 95.7402 448.048 87.9762C452.824 82.8362 460.216 80.0722 468.848 80.1762C477.832 80.2882 487.392 83.5962 495.772 89.4922L495.916 89.5962L495.94 89.7722C499.584 119.62 503.56 151.148 508.104 186.172C511.088 209.372 511.796 214.604 514.044 223.336C515.392 228.628 516.892 233.636 518.484 238.936C521.464 248.864 524.84 260.112 527.848 275.804C529.936 286.552 531.228 296.024 525.876 303.064C522.624 307.364 516.896 310.872 513.948 311.136C513.644 311.191 513.332 311.18 513.032 311.106C512.732 311.031 512.452 310.895 512.208 310.704C511.64 310.136 511.568 309.104 511.98 307.588C508.976 310.252 502.892 314.892 497.036 314.892ZM468.364 80.9722C460.152 80.9722 453.164 83.6442 448.624 88.5242C441.62 96.0402 442.056 107.072 442.128 108.304C442.9 123.104 454.78 131.004 456.128 131.86L456.256 131.94L456.3 132.088C462.948 154.885 467.788 178.172 470.764 201.732L471.128 204.648C473.736 225.548 475.044 236.04 475.608 246.556C475.608 246.84 477.208 275.356 486.376 303.416C487.068 305.632 488.896 311.512 493.604 313.436C500.844 316.428 509.972 308.448 512.6 305.932L513.932 304.652L513.248 306.368C512.488 308.264 512.308 309.668 512.768 310.124C513.096 310.336 513.496 310.412 513.88 310.336C516.608 310.092 522.164 306.652 525.244 302.576C530.392 295.8 529.116 286.508 527.068 275.952C524.064 260.3 520.696 249.068 517.724 239.152C516.124 233.84 514.624 228.824 513.272 223.512C511.016 214.736 510.304 209.512 507.312 186.256C502.8 151.32 498.8 119.844 495.176 90.0442C486.96 84.3042 477.62 81.0842 468.848 80.9762L468.364 80.9722Z" fill="#161616"/>
<path d="M442.776 97.6684C443.232 96.4924 445.128 97.0124 444.672 98.1924C442.512 104.536 441.728 111.596 445.192 117.616C448.072 122.716 452.912 128.536 458.664 130.3C459.844 130.7 459.32 132.592 458.144 132.196C451.864 130.236 446.696 124.152 443.492 118.596C439.764 112.12 440.42 104.468 442.776 97.6684Z" fill="white"/>
<path d="M440.799 109.832C440.735 108.588 442.695 108.588 442.763 109.832C443.351 119.184 449.367 126.9 458.391 129.452C459.635 129.776 459.111 131.676 457.867 131.348C447.927 128.548 441.387 120.032 440.799 109.832Z" fill="white"/>
<path opacity="0.14" d="M482.991 83.6008C488.991 85.4968 491.231 87.5248 491.951 88.1768C493.603 89.8108 494.935 91.7416 495.875 93.8688C498.491 110.805 500.191 124.737 501.303 134.609C503.331 152.725 504.311 166.917 507.387 187.581C508.759 196.609 510.003 203.865 510.459 206.353C511.899 214.197 513.075 221.001 514.839 228.585C518.959 246.585 523.995 259.325 526.807 272.585C527.207 274.289 527.723 277.689 528.771 284.553C529.491 289.001 529.687 290.505 529.423 292.597C529.043 295.949 527.855 299.158 525.959 301.949C523.343 306.069 517.915 311.693 514.643 310.453C513.139 309.865 513.075 308.293 511.375 307.837C508.891 307.181 507.059 310.061 505.947 309.993C501.239 309.733 500.847 257.481 500.715 247.213C499.799 185.613 485.347 134.413 476.975 104.841C474.099 94.6408 471.483 86.4008 469.775 81.3008C474.275 81.3632 478.735 82.1396 482.991 83.6008Z" fill="#6D6C6C"/>
<path opacity="0.2" d="M526.22 269.665C529.164 279.017 532.368 288.761 527.988 298.241C524.788 305.109 517.392 312.301 514.056 310.865C512.748 310.277 512.292 308.509 512.096 306.941C506.208 310.733 504.496 311.389 504.248 311.061C503.592 310.209 514.188 303.861 519.288 293.205C522.688 286.145 522.56 279.473 519.944 261.161C518.308 249.913 515.888 235.593 512.292 218.849C517.652 240.953 522.56 257.825 526.22 269.665Z" fill="#6D6C6C"/>
<path d="M515.468 114.508C520.268 103.836 538.832 58.7483 526.836 26.3964C513.148 -10.5236 500.152 -24.3716 500.152 -24.3716C479.208 -23.1276 479.432 2.33643 479.432 2.33643L504.852 45.0683C507.836 62.3163 503.044 95.2083 501.004 107.704C500.748 109.269 500.18 110.765 499.324 112.102C498.472 113.438 497.356 114.587 496.044 115.476L487.244 120.144C487.244 120.144 497.46 134.764 499.124 141.712C499.652 143.912 506.88 132.256 511.204 125.004C512.928 122.076 514.24 118.925 515.104 115.64C515.196 115.255 515.32 114.877 515.468 114.508Z" fill="white"/>
<path d="M499.416 142.588C499.36 142.593 499.3 142.593 499.244 142.588C499.064 142.56 498.896 142.475 498.764 142.345C498.636 142.216 498.548 142.049 498.52 141.868C496.92 135.112 486.836 120.648 486.732 120.5L486.332 119.944L495.72 114.98C496.956 114.13 498.012 113.037 498.816 111.769C499.62 110.501 500.16 109.083 500.4 107.6C502.536 94.5322 507.176 62.3362 504.264 45.2682L478.836 2.50432V2.34032C478.92 -2.14472 479.784 -6.58104 481.384 -10.7717C484.828 -19.5357 491.308 -24.4477 500.12 -24.9717H500.404L500.596 -24.7637C500.724 -24.6277 513.828 -10.4077 527.396 26.2043C532.536 40.0642 532.748 57.7362 528.028 78.7282C525.184 91.0962 521.164 103.164 516.028 114.768C515.888 115.108 515.768 115.457 515.676 115.812C514.796 119.149 513.464 122.35 511.712 125.324C502.072 141.464 500.164 142.588 499.416 142.588ZM488.104 120.356C489.976 123.088 497.876 134.836 499.596 141.212C500.396 140.564 502.944 137.656 510.668 124.696C512.36 121.819 513.652 118.723 514.508 115.496C514.608 115.086 514.74 114.685 514.908 114.296C518.908 105.356 538.3 59.0962 526.26 26.6403C513.66 -7.33968 501.52 -21.8597 499.884 -23.7197C491.616 -23.1357 485.764 -18.6317 482.492 -10.3317C480.976 -6.31976 480.14 -2.08295 480.016 2.20432L505.408 44.8882V44.9962C508.388 62.1962 503.712 94.6762 501.564 107.832C501.296 109.475 500.696 111.047 499.8 112.451C498.908 113.856 497.74 115.065 496.364 116.004L496.308 116.04L488.104 120.356Z" fill="#1D1D1B"/>
<g style="mix-blend-mode:multiply">
<g style="mix-blend-mode:multiply">
<path d="M515.469 114.508C520.269 103.836 538.833 58.7483 526.837 26.3964C513.149 -10.5236 500.152 -24.3716 500.152 -24.3716C498.164 -24.2663 496.201 -23.8922 494.312 -23.2596C495.437 -22.0156 507.861 -7.79158 520.917 27.4204C532.917 59.7683 514.333 104.856 509.549 115.528C508.837 117.109 508.469 118.823 508.469 120.556C508.469 120.556 495.992 142.644 499.104 141.712C501.405 141.02 508.657 129.236 512.305 123.136C513.421 121.291 514.213 119.269 514.645 117.156C514.821 116.246 515.097 115.357 515.469 114.508Z" fill="#CECECE"/>
</g>
</g>
<path d="M338.255 98.0004L203.855 187.668L201.279 184.32L336.651 94.1724L338.255 98.0004Z" fill="black"/>
<path d="M420.211 31.9564C424.279 3.95634 416.371 -22.1396 416.371 -22.1396C416.371 -22.1396 409.859 -12.4676 408.535 3.09635C407.131 19.6843 401.623 33.9683 394.583 45.8522C382.523 66.2122 364.515 79.7562 355.551 85.6482C353.925 86.7174 352.07 87.3894 350.137 87.6106C348.203 87.8314 346.245 87.595 344.419 86.9202C343.375 86.5378 342.252 86.4222 341.151 86.5842C337.991 87.0482 331.551 88.4362 329.423 92.2322C326.575 97.3362 328.095 98.9242 328.095 98.9242C326.259 103.304 329.583 102.072 330.059 105.94C330.535 109.808 332.059 108.74 334.059 111.504C336.059 114.268 337.099 112.008 339.659 113.992C342.219 115.976 352.799 104.568 352.799 104.568C354.215 103.562 355.839 102.887 357.551 102.592C392.475 96.4642 413.019 67.9242 415.747 60.3842L420.463 47.3722C420.463 47.3722 418.723 42.1642 420.211 31.9564Z" fill="white"/>
<path d="M340.364 114.8C339.979 114.813 339.602 114.696 339.292 114.468C338.607 113.9 337.732 113.614 336.844 113.668C335.848 113.648 334.82 113.628 333.56 111.872C333.041 111.144 332.395 110.517 331.652 110.02C330.652 109.3 329.792 108.68 329.464 106.02C329.367 104.998 328.878 104.054 328.1 103.384C327.104 102.372 326.468 101.456 327.424 98.9844C327.024 98.2204 326.536 96.1844 328.9 91.9364C331.108 87.9844 337.472 86.5124 341.068 85.9884C342.266 85.8112 343.49 85.9364 344.628 86.3524C346.365 86.9916 348.228 87.2164 350.068 87.008C351.908 86.7996 353.673 86.164 355.224 85.1524C364.636 78.9644 382.196 65.5884 394.068 45.5524C402.02 32.1363 406.684 17.8363 407.94 3.05228C409.26 -12.4877 415.808 -22.3677 415.876 -22.4637L416.58 -23.5117L416.948 -22.3117C417.028 -22.0517 424.848 4.24028 420.804 32.0403C419.36 41.9564 421.024 47.1324 421.04 47.1844L421.104 47.3804L421.036 47.5764L416.32 60.5884C413.568 68.1884 392.792 97.0204 357.664 103.184C356.059 103.46 354.535 104.088 353.2 105.02C350.868 107.54 343.82 114.8 340.364 114.8ZM342.124 87.1124C341.828 87.1128 341.532 87.1356 341.24 87.1804C338.52 87.5804 331.976 88.8924 329.948 92.5244C327.424 97.0484 328.536 98.5244 328.548 98.5244L328.82 98.8084L328.652 99.1524C327.748 101.308 328.176 101.74 328.956 102.528C329.923 103.386 330.531 104.578 330.656 105.864C330.92 107.992 331.456 108.384 332.352 109.028C333.202 109.598 333.943 110.318 334.536 111.152C335.444 112.42 336.012 112.432 336.868 112.448C338.015 112.402 339.139 112.781 340.024 113.512C341.344 114.536 347.46 109.448 352.372 104.156L352.46 104.076C353.95 103.02 355.657 102.31 357.456 101.996C392.064 95.9244 412.492 67.6364 415.192 60.1764L419.84 47.3524C419.528 46.2724 418.272 41.1004 419.616 31.8643L420.212 31.9523L419.616 31.8643C423.104 7.86428 417.676 -14.9837 416.168 -20.6397C414.464 -17.6397 410.168 -9.03972 409.136 3.14428C407.864 18.1083 403.136 32.5803 395.1 46.1524C383.1 66.4004 365.38 79.9004 355.9 86.1524C354.192 87.268 352.248 87.9692 350.221 88.2004C348.195 88.4316 346.143 88.1864 344.228 87.4844C343.554 87.2368 342.841 87.1112 342.124 87.1124Z" fill="#1D1D1B"/>
<g style="mix-blend-mode:multiply">
<g style="mix-blend-mode:multiply">
<path d="M333.532 109.004C333.056 105.136 329.732 106.368 331.568 101.988C331.568 101.988 330.048 100.388 332.896 95.2963C335.016 91.5003 341.464 90.0963 344.624 89.6483C345.724 89.4867 346.848 89.6019 347.892 89.9843C349.717 90.6591 351.676 90.8955 353.609 90.6747C355.543 90.4535 357.398 89.7815 359.024 88.7123C368 82.8203 386 69.2763 398.056 48.9163C405.096 37.0325 410.604 22.7485 412.012 6.16047C412.624 -1.44153 414.644 -8.86306 417.976 -15.7235C417.088 -19.7795 416.376 -22.1235 416.376 -22.1235C416.376 -22.1235 409.864 -12.4515 408.54 3.11248C407.136 19.7005 401.628 33.9845 394.588 45.8683C382.528 66.2283 364.516 79.7723 355.556 85.6643C353.93 86.7335 352.075 87.4055 350.141 87.6267C348.208 87.8475 346.249 87.6111 344.424 86.9363C343.38 86.5539 342.256 86.4387 341.156 86.6003C337.996 87.0643 331.556 88.4523 329.428 92.2483C326.58 97.3523 328.1 98.9403 328.1 98.9403C326.264 103.32 329.588 102.088 330.064 105.956C330.54 109.824 332.064 108.756 334.064 111.52C334.812 112.568 335.428 112.896 336.04 113.008C334.8 112 333.88 111.832 333.532 109.004Z" fill="#CECECE"/>
</g>
</g>
<path d="M478.676 -37.8678C478.676 -37.8678 497.172 -27.8998 500.152 -24.0958C503.132 -20.2918 503.492 90.392 497.456 104.304H420.064C420.064 104.304 413.4 84.468 416.372 -21.8318C416.372 -21.8198 445.524 -43.46 478.676 -37.8678Z" fill="#4F4F4F"/>
<g style="mix-blend-mode:multiply">
<g style="mix-blend-mode:multiply">
<path d="M422.06 37.9405C421.816 21.3925 421.916 0.440502 422.62 -25.9795C420.472 -24.7532 418.384 -23.4182 416.372 -21.9795C413.4 84.3206 420.064 104.157 420.064 104.157H497.456C498.072 102.741 498.62 100.321 499.104 97.1126H482.08C466.308 97.1122 451.172 90.9042 439.94 79.8318C428.708 68.759 422.284 53.7106 422.06 37.9405Z" fill="#CECECE"/>
</g>
</g>
<path d="M331.918 95.21L328.967 98.4732L344.606 112.619L347.558 109.356L331.918 95.21Z" fill="#515151"/>
<path d="M337.08 112.688C337.08 112.688 344.128 105.576 342.052 103.888C340.82 102.876 335.392 106.78 332.748 109.988C332.748 109.988 341.948 101.824 339.548 99.6443C337.148 97.4643 329.652 104.444 329.652 104.444C329.652 104.444 338.592 98.5643 336.516 96.1803C334.516 93.8683 327.932 99.3803 327.932 99.3803" fill="white"/>
<path d="M337.507 113.113L336.651 112.269C338.699 110.201 341.915 106.321 341.851 104.713C341.855 104.642 341.843 104.571 341.815 104.506C341.788 104.441 341.745 104.383 341.691 104.337C341.251 104.017 338.891 105.225 336.491 107.169C334.959 108.817 333.499 110.129 333.167 110.421L332.283 109.601C333.259 108.467 334.33 107.417 335.483 106.465C337.411 104.413 339.327 102.001 339.335 100.625C339.345 100.525 339.331 100.425 339.295 100.332C339.258 100.239 339.201 100.155 339.127 100.089C338.359 99.3966 336.507 100.141 334.507 101.413C333.083 102.698 331.564 103.875 329.963 104.933L329.231 104.001C330.668 102.676 332.212 101.472 333.847 100.401C335.083 99.2486 336.083 98.0606 336.207 97.1726C336.228 97.0678 336.225 96.9598 336.198 96.8562C336.171 96.753 336.121 96.6574 336.051 96.5766C334.823 95.1646 330.303 98.1766 328.307 99.8526L327.535 98.9366C328.251 98.3326 334.619 93.1086 336.955 95.7886C337.138 95.9986 337.272 96.2458 337.348 96.5134C337.424 96.781 337.44 97.0618 337.395 97.3366C337.286 97.9222 337.05 98.4766 336.703 98.9606C337.975 98.5246 339.139 98.4926 339.935 99.2086C340.133 99.3898 340.289 99.6114 340.394 99.8586C340.498 100.106 340.547 100.372 340.539 100.641C340.539 101.561 339.971 102.721 339.155 103.917C340.543 103.181 341.759 102.881 342.435 103.433C342.617 103.586 342.764 103.776 342.867 103.991C342.97 104.205 343.026 104.439 343.031 104.677C343.167 107.313 338.087 112.529 337.507 113.113Z" fill="#1D1D1B"/>
<path d="M341.32 114.056C341.32 114.056 347.16 109.704 344.436 107.528C342.88 106.28 337.456 112.688 337.456 112.688" fill="white"/>
<path d="M341.676 114.536L340.96 113.572C341.952 112.836 344.532 110.564 344.56 108.976C344.564 108.784 344.521 108.594 344.434 108.423C344.346 108.252 344.218 108.105 344.06 107.996C343.552 107.596 340.756 109.72 337.916 113.076L337 112.3C338.744 110.24 343 105.6 344.812 107.06C345.112 107.285 345.354 107.578 345.519 107.914C345.684 108.251 345.766 108.622 345.76 108.996C345.716 111.456 342.092 114.228 341.676 114.536Z" fill="#1D1D1B"/>
<path d="M327.92 98.54C327.92 98.54 333.12 95.576 336.948 91.084L327.92 98.54Z" fill="white"/>
<path d="M328.216 99.0598L327.624 98.0198C327.676 97.9878 332.792 95.0518 336.488 90.6958L337.404 91.4718C333.568 95.9998 328.432 98.9358 328.216 99.0598Z" fill="#1D1D1B"/>
<path d="M174.368 230.4C174.368 230.4 200.24 224 201.08 243.068C201.92 262.136 193.528 278.344 191.568 289.816C189.608 301.288 188.4 320.296 187.752 325.6C187.104 330.904 176.744 366.8 169.752 367.372C162.76 367.944 146.832 369.68 146.812 364.572C146.78 356.04 155.212 355.9 160.812 356.172C166.412 356.444 172.868 331.464 173.972 321.372C175.076 311.28 173.12 272.972 170.6 258.172C168.08 243.372 168.308 231.292 174.368 230.4Z" fill="#E2D9D4"/>
<path d="M350.944 294.48C337.036 286.196 326.48 267.808 325.808 239.04L325.692 238.928C325.692 238.928 289.964 251.376 290.052 252.348C293.524 290.748 334.452 305.696 340.132 310.96C347.684 317.952 356.076 336.692 356.076 341.724C356.076 346.756 352.508 347.2 352.508 347.2C346.724 347.392 344.668 349.6 344.152 351.956C343.484 355.008 345.912 357.888 349.028 358.132C355.296 358.632 365.536 359.476 368.872 355.804C371.784 352.604 365.708 324.496 361.712 309.352C360.1 303.2 356.4 297.72 350.944 294.48Z" fill="#919191"/>
<path d="M357.788 358.972C354.78 358.972 351.704 358.728 349.132 358.524H348.996C348.155 358.458 347.337 358.213 346.599 357.804C345.861 357.396 345.219 356.834 344.716 356.156C344.257 355.552 343.933 354.856 343.768 354.115C343.603 353.374 343.601 352.606 343.76 351.864C344.24 349.664 346.16 347 352.496 346.792C352.592 346.792 355.696 346.332 355.696 341.736C355.696 337.02 347.424 318.248 339.88 311.264C338.832 310.296 336.436 308.92 333.4 307.176C320.124 299.576 292.504 283.712 289.672 252.396C289.632 251.928 289.588 251.484 307.72 244.908C316.544 241.708 325.488 238.592 325.58 238.56L325.812 238.48L326.212 238.88V239.044C326.82 264.984 335.908 285.068 351.152 294.148C356.484 297.324 360.376 302.684 362.104 309.244C365 320.22 372.504 352.388 369.172 356.044C367.064 358.368 362.516 358.972 357.788 358.972ZM290.464 252.48C293.344 283.28 320.644 298.936 333.776 306.48C336.976 308.316 339.288 309.644 340.404 310.672C348.24 317.928 356.476 336.78 356.476 341.732C356.476 347.064 352.596 347.58 352.556 347.584C347.836 347.744 345.152 349.236 344.556 352.028C344.418 352.658 344.418 353.31 344.556 353.94C344.694 354.57 344.967 355.162 345.356 355.676C345.791 356.262 346.346 356.747 346.984 357.101C347.623 357.454 348.329 357.666 349.056 357.724H349.192C355.252 358.204 365.392 359.008 368.572 355.508C371.168 352.656 365.772 326.328 361.324 309.432C359.648 303.076 355.888 297.888 350.732 294.82C343.46 290.488 337.344 283.5 333.048 274.612C328.344 264.88 325.776 253.048 325.412 239.44C312 244.124 292.204 251.256 290.464 252.48Z" fill="black"/>
<path d="M174.024 235.088C174.024 235.088 194.8 218.4 203.6 235.312C212.4 252.224 211.624 270.488 214.684 281.712C217.744 292.936 224.684 310.692 226.32 315.788C227.956 320.884 233.712 357.788 227.608 361.256C221.504 364.724 207.784 373.012 205.6 368.4C202.036 360.8 209.556 357 214.744 354.892C219.932 352.784 215.26 327.404 212.016 317.808C208.772 308.212 190.856 274.276 182.32 261.896C173.784 249.516 168.908 238.46 174.024 235.088Z" fill="#8E8E8E"/>
<path d="M208.283 370.152C207.815 370.16 207.349 370.096 206.899 369.964C206.541 369.863 206.209 369.685 205.925 369.444C205.641 369.202 205.413 368.902 205.255 368.564C204.163 366.236 203.999 364.06 204.767 362.096C206.251 358.312 210.807 356.056 214.611 354.496C216.651 353.668 217.219 348.096 216.163 339.18C215.211 331.18 213.175 322.408 211.651 317.908C208.327 308.092 190.311 274.192 181.999 262.12C176.663 254.38 170.543 243.924 171.683 238.064C171.791 237.399 172.034 236.764 172.397 236.197C172.76 235.63 173.236 235.144 173.795 234.768C174.439 234.252 185.395 225.64 194.827 227.628C198.719 228.428 201.787 230.968 203.951 235.128C209.887 246.556 211.515 258.788 212.827 268.62C213.463 273.42 214.067 277.944 215.067 281.608C217.167 289.308 221.067 299.968 223.867 307.752C225.155 311.28 226.167 314.068 226.667 315.668C228.159 320.236 234.399 357.876 227.791 361.6L226.343 362.428C221.163 365.396 212.843 370.152 208.283 370.152ZM191.915 228.152C183.423 228.152 174.371 235.352 174.271 235.416L174.243 235.44C173.767 235.756 173.363 236.169 173.056 236.651C172.75 237.134 172.548 237.675 172.463 238.24C171.603 242.664 175.123 250.772 182.651 261.692C190.991 273.796 209.051 307.82 212.411 317.692C215.267 326.14 220.703 352.928 214.911 355.292C211.255 356.776 206.883 358.924 205.511 362.424C204.827 364.176 204.983 366.14 205.979 368.26C206.091 368.498 206.252 368.709 206.453 368.879C206.655 369.048 206.89 369.171 207.143 369.24C210.847 370.408 220.671 364.792 225.943 361.772L227.395 360.944C233.139 357.696 227.691 321.432 225.923 315.948C225.411 314.348 224.399 311.584 223.123 308.06C220.287 300.264 216.399 289.588 214.291 281.852C213.279 278.14 212.671 273.584 212.027 268.76C210.727 258.992 209.107 246.836 203.227 235.532C201.183 231.596 198.299 229.212 194.655 228.444C193.755 228.248 192.837 228.144 191.915 228.136V228.152Z" fill="black"/>
<path d="M330.239 254.716C330.239 254.716 307.355 245.6 298.683 249.776C290.011 253.952 215.859 288.924 178.371 262.632C140.883 236.34 153.599 214.4 150.615 191.788C147.631 169.176 170.307 189.788 171.147 191.788C171.987 193.788 273.251 213.076 296.471 220.072C319.691 227.068 329.959 253.04 330.239 254.716Z" fill="#919191"/>
<path d="M214.584 272.745C213.632 272.745 212.689 272.731 211.756 272.705C198.112 272.305 186.804 269.033 178.156 262.957C149.4 242.785 149.996 225.025 150.556 207.849C150.732 202.605 150.916 197.181 150.216 191.849C149.384 185.497 150.484 181.849 153.492 181.049C159.388 179.449 170.552 189.805 171.492 191.569C173.028 192.645 198.028 197.897 222.212 202.973C251.412 209.105 284.516 216.056 296.612 219.692C319.464 226.576 330.24 252.125 330.66 254.657L330.78 255.357L330.12 255.092C329.892 255.004 307.3 246.068 298.884 250.14C293.232 252.876 272.956 262.253 249.456 268.033C236.676 271.161 224.972 272.745 214.584 272.745ZM154.856 181.673C154.467 181.668 154.08 181.717 153.704 181.817C151.148 182.509 150.24 185.845 151.012 191.737C151.72 197.145 151.536 202.597 151.36 207.873C150.8 224.837 150.2 242.401 178.604 262.305C194.232 273.265 217.996 274.933 249.236 267.249C272.66 261.493 292.872 252.144 298.508 249.416C306.44 245.58 325.492 252.473 329.62 254.049C328.864 251.917 326.224 245.941 321.62 239.625C316.72 232.877 308.356 224.073 296.344 220.453C284.332 216.833 251.216 209.881 222.024 203.753C208.588 200.929 195.892 198.265 186.572 196.201C171.12 192.773 170.924 192.313 170.768 191.945C170.376 190.989 160.628 181.673 154.856 181.673Z" fill="black"/>
<path d="M187.247 176.512C187.247 176.512 188.127 191.312 151.227 196.564C151.227 196.564 144.655 236.728 169.831 256.652C194.035 275.804 216.179 273.96 235.863 270.984C264.383 266.672 275.063 259.116 275.063 259.116C275.063 259.116 289.063 236.072 295.011 228.588C300.959 221.104 309.455 218.8 313.599 211.3C317.743 203.8 316.899 199.492 316.899 199.492C316.899 199.492 291.667 197.092 261.475 204.332C234.635 210.752 201.079 195.3 187.247 176.512Z" fill="#841717"/>
<path d="M215.348 273.025C200.928 273.025 185.748 269.513 169.708 256.809C156.652 246.477 152.268 230.633 150.908 219.161C150.004 211.642 150.052 204.039 151.048 196.533L151.072 196.385H151.216C170.18 193.685 178.92 188.421 182.916 184.481C187.22 180.237 187.068 176.581 187.068 176.545L187.028 175.873L187.428 176.413C198.8 191.865 224.628 205.613 248.584 205.613C252.908 205.633 257.221 205.145 261.432 204.157C291.308 197.009 316.668 199.293 316.92 199.317H317.068L317.096 199.465C317.132 199.645 317.896 203.945 313.776 211.405C311.516 215.505 307.98 218.045 304.24 220.741C301.112 222.989 297.876 225.317 295.18 228.721C289.32 236.109 275.384 258.997 275.244 259.229L275.188 259.289C275.08 259.361 264.152 266.921 235.908 271.193C229.2 272.193 222.368 273.025 215.348 273.025ZM151.404 196.741C150.442 204.174 150.405 211.698 151.292 219.141C152.66 230.533 157.008 246.265 169.956 256.513C193.7 275.313 215.52 273.873 235.832 270.805C263.196 266.669 274.232 259.453 274.908 258.993C275.548 257.941 289.084 235.749 294.848 228.481C297.584 225.033 300.848 222.689 303.988 220.421C307.692 217.757 311.188 215.221 313.408 211.221C317.028 204.657 316.8 200.513 316.708 199.697C314.52 199.513 290.088 197.697 261.508 204.545C248.992 207.537 234.04 205.953 219.408 200.077C206.028 194.705 194.412 186.353 187.428 177.101C187.308 178.329 186.652 181.317 183.216 184.725C179.2 188.693 170.42 194.001 151.404 196.741Z" fill="black"/>
<path d="M174.368 230.4C174.368 230.4 200.24 224 201.08 243.068C201.92 262.136 193.528 278.344 191.568 289.816C189.608 301.288 188.4 320.296 187.752 325.6C187.104 330.904 176.744 366.8 169.752 367.372C162.76 367.944 146.832 369.68 146.812 364.572C146.78 356.04 155.212 355.9 160.812 356.172C166.412 356.444 172.868 331.464 173.972 321.372C175.076 311.28 173.12 272.972 170.6 258.172C168.08 243.372 168.308 231.292 174.368 230.4Z" fill="white"/>
<path d="M157.199 368.524C152.899 368.524 148.979 368.08 147.311 366.556C147.03 366.311 146.804 366.008 146.649 365.669C146.494 365.33 146.413 364.961 146.411 364.588C146.411 361.976 147.171 359.916 148.699 358.456C151.563 355.72 156.431 355.576 160.819 355.796H160.891C163.083 355.796 165.915 350.996 168.683 342.564C171.203 334.892 173.043 326.096 173.563 321.364C174.695 311.044 172.647 272.708 170.195 258.256C168.619 248.988 167.479 236.924 170.995 232.092C171.372 231.534 171.859 231.06 172.426 230.698C172.994 230.337 173.63 230.096 174.295 229.992C175.095 229.796 188.655 226.604 196.379 232.392C199.579 234.792 201.283 238.356 201.487 243.04C202.055 255.904 198.375 267.688 195.415 277.152C193.971 281.772 192.615 286.132 191.971 289.872C190.627 297.74 189.655 309.04 188.943 317.288C188.619 321.036 188.363 323.992 188.143 325.66C187.555 330.424 177.323 367.18 169.779 367.784L168.115 367.92C165.031 368.184 160.967 368.524 157.199 368.524ZM158.267 356.524C154.811 356.524 151.379 357.004 149.251 359.036C147.891 360.336 147.203 362.204 147.211 364.584C147.211 364.847 147.268 365.107 147.378 365.345C147.489 365.584 147.65 365.795 147.851 365.964C150.719 368.588 161.995 367.636 168.051 367.124L169.719 366.984C176.299 366.46 186.647 331.28 187.355 325.564C187.559 323.908 187.815 320.956 188.135 317.22C188.851 308.956 189.827 297.62 191.175 289.74C191.823 285.944 193.175 281.556 194.643 276.912C197.583 267.508 201.239 255.8 200.679 243.076C200.487 238.644 198.875 235.264 195.879 233.036C188.391 227.436 174.583 230.748 174.443 230.78H174.407C173.842 230.866 173.302 231.068 172.82 231.374C172.337 231.681 171.924 232.085 171.607 232.56C168.963 236.208 168.739 245.048 170.959 258.12C173.419 272.616 175.471 311.088 174.335 321.452C173.367 330.252 167.067 356.588 160.863 356.588H160.799C159.951 356.552 159.111 356.524 158.267 356.524Z" fill="black"/>
<path d="M316.647 198.736C316.647 198.736 337.759 199.716 346.779 204.124C355.799 208.532 372.399 219.28 379.639 235.6C389.787 258.536 402.796 266.296 413.496 270.284C424.196 274.272 402.796 280.984 386.223 263.36C369.651 245.736 372.587 222.24 339.227 216.364C339.227 216.368 313.291 200.4 316.647 198.736Z" fill="white"/>
<path d="M410.244 275.32C403.992 275.32 394.244 272.488 385.932 263.64C380.392 257.748 377.028 251.24 373.776 244.92C367.336 232.44 361.252 220.652 339.16 216.764H339.084L339.02 216.724C335.144 214.324 315.82 202.288 315.952 199.164C315.958 199.001 316.01 198.841 316.102 198.706C316.193 198.57 316.322 198.463 316.472 198.396L316.564 198.348H316.668C317.532 198.388 337.964 199.384 346.956 203.776C352.652 206.556 371.864 217.06 380.004 235.452C390.312 258.74 403.392 266.108 413.636 269.924C416.212 270.884 416.764 271.924 416.772 272.624C416.772 273.424 416.128 274.116 414.924 274.6C413.42 275.127 411.836 275.372 410.244 275.32ZM339.372 216C361.796 219.972 367.96 231.92 374.484 244.568C377.716 250.824 381.052 257.296 386.516 263.104C397.168 274.428 410.08 275.696 414.624 273.86C415.488 273.512 415.98 273.06 415.972 272.632C415.972 272.016 414.988 271.28 413.356 270.676C402.956 266.804 389.7 259.336 379.272 235.776C372.892 221.376 358.212 210.176 346.604 204.492C338.128 200.352 318.552 199.248 316.76 199.156C316.755 199.169 316.755 199.183 316.76 199.196C316.66 201.228 330.548 210.556 339.372 216Z" fill="black"/>
<path d="M375.84 301.164C374.892 297.708 372.396 294.996 369.184 293.412C354.32 286.08 353.26 278.84 352.124 249.384C350.864 216.656 323.172 197.352 302.612 195.676C287.088 194.408 272.52 200.628 252.868 202.976C246.492 203.736 223.996 199.5 216.012 194.672C207.212 189.36 198.284 182.444 192.104 175.956C191.508 174.949 190.84 173.986 190.104 173.076C190.104 173.076 176.34 153.076 165.264 138.308C154.188 123.54 155.092 117.568 125.664 121.908C125.664 121.908 115.683 126.004 114.643 128.428C113.603 130.852 111.516 134.648 106 135.8C100.484 136.952 82.6875 139.96 82.6875 143C82.6875 146.04 85.1115 163 118.808 162.784C118.808 162.784 127.808 160.016 131.268 163.708C132.68 165.216 136.64 171.34 141.268 178.816C147.348 188.664 151.312 199.736 152.416 211.256C152.416 211.324 152.416 211.396 152.416 211.464C154.652 235.24 162.764 246.432 180.108 259.02C197.452 271.608 214.632 271.056 260.672 262.376L294.444 256.008C295.056 314.428 351.876 298.092 356.628 304.328C361.38 310.564 382.336 345.2 382.336 350.252C382.336 355.304 378.768 355.704 378.768 355.704C373.592 355.876 371.404 357.66 370.632 359.704C369.432 362.904 371.916 366.356 375.336 366.628C381.608 367.124 391.804 367.952 395.136 364.292C398.468 360.632 379.48 314.492 375.84 301.164Z" fill="white"/>
<path d="M384.052 367.497C381.04 367.497 377.96 367.253 375.388 367.049H375.304C374.393 366.971 373.513 366.684 372.732 366.21C371.951 365.736 371.289 365.088 370.8 364.317C370.348 363.627 370.064 362.842 369.969 362.023C369.875 361.204 369.973 360.375 370.256 359.601C371.26 356.917 374.12 355.477 378.756 355.325C378.852 355.325 381.956 354.869 381.956 350.273C381.956 345.429 361.42 311.289 356.324 304.605C355.28 303.237 350.952 303.053 345.472 302.821C327.732 302.061 294.76 300.645 294.06 256.529L260.74 262.801C214.64 271.493 197.472 272.153 179.864 259.377C170.296 252.429 164.428 246.541 160.264 239.677C155.752 232.281 153.136 223.337 152.024 211.533V211.325C150.964 200.245 147.128 189.089 140.936 179.061C135.676 170.545 132.24 165.345 130.992 164.017C127.744 160.549 119.028 163.173 118.94 163.217H118.824C104.228 163.305 93.7077 160.269 87.5477 154.149C82.5557 149.193 82.3037 144.017 82.3037 143.033C82.3037 140.553 90.3037 138.493 103.164 135.977C104.252 135.765 105.2 135.577 105.932 135.425C111.152 134.337 113.208 130.825 114.3 128.273C115.392 125.721 124.5 121.969 125.536 121.541L125.632 121.517C151.324 117.737 154.144 121.785 161.676 132.597C162.816 134.237 164.112 136.097 165.604 138.085C176.56 152.693 190.316 172.665 190.452 172.865C191.187 173.77 191.855 174.727 192.452 175.729C198.424 181.989 207.312 188.929 216.248 194.349C224.088 199.089 246.508 203.353 252.848 202.597C260.556 201.673 267.392 200.177 274 198.725C284.3 196.469 293.2 194.517 302.672 195.293C313.664 196.189 325.716 201.917 334.908 210.613C342.556 217.845 351.824 230.441 352.552 249.385C353.092 263.413 353.616 273.093 355.908 279.577C358.044 285.621 361.696 289.277 369.388 293.069C372.872 294.789 375.312 297.633 376.252 301.069C377.452 305.505 380.452 313.793 383.62 322.573C391.94 345.645 397.66 362.173 395.46 364.573C393.324 366.893 388.776 367.497 384.052 367.497ZM294.828 255.545V256.021C295.024 274.993 301.34 288.161 313.596 295.157C324 301.081 336.4 301.601 345.488 302.001C351.4 302.253 355.668 302.437 356.94 304.101C361.396 309.941 382.736 344.869 382.736 350.253C382.736 355.637 378.856 356.101 378.816 356.105C374.504 356.245 371.884 357.509 371.004 359.861C370.76 360.521 370.674 361.23 370.754 361.929C370.834 362.629 371.077 363.3 371.464 363.889C371.889 364.555 372.463 365.115 373.14 365.523C373.817 365.932 374.579 366.179 375.368 366.245H375.448C381.512 366.725 391.656 367.533 394.84 364.033C396.888 361.777 388.768 339.265 382.84 322.833C379.528 313.661 376.672 305.737 375.452 301.273C374.572 298.073 372.284 295.385 369.004 293.769C353.76 286.253 352.84 278.365 351.724 249.401C350.428 215.653 321.632 197.629 302.58 196.073C293.22 195.309 284.38 197.249 274.144 199.493C267.516 200.945 260.66 202.449 252.916 203.373C246.484 204.137 223.752 199.821 215.804 195.017C206.8 189.569 197.832 182.549 191.804 176.217L191.752 176.149C191.155 175.155 190.487 174.208 189.752 173.313C189.592 173.085 175.844 153.129 164.9 138.533C163.4 136.533 162.1 134.669 160.952 133.021C153.636 122.513 150.892 118.573 125.732 122.269C122.964 123.409 115.768 126.705 114.972 128.557C113.808 131.269 111.616 135.013 106.032 136.177C105.296 136.329 104.348 136.517 103.252 136.729C97.7237 137.809 83.0397 140.681 83.0397 143.001C83.0397 143.569 83.1797 148.717 88.0477 153.549C94.0477 159.505 104.356 162.485 118.7 162.389C119.552 162.133 128.032 159.721 131.5 163.437C133.1 165.165 137.852 172.637 141.54 178.609C147.796 188.741 151.672 200.017 152.74 211.217L152.76 211.429C155.092 236.185 163.86 246.769 180.292 258.697C197.656 271.301 214.692 270.625 260.548 261.985L294.828 255.545Z" fill="black"/>
<g style="mix-blend-mode:multiply">
<g style="mix-blend-mode:multiply">
<path d="M161.459 154.8C161.707 151.664 160.431 141.408 159.951 138.308C159.403 132.708 156.775 147.044 155.367 141.556C153.367 133.804 144.827 134.536 139.267 130.756C137.559 129.588 135.891 128.376 134.243 127.156C134.643 129.392 132.835 126.336 133.251 128.528C136.111 143.728 132.667 155.424 140.175 166.66C140.975 167.836 144.575 172.856 148.387 175.396C152.319 178 159.999 164.4 161.459 154.8Z" fill="#CECECE"/>
</g>
</g>
<path d="M87.228 153.201C89.056 152.877 90.944 150.912 91.828 149.08C93.624 145.336 93.724 141.336 92.128 138.708C87.044 139.98 82.668 141.485 82.668 143.001C82.668 144.441 83.236 148.897 87.228 153.201Z" fill="#080D0F"/>
<path d="M130.995 125.6C130.995 125.6 130.279 122.56 137.919 125.6C145.559 128.64 151.119 131.352 157.027 133.1C162.935 134.848 163.711 144.984 161.007 151.54C158.303 158.096 152.407 167.06 151.135 171.256C149.863 175.452 149.063 174.496 145.719 170.516C142.375 166.536 138.611 158.336 139.063 150.176C139.515 142.016 134.895 129.084 130.995 125.6Z" fill="#707070"/>
<path d="M149.431 174.4C148.451 174.4 147.391 173.144 145.431 170.8C141.851 166.54 138.231 158.276 138.667 150.168C139.103 142.06 134.427 129.212 130.731 125.912L130.639 125.828L130.607 125.704C130.556 125.457 130.572 125.201 130.653 124.962C130.734 124.723 130.877 124.509 131.067 124.344C132.075 123.472 134.367 123.768 138.071 125.24C140.599 126.248 142.871 127.2 145.055 128.124C149.435 129.968 153.219 131.564 157.143 132.728C159.007 133.284 160.523 134.684 161.523 136.784C163.423 140.764 163.363 146.9 161.379 151.704C160.063 154.904 158.047 158.564 156.095 162.104C154.075 165.776 152.167 169.244 151.523 171.376C150.999 173.092 150.507 174.176 149.663 174.368C149.587 174.385 149.509 174.395 149.431 174.4ZM131.375 125.404C135.251 129.036 139.923 141.804 139.463 150.204C139.027 158.096 142.559 166.136 146.027 170.264C147.711 172.264 148.915 173.708 149.499 173.584C150.083 173.46 150.579 171.72 150.751 171.144C151.423 168.932 153.351 165.428 155.387 161.72C157.331 158.188 159.339 154.52 160.635 151.392C162.511 146.852 162.575 140.852 160.795 137.12C159.883 135.204 158.575 133.984 156.911 133.488C152.943 132.308 149.143 130.708 144.739 128.852C142.551 127.932 140.291 126.98 137.771 125.976C133.231 124.168 131.939 124.644 131.595 124.936C131.526 124.993 131.47 125.064 131.432 125.145C131.394 125.226 131.374 125.315 131.375 125.404Z" fill="black"/>
<g style="mix-blend-mode:multiply" opacity="0.55">
<g style="mix-blend-mode:multiply" opacity="0.55">
<path d="M146.511 152.196C142.587 151.24 140.431 148.216 138.735 144.628C139.026 146.461 139.135 148.318 139.063 150.172C138.611 158.332 142.379 166.532 145.723 170.512C149.067 174.492 149.859 175.448 151.135 171.252C152.411 167.056 158.299 158.092 161.007 151.536C161.809 149.49 162.279 147.33 162.399 145.136C158.911 150.308 152.775 153.716 146.511 152.196Z" fill="black"/>
</g>
</g>
<path d="M118.42 137.404C119.165 136.333 119.551 135.053 119.524 133.748C119.523 133.128 119.441 132.511 119.28 131.912C117.956 131.132 116.7 130.732 115.928 131.312C114.788 132.168 113.74 135.064 114.544 136.316C114.992 137.016 116.376 137.408 118.42 137.404Z" fill="black"/>
<path d="M112.876 159.013C100.988 161.813 88.4559 154.417 88.2959 154.325C90.6959 156.549 94.0839 158.665 98.8999 160.229C104.8 160.937 111.2 160.801 112.64 161.489C115.488 162.841 117.6 160.881 116.264 159.089C114.8 157.201 112.876 159.013 112.876 159.013Z" fill="#14192C"/>
<path d="M190.087 173.076C190.087 173.076 188.951 198.38 152.051 203.636C152.051 203.636 149.115 233.272 172.671 253.236C196.227 273.2 219.599 270.116 239.147 266.456C258.695 262.796 275.055 259.116 275.055 259.116C275.055 259.116 270.015 239.084 274.255 230.52C278.807 221.28 287.579 214.648 288.347 206.12C289.571 192.52 272.999 199.26 272.999 199.26C272.999 199.26 269.531 200.592 255.063 201.728C228.743 203.804 203.919 191.864 190.087 173.076Z" fill="#F1443D"/>
<path d="M215.42 269.32C201.472 269.32 187.1 265.692 172.544 253.368C160.332 243.032 155.344 230.056 153.344 220.992C151.152 211.172 151.856 203.692 151.864 203.62V203.464L152.016 203.44C170.992 200.736 180.276 192.62 184.724 186.292C189.524 179.432 189.876 173.128 189.88 173.068L189.908 172.5L190.24 172.956C203.396 190.828 226.116 201.756 249.32 201.756C251.221 201.756 253.124 201.681 255.028 201.532C269.264 200.416 272.868 199.092 272.904 199.076C273.26 198.932 281.736 195.54 286.104 198.772C288.02 200.192 288.832 202.668 288.504 206.14C288.036 211.34 284.624 215.828 281.016 220.588C278.64 223.716 276.188 226.948 274.388 230.588C270.248 238.988 275.188 258.848 275.22 259.048L275.272 259.244L275.072 259.288C274.908 259.328 258.504 263.012 239.156 266.632C231.44 268.1 223.5 269.32 215.42 269.32ZM152.24 203.812C151.935 209.556 152.436 215.315 153.728 220.92C155.728 229.92 160.68 242.8 172.8 253.064C195.656 272.416 218.092 270.192 239.112 266.264C257.3 262.86 272.884 259.4 274.812 258.968C274.268 256.74 270.012 238.612 274.06 230.436C275.872 226.756 278.34 223.504 280.724 220.36C284.3 215.652 287.676 211.2 288.132 206.12C288.432 202.8 287.672 200.44 285.876 199.112C281.684 196.008 273.144 199.432 273.076 199.464C272.928 199.524 269.412 200.824 255.076 201.948C242.305 202.935 229.493 200.688 217.82 195.416C206.684 190.376 197.164 182.848 190.252 173.62C190.06 175.296 189.148 180.708 185.084 186.504C180.596 192.888 171.264 201.064 152.24 203.812Z" fill="black"/>
<path d="M499.911 149.441C497.359 129.661 483.831 118.213 482.375 117.541C482.543 117.598 482.727 117.596 482.891 117.533C483.059 117.47 483.199 117.351 483.287 117.197L481.903 116.397C481.991 116.244 482.123 116.123 482.283 116.051C482.443 115.979 482.623 115.96 482.795 115.997C483.595 116.161 487.595 119.393 491.651 124.921C496.931 132.065 500.319 140.428 501.499 149.233L499.911 149.441Z" fill="black"/>
<path d="M150.579 213.132C150.579 213.132 194.979 214.576 219.043 195.28L227.707 198.712C227.707 198.712 197.663 220.384 151.535 222.312L150.579 213.132Z" fill="black"/>
<path d="M151.355 222.516L150.355 212.916H150.587C151.031 212.916 195.195 214.116 218.915 195.108L219.007 195.036L228.119 198.636L227.823 198.852C227.523 199.068 197.203 220.58 151.543 222.484L151.355 222.516ZM150.799 213.336L151.707 222.1C194.703 220.252 224.011 201.004 227.283 198.764L219.071 195.508C196.107 213.84 154.283 213.408 150.799 213.336Z" fill="black"/>
<path d="M199.999 183.409C199.999 183.409 186.399 248.821 202.623 271.809L210.123 272.677C210.123 272.677 192.215 244.745 205.391 187.369L199.999 183.409Z" fill="black"/>
<path d="M210.516 272.932L202.516 272.004L202.464 271.932C194.064 260.004 193.788 236.548 195.04 218.972C195.929 207.022 197.522 195.135 199.808 183.372L199.872 183.064L205.6 187.292L205.572 187.42C198.772 217.02 200.42 238.588 202.992 251.48C205.792 265.444 210.232 272.504 210.276 272.576L210.516 272.932ZM202.732 271.628L209.74 272.428C208.816 270.828 205.072 263.856 202.616 251.572C200.036 238.656 198.384 217.052 205.164 187.448L200.132 183.74C199.156 188.64 187.404 249.704 202.732 271.628Z" fill="black"/>
<path d="M213.354 195.513L172.228 206.31C167.68 207.504 164.962 212.157 166.156 216.704L167.318 221.13C168.512 225.677 173.165 228.395 177.712 227.202L218.839 216.405C223.386 215.211 226.104 210.557 224.91 206.011L223.748 201.585C222.554 197.038 217.901 194.319 213.354 195.513Z" fill="black"/>
<path d="M175.536 227.692C173.615 227.685 171.75 227.043 170.231 225.867C168.712 224.691 167.624 223.046 167.136 221.188L165.96 216.76C165.374 214.526 165.699 212.15 166.865 210.155C168.031 208.161 169.941 206.711 172.176 206.124L213.304 195.324C215.538 194.738 217.913 195.063 219.908 196.229C221.902 197.393 223.352 199.303 223.94 201.536L225.104 205.968C225.686 208.203 225.359 210.577 224.194 212.571C223.029 214.565 221.121 216.015 218.887 216.604L177.76 227.404C177.033 227.595 176.286 227.691 175.536 227.692ZM215.536 195.436C214.819 195.437 214.105 195.53 213.412 195.712L172.284 206.512C170.152 207.073 168.33 208.458 167.218 210.361C166.107 212.265 165.796 214.532 166.356 216.664L167.52 221.092C167.796 222.148 168.278 223.139 168.937 224.009C169.597 224.879 170.422 225.61 171.365 226.16C172.307 226.711 173.349 227.07 174.431 227.218C175.512 227.365 176.612 227.298 177.668 227.02L218.796 216.22C220.926 215.659 222.747 214.275 223.858 212.372C224.969 210.469 225.281 208.204 224.724 206.072L223.56 201.644C223.094 199.869 222.055 198.299 220.603 197.176C219.152 196.053 217.371 195.441 215.536 195.436Z" fill="black"/>
<path d="M177.323 214C176.832 214.028 176.34 213.98 175.863 213.856L176.187 212.048C176.58 212.146 176.983 212.195 177.387 212.196C177.792 212.202 178.196 212.154 178.587 212.052C178.823 212.004 179.048 211.913 179.251 211.784C179.305 211.75 179.346 211.701 179.369 211.643C179.393 211.585 179.398 211.521 179.383 211.46C179.347 211.324 179.231 211.244 179.035 211.224C178.72 211.2 178.403 211.2 178.087 211.224C177.616 211.256 177.143 211.256 176.671 211.224C176.288 211.196 175.917 211.073 175.591 210.868C175.237 210.628 174.99 210.259 174.903 209.84C174.795 209.436 174.819 209.009 174.971 208.62C175.153 208.183 175.457 207.808 175.847 207.54C176.352 207.185 176.919 206.93 177.519 206.788C177.987 206.665 178.465 206.592 178.947 206.568C179.388 206.544 179.829 206.582 180.259 206.68L179.987 208.464C179.315 208.313 178.616 208.313 177.943 208.464C177.347 208.62 177.087 208.836 177.143 209.112C177.179 209.244 177.291 209.32 177.487 209.336C177.796 209.361 178.107 209.361 178.415 209.336C178.883 209.293 179.354 209.285 179.823 209.312C180.211 209.339 180.587 209.458 180.919 209.66C181.097 209.776 181.249 209.926 181.367 210.101C181.486 210.276 181.569 210.473 181.611 210.68C181.716 211.077 181.692 211.497 181.543 211.88C181.358 212.315 181.055 212.689 180.667 212.96C180.164 213.318 179.597 213.575 178.995 213.716C178.45 213.872 177.889 213.967 177.323 214Z" fill="white"/>
<path d="M187.948 209.021L184.22 210C184.344 210.17 184.524 210.29 184.728 210.34C184.968 210.396 185.219 210.387 185.456 210.316C185.659 210.27 185.852 210.188 186.028 210.076C186.197 209.956 186.347 209.811 186.476 209.648L187.928 210.448C187.546 211.136 186.837 211.616 185.8 211.888C185.214 212.053 184.601 212.09 184 211.997C183.485 211.911 183.004 211.684 182.612 211.34C182.243 211 181.979 210.561 181.85 210.076C181.722 209.59 181.735 209.078 181.888 208.6C182.052 208.123 182.342 207.699 182.728 207.373C183.148 207.031 183.636 206.781 184.158 206.638C184.681 206.496 185.228 206.464 185.764 206.545C186.267 206.625 186.735 206.854 187.105 207.204C187.477 207.554 187.734 208.006 187.844 208.504C187.856 208.548 187.888 208.717 187.948 209.021ZM184.072 208.4C183.949 208.569 183.893 208.777 183.912 208.984L185.64 208.532C185.551 208.345 185.4 208.195 185.212 208.108C185.017 208.023 184.799 208.011 184.596 208.073C184.389 208.119 184.204 208.234 184.072 208.4Z" fill="white"/>
<path d="M191.691 204.668L192.183 206.544C192.015 206.562 191.847 206.592 191.683 206.636C190.923 206.836 190.643 207.304 190.835 208.04L191.435 210.32L189.199 210.9L187.855 205.772L189.963 205.22L190.107 205.772C190.276 205.484 190.505 205.237 190.778 205.046C191.052 204.856 191.363 204.727 191.691 204.668Z" fill="white"/>
<path d="M198.463 202.988L197.663 208.684L195.367 209.288L191.859 204.728L194.135 204.128L195.935 206.592L196.371 203.54L198.463 202.988Z" fill="white"/>
<path d="M198.763 202.144C198.624 202.08 198.501 201.986 198.403 201.868C198.305 201.751 198.234 201.613 198.196 201.465C198.158 201.317 198.153 201.162 198.182 201.012C198.211 200.862 198.273 200.72 198.363 200.596C198.596 200.326 198.905 200.132 199.249 200.04C199.594 199.947 199.958 199.96 200.295 200.076C200.434 200.132 200.557 200.221 200.655 200.334C200.752 200.448 200.821 200.583 200.855 200.728C200.9 200.88 200.909 201.04 200.883 201.196C200.857 201.352 200.795 201.5 200.703 201.628C200.487 201.92 200.171 202.122 199.815 202.196C199.47 202.306 199.096 202.288 198.763 202.144ZM198.807 202.9L201.023 202.316L202.371 207.444L200.155 208.028L198.807 202.9Z" fill="white"/>
<path d="M204.54 206.616C204.029 206.531 203.553 206.305 203.164 205.964C202.789 205.623 202.521 205.18 202.393 204.689C202.264 204.199 202.28 203.682 202.44 203.2C202.615 202.715 202.919 202.286 203.32 201.96C203.774 201.596 204.302 201.335 204.868 201.196C205.447 201.026 206.061 201.012 206.648 201.156C207.156 201.285 207.602 201.591 207.904 202.02L206.4 203.288C206.28 203.112 206.109 202.977 205.91 202.9C205.712 202.823 205.494 202.81 205.288 202.86C205.166 202.888 205.052 202.941 204.952 203.015C204.852 203.089 204.769 203.184 204.708 203.292C204.644 203.415 204.605 203.548 204.594 203.685C204.582 203.823 204.598 203.961 204.64 204.092C204.696 204.37 204.86 204.615 205.096 204.772C205.204 204.836 205.324 204.877 205.448 204.893C205.572 204.909 205.699 204.899 205.82 204.864C206.025 204.807 206.207 204.689 206.342 204.524C206.477 204.359 206.557 204.157 206.572 203.944L208.504 204.3C208.451 204.821 208.214 205.306 207.836 205.668C207.395 206.082 206.852 206.373 206.264 206.512C205.703 206.672 205.115 206.707 204.54 206.616Z" fill="white"/>
<path d="M214.472 202.052L210.744 203.028C210.869 203.199 211.05 203.321 211.256 203.372C211.497 203.428 211.748 203.418 211.984 203.344C212.186 203.298 212.378 203.217 212.552 203.104C212.723 202.985 212.875 202.84 213.004 202.676L214.452 203.476C214.076 204.164 213.364 204.644 212.324 204.916C211.741 205.085 211.127 205.121 210.528 205.024C210.013 204.94 209.533 204.714 209.14 204.372C208.771 204.031 208.508 203.592 208.38 203.107C208.251 202.622 208.264 202.11 208.416 201.632C208.58 201.154 208.87 200.73 209.256 200.404C209.675 200.06 210.162 199.809 210.685 199.666C211.209 199.524 211.756 199.493 212.292 199.576C212.795 199.656 213.262 199.886 213.633 200.234C214.003 200.583 214.261 201.035 214.372 201.532C214.4 201.576 214.4 201.744 214.472 202.052ZM210.6 201.436C210.478 201.603 210.421 201.81 210.44 202.016L212.164 201.564C212.076 201.378 211.926 201.228 211.74 201.14C211.543 201.066 211.327 201.054 211.123 201.107C210.919 201.16 210.736 201.275 210.6 201.436Z" fill="white"/>
<path d="M185.84 214.148L189.224 213.26C189.917 213.063 190.643 213.017 191.356 213.124C191.975 213.222 192.553 213.501 193.016 213.924C193.471 214.366 193.797 214.925 193.959 215.539C194.12 216.153 194.111 216.799 193.932 217.408C193.73 218.001 193.361 218.522 192.868 218.908C192.302 219.352 191.647 219.669 190.948 219.836L187.564 220.728L185.84 214.148ZM190.4 218.124C190.841 218.032 191.229 217.772 191.484 217.4C191.598 217.213 191.671 217.003 191.695 216.784C191.72 216.566 191.697 216.345 191.628 216.136C191.585 215.92 191.496 215.716 191.367 215.538C191.237 215.36 191.071 215.212 190.88 215.104C190.475 214.909 190.011 214.876 189.584 215.012L188.612 215.264L189.412 218.376L190.4 218.124Z" fill="white"/>
<path d="M196.764 218.029C196.258 217.939 195.786 217.712 195.4 217.373C195.031 217.031 194.768 216.591 194.64 216.105C194.513 215.619 194.527 215.107 194.68 214.629C194.848 214.144 195.147 213.716 195.544 213.393C195.987 213.029 196.505 212.77 197.06 212.633C197.615 212.479 198.197 212.45 198.764 212.549C199.268 212.636 199.737 212.862 200.12 213.201C200.486 213.545 200.748 213.985 200.875 214.471C201.003 214.957 200.991 215.469 200.84 215.949C200.681 216.436 200.391 216.869 200 217.201C199.555 217.556 199.04 217.815 198.489 217.96C197.938 218.105 197.363 218.134 196.8 218.045L196.764 218.029ZM198.58 215.869C198.683 215.611 198.7 215.326 198.628 215.058C198.556 214.789 198.399 214.552 198.18 214.381C198.076 214.319 197.961 214.28 197.841 214.263C197.721 214.247 197.6 214.255 197.483 214.285C197.366 214.316 197.257 214.37 197.161 214.443C197.065 214.517 196.985 214.608 196.924 214.713C196.803 214.962 196.784 215.249 196.872 215.513C196.927 215.787 197.085 216.03 197.312 216.193C197.415 216.259 197.53 216.302 197.651 216.32C197.771 216.338 197.895 216.33 198.012 216.297C198.132 216.271 198.245 216.219 198.343 216.146C198.442 216.072 198.523 215.977 198.58 215.869Z" fill="white"/>
<path d="M206.895 210.148L207.975 214.256C208.112 214.654 208.158 215.078 208.111 215.496C208.064 215.915 207.925 216.318 207.703 216.676C207.153 217.388 206.362 217.876 205.479 218.048C204.975 218.182 204.457 218.26 203.935 218.28C203.492 218.298 203.048 218.243 202.623 218.116L202.987 216.476C203.274 216.578 203.575 216.632 203.879 216.636C204.202 216.646 204.526 216.611 204.839 216.532C205.193 216.471 205.513 216.284 205.739 216.004C205.818 215.874 205.867 215.728 205.882 215.576C205.898 215.425 205.881 215.272 205.831 215.128L205.807 215.036C205.662 215.276 205.468 215.484 205.238 215.644C205.008 215.805 204.747 215.915 204.471 215.968C204.027 216.088 203.56 216.099 203.111 216C202.669 215.905 202.262 215.689 201.935 215.376C201.6 215.044 201.36 214.629 201.24 214.173C201.12 213.718 201.123 213.238 201.251 212.784C201.387 212.354 201.636 211.969 201.971 211.668C202.314 211.361 202.726 211.142 203.171 211.028C203.464 210.922 203.779 210.891 204.087 210.935C204.396 210.98 204.688 211.1 204.939 211.284L204.787 210.704L206.895 210.148ZM205.215 213.748C205.28 213.651 205.323 213.541 205.342 213.426C205.361 213.311 205.356 213.193 205.327 213.08C205.298 212.967 205.246 212.861 205.174 212.77C205.101 212.678 205.01 212.602 204.907 212.548C204.68 212.453 204.429 212.435 204.191 212.497C203.953 212.56 203.742 212.698 203.591 212.892C203.525 212.987 203.481 213.096 203.463 213.21C203.445 213.324 203.453 213.441 203.487 213.552C203.512 213.664 203.561 213.768 203.63 213.859C203.699 213.95 203.787 214.026 203.887 214.08C204.111 214.185 204.366 214.205 204.603 214.136C204.842 214.09 205.055 213.956 205.199 213.76L205.215 213.748Z" fill="white"/>
</g>
<defs>
<clipPath id="clip0">
<rect width="600" height="400" fill="white"/>
</clipPath>
</defs>
</svg>
