<svg width="600" height="400" viewBox="0 0 600 400" fill="none" xmlns="http://www.w3.org/2000/svg">
<path d="M411.752 375.812C388.124 377.36 376.116 376.908 375.704 374.368C375.356 372.288 382.904 368.792 398.372 363.936C398.344 358.336 398.32 352.736 398.288 347.136C397.924 342.892 400.332 338.996 404.044 337.672C405.632 337.138 407.34 337.07 408.964 337.477C410.588 337.884 412.064 338.748 413.212 339.968C412.724 351.928 412.24 363.848 411.752 375.812Z" fill="#191919"/>
<path d="M427.324 203.9C432.38 208.552 429.668 218.016 426.124 236.252C421.432 260.148 417.916 278.344 417.552 296.58C417.024 324.24 423.98 343.528 416.62 347.288C414.112 348.584 411.02 347.492 408.696 346.36C406.348 346.964 404.004 347.612 401.66 348.22C399.436 348.5 396.32 348.5 393.732 346.684C386.576 341.628 389.688 327.112 392.532 305.924C395.284 285.524 396.092 264.84 398.032 244.324C399.608 227.984 400.54 214.804 401.104 206.676C407.552 203.66 421.176 198.2 427.324 203.9Z" fill="white"/>
<path d="M399.6 348.756C397.2 348.756 395.16 348.172 393.508 347.008C387.008 342.42 388.644 330.8 391.108 313.208C391.436 310.86 391.78 308.408 392.12 305.868C393.856 292.992 394.832 279.796 395.776 267.032C396.332 259.576 396.9 251.864 397.616 244.3C399.236 227.524 400.185 213.956 400.689 206.664V206.428L400.901 206.328C408.249 202.884 421.485 197.952 427.584 203.608C432.205 207.86 430.609 215.796 427.713 230.2C427.313 232.124 426.913 234.164 426.513 236.328C421.933 259.656 418.317 278.084 417.949 296.588C417.741 307.472 418.704 317.144 419.476 324.92C420.676 337.156 421.501 345.244 416.801 347.644C414.729 348.712 412.061 348.444 408.649 346.784C407.525 347.076 406.401 347.376 405.277 347.676C404.153 347.976 402.929 348.304 401.757 348.604H401.705C401.009 348.698 400.305 348.749 399.6 348.756ZM401.481 206.956C400.969 214.304 400.025 227.756 398.42 244.376C397.708 251.932 397.136 259.64 396.584 267.092C395.636 279.864 394.66 293.072 392.92 305.976C392.58 308.52 392.236 310.972 391.908 313.32C389.476 330.62 387.868 342.048 393.968 346.356C395.912 347.724 398.476 348.216 401.569 347.824C402.733 347.524 403.893 347.212 405.057 346.904C406.221 346.596 407.405 346.276 408.581 345.972L408.725 345.936L408.857 346C412.089 347.6 414.565 347.892 416.421 346.932C420.637 344.78 419.853 336.908 418.669 324.996C417.893 317.204 416.929 307.504 417.137 296.596C417.505 278.02 421.137 259.56 425.717 236.196C426.117 234.032 426.549 231.992 426.917 230.068C429.753 215.944 431.316 208.164 427.028 204.22C421.352 198.908 408.669 203.6 401.465 206.956H401.481Z" fill="#161616"/>
<path opacity="0.14" d="M419.316 201.436C421.46 201.396 425.06 201.356 427.484 203.74C428.66 204.912 429.388 206.54 429.792 209.4C430.64 215.508 429.064 220.32 428.132 223.636C427.12 227.356 428.296 224.364 425.624 240.78C422.108 262.576 420.492 265.124 418.712 280.124C418.008 285.679 417.588 291.266 417.456 296.864C417.312 302.872 417.528 308.882 418.104 314.864C418.872 322.464 419.076 330.108 420.004 337.664C420.248 339.404 420.692 343.004 418.548 345.428C416.812 347.408 414.148 347.692 413.748 347.732C411.896 347.88 410.052 347.364 408.548 346.276C406.404 346.676 404.224 347.128 402.08 347.532C400.664 320.332 403.82 299.208 407.092 284.732C410.692 268.76 415.664 255.336 415.868 234.068C415.964 223.592 414.908 213.137 412.716 202.892C414.8 201.982 417.044 201.488 419.316 201.436Z" fill="#6D6C6C"/>
<path opacity="0.1" d="M420.045 269.692C418.633 281.136 417.645 288.98 417.741 299.616C417.905 318.816 418.997 328.932 418.997 328.932C419.885 337.14 421.097 344.132 417.541 346.532C415.541 347.868 412.809 347.3 410.625 346.532C409.129 346.288 407.673 346.088 406.225 345.884C409.489 337.089 411.809 327.97 413.141 318.684C416.009 298.628 412.653 289.084 416.053 270.324C417.697 261.302 420.441 252.516 424.221 244.16C422.837 250.728 421.301 259.42 420.045 269.692Z" fill="#6D6C6C"/>
<path d="M461.044 375.972C437.444 377.8 425.444 377.489 424.98 374.957C424.608 372.877 432.096 369.297 447.524 364.257C447.428 358.657 447.336 353.057 447.24 347.457C446.84 343.217 449.188 339.296 452.884 337.924C454.468 337.371 456.172 337.283 457.804 337.67C459.436 338.058 460.92 338.906 462.084 340.113C461.692 352.073 461.352 364 461.044 375.972Z" fill="#191919"/>
<path d="M417.968 207.888C413.568 212.62 413.84 219.616 413.884 220.288C414.368 229.548 421.884 234.56 422.656 235.048C426.764 249.137 429.756 263.528 431.6 278.088C433.34 292.036 434.228 298.992 434.592 305.784C434.592 305.784 435.524 323.416 441.264 340.984C441.832 342.804 443.004 346.16 445.876 347.332C450.768 349.356 456.916 343.572 457.876 342.644C457.476 343.656 457.188 344.788 457.636 345.232C458.684 346.2 463.336 343.696 465.72 340.54C468.92 336.336 468.228 330.756 466.892 323.88C464.064 309.12 460.788 300.992 458.36 291.452C456.948 285.952 456.5 282.596 454.684 268.444C452.012 247.86 449.508 228.044 447.16 208.844C436.244 201.176 423.788 201.62 417.968 207.888Z" fill="white"/>
<path d="M448.076 348.176C447.268 348.182 446.464 348.029 445.716 347.724C442.516 346.42 441.316 342.572 440.876 341.124C435.184 323.692 434.196 305.984 434.184 305.808C433.84 299.328 433.032 292.848 431.42 279.936L431.196 278.136C429.364 263.652 426.396 249.334 422.316 235.316C421.004 234.456 413.96 229.424 413.484 220.324C413.436 219.524 413.16 212.46 417.672 207.616C420.656 204.416 425.272 202.684 430.66 202.744C436.26 202.812 442.188 204.872 447.392 208.532L447.536 208.636L447.56 208.812C449.812 227.264 452.272 246.76 455.08 268.412C456.924 282.756 457.36 285.98 458.748 291.372C459.58 294.64 460.508 297.736 461.492 301.016C463.336 307.156 465.424 314.116 467.288 323.816C468.584 330.5 469.384 336.392 466.04 340.796C464.004 343.484 460.412 345.68 458.556 345.844C458.344 345.881 458.128 345.873 457.924 345.82C457.716 345.767 457.524 345.67 457.356 345.536C457.02 345.204 456.924 344.672 457.06 343.936C455.092 345.62 451.532 348.176 448.076 348.176ZM430.476 203.58C425.336 203.58 420.936 205.3 418.28 208.16C413.992 212.764 414.256 219.524 414.28 220.28C414.756 229.344 422.04 234.2 422.872 234.724L423 234.804L423.04 234.952C427.16 249.054 430.156 263.46 432 278.036L432.228 279.84C433.828 292.768 434.628 299.256 434.996 305.764C434.996 305.94 435.992 323.548 441.648 340.88C442.072 342.236 443.188 345.82 446.048 346.984C450.448 348.796 456.02 343.916 457.648 342.376L458.984 341.096L458.296 342.812C457.772 344.124 457.788 344.812 457.964 344.968C458.136 345.062 458.336 345.093 458.532 345.056C460.188 344.908 463.568 342.808 465.452 340.32C468.596 336.176 467.808 330.468 466.548 323.976C464.696 314.308 462.612 307.368 460.776 301.244C459.788 297.96 458.856 294.844 458.024 291.568C456.624 286.132 456.184 282.9 454.332 268.512C451.532 246.912 449.08 227.488 446.832 209.084C441.256 205.236 435.496 203.6 430.456 203.6L430.476 203.58Z" fill="#161616"/>
<path d="M414.528 213.712C414.812 212.984 415.984 213.312 415.7 214.036C414.368 217.956 413.884 222.324 416.024 226.036C417.804 229.192 420.796 232.792 424.356 233.88C425.084 234.124 424.756 235.296 424.032 235.056C420.148 233.856 416.956 230.08 414.972 226.656C412.668 222.656 413.072 217.92 414.528 213.716V213.712Z" fill="white"/>
<path d="M413.316 221.232C413.276 220.464 414.488 220.464 414.516 221.232C414.88 227.016 418.6 231.788 424.18 233.364C424.336 233.408 424.464 233.511 424.544 233.651C424.62 233.791 424.64 233.956 424.6 234.111C424.556 234.265 424.456 234.397 424.316 234.477C424.176 234.556 424.012 234.577 423.856 234.536C417.712 232.8 413.668 227.54 413.304 221.232H413.316Z" fill="white"/>
<path opacity="0.14" d="M439.396 205.02C443.116 206.192 444.492 207.444 444.936 207.848C445.96 208.858 446.784 210.052 447.364 211.368C448.964 221.84 450.032 230.452 450.72 236.568C451.972 247.768 452.58 256.544 454.48 269.32C455.328 274.92 456.08 279.388 456.38 280.92C457.272 285.772 457.98 289.98 459.088 294.668C461.636 305.788 464.752 313.676 466.488 321.868C466.732 322.92 467.056 325.02 467.688 329.268C468.132 332.016 468.252 332.948 468.088 334.24C467.852 336.313 467.116 338.298 465.944 340.024C464.344 342.572 460.972 346.048 458.948 345.28C458.02 344.916 457.976 343.944 456.928 343.68C455.392 343.28 454.256 345.052 453.572 345.012C450.66 344.852 450.416 312.544 450.336 306.212C449.768 268.124 440.832 236.46 435.656 218.184C433.88 211.876 432.26 206.78 431.208 203.628C433.992 203.656 436.756 204.126 439.396 205.02Z" fill="#6D6C6C"/>
<path opacity="0.2" d="M466.124 320.061C467.944 325.841 469.928 331.869 467.216 337.729C465.216 341.977 460.668 346.425 458.604 345.537C457.804 345.173 457.512 344.081 457.404 343.109C453.764 345.453 452.712 345.857 452.552 345.657C452.152 345.129 458.696 341.209 461.852 334.617C463.956 330.249 463.872 326.125 462.252 314.805C461.24 307.849 459.744 298.993 457.52 288.641C460.828 302.309 463.86 312.741 466.124 320.061Z" fill="#6D6C6C"/>
<path d="M410.799 138.62C406.215 132.096 400.839 135.716 400.839 135.716C396.699 137.944 384.523 153.972 378.499 166.496C371.879 159.296 360.827 152.008 354.055 147.584C347.255 141.964 335.887 143.584 334.795 143.832C331.963 144.52 330.591 144.668 330.503 145.112C330.415 145.556 330.579 148.264 334.735 147.396C339.935 146.304 337.995 151.484 326.531 151.072C323.663 150.968 322.691 152.376 323.331 154.952C324.047 157.84 331.491 161.408 343.503 158.152C346.015 157.468 348.819 155.22 350.631 156.744C356.323 162.108 372.143 187.8 380.331 188.448C385.703 188.872 410.495 152.796 410.495 152.796C410.495 152.796 414.903 144.444 410.799 138.62Z" fill="white"/>
<path d="M380.423 188.836H380.315C374.535 188.38 365.479 176.376 358.199 166.732C354.951 162.42 352.143 158.7 350.367 157.028C349.311 156.14 347.699 156.852 345.995 157.612C345.227 157.976 344.432 158.282 343.619 158.528C332.855 161.456 327.003 158.736 325.463 157.832C324.091 157.032 323.199 156.036 322.955 155.032C322.595 153.584 322.723 152.468 323.355 151.716C323.987 150.964 325.055 150.6 326.579 150.656C333.151 150.892 336.487 149.276 337.047 148.204C337.151 148 337.091 147.92 337.071 147.892C336.939 147.72 336.303 147.468 334.847 147.768C333.031 148.168 331.691 147.928 330.871 147.112C330.599 146.84 330.392 146.511 330.266 146.148C330.14 145.785 330.098 145.398 330.143 145.016C330.255 144.44 330.943 144.288 332.751 143.884C333.307 143.76 333.951 143.616 334.751 143.428C336.655 142.968 347.723 141.772 354.351 147.26C360.399 151.24 371.555 158.532 378.399 165.796C384.551 153.268 396.399 137.644 400.655 135.364C400.679 135.344 406.379 131.624 411.135 138.392C415.319 144.344 411.039 152.62 410.855 152.972L410.831 153.012C408.303 156.7 386.051 188.836 380.423 188.836ZM349.167 155.812C349.8 155.798 350.415 156.016 350.899 156.424C352.743 158.16 355.567 161.908 358.839 166.244C365.639 175.26 374.955 187.608 380.375 188.036C384.143 188.32 400.247 167.004 410.163 152.58C410.391 152.132 414.291 144.272 410.483 138.852C406.187 132.736 401.283 135.908 401.075 136.052C396.891 138.308 384.723 154.508 378.871 166.672L378.615 167.204L378.215 166.768C371.463 159.428 360.003 151.944 353.847 147.924L353.707 147.808C346.671 142.1 335.015 144.208 334.907 144.208C334.135 144.392 333.467 144.54 332.907 144.664C332.222 144.776 331.552 144.961 330.907 145.216C330.898 145.46 330.94 145.704 331.028 145.932C331.116 146.16 331.249 146.368 331.419 146.544C332.027 147.152 333.151 147.304 334.667 146.988C336.183 146.672 337.247 146.824 337.691 147.412C337.812 147.579 337.882 147.778 337.89 147.985C337.899 148.191 337.846 148.396 337.739 148.572C336.939 150.124 333.083 151.692 326.539 151.456C325.279 151.412 324.415 151.668 323.963 152.22C323.511 152.772 323.443 153.648 323.739 154.84C323.931 155.604 324.707 156.44 325.879 157.124C327.347 157.988 332.955 160.584 343.415 157.74C344.19 157.504 344.947 157.211 345.679 156.864C346.855 156.348 348.067 155.812 349.167 155.812Z" fill="#0E0E0E"/>
<g opacity="0.31">
<path opacity="0.31" d="M334.748 147.392C335.109 147.312 335.475 147.264 335.844 147.248C335.844 146.596 334.876 146.268 333.072 146.764C332.518 146.928 331.945 147.02 331.368 147.04C332 147.496 333.02 147.752 334.748 147.392Z" fill="#404040"/>
<path opacity="0.31" d="M410.8 138.62C410.576 138.304 410.352 138.02 410.128 137.748C410.36 142.096 407.44 146.148 407.44 146.148C407.44 146.148 386.268 184.948 380.884 184.88C372.676 184.76 355.396 160.08 349.38 155.096C347.48 153.692 344.824 156.116 342.36 156.96C335.876 159.176 330.36 158.184 326.62 157.76C330.22 159.076 336.248 160.108 343.504 158.16C346.016 157.476 348.82 155.228 350.632 156.752C356.324 162.116 372.144 187.808 380.332 188.456C385.704 188.88 410.068 153.424 410.068 153.424C410.068 153.424 414.904 144.444 410.8 138.62Z" fill="#404040"/>
</g>
<path d="M431.932 133.664C444.428 134.464 448.352 135.564 450.412 138.76C452.476 141.872 451.612 145.308 450.696 150.848C450.696 150.848 449.444 158.572 448.068 186.352C447.676 194.24 447.852 202.146 448.592 210.008C443.416 212.165 438 213.698 432.46 214.576C421.5 216.286 410.296 215.456 399.708 212.152C397.888 199.776 396.632 188.9 395.744 179.884C394.976 172.284 394.124 162.092 395.744 149.232C396.944 139.772 398.372 137.788 399.18 136.86C403.428 131.844 412.968 132.372 431.932 133.664Z" fill="#3A3A3A"/>
<path opacity="0.14" d="M440.953 134.676C442.409 134.676 445.077 134.676 447.705 136.252C449.249 137.092 450.493 138.392 451.265 139.972C451.893 141.421 452.077 143.026 451.789 144.58C451.141 148.02 450.373 152.752 449.645 158.412C448.373 168.877 447.725 179.409 447.705 189.952C447.705 195.412 447.865 202.284 448.433 210.352C443.729 212.101 438.869 213.4 433.917 214.232C431.289 214.676 428.821 214.96 426.477 215.124C431.045 197.696 434.281 174.324 429.677 147.96C428.789 142.944 427.737 138.212 426.477 133.764C432.865 134.352 437.473 134.552 440.953 134.676Z" fill="#6D6C6C"/>
<path opacity="0.16" d="M448.312 176.124C447.624 188.212 447.584 199.536 447.948 209.968C444.836 211.327 441.628 212.448 438.348 213.324C435.728 214.02 433.068 214.547 430.38 214.9C433.96 211.828 436.912 208.093 439.076 203.9C443.36 195.452 442.996 187.404 442.956 184.048C442.796 175.112 444.292 161.848 451.448 143.288C450.048 153.356 448.916 164.316 448.312 176.124Z" fill="#6D6C6C"/>
<path d="M293.044 274C293.044 274 298.596 289.6 290.716 294L288.868 287.324C288.868 287.324 289.052 276.576 293.044 274Z" fill="white"/>
<path d="M290.468 294.6L288.468 287.4V287.34C288.468 286.892 288.704 276.348 292.828 273.692L293.252 273.42L293.42 273.896C293.652 274.544 298.996 289.852 290.912 294.372L290.468 294.6ZM289.268 287.28L290.96 293.388C297.064 289.34 293.676 277.312 292.836 274.664C289.6 277.448 289.292 286.476 289.268 287.28Z" fill="#161616"/>
<path d="M297.684 273.236C297.684 273.236 303.236 288.836 295.36 293.236L288.588 284.76C288.588 284.76 293.692 275.804 297.684 273.236Z" fill="white"/>
<path d="M295.256 293.744L288.108 284.8L288.244 284.564C288.452 284.192 293.444 275.492 297.468 272.9L297.892 272.628L298.06 273.1C298.292 273.752 303.636 289.056 295.552 293.58L295.256 293.744ZM289.072 284.724L295.472 292.724C301.796 288.768 298.328 276.516 297.472 273.888C294.036 276.424 289.872 283.36 289.072 284.724Z" fill="#161616"/>
<path opacity="0.38" d="M296.504 276.52C296.504 276.52 300.232 286.988 294.94 289.948L290.4 284.26C290.4 284.26 293.82 278.244 296.504 276.52Z" fill="black"/>
<path d="M353.108 379.672C352.35 380.108 351.512 380.388 350.645 380.495C349.778 380.603 348.897 380.537 348.056 380.3C345.912 379.664 345.516 378.248 346.66 377.024C348.188 375.392 354.368 372.224 353.46 367.788C352.552 363.352 351.412 361.472 347.908 360.084C344.404 358.696 337.18 356.856 336.072 349.636C334.964 342.416 336.472 337 336.472 337L353.964 341.8C353.964 341.8 350.764 352.628 353.444 355.4C356.124 358.172 359.276 359.636 359.044 361.304C358.812 362.972 355.888 376.404 354.88 378.104C354.432 378.768 353.822 379.308 353.108 379.672Z" fill="white"/>
<path d="M349.812 380.948C349.18 380.949 348.55 380.859 347.944 380.68C346.716 380.32 345.92 379.672 345.696 378.852C345.615 378.473 345.635 378.08 345.753 377.711C345.871 377.342 346.083 377.01 346.368 376.748C346.906 376.235 347.479 375.76 348.084 375.328C350.328 373.62 353.716 371.036 353.072 367.868C352.152 363.336 351.012 361.74 347.764 360.456C347.392 360.308 346.964 360.156 346.532 359.992C342.856 358.64 336.708 356.392 335.68 349.696C334.568 342.472 336.044 337.116 336.108 336.896L336.216 336.496L354.484 341.496L354.368 341.896C353.5 344.848 351.692 352.972 353.752 355.096C354.666 356.016 355.64 356.874 356.668 357.664C358.324 359 359.636 360.064 359.468 361.332C359.264 362.748 356.32 376.472 355.252 378.28C354.769 379.009 354.104 379.6 353.324 379.996C352.255 380.612 351.045 380.94 349.812 380.948ZM336.8 337.496C335.965 341.471 335.86 345.564 336.492 349.576C337.448 355.788 343.092 357.864 346.828 359.24C347.28 359.408 347.7 359.56 348.08 359.712C351.94 361.24 353.024 363.508 353.876 367.712C354.62 371.372 350.992 374.136 348.592 375.968C348.028 376.374 347.494 376.82 346.992 377.3C346.804 377.466 346.662 377.676 346.577 377.912C346.492 378.148 346.469 378.401 346.508 378.648C346.656 379.188 347.26 379.636 348.212 379.92C349.002 380.142 349.828 380.203 350.642 380.102C351.455 380 352.241 379.737 352.952 379.328C353.609 378.998 354.17 378.507 354.584 377.9C355.52 376.3 358.416 363.184 358.696 361.244C358.82 360.416 357.664 359.492 356.204 358.316C355.151 357.504 354.153 356.623 353.216 355.68C350.684 353.048 352.972 344.08 353.532 342.08L336.8 337.496Z" fill="#161616"/>
<g opacity="0.34">
<path opacity="0.34" d="M355.095 369.352C355.147 370.552 355.763 371.716 356.527 372.704C355.875 375.304 355.255 377.48 354.887 378.1C354.437 378.767 353.825 379.308 353.107 379.672C352.349 380.108 351.512 380.388 350.645 380.496C349.777 380.604 348.897 380.537 348.055 380.3C345.911 379.664 345.515 378.248 346.659 377.024C348.187 375.392 354.367 372.224 353.459 367.788C352.551 363.352 351.411 361.472 347.907 360.084C344.907 358.884 339.195 357.364 336.911 352.424C338.675 353.76 341.667 355.72 346.483 358.024C355.599 362.4 354.955 366.02 355.095 369.352Z" fill="black"/>
</g>
<path d="M297.632 364.908C296.802 364.298 296.119 363.511 295.632 362.604C295.738 360.401 295.652 358.192 295.376 356.004C294.076 346.112 292.668 339.448 292.668 339.448H299.96L303.88 357.272L302.528 361.496C301.2 363.472 299.128 365.916 297.632 364.908Z" fill="white"/>
<path d="M298.4 365.54C298.053 365.542 297.713 365.437 297.428 365.24C296.552 364.596 295.832 363.763 295.32 362.804L295.26 362.704V362.584C295.365 360.405 295.281 358.221 295.008 356.056C293.724 346.292 292.32 339.596 292.308 339.532L292.204 339.048H300.308L304.308 357.292L302.868 361.72C300.86 364.684 299.396 365.54 298.4 365.54ZM296.072 362.504C296.514 363.318 297.13 364.026 297.876 364.576C298.788 365.192 300.364 364.004 302.2 361.32L303.504 357.252L299.672 339.848H293.176C293.52 341.556 294.696 347.652 295.788 355.952C296.064 358.124 296.153 360.316 296.052 362.504H296.072Z" fill="#161616"/>
<path d="M293.312 375.428C294.653 371.275 295.439 366.963 295.648 362.604C296.135 363.511 296.818 364.299 297.648 364.908C299.144 365.916 301.212 363.472 302.56 361.496L295.972 382L289.464 382.124C289.344 382.126 289.226 382.102 289.117 382.053C289.008 382.005 288.91 381.933 288.832 381.844C288.753 381.754 288.694 381.648 288.661 381.533C288.627 381.419 288.618 381.298 288.636 381.18C288.868 379.484 289.776 376.124 293.312 375.428Z" fill="#7A7A7A"/>
<path d="M289.448 382.308C289.304 382.308 289.162 382.278 289.031 382.22C288.901 382.161 288.783 382.076 288.688 381.968C288.589 381.856 288.515 381.724 288.472 381.582C288.429 381.439 288.416 381.288 288.436 381.14C288.648 379.62 289.528 376.04 293.16 375.252C294.466 371.15 295.235 366.896 295.448 362.596L295.476 361.912L295.82 362.504C296.287 363.384 296.944 364.15 297.744 364.744C299.144 365.688 301.248 363.044 302.376 361.384L303.156 360.236L296.116 382.18L289.468 382.308H289.448ZM295.812 363.252C295.556 367.413 294.779 371.525 293.5 375.492L293.46 375.6L293.348 375.624C290 376.284 289.084 379.396 288.832 381.192C288.819 381.283 288.827 381.375 288.853 381.463C288.879 381.55 288.924 381.632 288.984 381.7C289.044 381.767 289.117 381.82 289.199 381.856C289.281 381.892 289.37 381.91 289.46 381.908L295.824 381.788L301.964 362.64C300.164 364.988 298.64 365.84 297.52 365.076C296.837 364.585 296.257 363.966 295.812 363.252Z" fill="black"/>
<path d="M338.191 317.892C333.227 317.492 326.475 317.424 326.475 317.424C326.475 317.424 311.063 311.54 307.315 309.824C307.315 309.824 304.191 307.484 303.827 305.452C303.463 303.42 300.703 293.68 297.891 291.6C297.891 291.6 296.955 283.112 288.691 283.112C280.427 283.112 278.575 287.296 275.031 288.056C272.179 288.672 267.551 288.792 265.855 288.816C265.768 288.817 265.682 288.835 265.602 288.87C265.521 288.905 265.449 288.955 265.388 289.018C265.328 289.081 265.28 289.155 265.248 289.236C265.216 289.318 265.201 289.405 265.203 289.492C265.247 291.6 265.879 297.984 271.803 299.028C278.919 300.276 282.459 299.58 283.535 304.268C284.611 308.956 285.827 321.468 285.567 323.868C285.307 326.268 288.119 339.592 294.643 342.16C294.643 342.16 298.463 356.844 297.803 365.624C297.143 374.404 295.963 377.044 295.963 377.044C295.963 377.044 292.183 379.044 291.439 381.76C291.406 381.881 291.402 382.008 291.427 382.131C291.452 382.255 291.505 382.37 291.583 382.469C291.661 382.567 291.761 382.646 291.875 382.699C291.989 382.751 292.114 382.777 292.239 382.772H298.743C299.067 382.773 299.385 382.679 299.657 382.503C299.929 382.327 300.144 382.076 300.275 381.78C300.795 380.643 301.183 379.449 301.431 378.224C301.831 375.936 303.895 375.76 304.483 372.88C305.071 370 305.735 353.492 306.307 351.256C306.879 349.02 309.411 347.612 310.247 344.832C310.247 344.832 319.947 344.228 324.115 341.728C324.115 341.728 339.715 339.176 344.991 343.328C350.267 347.48 359.711 360.928 371.999 363.496C371.999 363.496 379.355 373.388 377.067 376.824C375.991 378.424 375.611 379.624 375.511 380.392C375.492 380.555 375.507 380.719 375.555 380.876C375.604 381.032 375.686 381.176 375.795 381.299C375.904 381.421 376.038 381.519 376.188 381.585C376.337 381.651 376.5 381.685 376.663 381.684H381.359C381.671 381.684 381.979 381.618 382.263 381.49C382.547 381.363 382.801 381.176 383.008 380.943C383.215 380.711 383.371 380.437 383.464 380.14C383.558 379.843 383.588 379.529 383.551 379.22C383.223 376.456 382.311 371.98 379.775 369.084C375.887 364.64 377.831 359.92 376.131 358.812C374.431 357.704 369.535 353.292 368.843 347.736C368.211 342.704 365.559 333.108 362.639 329.856C361.928 329.097 361.48 328.129 361.363 327.096C361.251 325.864 361.315 324.268 362.071 322.952C363.531 320.42 363.043 318.684 361.863 317.676C360.683 316.668 357.107 317.92 355.167 320.14C353.227 322.36 342.567 318.232 338.191 317.892Z" fill="white"/>
<path d="M298.712 383.2H292.208C292.02 383.201 291.835 383.158 291.667 383.075C291.499 382.992 291.352 382.87 291.239 382.72C291.128 382.574 291.052 382.404 291.017 382.224C290.981 382.044 290.988 381.858 291.036 381.68C291.748 379.108 294.928 377.188 295.628 376.792C295.848 376.196 296.827 373.192 297.387 365.624C297.995 357.548 294.735 344.24 294.291 342.484C287.599 339.6 284.92 326 285.156 323.836C285.412 321.468 284.208 309.036 283.132 304.356C282.332 300.9 280.108 300.6 275.66 300.008C274.5 299.852 273.183 299.676 271.719 299.42C265.459 298.32 264.831 291.552 264.787 289.504C264.784 289.363 264.809 289.223 264.861 289.092C264.912 288.961 264.989 288.841 265.087 288.74C265.184 288.639 265.3 288.558 265.429 288.502C265.557 288.447 265.696 288.417 265.836 288.416C267.644 288.392 272.148 288.268 274.932 287.668C276.096 287.416 277.088 286.756 278.232 285.996C280.432 284.532 283.172 282.712 288.676 282.712C296.544 282.712 298.068 290.144 298.276 291.38C301.212 293.78 303.9 303.528 304.232 305.38C304.548 307.128 307.208 309.228 307.536 309.48C311.172 311.14 325.463 316.608 326.563 317.028C327.303 317.028 333.588 317.14 338.236 317.496C339.792 317.616 342.091 318.2 344.523 318.82C348.643 319.868 353.771 321.172 354.875 319.908C356.955 317.532 360.756 316.22 362.136 317.4C363.044 318.176 364.288 319.956 362.432 323.18C361.708 324.44 361.675 325.98 361.775 327.088C361.882 328.035 362.293 328.923 362.947 329.616C365.855 332.856 368.58 342.34 369.252 347.716C369.884 352.772 374.315 357.168 376.363 358.516C377.211 359.072 377.315 360.216 377.443 361.672C377.619 363.628 377.843 366.312 380.087 368.872C382.615 371.76 383.588 376.096 383.96 379.224C384.003 379.59 383.969 379.96 383.859 380.312C383.748 380.663 383.565 380.987 383.32 381.262C383.076 381.537 382.775 381.757 382.44 381.908C382.104 382.059 381.74 382.136 381.372 382.136H376.632C376.411 382.138 376.192 382.092 375.99 382.003C375.788 381.913 375.608 381.781 375.461 381.616C375.315 381.45 375.205 381.256 375.14 381.045C375.075 380.834 375.056 380.611 375.084 380.392C375.22 379.316 375.764 378.06 376.684 376.656C378.412 374.068 373.767 366.696 371.719 363.908C362.603 361.936 355.115 354.168 349.639 348.488C347.715 346.488 346.039 344.772 344.695 343.688C339.815 339.824 325.368 341.96 324.204 342.14C320.32 344.424 312.123 345.128 310.495 345.244C309.997 346.495 309.271 347.644 308.356 348.632C307.608 349.536 306.899 350.392 306.647 351.388C306.363 352.488 306.047 357.388 305.739 362.096C305.423 366.956 305.124 371.548 304.828 372.992C304.575 374.216 303.952 375.334 303.043 376.192C302.459 376.824 301.952 377.368 301.776 378.34C301.516 379.598 301.113 380.822 300.576 381.988C300.412 382.346 300.15 382.651 299.82 382.865C299.49 383.08 299.105 383.196 298.712 383.2ZM288.676 283.512C283.412 283.512 280.788 285.256 278.676 286.66C277.476 287.46 276.412 288.168 275.1 288.448C272.244 289.064 267.675 289.192 265.847 289.216C265.813 289.215 265.777 289.222 265.745 289.236C265.713 289.25 265.684 289.27 265.66 289.296C265.612 289.347 265.586 289.414 265.587 289.484C265.627 291.38 266.2 297.64 271.86 298.632C273.304 298.888 274.611 299.06 275.767 299.216C280.271 299.816 282.992 300.18 283.912 304.18C284.996 308.908 286.212 321.512 285.952 323.924C285.692 326.336 288.596 339.368 294.776 341.8L294.963 341.876L295.015 342.072C295.055 342.22 298.843 356.92 298.187 365.672C297.531 374.424 296.364 377.116 296.312 377.224L296.256 377.348L296.136 377.416C296.1 377.416 292.5 379.38 291.808 381.884C291.793 381.942 291.791 382.003 291.803 382.062C291.815 382.121 291.839 382.176 291.876 382.224C291.914 382.276 291.964 382.318 292.021 382.347C292.079 382.375 292.143 382.39 292.208 382.388H298.712C298.958 382.388 299.199 382.318 299.407 382.184C299.614 382.051 299.778 381.86 299.88 381.636C300.384 380.528 300.761 379.366 301.004 378.172C301.224 376.972 301.859 376.284 302.471 375.62C303.281 374.874 303.84 373.896 304.071 372.82C304.359 371.428 304.667 366.652 304.967 362.02C305.291 357.04 305.6 352.336 305.9 351.164C306.2 349.992 306.959 349.072 307.767 348.096C308.575 347.12 309.435 346.096 309.843 344.728L309.924 344.46H310.2C310.296 344.46 319.855 343.828 323.887 341.408L323.952 341.368H324.028C324.676 341.264 339.884 338.836 345.228 343.064C346.632 344.172 348.308 345.916 350.252 347.932C355.684 353.564 363.127 361.284 372.067 363.152L372.215 363.184L372.308 363.304C372.616 363.704 379.807 373.468 377.387 377.096C376.307 378.716 375.98 379.836 375.896 380.492C375.881 380.596 375.89 380.702 375.921 380.802C375.952 380.902 376.005 380.994 376.076 381.072C376.147 381.154 376.236 381.22 376.335 381.265C376.435 381.31 376.543 381.333 376.652 381.332H381.36C381.613 381.333 381.864 381.28 382.096 381.178C382.328 381.074 382.535 380.924 382.705 380.735C382.874 380.546 383.001 380.323 383.079 380.081C383.155 379.84 383.181 379.584 383.152 379.332C382.86 376.86 381.992 372.288 379.476 369.412C377.076 366.664 376.82 363.832 376.636 361.764C376.524 360.528 376.436 359.552 375.912 359.208C374.204 358.092 369.163 353.608 368.443 347.852C367.803 342.704 365.103 333.264 362.339 330.188C361.57 329.366 361.089 328.316 360.967 327.196C360.855 325.996 360.9 324.256 361.728 322.816C362.904 320.768 362.864 319.12 361.604 318.044C360.656 317.244 357.319 318.352 355.467 320.468C354.039 322.104 349.096 320.848 344.312 319.632C341.912 319.02 339.652 318.432 338.16 318.332C333.268 317.932 326.559 317.864 326.471 317.864H326.399L326.336 317.836C326.18 317.78 310.868 311.928 307.136 310.236L307.063 310.192C306.931 310.092 303.812 307.732 303.424 305.572C303.036 303.412 300.299 293.94 297.643 291.972L297.504 291.868V291.696C297.456 291.312 296.492 283.512 288.676 283.512Z" fill="#161616"/>
<g opacity="0.27">
<path opacity="0.27" d="M379.532 370.22C379.946 370.254 380.356 370.327 380.756 370.44C382.552 373.24 383.268 376.872 383.556 379.24C383.592 379.55 383.563 379.863 383.469 380.16C383.375 380.457 383.22 380.731 383.013 380.964C382.806 381.197 382.552 381.383 382.268 381.511C381.984 381.638 381.676 381.704 381.364 381.704H376.632C376.467 381.706 376.304 381.672 376.153 381.604C376.002 381.537 375.868 381.438 375.759 381.315C375.65 381.191 375.568 381.046 375.52 380.888C375.472 380.73 375.458 380.564 375.48 380.4C375.58 379.6 375.96 378.444 377.036 376.832C379.324 373.396 371.968 363.504 371.968 363.504C366.672 362.396 361.904 359.272 357.772 355.744C360.684 356.92 366.028 359.072 370.368 360.52C376.616 362.616 376.304 369.96 379.532 370.22Z" fill="black"/>
</g>
<g opacity="0.34">
<path opacity="0.34" d="M304.8 369.976C304.684 371.308 304.568 372.348 304.456 372.892C303.868 375.772 301.82 375.948 301.404 378.236C301.155 379.461 300.767 380.654 300.248 381.792C300.116 382.088 299.901 382.339 299.629 382.515C299.357 382.691 299.04 382.785 298.716 382.784H292.208C292.082 382.788 291.957 382.763 291.843 382.71C291.729 382.658 291.629 382.579 291.551 382.48C291.474 382.382 291.42 382.266 291.395 382.143C291.37 382.02 291.374 381.893 291.408 381.772C292.152 379.072 295.932 377.056 295.932 377.056C295.932 377.056 297.072 374.496 297.736 366.072C298.752 368.336 300.196 371.388 301.104 372.512C301.848 373.412 303.34 371.904 304.8 369.976Z" fill="black"/>
</g>
<path d="M283.668 287.896C283.669 287.479 283.546 287.071 283.315 286.724C283.084 286.377 282.754 286.106 282.37 285.946C281.984 285.786 281.56 285.743 281.151 285.824C280.742 285.905 280.366 286.105 280.071 286.4C279.776 286.695 279.574 287.071 279.493 287.479C279.411 287.889 279.453 288.313 279.612 288.698C279.772 289.083 280.042 289.413 280.388 289.645C280.735 289.877 281.143 290 281.56 290C282.118 290 282.654 289.779 283.049 289.384C283.444 288.99 283.667 288.455 283.668 287.896Z" fill="#140D08"/>
<path d="M281.796 286.828C281.797 286.683 281.754 286.541 281.675 286.421C281.595 286.3 281.481 286.205 281.347 286.149C281.213 286.093 281.066 286.078 280.924 286.106C280.782 286.134 280.651 286.203 280.548 286.305C280.445 286.407 280.375 286.538 280.346 286.68C280.318 286.822 280.332 286.969 280.387 287.103C280.443 287.237 280.536 287.352 280.657 287.432C280.778 287.513 280.919 287.556 281.064 287.556C281.16 287.557 281.255 287.538 281.344 287.502C281.433 287.466 281.513 287.412 281.582 287.345C281.65 287.277 281.704 287.196 281.74 287.108C281.777 287.019 281.796 286.924 281.796 286.828Z" fill="white"/>
<g opacity="0.28">
<path opacity="0.28" d="M265.84 288.801C267.536 288.777 272.164 288.657 275.016 288.041H275.1C277.5 289.609 278.3 292.221 279.044 292.873C280.136 293.833 281.804 291.237 283.044 290.473C284.284 289.709 286.064 293.805 286.644 298.441C287.068 301.853 285.708 304.785 284.112 307.509C283.916 306.249 283.712 305.137 283.52 304.289C282.444 299.601 278.904 300.289 271.788 299.049C265.864 298.001 265.232 291.601 265.2 289.493C265.196 289.405 265.209 289.317 265.239 289.235C265.269 289.152 265.315 289.077 265.375 289.012C265.434 288.948 265.506 288.896 265.586 288.859C265.666 288.823 265.752 288.803 265.84 288.801Z" fill="black"/>
</g>
<path d="M265.66 292.868C265.374 291.765 265.215 290.632 265.188 289.492C265.184 289.404 265.198 289.315 265.228 289.232C265.259 289.148 265.306 289.072 265.367 289.008C265.428 288.943 265.501 288.891 265.582 288.856C265.664 288.82 265.752 288.801 265.84 288.8C266.608 288.8 267.972 288.76 269.5 288.672C269.2 290.06 268.248 291.82 265.66 292.868Z" fill="#1C130D"/>
<path d="M267.384 296.452C271.576 297.284 277.2 297.164 277.264 297.16C277.37 297.16 277.472 297.202 277.547 297.277C277.622 297.352 277.664 297.454 277.664 297.56C277.664 297.666 277.622 297.768 277.547 297.843C277.472 297.918 277.37 297.96 277.264 297.96C277.2 297.96 276.84 297.96 276.272 297.96C273.612 297.973 270.954 297.796 268.32 297.428C267.977 297.134 267.664 296.807 267.384 296.452Z" fill="black"/>
<path d="M283.664 311.42C283.778 311.42 283.892 311.408 284.004 311.384C284.58 311.26 298.192 308.292 304.5 300.94C304.648 300.779 304.762 300.59 304.835 300.383C304.908 300.177 304.939 299.958 304.926 299.74C304.913 299.521 304.856 299.308 304.759 299.112C304.661 298.915 304.526 298.741 304.359 298.598C304.193 298.456 304 298.348 303.792 298.282C303.583 298.216 303.363 298.192 303.145 298.212C302.927 298.232 302.716 298.296 302.523 298.4C302.33 298.504 302.16 298.646 302.024 298.816C296.424 305.34 283.456 308.164 283.324 308.192C282.929 308.276 282.58 308.504 282.344 308.83C282.107 309.156 281.999 309.558 282.041 309.959C282.084 310.36 282.273 310.731 282.572 311.001C282.872 311.271 283.26 311.42 283.664 311.42Z" fill="black"/>
<path d="M302.999 300.756C302.838 300.763 302.678 300.721 302.542 300.635C302.405 300.549 302.297 300.425 302.232 300.277C302.168 300.129 302.15 299.965 302.18 299.806C302.211 299.647 302.288 299.502 302.403 299.388C303.295 298.424 324.955 277.712 344.863 272.432C370.331 265.676 409.176 209.632 409.288 209.26C409.348 209.053 409.488 208.878 409.68 208.775C409.868 208.671 410.092 208.647 410.3 208.708C410.508 208.769 410.68 208.91 410.784 209.1C410.888 209.29 410.912 209.513 410.852 209.72C410.38 211.32 372.451 267.976 345.123 274.04C325.563 278.4 303.815 300.264 303.599 300.496C303.523 300.579 303.43 300.646 303.327 300.691C303.224 300.735 303.112 300.758 302.999 300.756Z" fill="black"/>
<path d="M304.799 307.488C304.799 307.488 300.123 315.648 285.299 317.712C285.299 317.712 284.835 322.148 286.219 328.616C287.603 335.084 290.419 339.484 294.619 342.172C294.619 342.172 297.019 335.444 303.419 336.212C309.995 337.012 310.219 344.844 310.219 344.844C310.219 344.844 314.535 344.444 318.803 343.616C323.071 342.788 332.739 340.464 336.919 341.06C336.919 341.06 335.091 333.964 339.935 329.46C344.779 324.956 351.639 323.504 348.207 320.124C348.207 320.124 341.923 317.352 330.159 317.004C319.815 316.704 312.647 311.2 304.799 307.488Z" fill="#F1443D"/>
<path d="M309.827 345.284V344.856C309.827 344.552 309.543 337.348 303.391 336.608C297.391 335.884 295.111 342.044 295.019 342.308L294.847 342.78L294.427 342.508C290.027 339.708 287.227 335.192 285.835 328.7C284.443 322.208 284.891 317.856 284.911 317.672L284.943 317.36L285.251 317.316C299.711 315.316 304.411 307.368 304.451 307.288L304.635 306.968L304.967 307.124C306.851 308.016 308.727 309.024 310.539 310C316.367 313.14 322.391 316.4 330.171 316.608C341.879 316.956 348.111 319.648 348.371 319.764L348.435 319.792L348.487 319.844C349.263 320.608 349.603 321.336 349.523 322.068C349.363 323.528 347.567 324.656 345.295 326.068C343.486 327.13 341.783 328.362 340.207 329.748C335.599 334.024 337.291 340.88 337.307 340.948L337.455 341.528L336.863 341.44C333.459 340.952 326.235 342.464 321.455 343.464C320.475 343.668 319.599 343.864 318.879 343.992C314.643 344.82 310.299 345.224 310.255 345.228L309.827 345.284ZM302.427 335.752C302.778 335.752 303.128 335.773 303.475 335.816C309.399 336.524 310.399 342.712 310.583 344.4C311.751 344.28 315.271 343.888 318.719 343.2C319.439 343.06 320.319 342.876 321.287 342.672C325.879 341.712 332.699 340.272 336.411 340.58C336.075 338.776 335.435 333.068 339.659 329.148C341.268 327.729 343.009 326.467 344.859 325.38C346.859 324.12 348.599 323.032 348.715 321.96C348.767 321.496 348.523 321 347.967 320.444C347.267 320.152 341.039 317.708 330.135 317.384C322.167 317.152 316.055 313.864 310.135 310.68C308.435 309.764 306.679 308.82 304.935 307.976C303.903 309.524 298.795 316.116 285.659 318.04C285.514 321.557 285.83 325.077 286.599 328.512C287.895 334.58 290.463 338.852 294.439 341.552C295.107 340.12 297.507 335.752 302.427 335.752Z" fill="#1D1D1B"/>
<path d="M285.552 323.88C285.552 323.88 300.112 325.456 318.352 314.316L321.752 315.56C321.752 315.56 305.7 328.076 285.936 326.704L285.552 323.88Z" fill="#1D1D1B"/>
<path d="M288.928 327.2C287.923 327.2 286.909 327.165 285.888 327.096L285.56 327.072L285.092 323.42L285.596 323.476C285.74 323.476 300.244 324.9 318.124 313.964L318.288 313.864L322.548 315.424L322 315.876C321.824 316 307.224 327.2 288.928 327.2ZM286.268 326.316C303.412 327.384 317.844 317.844 320.896 315.672L318.376 314.748C302.196 324.584 288.736 324.448 286.012 324.304L286.268 326.316Z" fill="#1D1D1B"/>
<path d="M308.504 309.368C308.504 309.368 304.368 329.82 314.504 344.392L316.572 344.024C316.572 344.024 307.592 328.424 310.836 310.612L308.504 309.368Z" fill="#1D1D1B"/>
<path d="M314.312 344.828L314.168 344.62C304.06 330.076 308.068 309.492 308.112 309.288L308.216 308.76L311.272 310.396L311.22 310.684C308.044 328.148 316.82 343.668 316.912 343.824L317.196 344.316L314.312 344.828ZM308.8 310C308.256 313.288 305.844 331.028 314.68 343.972L315.952 343.744C314.484 340.944 307.608 326.724 310.38 310.848L308.8 310Z" fill="#1D1D1B"/>
<path d="M309.119 316.47L298.664 319.523C296.329 320.205 294.989 322.651 295.671 324.985C296.353 327.32 298.798 328.66 301.133 327.978L311.588 324.925C313.923 324.243 315.263 321.798 314.581 319.463C313.899 317.128 311.454 315.788 309.119 316.47Z" fill="#1D1D1B"/>
<path d="M301.88 325.664C301.534 325.682 301.187 325.646 300.852 325.556L301.056 324.236C301.334 324.309 301.62 324.347 301.908 324.348C302.194 324.351 302.479 324.316 302.756 324.244C302.922 324.21 303.08 324.144 303.22 324.048C303.257 324.023 303.285 323.988 303.302 323.946C303.318 323.905 303.322 323.859 303.312 323.816C303.294 323.764 303.26 323.718 303.215 323.687C303.169 323.655 303.115 323.638 303.06 323.64C302.839 323.622 302.617 323.622 302.396 323.64C302.065 323.664 301.734 323.664 301.404 323.64C301.131 323.619 300.868 323.528 300.64 323.376C300.385 323.199 300.206 322.932 300.14 322.628C300.058 322.334 300.069 322.023 300.172 321.736C300.287 321.416 300.494 321.138 300.768 320.936C301.117 320.679 301.514 320.494 301.936 320.392C302.262 320.301 302.598 320.247 302.936 320.232C303.246 320.216 303.558 320.244 303.86 320.316L303.692 321.62C303.22 321.507 302.728 321.507 302.256 321.62C301.856 321.732 301.66 321.888 301.716 322.092C301.74 322.188 301.824 322.24 301.96 322.256C302.177 322.275 302.395 322.275 302.612 322.256C302.941 322.23 303.271 322.23 303.6 322.256C303.875 322.275 304.14 322.363 304.372 322.512C304.629 322.687 304.808 322.955 304.872 323.26C304.955 323.552 304.945 323.862 304.844 324.148C304.723 324.466 304.515 324.743 304.244 324.948C303.895 325.205 303.5 325.391 303.08 325.496C302.688 325.598 302.285 325.655 301.88 325.664Z" fill="white"/>
<path d="M308.8 322.912L306.976 323.408L306.884 324.332L305.236 324.776L306.036 319.412L307.636 318.98L311.036 323.208L309.36 323.66L308.8 322.912ZM308.04 321.868L307.24 320.788L307.104 322.12L308.04 321.868Z" fill="white"/>
<path d="M434.744 153.2C435.368 157.148 437.704 158.26 442.476 166.752C444.24 169.905 445.836 173.151 447.252 176.476C444.196 182.604 440.812 186.476 438.22 188.908C436.836 190.216 434.704 191.952 430.44 195.424C427.912 197.476 425.796 199.176 424.352 200.324C422.484 199.338 420.496 198.592 418.44 198.104C417.392 197.884 412.716 196.8 412.148 198.052C411.62 199.1 414.232 201.34 415.42 202.276C414.304 202.705 413.08 202.76 411.932 202.432C410.82 202.056 410.268 201.384 409.408 201.552C408.64 201.712 408.144 202.468 407.844 203.084C407.44 203.259 407.084 203.527 406.804 203.868C406.528 204.208 406.336 204.61 406.244 205.04C406.172 205.437 406.188 205.845 406.288 206.236C406.388 206.627 406.572 206.991 406.828 207.304C406.468 207.564 406.188 207.921 406.024 208.333C405.86 208.745 405.816 209.196 405.896 209.632C405.964 209.921 406.092 210.192 406.276 210.426C406.456 210.661 406.684 210.854 406.948 210.992C408.46 214.392 410.624 215.3 411.272 215.528C416.072 217.236 421.168 212.008 422.156 211.016C423.56 209.546 424.704 207.845 425.536 205.988C431.284 205.782 436.912 204.283 442 201.6C446.288 199.324 455.468 193.44 459.896 181.836C465.208 167.928 459.82 155.796 457.156 149.812C454.708 144.356 450.956 135.852 445.524 135.94C439.712 136.052 433.544 145.828 434.744 153.2Z" fill="white"/>
<path d="M413.288 216.288C412.552 216.291 411.82 216.167 411.124 215.92C410.06 215.544 408.068 214.444 406.628 211.3C406.344 211.128 406.1 210.901 405.904 210.633C405.712 210.366 405.572 210.062 405.496 209.74C405.408 209.291 405.436 208.827 405.576 208.391C405.716 207.956 405.964 207.563 406.296 207.248C405.856 206.579 405.696 205.763 405.852 204.976C405.956 204.506 406.16 204.065 406.456 203.687C406.756 203.308 407.132 203.001 407.564 202.788C408.048 201.86 408.644 201.32 409.34 201.188C410.036 201.056 410.54 201.332 411.08 201.624C411.396 201.805 411.728 201.959 412.072 202.084C412.888 202.318 413.752 202.333 414.576 202.128C412.284 200.216 411.352 198.796 411.804 197.9C412.268 196.88 414.204 196.816 418.328 197.7L418.536 197.74C420.54 198.215 422.484 198.933 424.316 199.876C425.892 198.624 427.972 196.952 430.2 195.14C434.452 191.68 436.6 189.94 437.956 188.644C441.6 185.144 444.596 181.024 446.8 176.476C445.404 173.225 443.84 170.048 442.112 166.96C440.644 164.357 439.044 161.832 437.312 159.396C435.68 157.056 434.692 155.644 434.32 153.28C433.624 148.996 435.356 143.492 438.628 139.584C440.768 137.024 443.212 135.584 445.504 135.552H445.596C451.196 135.552 454.94 143.932 457.432 149.488L457.508 149.66C460.144 155.588 465.632 167.92 460.26 181.992C455.936 193.308 447.06 199.364 442.176 201.964C437.104 204.635 431.504 206.149 425.776 206.396C424.936 208.208 423.804 209.869 422.424 211.312L422.368 211.368C419.14 214.62 416.044 216.288 413.288 216.288ZM407.92 203.488C407.592 203.646 407.308 203.876 407.084 204.16C406.86 204.444 406.704 204.775 406.624 205.128C406.56 205.461 406.568 205.804 406.652 206.132C406.736 206.461 406.892 206.767 407.108 207.028L407.36 207.408L407.056 207.636C406.76 207.849 406.528 208.143 406.388 208.481C406.252 208.821 406.212 209.192 406.276 209.552C406.328 209.777 406.428 209.989 406.564 210.175C406.7 210.361 406.876 210.516 407.076 210.632L407.216 210.696L407.284 210.84C408.608 213.808 410.416 214.84 411.376 215.16C414.272 216.188 417.972 214.64 421.776 210.796L421.828 210.744C423.2 209.308 424.316 207.647 425.128 205.832L425.232 205.608H425.476C431.172 205.399 436.748 203.913 441.796 201.26C446.596 198.708 455.28 192.78 459.508 181.704C464.764 167.944 459.368 155.816 456.772 149.988L456.696 149.816C454.296 144.448 450.66 136.352 445.592 136.352H445.512C443.456 136.388 441.228 137.716 439.236 140.096C436.104 143.84 434.436 149.084 435.104 153.152C435.452 155.332 436.344 156.612 437.964 158.936C439.704 161.394 441.316 163.941 442.792 166.568C444.564 169.734 446.168 172.994 447.592 176.332L447.664 176.5L447.58 176.664C445.084 181.676 442.016 185.9 438.464 189.212C437.072 190.528 434.932 192.272 430.664 195.744C428.336 197.636 426.172 199.376 424.572 200.648L424.368 200.808L424.14 200.688C422.3 199.717 420.344 198.985 418.32 198.508L418.12 198.464C413.264 197.42 412.58 198.02 412.484 198.228C412.256 198.684 413.284 200.104 415.64 201.972L416.22 202.432L415.516 202.668C414.32 203.114 413.016 203.17 411.788 202.828C411.396 202.69 411.02 202.517 410.66 202.312C410.132 202.028 409.836 201.884 409.46 201.956C408.992 202.052 408.56 202.496 408.176 203.276L408.076 203.484L407.92 203.488Z" fill="#161616"/>
<path d="M407.657 202.5C407.765 201.928 408.681 202.048 408.557 202.656C408.033 205.156 412.272 205.923 413.904 205.687C414.476 205.579 414.577 206.488 414.017 206.572C411.789 206.864 407.033 205.656 407.657 202.5Z" fill="#161616"/>
<path d="M406.148 207.348C405.864 206.876 406.588 206.304 406.892 206.824C408.292 209.036 411.516 209.6 413.996 209.544C414.576 209.524 414.688 210.404 414.108 210.424C411.308 210.52 407.708 209.888 406.148 207.348Z" fill="#161616"/>
<path d="M406.448 211.332C406.076 210.868 406.82 210.348 407.196 210.812C407.984 211.717 409.004 212.391 410.144 212.762C411.284 213.134 412.504 213.188 413.676 212.92C414.264 212.772 414.364 213.688 413.792 213.8C412.46 214.085 411.072 214.006 409.78 213.572C408.488 213.138 407.336 212.364 406.448 211.332Z" fill="#161616"/>
<path opacity="0.18" d="M449.04 137.116C451.44 138.296 452.736 140.316 454.64 144.316C457.308 149.868 458.696 152.716 460.036 157.916C461.56 163.688 462.376 166.968 462.216 171.42C461.792 181.632 456.344 188.864 454.424 191.344C450.932 195.897 446.428 199.578 441.272 202.096C436.58 204.292 431.388 205.272 429.62 205.624C427.852 205.976 426.464 206.144 425.404 206.268C424.532 208.136 421.924 213.096 416.664 214.968C416.112 215.128 411.064 216.876 409.224 214.824C408.776 214.332 408.88 213.98 408.052 212.712C406.78 210.712 405.524 209.852 405.652 209.644C405.78 209.436 407.376 210.76 409.444 211.368C413.044 212.436 416.46 210.848 417.34 210.428C420.236 209.027 422.524 206.619 423.776 203.656C429.66 202.705 435.272 200.504 440.236 197.2C443.568 195.004 452.692 188.836 455.548 177.536C457.88 168.428 454.9 160.38 453.44 156.436C449.24 145.024 441.532 138.94 443.34 136.716C444.332 135.488 447.412 136.3 449.04 137.116Z" fill="#6D6C6C"/>
<path opacity="0.18" d="M460.7 179.24C460.38 180.42 455.428 197.024 439.032 203.388C434.56 205.11 429.784 205.895 424.996 205.696C429.452 205.112 438.856 203.18 447.396 195.8C451.82 191.928 455.368 187.155 457.796 181.8C460.3 176.373 461.64 170.481 461.724 164.504C462.396 169.434 462.048 174.45 460.7 179.24Z" fill="#6D6C6C"/>
<path d="M412.932 119.512C413.976 122.682 414.628 125.968 414.872 129.296C415.048 132.02 414.968 134.755 414.628 137.464C417.5 138.112 418.928 138.188 423.256 138.024C430.572 137.744 433.064 135.848 436.584 134.188C435.028 131.583 433.612 128.898 432.34 126.144C428.9 118.704 428.012 113.972 425.584 105.844C425.948 101.772 409.048 119.028 412.932 119.512Z" fill="white"/>
<path d="M420.196 138.496C418.292 138.524 416.392 138.309 414.54 137.856L414.188 137.776L414.232 137.416C414.568 134.732 414.648 132.023 414.472 129.324C414.236 126.104 413.616 122.924 412.62 119.852C412.384 119.772 412.188 119.608 412.064 119.39C411.944 119.173 411.908 118.918 411.964 118.676C412.312 115.588 422.884 104.588 425.272 104.828C425.456 104.828 426.028 104.972 425.988 105.8C426.576 107.772 427.068 109.52 427.544 111.208C428.984 116.34 430.124 120.408 432.7 125.976C433.968 128.714 435.38 131.384 436.928 133.976L437.156 134.376L436.756 134.564C436.204 134.824 435.68 135.088 435.156 135.364C432.384 136.76 429.52 138.208 423.264 138.448C422.052 138.472 421.056 138.496 420.196 138.496ZM415.072 137.152C417.624 137.708 419.044 137.784 423.24 137.624C429.32 137.392 431.98 136.048 434.8 134.624C435.2 134.424 435.6 134.224 436 134.02C434.976 132.288 433.508 129.644 431.96 126.312C429.352 120.672 428.208 116.588 426.76 111.424C426.28 109.716 425.784 107.956 425.188 105.96V105.884V105.808C425.2 105.746 425.2 105.682 425.188 105.62C424.68 105.524 422.332 107.06 418.748 110.716C414.656 114.892 412.5 118.208 412.776 119.004C412.776 119.032 412.808 119.092 412.988 119.116L413.24 119.144L413.32 119.388C414.376 122.589 415.032 125.907 415.28 129.268C415.448 131.897 415.38 134.536 415.072 137.152Z" fill="#161616"/>
<path opacity="0.22" d="M424.252 107.5C424.676 107.211 425.08 106.887 425.452 106.532C425.936 108.228 426.704 110.776 427.636 113.852C428.12 115.548 429.172 118.984 429.656 120.44C431.28 125.153 433.48 129.649 436.208 133.824C434.488 134.9 432.64 135.756 430.708 136.372C428.432 137.093 426.06 137.461 423.672 137.464C422.492 127.866 419.792 118.517 415.672 109.768C416.016 109.959 416.412 110.043 416.804 110.008C417.772 109.888 418.54 108.916 418.54 108.916C418.54 108.916 418.3 109.08 418.34 109.2C418.38 109.404 419.308 109.404 419.94 109.32C421.516 109.121 423.008 108.491 424.252 107.5Z" fill="#6D6C6C"/>
<path d="M421.52 112.712L417.852 89.1602L405.96 89.7482C401.612 90.4242 396.98 99.0322 397.676 103.5L398.428 108.328L395.94 114.628C395.853 114.807 395.816 115.007 395.835 115.205C395.853 115.403 395.925 115.593 396.043 115.753C396.161 115.913 396.322 116.037 396.506 116.113C396.69 116.188 396.891 116.211 397.088 116.18L399.588 115.78L400.196 119.668C400.996 124.896 405.796 128.488 410.88 127.696C417.876 126.62 422.64 119.904 421.52 112.712Z" fill="white"/>
<path d="M409.475 128.22C407.119 128.187 404.851 127.316 403.079 125.763C401.303 124.21 400.143 122.076 399.799 119.744L399.255 116.248L397.151 116.576C396.883 116.618 396.607 116.585 396.356 116.482C396.104 116.378 395.885 116.208 395.723 115.989C395.561 115.77 395.463 115.512 395.437 115.241C395.412 114.97 395.461 114.697 395.579 114.452L397.999 108.284L397.279 103.56C396.551 98.9 401.331 90.0641 405.899 89.3521H405.939L418.191 88.748L421.915 112.652C422.483 116.191 421.643 119.811 419.571 122.736C418.567 124.166 417.287 125.379 415.803 126.302C414.319 127.226 412.667 127.84 410.939 128.108C410.455 128.183 409.967 128.22 409.475 128.22ZM399.923 115.332L400.591 119.62C401.371 124.62 405.955 128.068 410.815 127.316C412.435 127.063 413.991 126.486 415.383 125.619C416.775 124.751 417.979 123.612 418.919 122.268C420.871 119.514 421.659 116.104 421.123 112.772L417.523 89.572L405.999 90.148C401.879 90.8 397.407 99.2001 398.067 103.44L398.839 108.376L396.312 114.776C396.25 114.893 396.223 115.024 396.231 115.156C396.241 115.287 396.287 115.413 396.363 115.52C396.439 115.622 396.54 115.702 396.657 115.75C396.775 115.798 396.903 115.812 397.027 115.792L399.923 115.332Z" fill="#161616"/>
<path d="M402.399 90.8C411.235 85.876 415.507 84.888 415.507 84.888C418.087 83.488 421.635 83.888 424.351 84.548C427.783 85.384 430.943 87.248 432.987 90.128C439.115 98.76 431.507 109.728 431.507 109.728L432.035 120.324C423.487 121.656 418.003 113.104 418.003 113.104L416.043 97.084L415.963 97.032L413.015 92.2L407.983 91.996C407.983 91.996 393.547 95.72 402.399 90.8Z" fill="#1A1A1A"/>
<path d="M396.72 99.936C402.5 101.5 410.668 95.844 413.42 93.608C414.264 98.696 412.644 100.944 417.2 106.64C417.2 106.64 424 93.02 422.964 91.084C423 91.052 424.12 90.86 424.12 90.86C424.12 90.86 421.6 83.2 414.704 81.88C414.044 81.7268 413.356 81.7816 412.728 82.0364C412.1 82.2916 411.568 82.734 411.204 83.304C410.972 83.668 410.884 84.1064 410.96 84.532C406.716 82.78 395.608 82.092 392.536 86.028C388.18 91.6 392.064 98.996 396.72 99.936Z" fill="#1A1A1A"/>
<path d="M418.108 113.392C422.032 115.032 426.672 104.068 422.812 102.248C418.952 100.428 417.444 105.148 417.444 105.148L416.92 108.704L417.832 112.332L417.8 113.424L418.108 113.392Z" fill="white"/>
<path d="M403.571 109.032C403.411 108.777 403.291 108.501 403.211 108.212C403.167 108.036 403.131 107.856 403.111 107.676C403.111 107.488 403.163 107.38 402.987 107.296C402.743 107.2 402.935 107.468 402.987 107.576L403.103 108.048C403.139 108.196 403.307 108.876 403.179 109C403.291 108.944 403.411 108.912 403.519 108.856C403.639 108.952 403.667 108.944 403.607 108.832C403.547 108.72 403.543 108.692 403.519 108.604C403.447 108.446 403.387 108.283 403.339 108.116C403.243 107.802 403.243 107.466 403.339 107.152C403.367 107.037 403.351 106.916 403.291 106.813C403.235 106.71 403.135 106.634 403.023 106.602C402.911 106.569 402.787 106.582 402.683 106.638C402.579 106.693 402.499 106.787 402.463 106.9C402.335 107.379 402.335 107.884 402.463 108.364C402.567 108.764 402.747 109.392 403.095 109.648C403.167 109.707 403.255 109.748 403.347 109.768C403.439 109.788 403.535 109.788 403.623 109.765C403.715 109.742 403.799 109.699 403.871 109.639C403.943 109.578 404.003 109.502 404.039 109.416C404.275 108.98 404.139 108.296 404.039 107.816C404.007 107.342 403.819 106.893 403.503 106.54C403.431 106.477 403.347 106.43 403.259 106.4C403.167 106.371 403.075 106.36 402.979 106.368C402.883 106.377 402.795 106.405 402.711 106.45C402.627 106.496 402.555 106.557 402.495 106.632C401.895 107.376 402.399 108.784 402.827 109.492C403.039 109.972 403.835 109.524 403.555 109.032H403.571Z" fill="#0E0E0E"/>
<path d="M400.576 105.764C400.84 105.433 401.168 105.158 401.536 104.955C401.908 104.752 402.316 104.626 402.736 104.583C403.16 104.541 403.584 104.583 403.988 104.708C404.392 104.832 404.768 105.036 405.092 105.308C405.416 105.604 405.92 105.104 405.576 104.844C405.176 104.501 404.708 104.244 404.204 104.087C403.7 103.929 403.168 103.876 402.644 103.929C402.12 103.983 401.608 104.142 401.148 104.398C400.684 104.653 400.28 105 399.956 105.416C399.728 105.756 400.316 106.112 400.576 105.764Z" fill="#0E0E0E"/>
<path d="M401.076 121.124C402.988 120.535 404.692 119.417 405.996 117.9C406.272 117.568 405.816 117.08 405.512 117.416C404.296 118.856 402.692 119.92 400.892 120.484C400.468 120.576 400.648 121.244 401.076 121.124Z" fill="#0E0E0E"/>
<path d="M225.724 62.604C208.5 62.604 194.524 72.884 194.524 85.568C194.543 88.922 195.501 92.2036 197.292 95.04L193.2 107.64L208.052 104.492C213.546 107.202 219.599 108.587 225.724 108.536C242.952 108.536 256.924 98.252 256.924 85.568C256.924 72.884 242.952 62.604 225.724 62.604Z" fill="white"/>
<path d="M225.96 62.3039C220.209 62.2719 214.514 63.4507 209.248 65.7639C204.748 67.7919 200.552 70.7719 197.648 74.8039C194.88 78.6359 193.48 83.3359 194.128 88.0519C194.352 89.6663 194.796 91.2427 195.448 92.7359C195.747 93.5223 196.133 94.2727 196.6 94.9719C196.756 95.1759 196.724 95.0839 196.684 95.2879C196.577 95.7223 196.443 96.1499 196.284 96.5679L195.572 98.7439C194.62 101.672 193.572 104.588 192.708 107.544C192.708 107.604 192.668 107.66 192.648 107.72C192.552 108.02 193.2 107.912 193.296 107.892L206.316 105.132L208.148 104.732H207.612C215.044 108.48 223.74 109.564 231.932 108.332C238.732 107.312 245.532 104.612 250.648 99.8879C254.98 95.8879 257.848 90.3399 257.492 84.3279C257.116 78.2519 253.452 72.9679 248.716 69.3639C243.004 65.0599 235.868 62.8559 228.8 62.3999C227.856 62.3399 226.908 62.3079 225.964 62.3039C225.744 62.3039 225.312 62.3879 225.196 62.6079C225.08 62.8279 225.296 62.8999 225.496 62.8999C234.428 62.8999 243.868 65.7399 250.296 72.1679C253.009 74.7891 254.94 78.1131 255.872 81.7679C256.708 85.3803 256.364 89.1651 254.892 92.5679C251.584 100.288 243.62 105.064 235.768 107.048C230.764 108.289 225.57 108.57 220.46 107.876C217.762 107.52 215.109 106.881 212.544 105.968C211.317 105.527 210.115 105.018 208.944 104.444C208.657 104.255 208.307 104.183 207.968 104.244L207.772 104.284L193.552 107.296L193.132 107.384L193.776 107.556L196.196 100.124L197.596 95.8279C197.724 95.5551 197.818 95.2679 197.876 94.9719C197.866 94.8575 197.822 94.7487 197.748 94.6599C197.524 94.2839 197.312 93.9039 197.112 93.5159C196.746 92.8011 196.425 92.0635 196.152 91.3079C195.313 88.9403 194.991 86.4199 195.208 83.9175C195.426 81.4147 196.177 78.9875 197.412 76.7999C199.712 72.6759 203.412 69.4719 207.524 67.2279C212.384 64.6471 217.759 63.1823 223.256 62.9399C224 62.9039 224.748 62.8839 225.492 62.8839C225.712 62.8839 226.144 62.7999 226.26 62.5799C226.376 62.3599 226.16 62.3039 225.96 62.3039Z" fill="black"/>
<g opacity="0.34">
<path opacity="0.34" d="M222.92 85.9679C223.636 84.9475 224.463 84.0083 225.384 83.1679C225.922 82.6711 226.425 82.1363 226.888 81.5679C227.188 81.1947 227.354 80.7311 227.36 80.2519C227.367 79.9679 227.299 79.6871 227.162 79.4383C227.025 79.1895 226.824 78.9815 226.58 78.8359C225.987 78.4727 225.299 78.2931 224.604 78.3199C223.724 78.3207 222.864 78.5855 222.136 79.0799C221.797 79.2979 221.483 79.5527 221.2 79.8399C220.897 80.1731 220.494 80.3987 220.052 80.4839C219.61 80.5691 219.153 80.5087 218.748 80.3119L215.092 78.4839C214.813 78.3463 214.57 78.1471 214.379 77.9015C214.189 77.6559 214.056 77.3707 213.991 77.0667C213.927 76.7627 213.932 76.4479 214.006 76.1463C214.08 75.8443 214.221 75.5635 214.42 75.3239C215.389 74.1927 216.56 73.2499 217.872 72.5439C220.021 71.3679 222.672 70.7787 225.824 70.7759C229.168 70.7759 231.883 71.4615 233.968 72.8319C234.953 73.4371 235.761 74.2919 236.31 75.3099C236.858 76.3275 237.128 77.4723 237.092 78.6279C237.114 79.6671 236.911 80.6991 236.496 81.6519C236.14 82.4487 235.661 83.1843 235.076 83.8319C234.417 84.5239 233.717 85.1759 232.98 85.7839C232.305 86.3527 231.672 86.9707 231.088 87.6319C230.97 87.7747 230.867 87.9291 230.78 88.0919C230.606 88.4251 230.344 88.7043 230.022 88.8991C229.701 89.0935 229.332 89.1963 228.956 89.1959H224.628C224.258 89.1971 223.895 89.0987 223.577 88.9115C223.258 88.7243 222.996 88.4551 222.817 88.1319C222.638 87.8087 222.549 87.4431 222.559 87.0739C222.569 86.7047 222.679 86.3447 222.876 86.0319L222.92 85.9679ZM222.4 99.1999C221.913 98.7595 221.526 98.2199 221.264 97.6179C221.001 97.0159 220.871 96.3647 220.88 95.7079C220.865 95.0531 220.993 94.4023 221.255 93.8019C221.518 93.2015 221.909 92.6655 222.4 92.2319C223.507 91.3415 224.885 90.8559 226.306 90.8559C227.727 90.8559 229.105 91.3415 230.212 92.2319C230.703 92.6655 231.094 93.2015 231.357 93.8019C231.619 94.4023 231.747 95.0531 231.732 95.7079C231.741 96.3647 231.61 97.0159 231.348 97.6179C231.086 98.2199 230.699 98.7595 230.212 99.1999C229.124 100.133 227.739 100.645 226.306 100.645C224.873 100.645 223.487 100.133 222.4 99.1999Z" fill="#2C2C2C"/>
</g>
<path d="M345.776 72.7637C363 72.7637 376.976 83.0477 376.976 95.7317C376.955 99.0857 375.991 102.366 374.196 105.2L378.3 117.8L363.452 114.656C357.957 117.364 351.903 118.749 345.776 118.7C328.548 118.7 314.576 108.416 314.576 95.7317C314.576 83.0477 328.548 72.7637 345.776 72.7637Z" fill="white"/>
<path d="M345.54 73.0603C351.196 73.0307 356.79 74.2259 361.94 76.5643C366.312 78.6003 370.34 81.6123 373.092 85.6203C374.466 87.5759 375.434 89.7867 375.94 92.1223C376.446 94.4583 376.478 96.8715 376.036 99.2203C375.712 100.791 375.182 102.312 374.46 103.744C374.264 104.144 374.06 104.516 373.836 104.888C373.752 105.028 373.612 105.18 373.612 105.344C373.628 105.432 373.656 105.517 373.696 105.596L374.86 109.196L376.548 114.372C376.916 115.5 377.228 116.668 377.656 117.772C377.68 117.832 377.696 117.892 377.716 117.952L378.656 117.508L364.96 114.608L364.012 114.408C363.538 114.349 363.059 114.461 362.66 114.724C360.305 115.867 357.83 116.743 355.28 117.336C350.076 118.553 344.683 118.735 339.408 117.872C331.164 116.54 322.644 112.488 318.048 105.24C316.031 102.107 315.036 98.4263 315.2 94.7043C315.457 90.9555 316.838 87.3715 319.164 84.4203C324.504 77.4803 333.38 73.9803 341.892 73.2203C343.092 73.1123 344.332 73.0643 345.552 73.0603C345.776 73.0603 346.204 72.9803 346.32 72.7603C346.436 72.5403 346.22 72.4683 346.02 72.4683C338.728 72.4683 331.272 74.2563 325.076 78.1923C319.956 81.4363 315.6 86.3163 314.356 92.4003C313.156 98.2723 315.208 104.136 319.132 108.54C323.648 113.612 330.12 116.684 336.68 118.092C344.836 119.849 353.33 119.138 361.08 116.048C362 115.672 362.902 115.26 363.784 114.812L363.072 114.96L376.096 117.716L377.924 118.116C378.116 118.156 378.972 118.008 378.864 117.672L376.4 110L375.02 105.768C374.964 105.596 374.9 105.42 374.852 105.244C374.835 105.185 374.835 105.123 374.852 105.064C374.876 104.9 375.076 104.688 375.16 104.536L375.412 104.08C375.616 103.7 375.812 103.312 375.984 102.916C376.314 102.186 376.596 101.435 376.828 100.668C377.529 98.2767 377.722 95.7651 377.394 93.2947C377.066 90.8243 376.225 88.4499 374.924 86.3243C372.448 82.1923 368.628 79.0283 364.4 76.8003C359.394 74.2355 353.892 72.7835 348.272 72.5443C347.528 72.5083 346.784 72.4883 346.036 72.4883C345.816 72.4883 345.384 72.5723 345.268 72.7923C345.152 73.0123 345.34 73.0603 345.54 73.0603Z" fill="black"/>
<path opacity="0.34" d="M365.172 86.7041H327.716V90.9601H365.172V86.7041Z" fill="#2C2C2C"/>
<path opacity="0.34" d="M365.172 93.48H327.716V97.736H365.172V93.48Z" fill="#2C2C2C"/>
<path opacity="0.34" d="M365.172 100.504H327.716V104.76H365.172V100.504Z" fill="#2C2C2C"/>
<path d="M162.8 145.904C165.016 138.448 171.18 140.108 171.18 140.108C175.752 140.868 192.66 153.928 202.256 163.6C206.16 154.884 213.72 142.62 218.656 136.42C223.22 129.104 234.352 127.028 235.456 126.928C238.32 126.68 239.648 126.384 239.856 126.768C240.064 127.152 240.78 129.7 236.624 130.196C231.424 130.824 234.872 134.996 245.452 131.024C248.1 130.032 253.084 131.32 251.284 133.256C249.284 135.388 243.588 140.224 231.336 140.968C228.768 141.128 225.44 139.928 224.232 141.9C220.632 148.632 213.86 175.348 206.412 178.508C201.532 180.58 168.532 157.28 168.532 157.28C168.532 157.28 160.8 152.56 162.8 145.904Z" fill="white"/>
<path d="M205.684 179.02C198.828 179.02 171.52 159.888 168.284 157.604C168.228 157.568 160.352 152.664 162.396 145.792C164.696 138.052 171.196 139.704 171.264 139.72C175.928 140.496 192.684 153.516 202.112 162.92C206.196 153.98 213.712 142.008 218.284 136.216C222.744 129.072 233.464 126.708 235.388 126.54C236.164 126.472 236.828 126.4 237.388 126.34C239.208 126.144 239.892 126.068 240.188 126.572C240.352 126.908 240.437 127.278 240.437 127.652C240.437 128.026 240.352 128.395 240.188 128.732C239.68 129.756 238.496 130.384 236.668 130.604C235.216 130.776 234.704 131.204 234.636 131.404C234.636 131.432 234.6 131.516 234.752 131.66C235.6 132.484 239.22 132.936 245.308 130.652C247.476 129.852 250.952 130.416 251.836 131.736C252.056 132.064 252.312 132.736 251.572 133.532C249.136 136.148 243.268 140.648 231.356 141.372C230.517 141.399 229.678 141.364 228.844 141.268C227.012 141.104 225.284 140.948 224.568 142.112C223.488 144.112 222.096 148.028 220.484 152.548C216.66 163.272 211.9 176.616 206.564 178.88C206.283 178.986 205.984 179.033 205.684 179.02ZM163.16 146.02C161.296 152.3 168.648 156.892 168.724 156.936C177.876 163.396 202.408 179.768 206.24 178.136C211.252 176.008 216.148 162.288 219.72 152.272C221.344 147.72 222.744 143.788 223.864 141.708C224.848 140.108 226.912 140.284 228.904 140.464C229.701 140.555 230.503 140.59 231.304 140.568C242.936 139.856 248.628 135.508 250.98 132.968C251.404 132.516 251.236 132.268 251.168 132.168C250.548 131.244 247.5 130.672 245.568 131.392C239.504 133.664 235.408 133.416 234.176 132.224C234.023 132.093 233.911 131.921 233.854 131.727C233.797 131.534 233.798 131.329 233.856 131.136C234.088 130.452 235.056 129.972 236.556 129.792C238.056 129.612 239.076 129.116 239.452 128.36C239.552 128.149 239.609 127.919 239.617 127.685C239.626 127.451 239.588 127.218 239.504 127C238.822 126.967 238.138 127.008 237.464 127.12C236.9 127.18 236.232 127.252 235.464 127.32C235.352 127.32 223.8 129.048 219.036 136.52V136.544L218.936 136.672C214.284 142.528 206.612 154.816 202.6 163.768L202.364 164.3L201.964 163.9C191.832 153.688 175.396 141.236 171.108 140.52C170.832 140.448 165.248 139.06 163.172 146.04L163.16 146.02Z" fill="#0E0E0E"/>
<g opacity="0.31">
<path opacity="0.31" d="M236.608 130.192C236.247 130.235 235.89 130.306 235.54 130.404C235.336 129.804 236.136 129.204 237.976 129.092C238.545 129.07 239.11 128.976 239.656 128.812C239.224 129.424 238.336 130 236.608 130.192Z" fill="#404040"/>
<path opacity="0.31" d="M162.8 145.904C162.904 145.544 163.024 145.208 163.152 144.888C164.312 148.976 168.316 151.792 168.316 151.792C168.316 151.792 199.768 177.144 204.772 175.392C212.404 172.712 220.84 146.48 224.88 139.992C226.212 138.1 229.46 139.508 232.032 139.516C238.788 139.516 243.632 138.188 246.996 136.644C243.748 138.58 238.74 140.524 231.34 140.972C228.772 141.132 225.444 139.932 224.236 141.904C220.636 148.636 213.864 175.352 206.416 178.512C201.536 180.584 168.536 157.284 168.536 157.284C168.536 157.284 160.8 152.56 162.8 145.904Z" fill="#404040"/>
</g>
<path d="M170.252 370.4C192.612 381.228 201 384.432 202.404 382.128C203.568 380.24 197.624 373.872 184.484 363.04L191.2 346.752C193.228 342.752 192.424 338.032 189.34 335.28C188.007 334.136 186.374 333.398 184.634 333.153C182.895 332.908 181.122 333.166 179.524 333.896C175.272 345.716 174.496 358.592 170.252 370.4Z" fill="#191919"/>
<path d="M133.128 376.224C156.768 378.3 168.808 378.116 169.28 375.584C169.68 373.504 162.208 369.836 146.796 364.624C146.952 359.024 147.104 353.388 147.256 347.792C147.716 343.548 145.392 339.592 141.7 338.192C140.121 337.624 138.412 337.52 136.776 337.892C135.139 338.263 133.643 339.094 132.464 340.288C132.728 352.268 132.944 364.224 133.128 376.224Z" fill="#191919"/>
<path d="M173.68 355.556L189.576 357.904L200.024 295.44C200.449 292.926 200.471 290.361 200.092 287.84C196.092 261.552 176.308 213.728 176.308 213.728L151.484 222.44L150.88 245.912L180.772 296.524C176.876 306.312 174.212 337.96 173.68 355.556Z" fill="white"/>
<path d="M189.908 358.356L173.272 355.9V355.544C173.832 336.94 176.588 306.236 180.32 296.56L150.476 246L151.092 222.136L151.352 222.048L176.532 213.248L176.676 213.596C176.876 214.076 196.532 261.768 200.488 287.804C200.871 290.36 200.848 292.96 200.42 295.508L189.908 358.356ZM174.092 355.2L189.248 357.436L199.628 295.356C200.046 292.892 200.069 290.376 199.696 287.904C195.936 263.144 177.884 218.64 176.096 214.232L151.888 222.712L151.296 245.792L181.2 296.492L181.128 296.672C177.432 306 174.676 336.516 174.092 355.2Z" fill="#0E0E0E"/>
<path opacity="0.31" d="M195.344 295.436C195.767 292.93 195.789 290.373 195.412 287.86C191.836 264.324 175.6 223.528 172.24 215.244L176.508 213.748C176.508 213.748 196.3 261.572 200.292 287.86C200.671 290.373 200.649 292.93 200.224 295.436L189.78 357.904L185.016 357.2L195.344 295.436Z" fill="#404040"/>
<path d="M161.392 215.512C161.168 213.964 161.092 213.484 159.792 212.712L135.952 205.952L130.276 211.552C124.904 231.06 128.232 258.204 132.472 279.744C126.276 298.4 128.704 336.8 131.2 354.876H148.152C149.14 342.8 148.832 320.4 148.908 309.6C151.1 300.908 153.22 291.636 155.112 281.88C157.532 269.42 160.56 257.344 161.392 246.044C162.152 235.312 162.376 223.816 161.392 215.512Z" fill="white"/>
<path d="M148.524 355.276H130.856L130.808 354.932C128.116 335.456 126.084 297.86 132.072 279.732C126.276 250.244 125.548 227.276 129.904 211.46L129.932 211.356L135.852 205.516L160 212.368C161.452 213.24 161.548 213.888 161.776 215.452C162.648 222.828 162.648 233.692 161.776 246.048C161.152 254.528 159.324 263.3 157.376 272.588C156.74 275.636 156.084 278.792 155.472 281.932C153.732 290.912 151.644 300.228 149.276 309.628C149.276 312.064 149.276 315.02 149.276 318.428C149.276 329.864 149.296 345.524 148.532 354.884L148.524 355.276ZM131.552 354.476H147.784C148.516 345.112 148.504 329.724 148.496 318.452C148.496 315.008 148.496 312.052 148.496 309.588V309.492C150.868 300.092 152.952 290.772 154.696 281.792C155.308 278.644 155.964 275.488 156.6 272.436C158.528 263.176 160.352 254.436 160.972 246.004C161.84 233.7 161.84 222.888 160.972 215.564C160.752 214.068 160.704 213.74 159.62 213.08L136.08 206.4L130.648 211.76C126.352 227.468 127.1 250.316 132.876 279.664L132.896 279.768L132.864 279.868C126.912 297.74 128.888 334.944 131.552 354.476Z" fill="#0E0E0E"/>
<path opacity="0.31" d="M130.604 211.552L136.28 205.952L160.12 212.712C161.408 213.488 161.484 213.968 161.72 215.512C161.72 215.576 161.72 215.64 161.74 215.708L141.048 209.84L135.372 215.44C130 234.948 133.328 262.092 137.568 283.632C131.776 301.024 133.504 335.632 135.788 354.872H131.52C129.024 336.8 126.596 298.4 132.8 279.744C128.564 258.204 125.232 231.06 130.604 211.552Z" fill="#404040"/>
<path d="M133.004 183.724C132.672 176.768 132.76 169.364 132.644 164.412L131.068 165.156L113.94 150.428C116.188 146.648 122.676 139.9 131.328 136.916L131.464 136.888C136.016 135.524 142.52 134.54 139.464 135.188L144.772 134.06L149.732 137.6C151.561 138.91 153.788 139.547 156.033 139.401C158.278 139.255 160.404 138.336 162.048 136.8C162.048 136.8 170.552 138.128 174.1 139.2C174.1 139.2 182.448 142.852 188.672 147.524L180.776 167.416L176.848 165.528L176.16 193.68C176.16 193.68 176.2 213.28 177.252 215.516C151.392 225.46 128.852 218.112 128.852 218.112C128.916 215.336 128.608 207.732 131.252 198.664C132.656 193.815 133.248 188.767 133.004 183.724Z" fill="white"/>
<path d="M148.868 221.096C136.936 221.096 128.868 218.536 128.72 218.492L128.436 218.4V218.104C128.436 217.776 128.436 217.38 128.436 216.904C128.456 213.552 128.496 206.58 130.836 198.536C132.233 193.733 132.825 188.732 132.588 183.736C132.368 179.14 132.332 174.396 132.3 170.208C132.3 168.344 132.272 166.576 132.244 165.008L130.988 165.6L113.408 150.484L113.58 150.196C115.836 146.404 122.252 139.728 130.78 136.648L130.76 136.596L131.352 136.456C133.448 135.828 135.868 135.312 137.12 135.064C139.296 134.628 140.004 134.528 140.288 134.56L144.84 133.592L149.94 137.244C151.696 138.496 153.83 139.104 155.982 138.965C158.134 138.826 160.172 137.948 161.752 136.48L161.868 136.372H162.024C162.252 136.372 170.744 137.748 174.188 138.772H174.236C174.32 138.808 182.696 142.496 188.888 147.14L189.136 147.324L180.964 167.9L177.208 166.092L176.536 193.636C176.536 199.052 176.756 213.524 177.592 215.296L177.776 215.696L177.376 215.852C168.275 219.331 158.612 221.109 148.868 221.096ZM129.248 217.82C131.916 218.62 153.016 224.268 176.752 215.28C175.808 211.728 175.76 194.448 175.76 193.68L176.464 164.88L180.564 166.852L188.188 147.652C182.252 143.252 174.436 139.78 173.96 139.568C170.76 138.616 163.448 137.432 162.176 137.232C160.455 138.768 158.263 139.674 155.96 139.8C153.657 139.927 151.379 139.267 149.5 137.928L144.7 134.48L139.66 135.552L139.564 135.572L139.54 135.468C136.858 135.917 134.203 136.517 131.588 137.264L131.468 137.3C123.152 140.168 116.848 146.56 114.472 150.352L131.144 164.688L133.044 163.792V164.404C133.084 166.096 133.1 168.096 133.116 170.212C133.148 174.392 133.184 179.132 133.4 183.712C133.645 188.799 133.043 193.891 131.62 198.78C129.316 206.716 129.276 213.612 129.256 216.928C129.256 217.256 129.252 217.552 129.248 217.82Z" fill="#0E0E0E"/>
<path opacity="0.31" d="M154.504 216.612C143.304 216.408 135.248 205.672 138.312 194.884C138.34 194.796 138.364 194.704 138.392 194.616C139.802 189.801 140.405 184.785 140.176 179.772C140.096 178.064 139.936 176.072 139.744 174.04C138.98 165.894 135.09 158.359 128.888 153.02C127.77 152.064 126.881 150.869 126.288 149.522C125.694 148.176 125.41 146.714 125.458 145.243C125.506 143.773 125.883 142.332 126.563 141.027C127.242 139.722 128.207 138.586 129.384 137.704L129.504 137.612C121.772 140.852 116.028 146.916 113.94 150.412L131.068 165.14L132.644 164.396C132.76 169.384 132.668 176.856 133.008 183.856C133.237 188.868 132.634 193.882 131.224 198.696C128.604 207.744 128.908 215.324 128.844 218.096C128.844 218.096 151.392 225.444 177.244 215.5C177.057 214.971 176.937 214.42 176.888 213.86C169.594 215.826 162.058 216.753 154.504 216.612Z" fill="#404040"/>
<path d="M103.52 168.196C110.388 157.512 115.98 152.196 115.98 152.196L128.76 163.184L117.16 175.752C116.87 175.963 116.565 176.155 116.248 176.324L126.448 194.324L128.424 195.124C128.424 195.124 130.16 191.124 132.652 191.248L132.332 195.212C132.332 195.212 133.532 199.436 141.092 198.94C147.54 200.404 143.028 203.464 144.812 204.692C147.448 206.496 140.06 210.936 133.836 209.02C126.944 206.9 122.12 201.02 120.872 199.38C104.528 188.58 101.612 182.02 101.428 176.648C101.336 173.668 101.932 170.668 103.52 168.196Z" fill="white"/>
<path d="M137.071 209.84C135.938 209.846 134.81 209.684 133.723 209.36C126.823 207.236 121.983 201.448 120.599 199.632C103.675 188.432 101.211 181.708 101.035 176.616C100.923 173.328 101.663 170.34 103.183 167.98L103.519 168.196L103.199 168C109.999 157.4 115.663 151.968 115.719 151.912L115.979 151.664L129.347 163.16L117.427 176.076C117.233 176.221 117.03 176.354 116.819 176.476L126.751 193.988L128.247 194.588C128.759 193.564 130.395 190.712 132.695 190.82L133.095 190.84L132.751 195.136C132.935 195.648 134.387 198.956 141.075 198.512H141.131H141.191C143.091 198.944 144.267 199.564 144.791 200.412C145.315 201.26 145.099 202.168 144.923 202.896C144.723 203.696 144.679 204.068 145.051 204.324C145.382 204.517 145.624 204.832 145.725 205.202C145.825 205.571 145.778 205.966 145.591 206.3C144.739 208.048 140.999 209.84 137.071 209.84ZM115.999 152.724C114.823 153.904 109.791 159.176 103.855 168.412C102.423 170.636 101.727 173.464 101.855 176.592C102.023 181.484 104.443 187.972 121.119 198.992L121.175 199.032L121.219 199.084C122.507 200.788 127.239 206.512 133.979 208.584C138.739 210.052 144.043 207.68 144.887 205.936C144.938 205.856 144.971 205.766 144.985 205.672C144.999 205.578 144.993 205.483 144.967 205.392C144.941 205.3 144.897 205.215 144.836 205.142C144.776 205.069 144.701 205.01 144.615 204.968C143.751 204.376 143.967 203.48 144.159 202.692C144.323 202.02 144.479 201.384 144.127 200.816C143.727 200.18 142.711 199.664 141.083 199.288C133.355 199.772 132.027 195.452 131.975 195.268L131.955 195.2L132.243 191.62C130.271 191.948 128.835 195.196 128.819 195.22L128.663 195.576L126.195 194.592L115.727 176.136L116.083 175.94C116.373 175.786 116.652 175.614 116.919 175.424L128.183 163.2L115.999 152.724Z" fill="#0E0E0E"/>
<g opacity="0.24">
<path opacity="0.24" d="M103.116 168.196C109.984 157.512 115.576 152.196 115.576 152.196L116.856 153.292C113.344 156.856 110.066 160.644 107.044 164.632C105.264 166.968 104.428 169.912 104.296 172.848C104.048 178.216 106.428 184.976 121.856 197.06C122.968 198.808 127.304 205.06 134.004 207.712C137.56 209.124 141.688 208.384 144.004 207.128C142.052 208.788 137.508 210.236 133.456 208.988C126.564 206.868 121.74 200.988 120.492 199.348C104.148 188.548 101.236 181.988 101.048 176.616C100.932 173.668 101.528 170.668 103.116 168.196Z" fill="#404040"/>
</g>
<path d="M157.152 120.568C153.596 125.672 153.108 133.692 157.552 138.22C160.076 140.832 163.388 141.42 164.784 141.532C165.484 141.592 171.076 142.048 174.692 137.976C178.368 133.844 177.184 128.284 176.728 126.156C176.512 125.216 174.508 115.796 167.824 114.732C162 113.82 157.576 120 157.152 120.568Z" fill="#2C2C2C"/>
<path d="M153.84 120.872C152.32 121.784 152.716 123.576 151.04 128.192C150.175 130.614 149.054 132.936 147.696 135.12C148.864 136.496 150.338 137.578 152 138.28C154.278 139.229 156.796 139.442 159.2 138.888C159.748 137.4 160.628 135.06 161.964 132.264C163.668 128.712 164.304 128.04 164.152 126.736C163.744 122.8 156.876 119.14 153.84 120.872Z" fill="white"/>
<path d="M156.52 139.6C154.785 139.601 153.07 139.226 151.495 138.499C149.92 137.773 148.521 136.713 147.396 135.392L147.208 135.172L147.36 134.924C148.704 132.765 149.811 130.468 150.664 128.072C151.161 126.695 151.576 125.29 151.908 123.864C152.308 122.192 152.564 121.18 153.632 120.54C155.08 119.716 157.448 119.952 159.808 121.156C162.476 122.52 164.34 124.7 164.56 126.708C164.684 127.784 164.328 128.48 163.472 130.164C163.168 130.764 162.788 131.508 162.336 132.456C160.912 135.428 159.98 137.96 159.584 139.044L159.508 139.248L159.296 139.296C158.384 139.499 157.454 139.601 156.52 139.6ZM148.196 135.08C149.291 136.309 150.648 137.277 152.168 137.912C154.3 138.805 156.654 139.025 158.916 138.544C159.356 137.344 160.268 134.924 161.62 132.092C162.076 131.14 162.46 130.388 162.764 129.788C163.592 128.164 163.868 127.62 163.772 126.78C163.584 125.032 161.884 123.096 159.452 121.852C157.328 120.768 155.256 120.524 154.04 121.216C153.292 121.668 153.096 122.368 152.684 124.044C152.343 125.495 151.921 126.925 151.42 128.328C150.581 130.684 149.501 132.947 148.196 135.08Z" fill="#0E0E0E"/>
<path d="M153.048 95.5003C151.072 97.7163 150.008 101 149.848 101.424C149.376 102.871 149.091 104.373 149 105.892C146.416 104.616 143.68 105.008 142.6 106.436C141.14 108.412 142.872 112 145.184 113.548C146.084 114.136 147.12 114.482 148.192 114.552C148.184 117.667 149.081 120.717 150.772 123.332C152.091 125.302 153.823 126.96 155.848 128.192C160.528 131.048 165.268 130.836 167.152 130.656C170.116 128.741 172.434 125.977 173.804 122.724C174.573 120.881 175.005 118.916 175.08 116.92C175.688 116.828 176.752 116.828 177.392 116.588C177.624 116.503 177.821 116.343 177.953 116.134C178.084 115.925 178.143 115.678 178.12 115.432C177.816 112.088 176.6 107.38 174.748 101.972C173.108 97.2003 172.256 94.7403 169.884 93.1003C165.08 89.7243 156.876 91.2443 153.048 95.5003Z" fill="white"/>
<path d="M165.2 131.148C161.83 131.177 158.519 130.273 155.632 128.536C153.554 127.272 151.779 125.568 150.432 123.544C148.759 120.972 147.844 117.98 147.792 114.912C146.777 114.801 145.804 114.447 144.956 113.88C143.3 112.734 142.147 110.998 141.732 109.028C141.623 108.545 141.615 108.044 141.708 107.557C141.802 107.071 141.995 106.609 142.276 106.2C143.476 104.624 146.148 104.268 148.652 105.292C148.779 103.933 149.055 102.591 149.476 101.292L149.516 101.184C150.608 98.0362 151.876 96.2042 152.748 95.2242C156.9 90.6082 165.336 89.4122 170.108 92.7642C172.588 94.4802 173.488 97.0922 175.116 101.832C177.04 107.432 178.216 112.136 178.512 115.388C178.543 115.721 178.464 116.056 178.285 116.339C178.106 116.622 177.838 116.838 177.524 116.952C176.962 117.124 176.379 117.221 175.792 117.24L175.456 117.272C175.346 119.198 174.91 121.092 174.168 122.872C172.77 126.199 170.4 129.027 167.368 130.984L167.284 131.036H167.188C166.584 131.112 165.916 131.148 165.2 131.148ZM145.848 105.516C144.532 105.516 143.448 105.976 142.908 106.68C142.698 107.003 142.554 107.365 142.486 107.744C142.417 108.123 142.424 108.512 142.508 108.888C142.897 110.637 143.929 112.177 145.4 113.2C146.242 113.754 147.214 114.077 148.22 114.136L148.588 114.168V114.536C148.575 117.574 149.45 120.549 151.104 123.096C152.388 125.019 154.078 126.637 156.056 127.836C159.354 129.795 163.196 130.637 167.012 130.236C169.873 128.372 172.11 125.693 173.432 122.544C174.181 120.744 174.604 118.825 174.68 116.876V116.544L175.008 116.496C175.208 116.468 175.452 116.444 175.72 116.424C176.232 116.407 176.74 116.326 177.232 116.184C177.381 116.132 177.509 116.032 177.595 115.9C177.681 115.767 177.721 115.61 177.708 115.452C177.416 112.252 176.256 107.628 174.352 102.072C172.728 97.3442 171.912 94.9682 169.644 93.4002C165.168 90.2562 157.244 91.4002 153.332 95.7402C152.508 96.6642 151.308 98.4042 150.26 101.424L150.224 101.532C149.764 102.942 149.485 104.404 149.396 105.884L149.36 106.492L148.82 106.22C147.896 105.764 146.882 105.523 145.852 105.516H145.848Z" fill="#0E0E0E"/>
<path d="M162.256 131.568C162.864 131.596 162.832 130.684 162.256 130.684C159.519 130.442 156.956 129.236 155.024 127.28C154.624 126.856 153.96 127.496 154.384 127.92C156.499 130.023 159.286 131.314 162.256 131.568Z" fill="#0E0E0E"/>
<path d="M161.8 132.324C161.917 132.352 162.04 132.333 162.142 132.27C162.245 132.208 162.318 132.107 162.346 131.99C162.374 131.873 162.355 131.75 162.292 131.648C162.229 131.546 162.129 131.472 162.012 131.444C159.061 130.638 156.39 129.03 154.296 126.8C153.896 126.376 153.26 127.012 153.656 127.436C155.873 129.78 158.69 131.471 161.8 132.328V132.324Z" fill="#0E0E0E"/>
<path d="M174.712 101.848C174.288 101.18 171.512 96.9563 166.312 96.2883C164.301 96.0367 162.259 96.3311 160.4 97.1403C159.246 99.3687 157.667 101.35 155.752 102.972C153.829 104.596 151.611 105.834 149.22 106.62C148.674 106.054 147.964 105.672 147.19 105.529C146.417 105.385 145.617 105.487 144.904 105.82C142.78 106.948 143.204 109.924 143.236 110.076C143.6 112.264 145.604 113.632 147.276 113.996C147.997 114.151 148.743 114.151 149.464 113.996C151.117 116.716 152.193 119.747 152.624 122.9C152.928 125.268 153.928 132.684 149.464 137.512C144.056 143.38 132.692 143.136 126.308 137.3C123.028 134.292 120.384 129.188 121.144 124.264C121.508 122.016 123.788 118.92 128.344 112.812C133.42 106.012 133.36 106.764 134.696 104.392C138.1 98.3923 137.34 95.4603 140.652 91.9043C142.633 89.8386 145.13 88.339 147.884 87.5602C151.016 86.011 154.532 85.4118 158 85.8362C160.515 86.1542 162.931 87.0154 165.08 88.3602C167.971 87.603 171.041 87.9598 173.68 89.3602C174.408 89.7602 178.816 92.1883 179.364 97.2603C179.848 102.032 176.536 105.284 176.112 105.66C175.656 104.372 175.168 103.096 174.712 101.848Z" fill="#2C2C2C"/>
<path d="M169.336 108.504C169.184 109.052 170.064 109.304 170.156 108.776C170.4 107.976 170.556 106.5 169.792 105.92C169.717 105.862 169.631 105.819 169.539 105.795C169.447 105.771 169.351 105.766 169.257 105.78C169.163 105.795 169.073 105.828 168.993 105.878C168.912 105.928 168.842 105.994 168.788 106.072C168.566 106.491 168.491 106.973 168.576 107.44C168.604 107.928 168.636 108.64 168.976 108.992C169.033 109.066 169.107 109.126 169.191 109.167C169.275 109.208 169.368 109.229 169.462 109.229C169.555 109.229 169.648 109.208 169.732 109.167C169.817 109.126 169.89 109.066 169.948 108.992C170.186 108.566 170.292 108.079 170.252 107.592C170.268 107.095 170.152 106.602 169.916 106.164C169.855 106.058 169.755 105.98 169.637 105.948C169.52 105.916 169.394 105.931 169.288 105.992C169.182 106.053 169.104 106.153 169.072 106.27C169.039 106.388 169.055 106.514 169.116 106.62C169.277 106.906 169.351 107.233 169.328 107.56C169.322 107.735 169.301 107.909 169.268 108.08C169.268 108.168 169.236 108.232 169.236 108.32C169.236 108.408 169.236 108.444 169.328 108.32C169.448 108.352 169.572 108.352 169.692 108.384C169.54 108.292 169.54 107.584 169.54 107.44V106.956C169.572 106.832 169.692 106.528 169.48 106.68C169.268 106.832 169.42 106.892 169.448 107.08C169.474 107.261 169.485 107.445 169.48 107.628C169.474 107.927 169.423 108.224 169.328 108.508L169.336 108.504Z" fill="#0E0E0E"/>
<path d="M171.46 104.616C171.796 104.888 172.284 104.4 171.98 104.128C171.565 103.8 171.088 103.56 170.577 103.423C170.066 103.285 169.532 103.253 169.009 103.327C168.485 103.402 167.982 103.583 167.53 103.858C167.078 104.133 166.687 104.497 166.38 104.928C166.108 105.26 166.712 105.624 166.956 105.26C167.206 104.919 167.522 104.63 167.885 104.413C168.248 104.195 168.651 104.052 169.07 103.993C169.489 103.934 169.916 103.959 170.325 104.067C170.734 104.176 171.118 104.365 171.452 104.624L171.46 104.616Z" fill="#0E0E0E"/>
<path d="M174.196 120.749C174.624 120.873 174.804 120.205 174.38 120.113C172.581 119.547 170.979 118.484 169.76 117.045C169.456 116.709 169 117.197 169.276 117.529C170.578 119.046 172.284 120.163 174.196 120.749Z" fill="#0E0E0E"/>
<path d="M169.364 111.453C169.362 111.499 169.37 111.546 169.386 111.59C169.403 111.634 169.429 111.673 169.462 111.707C169.495 111.74 169.535 111.766 169.579 111.783C169.622 111.8 169.669 111.807 169.716 111.805C169.763 111.803 169.809 111.791 169.851 111.77C169.892 111.749 169.93 111.719 169.96 111.683C169.989 111.647 170.011 111.605 170.024 111.559C170.036 111.514 170.039 111.467 170.032 111.421C170.039 111.333 170.023 111.245 169.986 111.165C169.948 111.085 169.892 111.016 169.82 110.965C169.742 110.929 169.655 110.916 169.57 110.927C169.484 110.937 169.404 110.971 169.336 111.025C169.28 111.084 169.244 111.159 169.232 111.239C169.22 111.32 169.233 111.403 169.269 111.476C169.305 111.549 169.363 111.609 169.434 111.649C169.506 111.688 169.587 111.705 169.668 111.697C169.755 111.671 169.828 111.612 169.872 111.533C169.916 111.454 169.928 111.361 169.904 111.273C169.881 111.186 169.824 111.111 169.747 111.065C169.669 111.018 169.576 111.004 169.488 111.025H169.456C169.548 111.025 169.64 111.057 169.728 111.057L169.852 111.177C169.88 111.241 169.88 111.301 169.912 111.361V111.393C169.88 111.453 169.852 111.481 169.82 111.545L169.792 111.573C169.728 111.605 169.668 111.605 169.608 111.633H169.64C169.58 111.605 169.516 111.605 169.456 111.573C169.396 111.393 169.364 111.361 169.364 111.453Z" fill="#0E0E0E"/>
<path d="M166.356 108.928C166.282 108.89 166.199 108.876 166.118 108.888C166.036 108.899 165.96 108.936 165.9 108.992C165.859 109.069 165.85 109.159 165.873 109.242C165.896 109.326 165.95 109.398 166.024 109.444C166.48 109.78 166.936 108.9 166.424 108.688C166.364 108.665 166.299 108.657 166.236 108.663C166.172 108.671 166.11 108.693 166.057 108.729C166.004 108.764 165.96 108.812 165.929 108.869C165.898 108.925 165.881 108.988 165.88 109.052C165.875 109.11 165.883 109.169 165.902 109.224C165.922 109.279 165.952 109.33 165.992 109.373C166.032 109.415 166.08 109.45 166.134 109.473C166.187 109.496 166.245 109.508 166.304 109.508C166.488 109.476 166.64 109.384 166.64 109.172C166.64 108.96 166.488 108.808 166.304 108.84H166.364C166.424 108.868 166.456 108.9 166.516 108.928C166.54 108.957 166.558 108.991 166.569 109.027C166.579 109.064 166.582 109.103 166.576 109.14C166.548 109.204 166.516 109.232 166.488 109.292L166.456 109.324C166.396 109.356 166.336 109.356 166.276 109.384C166.216 109.412 166.184 109.356 166.152 109.356L166.032 109.232C166.01 109.204 165.996 109.171 165.99 109.137C165.984 109.102 165.988 109.066 166 109.033C166.012 108.999 166.032 108.97 166.058 108.947C166.085 108.923 166.117 108.907 166.152 108.9H166.336C166.336 108.907 166.339 108.915 166.344 108.92C166.349 108.925 166.356 108.928 166.364 108.928H166.356Z" fill="#0E0E0E"/>
<path d="M166.4 112.212C166 112.424 166.34 113.012 166.768 112.756C166.844 112.711 166.907 112.646 166.951 112.569C166.995 112.492 167.018 112.405 167.018 112.316C167.018 112.227 166.995 112.14 166.951 112.063C166.907 111.986 166.844 111.922 166.768 111.876C166.715 111.848 166.655 111.834 166.595 111.836C166.535 111.837 166.477 111.854 166.425 111.884C166.373 111.915 166.33 111.958 166.3 112.01C166.27 112.062 166.253 112.12 166.252 112.18V112.452C166.251 112.504 166.263 112.556 166.286 112.603C166.308 112.65 166.341 112.691 166.382 112.723C166.423 112.756 166.471 112.778 166.521 112.79C166.572 112.801 166.625 112.8 166.676 112.788C166.793 112.761 166.899 112.696 166.975 112.602C167.052 112.509 167.096 112.393 167.1 112.272C167.103 112.228 167.096 112.183 167.081 112.141C167.065 112.099 167.041 112.061 167.009 112.03C166.978 111.998 166.94 111.973 166.899 111.957C166.857 111.941 166.812 111.934 166.768 111.936C166.681 111.942 166.598 111.979 166.537 112.041C166.475 112.103 166.437 112.185 166.432 112.272C166.464 112.24 166.464 112.212 166.492 112.152L166.92 112.484V112.212C166.753 112.324 166.579 112.425 166.4 112.516C166.372 112.502 166.349 112.48 166.333 112.453C166.317 112.426 166.308 112.395 166.308 112.364C166.308 112.333 166.317 112.302 166.333 112.276C166.349 112.249 166.372 112.227 166.4 112.212Z" fill="#0E0E0E"/>
<path opacity="0.15" d="M157.027 101.788C154.811 103.921 152.132 105.512 149.199 106.436C148.813 106.051 148.345 105.758 147.829 105.58C147.314 105.401 146.765 105.341 146.223 105.404C144.399 105.68 143.639 107.38 143.519 107.652C143.074 108.732 143.074 109.944 143.519 111.024C144.016 112.203 144.953 113.141 146.131 113.64C146.791 113.891 147.493 114.014 148.199 114.004C147.531 119.412 143.943 123.848 139.235 125.096C134.159 126.46 129.875 123.604 129.359 123.24C127.362 121.842 125.811 119.898 124.891 117.64C124.043 118.524 121.579 121.196 121.247 125.3C120.883 129.676 123.099 132.804 124.223 134.352C128.267 139.976 134.495 141.128 135.711 141.344C137.107 141.584 142.151 142.344 146.983 139.488C148.069 138.836 149.069 138.05 149.959 137.148C150.612 137.777 151.374 138.283 152.207 138.64C153.126 138.998 154.111 139.153 155.095 139.092C154.797 137.561 154.644 136.004 154.639 134.444C154.644 132.329 154.93 130.224 155.491 128.184C156.713 128.685 157.96 129.122 159.227 129.492C161.693 130.19 164.234 130.593 166.795 130.692C164.151 128.808 160.795 125.648 158.955 120.908C156.795 115.44 157.859 109.968 158.955 103.924C159.365 101.591 159.923 99.2864 160.627 97.0244C159.699 98.8004 158.482 100.41 157.027 101.788Z" fill="#404040"/>
<path opacity="0.23" d="M147.672 114.124C148.309 114.27 148.967 114.301 149.616 114.216C150.499 115.822 151.222 117.511 151.772 119.26C152.483 121.557 152.886 123.937 152.972 126.34C153.004 128.316 153.064 130.504 152.12 133.14C151.583 134.613 150.825 135.996 149.872 137.24C151.24 137.696 152.608 138.184 153.976 138.64C153.447 137.33 153.129 135.945 153.032 134.536C152.841 131.927 153.355 129.315 154.52 126.972C155.92 127.456 157.32 127.972 158.716 128.46C156.833 126.72 155.314 124.624 154.248 122.292C153.336 120.256 153.004 118.432 151.36 115.492C150.829 114.525 150.241 113.59 149.6 112.692C148.444 112.996 147.288 113.272 146.136 113.544C146.617 113.811 147.134 114.006 147.672 114.124Z" fill="#6E6C6C"/>
<path opacity="0.25" d="M177.144 128.649C177.296 130.869 177.48 133.757 175.684 136.613C173.772 139.621 170.824 140.681 169.88 141.013C169.516 141.133 164.716 142.713 160.372 140.213C159.879 139.938 159.411 139.622 158.972 139.269C160.126 136.506 161.281 133.741 162.436 130.973C162.864 131.673 164.14 133.741 166.508 134.345C170.032 135.257 173.468 132.281 174.908 129.517C176.792 125.917 175.456 122.253 175.18 121.553C176.331 123.752 177.001 126.171 177.144 128.649Z" fill="#404040"/>
<path d="M141.14 202.272C139.736 202.245 138.34 202.064 136.976 201.732L137.152 200.952C143.268 202.32 144.108 200.552 144.116 200.552L144.868 200.828C144.8 201.004 144.248 202.272 141.14 202.272Z" fill="#0E0E0E"/>
<path d="M140.832 204.976C139.429 204.948 138.032 204.768 136.668 204.44L136.844 203.64C142.96 205.004 143.8 203.24 143.808 203.24L144.56 203.512C144.496 203.712 143.94 204.976 140.832 204.976Z" fill="#0E0E0E"/>
<path d="M239.668 134.44L239.644 133.64C244.732 133.484 247.212 130.66 247.244 130.632L247.852 131.152C247.736 131.28 245.128 134.272 239.668 134.44Z" fill="#0E0E0E"/>
<path d="M241.492 135.8L241.456 135C247 134.756 249.384 131.104 249.408 131.068L250.084 131.496C250 131.66 247.472 135.536 241.492 135.8Z" fill="#0E0E0E"/>
<path d="M243.916 137.032L243.836 136.232C246.391 135.958 248.783 134.844 250.636 133.064L251.2 133.6C249.23 135.536 246.662 136.745 243.916 137.032Z" fill="#0E0E0E"/>
<path d="M139.704 207.456C139.257 207.455 138.811 207.427 138.368 207.372L138.464 206.572C142.528 207.064 144.732 204.972 144.752 204.952L145.312 205.524C145.224 205.62 143.304 207.456 139.704 207.456Z" fill="#0E0E0E"/>
<path d="M323.416 152.348C323.416 152.348 330.276 154.452 333.604 152.348H323.416Z" fill="white"/>
<path d="M329.464 153.684C327.375 153.639 325.301 153.317 323.296 152.728L323.532 151.964C323.6 151.964 330.256 153.988 333.392 152.008L333.82 152.684C332.632 153.436 331.044 153.684 329.464 153.684Z" fill="#0E0E0E"/>
<path d="M323.344 154.948C323.344 154.948 330.944 156.188 333.604 154.948H323.344Z" fill="white"/>
<path d="M329.732 155.9C327.572 155.866 325.415 155.68 323.28 155.344L323.408 154.544C323.484 154.544 330.916 155.744 333.436 154.576L333.776 155.3C332.824 155.752 331.316 155.9 329.732 155.9Z" fill="#0E0E0E"/>
<path d="M325.76 157.532C325.76 157.532 331.876 158.424 333.604 157.532H325.76Z" fill="white"/>
<path d="M330.752 158.332C329.062 158.307 327.376 158.173 325.704 157.932L325.82 157.132C327.484 157.376 332.096 157.856 333.42 157.172L333.784 157.884C333.14 158.22 332 158.332 330.752 158.332Z" fill="#0E0E0E"/>
</svg>
