<svg width="178" height="40" viewBox="0 0 178 40" fill="none" xmlns="http://www.w3.org/2000/svg">
<path d="M42.8359 9.38184H46.9455V29.1764H42.8359V9.38184Z" fill="#273238"/>
<path d="M49.2467 22.3948C49.2468 20.9706 49.6696 19.5786 50.4617 18.395C51.2538 17.2115 52.3794 16.2897 53.6959 15.7466C55.0124 15.2035 56.4606 15.0635 57.8568 15.3444C59.2529 15.6252 60.5343 16.3142 61.5384 17.3241C62.5426 18.334 63.2243 19.6193 63.4971 21.0171C63.7699 22.4149 63.6216 23.8622 63.071 25.1756C62.5204 26.4889 61.5922 27.6093 60.4041 28.3946C59.216 29.1798 57.8216 29.5947 56.3974 29.5866C55.4529 29.594 54.5163 29.4127 53.6427 29.0533C52.7691 28.694 51.9761 28.1639 51.3101 27.4941C50.6441 26.8242 50.1185 26.0281 49.7642 25.1525C49.4099 24.2769 49.234 23.3393 49.2467 22.3948V22.3948ZM59.5481 22.3948C59.5319 21.7808 59.3351 21.1852 58.9823 20.6826C58.6294 20.1799 58.1361 19.7924 57.5642 19.5685C56.9923 19.3447 56.367 19.2944 55.7667 19.4241C55.1663 19.5537 54.6175 19.8575 54.1889 20.2974C53.7603 20.7372 53.4709 21.2938 53.3569 21.8973C53.2429 22.5008 53.3094 23.1245 53.548 23.6904C53.7866 24.2564 54.1868 24.7394 54.6985 25.0791C55.2102 25.4188 55.8106 25.6001 56.4248 25.6003C56.843 25.6084 57.2583 25.5302 57.6449 25.3706C58.0315 25.2109 58.381 24.9733 58.6715 24.6724C58.9621 24.3716 59.1875 24.014 59.3336 23.6221C59.4797 23.2302 59.5434 22.8124 59.5207 22.3948H59.5481Z" fill="#273238"/>
<path d="M79.8081 15.6163V28.5067C79.8081 33.0547 76.2465 34.9862 72.6438 34.9862C71.373 35.0905 70.0983 34.838 68.9633 34.2572C67.8282 33.6763 66.8778 32.7902 66.2191 31.6985L69.6849 29.6985C69.9657 30.2648 70.4124 30.732 70.9655 31.0379C71.5186 31.3438 72.1518 31.4739 72.7807 31.4109C73.1814 31.4602 73.588 31.4204 73.9715 31.2943C74.3549 31.1683 74.7058 30.959 74.999 30.6815C75.2922 30.4041 75.5204 30.0652 75.6674 29.6893C75.8144 29.3133 75.8765 28.9095 75.8492 28.5067V27.2602C75.371 27.84 74.7642 28.3004 74.077 28.6047C73.3898 28.9091 72.6411 29.0491 71.8903 29.0136C70.0738 29.0136 68.3316 28.292 67.0471 27.0075C65.7626 25.723 65.041 23.9808 65.041 22.1643C65.041 20.3477 65.7626 18.6056 67.0471 17.3211C68.3316 16.0366 70.0738 15.315 71.8903 15.315C72.6411 15.2795 73.3898 15.4195 74.077 15.7238C74.7642 16.0282 75.371 16.4886 75.8492 17.0684V15.6985L79.8081 15.6163ZM75.8492 22.1232C75.8766 21.4678 75.7072 20.8192 75.363 20.2609C75.0187 19.7025 74.5153 19.2599 73.9175 18.9899C73.3197 18.7199 72.6548 18.6349 72.0083 18.7459C71.3618 18.8569 70.7633 19.1587 70.2897 19.6125C69.8161 20.0664 69.4891 20.6515 69.3507 21.2927C69.2124 21.9339 69.269 22.6019 69.5133 23.2106C69.7576 23.8194 70.1784 24.3412 70.7216 24.7088C71.2648 25.0765 71.9056 25.2733 72.5616 25.2739C72.9896 25.3047 73.4193 25.2454 73.823 25.0998C74.2267 24.9543 74.5953 24.7256 74.9052 24.4287C75.215 24.1318 75.4591 23.7732 75.6217 23.3761C75.7843 22.9789 75.8618 22.5521 75.8492 22.1232V22.1232Z" fill="#273238"/>
<path d="M82.1235 22.3949C82.1235 20.9719 82.5457 19.5809 83.3365 18.3979C84.1274 17.215 85.2514 16.2932 86.5663 15.7493C87.8812 15.2053 89.328 15.0637 90.7234 15.3423C92.1188 15.6209 93.4003 16.3072 94.4055 17.3144C95.4108 18.3216 96.0946 19.6043 96.3706 21.0003C96.6465 22.3962 96.5021 23.8427 95.9557 25.1566C95.4093 26.4705 94.4854 27.5927 93.3009 28.3813C92.1164 29.1699 90.7246 29.5894 89.3016 29.5867C88.3553 29.5959 87.4166 29.416 86.5407 29.0577C85.6647 28.6993 84.8692 28.1697 84.2006 27.4999C83.532 26.83 83.0039 26.0335 82.6473 25.1568C82.2906 24.2802 82.1125 23.3412 82.1235 22.3949ZM92.4249 22.3949C92.4087 21.7803 92.2115 21.1842 91.858 20.6813C91.5046 20.1783 91.0105 19.7908 90.4378 19.5674C89.8651 19.344 89.2391 19.2945 88.6384 19.4253C88.0377 19.556 87.489 19.8611 87.0609 20.3024C86.6329 20.7437 86.3446 21.3014 86.2321 21.9058C86.1197 22.5102 86.1881 23.1343 86.4288 23.7C86.6695 24.2657 87.0718 24.7478 87.5853 25.0858C88.0987 25.4239 88.7005 25.6029 89.3153 25.6004C89.7335 25.6085 90.1488 25.5303 90.5354 25.3707C90.922 25.211 91.2715 24.9734 91.562 24.6725C91.8526 24.3717 92.078 24.0141 92.2241 23.6222C92.3702 23.2303 92.4339 22.8125 92.4112 22.3949H92.4249Z" fill="#273238"/>
<path d="M98.3828 11.9828C98.3828 11.5005 98.5258 11.0291 98.7937 10.6281C99.0617 10.2271 99.4425 9.9146 99.8881 9.73004C100.334 9.54549 100.824 9.4972 101.297 9.59129C101.77 9.68537 102.204 9.9176 102.545 10.2586C102.886 10.5996 103.119 11.0341 103.213 11.5071C103.307 11.9801 103.258 12.4704 103.074 12.9159C102.889 13.3615 102.577 13.7423 102.176 14.0102C101.775 14.2781 101.303 14.4211 100.821 14.4211C100.177 14.414 99.5606 14.1548 99.1049 13.6991C98.6491 13.2433 98.3899 12.6273 98.3828 11.9828V11.9828ZM98.7801 15.6129H102.89V29.1746H98.7801V15.6129Z" fill="#273238"/>
<path d="M120.48 22.3965C120.526 23.2985 120.393 24.2006 120.089 25.051C119.785 25.9014 119.316 26.6834 118.709 27.3518C118.102 28.0202 117.368 28.5619 116.551 28.9457C115.733 29.3296 114.848 29.548 113.946 29.5883C113.18 29.6393 112.413 29.5167 111.701 29.2296C110.99 28.9426 110.352 28.4986 109.836 27.9308V34.6294H105.727V15.6157H109.836V16.8897C110.353 16.3235 110.991 15.8816 111.703 15.5969C112.414 15.3122 113.181 15.1922 113.946 15.2459C114.844 15.2863 115.726 15.5034 116.541 15.8846C117.355 16.2659 118.087 16.8039 118.694 17.4679C119.301 18.1319 119.771 18.9089 120.077 19.7546C120.384 20.6002 120.52 21.498 120.48 22.3965V22.3965ZM116.37 22.3965C116.354 21.7603 116.151 21.143 115.785 20.622C115.42 20.101 114.908 19.6995 114.316 19.4678C113.723 19.2361 113.075 19.1845 112.453 19.3194C111.831 19.4544 111.263 19.77 110.819 20.2266C110.376 20.6832 110.077 21.2605 109.96 21.8861C109.844 22.5118 109.914 23.1579 110.163 23.7436C110.412 24.3293 110.829 24.8285 111.36 25.1786C111.892 25.5287 112.515 25.7141 113.151 25.7116C113.587 25.7301 114.022 25.6563 114.427 25.4949C114.833 25.3335 115.2 25.0883 115.503 24.7753C115.807 24.4623 116.042 24.0885 116.191 23.6786C116.341 23.2686 116.402 22.8317 116.37 22.3965V22.3965Z" fill="#273238"/>
<path d="M132.985 25.1073C132.985 28.2305 130.246 29.5593 127.341 29.5593C126.157 29.6659 124.968 29.4149 123.927 28.8385C122.887 28.2622 122.044 27.3872 121.506 26.3264L125.04 24.3264C125.18 24.8152 125.484 25.2411 125.9 25.5329C126.317 25.8246 126.821 25.9645 127.328 25.9292C128.3 25.9292 128.794 25.6278 128.794 25.0799C128.794 23.5867 122.122 24.3812 122.122 19.6826C122.122 16.7237 124.615 15.2442 127.437 15.2442C128.51 15.1962 129.576 15.4396 130.521 15.9485C131.467 16.4574 132.257 17.2129 132.807 18.1346L129.273 19.9977C129.117 19.6443 128.862 19.3436 128.538 19.1321C128.215 18.9207 127.837 18.8073 127.451 18.8059C126.739 18.8059 126.314 19.0799 126.314 19.5593C126.314 21.1209 132.985 20.0936 132.985 25.1073Z" fill="#273238"/>
<path d="M147.877 15.6172V29.1788H143.767V27.9049C143.301 28.4688 142.708 28.9151 142.037 29.2077C141.366 29.5004 140.635 29.6313 139.904 29.5898C137.165 29.5898 134.822 27.6309 134.822 23.9734V15.6172H138.932V23.3569C138.9 23.6805 138.938 24.0072 139.044 24.3145C139.15 24.6219 139.322 24.9024 139.548 25.1369C139.773 25.3713 140.046 25.5541 140.349 25.6725C140.652 25.7909 140.977 25.8421 141.302 25.8227C142.781 25.8227 143.822 24.946 143.822 23.0829V15.6172H147.877Z" fill="#273238"/>
<path d="M171.165 20.8491V29.1779H167.055V21.2053C167.055 19.8354 166.412 18.9861 165.11 18.9861C163.809 18.9861 162.987 19.9313 162.987 21.534V29.1779H158.877V21.2053C158.877 19.8354 158.233 18.9861 156.932 18.9861C155.631 18.9861 154.809 19.9313 154.809 21.534V29.1779H150.699V15.6162H154.809V16.8628C155.234 16.3121 155.79 15.8759 156.426 15.5937C157.062 15.3115 157.759 15.1921 158.453 15.2464C159.148 15.2101 159.84 15.3552 160.462 15.6674C161.084 15.9796 161.614 16.4482 162.001 17.0272C162.452 16.4223 163.049 15.9417 163.737 15.6303C164.424 15.3189 165.18 15.1868 165.932 15.2464C169.138 15.2464 171.165 17.4655 171.165 20.8491Z" fill="#273238"/>
<path d="M18.3562 5.82192V0H0V40H18.3562V34.1781C14.5959 34.1781 10.9897 32.6843 8.33075 30.0254C5.67184 27.3665 4.17808 23.7603 4.17808 20C4.17808 16.2397 5.67184 12.6335 8.33075 9.97458C10.9897 7.31568 14.5959 5.82192 18.3562 5.82192Z" fill="#3C5FAC"/>
<path d="M18.3555 5.82129V34.1775C22.1157 34.1775 25.722 32.6837 28.3809 30.0248C31.0398 27.3659 32.5336 23.7596 32.5336 19.9994C32.5336 16.2391 31.0398 12.6329 28.3809 9.97395C25.722 7.31505 22.1157 5.82129 18.3555 5.82129V5.82129Z" fill="#3C5FAC"/>
<path d="M174.617 15.5308C176.282 15.5308 177.631 14.1815 177.631 12.5171C177.631 10.8527 176.282 9.50342 174.617 9.50342C172.953 9.50342 171.604 10.8527 171.604 12.5171C171.604 14.1815 172.953 15.5308 174.617 15.5308Z" fill="#273238"/>
</svg>
